<svg width="17" height="17" viewBox="0 0 17 17" fill="none" xmlns="http://www.w3.org/2000/svg">
<path fill-rule="evenodd" clip-rule="evenodd" d="M4.71467 14.922L10.7147 1.42204L12.0854 2.03125L6.08538 15.5312L4.71467 14.922ZM14.3818 10.4766L11.4565 12.6218L12.3435 13.8314L16.0935 11.0814C16.2862 10.9402 16.4 10.7156 16.4 10.4766C16.4 10.2377 16.2862 10.0131 16.0935 9.87184L12.3435 7.12184L11.4565 8.33145L14.3818 10.4766ZM2.41828 6.47664L5.34355 8.62184L4.4565 9.83145L0.706503 7.08145C0.513846 6.94017 0.400025 6.71555 0.400025 6.47664C0.400025 6.23774 0.513846 6.01312 0.706503 5.87184L4.4565 3.12184L5.34355 4.33145L2.41828 6.47664Z" fill="#292A2E"/>
</svg>
