<svg width="17" height="17" viewBox="0 0 17 17" fill="none" xmlns="http://www.w3.org/2000/svg">
<path fill-rule="evenodd" clip-rule="evenodd" d="M8.35149 1.90841C8.70142 3.26273 8.69857 4.71021 8.30164 6.10059C8.6723 6.27657 9.03871 6.46876 9.40001 6.67735C9.7613 6.88594 10.1109 7.10718 10.4487 7.34018C11.4543 6.30125 12.7065 5.57504 14.0543 5.20092C13.5024 4.22594 12.6912 3.38135 11.65 2.78024C10.6088 2.17912 9.47178 1.89886 8.35149 1.90841ZM14.6424 6.59736C13.5293 6.87118 12.4907 7.43663 11.6496 8.25964C12.6666 9.12158 13.5491 10.0996 14.2887 11.1622C14.9784 9.69154 15.07 8.07111 14.6424 6.59736ZM13.4103 12.552C12.6839 11.397 11.7785 10.3399 10.7061 9.42631C10.6577 9.50265 10.6107 9.58035 10.5651 9.6594C9.64336 11.2558 9.4755 13.0794 9.95191 14.7214C11.2802 14.3947 12.503 13.6523 13.4103 12.552ZM8.44852 14.9104C7.94264 12.9524 8.17445 10.8001 9.26603 8.9094C9.34375 8.77479 9.42483 8.64324 9.50911 8.5148C9.23164 8.3265 8.94522 8.14683 8.65001 7.97639C8.35479 7.80594 8.05599 7.64774 7.75417 7.50159C7.68508 7.6388 7.6117 7.77479 7.53398 7.9094C6.4424 9.80008 4.69435 11.077 2.74573 11.6179C3.2976 12.5929 4.10884 13.4374 5.15001 14.0386C6.19118 14.6397 7.32823 14.9199 8.44852 14.9104ZM2.15766 10.2214C3.81792 9.81299 5.31324 8.75585 6.23494 7.1594C6.28058 7.08035 6.32436 7.00077 6.36629 6.92071C5.03889 6.44879 3.67073 6.1932 2.30724 6.14162C1.80801 7.47759 1.77647 8.90772 2.15766 10.2214ZM3.07163 4.68601C4.36164 4.79525 5.64995 5.07054 6.9049 5.52027C7.19712 4.38038 7.16748 3.19817 6.8481 2.09735C5.35797 2.46385 4.00046 3.35343 3.07163 4.68601ZM7.23569 0.494286C8.95771 0.239927 10.776 0.543548 12.4 1.4812C14.0241 2.41885 15.1961 3.84168 15.8369 5.46017C16.7044 7.6517 16.5995 10.2075 15.3282 12.4094C15.2034 12.6255 15.07 12.8338 14.9285 13.034C13.63 14.8711 11.6665 16.014 9.56433 16.3245C7.8423 16.5789 6.02406 16.2753 4.40001 15.3376C2.77595 14.4 1.60389 12.9771 0.96316 11.3586C0.180986 9.38284 0.188992 7.11094 1.13077 5.06786C1.23339 4.84525 1.34702 4.62553 1.4718 4.4094C2.7431 2.20745 4.90398 0.838702 7.23569 0.494286Z" fill="#292A2E"/>
</svg>
