<svg width="17" height="17" viewBox="0 0 17 17" fill="none" xmlns="http://www.w3.org/2000/svg">
<path fill-rule="evenodd" clip-rule="evenodd" d="M2.40002 3.07544C2.40002 1.48762 3.68721 0.200439 5.27502 0.200439H13.65C14.0642 0.200439 14.4 0.536226 14.4 0.950439V9.70044C14.4 10.1147 14.0642 10.4504 13.65 10.4504V13.2004H14.4V14.7004H10.9V13.2004H12.15V10.4504H5.27502C4.51563 10.4504 3.90002 11.066 3.90002 11.8254C3.90002 12.5848 4.51563 13.2004 5.27502 13.2004H5.90002V14.7004H5.27502C3.68721 14.7004 2.40002 13.4133 2.40002 11.8254V3.07544ZM3.90002 9.29994C4.30848 9.07709 4.77696 8.95044 5.27502 8.95044H12.9V1.70044H5.27502C4.51563 1.70044 3.90002 2.31605 3.90002 3.07544V9.29994Z" fill="#292A2E"/>
<path d="M6.90002 15.7641V11.7004H9.90002V15.7641C9.90002 15.9975 9.60868 16.1036 9.4586 15.9249L8.40002 14.6647L7.34145 15.9249C7.19137 16.1036 6.90002 15.9975 6.90002 15.7641Z" fill="#292A2E"/>
</svg>
