<svg width="17" height="17" viewBox="0 0 17 17" fill="none" xmlns="http://www.w3.org/2000/svg">
<path fill-rule="evenodd" clip-rule="evenodd" d="M6.40002 3.09595C6.12388 3.09595 5.90002 3.3198 5.90002 3.59595V4.59595H10.9V3.59595C10.9 3.31981 10.6762 3.09595 10.4 3.09595H6.40002ZM12.4 4.59595V3.59595C12.4 2.49138 11.5046 1.59595 10.4 1.59595H6.40002C5.29545 1.59595 4.40002 2.49138 4.40002 3.59595V4.59595H3.40002C2.29545 4.59595 1.40002 5.49138 1.40002 6.59595V13.5959C1.40002 14.7005 2.29546 15.5959 3.40002 15.5959H13.4C14.5046 15.5959 15.4 14.7005 15.4 13.5959V6.59595C15.4 5.49138 14.5046 4.59595 13.4 4.59595H12.4ZM3.40002 6.09595C3.12388 6.09595 2.90002 6.3198 2.90002 6.59595V8.59595H13.9V6.59595C13.9 6.3198 13.6762 6.09595 13.4 6.09595H3.40002ZM13.9 10.0959H9.15002V11.5959H7.65002V10.0959H2.90002V13.5959C2.90002 13.8721 3.12388 14.0959 3.40002 14.0959H13.4C13.6762 14.0959 13.9 13.8721 13.9 13.5959V10.0959Z" fill="#292A2E"/>
</svg>
