<svg width="17" height="17" viewBox="0 0 17 17" fill="none" xmlns="http://www.w3.org/2000/svg">
<path fill-rule="evenodd" clip-rule="evenodd" d="M8.40002 2.88696C7.5716 2.88696 6.90002 3.55854 6.90002 4.38696H9.90002C9.90002 3.55854 9.22845 2.88696 8.40002 2.88696ZM11.4 4.4077V4.38696C11.4 2.73011 10.0569 1.38696 8.40002 1.38696C6.74317 1.38696 5.40002 2.73011 5.40002 4.38696V4.4077C5.10954 4.45644 4.84737 4.58866 4.63902 4.77885L3.75234 4.14551L2.83538 2.08236L1.46467 2.69157L2.4093 4.817C2.49992 5.02089 2.64346 5.19681 2.82502 5.32649L4.15002 6.27293V7.38696H0.900024V8.88696H4.15002V10.0357L3.00023 10.9938C2.86775 11.1042 2.75955 11.2409 2.68243 11.3951L1.4792 13.8016L2.82084 14.4724L4.00068 12.1127L4.46127 11.7289C5.09684 13.3053 6.6383 14.387 8.40149 14.387H8.65002C10.3691 14.387 11.8349 13.3025 12.4006 11.7804L12.7994 12.1127L13.9792 14.4724L15.3208 13.8016L14.1176 11.3951C14.0405 11.2409 13.9323 11.1042 13.7998 10.9938L12.65 10.0357V8.88696H15.9V7.38696H12.65V6.27293L13.975 5.32649C14.1566 5.19681 14.3001 5.02089 14.3907 4.817L15.3354 2.69157L13.9647 2.08236L13.0477 4.14551L12.161 4.77885C11.9527 4.58866 11.6905 4.45644 11.4 4.4077ZM11.15 10.387V5.88696H5.65002V10.3296L5.68491 10.5564C5.89119 11.8972 7.04489 12.887 8.40149 12.887H8.65002C10.0307 12.887 11.15 11.7677 11.15 10.387Z" fill="#292A2E"/>
</svg>
