<svg width="17" height="17" viewBox="0 0 17 17" fill="none" xmlns="http://www.w3.org/2000/svg">
<path fill-rule="evenodd" clip-rule="evenodd" d="M4.90002 3.28247V5.28247H6.40002V3.28247H10.4V5.28247H11.9V3.28247H13.4C13.6762 3.28247 13.9 3.50633 13.9 3.78247V6.78247H2.90002V3.78247C2.90002 3.50633 3.12388 3.28247 3.40002 3.28247H4.90002ZM2.90002 8.28247V13.7825C2.90002 14.0586 3.12388 14.2825 3.40002 14.2825H13.4C13.6762 14.2825 13.9 14.0586 13.9 13.7825V8.28247H2.90002ZM11.9 1.78247H13.4C14.5046 1.78247 15.4 2.6779 15.4 3.78247V13.7825C15.4 14.887 14.5046 15.7825 13.4 15.7825H3.40002C2.29546 15.7825 1.40002 14.887 1.40002 13.7825V3.78247C1.40002 2.6779 2.29545 1.78247 3.40002 1.78247H4.90002V0.782471H6.40002V1.78247H10.4V0.782471H11.9V1.78247Z" fill="#292A2E"/>
</svg>
