<svg width="17" height="17" viewBox="0 0 17 17" fill="none" xmlns="http://www.w3.org/2000/svg">
<path fill-rule="evenodd" clip-rule="evenodd" d="M4.90002 3.07349V5.07349H6.40002V3.07349H10.4V5.07349H11.9V3.07349H13.4C13.6762 3.07349 13.9 3.29734 13.9 3.57349V6.57349H2.90002V3.57349C2.90002 3.29734 3.12388 3.07349 3.40002 3.07349H4.90002ZM2.90002 8.07349V13.5735C2.90002 13.8496 3.12388 14.0735 3.40002 14.0735H7.90002V15.5735H3.40002C2.29545 15.5735 1.40002 14.6781 1.40002 13.5735V3.57349C1.40002 2.46892 2.29545 1.57349 3.40002 1.57349H4.90002V0.573486H6.40002V1.57349H10.4V0.573486H11.9V1.57349H13.4C14.5046 1.57349 15.4 2.46892 15.4 3.57349V8.07349H2.90002ZM12.65 12.8237V10.5737H14.15V12.8237H16.4V14.3237H14.15V16.5737H12.65V14.3237H10.4V12.8237H12.65Z" fill="#292A2E"/>
</svg>
