<svg width="17" height="17" viewBox="0 0 17 17" fill="none" xmlns="http://www.w3.org/2000/svg">
<path fill-rule="evenodd" clip-rule="evenodd" d="M5.80002 1.76899C5.94167 1.58014 6.16396 1.46899 6.40002 1.46899H10.4C10.6361 1.46899 10.8584 1.58014 11 1.76899L12.275 3.46899H13.65C15.1688 3.46899 16.4 4.70021 16.4 6.21899V12.969C16.4 14.0736 15.5046 14.969 14.4 14.969H2.40002C1.29545 14.969 0.400024 14.0736 0.400024 12.969V6.21899C0.400024 4.70021 1.63124 3.46899 3.15002 3.46899H4.52502L5.80002 1.76899ZM6.77502 2.96899L5.50002 4.66899C5.35838 4.85785 5.13609 4.96899 4.90002 4.96899H3.15002C2.45967 4.96899 1.90002 5.52864 1.90002 6.21899V12.969C1.90002 13.2451 2.12388 13.469 2.40002 13.469H14.4C14.6762 13.469 14.9 13.2451 14.9 12.969V6.21899C14.9 5.52864 14.3404 4.96899 13.65 4.96899H11.9C11.664 4.96899 11.4417 4.85785 11.3 4.66899L10.025 2.96899H6.77502ZM8.40002 7.46899C7.43353 7.46899 6.65002 8.2525 6.65002 9.21899C6.65002 10.1855 7.43353 10.969 8.40002 10.969C9.36652 10.969 10.15 10.1855 10.15 9.21899C10.15 8.2525 9.36652 7.46899 8.40002 7.46899ZM5.15002 9.21899C5.15002 7.42407 6.6051 5.96899 8.40002 5.96899C10.195 5.96899 11.65 7.42407 11.65 9.21899C11.65 11.0139 10.195 12.469 8.40002 12.469C6.6051 12.469 5.15002 11.0139 5.15002 9.21899Z" fill="#292A2E"/>
</svg>
