<svg width="17" height="17" viewBox="0 0 17 17" fill="none" xmlns="http://www.w3.org/2000/svg">
<path fill-rule="evenodd" clip-rule="evenodd" d="M1.40002 13.76C1.40002 14.8646 2.29546 15.76 3.40002 15.76H13.4C14.5046 15.76 15.4 14.8646 15.4 13.76V3.76001C15.4 2.65544 14.5046 1.76001 13.4 1.76001H3.40002C2.29546 1.76001 1.40002 2.65544 1.40002 3.76001V13.76ZM3.40002 14.26C3.12388 14.26 2.90002 14.0362 2.90002 13.76V9.76001H13.9V13.76C13.9 14.0362 13.6762 14.26 13.4 14.26H3.40002ZM13.9 8.26001H2.90002V3.76001C2.90002 3.48387 3.12388 3.26001 3.40002 3.26001H13.4C13.6762 3.26001 13.9 3.48387 13.9 3.76001V8.26001ZM4.40002 12.76H9.40002V11.26H4.40002V12.76ZM10.9 12.76H12.4V11.26H10.9V12.76Z" fill="#292A2E"/>
</svg>
