<svg width="17" height="17" viewBox="0 0 17 17" fill="none" xmlns="http://www.w3.org/2000/svg">
<path d="M1.15002 2.15552C0.735811 2.15552 0.400024 2.4913 0.400024 2.90552V13.4055C0.400025 13.8197 0.735811 14.1555 1.15002 14.1555H15.65C16.0642 14.1555 16.4 13.8197 16.4 13.4055V2.90552C16.4 2.4913 16.0642 2.15552 15.65 2.15552H1.15002ZM14.9 12.6555H1.90002V3.65552H14.9V12.6555ZM12.4 9.15552V11.6555H13.9V9.15552H12.4ZM7.40002 8.15552C7.40005 7.1408 8.01224 6.65552 8.40002 6.65552C8.78781 6.65552 9.4 7.1408 9.40002 8.15552C9.40002 9.17028 8.78782 9.65552 8.40002 9.65552C8.01223 9.65552 7.40002 9.17028 7.40002 8.15552ZM2.90002 4.65552V7.15552H4.40002V4.65552H2.90002ZM5.90002 8.15552C5.90002 9.62604 6.85482 11.1555 8.40002 11.1555C9.94523 11.1555 10.9 9.62604 10.9 8.15552C10.9 6.68501 9.94521 5.15552 8.40002 5.15552C6.85484 5.15552 5.90005 6.68501 5.90002 8.15552Z" fill="#292A2E"/>
</svg>
