<svg width="17" height="17" viewBox="0 0 17 17" fill="none" xmlns="http://www.w3.org/2000/svg">
<path fill-rule="evenodd" clip-rule="evenodd" d="M9.73336 2.69653C9.73336 2.28232 10.0691 1.94653 10.4834 1.94653H14.65C15.0642 1.94653 15.4 2.28232 15.4 2.69653V13.9465C15.4 15.0511 14.5046 15.9465 13.4 15.9465H3.40002C2.29546 15.9465 1.40002 15.0511 1.40002 13.9465V10.6965C1.40002 10.2823 1.73581 9.94653 2.15002 9.94653H5.56669V6.69653C5.56669 6.28232 5.90248 5.94653 6.31669 5.94653H9.73336V2.69653ZM9.73336 7.44653H7.06669V14.4465H9.73336V7.44653ZM11.2334 14.4465H13.4C13.6762 14.4465 13.9 14.2227 13.9 13.9465V3.44653H11.2334V14.4465ZM5.56669 14.4465V11.4465H2.90002V13.9465C2.90002 14.2227 3.12388 14.4465 3.40002 14.4465H5.56669Z" fill="#292A2E"/>
</svg>
