<svg width="17" height="17" viewBox="0 0 17 17" fill="none" xmlns="http://www.w3.org/2000/svg">
<path d="M8.40002 4.59204C8.40002 5.42047 7.72845 6.09204 6.90002 6.09204C6.0716 6.09204 5.40002 5.42047 5.40002 4.59204C5.40002 3.76361 6.0716 3.09204 6.90002 3.09204C7.72845 3.09204 8.40002 3.76361 8.40002 4.59204Z" fill="#292A2E"/>
<path d="M13.65 8.34204C13.65 8.89433 13.2023 9.34204 12.65 9.34204C12.0977 9.34204 11.65 8.89433 11.65 8.34204C11.65 7.78976 12.0977 7.34204 12.65 7.34204C13.2023 7.34204 13.65 7.78976 13.65 8.34204Z" fill="#292A2E"/>
<path d="M8.15002 10.592C8.15002 11.0063 7.81424 11.342 7.40002 11.342C6.98581 11.342 6.65002 11.0063 6.65002 10.592C6.65002 10.1778 6.98581 9.84204 7.40002 9.84204C7.81424 9.84204 8.15002 10.1778 8.15002 10.592Z" fill="#292A2E"/>
<path fill-rule="evenodd" clip-rule="evenodd" d="M1.40002 13.342V1.34204H2.90002V13.342C2.90002 13.6182 3.12388 13.842 3.40002 13.842H15.4V15.342H3.40002C2.29546 15.342 1.40002 14.4466 1.40002 13.342ZM6.90002 3.84204C6.48581 3.84204 6.15002 4.17783 6.15002 4.59204C6.15002 5.00625 6.48581 5.34204 6.90002 5.34204C7.31424 5.34204 7.65002 5.00625 7.65002 4.59204C7.65002 4.17783 7.31424 3.84204 6.90002 3.84204ZM4.65002 4.59204C4.65002 3.3494 5.65738 2.34204 6.90002 2.34204C8.14266 2.34204 9.15002 3.3494 9.15002 4.59204C9.15002 5.83468 8.14266 6.84204 6.90002 6.84204C5.65738 6.84204 4.65002 5.83468 4.65002 4.59204ZM12.65 8.09204C12.512 8.09204 12.4 8.20397 12.4 8.34204C12.4 8.48011 12.512 8.59204 12.65 8.59204C12.7881 8.59204 12.9 8.48011 12.9 8.34204C12.9 8.20397 12.7881 8.09204 12.65 8.09204ZM10.9 8.34204C10.9 7.37554 11.6835 6.59204 12.65 6.59204C13.6165 6.59204 14.4 7.37554 14.4 8.34204C14.4 9.30854 13.6165 10.092 12.65 10.092C11.6835 10.092 10.9 9.30854 10.9 8.34204ZM5.90002 10.592C5.90002 9.76361 6.5716 9.09204 7.40002 9.09204C8.22845 9.09204 8.90002 9.76361 8.90002 10.592C8.90002 11.4205 8.22845 12.092 7.40002 12.092C6.5716 12.092 5.90002 11.4205 5.90002 10.592Z" fill="#292A2E"/>
</svg>
