<svg width="17" height="17" viewBox="0 0 17 17" fill="none" xmlns="http://www.w3.org/2000/svg">
<path d="M14.9 8.31958C14.9 4.72973 11.9899 1.81958 8.40002 1.81958C4.81017 1.81958 1.90002 4.72973 1.90002 8.31958C1.90002 11.9094 4.81017 14.8196 8.40002 14.8196C11.9899 14.8196 14.9 11.9094 14.9 8.31958ZM12.7262 5.80005L7.7262 11.8C7.5837 11.9709 7.37253 12.0696 7.15002 12.0696C6.92752 12.0696 6.71635 11.9709 6.57385 11.8L4.07385 8.80005L5.2262 7.83911L7.15002 10.1477L11.5739 4.83911L12.7262 5.80005ZM16.4 8.31958C16.4 12.7379 12.8183 16.3196 8.40002 16.3196C3.98175 16.3196 0.400024 12.7379 0.400024 8.31958C0.400024 3.9013 3.98175 0.31958 8.40002 0.31958C12.8183 0.31958 16.4 3.9013 16.4 8.31958Z" fill="#292A2E"/>
</svg>
