<svg width="17" height="17" viewBox="0 0 17 17" fill="none" xmlns="http://www.w3.org/2000/svg">
<path fill-rule="evenodd" clip-rule="evenodd" d="M1.40002 3.69263C1.40002 2.58806 2.29545 1.69263 3.40002 1.69263H13.4C14.5046 1.69263 15.4 2.58806 15.4 3.69263V13.6926C15.4 14.7972 14.5046 15.6926 13.4 15.6926H3.40002C2.29546 15.6926 1.40002 14.7972 1.40002 13.6926V3.69263ZM3.40002 3.19263C3.12388 3.19263 2.90002 3.41648 2.90002 3.69263V13.6926C2.90002 13.9688 3.12388 14.1926 3.40002 14.1926H13.4C13.6762 14.1926 13.9 13.9688 13.9 13.6926V3.69263C13.9 3.41648 13.6762 3.19263 13.4 3.19263H3.40002Z" fill="#292A2E"/>
</svg>
