<svg width="17" height="17" viewBox="0 0 17 17" fill="none" xmlns="http://www.w3.org/2000/svg">
<path fill-rule="evenodd" clip-rule="evenodd" d="M4.96303 2.14771C5.18505 1.28509 5.9681 0.647705 6.90002 0.647705H9.90002C10.8319 0.647705 11.615 1.28509 11.837 2.14771H12.9C14.0046 2.14771 14.9 3.04314 14.9 4.14771V14.6477C14.9 15.7523 14.0046 16.6477 12.9 16.6477H3.90002C2.79545 16.6477 1.90002 15.7523 1.90002 14.6477V4.14771C1.90002 3.04314 2.79545 2.14771 3.90002 2.14771H4.96303ZM4.90002 3.64771H3.90002C3.62388 3.64771 3.40002 3.87156 3.40002 4.14771V14.6477C3.40002 14.9238 3.62388 15.1477 3.90002 15.1477H12.9C13.1762 15.1477 13.4 14.9238 13.4 14.6477V4.14771C13.4 3.87156 13.1762 3.64771 12.9 3.64771H11.9V4.89771C11.9 5.31192 11.5642 5.64771 11.15 5.64771H5.65002C5.23581 5.64771 4.90002 5.31192 4.90002 4.89771V3.64771ZM6.90002 2.14771C6.62388 2.14771 6.40002 2.37156 6.40002 2.64771V4.14771H10.4V2.64771C10.4 2.37156 10.1762 2.14771 9.90002 2.14771H6.90002Z" fill="#292A2E"/>
</svg>
