<svg width="17" height="17" viewBox="0 0 17 17" fill="none" xmlns="http://www.w3.org/2000/svg">
<path d="M14.9 8.43872C14.9 4.84887 11.9899 1.93872 8.40002 1.93872C4.81017 1.93872 1.90002 4.84887 1.90002 8.43872C1.90002 12.0286 4.81017 14.9387 8.40002 14.9387C11.9899 14.9387 14.9 12.0286 14.9 8.43872ZM9.15002 3.68872V8.07739L11.3688 9.85278L10.4313 11.0247L7.93127 9.02466L7.65002 8.79907V3.68872H9.15002ZM16.4 8.43872C16.4 12.857 12.8183 16.4387 8.40002 16.4387C3.98175 16.4387 0.400024 12.857 0.400024 8.43872C0.400024 4.02044 3.98175 0.438721 8.40002 0.438721C12.8183 0.438721 16.4 4.02044 16.4 8.43872Z" fill="#292A2E"/>
</svg>
