<svg width="17" height="17" viewBox="0 0 17 17" fill="none" xmlns="http://www.w3.org/2000/svg">
<path fill-rule="evenodd" clip-rule="evenodd" d="M8.40002 3.83423C6.17043 3.83423 4.3412 5.55161 4.16411 7.73516C4.13814 8.05545 3.911 8.32361 3.59935 8.40192C2.62251 8.64738 1.90002 9.53237 1.90002 10.5842C1.90002 11.8269 2.90738 12.8342 4.15002 12.8342V14.3342C2.07896 14.3342 0.400024 12.6553 0.400024 10.5842C0.400024 9.01428 1.36422 7.67103 2.732 7.11185C3.19432 4.39898 5.55571 2.33423 8.40002 2.33423C11.0826 2.33423 13.3349 4.17054 13.9707 6.65464C15.3986 7.26495 16.4 8.68182 16.4 10.3342C16.4 12.5434 14.6092 14.3342 12.4 14.3342V12.8342C13.7807 12.8342 14.9 11.7149 14.9 10.3342C14.9 9.20188 14.1466 8.24355 13.1121 7.93689C12.8391 7.85596 12.6354 7.6274 12.5864 7.34689C12.2378 5.35122 10.4953 3.83423 8.40002 3.83423ZM8.40022 7.83423C8.59914 7.83423 8.7899 7.91326 8.93055 8.05391L11.9304 11.0539L10.8697 12.1145L9.15021 10.395V16.8342H7.65021V10.3949L5.93054 12.1146L4.86988 11.0539L7.86988 8.0539C8.01053 7.91324 8.2013 7.83423 8.40022 7.83423Z" fill="#292A2E"/>
</svg>
