<svg width="17" height="17" viewBox="0 0 17 17" fill="none" xmlns="http://www.w3.org/2000/svg">
<path fill-rule="evenodd" clip-rule="evenodd" d="M8.40002 2.12524C4.81017 2.12524 1.90002 5.03539 1.90002 8.62524C1.90002 12.2151 4.81017 15.1252 8.40002 15.1252C11.9899 15.1252 14.9 12.2151 14.9 8.62524C14.9 5.03539 11.9899 2.12524 8.40002 2.12524ZM0.400024 8.62524C0.400024 4.20697 3.98175 0.625244 8.40002 0.625244C12.8183 0.625244 16.4 4.20697 16.4 8.62524C16.4 13.0435 12.8183 16.6252 8.40002 16.6252C3.98175 16.6252 0.400024 13.0435 0.400024 8.62524ZM12.1802 4.84467C12.3997 5.06411 12.4613 5.39602 12.3353 5.6796L10.3353 10.1796C10.2599 10.3493 10.1242 10.4849 9.95451 10.5604L5.45451 12.5604C5.17092 12.6864 4.83901 12.6248 4.61957 12.4053C4.40014 12.1859 4.33851 11.854 4.46454 11.5704L6.46454 7.0704C6.53995 6.90072 6.67562 6.76505 6.8453 6.68964L11.3453 4.68964C11.6289 4.5636 11.9608 4.62523 12.1802 4.84467ZM7.39175 8.67751L8.3474 9.63315L6.62723 10.3977L7.39175 8.67751ZM9.40806 8.57249L8.45241 7.61685L10.1726 6.85233L9.40806 8.57249Z" fill="#292A2E"/>
</svg>
