<svg width="17" height="17" viewBox="0 0 17 17" fill="none" xmlns="http://www.w3.org/2000/svg">
<path fill-rule="evenodd" clip-rule="evenodd" d="M0.400024 4.02075C0.400024 2.91618 1.29545 2.02075 2.40002 2.02075H14.4C15.5046 2.02075 16.4 2.91618 16.4 4.02075V12.0208C16.4 13.1253 15.5046 14.0208 14.4 14.0208H2.40002C1.29546 14.0208 0.400024 13.1253 0.400024 12.0208V4.02075ZM2.40002 3.52075C2.12388 3.52075 1.90002 3.74461 1.90002 4.02075V5.52075H14.9V4.02075C14.9 3.74461 14.6762 3.52075 14.4 3.52075H2.40002ZM14.9 7.02075H1.90002V12.0208C1.90002 12.2969 2.12388 12.5208 2.40002 12.5208H14.4C14.6762 12.5208 14.9 12.2969 14.9 12.0208V7.02075ZM9.40002 9.52075H13.4V11.0208H9.40002V9.52075Z" fill="#292A2E"/>
</svg>
