<svg width="17" height="16" viewBox="0 0 17 16" fill="none" xmlns="http://www.w3.org/2000/svg">
<path fill-rule="evenodd" clip-rule="evenodd" d="M10.4 0.998047L12.9 0.998047C14.0046 0.998047 14.9 1.89348 14.9 2.99805V7.24805L16.4 7.24805V8.74805L14.9 8.74805V12.998C14.9 14.1026 14.0046 14.998 12.9 14.998H10.4V13.498H12.9C13.1762 13.498 13.4 13.2742 13.4 12.998L13.4 2.99805C13.4 2.72191 13.1762 2.49805 12.9 2.49805L10.4 2.49805V0.998047ZM1.90002 2.99805C1.90002 1.89348 2.79545 0.998048 3.90002 0.998048H6.40002V2.49805H3.90002C3.62388 2.49805 3.40002 2.72191 3.40002 2.99805V12.998C3.40002 13.2742 3.62388 13.498 3.90002 13.498H6.40002V14.998H3.90002C2.79545 14.998 1.90002 14.1026 1.90002 12.998V8.74805H0.400024V7.24805H1.90002V2.99805Z" fill="#292A2E"/>
</svg>
