<svg width="17" height="17" viewBox="0 0 17 17" fill="none" xmlns="http://www.w3.org/2000/svg">
<path fill-rule="evenodd" clip-rule="evenodd" d="M3.40002 2.76904C3.40002 2.00965 4.01563 1.39404 4.77502 1.39404H6.52502C7.28442 1.39404 7.90002 2.00965 7.90002 2.76904V7.01904C7.90002 7.77843 7.28442 8.39404 6.52502 8.39404H4.77502C4.01563 8.39404 3.40002 7.77843 3.40002 7.01904V5.64404H0.400024V4.14404H3.40002V2.76904ZM4.90002 2.89404V6.89404H6.40002V2.89404H4.90002ZM16.4 5.64404H8.90002V4.14404H16.4V5.64404ZM8.90002 9.76904C8.90002 9.00965 9.51563 8.39404 10.275 8.39404H12.025C12.7844 8.39404 13.4 9.00965 13.4 9.76904V11.144H16.4V12.644H13.4V14.019C13.4 14.7784 12.7844 15.394 12.025 15.394H10.275C9.51563 15.394 8.90002 14.7784 8.90002 14.019V9.76904ZM10.4 9.89404V13.894H11.9V9.89404H10.4ZM0.400024 12.644V11.144H7.90002V12.644H0.400024Z" fill="#292A2E"/>
</svg>
