<svg width="17" height="17" viewBox="0 0 17 17" fill="none" xmlns="http://www.w3.org/2000/svg">
<path fill-rule="evenodd" clip-rule="evenodd" d="M14.15 1.68506C13.7358 1.68506 13.4 2.02085 13.4 2.43506C13.4 2.84927 13.7358 3.18506 14.15 3.18506C14.5642 3.18506 14.9 2.84927 14.9 2.43506C14.9 2.02085 14.5642 1.68506 14.15 1.68506ZM12.0281 1.68506C12.3369 0.811164 13.1704 0.185059 14.15 0.185059C15.3927 0.185059 16.4 1.19242 16.4 2.43506C16.4 3.6777 15.3927 4.68506 14.15 4.68506C13.1704 4.68506 12.3369 4.05895 12.0281 3.18506H9.96252C9.37572 3.18506 8.90002 3.66076 8.90002 4.24756V7.43506H12.0281C12.3369 6.56116 13.1704 5.93506 14.15 5.93506C15.3927 5.93506 16.4 6.94242 16.4 8.18506C16.4 9.4277 15.3927 10.4351 14.15 10.4351C13.1704 10.4351 12.3369 9.80895 12.0281 8.93506H8.90002V12.1226C8.90002 12.7094 9.37572 13.1851 9.96252 13.1851H12.0281C12.3369 12.3112 13.1704 11.6851 14.15 11.6851C15.3927 11.6851 16.4 12.6924 16.4 13.9351C16.4 15.1777 15.3927 16.1851 14.15 16.1851C13.1704 16.1851 12.3369 15.559 12.0281 14.6851H9.96252C8.5473 14.6851 7.40002 13.5378 7.40002 12.1226V8.93506H4.772C4.46312 9.80895 3.62969 10.4351 2.65002 10.4351C1.40738 10.4351 0.400024 9.4277 0.400024 8.18506C0.400024 6.94242 1.40738 5.93506 2.65002 5.93506C3.62969 5.93506 4.46312 6.56116 4.772 7.43506H7.40002V4.24756C7.40002 2.83233 8.54729 1.68506 9.96252 1.68506H12.0281ZM2.65002 7.43506C2.23581 7.43506 1.90002 7.77084 1.90002 8.18506C1.90002 8.59927 2.23581 8.93506 2.65002 8.93506C3.06424 8.93506 3.40002 8.59927 3.40002 8.18506C3.40002 7.77084 3.06424 7.43506 2.65002 7.43506ZM14.15 7.43506C13.7358 7.43506 13.4 7.77084 13.4 8.18506C13.4 8.59927 13.7358 8.93506 14.15 8.93506C14.5642 8.93506 14.9 8.59927 14.9 8.18506C14.9 7.77084 14.5642 7.43506 14.15 7.43506ZM14.15 13.1851C13.7358 13.1851 13.4 13.5208 13.4 13.9351C13.4 14.3493 13.7358 14.6851 14.15 14.6851C14.5642 14.6851 14.9 14.3493 14.9 13.9351C14.9 13.5208 14.5642 13.1851 14.15 13.1851Z" fill="#292A2E"/>
</svg>
