<svg width="17" height="17" viewBox="0 0 17 17" fill="none" xmlns="http://www.w3.org/2000/svg">
<path fill-rule="evenodd" clip-rule="evenodd" d="M1.15002 4.58057H3.15002C3.56424 4.58057 3.90002 4.91635 3.90002 5.33057V12.5806H2.40002V6.08057H1.15002V4.58057Z" fill="#292A2E"/>
<path fill-rule="evenodd" clip-rule="evenodd" d="M5.40002 4.58057H8.52502C9.28442 4.58057 9.90002 5.19617 9.90002 5.95557V7.95557C9.90002 8.71496 9.28442 9.33057 8.52502 9.33057H6.90002V11.0806H9.90002V12.5806H6.15002C5.73581 12.5806 5.40002 12.2448 5.40002 11.8306V9.20557C5.40002 8.44618 6.01563 7.83057 6.77502 7.83057H8.40002V6.08057H5.40002V4.58057Z" fill="#292A2E"/>
<path fill-rule="evenodd" clip-rule="evenodd" d="M11.4 4.58057H14.525C15.2844 4.58057 15.9 5.19617 15.9 5.95557V11.2056C15.9 11.965 15.2844 12.5806 14.525 12.5806H11.4V11.0806H14.4V9.33057H11.4V7.83057H14.4V6.08057H11.4V4.58057Z" fill="#292A2E"/>
</svg>
