<svg width="17" height="17" viewBox="0 0 17 17" fill="none" xmlns="http://www.w3.org/2000/svg">
<path fill-rule="evenodd" clip-rule="evenodd" d="M0.400024 6.37158C0.400024 5.26701 1.29545 4.37158 2.40002 4.37158H3.40002C4.50459 4.37158 5.40002 5.26701 5.40002 6.37158V12.3716H3.90002V9.87158H1.90002V12.3716H0.400024V6.37158ZM1.90002 8.37158H3.90002V6.37158C3.90002 6.09544 3.67617 5.87158 3.40002 5.87158H2.40002C2.12388 5.87158 1.90002 6.09544 1.90002 6.37158V8.37158Z" fill="#292A2E"/>
<path fill-rule="evenodd" clip-rule="evenodd" d="M6.40002 8.37158C6.40002 7.95737 6.73581 7.62158 7.15002 7.62158H9.40002C10.5046 7.62158 11.4 8.51701 11.4 9.62158V10.3716C11.4 11.4762 10.5046 12.3716 9.40002 12.3716H7.15002C6.73581 12.3716 6.40002 12.0358 6.40002 11.6216V8.37158ZM7.90002 9.12158V10.8716H9.40002C9.67617 10.8716 9.90002 10.6477 9.90002 10.3716V9.62158C9.90002 9.34544 9.67617 9.12158 9.40002 9.12158H7.90002Z" fill="#292A2E"/>
<path fill-rule="evenodd" clip-rule="evenodd" d="M6.40002 5.12158C6.40002 4.70737 6.73581 4.37158 7.15002 4.37158H9.40002C10.5046 4.37158 11.4 5.26701 11.4 6.37158V7.12158C11.4 8.22615 10.5046 9.12158 9.40002 9.12158H7.15002C6.73581 9.12158 6.40002 8.7858 6.40002 8.37158V5.12158ZM7.90002 5.87158V7.62158H9.40002C9.67617 7.62158 9.90002 7.39772 9.90002 7.12158V6.37158C9.90002 6.09544 9.67617 5.87158 9.40002 5.87158H7.90002Z" fill="#292A2E"/>
<path fill-rule="evenodd" clip-rule="evenodd" d="M12.4 6.37158C12.4 5.26701 13.2955 4.37158 14.4 4.37158H16.4V5.87158H14.4C14.1239 5.87158 13.9 6.09544 13.9 6.37158V10.3716C13.9 10.6477 14.1239 10.8716 14.4 10.8716H16.4V12.3716H14.4C13.2955 12.3716 12.4 11.4762 12.4 10.3716V6.37158Z" fill="#292A2E"/>
</svg>
