<svg width="17" height="17" viewBox="0 0 17 17" fill="none" xmlns="http://www.w3.org/2000/svg">
<path fill-rule="evenodd" clip-rule="evenodd" d="M2.90002 2.76709C2.90002 1.66252 3.79545 0.76709 4.90002 0.76709H11.9C13.0046 0.76709 13.9 1.66252 13.9 2.76709V14.7671C13.9 15.8717 13.0046 16.7671 11.9 16.7671H4.90002C3.79545 16.7671 2.90002 15.8717 2.90002 14.7671V2.76709ZM4.90002 2.26709C4.62388 2.26709 4.40002 2.49095 4.40002 2.76709V14.7671C4.40002 15.0432 4.62388 15.2671 4.90002 15.2671H11.9C12.1762 15.2671 12.4 15.0432 12.4 14.7671V2.76709C12.4 2.49095 12.1762 2.26709 11.9 2.26709H4.90002ZM10.4 13.7671H6.40002V12.2671H10.4V13.7671Z" fill="#292A2E"/>
</svg>
