<svg width="17" height="17" viewBox="0 0 17 17" fill="none" xmlns="http://www.w3.org/2000/svg">
<path d="M14.9 8.55811C14.9 8.28196 14.6762 8.05811 14.4 8.05811H11.9C11.6239 8.05811 11.4 8.28196 11.4 8.55811V14.5581C11.4 14.8342 11.6239 15.0581 11.9 15.0581H14.4C14.6762 15.0581 14.9 14.8342 14.9 14.5581V8.55811ZM13.4 3.55811C13.4 3.28196 13.1762 3.05811 12.9 3.05811H3.90002C3.62388 3.05811 3.40002 3.28196 3.40002 3.55811V10.5581H8.40002V12.0581H1.90002V12.5581C1.90002 12.8342 2.12388 13.0581 2.40002 13.0581H8.40002V14.5581H2.40002C1.29545 14.5581 0.400024 13.6627 0.400024 12.5581V11.3081L0.403931 11.231C0.442552 10.853 0.761858 10.5581 1.15002 10.5581H1.90002V3.55811C1.90002 2.45354 2.79545 1.55811 3.90002 1.55811H12.9C14.0046 1.55811 14.9 2.45354 14.9 3.55811V5.05811H13.4V3.55811ZM16.4 14.5581C16.4 15.6627 15.5046 16.5581 14.4 16.5581H11.9C10.7955 16.5581 9.90002 15.6627 9.90002 14.5581V8.55811C9.90002 7.45354 10.7955 6.55811 11.9 6.55811H14.4C15.5046 6.55811 16.4 7.45354 16.4 8.55811V14.5581Z" fill="#292A2E"/>
</svg>
