<svg width="17" height="17" viewBox="0 0 17 17" fill="none" xmlns="http://www.w3.org/2000/svg">
<path d="M13.9 3.95361C13.9 3.67747 13.6762 3.45361 13.4 3.45361H3.40002C3.12388 3.45361 2.90002 3.67747 2.90002 3.95361V13.9536C2.90002 14.2298 3.12388 14.4536 3.40002 14.4536H13.4C13.6762 14.4536 13.9 14.2298 13.9 13.9536V3.95361ZM9.15002 4.95361V9.95361H7.65002V4.95361H9.15002ZM15.4 13.9536C15.4 15.0582 14.5046 15.9536 13.4 15.9536H3.40002C2.29546 15.9536 1.40002 15.0582 1.40002 13.9536V3.95361C1.40002 2.84904 2.29545 1.95361 3.40002 1.95361H13.4C14.5046 1.95361 15.4 2.84904 15.4 3.95361V13.9536Z" fill="#292A2E"/>
<path d="M9.40002 12.2036C9.40002 12.7559 8.95231 13.2036 8.40002 13.2036C7.84774 13.2036 7.40002 12.7559 7.40002 12.2036C7.40002 11.6513 7.84774 11.2036 8.40002 11.2036C8.95231 11.2036 9.40002 11.6513 9.40002 12.2036Z" fill="#292A2E"/>
</svg>
