<svg width="17" height="17" viewBox="0 0 17 17" fill="none" xmlns="http://www.w3.org/2000/svg">
<path d="M0.869694 2.46142L14.8697 16.4614L15.9304 15.4008L1.93035 1.40076L0.869694 2.46142Z" fill="#292A2E"/>
<path d="M9.61241 13.3252L10.855 14.5678C10.076 14.804 9.25088 14.9311 8.39998 14.9311C4.8334 14.9311 1.71907 12.6986 0.567221 9.55092C0.42079 9.15076 0.42079 8.71142 0.567221 8.31126C0.909096 7.377 1.42385 6.52337 2.07201 5.7848L3.13554 6.84834C2.63718 7.43326 2.24128 8.10144 1.97587 8.82673C1.95124 8.89403 1.95124 8.96814 1.97587 9.03545C2.90939 11.5865 5.45735 13.4311 8.39998 13.4311C8.81302 13.4311 9.21829 13.3947 9.61241 13.3252Z" fill="#292A2E"/>
<path d="M8.39998 2.93109C7.54924 2.93109 6.72422 3.05811 5.94544 3.29428L7.18804 4.53688C7.58201 4.4674 7.98711 4.43109 8.39998 4.43109C11.3426 4.43109 13.8908 6.27567 14.8243 8.82673C14.8489 8.89403 14.8489 8.96814 14.8243 9.03544C14.5589 9.76064 14.1631 10.4287 13.6648 11.0136L14.7283 12.0771C15.3764 11.3386 15.8911 10.4851 16.2329 9.55092C16.3794 9.15076 16.3794 8.71142 16.2329 8.31125C15.0811 5.16352 11.9665 2.93109 8.39998 2.93109Z" fill="#292A2E"/>
</svg>
