<svg width="17" height="17" viewBox="0 0 17 17" fill="none" xmlns="http://www.w3.org/2000/svg">
<path fill-rule="evenodd" clip-rule="evenodd" d="M8.39998 4.24463C5.45735 4.24463 2.90939 6.08919 1.97587 8.64027C1.95124 8.70757 1.95124 8.78168 1.97587 8.84899C2.90939 11.4001 5.45735 13.2446 8.39998 13.2446C11.3426 13.2446 13.8908 11.4 14.8243 8.84899C14.8489 8.78168 14.8489 8.70758 14.8243 8.64027C13.8908 6.08921 11.3426 4.24463 8.39998 4.24463ZM0.567221 8.1248C1.71907 4.97708 4.8334 2.74463 8.39998 2.74463C11.9665 2.74463 15.0811 4.97707 16.2329 8.1248C16.3794 8.52496 16.3794 8.9643 16.2329 9.36446C15.0811 12.5122 11.9665 14.7446 8.39998 14.7446C4.8334 14.7446 1.71907 12.5122 0.567221 9.36446C0.42079 8.9643 0.42079 8.52496 0.567221 8.1248ZM8.40008 7.24463C7.57165 7.24463 6.90008 7.9162 6.90008 8.74463C6.90008 9.57306 7.57165 10.2446 8.40008 10.2446C9.2285 10.2446 9.90008 9.57306 9.90008 8.74463C9.90008 7.9162 9.2285 7.24463 8.40008 7.24463ZM5.40008 8.74463C5.40008 7.08777 6.74322 5.74463 8.40008 5.74463C10.0569 5.74463 11.4001 7.08777 11.4001 8.74463C11.4001 10.4015 10.0569 11.7446 8.40008 11.7446C6.74322 11.7446 5.40008 10.4015 5.40008 8.74463Z" fill="#292A2E"/>
</svg>
