<svg width="17" height="17" viewBox="0 0 17 17" fill="none" xmlns="http://www.w3.org/2000/svg">
<path d="M6.15002 8.14014C6.15002 6.8975 7.15738 5.89014 8.40002 5.89014C9.64266 5.89014 10.65 6.8975 10.65 8.14014C10.65 9.38278 9.64266 10.3901 8.40002 10.3901C7.15738 10.3901 6.15002 9.38278 6.15002 8.14014Z" fill="#292A2E"/>
<path fill-rule="evenodd" clip-rule="evenodd" d="M8.39998 2.14014C4.8334 2.14014 1.71907 4.37259 0.567221 7.52031C0.42079 7.92047 0.42079 8.35981 0.567221 8.75997C1.71907 11.9077 4.8334 14.1401 8.39998 14.1401C11.9665 14.1401 15.0811 11.9077 16.2329 8.75997C16.3794 8.35981 16.3794 7.92047 16.2329 7.5203C15.0811 4.37257 11.9665 2.14014 8.39998 2.14014ZM8.40002 4.39014C6.32896 4.39014 4.65002 6.06907 4.65002 8.14014C4.65002 10.2112 6.32896 11.8901 8.40002 11.8901C10.4711 11.8901 12.15 10.2112 12.15 8.14014C12.15 6.06907 10.4711 4.39014 8.40002 4.39014Z" fill="#292A2E"/>
</svg>
