<svg width="17" height="17" viewBox="0 0 17 17" fill="none" xmlns="http://www.w3.org/2000/svg">
<path fill-rule="evenodd" clip-rule="evenodd" d="M14.4 3.8042H0.400024V2.3042H14.4C15.5046 2.3042 16.4 3.19963 16.4 4.3042V12.3042C16.4 13.4088 15.5046 14.3042 14.4 14.3042H0.400024V12.8042H14.4C14.6762 12.8042 14.9 12.5803 14.9 12.3042V4.3042C14.9 4.02806 14.6762 3.8042 14.4 3.8042ZM9.40004 8.49354L7.43035 6.52387L6.3697 7.58453L8.86972 10.0845C9.01038 10.2252 9.20114 10.3042 9.40005 10.3042C9.59897 10.3042 9.78973 10.2252 9.93038 10.0845L12.4304 7.58453L11.3697 6.52387L9.40004 8.49354Z" fill="#292A2E"/>
</svg>
