<svg width="17" height="17" viewBox="0 0 17 17" fill="none" xmlns="http://www.w3.org/2000/svg">
<path fill-rule="evenodd" clip-rule="evenodd" d="M7.65002 9.61768L7.65002 3.11768H9.15002V9.61768H7.65002ZM2.40002 6.11768C2.12388 6.11768 1.90002 6.34153 1.90002 6.61768V9.61768C1.90002 9.89382 2.12388 10.1177 2.40002 10.1177H4.90002V11.6177H2.40002C1.29545 11.6177 0.400024 10.7222 0.400024 9.61768V6.61768C0.400024 5.51311 1.29545 4.61768 2.40002 4.61768H4.90002V6.11768H2.40002ZM14.4 6.11768H11.9V4.61768H14.4C15.5046 4.61768 16.4 5.51311 16.4 6.61768V9.61768C16.4 10.7222 15.5046 11.6177 14.4 11.6177H11.9V10.1177H14.4C14.6762 10.1177 14.9 9.89382 14.9 9.61768V6.61768C14.9 6.34153 14.6762 6.11768 14.4 6.11768Z" fill="#292A2E"/>
<path fill-rule="evenodd" clip-rule="evenodd" d="M8.40002 13.1177C8.95231 13.1177 9.40002 12.67 9.40002 12.1177C9.40002 11.5654 8.95231 11.1177 8.40002 11.1177C7.84774 11.1177 7.40002 11.5654 7.40002 12.1177C7.40002 12.67 7.84774 13.1177 8.40002 13.1177Z" fill="#292A2E"/>
</svg>
