<svg width="17" height="17" viewBox="0 0 17 17" fill="none" xmlns="http://www.w3.org/2000/svg">
<path fill-rule="evenodd" clip-rule="evenodd" d="M0.900024 5.19971C0.900024 3.68092 2.13124 2.44971 3.65002 2.44971C5.16881 2.44971 6.40002 3.68092 6.40002 5.19971C6.40002 6.71849 5.16881 7.94971 3.65002 7.94971C2.13124 7.94971 0.900024 6.71849 0.900024 5.19971ZM3.65002 3.94971C2.95967 3.94971 2.40002 4.50935 2.40002 5.19971C2.40002 5.89006 2.95967 6.44971 3.65002 6.44971C4.34038 6.44971 4.90002 5.89006 4.90002 5.19971C4.90002 4.50935 4.34038 3.94971 3.65002 3.94971ZM15.4 5.94971H8.40002V4.44971H15.4V5.94971ZM0.900024 12.1997C0.900024 10.6809 2.13124 9.44971 3.65002 9.44971C5.16881 9.44971 6.40002 10.6809 6.40002 12.1997C6.40002 13.7185 5.16881 14.9497 3.65002 14.9497C2.13124 14.9497 0.900024 13.7185 0.900024 12.1997ZM3.65002 10.9497C2.95967 10.9497 2.40002 11.5094 2.40002 12.1997C2.40002 12.8901 2.95967 13.4497 3.65002 13.4497C4.34038 13.4497 4.90002 12.8901 4.90002 12.1997C4.90002 11.5094 4.34038 10.9497 3.65002 10.9497ZM15.4 12.9497H8.40002V11.4497H15.4V12.9497Z" fill="#292A2E"/>
<path fill-rule="evenodd" clip-rule="evenodd" d="M0.900024 5.19971C0.900024 3.68092 2.13124 2.44971 3.65002 2.44971C5.16881 2.44971 6.40002 3.68092 6.40002 5.19971C6.40002 6.71849 5.16881 7.94971 3.65002 7.94971C2.13124 7.94971 0.900024 6.71849 0.900024 5.19971ZM3.65002 3.94971C2.95967 3.94971 2.40002 4.50935 2.40002 5.19971C2.40002 5.89006 2.95967 6.44971 3.65002 6.44971C4.34038 6.44971 4.90002 5.89006 4.90002 5.19971C4.90002 4.50935 4.34038 3.94971 3.65002 3.94971ZM16.4 5.94971H8.40002V4.44971H16.4V5.94971ZM0.900024 12.1997C0.900024 10.6809 2.13124 9.44971 3.65002 9.44971C5.16881 9.44971 6.40002 10.6809 6.40002 12.1997C6.40002 13.7185 5.16881 14.9497 3.65002 14.9497C2.13124 14.9497 0.900024 13.7185 0.900024 12.1997ZM3.65002 10.9497C2.95967 10.9497 2.40002 11.5094 2.40002 12.1997C2.40002 12.8901 2.95967 13.4497 3.65002 13.4497C4.34038 13.4497 4.90002 12.8901 4.90002 12.1997C4.90002 11.5094 4.34038 10.9497 3.65002 10.9497ZM16.4 12.9497H8.40002V11.4497H16.4V12.9497Z" fill="#292A2E"/>
</svg>
