<svg width="17" height="17" viewBox="0 0 17 17" fill="none" xmlns="http://www.w3.org/2000/svg">
<path fill-rule="evenodd" clip-rule="evenodd" d="M1.40002 3.26318C1.40002 2.84897 1.73581 2.51318 2.15002 2.51318H5.65002C6.06424 2.51318 6.40002 2.84897 6.40002 3.26318V6.76318C6.40002 7.1774 6.06424 7.51318 5.65002 7.51318H2.15002C1.73581 7.51318 1.40002 7.1774 1.40002 6.76318V3.26318ZM2.90002 4.01318V6.01318H4.90002V4.01318H2.90002ZM16.4 5.76318H8.40002V4.26318H16.4V5.76318ZM1.40002 10.2632C1.40002 9.84897 1.73581 9.51318 2.15002 9.51318H5.65002C6.06424 9.51318 6.40002 9.84897 6.40002 10.2632V13.7632C6.40002 14.1774 6.06424 14.5132 5.65002 14.5132H2.15002C1.73581 14.5132 1.40002 14.1774 1.40002 13.7632V10.2632ZM2.90002 11.0132V13.0132H4.90002V11.0132H2.90002ZM16.4 12.7632H8.40002V11.2632H16.4V12.7632Z" fill="#292A2E"/>
</svg>
