<svg width="17" height="17" viewBox="0 0 17 17" fill="none" xmlns="http://www.w3.org/2000/svg">
<path fill-rule="evenodd" clip-rule="evenodd" d="M6.40002 3.82666H0.400024V2.32666H6.40002V3.82666ZM0.400024 7.32666C0.400024 6.22209 1.29545 5.32666 2.40002 5.32666H14.4C15.5046 5.32666 16.4 6.22209 16.4 7.32666V10.3267C16.4 11.4312 15.5046 12.3267 14.4 12.3267H2.40002C1.29546 12.3267 0.400024 11.4312 0.400024 10.3267V7.32666ZM2.40002 6.82666C2.12388 6.82666 1.90002 7.05052 1.90002 7.32666V10.3267C1.90002 10.6028 2.12388 10.8267 2.40002 10.8267H14.4C14.6762 10.8267 14.9 10.6028 14.9 10.3267V7.32666C14.9 7.05052 14.6762 6.82666 14.4 6.82666H2.40002Z" fill="#292A2E"/>
</svg>
