<svg width="17" height="17" viewBox="0 0 17 17" fill="none" xmlns="http://www.w3.org/2000/svg">
<path fill-rule="evenodd" clip-rule="evenodd" d="M2.40002 14.4907C2.40002 15.5953 3.29545 16.4907 4.40002 16.4907H12.4C13.5046 16.4907 14.4 15.5953 14.4 14.4907V5.74072C14.4 5.22167 14.1938 4.72387 13.8268 4.35684L10.5339 1.06395C10.1669 0.696917 9.66908 0.490723 9.15002 0.490723H4.40002C3.29545 0.490723 2.40002 1.38615 2.40002 2.49072V14.4907ZM4.40002 14.9907C4.12388 14.9907 3.90002 14.7669 3.90002 14.4907V2.49072C3.90002 2.21458 4.12388 1.99072 4.40002 1.99072H8.40002V5.74072C8.40002 6.15494 8.73581 6.49072 9.15002 6.49072H12.9V14.4907C12.9 14.7669 12.6762 14.9907 12.4 14.9907H4.40002ZM12.3394 4.99072H9.90002V2.55138L12.3394 4.99072Z" fill="#292A2E"/>
</svg>
