<svg width="17" height="17" viewBox="0 0 17 17" fill="none" xmlns="http://www.w3.org/2000/svg">
<path fill-rule="evenodd" clip-rule="evenodd" d="M2.3999 11.8863C2.3999 12.9908 3.29533 13.8863 4.3999 13.8863H10.3999C11.5045 13.8863 12.3999 12.9908 12.3999 11.8863V5.13625C12.3999 4.61586 12.1916 4.11713 11.8214 3.75134L9.47161 1.42914C9.11964 1.08132 8.64474 0.886251 8.1499 0.886251H4.3999C3.29533 0.886251 2.3999 1.78168 2.3999 2.88625V11.8863ZM4.3999 12.3863C4.12376 12.3863 3.8999 12.1624 3.8999 11.8863V2.88625C3.8999 2.61011 4.12376 2.38625 4.3999 2.38625H7.3999V5.13625C7.3999 5.55047 7.73569 5.88625 8.1499 5.88625H10.8999V11.8863C10.8999 12.1624 10.676 12.3863 10.3999 12.3863H4.3999ZM10.3299 4.38625H8.8999V2.97304L10.3299 4.38625Z" fill="#292A2E"/>
<path fill-rule="evenodd" clip-rule="evenodd" d="M7.3999 16.8863H12.1499C13.9448 16.8863 15.3999 15.4312 15.3999 13.6363V5.88625H13.8999V13.6363C13.8999 14.6027 13.1164 15.3863 12.1499 15.3863H7.3999V16.8863Z" fill="#292A2E"/>
</svg>
