<svg width="17" height="17" viewBox="0 0 17 17" fill="none" xmlns="http://www.w3.org/2000/svg">
<path fill-rule="evenodd" clip-rule="evenodd" d="M2.61969 1.89692C2.76035 1.75626 2.95111 1.67725 3.15002 1.67725H14.4C14.6841 1.67725 14.9438 1.83775 15.0708 2.09184C15.1979 2.34592 15.1705 2.64998 15 2.87725L12.3375 6.42725L15 9.97725C15.1705 10.2045 15.1979 10.5086 15.0708 10.7627C14.9438 11.0167 14.6841 11.1772 14.4 11.1772H3.90002V15.6772H2.40002V2.42725C2.40002 2.22833 2.47904 2.03757 2.61969 1.89692ZM3.90002 9.67725H12.9L10.8 6.87725C10.6 6.61058 10.6 6.24391 10.8 5.97725L12.9 3.17725H3.90002V9.67725Z" fill="#292A2E"/>
</svg>
