<svg width="17" height="17" viewBox="0 0 17 17" fill="none" xmlns="http://www.w3.org/2000/svg">
<path d="M11.65 1.86377V3.36377H10.9V4.72314L14.1832 13.1362C14.6949 14.4476 13.7276 15.8638 12.3199 15.8638H4.48005C3.07232 15.8638 2.105 14.4476 2.61677 13.1362L5.89997 4.72314V3.36377H5.14997V1.86377H11.65ZM4.01423 13.6821C3.88629 14.01 4.12812 14.3638 4.48005 14.3638H12.3199C12.6718 14.3638 12.9137 14.01 12.7857 13.6821L11.2965 9.86377H5.50349L4.01423 13.6821ZM7.39997 4.86377C7.39997 4.95705 7.38212 5.04933 7.34822 5.13623L6.08943 8.36377H10.7105L9.45173 5.13623C9.41782 5.04933 9.39997 4.95705 9.39997 4.86377V3.36377H7.39997V4.86377Z" fill="#292A2E"/>
</svg>
