<svg width="17" height="17" viewBox="0 0 17 17" fill="none" xmlns="http://www.w3.org/2000/svg">
<path fill-rule="evenodd" clip-rule="evenodd" d="M7.40002 1.75928H1.40002V0.259277H7.40002V1.75928ZM1.40002 4.13428C1.40002 3.37489 2.01563 2.75928 2.77502 2.75928H14.025C14.7844 2.75928 15.4 3.37489 15.4 4.13428V5.88428C15.4 6.64367 14.7844 7.25928 14.025 7.25928H2.77502C2.01563 7.25928 1.40002 6.64367 1.40002 5.88428V4.13428ZM2.90002 4.25928V5.75928H13.9V4.25928H2.90002ZM7.40002 10.7593H1.40002V9.25928H7.40002V10.7593ZM1.40002 13.1343C1.40002 12.3749 2.01563 11.7593 2.77502 11.7593H14.025C14.7844 11.7593 15.4 12.3749 15.4 13.1343V14.8843C15.4 15.6437 14.7844 16.2593 14.025 16.2593H2.77502C2.01563 16.2593 1.40002 15.6437 1.40002 14.8843V13.1343ZM2.90002 13.2593V14.7593H13.9V13.2593H2.90002Z" fill="#292A2E"/>
</svg>
