<svg width="17" height="17" viewBox="0 0 17 17" fill="none" xmlns="http://www.w3.org/2000/svg">
<path fill-rule="evenodd" clip-rule="evenodd" d="M5.21038 2.48307L3.40579 3.30335C3.05288 3.46376 2.80743 3.79457 2.75619 4.17882L2.32341 7.42466C2.79722 7.1852 3.33287 7.0503 3.90002 7.0503C5.08385 7.0503 6.12941 7.63769 6.76264 8.53629C7.23321 8.22922 7.79569 8.0503 8.40002 8.0503C9.00436 8.0503 9.56684 8.22922 10.0374 8.53629C10.6706 7.63769 11.7162 7.0503 12.9 7.0503C13.4672 7.0503 14.0028 7.1852 14.4766 7.42466L14.0439 4.17882C13.9926 3.79457 13.7472 3.46376 13.3943 3.30335L11.5897 2.48307L12.2104 1.11752L14.015 1.9378C14.8384 2.3121 15.4112 3.08398 15.5307 3.98058L16.2902 9.6772C16.3619 9.95629 16.4 10.2488 16.4 10.5503C16.4 12.4833 14.833 14.0503 12.9 14.0503C10.967 14.0503 9.40002 12.4833 9.40002 10.5503C9.40002 10.3551 9.41608 10.1632 9.44702 9.97605C9.17614 9.71187 8.80689 9.5503 8.40002 9.5503C7.99316 9.5503 7.62391 9.71187 7.35303 9.97605C7.38397 10.1632 7.40002 10.3551 7.40002 10.5503C7.40002 12.4833 5.83302 14.0503 3.90002 14.0503C1.96703 14.0503 0.400024 12.4833 0.400024 10.5503C0.400024 10.2488 0.438135 9.9563 0.5098 9.6772L1.26935 3.98058C1.3889 3.08398 1.96163 2.3121 2.78508 1.9378L4.58967 1.11752L5.21038 2.48307ZM1.90054 10.5962C1.92494 11.6796 2.8108 12.5503 3.90002 12.5503C5.00459 12.5503 5.90002 11.6549 5.90002 10.5503C5.90002 10.3551 5.87229 10.1677 5.82102 9.99117C5.57911 9.15805 4.80956 8.5503 3.90002 8.5503C2.99403 8.5503 2.22874 9.15271 1.98286 9.97883L1.90054 10.5962ZM14.8172 9.97884L14.8995 10.5962C14.8751 11.6796 13.9893 12.5503 12.9 12.5503C11.7955 12.5503 10.9 11.6549 10.9 10.5503C10.9 10.3551 10.9278 10.1677 10.979 9.99117C11.2209 9.15805 11.9905 8.5503 12.9 8.5503C13.806 8.5503 14.5713 9.15271 14.8172 9.97884Z" fill="#292A2E"/>
</svg>
