<svg width="17" height="17" viewBox="0 0 17 17" fill="none" xmlns="http://www.w3.org/2000/svg">
<path fill-rule="evenodd" clip-rule="evenodd" d="M1.94283 7.6958H4.66524C4.738 5.91145 5.06843 4.28257 5.58569 3.03251C5.66665 2.83687 5.7533 2.64777 5.84575 2.46689C3.74502 3.36552 2.21361 5.33892 1.94283 7.6958ZM8.40002 0.445801C3.98175 0.445801 0.400024 4.02752 0.400024 8.4458C0.400024 12.8641 3.98175 16.4458 8.40002 16.4458C12.8183 16.4458 16.4 12.8641 16.4 8.4458C16.4 4.02752 12.8183 0.445801 8.40002 0.445801ZM8.40002 1.9458C8.24898 1.9458 8.03589 2.01661 7.7684 2.29003C7.49848 2.56593 7.22085 3.00396 6.97172 3.60604C6.54031 4.64861 6.23858 6.07566 6.16658 7.6958H10.6335C10.5615 6.07566 10.2597 4.64861 9.82833 3.60604C9.5792 3.00396 9.30157 2.56593 9.03165 2.29003C8.76416 2.01661 8.55107 1.9458 8.40002 1.9458ZM12.1348 7.6958C12.0621 5.91145 11.7316 4.28257 11.2144 3.03251C11.1334 2.83687 11.0467 2.64777 10.9543 2.46689C13.055 3.36551 14.5864 5.33892 14.8572 7.6958H12.1348ZM10.6335 9.1958H6.16658C6.23858 10.8159 6.54031 12.243 6.97172 13.2856C7.22085 13.8876 7.49848 14.3257 7.7684 14.6016C8.03589 14.875 8.24898 14.9458 8.40002 14.9458C8.55107 14.9458 8.76416 14.875 9.03165 14.6016C9.30157 14.3257 9.5792 13.8876 9.82833 13.2856C10.2597 12.243 10.5615 10.8159 10.6335 9.1958ZM10.9543 14.4247C11.0467 14.2438 11.1334 14.0547 11.2144 13.8591C11.7316 12.609 12.0621 10.9802 12.1348 9.1958H14.8572C14.5864 11.5527 13.055 13.5261 10.9543 14.4247ZM5.84575 14.4247C5.75331 14.2438 5.66665 14.0547 5.58569 13.8591C5.06843 12.609 4.738 10.9802 4.66524 9.1958H1.94283C2.21361 11.5527 3.74502 13.5261 5.84575 14.4247Z" fill="#292A2E"/>
</svg>
