<svg width="17" height="17" viewBox="0 0 17 17" fill="none" xmlns="http://www.w3.org/2000/svg">
<path fill-rule="evenodd" clip-rule="evenodd" d="M1.40002 3.23682C1.40002 2.13225 2.29545 1.23682 3.40002 1.23682H13.4C14.5046 1.23682 15.4 2.13225 15.4 3.23682V13.2368C15.4 14.3414 14.5046 15.2368 13.4 15.2368H3.40002C2.29545 15.2368 1.40002 14.3414 1.40002 13.2368V3.23682ZM3.40002 2.73682C3.12388 2.73682 2.90002 2.96067 2.90002 3.23682V7.48682H7.65002V2.73682H3.40002ZM9.15002 2.73682V7.48682H13.9V3.23682C13.9 2.96067 13.6762 2.73682 13.4 2.73682H9.15002ZM13.9 8.98682H9.15002V13.7368H13.4C13.6762 13.7368 13.9 13.513 13.9 13.2368V8.98682ZM7.65002 13.7368V8.98682H2.90002V13.2368C2.90002 13.513 3.12388 13.7368 3.40002 13.7368H7.65002Z" fill="#292A2E"/>
</svg>
