<svg width="17" height="17" viewBox="0 0 17 17" fill="none" xmlns="http://www.w3.org/2000/svg">
<path d="M13.9 7.42334C13.9 4.38577 11.4376 1.92334 8.40002 1.92334C5.36246 1.92334 2.90002 4.38577 2.90002 7.42334V12.4233H1.40002V7.42334C1.40002 3.55735 4.53403 0.42334 8.40002 0.42334C12.266 0.42334 15.4 3.55735 15.4 7.42334V12.4233H13.9V7.42334Z" fill="#292A2E"/>
<path d="M4.90002 10.4233C4.90002 9.87106 4.45231 9.42334 3.90002 9.42334C3.34774 9.42334 2.90002 9.87106 2.90002 10.4233V12.3403C2.9002 13.2145 3.60884 13.9232 4.48303 13.9233C4.71315 13.9233 4.90002 13.7365 4.90002 13.5063V10.4233ZM6.40002 13.5063C6.40002 14.5649 5.54158 15.4233 4.48303 15.4233C2.78041 15.4232 1.4002 14.043 1.40002 12.3403V10.4233C1.40002 9.04263 2.51931 7.92334 3.90002 7.92334C5.28074 7.92334 6.40002 9.04263 6.40002 10.4233V13.5063Z" fill="#292A2E"/>
<path d="M13.9 12.3403V10.4233C13.9 9.87106 13.4523 9.42334 12.9 9.42334C12.3477 9.42334 11.9 9.87106 11.9 10.4233V13.5063C11.9 13.7365 12.0869 13.9233 12.317 13.9233C13.1912 13.9232 13.8998 13.2145 13.9 12.3403ZM15.4 12.3403C15.3998 14.043 14.0196 15.4232 12.317 15.4233C11.2585 15.4233 10.4 14.5649 10.4 13.5063V10.4233C10.4 9.04263 11.5193 7.92334 12.9 7.92334C14.2807 7.92334 15.4 9.04263 15.4 10.4233V12.3403Z" fill="#292A2E"/>
</svg>
