<svg width="17" height="17" viewBox="0 0 17 17" fill="none" xmlns="http://www.w3.org/2000/svg">
<path fill-rule="evenodd" clip-rule="evenodd" d="M5.43628 3.56885C4.99734 3.56885 4.60408 3.65026 4.24755 3.80583C3.88417 3.96438 3.56709 4.18832 3.29178 4.4822C3.01816 4.77427 2.79831 5.12561 2.63569 5.54547C2.48223 5.94869 2.40002 6.40765 2.40002 6.93105C2.40002 7.76034 2.61633 8.59682 3.07164 9.44844C3.53976 10.3109 4.21239 11.1711 5.10477 12.0261C6.00163 12.8809 7.06881 13.7064 8.31094 14.5008C8.33411 14.5151 8.36374 14.531 8.40112 14.5475C8.44454 14.5297 8.47528 14.5135 8.49605 14.5007C9.7381 13.7064 10.8027 12.881 11.6946 12.0267C12.5876 11.1713 13.2579 10.311 13.7213 9.449L13.7219 9.44787C14.1818 8.59589 14.4 7.75965 14.4 6.93105C14.4 6.40896 14.316 5.9514 14.1591 5.54932L14.1561 5.54171L14.1561 5.54169C13.9981 5.12333 13.781 4.77333 13.5083 4.4822L13.5049 4.47858L13.5049 4.47857C13.2364 4.18817 12.9218 3.96538 12.555 3.8069L12.5525 3.80583C12.196 3.65026 11.8027 3.56885 11.3638 3.56885C10.838 3.56885 10.405 3.70169 10.0371 3.9506L10.0333 3.95322L10.0333 3.9532C9.63688 4.21788 9.31162 4.57425 9.05787 5.0377L8.39781 6.24323L7.74116 5.03584C7.49213 4.57794 7.1687 4.22062 6.76971 3.9506C6.40276 3.70227 5.96774 3.56885 5.43628 3.56885ZM3.64767 2.431C4.20655 2.18714 4.80573 2.06885 5.43628 2.06885C6.23714 2.06885 6.97131 2.27584 7.6104 2.70833C7.90272 2.90615 8.16632 3.13425 8.40107 3.39113C8.63794 3.13263 8.90369 2.90402 9.19838 2.70703C9.83615 2.276 10.5671 2.06885 11.3638 2.06885C11.9939 2.06885 12.5927 2.18698 13.1512 2.43049C13.7076 2.67108 14.194 3.01485 14.6047 3.45851C15.019 3.90132 15.3357 4.42088 15.5579 5.00779C15.7897 5.60319 15.9 6.24727 15.9 6.93105C15.9 8.03585 15.6062 9.11486 15.0421 10.16C14.4905 11.1859 13.7153 12.1682 12.7323 13.1099L12.7323 13.1099C11.758 14.043 10.6124 14.928 9.30023 15.7669L9.29422 15.7708L9.2942 15.7707C9.17937 15.8426 9.0571 15.9017 8.93154 15.9508C8.78185 16.0158 8.60083 16.0688 8.40002 16.0688C8.19553 16.0688 8.01151 16.0112 7.86821 15.9505C7.74477 15.9005 7.62533 15.8413 7.51265 15.7707L7.5066 15.767L7.50662 15.7669C6.19474 14.9282 5.04736 14.0436 4.06911 13.1112L4.06774 13.1099C3.08496 12.1684 2.30799 11.1866 1.75209 10.1617L1.75005 10.158L1.75006 10.158C1.19096 9.11299 0.900024 8.0347 0.900024 6.93105C0.900024 6.24783 1.00792 5.6044 1.23472 5.00948L1.23601 5.00608L1.23602 5.00608C1.46306 4.41908 1.78226 3.89952 2.19709 3.4567C2.6106 3.01528 3.09563 2.67187 3.64767 2.431Z" fill="#292A2E"/>
</svg>
