<svg width="17" height="17" viewBox="0 0 17 17" fill="none" xmlns="http://www.w3.org/2000/svg">
<path d="M6.15002 4.60986C7.11652 4.60986 7.90002 5.39336 7.90002 6.35986C7.90002 7.32636 7.11652 8.10986 6.15002 8.10986C5.18353 8.10986 4.40002 7.32636 4.40002 6.35986C4.40002 5.39336 5.18353 4.60986 6.15002 4.60986Z" fill="#292A2E"/>
<path fill-rule="evenodd" clip-rule="evenodd" d="M13.4 1.60986C14.5046 1.60986 15.4 2.50529 15.4 3.60986V13.6099C15.4 14.7144 14.5046 15.6099 13.4 15.6099H3.40002C2.29545 15.6099 1.40002 14.7144 1.40002 13.6099V3.60986C1.40002 2.50529 2.29545 1.60986 3.40002 1.60986H13.4ZM3.40002 3.10986C3.12388 3.10986 2.90002 3.33372 2.90002 3.60986V13.6099C2.90002 13.886 3.12388 14.1099 3.40002 14.1099H4.04358L10.318 6.38721L10.3707 6.32861C10.5011 6.19874 10.6754 6.12052 10.861 6.11084C11.073 6.0999 11.2801 6.17944 11.4303 6.32959L13.9 8.79932V3.60986C13.9 3.33372 13.6762 3.10986 13.4 3.10986H3.40002ZM5.97522 14.1099H13.4C13.6762 14.1099 13.9 13.886 13.9 13.6099V10.9204L10.9567 7.97705L5.97522 14.1099Z" fill="#292A2E"/>
</svg>
