<svg width="17" height="16" viewBox="0 0 17 16" fill="none" xmlns="http://www.w3.org/2000/svg">
<path fill-rule="evenodd" clip-rule="evenodd" d="M1.40002 3.00537C1.40002 1.9008 2.29546 1.00537 3.40002 1.00537H13.4C14.5046 1.00537 15.4 1.9008 15.4 3.00537V13.0054C15.4 14.1099 14.5046 15.0054 13.4 15.0054H3.40002C2.29546 15.0054 1.40002 14.1099 1.40002 13.0054V3.00537ZM3.40002 2.50537C3.12388 2.50537 2.90002 2.72923 2.90002 3.00537V8.00537H5.90002C6.31424 8.00537 6.65002 8.34116 6.65002 8.75537C6.65002 9.72187 7.43353 10.5054 8.40002 10.5054C9.36652 10.5054 10.15 9.72187 10.15 8.75537C10.15 8.34116 10.4858 8.00537 10.9 8.00537H13.9V3.00537C13.9 2.72923 13.6762 2.50537 13.4 2.50537H3.40002ZM13.9 9.50537H11.5631C11.2245 10.9387 9.93682 12.0054 8.40002 12.0054C6.86323 12.0054 5.57557 10.9387 5.23699 9.50537H2.90002V13.0054C2.90002 13.2815 3.12388 13.5054 3.40002 13.5054H13.4C13.6762 13.5054 13.9 13.2815 13.9 13.0054V9.50537ZM12.4 6.00537H4.40002V4.50537H12.4V6.00537Z" fill="#292A2E"/>
</svg>
