<svg width="17" height="17" viewBox="0 0 17 17" fill="none" xmlns="http://www.w3.org/2000/svg">
<path fill-rule="evenodd" clip-rule="evenodd" d="M8.40002 2.29639C4.81017 2.29639 1.90002 5.20654 1.90002 8.79639C1.90002 12.3862 4.81017 15.2964 8.40002 15.2964C11.9899 15.2964 14.9 12.3862 14.9 8.79639C14.9 5.20654 11.9899 2.29639 8.40002 2.29639ZM0.400024 8.79639C0.400024 4.37811 3.98175 0.796387 8.40002 0.796387C12.8183 0.796387 16.4 4.37811 16.4 8.79639C16.4 13.2147 12.8183 16.7964 8.40002 16.7964C3.98175 16.7964 0.400024 13.2147 0.400024 8.79639ZM7.65002 9.04639H6.90002V7.54639H8.40002C8.81424 7.54639 9.15002 7.88217 9.15002 8.29639V13.2964H7.65002V9.04639Z" fill="#292A2E"/>
<path d="M9.40002 5.29639C9.40002 5.84867 8.95231 6.29639 8.40002 6.29639C7.84774 6.29639 7.40002 5.84867 7.40002 5.29639C7.40002 4.7441 7.84774 4.29639 8.40002 4.29639C8.95231 4.29639 9.40002 4.7441 9.40002 5.29639Z" fill="#292A2E"/>
</svg>
