<svg width="17" height="17" viewBox="0 0 17 17" fill="none" xmlns="http://www.w3.org/2000/svg">
<path d="M10.4 12.6919H6.39999V14.1919C6.39999 14.468 6.62385 14.6919 6.89999 14.6919H9.89999C10.1761 14.6919 10.4 14.468 10.4 14.1919V12.6919ZM8.39999 1.69189C5.37809 1.69189 3.46538 4.93498 4.92733 7.57959L5.93514 9.40186C6.23815 9.94985 6.39797 10.5658 6.39999 11.1919H10.4C10.402 10.5658 10.5618 9.94985 10.8648 9.40186L11.8726 7.57959C13.3346 4.93498 11.4219 1.69189 8.39999 1.69189ZM11.9 14.1919C11.9 15.2965 11.0046 16.1919 9.89999 16.1919H6.89999C5.79542 16.1919 4.89999 15.2965 4.89999 14.1919V11.2036C4.89994 10.8275 4.80458 10.4576 4.62264 10.1284L3.61483 8.30615C1.5997 4.66173 4.23555 0.191895 8.39999 0.191895C12.5644 0.191895 15.2003 4.66173 13.1851 8.30615L12.1773 10.1284C11.9954 10.4576 11.9 10.8275 11.9 11.2036V14.1919Z" fill="#292A2E"/>
</svg>
