<svg width="17" height="17" viewBox="0 0 17 17" fill="none" xmlns="http://www.w3.org/2000/svg">
<path fill-rule="evenodd" clip-rule="evenodd" d="M16.4 5.16944L6.40002 5.16943V3.66943L16.4 3.66944V5.16944ZM16.4 12.6694L6.40002 12.6694V11.1694L16.4 11.1694V12.6694Z" fill="#292A2E"/>
<path fill-rule="evenodd" clip-rule="evenodd" d="M0.900024 1.16943H2.65002C3.06424 1.16943 3.40002 1.50522 3.40002 1.91943V7.16943H1.90002V2.66943H0.900024V1.16943Z" fill="#292A2E"/>
<path fill-rule="evenodd" clip-rule="evenodd" d="M0.400024 8.66943H3.02502C3.78442 8.66943 4.40002 9.28504 4.40002 10.0444V11.2944C4.40002 12.0538 3.78442 12.6694 3.02502 12.6694H1.90002V13.6694H4.40002V15.1694H1.15002C0.735811 15.1694 0.400024 14.8336 0.400024 14.4194V12.5444C0.400024 11.785 1.01563 11.1694 1.77502 11.1694H2.90002V10.1694H0.400024V8.66943Z" fill="#292A2E"/>
</svg>
