<svg width="17" height="17" viewBox="0 0 17 17" fill="none" xmlns="http://www.w3.org/2000/svg">
<path fill-rule="evenodd" clip-rule="evenodd" d="M0.900024 5.23291C0.900024 4.40448 1.5716 3.73291 2.40002 3.73291C3.22845 3.73291 3.90002 4.40448 3.90002 5.23291C3.90002 6.06134 3.22845 6.73291 2.40002 6.73291C1.5716 6.73291 0.900024 6.06134 0.900024 5.23291Z" fill="#292A2E"/>
<path fill-rule="evenodd" clip-rule="evenodd" d="M0.900024 12.7329C0.900024 11.9045 1.5716 11.2329 2.40002 11.2329C3.22845 11.2329 3.90002 11.9045 3.90002 12.7329C3.90002 13.5613 3.22845 14.2329 2.40002 14.2329C1.5716 14.2329 0.900024 13.5613 0.900024 12.7329Z" fill="#292A2E"/>
<path fill-rule="evenodd" clip-rule="evenodd" d="M16.4 5.98291L6.40002 5.98291V4.48291L16.4 4.48291V5.98291ZM16.4 13.4829L6.40002 13.4829V11.9829L16.4 11.9829V13.4829Z" fill="#292A2E"/>
</svg>
