<svg width="17" height="17" viewBox="0 0 17 17" fill="none" xmlns="http://www.w3.org/2000/svg">
<path d="M5.98596 10.3472L2.98596 14.0972C2.83536 14.2854 2.60272 14.3895 2.36194 14.3774C2.15144 14.3667 1.95695 14.2679 1.82385 14.1079L1.77014 14.0356L0.395142 11.9106L1.65491 11.0962L2.4635 12.3462L4.81409 9.40967L5.98596 10.3472ZM5.98596 2.84717L2.98596 6.59717C2.83536 6.78542 2.60272 6.88954 2.36194 6.87744C2.15144 6.86674 1.95695 6.76787 1.82385 6.60791L1.77014 6.53564L0.395142 4.41064L1.65491 3.59619L2.4635 4.84619L4.81409 1.90967L5.98596 2.84717Z" fill="#292A2E"/>
<path d="M16.4 11.3784V12.8784L7.40002 12.8784V11.3784L16.4 11.3784ZM16.4 3.87842V5.37842L7.40002 5.37842V3.87842L16.4 3.87842Z" fill="#292A2E"/>
</svg>
