<svg width="17" height="17" viewBox="0 0 17 17" fill="none" xmlns="http://www.w3.org/2000/svg">
<path fill-rule="evenodd" clip-rule="evenodd" d="M6.40002 1.56494H10.4V3.06494H9.15002V4.81494H10.0699C12.4902 4.81494 14.5235 6.63484 14.7908 9.04039L15.1454 12.2321C15.169 12.4441 15.1011 12.6562 14.9589 12.8151C14.8166 12.9741 14.6134 13.0649 14.4 13.0649H2.40002C2.18669 13.0649 1.98345 12.9741 1.84118 12.8151C1.6989 12.6562 1.63105 12.4441 1.65461 12.2321L2.00925 9.04039C2.27653 6.63484 4.30984 4.81494 6.7302 4.81494H7.65002V3.06494H6.40002V1.56494ZM6.7302 6.31494C5.07416 6.31494 3.68295 7.56013 3.50007 9.20604L3.23797 11.5649H13.5621L13.3 9.20604C13.1171 7.56013 11.7259 6.31494 10.0699 6.31494H6.7302ZM15.4 14.0649V15.5649H1.40002V14.0649H15.4Z" fill="#292A2E"/>
</svg>
