<svg width="17" height="17" viewBox="0 0 17 17" fill="none" xmlns="http://www.w3.org/2000/svg">
<path fill-rule="evenodd" clip-rule="evenodd" d="M8.39998 1.85596C4.7729 1.85596 2.63551 5.92642 4.69472 8.91228L8.39998 14.2849L12.1052 8.91228C14.1645 5.92642 12.0271 1.85596 8.39998 1.85596ZM3.4599 9.76388C0.71443 5.78295 3.56413 0.355957 8.39998 0.355957C13.2358 0.355957 16.0855 5.78295 13.3401 9.76388L9.01739 16.0318C8.8774 16.2347 8.64657 16.356 8.39998 16.356C8.1534 16.356 7.92257 16.2347 7.78258 16.0318L3.4599 9.76388ZM8.39997 5.35596C7.84769 5.35596 7.39997 5.80367 7.39997 6.35596C7.39997 6.90824 7.84769 7.35596 8.39997 7.35596C8.95226 7.35596 9.39997 6.90824 9.39997 6.35596C9.39997 5.80367 8.95226 5.35596 8.39997 5.35596ZM5.89997 6.35596C5.89997 4.97525 7.01926 3.85596 8.39997 3.85596C9.78069 3.85596 10.9 4.97525 10.9 6.35596C10.9 7.73667 9.78069 8.85596 8.39997 8.85596C7.01926 8.85596 5.89997 7.73667 5.89997 6.35596Z" fill="#292A2E"/>
</svg>
