<svg width="17" height="17" viewBox="0 0 17 17" fill="none" xmlns="http://www.w3.org/2000/svg">
<path fill-rule="evenodd" clip-rule="evenodd" d="M8.40002 2.04248C7.01931 2.04248 5.90002 3.16177 5.90002 4.54248V7.54248H12.4C13.5046 7.54248 14.4 8.43791 14.4 9.54248V14.5425C14.4 15.647 13.5046 16.5425 12.4 16.5425H4.40002C3.29546 16.5425 2.40002 15.647 2.40002 14.5425V9.54248C2.40002 8.43791 3.29545 7.54248 4.40002 7.54248V4.54248C4.40002 2.33334 6.19089 0.54248 8.40002 0.54248C10.6092 0.54248 12.4 2.33334 12.4 4.54248H10.9C10.9 3.16177 9.78074 2.04248 8.40002 2.04248ZM4.40002 9.04248C4.12388 9.04248 3.90002 9.26634 3.90002 9.54248V14.5425C3.90002 14.8186 4.12388 15.0425 4.40002 15.0425H12.4C12.6762 15.0425 12.9 14.8186 12.9 14.5425V9.54248C12.9 9.26634 12.6762 9.04248 12.4 9.04248H4.40002Z" fill="#292A2E"/>
</svg>
