<svg width="17" height="17" viewBox="0 0 17 17" fill="none" xmlns="http://www.w3.org/2000/svg">
<path fill-rule="evenodd" clip-rule="evenodd" d="M8.40002 2.25146C7.01931 2.25146 5.90002 3.37075 5.90002 4.75146V7.75146H10.9V4.75146C10.9 3.37075 9.78074 2.25146 8.40002 2.25146ZM12.4 7.75146V4.75146C12.4 2.54233 10.6092 0.751465 8.40002 0.751465C6.19089 0.751465 4.40002 2.54233 4.40002 4.75146V7.75146C3.29545 7.75146 2.40002 8.6469 2.40002 9.75146V14.7515C2.40002 15.856 3.29546 16.7515 4.40002 16.7515H12.4C13.5046 16.7515 14.4 15.856 14.4 14.7515V9.75146C14.4 8.6469 13.5046 7.75146 12.4 7.75146ZM4.40002 9.25146C4.12388 9.25146 3.90002 9.47532 3.90002 9.75146V14.7515C3.90002 15.0276 4.12388 15.2515 4.40002 15.2515H12.4C12.6762 15.2515 12.9 15.0276 12.9 14.7515V9.75146C12.9 9.47532 12.6762 9.25146 12.4 9.25146H4.40002ZM7.65002 13.7515V10.7515H9.15002V13.7515H7.65002Z" fill="#292A2E"/>
</svg>
