<svg width="17" height="17" viewBox="0 0 17 17" fill="none" xmlns="http://www.w3.org/2000/svg">
<path d="M9.42734 4.84912C9.93084 4.34567 10.7281 4.31467 11.2682 4.75537L11.3727 4.84912L12.4889 5.96533C13.0258 6.50229 13.0258 7.37369 12.4889 7.91064L3.87265 16.5269C3.33569 17.0638 2.4643 17.0638 1.92734 16.5269L0.811128 15.4106C0.27422 14.8737 0.274221 14.0023 0.811128 13.4653L9.42734 4.84912ZM1.96054 14.437L2.9 15.3765L8.33847 9.93701L7.4 8.99854L1.96054 14.437ZM15.3922 10.3696L14.3316 11.4302L12.9176 10.0161L13.9781 8.95557L15.3922 10.3696ZM8.46054 7.93799L9.39902 8.87646L11.3385 6.93799L10.399 5.99854L8.46054 7.93799ZM16.4 5.93799V7.43799H14.4V5.93799H16.4ZM8.38242 3.35986L7.32187 4.42041L5.90781 3.00635L6.96835 1.9458L8.38242 3.35986ZM15.3922 3.00635L13.9781 4.42041L12.9176 3.35986L14.3316 1.9458L15.3922 3.00635ZM11.4 0.937988V2.93799H9.89999V0.937988H11.4Z" fill="#292A2E"/>
</svg>
