<svg width="17" height="17" viewBox="0 0 17 17" fill="none" xmlns="http://www.w3.org/2000/svg">
<path fill-rule="evenodd" clip-rule="evenodd" d="M13.9 3.82534C13.9 3.4716 13.5428 3.22973 13.2143 3.3611L7.90002 5.48682V10.2213L13.2143 12.347C13.5428 12.4784 13.9 12.2365 13.9 11.8828V3.82534ZM7.90002 11.8368L12.6572 13.7397C13.971 14.2652 15.4 13.2977 15.4 11.8828V3.82534C15.4 2.41041 13.971 1.44289 12.6572 1.96838L7.00559 4.22904H3.40002C2.29545 4.22904 1.40002 5.12448 1.40002 6.22904V9.47904C1.40002 10.5836 2.29545 11.479 3.40002 11.479H3.90002V13.729C3.90002 14.8336 4.79545 15.729 5.90002 15.729H7.15002C7.56424 15.729 7.90002 15.3933 7.90002 14.979V11.8368ZM6.40002 9.97904H3.40002C3.12388 9.97904 2.90002 9.75519 2.90002 9.47904V6.22904C2.90002 5.9529 3.12388 5.72904 3.40002 5.72904H6.40002V9.97904ZM6.40002 11.479V14.229H5.90002C5.62388 14.229 5.40002 14.0052 5.40002 13.729V11.479H6.40002Z" fill="#292A2E"/>
</svg>
