<svg width="17" height="17" viewBox="0 0 17 17" fill="none" xmlns="http://www.w3.org/2000/svg">
<path fill-rule="evenodd" clip-rule="evenodd" d="M8.40002 1.62451C7.5716 1.62451 6.90002 2.29608 6.90002 3.12451V7.12451C6.90002 7.95294 7.5716 8.62451 8.40002 8.62451C9.22845 8.62451 9.90002 7.95294 9.90002 7.12451V3.12451C9.90002 2.29608 9.22845 1.62451 8.40002 1.62451ZM5.40002 3.12451C5.40002 1.46766 6.74317 0.124512 8.40002 0.124512C10.0569 0.124512 11.4 1.46766 11.4 3.12451V7.12451C11.4 8.78137 10.0569 10.1245 8.40002 10.1245C6.74317 10.1245 5.40002 8.78137 5.40002 7.12451V3.12451ZM3.90002 7.12451C3.90002 9.60979 5.91474 11.6245 8.40002 11.6245C10.8853 11.6245 12.9 9.60979 12.9 7.12451H14.4C14.4 10.1842 12.1098 12.709 9.15002 13.0781V14.6245H12.4V16.1245H4.40002V14.6245H7.65002V13.0781C4.69029 12.709 2.40002 10.1842 2.40002 7.12451H3.90002Z" fill="#292A2E"/>
</svg>
