<svg width="17" height="17" viewBox="0 0 17 17" fill="none" xmlns="http://www.w3.org/2000/svg">
<path d="M13.9 3.31104C13.9 3.03489 13.6762 2.81104 13.4 2.81104H3.40002C3.12388 2.81104 2.90002 3.03489 2.90002 3.31104V13.311C2.90002 13.5872 3.12388 13.811 3.40002 13.811H13.4C13.6762 13.811 13.9 13.5872 13.9 13.311V3.31104ZM12.4 7.56104V9.06104H4.40002V7.56104H12.4ZM15.4 13.311C15.4 14.4156 14.5046 15.311 13.4 15.311H3.40002C2.29546 15.311 1.40002 14.4156 1.40002 13.311V3.31104C1.40002 2.20647 2.29545 1.31104 3.40002 1.31104H13.4C14.5046 1.31104 15.4 2.20647 15.4 3.31104V13.311Z" fill="#292A2E"/>
</svg>
