<svg width="17" height="17" viewBox="0 0 17 17" fill="none" xmlns="http://www.w3.org/2000/svg">
<path fill-rule="evenodd" clip-rule="evenodd" d="M2.40002 2.10205C2.40002 0.997482 3.29545 0.102051 4.40002 0.102051H12.4C13.5046 0.102051 14.4 0.997481 14.4 2.10205V14.6021H15.4V16.1021H1.40002V14.6021H2.40002V2.10205ZM3.90002 14.6021H5.90002V10.8521C5.90002 10.4378 6.23581 10.1021 6.65002 10.1021H10.15C10.5642 10.1021 10.9 10.4378 10.9 10.8521V14.6021H12.9V2.10205C12.9 1.82591 12.6762 1.60205 12.4 1.60205H4.40002C4.12388 1.60205 3.90002 1.82591 3.90002 2.10205V14.6021ZM9.40002 14.6021V11.6021H7.40002V14.6021H9.40002ZM7.40002 4.60205H5.40002V3.10205H7.40002V4.60205ZM11.4 4.60205H9.40002V3.10205H11.4V4.60205ZM5.40002 6.10205H7.40002V7.60205H5.40002V6.10205ZM9.40002 6.10205H11.4V7.60205H9.40002V6.10205Z" fill="#292A2E"/>
</svg>
