<svg width="17" height="17" viewBox="0 0 17 17" fill="none" xmlns="http://www.w3.org/2000/svg">
<path fill-rule="evenodd" clip-rule="evenodd" d="M6.05541 0.592285L14.1804 8.71729C14.4733 9.01018 14.4733 9.48505 14.1804 9.77794L8.56429 15.3941C7.78324 16.1751 6.51691 16.1751 5.73587 15.3941L1.00363 10.6618C0.222584 9.88078 0.222585 8.61445 1.00363 7.8334L6.08942 2.74762L4.99475 1.65295L6.05541 0.592285ZM7.15008 3.80828L2.46074 8.49762H11.8394L7.15008 3.80828ZM11.8394 9.99761H2.46074L6.79653 14.3334C6.99179 14.5287 7.30837 14.5287 7.50363 14.3334L11.8394 9.99761Z" fill="#292A2E"/>
<path d="M14.9001 12.4976C14.6289 12.4976 14.3789 12.644 14.2461 12.8804L14.2452 12.8821L14.2432 12.8857L14.2361 12.8984L14.2105 12.9447C14.1887 12.9843 14.158 13.0408 14.1213 13.1096C14.0481 13.2467 13.9497 13.4354 13.8506 13.6394C13.7525 13.8412 13.6483 14.0688 13.5669 14.281C13.4992 14.4579 13.4001 14.7386 13.4001 14.9976C13.4001 15.826 14.0717 16.4976 14.9001 16.4976C15.7285 16.4976 16.4001 15.826 16.4001 14.9976C16.4001 14.7386 16.301 14.4579 16.2332 14.281C16.1519 14.0688 16.0477 13.8412 15.9496 13.6394C15.8505 13.4354 15.7521 13.2467 15.6789 13.1096C15.6421 13.0408 15.6114 12.9843 15.5897 12.9447L15.5641 12.8984L15.557 12.8857L15.555 12.8821L15.554 12.8804C15.4213 12.644 15.1712 12.4976 14.9001 12.4976Z" fill="#292A2E"/>
</svg>
