<svg width="17" height="17" viewBox="0 0 17 17" fill="none" xmlns="http://www.w3.org/2000/svg">
<path d="M6.32983 0.561084C10.5974 -0.582211 14.9842 1.9507 16.1277 6.21831C17.2709 10.4859 14.738 14.8727 10.4705 16.0162C10.4384 16.0247 10.4057 16.0314 10.3728 16.0357C9.46463 16.1534 8.65241 16.0906 8.08374 15.5972C7.51001 15.0994 7.41105 14.3577 7.40112 13.7476C7.39007 13.0757 7.09221 12.5961 6.68042 12.3218C6.26173 12.043 5.66459 11.9376 4.99878 12.1529C3.99347 12.4782 3.06831 12.6106 2.28198 12.3101C1.44534 11.9901 0.973683 11.2683 0.685301 10.4019C0.680603 10.3878 0.676455 10.3733 0.672605 10.3589C-0.470879 6.09123 2.06213 1.70461 6.32983 0.561084ZM14.6785 6.60601C13.7493 3.13856 10.185 1.08119 6.71753 2.0103C3.25805 2.93739 1.20258 6.48686 2.11596 9.94683C2.33446 10.5933 2.58042 10.8181 2.81714 10.9087C3.10646 11.0194 3.61297 11.0251 4.53686 10.7261C5.59845 10.3827 6.67794 10.5179 7.51147 11.0728C8.35177 11.6323 8.8824 12.5799 8.90112 13.7232C8.91 14.2689 9.01313 14.4175 9.06714 14.4644C9.12553 14.5148 9.35852 14.6457 10.1306 14.5523C13.5687 13.603 15.6032 10.0573 14.6785 6.60601Z" fill="#292A2E"/>
<path d="M11.2719 5.96589C11.872 5.80522 12.4891 6.16171 12.6498 6.76179C12.8105 7.36189 12.454 7.97893 11.8539 8.13972C11.2539 8.30039 10.6368 7.9439 10.476 7.34382C10.3154 6.74375 10.6718 6.12668 11.2719 5.96589Z" fill="#292A2E"/>
<path d="M4.78168 5.89363C5.38172 5.73285 5.99866 6.08861 6.15961 6.68855C6.32042 7.2887 5.96386 7.90567 5.36371 8.06648C4.7638 8.22703 4.1477 7.87136 3.98676 7.27156C3.82597 6.67146 4.18163 6.05451 4.78168 5.89363Z" fill="#292A2E"/>
<path d="M8.08051 3.71589C8.68063 3.55509 9.29759 3.91072 9.45844 4.51081C9.61925 5.11096 9.26269 5.72793 8.66254 5.88874C8.06248 6.04937 7.4454 5.6929 7.28461 5.09285C7.12415 4.49289 7.48059 3.8767 8.08051 3.71589Z" fill="#292A2E"/>
</svg>
