<svg width="17" height="17" viewBox="0 0 17 17" fill="none" xmlns="http://www.w3.org/2000/svg">
<path fill-rule="evenodd" clip-rule="evenodd" d="M1.1198 1.40373C1.31051 1.21302 1.58923 1.13886 1.84929 1.21037L11.0173 3.73186C11.8179 3.95203 12.3995 4.64449 12.4782 5.47111L12.7721 8.55412C13.4668 8.32488 14.2616 8.48504 14.8141 9.03752L16.1803 10.4037C16.4732 10.6966 16.4732 11.1714 16.1803 11.4643L11.1803 16.4643C10.8874 16.7572 10.4127 16.7572 10.1198 16.4643L8.75359 15.0981C8.20111 14.5455 8.04095 13.7507 8.27019 13.0561L5.18718 12.7621C4.36056 12.6834 3.6681 12.1018 3.44792 11.3012L0.926437 2.13322C0.854921 1.87317 0.929083 1.59445 1.1198 1.40373ZM13.7536 10.0981C13.5583 9.90293 13.2418 9.90293 13.0466 10.0981L9.81413 13.3305C9.61899 13.5257 9.619 13.8423 9.81413 14.0375L10.6501 14.8735L14.5895 10.934L13.7536 10.0981ZM7.03581 6.2592C7.19024 6.2105 7.35455 6.18401 7.52507 6.18401C8.42253 6.18401 9.15007 6.91154 9.15007 7.80901C9.15007 8.70647 8.42253 9.434 7.52507 9.434C6.62761 9.434 5.90007 8.70647 5.90007 7.80901C5.90007 7.69693 5.91167 7.58755 5.93327 7.48186C5.94456 7.42676 5.95856 7.37267 5.97527 7.31975L3.12468 4.46916L4.89421 10.9037C4.94925 11.1039 5.1231 11.2493 5.32976 11.269L9.3698 11.6528L11.3688 9.65373L10.985 5.61369C10.9653 5.40704 10.82 5.23319 10.6198 5.17815L4.18523 3.40861L7.03581 6.2592Z" fill="#292A2E"/>
</svg>
