<svg width="17" height="17" viewBox="0 0 17 17" fill="none" xmlns="http://www.w3.org/2000/svg">
<path fill-rule="evenodd" clip-rule="evenodd" d="M1.40002 2.2251C1.40002 1.81088 1.73581 1.4751 2.15002 1.4751H5.65002C5.98488 1.4751 6.27917 1.69708 6.37117 2.01906L7.19228 4.89297C7.38259 5.55903 7.1621 6.27465 6.62994 6.71812L4.6898 8.3349C5.66483 9.88568 6.98944 11.2103 8.54023 12.1853L10.157 10.2452C10.6005 9.71302 11.3161 9.49254 11.9822 9.68284L14.8561 10.504C15.178 10.5959 15.4 10.8902 15.4 11.2251V14.7251C15.4 15.1393 15.0642 15.4751 14.65 15.4751C12.384 15.4751 10.2281 14.8657 8.34137 13.811C6.1381 12.5792 4.2959 10.737 3.06417 8.53375C2.00939 6.64702 1.40002 4.49114 1.40002 2.2251ZM9.88447 12.9153C11.1342 13.4932 12.4898 13.8545 13.9 13.9498V11.7908L11.5701 11.1251C11.4749 11.0979 11.3727 11.1294 11.3093 11.2055L9.88447 12.9153ZM3.95982 6.99065L5.66966 5.56578C5.74569 5.50243 5.77718 5.4002 5.75 5.30505L5.0843 2.9751H2.92533C3.02058 4.38536 3.38188 5.74096 3.95982 6.99065Z" fill="#292A2E"/>
</svg>
