<svg width="17" height="17" viewBox="0 0 17 17" fill="none" xmlns="http://www.w3.org/2000/svg">
<path d="M5.75354 0.661621C4.75167 0.661862 4.10913 1.68663 4.48596 2.56982L4.57483 2.74365L5.40002 4.11963V7.59424C5.07467 7.70998 4.64743 7.90029 4.21643 8.20557C3.29805 8.85608 2.40002 10.0086 2.40002 11.9116C2.40002 12.3258 2.73581 12.6616 3.15002 12.6616H7.65002V16.6616H9.15002V12.6616H13.65C14.0642 12.6616 14.4 12.3258 14.4 11.9116C14.4 10.0086 13.502 8.85608 12.5836 8.20557C12.1526 7.90029 11.7254 7.70998 11.4 7.59424V4.11963L12.2252 2.74365C12.7747 1.82733 12.115 0.661878 11.0465 0.661621H5.75354ZM10.0065 3.52588L9.96057 3.61572C9.9206 3.70886 9.90002 3.80957 9.90002 3.91162V8.16162C9.90002 8.52825 10.1653 8.84158 10.527 8.90186L10.528 8.90088C10.5298 8.90124 10.5321 8.90228 10.5348 8.90283C10.5477 8.90546 10.5704 8.91093 10.6012 8.91846C10.6632 8.93359 10.7573 8.95945 10.8727 8.99951C11.1058 9.08045 11.4132 9.21539 11.7164 9.43018C12.1792 9.75798 12.6537 10.2825 12.8287 11.1616H3.97131C4.14635 10.2825 4.62087 9.75798 5.08362 9.43018C5.38684 9.21539 5.69429 9.08045 5.92737 8.99951C6.04275 8.95945 6.13686 8.93359 6.19885 8.91846C6.2297 8.91093 6.25232 8.90546 6.26526 8.90283L6.27307 8.90088C6.63471 8.84061 6.90002 8.52825 6.90002 8.16162V3.91162C6.90002 3.7758 6.8634 3.64237 6.79358 3.52588L5.97424 2.16162H10.8258L10.0065 3.52588Z" fill="#292A2E"/>
<path d="M10.0065 3.52588L9.96057 3.61572C9.9206 3.70886 9.90002 3.80957 9.90002 3.91162V8.16162C9.90002 8.52825 10.1653 8.84158 10.527 8.90186L10.528 8.90088C10.5298 8.90124 10.5321 8.90228 10.5348 8.90283C10.5477 8.90546 10.5704 8.91093 10.6012 8.91846C10.6632 8.93359 10.7573 8.95945 10.8727 8.99951C11.1058 9.08045 11.4132 9.21539 11.7164 9.43018C12.1792 9.75798 12.6537 10.2825 12.8287 11.1616H3.97131C4.14635 10.2825 4.62087 9.75798 5.08362 9.43018C5.38684 9.21539 5.69429 9.08045 5.92737 8.99951C6.04275 8.95945 6.13686 8.93359 6.19885 8.91846C6.2297 8.91093 6.25232 8.90546 6.26526 8.90283L6.27307 8.90088C6.63471 8.84061 6.90002 8.52825 6.90002 8.16162V3.91162C6.90002 3.7758 6.8634 3.64237 6.79358 3.52588L5.97424 2.16162H10.8258L10.0065 3.52588Z" fill="#292A2E"/>
</svg>
