<svg width="17" height="17" viewBox="0 0 17 17" fill="none" xmlns="http://www.w3.org/2000/svg">
<path d="M5.75354 0.870605C4.75167 0.870846 4.10913 1.89561 4.48596 2.77881L4.57483 2.95264L5.40002 4.32861V7.80322C5.07467 7.91896 4.64743 8.10927 4.21643 8.41455C3.29805 9.06507 2.40002 10.2176 2.40002 12.1206C2.40002 12.5348 2.73581 12.8706 3.15002 12.8706H7.65002V16.8706H9.15002V12.8706H13.65C14.0642 12.8706 14.4 12.5348 14.4 12.1206C14.4 10.2176 13.502 9.06507 12.5836 8.41455C12.1526 8.10927 11.7254 7.91896 11.4 7.80322V4.32861L12.2252 2.95264C12.7747 2.03631 12.115 0.870862 11.0465 0.870605H5.75354ZM10.0065 3.73486C9.93664 3.85136 9.90002 3.98478 9.90002 4.12061V8.37061C9.90002 8.73723 10.1653 9.05057 10.527 9.11084L10.528 9.10986C10.5298 9.11022 10.5321 9.11126 10.5348 9.11182C10.5477 9.11444 10.5704 9.11991 10.6012 9.12744C10.6632 9.14258 10.7573 9.16843 10.8727 9.2085C11.1058 9.28943 11.4132 9.42438 11.7164 9.63916C12.1792 9.96696 12.6537 10.4915 12.8287 11.3706H3.97131C4.14635 10.4915 4.62087 9.96696 5.08362 9.63916C5.38684 9.42438 5.69429 9.28943 5.92737 9.2085C6.04275 9.16843 6.13686 9.14258 6.19885 9.12744C6.2297 9.11991 6.25232 9.11444 6.26526 9.11182L6.27307 9.10986C6.63471 9.04959 6.90002 8.73723 6.90002 8.37061V4.12061C6.90002 3.98478 6.8634 3.85136 6.79358 3.73486L5.97424 2.37061H10.8258L10.0065 3.73486Z" fill="#292A2E"/>
</svg>
