<svg width="17" height="17" viewBox="0 0 17 17" fill="none" xmlns="http://www.w3.org/2000/svg">
<path d="M13.9 3.05713C13.9 2.78099 13.6762 2.55713 13.4 2.55713H3.40002C3.12388 2.55713 2.90002 2.78099 2.90002 3.05713V13.0571C2.90002 13.3333 3.12388 13.5571 3.40002 13.5571H13.4C13.6762 13.5571 13.9 13.3333 13.9 13.0571V3.05713ZM9.15002 4.05713V7.30713H12.4V8.80713H9.15002V12.0571H7.65002V8.80713H4.40002V7.30713H7.65002V4.05713H9.15002ZM15.4 13.0571C15.4 14.1617 14.5046 15.0571 13.4 15.0571H3.40002C2.29546 15.0571 1.40002 14.1617 1.40002 13.0571V3.05713C1.40002 1.95256 2.29545 1.05713 3.40002 1.05713H13.4C14.5046 1.05713 15.4 1.95256 15.4 3.05713V13.0571Z" fill="#292A2E"/>
</svg>
