<svg width="17" height="17" viewBox="0 0 17 17" fill="none" xmlns="http://www.w3.org/2000/svg">
<path fill-rule="evenodd" clip-rule="evenodd" d="M5.40002 4.84814H3.15002C2.73581 4.84814 2.40002 5.18393 2.40002 5.59814V9.49839C2.40002 10.4094 2.78238 11.2786 3.45392 11.8941L5.40002 13.6781V14.8481C5.40002 15.9527 6.29545 16.8481 7.40002 16.8481H9.40002C10.5046 16.8481 11.4 15.9527 11.4 14.8481V13.6781L13.3461 11.8941C14.0177 11.2786 14.4 10.4094 14.4 9.49839V5.59814C14.4 5.18393 14.0642 4.84814 13.65 4.84814H11.4V0.848145H9.90002V4.84814H6.90002V0.848145H5.40002V4.84814ZM3.90002 6.34814V9.49839C3.90002 9.98893 4.10591 10.4569 4.46751 10.7884L6.65682 12.7953C6.81179 12.9373 6.90002 13.1379 6.90002 13.3481V14.8481C6.90002 15.1243 7.12388 15.3481 7.40002 15.3481H9.40002C9.67617 15.3481 9.90002 15.1243 9.90002 14.8481V13.3481C9.90002 13.1379 9.98826 12.9373 10.1432 12.7953L12.3325 10.7884C12.6941 10.4569 12.9 9.98893 12.9 9.49839V6.34814H3.90002Z" fill="#292A2E"/>
</svg>
