<svg width="17" height="17" viewBox="0 0 17 17" fill="none" xmlns="http://www.w3.org/2000/svg">
<path fill-rule="evenodd" clip-rule="evenodd" d="M3.40002 0.993652C3.40002 0.579439 3.73581 0.243652 4.15002 0.243652H12.65C13.0642 0.243652 13.4 0.579439 13.4 0.993652V4.24365H14.4C15.5046 4.24365 16.4 5.13908 16.4 6.24365V11.2437C16.4 12.3482 15.5046 13.2437 14.4 13.2437H13.4V15.4937C13.4 15.9079 13.0642 16.2437 12.65 16.2437H4.15002C3.73581 16.2437 3.40002 15.9079 3.40002 15.4937V13.2437H2.40002C1.29545 13.2437 0.400024 12.3482 0.400024 11.2437V6.24365C0.400024 5.13908 1.29545 4.24365 2.40002 4.24365H3.40002V0.993652ZM4.90002 4.24365H11.9V1.74365H4.90002V4.24365ZM3.40002 11.7437V10.4937C3.40002 10.0794 3.73581 9.74365 4.15002 9.74365H12.65C13.0642 9.74365 13.4 10.0794 13.4 10.4937V11.7437H14.4C14.6762 11.7437 14.9 11.5198 14.9 11.2437V6.24365C14.9 5.96751 14.6762 5.74365 14.4 5.74365H2.40002C2.12388 5.74365 1.90002 5.96751 1.90002 6.24365V11.2437C1.90002 11.5198 2.12388 11.7437 2.40002 11.7437H3.40002ZM11.4 7.24365H13.4V8.74365H11.4V7.24365ZM4.90002 11.2437V14.7437H11.9V11.2437H4.90002Z" fill="#292A2E"/>
</svg>
