<svg width="17" height="17" viewBox="0 0 17 17" fill="none" xmlns="http://www.w3.org/2000/svg">
<path fill-rule="evenodd" clip-rule="evenodd" d="M1.40002 3.53467H0.400024V2.03467H16.4V3.53467H15.4V10.0347C15.4 11.1392 14.5046 12.0347 13.4 12.0347H12.0241L13.846 14.1733L12.7041 15.146L10.0537 12.0347H9.15002V15.0347H7.65002V12.0347H6.74637L4.09596 15.146L2.95409 14.1733L4.77591 12.0347H3.40002C2.29545 12.0347 1.40002 11.1392 1.40002 10.0347V3.53467ZM2.90002 3.53467V10.0347C2.90002 10.3108 3.12388 10.5347 3.40002 10.5347H13.4C13.6762 10.5347 13.9 10.3108 13.9 10.0347V3.53467H2.90002Z" fill="#292A2E"/>
</svg>
