<svg width="17" height="17" viewBox="0 0 17 17" fill="none" xmlns="http://www.w3.org/2000/svg">
<path fill-rule="evenodd" clip-rule="evenodd" d="M8.40002 1.72119C4.81017 1.72119 1.90002 4.63134 1.90002 8.22119C1.90002 11.811 4.81017 14.7212 8.40002 14.7212C11.9899 14.7212 14.9 11.811 14.9 8.22119C14.9 4.63134 11.9899 1.72119 8.40002 1.72119ZM0.400024 8.22119C0.400024 3.80291 3.98175 0.221191 8.40002 0.221191C12.8183 0.221191 16.4 3.80291 16.4 8.22119C16.4 12.6395 12.8183 16.2212 8.40002 16.2212C3.98175 16.2212 0.400024 12.6395 0.400024 8.22119ZM8.40002 5.22119C7.81424 5.22119 7.40002 5.63541 7.40002 6.22119H5.90002C5.90002 4.80698 6.98581 3.72119 8.40002 3.72119C9.81424 3.72119 10.9 4.80698 10.9 6.22119C10.9 7.35378 10.1874 7.92689 9.73839 8.27968C9.22693 8.68154 9.15002 8.77318 9.15002 8.97119V9.72119H7.65002V8.97119C7.65002 7.99378 8.33898 7.46407 8.72823 7.16478C8.75793 7.14194 8.78589 7.12045 8.81166 7.1002C9.23765 6.7655 9.40002 6.5886 9.40002 6.22119C9.40002 5.63541 8.98581 5.22119 8.40002 5.22119Z" fill="#292A2E"/>
<path d="M9.40002 11.7212C9.40002 12.2735 8.95231 12.7212 8.40002 12.7212C7.84774 12.7212 7.40002 12.2735 7.40002 11.7212C7.40002 11.1689 7.84774 10.7212 8.40002 10.7212C8.95231 10.7212 9.40002 11.1689 9.40002 11.7212Z" fill="#292A2E"/>
</svg>
