<svg width="17" height="17" viewBox="0 0 17 17" fill="none" xmlns="http://www.w3.org/2000/svg">
<path fill-rule="evenodd" clip-rule="evenodd" d="M0.400024 4.6167C0.400024 3.51213 1.29545 2.6167 2.40002 2.6167H5.40002C6.50459 2.6167 7.40002 3.51213 7.40002 4.6167V10.6167C7.40002 12.8258 5.60916 14.6167 3.40002 14.6167V13.1167C4.78074 13.1167 5.90002 11.9974 5.90002 10.6167V9.6167H2.40002C1.29545 9.6167 0.400024 8.72127 0.400024 7.6167V4.6167ZM5.90002 8.1167V4.6167C5.90002 4.34056 5.67617 4.1167 5.40002 4.1167H2.40002C2.12388 4.1167 1.90002 4.34056 1.90002 4.6167V7.6167C1.90002 7.89284 2.12388 8.1167 2.40002 8.1167H5.90002ZM9.40002 4.6167C9.40002 3.51213 10.2955 2.6167 11.4 2.6167H14.4C15.5046 2.6167 16.4 3.51213 16.4 4.6167V10.6167C16.4 12.8258 14.6092 14.6167 12.4 14.6167V13.1167C13.7807 13.1167 14.9 11.9974 14.9 10.6167V9.6167H11.4C10.2955 9.6167 9.40002 8.72127 9.40002 7.6167V4.6167ZM14.9 8.1167V4.6167C14.9 4.34056 14.6762 4.1167 14.4 4.1167H11.4C11.1239 4.1167 10.9 4.34056 10.9 4.6167V7.6167C10.9 7.89284 11.1239 8.1167 11.4 8.1167H14.9Z" fill="#292A2E"/>
</svg>
