<svg width="17" height="17" viewBox="0 0 17 17" fill="none" xmlns="http://www.w3.org/2000/svg">
<path fill-rule="evenodd" clip-rule="evenodd" d="M7.65002 3.8137L3.97825 4.67765C3.75745 4.7296 3.57203 4.87868 3.47388 5.08317L0.473882 11.3332C0.425265 11.4345 0.400024 11.5454 0.400024 11.6577C0.400024 13.7288 2.07896 15.4077 4.15002 15.4077C6.22109 15.4077 7.90002 13.7288 7.90002 11.6577C7.90002 11.5454 7.8748 11.4345 7.82622 11.3333L5.23084 5.92389L11.2985 4.49621L8.97404 9.33284C8.92532 9.43421 8.90002 9.54524 8.90002 9.65771C8.90002 11.7288 10.579 13.4077 12.65 13.4077C14.7211 13.4077 16.4 11.7288 16.4 9.65771C16.4 9.54537 16.3748 9.43445 16.3262 9.33317L13.3262 3.08317C13.1738 2.76569 12.821 2.59699 12.4782 2.67765L9.15002 3.46076V1.40771H7.65002V3.8137ZM12.6515 5.14388L10.8426 8.90771H14.4581L12.6515 5.14388ZM14.772 10.4077H10.5281C10.8369 11.2816 11.6704 11.9077 12.65 11.9077C13.6297 11.9077 14.4631 11.2816 14.772 10.4077ZM4.15053 7.13984L2.34195 10.9077H5.95832L4.15053 7.13984ZM6.272 12.4077H2.02805C2.33693 13.2816 3.17036 13.9077 4.15002 13.9077C5.12969 13.9077 5.96312 13.2816 6.272 12.4077Z" fill="#292A2E"/>
</svg>
