<svg width="17" height="17" viewBox="0 0 17 17" fill="none" xmlns="http://www.w3.org/2000/svg">
<path fill-rule="evenodd" clip-rule="evenodd" d="M1.40002 3.59424C1.40002 2.48967 2.29546 1.59424 3.40002 1.59424H13.4C14.5046 1.59424 15.4 2.48967 15.4 3.59424V10.5942C15.4 11.6988 14.5046 12.5942 13.4 12.5942H9.15002V14.0942H12.4V15.5942H4.40002V14.0942H7.65002V12.5942H3.40002C2.29545 12.5942 1.40002 11.6988 1.40002 10.5942V3.59424ZM3.40002 3.09424C3.12388 3.09424 2.90002 3.3181 2.90002 3.59424V10.5942C2.90002 10.8704 3.12388 11.0942 3.40002 11.0942H13.4C13.6762 11.0942 13.9 10.8704 13.9 10.5942V3.59424C13.9 3.3181 13.6762 3.09424 13.4 3.09424H3.40002ZM7.65002 6.34424V4.09424H9.15002V6.34424H11.4V7.84424H9.15002V10.0942H7.65002V7.84424H5.40002V6.34424L7.65002 6.34424Z" fill="#292A2E"/>
</svg>
