<svg width="17" height="17" viewBox="0 0 17 17" fill="none" xmlns="http://www.w3.org/2000/svg">
<path fill-rule="evenodd" clip-rule="evenodd" d="M1.40002 3.80322C1.40002 2.69865 2.29546 1.80322 3.40002 1.80322H13.4C14.5046 1.80322 15.4 2.69865 15.4 3.80322V10.8032C15.4 11.9078 14.5046 12.8032 13.4 12.8032H9.15002V14.3032H12.4V15.8032H4.40002V14.3032H7.65002V12.8032H3.40002C2.29545 12.8032 1.40002 11.9078 1.40002 10.8032V3.80322ZM3.40002 3.30322C3.12388 3.30322 2.90002 3.52708 2.90002 3.80322V10.8032C2.90002 11.0794 3.12388 11.3032 3.40002 11.3032H13.4C13.6762 11.3032 13.9 11.0794 13.9 10.8032V3.80322C13.9 3.52708 13.6762 3.30322 13.4 3.30322H3.40002Z" fill="#292A2E"/>
</svg>
