<svg width="17" height="17" viewBox="0 0 17 17" fill="none" xmlns="http://www.w3.org/2000/svg">
<path d="M10.274 13.8367L11.3375 14.9002C10.7584 15.405 10.2091 15.7809 9.76246 16.0489C9.4465 16.2385 9.18061 16.3748 8.98998 16.4652C8.89461 16.5105 8.8179 16.5443 8.76299 16.5676C8.73552 16.5792 8.71349 16.5882 8.69727 16.5947L8.67735 16.6026L8.67075 16.6052L8.66831 16.6061L8.6673 16.6065L8.40002 15.9058L8.13275 16.6065L8.13174 16.6061L8.1293 16.6052L8.1227 16.6026L8.10278 16.5947C8.08656 16.5882 8.06453 16.5792 8.03706 16.5676C7.98215 16.5443 7.90544 16.5105 7.81007 16.4652C7.61944 16.3748 7.35355 16.2385 7.03759 16.0489C6.40643 15.6702 5.57007 15.0759 4.7344 14.2068C3.05123 12.4563 1.40002 9.61845 1.40002 5.28076C1.40002 5.18692 1.41746 5.09627 1.44964 5.01236L2.3233 5.88601C2.35659 6.00175 2.35696 6.00165 2.35696 6.00165L2.35817 6.0013L2.36156 6.00032L2.37213 5.99723L2.40811 5.98645L2.42008 5.98279L2.95096 6.51368C3.22209 9.72281 4.53154 11.8317 5.81565 13.1672C6.54248 13.9231 7.26862 14.4382 7.80933 14.7626C8.04939 14.9067 8.25183 15.0125 8.40002 15.0846C8.54822 15.0125 8.75066 14.9067 8.99072 14.7626C9.35358 14.5449 9.79995 14.2413 10.274 13.8367Z" fill="#292A2E"/>
<path d="M8.13275 16.6065C8.13275 16.6065 8.13361 16.6068 8.40002 15.9058C8.66644 16.6068 8.6673 16.6065 8.6673 16.6065C8.49568 16.6717 8.30437 16.6717 8.13275 16.6065Z" fill="#292A2E"/>
<path d="M7.86969 1.00043C7.14579 1.72434 6.36365 2.32251 5.61024 2.809L6.69297 3.89173C7.25902 3.51059 7.8381 3.06994 8.40003 2.56408C9.71019 3.74353 11.1136 4.56842 12.2278 5.11125C12.8631 5.42075 13.41 5.6413 13.8009 5.7853C13.8318 5.79667 13.8617 5.80757 13.8906 5.818C13.8292 7.5498 13.4731 8.98425 12.9671 10.1659L14.0982 11.297C14.8671 9.72519 15.4 7.74499 15.4 5.28076C15.4 4.94601 15.1779 4.65172 14.8561 4.55962L14.8519 4.55839L14.8282 4.55127C14.806 4.54454 14.7713 4.5338 14.7252 4.51887C14.633 4.489 14.495 4.44245 14.3195 4.37779C13.9681 4.24835 13.4682 4.04702 12.8848 3.76277C11.7136 3.1922 10.2284 2.29844 8.93036 1.00043C8.63746 0.707538 8.16259 0.707538 7.86969 1.00043Z" fill="#292A2E"/>
<path d="M0.869751 2.31115L14.8698 16.3111L15.9304 15.2505L1.93041 1.25049L0.869751 2.31115Z" fill="#292A2E"/>
</svg>
