<svg width="17" height="17" viewBox="0 0 17 17" fill="none" xmlns="http://www.w3.org/2000/svg">
<path fill-rule="evenodd" clip-rule="evenodd" d="M8.93035 1.20942C8.63746 0.916523 8.16259 0.916523 7.86969 1.20942C6.57168 2.50743 5.08646 3.40119 3.9153 3.97175C3.33183 4.25601 2.83191 4.45734 2.48059 4.58677C2.30508 4.65143 2.16709 4.69799 2.07483 4.72785C2.02871 4.74278 1.99406 4.75352 1.9719 4.76026L1.94817 4.76737L1.94324 4.76881C1.62167 4.86105 1.40002 5.15514 1.40002 5.48975C1.40002 9.82743 3.05123 12.6653 4.7344 14.4158C5.57007 15.2849 6.40643 15.8792 7.03759 16.2579C7.35355 16.4474 7.61944 16.5838 7.81007 16.6742C7.90544 16.7195 7.98215 16.7533 8.03706 16.7766C8.06453 16.7882 8.08656 16.7972 8.10278 16.8037L8.1227 16.8116L8.1293 16.8142L8.13174 16.8151L8.13275 16.8155C8.30437 16.8807 8.49568 16.8807 8.6673 16.8155L8.66831 16.8151L8.67075 16.8142L8.67735 16.8116L8.69727 16.8037C8.71349 16.7972 8.73552 16.7882 8.76299 16.7766C8.8179 16.7533 8.89461 16.7195 8.98998 16.6742C9.18061 16.5838 9.44649 16.4474 9.76246 16.2579C10.3936 15.8792 11.23 15.2849 12.0656 14.4158C13.7488 12.6653 15.4 9.82743 15.4 5.48975C15.4 5.155 15.1779 4.8607 14.8561 4.7686L14.8519 4.76737L14.8282 4.76026C14.806 4.75352 14.7713 4.74278 14.7252 4.72785C14.633 4.69799 14.495 4.65143 14.3195 4.58677C13.9681 4.45734 13.4682 4.25601 12.8848 3.97175C11.7136 3.40119 10.2284 2.50743 8.93035 1.20942ZM8.40003 2.77306C7.08986 3.95251 5.68649 4.7774 4.57225 5.32024C3.93697 5.62973 3.39001 5.85028 2.99915 5.99428C2.96828 6.00566 2.93837 6.01656 2.90946 6.02699C3.03722 9.63041 4.44096 11.9465 5.81565 13.3762C6.54248 14.1321 7.26862 14.6472 7.80933 14.9716C8.04939 15.1157 8.25183 15.2215 8.40002 15.2935C8.54822 15.2215 8.75066 15.1157 8.99072 14.9716C9.53143 14.6472 10.2576 14.1321 10.9844 13.3762C12.3591 11.9465 13.7628 9.63041 13.8906 6.02699C13.8617 6.01656 13.8318 6.00566 13.8009 5.99428C13.41 5.85028 12.8631 5.62973 12.2278 5.32024C11.1136 4.7774 9.71019 3.95251 8.40003 2.77306Z" fill="#292A2E"/>
</svg>
