<svg width="17" height="17" viewBox="0 0 17 17" fill="none" xmlns="http://www.w3.org/2000/svg">
<path fill-rule="evenodd" clip-rule="evenodd" d="M5.40002 0.17627H11.4V1.67627H9.15002V3.21912C10.2845 3.34959 11.3307 3.77235 12.2103 4.40968L13.3472 3.16948L14.4529 4.18306L13.3158 5.42351C14.3022 6.56292 14.9 8.05018 14.9 9.67627C14.9 13.2661 11.9899 16.1763 8.40002 16.1763C4.81017 16.1763 1.90002 13.2661 1.90002 9.67627C1.90002 8.05018 2.49784 6.56292 3.48424 5.42351L2.34716 4.18306L3.45289 3.16948L4.58975 4.40968C5.46937 3.77235 6.51552 3.34959 7.65002 3.21912V1.67627H5.40002V0.17627ZM8.40002 4.67627C7.09703 4.67627 5.91193 5.1737 5.02153 5.99034C4.02383 6.90539 3.40002 8.21743 3.40002 9.67627C3.40002 12.4377 5.6386 14.6763 8.40002 14.6763C11.1614 14.6763 13.4 12.4377 13.4 9.67627C13.4 8.21743 12.7762 6.90539 11.7785 5.99034C10.8881 5.1737 9.70302 4.67627 8.40002 4.67627ZM11.2425 7.68533L8.70081 10.4353L7.59924 9.41721L10.1409 6.66721L11.2425 7.68533Z" fill="#292A2E"/>
</svg>
