<svg width="17" height="17" viewBox="0 0 17 17" fill="none" xmlns="http://www.w3.org/2000/svg">
<path fill-rule="evenodd" clip-rule="evenodd" d="M5.43417 1.49358C5.53201 1.18047 5.82199 0.967285 6.15003 0.967285H10.4V2.46729H6.70142L5.92017 4.96729H8.65003C8.85977 4.96729 9.05992 5.05511 9.20194 5.20945C9.34396 5.3638 9.41485 5.57055 9.39744 5.77957L9.21513 7.96729H13.15C14.945 7.96729 16.4 9.42236 16.4 11.2173V14.9673C16.4 16.0719 15.5046 16.9673 14.4 16.9673H3.28664C2.25552 16.9673 1.3934 16.1834 1.29564 15.1569L0.403406 5.78839C0.383374 5.57806 0.452987 5.36904 0.595126 5.21272C0.737266 5.0564 0.938747 4.96729 1.15003 4.96729H4.34863L5.43417 1.49358ZM7.40003 15.4673H14.4C14.6762 15.4673 14.9 15.2434 14.9 14.9673V13.4673H6.90003V14.9673C6.90003 15.2434 7.12388 15.4673 7.40003 15.4673ZM6.90003 11.9673H14.9V11.2173C14.9 10.2508 14.1165 9.46729 13.15 9.46729H8.65003C7.68353 9.46729 6.90003 10.2508 6.90003 11.2173V11.9673ZM5.46304 15.4673H3.28664C3.02886 15.4673 2.81333 15.2713 2.78889 15.0147L1.97485 6.46729H7.83493L7.69813 8.10891C6.36765 8.51585 5.40003 9.75357 5.40003 11.2173V14.9673C5.40003 15.1399 5.4219 15.3075 5.46304 15.4673Z" fill="#292A2E"/>
</svg>
