<svg width="17" height="17" viewBox="0 0 17 17" fill="none" xmlns="http://www.w3.org/2000/svg">
<path fill-rule="evenodd" clip-rule="evenodd" d="M9.10779 2.74818C8.8633 2.53861 8.48735 2.61143 8.33879 2.89713L5.90002 7.58706V13.6537H12.2715C12.7636 13.6537 13.1986 13.3339 13.3453 12.8643L14.6735 8.61427C14.8998 7.88985 14.3586 7.15371 13.5997 7.15371H10.15C9.73581 7.15371 9.40002 6.81792 9.40002 6.40371V3.22863C9.40002 3.08267 9.33624 2.94399 9.22542 2.849L9.10779 2.74818ZM4.40002 13.6537V8.15371H2.40002C2.12388 8.15371 1.90002 8.37757 1.90002 8.65371V13.1537C1.90002 13.4299 2.12388 13.6537 2.40002 13.6537H4.40002ZM4.69468 6.65371L7.00796 2.2051C7.60221 1.06231 9.106 0.771028 10.084 1.60929L10.2016 1.71012C10.6449 2.09008 10.9 2.64478 10.9 3.22863V5.65371H13.5997C15.3706 5.65371 16.6334 7.37137 16.1052 9.06168L14.7771 13.3117C14.4346 14.4076 13.4197 15.1537 12.2715 15.1537H2.40002C1.29546 15.1537 0.400024 14.2583 0.400024 13.1537V8.65371C0.400024 7.54914 1.29545 6.65371 2.40002 6.65371H4.69468Z" fill="#292A2E"/>
</svg>
