<svg width="17" height="17" viewBox="0 0 17 17" fill="none" xmlns="http://www.w3.org/2000/svg">
<path fill-rule="evenodd" clip-rule="evenodd" d="M7.69219 13.7686C7.93668 13.9781 8.31263 13.9053 8.4612 13.6196L10.9 8.92969V2.86304H4.52844C4.03638 2.86304 3.60142 3.18282 3.45465 3.65248L2.12653 7.90248C1.90014 8.6269 2.44135 9.36304 3.20032 9.36304H6.64996C7.06417 9.36304 7.39996 9.69882 7.39996 10.113V13.2881C7.39996 13.4341 7.46374 13.5728 7.57456 13.6677L7.69219 13.7686ZM12.4 2.86304V8.36304H14.4C14.6761 8.36304 14.9 8.13918 14.9 7.86304V3.36304C14.9 3.08689 14.6761 2.86304 14.4 2.86304H12.4ZM12.1053 9.86304L9.79202 14.3116C9.19777 15.4544 7.69398 15.7457 6.716 14.9075L6.59838 14.8066C6.15508 14.4267 5.89996 13.872 5.89996 13.2881V10.863H3.20032C1.42939 10.863 0.166582 9.14538 0.694806 7.45507L2.02293 3.20506C2.36539 2.10919 3.38031 1.36304 4.52844 1.36304H14.4C15.5045 1.36304 16.4 2.25847 16.4 3.36304V7.86304C16.4 8.96761 15.5045 9.86304 14.4 9.86304H12.1053Z" fill="#292A2E"/>
</svg>
