<svg width="17" height="17" viewBox="0 0 17 17" fill="none" xmlns="http://www.w3.org/2000/svg">
<path d="M14.9001 5.54932C14.9001 5.48736 14.8974 5.42586 14.8942 5.36475L13.1804 7.07959C12.9058 7.35417 12.471 7.37158 12.1765 7.13135L12.1198 7.07959L9.86982 4.82959C9.57692 4.5367 9.57692 4.06194 9.86982 3.76904L11.5837 2.0542C11.5229 2.05107 11.4617 2.04932 11.4001 2.04932C9.46709 2.04932 7.90009 3.61632 7.90009 5.54932C7.90009 6.03656 7.99895 6.49896 8.17743 6.91846C8.29705 7.19976 8.23419 7.52539 8.01825 7.7417L2.18915 13.5708C1.86077 13.8992 1.86074 14.4318 2.18915 14.7603L2.25263 14.8179C2.58294 15.0875 3.07062 15.0682 3.37861 14.7603L9.11982 9.01904L9.20673 8.93115L9.29267 8.85791C9.50391 8.70225 9.78445 8.66711 10.031 8.77197C10.4504 8.95045 10.9128 9.04932 11.4001 9.04932C11.5371 9.04931 11.672 9.04107 11.8044 9.02588L11.9665 9.00342C13.6298 8.73305 14.9001 7.28921 14.9001 5.54932ZM9.46943 10.7905L13.4392 14.7603C13.7676 15.0886 14.3002 15.0886 14.6286 14.7603C14.957 14.4319 14.957 13.8992 14.6286 13.5708L11.6013 10.5435C11.5345 10.5461 11.4675 10.5493 11.4001 10.5493C10.8894 10.5493 10.3958 10.4716 9.93036 10.3286L9.46943 10.7905ZM2.06318 2.4458L2.862 4.03174H3.90009V3.01318L2.29755 2.21143L2.06318 2.4458ZM16.4001 5.54932C16.4001 7.62376 15.1367 9.40155 13.3376 10.1587L15.6892 12.5103C16.6033 13.4245 16.6033 14.9066 15.6892 15.8208C14.775 16.735 13.2928 16.7349 12.3786 15.8208L8.40888 11.8511L4.43915 15.8208C3.58215 16.6778 2.2258 16.7317 1.30634 15.9819L1.12861 15.8208C0.214409 14.9066 0.214441 13.4245 1.12861 12.5103L6.22333 7.41553L4.33954 5.53174H2.40009C2.11678 5.53174 1.85759 5.37169 1.73017 5.11865L0.480169 2.63623C0.334805 2.34725 0.391067 1.99779 0.619817 1.76904L1.61982 0.769043L1.71064 0.691895C1.93419 0.530103 2.23242 0.502229 2.48505 0.628418L4.98505 1.87842L5.07587 1.93213C5.27691 2.07082 5.40009 2.30068 5.40009 2.54932V4.47119L6.40204 5.47314C6.44277 2.74685 8.66411 0.549316 11.4001 0.549316C12.0927 0.549329 12.7544 0.690751 13.3561 0.946777L13.4392 0.987793C13.6251 1.0957 13.7569 1.27971 13.7985 1.49365C13.846 1.73831 13.7687 1.99126 13.5925 2.16748L11.4606 4.29932L12.6491 5.48779L14.7819 3.35596L14.8513 3.29541C15.021 3.16299 15.2415 3.10933 15.4558 3.15088C15.7002 3.19846 15.9051 3.3641 16.0026 3.59326C16.2587 4.19506 16.4001 4.85664 16.4001 5.54932Z" fill="#292A2E"/>
</svg>
