<svg width="17" height="17" viewBox="0 0 17 17" fill="none" xmlns="http://www.w3.org/2000/svg">
<path fill-rule="evenodd" clip-rule="evenodd" d="M8.40003 0.340332C8.64862 0.340332 8.88105 0.463505 9.02064 0.669206L13.7706 7.66921C13.9266 7.899 13.9428 8.19614 13.8127 8.44151C13.6827 8.68689 13.4277 8.84033 13.15 8.84033H12.6835L15.242 12.1299C15.4179 12.356 15.4496 12.6625 15.3238 12.9198C15.1979 13.1772 14.9365 13.3403 14.65 13.3403H10.9V14.9653C10.9 15.7247 10.2844 16.3403 9.52503 16.3403H7.27503C6.51564 16.3403 5.90003 15.7247 5.90003 14.9653V13.3403H2.15003C1.86358 13.3403 1.60215 13.1772 1.47629 12.9198C1.35044 12.6625 1.38215 12.356 1.55802 12.1299L4.11655 8.84033H3.65003C3.37233 8.84033 3.11736 8.68689 2.98733 8.44151C2.8573 8.19614 2.87349 7.899 3.02942 7.66921L7.77942 0.669206C7.91901 0.463505 8.15144 0.340332 8.40003 0.340332ZM5.06533 7.34033H5.65003C5.93648 7.34033 6.19791 7.5035 6.32377 7.76082C6.44962 8.01814 6.41791 8.32468 6.24204 8.55079L3.68351 11.8403H6.65003C7.06424 11.8403 7.40003 12.1761 7.40003 12.5903V14.8403H9.40003V12.5903C9.40003 12.1761 9.73582 11.8403 10.15 11.8403H13.1166L10.558 8.55079C10.3822 8.32468 10.3504 8.01814 10.4763 7.76082C10.6021 7.5035 10.8636 7.34033 11.15 7.34033H11.7347L8.40003 2.42604L5.06533 7.34033Z" fill="#292A2E"/>
</svg>
