<svg width="17" height="17" viewBox="0 0 17 17" fill="none" xmlns="http://www.w3.org/2000/svg">
<path fill-rule="evenodd" clip-rule="evenodd" d="M2.67678 3.91822C2.86494 2.66382 3.9425 1.73584 5.21093 1.73584H11.5891C12.8576 1.73584 13.9351 2.66382 14.1233 3.91822L14.3972 5.7441L15.6761 5.07194L16.3739 6.39974L14.8371 7.20744C15.7742 7.77767 16.4 8.80867 16.4 9.98584V14.3608C16.4 15.1202 15.7844 15.7358 15.025 15.7358H12.775C12.0156 15.7358 11.4 15.1202 11.4 14.3608V14.2358H5.40002V14.3608C5.40002 15.1202 4.78442 15.7358 4.02502 15.7358H1.77502C1.01563 15.7358 0.400024 15.1202 0.400024 14.3608V9.98584C0.400024 8.80867 1.02588 7.77767 1.96299 7.20744L0.426114 6.39974L1.12393 5.07194L2.4029 5.7441L2.67678 3.91822ZM3.77091 6.73584L4.16018 4.14073C4.2382 3.62061 4.68499 3.23584 5.21093 3.23584H11.5891C12.1151 3.23584 12.5618 3.62061 12.6399 4.14073L13.0291 6.73584H3.77091ZM3.65002 8.23584C2.68353 8.23584 1.90002 9.01934 1.90002 9.98584V14.2358H3.90002V14.1108C3.90002 13.3514 4.51563 12.7358 5.27502 12.7358H11.525C12.2844 12.7358 12.9 13.3514 12.9 14.1108V14.2358H14.9V9.98584C14.9 9.01934 14.1165 8.23584 13.15 8.23584H3.65002ZM6.40002 11.2358H3.40002V9.73584H6.40002V11.2358ZM13.4 11.2358H10.4V9.73584H13.4V11.2358Z" fill="#292A2E"/>
</svg>
