<svg width="17" height="17" viewBox="0 0 17 17" fill="none" xmlns="http://www.w3.org/2000/svg">
<path fill-rule="evenodd" clip-rule="evenodd" d="M7.63272 2.14693C8.52531 1.38561 9.90002 2.01992 9.90002 3.19308V14.234C9.90002 15.4071 8.52531 16.0414 7.63272 15.2801L4.76382 12.8331C4.67332 12.7559 4.55828 12.7135 4.43934 12.7135H2.40002C1.29545 12.7135 0.400024 11.8181 0.400024 10.7135V6.71353C0.400024 5.60896 1.29545 4.71353 2.40002 4.71353H4.43934C4.55828 4.71353 4.67332 4.67113 4.76382 4.59394L7.63272 2.14693ZM8.40002 3.46399L5.73724 5.7352C5.37527 6.04393 4.9151 6.21353 4.43934 6.21353H2.40002C2.12388 6.21353 1.90002 6.43739 1.90002 6.71353V10.7135C1.90002 10.9897 2.12388 11.2135 2.40002 11.2135H4.43934C4.9151 11.2135 5.37527 11.3831 5.73724 11.6919L8.40002 13.9631V3.46399ZM14.7107 8.71353L16.1804 7.24386L15.1197 6.1832L13.65 7.65287L12.1804 6.1832L11.1197 7.24386L12.5894 8.71353L11.1197 10.1832L12.1804 11.2439L13.65 9.77419L15.1197 11.2439L16.1804 10.1832L14.7107 8.71353Z" fill="#292A2E"/>
</svg>
