<svg width="17" height="17" viewBox="0 0 17 17" fill="none" xmlns="http://www.w3.org/2000/svg">
<path fill-rule="evenodd" clip-rule="evenodd" d="M7.63272 1.96041C8.52531 1.19909 9.90002 1.8334 9.90002 3.00656V14.0474C9.90002 15.2206 8.52531 15.8549 7.63272 15.0936L4.76382 12.6466C4.67332 12.5694 4.55828 12.527 4.43934 12.527H2.40002C1.29545 12.527 0.400024 11.6316 0.400024 10.527V6.527C0.400024 5.42244 1.29545 4.527 2.40002 4.527H4.43934C4.55828 4.527 4.67332 4.48461 4.76382 4.40742L7.63272 1.96041ZM8.40002 3.27747L5.73724 5.54867C5.37527 5.85741 4.9151 6.027 4.43934 6.027H2.40002C2.12388 6.027 1.90002 6.25086 1.90002 6.527V10.527C1.90002 10.8031 2.12388 11.027 2.40002 11.027H4.43934C4.9151 11.027 5.37527 11.1966 5.73724 11.5053L8.40002 13.7765V3.27747ZM13.3697 11.9967C15.2859 10.0804 15.2859 6.97358 13.3697 5.05733L14.4304 3.99667C16.9324 6.49871 16.9324 10.5553 14.4304 13.0573L13.3697 11.9967ZM11.3697 9.99667C12.1814 9.185 12.1814 7.86901 11.3697 7.05733L12.4304 5.99667C13.8278 7.39414 13.8278 9.65987 12.4304 11.0573L11.3697 9.99667Z" fill="#292A2E"/>
</svg>
