<svg width="17" height="17" viewBox="0 0 17 17" fill="none" xmlns="http://www.w3.org/2000/svg">
<path fill-rule="evenodd" clip-rule="evenodd" d="M7.63272 2.35592C8.52531 1.59459 9.90002 2.2289 9.90002 3.40207V14.443C9.90002 15.6161 8.52531 16.2504 7.63272 15.4891L4.76382 13.0421C4.67332 12.9649 4.55828 12.9225 4.43934 12.9225H2.40002C1.29545 12.9225 0.400024 12.0271 0.400024 10.9225V6.92251C0.400024 5.81794 1.29545 4.92251 2.40002 4.92251H4.43934C4.55828 4.92251 4.67332 4.88011 4.76382 4.80293L7.63272 2.35592ZM8.40002 3.67298L5.73724 5.94418C5.37527 6.25292 4.9151 6.42251 4.43934 6.42251H2.40002C2.12388 6.42251 1.90002 6.64637 1.90002 6.92251V10.9225C1.90002 11.1987 2.12388 11.4225 2.40002 11.4225H4.43934C4.9151 11.4225 5.37527 11.5921 5.73724 11.9008L8.40002 14.172V3.67298ZM11.3697 10.3922C12.1814 9.58051 12.1814 8.26452 11.3697 7.45284L12.4304 6.39218C13.8278 7.78964 13.8278 10.0554 12.4304 11.4528L11.3697 10.3922Z" fill="#292A2E"/>
</svg>
