<svg width="17" height="17" viewBox="0 0 17 17" fill="none" xmlns="http://www.w3.org/2000/svg">
<path d="M12.7834 7.82597C13.6271 8.42358 14.4537 9.44464 14.5825 11.0822L10.0999 6.59951V3.53174C10.0999 3.39581 10.1368 3.26243 10.2068 3.14587L11.0252 1.78174H6.17453L6.993 3.14587C7.06294 3.26243 7.09988 3.39581 7.09988 3.53174V3.59951L4.66825 1.16788C4.86056 0.666591 5.33972 0.281738 5.95375 0.281738H11.246C12.3148 0.281738 12.975 1.4477 12.4251 2.36417L11.5999 3.73948V7.21453C11.9253 7.33027 12.3524 7.52068 12.7834 7.82597Z" fill="#292A2E"/>
<path d="M4.74803 7.61162L5.8606 8.72419C5.68097 8.80358 5.4813 8.90983 5.2834 9.05001C4.82058 9.37783 4.34494 9.90242 4.16993 10.7817H7.91815L9.41815 12.2817H9.34988V16.2817H7.84988V12.2817H3.34988C2.93567 12.2817 2.59988 11.946 2.59988 11.5317C2.59988 9.62876 3.49799 8.47649 4.41637 7.82597C4.52775 7.74708 4.63886 7.67586 4.74803 7.61162Z" fill="#292A2E"/>
<path d="M1.06961 1.81212L15.0696 15.8121L16.1303 14.7515L2.13027 0.751465L1.06961 1.81212Z" fill="#292A2E"/>
</svg>
