<svg width="17" height="17" viewBox="0 0 17 17" fill="none" xmlns="http://www.w3.org/2000/svg">
<path fill-rule="evenodd" clip-rule="evenodd" d="M15.8802 1.23962C16.7944 2.15383 16.7944 3.63606 15.8802 4.55028L13.6619 6.76857L15.0862 14.1274C15.1407 14.4093 15.0295 14.6977 14.7998 14.8699L12.7998 16.3699C12.6132 16.5099 12.372 16.5551 12.1473 16.4921C11.9227 16.4291 11.7401 16.2651 11.6535 16.0485L9.55656 10.8062L7.64207 12.5612L7.84404 14.1769C7.87274 14.4066 7.79381 14.6366 7.63016 14.8003L6.13016 16.3003C5.96303 16.4674 5.72688 16.546 5.49293 16.5123C5.25897 16.4786 5.05459 16.3366 4.94141 16.1291L3.54704 13.5727L0.990691 12.1784C0.783187 12.0652 0.64118 11.8608 0.607489 11.6268C0.573797 11.3929 0.652365 11.1567 0.819501 10.9896L2.3195 9.48961C2.48316 9.32596 2.7132 9.24703 2.94286 9.27574L4.55862 9.47771L6.31357 7.56322L1.07129 5.4663C0.854651 5.37965 0.690684 5.1971 0.627686 4.97245C0.564688 4.74779 0.609836 4.5066 0.749831 4.31994L2.24983 2.31994C2.42212 2.09023 2.71044 1.97905 2.99235 2.03361L10.3512 3.45791L12.5695 1.23962C13.4837 0.325402 14.9659 0.325401 15.8802 1.23962ZM14.8195 3.48962C15.1479 3.16119 15.1479 2.6287 14.8195 2.30028C14.4911 1.97185 13.9586 1.97185 13.6302 2.30028L11.1302 4.80028C10.954 4.97643 10.7019 5.05362 10.4573 5.00628L3.16818 3.59548L2.53701 4.43704L7.87837 6.57359C8.10709 6.66507 8.2763 6.86305 8.33106 7.10322C8.38583 7.3434 8.31915 7.59515 8.1527 7.77674L5.4027 10.7767C5.23855 10.9558 4.99785 11.0443 4.7568 11.0142L3.12078 10.8097L2.58893 11.3415L4.45897 12.3615C4.58539 12.4305 4.68929 12.5344 4.75825 12.6608L5.77827 14.5308L6.31012 13.999L6.10562 12.363C6.07549 12.1219 6.16397 11.8812 6.34304 11.7171L9.34304 8.96708C9.52463 8.80062 9.77638 8.73395 10.0166 8.78871C10.2567 8.84347 10.4547 9.01268 10.5462 9.2414L12.6827 14.5828L13.5243 13.9516L12.1135 6.66246C12.0662 6.41789 12.1433 6.16577 12.3195 5.98961L14.8195 3.48962Z" fill="#292A2E"/>
</svg>
