<svg width="17" height="17" viewBox="0 0 17 17" fill="none" xmlns="http://www.w3.org/2000/svg">
<path fill-rule="evenodd" clip-rule="evenodd" d="M12.4357 1.06088C13.2168 0.279836 14.4831 0.279835 15.2642 1.06088L15.7464 1.54312C16.5274 2.32417 16.5274 3.5905 15.7464 4.37154L13.5985 6.51948C14.1859 7.54669 14.5861 8.6692 14.6977 9.74862C14.8287 11.0153 14.5649 12.303 13.6303 13.2377C12.6116 14.2564 11.331 14.2624 10.2632 13.8429C9.22455 13.4348 8.29752 12.6058 7.72591 11.7484L8.97398 10.9163C9.40237 11.5589 10.1003 12.1673 10.8117 12.4468C11.4939 12.7148 12.0883 12.6583 12.5696 12.177C13.0853 11.6613 13.3069 10.8822 13.2057 9.90294C13.1309 9.18048 12.8818 8.39292 12.4918 7.62609L10.7683 9.34961C10.5706 9.54737 10.3172 9.68013 10.042 9.73016L7.48411 10.1952C7.24197 10.2393 6.99364 10.1617 6.81962 9.98766C6.64559 9.81364 6.56802 9.56531 6.61204 9.32317L7.07712 6.76525C7.12715 6.49009 7.2599 6.23671 7.45767 6.03895L9.22261 4.27401C7.68777 3.51843 5.86937 3.35493 4.45508 4.53349C3.41423 5.40087 2.95761 7.45322 3.72984 9.66303C4.4769 11.8009 6.34533 13.9164 9.65384 14.729L9.29605 16.1857C5.47956 15.2483 3.22299 12.7596 2.31381 10.1579C1.42978 7.6281 1.78566 4.80545 3.49481 3.38116C5.70876 1.53621 8.43167 2.09157 10.3306 3.16605L12.4357 1.06088ZM14.2035 2.12154C14.0082 1.92628 13.6917 1.92628 13.4964 2.12154L8.54594 7.072L8.28164 8.52564L9.73528 8.26134L14.6857 3.31088C14.881 3.11562 14.881 2.79904 14.6857 2.60378L14.2035 2.12154Z" fill="#292A2E"/>
</svg>
