<svg width="17" height="17" viewBox="0 0 17 17" fill="none" xmlns="http://www.w3.org/2000/svg">
<path fill-rule="evenodd" clip-rule="evenodd" d="M8.60001 2.06494C5.01016 2.06494 2.10001 4.97509 2.10001 8.56494C2.10001 11.4574 3.98989 13.9096 6.60216 14.7523C6.60073 14.69 6.60001 14.6276 6.60001 14.5649C6.60001 13.4632 6.82313 12.4117 7.22736 11.4546C8.44029 8.58272 11.2836 6.56494 14.6 6.56494C14.6626 6.56494 14.7251 6.56566 14.7874 6.5671C13.9447 3.95483 11.4925 2.06494 8.60001 2.06494ZM14.0132 8.09107C11.5751 8.30923 9.52334 9.87371 8.60918 12.0382C8.35375 12.643 8.18713 13.2949 8.12608 13.9782L14.0132 8.09107ZM0.600006 8.56494C0.600006 4.14666 4.18173 0.564941 8.60001 0.564941C12.5841 0.564941 15.8867 3.47654 16.4985 7.28805C16.5367 7.52564 16.4585 7.7671 16.2884 7.93725L7.97232 16.2533C7.80217 16.4234 7.56071 16.5016 7.32312 16.4635C3.51161 15.8516 0.600006 12.549 0.600006 8.56494Z" fill="#292A2E"/>
</svg>
