<svg width="17" height="17" viewBox="0 0 17 17" fill="none" xmlns="http://www.w3.org/2000/svg">
<path fill-rule="evenodd" clip-rule="evenodd" d="M8.59976 1.99756C5.00991 1.99756 2.09976 4.90771 2.09976 8.49756C2.09976 12.0874 5.00991 14.9976 8.59976 14.9976C12.1896 14.9976 15.0998 12.0874 15.0998 8.49756C15.0998 4.90771 12.1896 1.99756 8.59976 1.99756ZM0.599762 8.49756C0.599762 4.07928 4.18148 0.497559 8.59976 0.497559C13.018 0.497559 16.5998 4.07928 16.5998 8.49756C16.5998 12.9158 13.018 16.4976 8.59976 16.4976C4.18148 16.4976 0.599762 12.9158 0.599762 8.49756ZM5.60001 5.8037C5.60001 4.99591 6.46575 4.48357 7.17384 4.87233L12.1316 7.59426C12.8665 7.99773 12.8665 9.05353 12.1316 9.45699L7.17384 12.1789C6.46575 12.5677 5.60001 12.0553 5.60001 11.2476V5.8037ZM7.10001 6.54299V10.5083L10.7112 8.52563L7.10001 6.54299Z" fill="#292A2E"/>
<path d="M7.10001 10.5083V6.54299L10.7112 8.52563L7.10001 10.5083Z" fill="#292A2E"/>
</svg>
