<svg width="17" height="17" viewBox="0 0 17 17" fill="none" xmlns="http://www.w3.org/2000/svg">
<path fill-rule="evenodd" clip-rule="evenodd" d="M9.35001 1.96045V3.96045H7.85001V1.96045H9.35001ZM12.35 4.80512L13.7642 3.39091L14.8249 4.45157L13.4107 5.86578L12.35 4.80512ZM3.76422 5.87466L2.35001 4.46045L3.41067 3.39979L4.82488 4.814L3.76422 5.87466ZM8.60001 6.96045C6.94315 6.96045 5.60001 8.3036 5.60001 9.96045H4.10001C4.10001 7.47517 6.11473 5.46045 8.60001 5.46045C11.0853 5.46045 13.1 7.47517 13.1 9.96045H11.6C11.6 8.3036 10.2569 6.96045 8.60001 6.96045ZM2.60001 9.96045H0.600006V8.46045H2.60001V9.96045ZM16.6 9.96045H14.6V8.46045H16.6V9.96045ZM15.6 12.9604H1.60001V11.4604H15.6V12.9604ZM11.1 14.4605V15.9605H6.10001V14.4605H11.1Z" fill="#292A2E"/>
</svg>
