<svg width="17" height="17" viewBox="0 0 17 17" fill="none" xmlns="http://www.w3.org/2000/svg">
<path d="M10.4701 1.90352C12.0364 1.33704 13.7281 1.23672 14.7875 2.2961C15.8469 3.3555 15.7466 5.04722 15.1801 6.61349C14.9611 7.21905 14.6587 7.8483 14.2826 8.4836C14.6587 9.11888 14.9611 9.74817 15.1801 10.3537C15.7466 11.92 15.8469 13.6117 14.7875 14.6711C13.7282 15.7305 12.0364 15.6302 10.4701 15.0637C9.8646 14.8447 9.23531 14.5423 8.60003 14.1662C7.96473 14.5423 7.33548 14.8446 6.72991 15.0637C5.16365 15.6302 3.47192 15.7305 2.41253 14.6711C1.35315 13.6117 1.45346 11.92 2.01995 10.3537C2.23893 9.7483 2.54046 9.11875 2.91643 8.4836C2.54044 7.84843 2.23894 7.21893 2.01995 6.61349C1.45344 5.0472 1.35313 3.3555 2.41253 2.2961C3.47192 1.23671 5.16362 1.33701 6.72991 1.90352C7.33535 2.12251 7.96486 2.42402 8.60003 2.80001C9.23517 2.42403 9.86472 2.12251 10.4701 1.90352ZM3.85979 9.88009C3.68855 10.2178 3.54462 10.5469 3.4301 10.8635C2.90897 12.3043 3.06802 13.2055 3.47307 13.6106C3.87814 14.0156 4.77942 14.1746 6.22014 13.6535C6.53659 13.5391 6.86499 13.394 7.20257 13.2229C6.59596 12.7632 5.99544 12.2423 5.41839 11.6652C4.841 11.0879 4.31963 10.487 3.85979 9.88009ZM13.3393 9.88009C12.8795 10.4869 12.3589 11.088 11.7817 11.6652C11.2044 12.2425 10.6033 12.7631 9.99651 13.2229C10.3344 13.3942 10.6632 13.539 10.9799 13.6535C12.4207 14.1747 13.3219 14.0156 13.727 13.6106C14.132 13.2055 14.2911 12.3043 13.7699 10.8635C13.6554 10.5468 13.5106 10.2179 13.3393 9.88009ZM8.60003 4.58224C7.89146 5.07269 7.17249 5.66896 6.47893 6.36251C5.78538 7.05606 5.18912 7.77503 4.69866 8.4836C5.18911 9.19216 5.7854 9.91116 6.47893 10.6047C7.17234 11.2981 7.89161 11.8936 8.60003 12.384C9.30844 11.8936 10.0277 11.2981 10.7211 10.6047C11.4145 9.9113 12.01 9.19202 12.5004 8.4836C12.01 7.77518 11.4145 7.05591 10.7211 6.36251C10.0276 5.66897 9.30858 5.07268 8.60003 4.58224ZM6.22014 3.31368C4.77937 2.79255 3.87812 2.9516 3.47307 3.35665C3.06802 3.7617 2.90897 4.66295 3.4301 6.10372C3.54453 6.42005 3.68872 6.7487 3.85979 7.08614C4.31952 6.47938 4.84118 5.87917 5.41839 5.30196C5.99559 4.72476 6.5958 4.2031 7.20257 3.74337C6.86513 3.57229 6.53647 3.42811 6.22014 3.31368ZM13.727 3.35665C13.3219 2.9516 12.4207 2.79255 10.9799 3.31368C10.6633 3.42819 10.3342 3.57212 9.99651 3.74337C10.6035 4.2032 11.2043 4.72458 11.7817 5.30196C12.3587 5.87902 12.8796 6.47954 13.3393 7.08614C13.5104 6.74857 13.6555 6.42017 13.7699 6.10372C14.2911 4.66299 14.132 3.76172 13.727 3.35665Z" fill="#292A2E"/>
<path d="M9.60003 8.4836C9.60003 9.03589 9.15231 9.4836 8.60003 9.4836C8.04774 9.4836 7.60003 9.03589 7.60003 8.4836C7.60003 7.93132 8.04774 7.4836 8.60003 7.4836C9.15231 7.4836 9.60003 7.93132 9.60003 8.4836Z" fill="#292A2E"/>
</svg>
