<svg width="17" height="17" viewBox="0 0 17 17" fill="none" xmlns="http://www.w3.org/2000/svg">
<path fill-rule="evenodd" clip-rule="evenodd" d="M1.60001 1.65869C1.60001 1.24448 1.93579 0.908691 2.35001 0.908691H12.35C12.7642 0.908691 13.1 1.24448 13.1 1.65869V2.65869H14.225C14.9844 2.65869 15.6 3.2743 15.6 4.03369V6.40869C15.6 7.51326 14.7046 8.40869 13.6 8.40869H8.35001V9.90869H8.85001C9.26422 9.90869 9.60001 10.2445 9.60001 10.6587V14.9087C9.60001 16.0133 8.70458 16.9087 7.60001 16.9087C6.49544 16.9087 5.60001 16.0133 5.60001 14.9087V10.6587C5.60001 10.2445 5.93579 9.90869 6.35001 9.90869H6.85001V8.29619C6.85001 7.5299 7.47121 6.90869 8.23751 6.90869H13.6C13.8761 6.90869 14.1 6.68483 14.1 6.40869V4.15869H13.1V5.15869C13.1 5.57291 12.7642 5.90869 12.35 5.90869H2.35001C1.93579 5.90869 1.60001 5.57291 1.60001 5.15869V1.65869ZM7.10001 11.4087V14.9087C7.10001 15.1848 7.32386 15.4087 7.60001 15.4087C7.87615 15.4087 8.10001 15.1848 8.10001 14.9087V11.4087H7.10001ZM3.10001 2.40869V4.40869H11.6V2.40869H3.10001Z" fill="#292A2E"/>
</svg>
