<svg width="17" height="17" viewBox="0 0 17 17" fill="none" xmlns="http://www.w3.org/2000/svg">
<path fill-rule="evenodd" clip-rule="evenodd" d="M9.35001 0.342041V4.09204H7.85001V0.342041H9.35001ZM9.35001 7.09204V9.59204H7.85001V7.09204H9.35001ZM9.35001 12.592V16.342H7.85001V12.592H9.35001Z" fill="#292A2E"/>
<path fill-rule="evenodd" clip-rule="evenodd" d="M1.60001 4.71704C1.60001 3.95765 2.21561 3.34204 2.97501 3.34204H14.225C14.9844 3.34204 15.6 3.95765 15.6 4.71704V6.21704C15.6 6.97643 14.9844 7.59204 14.225 7.59204H2.97501C2.21561 7.59204 1.60001 6.97643 1.60001 6.21704V4.71704ZM3.10001 4.84204V6.09204H14.1V4.84204H3.10001Z" fill="#292A2E"/>
<path fill-rule="evenodd" clip-rule="evenodd" d="M3.60001 10.467C3.60001 9.70765 4.21561 9.09204 4.97501 9.09204H12.225C12.9844 9.09204 13.6 9.70765 13.6 10.467V11.967C13.6 12.7264 12.9844 13.342 12.225 13.342H4.97501C4.21561 13.342 3.60001 12.7264 3.60001 11.967V10.467ZM5.10001 10.592V11.842H12.1V10.592H5.10001Z" fill="#292A2E"/>
</svg>
