<svg width="17" height="17" viewBox="0 0 17 17" fill="none" xmlns="http://www.w3.org/2000/svg">
<path fill-rule="evenodd" clip-rule="evenodd" d="M16.6 8.58057C16.6 9.97158 16.245 11.2797 15.6206 12.4192L14.5042 11.3028C14.7869 10.6908 14.9771 10.0275 15.0572 9.33057H12.532L10.8228 7.6214C10.7351 6.08767 10.4411 4.73828 10.0283 3.74081C9.77918 3.13873 9.50155 2.7007 9.23163 2.42479C8.96414 2.15137 8.75105 2.08057 8.60001 2.08057C8.44896 2.08057 8.23587 2.15137 7.96838 2.42479C7.69846 2.7007 7.42084 3.13873 7.1717 3.74081C7.1495 3.79444 7.12765 3.84909 7.10616 3.90474L5.96537 2.76395C5.99165 2.70917 6.01844 2.65505 6.04573 2.60166C5.98933 2.62578 5.93334 2.65068 5.87777 2.67635L4.76138 1.55996C5.90089 0.935585 7.20899 0.580566 8.60001 0.580566C13.0183 0.580566 16.6 4.16229 16.6 8.58057ZM12.3348 7.83057C12.262 6.04621 11.9316 4.41734 11.4143 3.16728C11.3334 2.97164 11.2467 2.78254 11.1543 2.60165C13.255 3.50028 14.7864 5.47369 15.0572 7.83057H12.3348Z" fill="#292A2E"/>
<path fill-rule="evenodd" clip-rule="evenodd" d="M10.0939 13.2564L11.2346 14.3972C11.2084 14.452 11.1816 14.5061 11.1543 14.5595C11.2107 14.5354 11.2667 14.5104 11.3222 14.4848L12.4386 15.6012C11.2991 16.2255 9.99102 16.5806 8.60001 16.5806C4.18173 16.5806 0.600006 12.9988 0.600006 8.58057C0.600006 7.18955 0.955025 5.88145 1.5794 4.74194L2.69579 5.85833C2.41316 6.4703 2.22287 7.13367 2.14281 7.83057H4.66803L6.37719 9.53973C6.46491 11.0735 6.75895 12.4229 7.1717 13.4203C7.42084 14.0224 7.69846 14.4604 7.96838 14.7363C8.23587 15.0098 8.44896 15.0806 8.60001 15.0806C8.75105 15.0806 8.96414 15.0098 9.23163 14.7363C9.50155 14.4604 9.77918 14.0224 10.0283 13.4203C10.0505 13.3667 10.0724 13.312 10.0939 13.2564ZM6.04573 14.5595C5.95329 14.3786 5.86663 14.1895 5.78567 13.9939C5.26841 12.7438 4.93798 11.1149 4.86522 9.33057H2.14281C2.41359 11.6874 3.945 13.6609 6.04573 14.5595Z" fill="#292A2E"/>
<path d="M1.06973 2.11095L15.0697 16.111L16.1304 15.0503L2.13039 1.05029L1.06973 2.11095Z" fill="#292A2E"/>
</svg>
