<svg width="17" height="17" viewBox="0 0 17 17" fill="none" xmlns="http://www.w3.org/2000/svg">
<path fill-rule="evenodd" clip-rule="evenodd" d="M8.59976 1.57275C5.00991 1.57275 2.09976 4.4829 2.09976 8.07275C2.09976 11.6626 5.00991 14.5728 8.59976 14.5728C12.1896 14.5728 15.0998 11.6626 15.0998 8.07275C15.0998 4.4829 12.1896 1.57275 8.59976 1.57275ZM0.599762 8.07275C0.599762 3.65448 4.18148 0.0727539 8.59976 0.0727539C13.018 0.0727539 16.5998 3.65448 16.5998 8.07275C16.5998 12.491 13.018 16.0728 8.59976 16.0728C4.18148 16.0728 0.599762 12.491 0.599762 8.07275ZM7.85001 8.75439V12.0044H9.35001V8.75439H12.6V7.25439H9.35001V4.00439H7.85001V7.25439H4.60001V8.75439H7.85001Z" fill="#292A2E"/>
</svg>
