<svg width="17" height="17" viewBox="0 0 17 17" fill="none" xmlns="http://www.w3.org/2000/svg">
<path fill-rule="evenodd" clip-rule="evenodd" d="M3.22501 2.87061C2.60369 2.87061 2.10001 3.37429 2.10001 3.99561V14.8282L4.65083 13.3706H13.975C14.5963 13.3706 15.1 12.8669 15.1 12.2456V3.99561C15.1 3.37429 14.5963 2.87061 13.975 2.87061H3.22501ZM0.600006 3.99561C0.600006 2.54586 1.77526 1.37061 3.22501 1.37061H13.975C15.4248 1.37061 16.6 2.54586 16.6 3.99561V12.2456C16.6 13.6954 15.4248 14.8706 13.975 14.8706H5.04918L1.72211 16.7718C1.48998 16.9044 1.2048 16.9035 0.973561 16.7693C0.742325 16.6351 0.600006 16.388 0.600006 16.1206V3.99561ZM5.10001 5.87061C5.10001 5.18025 5.65965 4.62061 6.35001 4.62061C7.04036 4.62061 7.60001 5.18025 7.60001 5.87061C7.60001 6.56096 7.04036 7.12061 6.35001 7.12061C5.65965 7.12061 5.10001 6.56096 5.10001 5.87061ZM9.60001 5.87061C9.60001 5.18025 10.1596 4.62061 10.85 4.62061C11.5404 4.62061 12.1 5.18025 12.1 5.87061C12.1 6.56096 11.5404 7.12061 10.85 7.12061C10.1596 7.12061 9.60001 6.56096 9.60001 5.87061ZM6.68546 9.65359C7.17081 10.0311 7.82471 10.3706 8.60001 10.3706C9.3753 10.3706 10.0292 10.0311 10.5146 9.65359C10.7543 9.46711 10.9414 9.27998 11.0673 9.14086C11.1299 9.07169 11.1763 9.0155 11.2056 8.97874C11.2202 8.96039 11.2304 8.94699 11.2362 8.93935L11.2414 8.93234L11.24 8.93425C11.24 8.93425 11.2397 8.93468 11.85 9.37061C12.4603 9.80653 12.46 9.80701 12.46 9.80701L12.4588 9.80867L12.4568 9.81144L12.4513 9.81891L12.4348 9.84117C12.4213 9.85916 12.4027 9.88336 12.3792 9.91286C12.3323 9.9718 12.2655 10.0523 12.1796 10.1472C12.0086 10.3362 11.7582 10.5866 11.4355 10.8376C10.7958 11.3351 9.82471 11.8706 8.60001 11.8706C7.3753 11.8706 6.4042 11.3351 5.76455 10.8376C5.44181 10.5866 5.19142 10.3362 5.02042 10.1472C4.93456 10.0523 4.86772 9.9718 4.82081 9.91286C4.79732 9.88336 4.77875 9.85916 4.76522 9.84117L4.74867 9.81891L4.74324 9.81144L4.74123 9.80867L4.74041 9.80752C4.74041 9.80752 4.73971 9.80653 5.35001 9.37061C5.96031 8.93468 5.96 8.93425 5.96 8.93425L5.95863 8.93234L5.96385 8.93935C5.9696 8.94699 5.97984 8.96039 5.99444 8.97874C6.0237 9.0155 6.07014 9.07169 6.13272 9.14086C6.25859 9.27998 6.4457 9.46711 6.68546 9.65359Z" fill="#292A2E"/>
</svg>
