<svg width="17" height="17" viewBox="0 0 17 17" fill="none" xmlns="http://www.w3.org/2000/svg">
<path fill-rule="evenodd" clip-rule="evenodd" d="M4.60001 0.311035H12.6V1.81104H9.35001V2.81104H12.2132C13.063 2.81104 13.8201 3.34816 14.1009 4.15033L15.4175 7.91226C15.5383 8.25733 15.6 8.6203 15.6 8.9859V11.811C15.6 12.9156 14.7046 13.811 13.6 13.811H13.4663L14.4828 15.4084L13.2173 16.2137L11.6883 13.811H5.51172L3.98275 16.2137L2.71726 15.4084L3.73375 13.811H3.60001C2.49544 13.811 1.60001 12.9156 1.60001 11.811V8.9859C1.60001 8.6203 1.66169 8.25733 1.78247 7.91226L3.09914 4.15033C3.3799 3.34816 4.13697 2.81104 4.98686 2.81104H7.85001V1.81104H4.60001V0.311035ZM4.98686 4.31104C4.77438 4.31104 4.58512 4.44532 4.51493 4.64586L3.40712 7.81104H13.7929L12.6851 4.64586C12.6149 4.44532 12.4256 4.31104 12.2132 4.31104H4.98686ZM14.1 9.31104H3.10001V11.811C3.10001 12.0872 3.32386 12.311 3.60001 12.311H13.6C13.8761 12.311 14.1 12.0872 14.1 11.811V9.31104ZM11.1 14.811V16.311H6.10001V14.811H11.1Z" fill="#292A2E"/>
<path d="M5.60001 10.811C5.60001 11.2252 5.26422 11.561 4.85001 11.561C4.43579 11.561 4.10001 11.2252 4.10001 10.811C4.10001 10.3968 4.43579 10.061 4.85001 10.061C5.26422 10.061 5.60001 10.3968 5.60001 10.811Z" fill="#292A2E"/>
<path d="M13.1 10.811C13.1 11.2252 12.7642 11.561 12.35 11.561C11.9358 11.561 11.6 11.2252 11.6 10.811C11.6 10.3968 11.9358 10.061 12.35 10.061C12.7642 10.061 13.1 10.3968 13.1 10.811Z" fill="#292A2E"/>
</svg>
