<svg width="17" height="17" viewBox="0 0 17 17" fill="none" xmlns="http://www.w3.org/2000/svg">
<path d="M8.90755 11.8163L10.2017 13.1105C9.92526 13.1869 9.64081 13.244 9.34988 13.2802V14.8267H11.9179L12.5999 15.5086V16.3267H4.59988V14.8267H7.84988V13.2802C4.89015 12.9112 2.59988 10.3864 2.59988 7.32666H4.09988C4.09988 9.81194 6.1146 11.8267 8.59988 11.8267C8.70329 11.8267 8.80588 11.8232 8.90755 11.8163Z" fill="#292A2E"/>
<path d="M13.0999 7.32666C13.0999 8.00518 12.9497 8.64863 12.6808 9.22558L13.7916 10.3364C14.3056 9.45165 14.5999 8.42353 14.5999 7.32666H13.0999Z" fill="#292A2E"/>
<path d="M10.0999 6.64468L11.5107 8.05552C11.569 7.82219 11.5999 7.57803 11.5999 7.32666V3.32666C11.5999 1.66981 10.2567 0.32666 8.59988 0.32666C7.29678 0.32666 6.18772 1.1575 5.77354 2.31834L7.09988 3.64468V3.32666C7.09988 2.49823 7.77146 1.82666 8.59988 1.82666C9.42831 1.82666 10.0999 2.49823 10.0999 3.32666V6.64468Z" fill="#292A2E"/>
<path d="M6.86735 9.77611L6.15044 9.05919C6.34712 9.33675 6.58979 9.57943 6.86735 9.77611Z" fill="#292A2E"/>
<path d="M0.694611 1.48205L15.4446 16.232L16.5053 15.1714L1.75527 0.421387L0.694611 1.48205Z" fill="#292A2E"/>
</svg>
