<svg width="17" height="17" viewBox="0 0 17 17" fill="none" xmlns="http://www.w3.org/2000/svg">
<path fill-rule="evenodd" clip-rule="evenodd" d="M15.6 3.97607C15.6 2.8715 14.7046 1.97607 13.6 1.97607H6.60001C5.49544 1.97607 4.60001 2.87151 4.60001 3.97607V10.9761C4.60001 12.0806 5.49544 12.9761 6.60001 12.9761H13.6C14.7046 12.9761 15.6 12.0806 15.6 10.9761V3.97607ZM13.6 3.47607C13.8761 3.47607 14.1 3.69993 14.1 3.97607V10.9761C14.1 11.2522 13.8761 11.4761 13.6 11.4761H6.60001C6.32386 11.4761 6.10001 11.2522 6.10001 10.9761V3.97607C6.10001 3.69993 6.32386 3.47607 6.60001 3.47607H13.6Z" fill="#292A2E"/>
<path d="M7.60001 5.47607H9.10001V6.97607H7.60001V5.47607Z" fill="#292A2E"/>
<path d="M10.6 5.47607H12.1V6.97607H10.6V5.47607Z" fill="#292A2E"/>
<path d="M10.6 8.47607H12.1V9.97607H10.6V8.47607Z" fill="#292A2E"/>
<path fill-rule="evenodd" clip-rule="evenodd" d="M3.60001 6.47607H5.06429V4.97607H3.60001C2.49544 4.97607 1.60001 5.87151 1.60001 6.97607V13.9761C1.60001 15.0806 2.49544 15.9761 3.60001 15.9761H10.6C11.7046 15.9761 12.6 15.0806 12.6 13.9761V12.5118H11.1V13.9761C11.1 14.2522 10.8761 14.4761 10.6 14.4761H3.60001C3.32386 14.4761 3.10001 14.2522 3.10001 13.9761V6.97607C3.10001 6.69993 3.32386 6.47607 3.60001 6.47607Z" fill="#292A2E"/>
</svg>
