<svg width="17" height="17" viewBox="0 0 17 17" fill="none" xmlns="http://www.w3.org/2000/svg">
<path d="M9.85025 4.89771C9.85025 4.20744 9.29048 3.64786 8.60025 3.64771C7.90989 3.64771 7.35025 4.20735 7.35025 4.89771C7.35025 5.39005 7.63441 5.81761 8.05142 6.02173L8.17935 6.07544C8.31014 6.12216 8.45176 6.14771 8.60025 6.14771C8.79827 6.14766 8.98357 6.1022 9.1481 6.02173L9.29849 5.93481C9.63225 5.70954 9.85025 5.32845 9.85025 4.89771ZM9.08658 7.60376C8.92845 7.63206 8.76599 7.64769 8.60025 7.64771C8.43427 7.64771 8.27129 7.63212 8.11295 7.60376L6.77213 10.3479C7.34671 10.5405 7.96102 10.6477 8.60025 10.6477C9.23903 10.6477 9.85219 10.5393 10.4264 10.3469L9.08658 7.60376ZM11.3503 4.89771C11.3503 5.71213 10.9954 6.44256 10.4342 6.94556L11.7751 9.6897C12.6522 9.10742 13.3621 8.29275 13.8122 7.33032L15.1706 7.96509C14.5757 9.23733 13.6212 10.3082 12.4381 11.0481L14.5241 15.3186L13.1764 15.9768L11.0905 11.7073C10.3139 11.9914 9.47547 12.1477 8.60025 12.1477C7.7248 12.1477 6.88581 11.9915 6.10904 11.7073L4.02408 15.9768L2.67642 15.3186L4.76138 11.0481C3.57848 10.3082 2.6238 9.23722 2.02896 7.96509L3.38834 7.33032C3.83842 8.29272 4.54734 9.10843 5.42447 9.69067L6.76431 6.94556C6.20356 6.44258 5.85025 5.71176 5.85025 4.89771C5.85025 3.63902 6.69612 2.57972 7.85025 2.25317V0.647705H9.35025V2.25415C10.504 2.58096 11.3503 3.6393 11.3503 4.89771Z" fill="#292A2E"/>
</svg>
