<svg width="17" height="17" viewBox="0 0 17 17" fill="none" xmlns="http://www.w3.org/2000/svg">
<path fill-rule="evenodd" clip-rule="evenodd" d="M6.30042 1.46316C7.29629 -0.352827 9.90455 -0.354215 10.9023 1.46071L16.2512 11.19C17.213 12.9394 15.9473 15.0796 13.951 15.0796H3.26663C1.27149 15.0796 0.00567439 12.9418 0.965005 11.1925L6.30042 1.46316ZM9.58789 2.18336C9.16027 1.40553 8.04244 1.40613 7.61564 2.18441L2.28022 11.9137C1.86908 12.6634 2.41157 13.5796 3.26663 13.5796H13.951C14.8065 13.5796 15.349 12.6624 14.9368 11.9126L9.58789 2.18336Z" fill="#292A2E"/>
<path fill-rule="evenodd" clip-rule="evenodd" d="M7.84998 9.07964V4.07964H9.34998V9.07964H7.84998Z" fill="#292A2E"/>
<path d="M9.59998 11.3296C9.59998 11.8819 9.15227 12.3296 8.59998 12.3296C8.0477 12.3296 7.59998 11.8819 7.59998 11.3296C7.59998 10.7774 8.0477 10.3296 8.59998 10.3296C9.15227 10.3296 9.59998 10.7774 9.59998 11.3296Z" fill="#292A2E"/>
</svg>
