<svg width="17" height="17" viewBox="0 0 17 17" fill="none" xmlns="http://www.w3.org/2000/svg">
<path d="M7.60001 2.65161C7.60001 3.06582 7.26422 3.40161 6.85001 3.40161C6.43579 3.40161 6.10001 3.06582 6.10001 2.65161C6.10001 2.2374 6.43579 1.90161 6.85001 1.90161C7.26422 1.90161 7.60001 2.2374 7.60001 2.65161Z" fill="#292A2E"/>
<path d="M4.10001 2.65161C4.10001 3.06582 3.76422 3.40161 3.35001 3.40161C2.93579 3.40161 2.60001 3.06582 2.60001 2.65161C2.60001 2.2374 2.93579 1.90161 3.35001 1.90161C3.76422 1.90161 4.10001 2.2374 4.10001 2.65161Z" fill="#292A2E"/>
<path d="M11.1 2.65161C11.1 3.06582 10.7642 3.40161 10.35 3.40161C9.93579 3.40161 9.60001 3.06582 9.60001 2.65161C9.60001 2.2374 9.93579 1.90161 10.35 1.90161C10.7642 1.90161 11.1 2.2374 11.1 2.65161Z" fill="#292A2E"/>
<path d="M14.6 2.65161C14.6 3.06582 14.2642 3.40161 13.85 3.40161C13.4358 3.40161 13.1 3.06582 13.1 2.65161C13.1 2.2374 13.4358 1.90161 13.85 1.90161C14.2642 1.90161 14.6 2.2374 14.6 2.65161Z" fill="#292A2E"/>
<path d="M7.60001 15.1516C7.60001 15.5658 7.26422 15.9016 6.85001 15.9016C6.43579 15.9016 6.10001 15.5658 6.10001 15.1516C6.10001 14.7374 6.43579 14.4016 6.85001 14.4016C7.26422 14.4016 7.60001 14.7374 7.60001 15.1516Z" fill="#292A2E"/>
<path d="M4.10001 15.1516C4.10001 15.5658 3.76422 15.9016 3.35001 15.9016C2.93579 15.9016 2.60001 15.5658 2.60001 15.1516C2.60001 14.7374 2.93579 14.4016 3.35001 14.4016C3.76422 14.4016 4.10001 14.7374 4.10001 15.1516Z" fill="#292A2E"/>
<path d="M11.1 15.1516C11.1 15.5658 10.7642 15.9016 10.35 15.9016C9.93579 15.9016 9.60001 15.5658 9.60001 15.1516C9.60001 14.7374 9.93579 14.4016 10.35 14.4016C10.7642 14.4016 11.1 14.7374 11.1 15.1516Z" fill="#292A2E"/>
<path d="M14.6 15.1516C14.6 15.5658 14.2642 15.9016 13.85 15.9016C13.4358 15.9016 13.1 15.5658 13.1 15.1516C13.1 14.7374 13.4358 14.4016 13.85 14.4016C14.2642 14.4016 14.6 14.7374 14.6 15.1516Z" fill="#292A2E"/>
<path fill-rule="evenodd" clip-rule="evenodd" d="M0.600006 8.15161H16.6V9.65161H0.600006V8.15161Z" fill="#292A2E"/>
</svg>
