<svg width="17" height="17" viewBox="0 0 17 17" fill="none" xmlns="http://www.w3.org/2000/svg">
<path fill-rule="evenodd" clip-rule="evenodd" d="M15.6 3.76709C15.6 2.66252 14.7046 1.76709 13.6 1.76709H9.10001C7.99544 1.76709 7.10001 2.66252 7.10001 3.76709V8.26709C7.10001 9.37166 7.99544 10.2671 9.10001 10.2671H13.6C14.7046 10.2671 15.6 9.37166 15.6 8.26709V3.76709ZM13.6 3.26709C13.8761 3.26709 14.1 3.49095 14.1 3.76709V8.26709C14.1 8.54323 13.8761 8.76709 13.6 8.76709H9.10001C8.82386 8.76709 8.60001 8.54323 8.60001 8.26709V3.76709C8.60001 3.49095 8.82386 3.26709 9.10001 3.26709H13.6Z" fill="#292A2E"/>
<path fill-rule="evenodd" clip-rule="evenodd" d="M3.60001 8.76709H5.60001V7.26709H3.60001C2.49544 7.26709 1.60001 8.16252 1.60001 9.26709V13.7671C1.60001 14.8717 2.49544 15.7671 3.60001 15.7671H8.10001C9.20458 15.7671 10.1 14.8717 10.1 13.7671V11.7671H8.60001V13.7671C8.60001 14.0432 8.37615 14.2671 8.10001 14.2671H3.60001C3.32386 14.2671 3.10001 14.0432 3.10001 13.7671V9.26709C3.10001 8.99095 3.32386 8.76709 3.60001 8.76709Z" fill="#292A2E"/>
<path fill-rule="evenodd" clip-rule="evenodd" d="M5.60001 0.76709V3.76709H4.10001V0.76709H5.60001ZM0.600006 4.26709H3.60001V5.76709H0.600006V4.26709ZM16.6 13.2671H13.6V11.7671H16.6V13.2671ZM11.6 16.7671V13.7671H13.1V16.7671H11.6Z" fill="#292A2E"/>
</svg>
