<svg width="17" height="17" viewBox="0 0 17 17" fill="none" xmlns="http://www.w3.org/2000/svg">
<path fill-rule="evenodd" clip-rule="evenodd" d="M5.70311 1.04321L11.4968 1.04321L15.6 5.14635V10.9401L11.4968 15.0432H5.70311L1.59998 10.9401L1.59998 5.14635L5.70311 1.04321ZM6.32443 2.54321L5.24253 3.62511L8.59998 6.98255L11.9574 3.62511L10.8755 2.54321L6.32443 2.54321ZM13.0181 4.68577L9.66064 8.04321L13.0181 11.4007L14.1 10.3188V5.76767L13.0181 4.68577ZM11.9574 12.4613L8.59998 9.10387L5.24253 12.4613L6.32443 13.5432H10.8755L11.9574 12.4613ZM4.18187 11.4007L7.53932 8.04321L4.18187 4.68577L3.09998 5.76767L3.09998 10.3188L4.18187 11.4007Z" fill="#292A2E"/>
</svg>
