<svg width="17" height="17" viewBox="0 0 17 17" fill="none" xmlns="http://www.w3.org/2000/svg">
<path fill-rule="evenodd" clip-rule="evenodd" d="M3.10001 1.26318C3.10001 0.84897 3.43579 0.513184 3.85001 0.513184H13.35C13.7642 0.513184 14.1 0.84897 14.1 1.26318V9.51318C14.1 10.6178 13.2046 11.5132 12.1 11.5132H10.6V14.5132C10.6 15.6178 9.70458 16.5132 8.60001 16.5132C7.49544 16.5132 6.60001 15.6178 6.60001 14.5132V11.5132H5.10001C3.99544 11.5132 3.10001 10.6178 3.10001 9.51318V1.26318ZM8.10001 11.5132V14.5132C8.10001 14.7893 8.32386 15.0132 8.60001 15.0132C8.87615 15.0132 9.10001 14.7893 9.10001 14.5132V11.5132H8.10001ZM4.60001 2.01318V7.01318H12.6V2.01318H11.1V4.51318H9.60001V2.01318H7.60001V3.51318H6.10001V2.01318H4.60001ZM12.6 8.51318H4.60001V9.51318C4.60001 9.78933 4.82386 10.0132 5.10001 10.0132H12.1C12.3761 10.0132 12.6 9.78933 12.6 9.51318V8.51318Z" fill="#292A2E"/>
</svg>
