<svg width="17" height="17" viewBox="0 0 17 17" fill="none" xmlns="http://www.w3.org/2000/svg">
<path d="M10.3501 2.84912C10.7643 2.84912 11.1001 3.18491 11.1001 3.59912V8.74756L9.86966 9.77295L10.8306 10.9253L12.3306 9.67529L13.0865 9.08838L13.1529 9.04248C13.47 8.85214 13.8856 8.96492 14.063 9.28955L14.0972 9.36182C14.1743 9.55469 14.1554 9.77111 14.0493 9.9458L13.9986 10.0181L11.3931 13.2368C10.8235 13.9404 9.96634 14.3491 9.06107 14.3491H6.60013C4.94327 14.3491 3.60013 13.006 3.60013 11.3491L3.60013 4.09912C3.60013 3.68491 3.93592 3.34912 4.35013 3.34912C4.73829 3.34912 5.0576 3.644 5.09622 4.02197L5.10013 4.09912V7.34912H6.60013L6.60013 2.59912C6.60013 2.18491 6.93592 1.84912 7.35013 1.84912C7.76434 1.84912 8.10013 2.18491 8.10013 2.59912L8.10013 7.34912H9.60013L9.60013 3.59912C9.60013 3.18491 9.93591 2.84912 10.3501 2.84912ZM10.3501 1.34912C9.99271 1.34912 9.65611 1.43519 9.35599 1.5835C8.98469 0.851643 8.22694 0.349121 7.35013 0.349121C6.31162 0.349121 5.44134 1.05376 5.18216 2.01025C4.92457 1.90756 4.64434 1.84912 4.35013 1.84912C3.10749 1.84912 2.10013 2.85648 2.10013 4.09912L2.10013 11.3491C2.10013 13.8344 4.11485 15.8491 6.60013 15.8491H9.06107C10.419 15.8491 11.7047 15.2356 12.5591 14.1802L15.1646 10.9624L15.2525 10.8452C15.6696 10.2519 15.7615 9.48464 15.4898 8.80518L15.437 8.68311C14.9278 7.60234 13.6471 7.16375 12.6001 7.64014V3.59912C12.6001 2.35648 11.5928 1.34912 10.3501 1.34912Z" fill="#292A2E"/>
</svg>
