<svg width="17" height="17" viewBox="0 0 17 17" fill="none" xmlns="http://www.w3.org/2000/svg">
<path fill-rule="evenodd" clip-rule="evenodd" d="M10.3077 4.45888L4.30245 6.94632L4.39342 7.16595C4.39501 7.16964 4.39659 7.17335 4.39813 7.17708L5.35484 9.48678C5.35638 9.4905 5.35789 9.49424 5.35937 9.49797L5.4505 9.71796L6.86748 9.13103C6.99752 8.15217 7.83554 7.39695 8.84996 7.39695C9.30657 7.39695 9.72727 7.55026 10.0635 7.8072L11.4557 7.23052L10.3077 4.45888ZM12.0776 8.59653L10.8299 9.11332C10.8431 9.20606 10.85 9.30077 10.85 9.39695C10.85 9.81186 10.7233 10.1972 10.5074 10.5164L12.7494 14.3967L11.4506 15.1472L9.25945 11.3548C9.12712 11.3824 8.99012 11.3969 8.84996 11.3969C8.70979 11.3969 8.57279 11.3824 8.44046 11.3548L6.24935 15.1472L4.95056 14.3967L7.11386 10.6526L5.90904 11.1516C5.32749 11.3925 4.67535 11.2048 4.30371 10.734L2.63924 11.4234C2.25656 11.5819 1.81783 11.4002 1.65932 11.0175L0.702611 8.70781C0.544099 8.32513 0.725825 7.8864 1.10851 7.72789L2.77308 7.0384C2.70313 6.44281 3.03152 5.84917 3.61294 5.60834L9.78146 3.05325C9.71141 2.45759 10.0398 1.86384 10.6213 1.62299L13.0465 0.618444C13.4292 0.459931 13.8679 0.641657 14.0264 1.02434L16.5138 7.02956C16.6724 7.41224 16.4906 7.85097 16.1079 8.00948L13.6828 9.01402C13.1013 9.25488 12.4492 9.06726 12.0776 8.59653ZM3.29923 8.44405L2.37544 8.82669L2.75813 9.75057L3.68192 9.36793L3.29923 8.44405ZM13.2242 7.58037L11.3108 2.96097L12.9276 2.29128L14.841 6.91067L13.2242 7.58037ZM8.84996 8.89695C8.57381 8.89695 8.34995 9.12081 8.34996 9.39695C8.34995 9.42979 8.35302 9.46122 8.35868 9.49118C8.38249 9.61723 8.4549 9.72859 8.55821 9.80312C8.64021 9.86228 8.73993 9.89695 8.84996 9.89695C8.95999 9.89695 9.0597 9.86228 9.1417 9.80312C9.26934 9.71104 9.34996 9.56343 9.34996 9.39695C9.34996 9.29158 9.31819 9.1959 9.26379 9.11612C9.17251 8.98226 9.02109 8.89695 8.84996 8.89695Z" fill="#292A2E"/>
</svg>
