<svg width="17" height="17" viewBox="0 0 17 17" fill="none" xmlns="http://www.w3.org/2000/svg">
<path d="M16.1303 15.0054L15.0697 16.0659L1.06973 2.06592L2.13028 1.00537L16.1303 15.0054Z" fill="#292A2E"/>
<path d="M3.10001 6.21729V13.5356C3.10001 13.8118 3.32386 14.0356 3.60001 14.0356H4.24356L7.23477 10.3521L8.3002 11.4175L6.1752 14.0356H10.9184L12.4184 15.5356H3.60001C2.49544 15.5356 1.60001 14.6402 1.60001 13.5356V4.71729L3.10001 6.21729Z" fill="#292A2E"/>
<path d="M13.6 1.53564C14.7046 1.53564 15.6 2.43107 15.6 3.53564V12.354L14.1 10.854V10.8462L11.1566 7.90283L11.1527 7.90674L10.0873 6.84131L10.518 6.31299L10.5707 6.25439C10.7011 6.12452 10.8754 6.0463 11.0609 6.03662C11.273 6.02568 11.4801 6.10522 11.6303 6.25537L14.1 8.7251V3.53564C14.1 3.2595 13.8761 3.03564 13.6 3.03564H6.28165L4.78165 1.53564H13.6Z" fill="#292A2E"/>
</svg>
