<svg width="17" height="17" viewBox="0 0 17 17" fill="none" xmlns="http://www.w3.org/2000/svg">
<path d="M1.06973 2.42345L15.0697 16.4235L16.1304 15.3628L2.13039 1.36279L1.06973 2.42345Z" fill="#292A2E"/>
<path d="M9.41827 12.8931L10.8965 14.3712C10.7997 14.3856 10.7007 14.3931 10.6 14.3931H2.60001C1.49544 14.3931 0.600006 13.4976 0.600006 12.3931V5.39307C0.600006 5.01555 0.704604 4.66246 0.886401 4.3612L2.10001 5.5748V12.3931C2.10001 12.6692 2.32386 12.8931 2.60001 12.8931H9.41827Z" fill="#292A2E"/>
<path d="M10.6 3.39307H6.28223L7.78223 4.89307H10.6C10.8761 4.89307 11.1 5.11692 11.1 5.39307V8.21084L12.6 9.71084V7.3317L15.1 5.92545V12.2108L16.2729 13.3838C16.4749 13.1632 16.6 12.8688 16.6 12.5406V5.49799C16.6 4.54196 15.5704 3.93982 14.7372 4.40852L12.6 5.61068V5.39307C12.6 4.2885 11.7046 3.39307 10.6 3.39307Z" fill="#292A2E"/>
</svg>
