<svg width="17" height="17" viewBox="0 0 17 17" fill="none" xmlns="http://www.w3.org/2000/svg">
<path fill-rule="evenodd" clip-rule="evenodd" d="M3.60001 3.18408C3.32386 3.18408 3.10001 3.40794 3.10001 3.68408V4.18402H13.6C14.7046 4.18402 15.6 5.07945 15.6 6.18402V13.684C15.6 14.7886 14.7046 15.684 13.6 15.684H3.60001C2.49544 15.684 1.60001 14.7886 1.60001 13.684V3.68408C1.60001 2.57951 2.49544 1.68408 3.60001 1.68408H14.1V3.18408H3.60001ZM3.10001 5.68402V13.684C3.10001 13.9602 3.32386 14.184 3.60001 14.184H13.6C13.8761 14.184 14.1 13.9602 14.1 13.684V12.1841H12.6C11.4954 12.1841 10.6 11.2887 10.6 10.1841V9.68408C10.6 8.57951 11.4954 7.68408 12.6 7.68408H14.1V6.18402C14.1 5.90788 13.8761 5.68402 13.6 5.68402H3.10001ZM14.1 9.18408H12.6C12.3239 9.18408 12.1 9.40794 12.1 9.68408V10.1841C12.1 10.4602 12.3239 10.6841 12.6 10.6841H14.1V9.18408Z" fill="#292A2E"/>
</svg>
