<svg width="17" height="17" viewBox="0 0 17 17" fill="none" xmlns="http://www.w3.org/2000/svg">
<path fill-rule="evenodd" clip-rule="evenodd" d="M0.600006 15.051L16.6 15.051V16.551L0.600006 16.551L0.600006 15.051Z" fill="#292A2E"/>
<path fill-rule="evenodd" clip-rule="evenodd" d="M4.97501 13.551C4.21561 13.551 3.60001 12.9354 3.60001 12.176L3.60001 2.92603C3.60001 2.16663 4.21561 1.55103 4.97501 1.55103L6.47501 1.55103C7.2344 1.55103 7.85001 2.16663 7.85001 2.92603L7.85001 12.176C7.85001 12.9354 7.2344 13.551 6.47501 13.551H4.97501ZM5.10001 12.051H6.35001L6.35001 3.05103L5.10001 3.05103L5.10001 12.051Z" fill="#292A2E"/>
<path fill-rule="evenodd" clip-rule="evenodd" d="M10.725 13.551C9.96561 13.551 9.35001 12.9354 9.35001 12.176V7.92603C9.35001 7.16663 9.96561 6.55103 10.725 6.55103H12.225C12.9844 6.55103 13.6 7.16663 13.6 7.92603V12.176C13.6 12.9354 12.9844 13.551 12.225 13.551H10.725ZM10.85 12.051H12.1V8.05103H10.85V12.051Z" fill="#292A2E"/>
</svg>
