<svg width="17" height="17" viewBox="0 0 17 17" fill="none" xmlns="http://www.w3.org/2000/svg">
<path d="M2.10001 9.37842C2.10001 6.77145 3.63475 4.52293 5.85001 3.4871V1.86361C2.78643 2.98502 0.600006 5.92639 0.600006 9.37842C0.600006 11.6576 1.55413 13.7153 3.08268 15.1715L4.11733 14.0854C2.87359 12.9005 2.10001 11.2304 2.10001 9.37842Z" fill="#292A2E"/>
<path fill-rule="evenodd" clip-rule="evenodd" d="M9.35001 1.41311V7.49287C10.3643 7.81143 11.1 8.75901 11.1 9.87842C11.1 11.2591 9.98072 12.3784 8.60001 12.3784C7.21929 12.3784 6.10001 11.2591 6.10001 9.87842C6.10001 8.75901 6.83573 7.81143 7.85001 7.49287V1.41311C8.09692 1.39015 8.34709 1.37842 8.60001 1.37842C8.85292 1.37842 9.10309 1.39015 9.35001 1.41311ZM7.60001 9.87842C7.60001 9.32613 8.04772 8.87842 8.60001 8.87842C9.15229 8.87842 9.60001 9.32613 9.60001 9.87842C9.60001 10.4307 9.15229 10.8784 8.60001 10.8784C8.04772 10.8784 7.60001 10.4307 7.60001 9.87842Z" fill="#292A2E"/>
<path d="M11.35 1.86361V3.4871C13.5653 4.52293 15.1 6.77145 15.1 9.37842C15.1 11.2304 14.3264 12.9005 13.0827 14.0854L14.1173 15.1715C15.6459 13.7153 16.6 11.6576 16.6 9.37842C16.6 5.92639 14.4136 2.98502 11.35 1.86361Z" fill="#292A2E"/>
</svg>
