<svg width="17" height="17" viewBox="0 0 17 17" fill="none" xmlns="http://www.w3.org/2000/svg">
<path fill-rule="evenodd" clip-rule="evenodd" d="M9.93581 2.48984C10.7169 1.70879 11.9832 1.70879 12.7642 2.48984L13.9965 3.72207C14.7775 4.50312 14.7775 5.76945 13.9965 6.5505L5.89797 14.649C5.61877 14.9282 5.26317 15.1185 4.87599 15.1959L1.49711 15.8717C1.25121 15.9209 0.997006 15.8439 0.819688 15.6666C0.642371 15.4893 0.565404 15.2351 0.614583 14.9892L1.29036 11.6103C1.3678 11.2231 1.55811 10.8675 1.83731 10.5883L9.93581 2.48984ZM11.7036 3.5505C11.5083 3.35524 11.1917 3.35524 10.9965 3.5505L10.0357 4.51129L11.975 6.45063L12.9358 5.48984C13.1311 5.29458 13.1311 4.97799 12.9358 4.78273L11.7036 3.5505ZM10.9144 7.51129L8.97502 5.57195L2.89797 11.649C2.82817 11.7188 2.78059 11.8077 2.76123 11.9045L2.30608 14.1802L4.58181 13.7251C4.67861 13.7057 4.76751 13.6581 4.83731 13.5883L10.9144 7.51129ZM16.6 15.886H8.60005V14.386H16.6V15.886Z" fill="#292A2E"/>
</svg>
