<svg width="17" height="17" viewBox="0 0 17 17" fill="none" xmlns="http://www.w3.org/2000/svg">
<path fill-rule="evenodd" clip-rule="evenodd" d="M11.1 1.76611C8.89083 1.76611 7.09997 3.55697 7.09997 5.76611C7.09997 6.38259 7.23891 6.96452 7.48648 7.48413C7.62308 7.77084 7.5643 8.1125 7.33973 8.33706L2.38923 13.2876C2.06081 13.616 2.06081 14.1485 2.38923 14.4769C2.71766 14.8053 3.25015 14.8053 3.57857 14.4769L8.52909 9.52638C8.75365 9.30182 9.09531 9.24303 9.38201 9.37963C9.90161 9.62718 10.4835 9.76611 11.1 9.76611C13.3091 9.76611 15.1 7.97525 15.1 5.76611C15.1 5.54849 15.0827 5.33517 15.0494 5.12738L12.6303 7.54645C12.3374 7.83934 11.8625 7.83934 11.5696 7.54645L9.31964 5.29645C9.02674 5.00355 9.02674 4.52868 9.31964 4.23579L11.7387 1.81672C11.5309 1.78343 11.3176 1.76611 11.1 1.76611ZM5.59997 5.76611C5.59997 2.72855 8.0624 0.266113 11.1 0.266113C11.9444 0.266113 12.7463 0.456914 13.4631 0.798457C13.6831 0.903234 13.8384 1.10829 13.8797 1.34836C13.921 1.58844 13.8431 1.83361 13.6709 2.00587L10.9106 4.76612L12.1 5.95546L14.8602 3.19521C15.0325 3.02295 15.2776 2.94509 15.5177 2.9864C15.7578 3.0277 15.9628 3.18303 16.0676 3.40295C16.4092 4.1198 16.6 4.92172 16.6 5.76611C16.6 8.80368 14.1375 11.2661 11.1 11.2661C10.4463 11.2661 9.8181 11.1518 9.23511 10.9417L4.63923 15.5376C3.72502 16.4518 2.24279 16.4518 1.32857 15.5376C0.414359 14.6233 0.414362 13.1411 1.32857 12.2269L5.92442 7.63105C5.71431 7.04803 5.59997 6.4198 5.59997 5.76611Z" fill="#292A2E"/>
</svg>
