<svg width="17" height="17" viewBox="0 0 17 17" fill="none" xmlns="http://www.w3.org/2000/svg">
<path fill-rule="evenodd" clip-rule="evenodd" d="M9.34976 0.468262L9.34976 8.46826H7.84976L7.84976 0.468262H9.34976ZM5.7419 3.68107C4.15711 4.65313 3.09976 6.40741 3.09976 8.4112C3.09976 11.4755 5.56955 13.9683 8.59976 13.9683C11.63 13.9683 14.0998 11.4755 14.0998 8.4112C14.0998 6.40741 13.0424 4.65313 11.4576 3.68107L12.2419 2.40243C14.2551 3.63726 15.5998 5.8669 15.5998 8.4112C15.5998 12.2891 12.4731 15.4683 8.59976 15.4683C4.72642 15.4683 1.59976 12.2891 1.59976 8.4112C1.59976 5.8669 2.94445 3.63726 4.95762 2.40243L5.7419 3.68107Z" fill="#292A2E"/>
</svg>
