<svg width="17" height="17" viewBox="0 0 17 17" fill="none" xmlns="http://www.w3.org/2000/svg">
<path fill-rule="evenodd" clip-rule="evenodd" d="M15.1 2.71106V12.7111H9.35002L9.35011 5.08604C9.35011 5.08603 9.35011 5.08604 9.35011 5.08604C9.35013 3.77438 10.4134 2.71107 11.7251 2.71107L15.1 2.71106ZM8.60007 2.79439C9.30535 1.83426 10.4425 1.21107 11.7251 1.21107L15.2262 1.21106C15.9875 1.21106 16.6 1.82856 16.6 2.58606V12.8361C16.6 13.5955 15.9844 14.2111 15.225 14.2111H9.34984L9.34952 15.7112L7.84952 15.7109L7.84984 14.2111H1.97501C1.21562 14.2111 0.600008 13.5955 0.600008 12.8361V2.58606C0.600008 1.82721 1.21473 1.21106 1.97467 1.21106L5.47491 1.21107C6.75754 1.21107 7.89473 1.83425 8.60007 2.79439ZM7.85002 12.7111L7.85011 5.08602C7.85009 3.77442 6.78663 2.71107 5.47491 2.71107L2.10001 2.71106V12.7111H7.85002ZM13.8495 4.71107H11.0995V6.21107H13.8495V4.71107ZM13.8495 7.21107H11.0995V8.71107H13.8495V7.21107Z" fill="#292A2E"/>
</svg>
