<svg width="17" height="17" viewBox="0 0 17 17" fill="none" xmlns="http://www.w3.org/2000/svg">
<path fill-rule="evenodd" clip-rule="evenodd" d="M0.600006 1.29712H16.6V2.79712H0.600006V1.29712Z" fill="#292A2E"/>
<path d="M7.60001 8.29712C7.60001 8.71133 7.26422 9.04712 6.85001 9.04712C6.43579 9.04712 6.10001 8.71133 6.10001 8.29712C6.10001 7.88291 6.43579 7.54712 6.85001 7.54712C7.26422 7.54712 7.60001 7.88291 7.60001 8.29712Z" fill="#292A2E"/>
<path d="M4.10001 8.29712C4.10001 8.71133 3.76422 9.04712 3.35001 9.04712C2.93579 9.04712 2.60001 8.71133 2.60001 8.29712C2.60001 7.88291 2.93579 7.54712 3.35001 7.54712C3.76422 7.54712 4.10001 7.88291 4.10001 8.29712Z" fill="#292A2E"/>
<path d="M11.1 8.29712C11.1 8.71133 10.7642 9.04712 10.35 9.04712C9.93579 9.04712 9.60001 8.71133 9.60001 8.29712C9.60001 7.88291 9.93579 7.54712 10.35 7.54712C10.7642 7.54712 11.1 7.88291 11.1 8.29712Z" fill="#292A2E"/>
<path d="M14.6 8.29712C14.6 8.71133 14.2642 9.04712 13.85 9.04712C13.4358 9.04712 13.1 8.71133 13.1 8.29712C13.1 7.88291 13.4358 7.54712 13.85 7.54712C14.2642 7.54712 14.6 7.88291 14.6 8.29712Z" fill="#292A2E"/>
<path d="M7.60001 14.5471C7.60001 14.9613 7.26422 15.2971 6.85001 15.2971C6.43579 15.2971 6.10001 14.9613 6.10001 14.5471C6.10001 14.1329 6.43579 13.7971 6.85001 13.7971C7.26422 13.7971 7.60001 14.1329 7.60001 14.5471Z" fill="#292A2E"/>
<path d="M4.10001 14.5471C4.10001 14.9613 3.76422 15.2971 3.35001 15.2971C2.93579 15.2971 2.60001 14.9613 2.60001 14.5471C2.60001 14.1329 2.93579 13.7971 3.35001 13.7971C3.76422 13.7971 4.10001 14.1329 4.10001 14.5471Z" fill="#292A2E"/>
<path d="M11.1 14.5471C11.1 14.9613 10.7642 15.2971 10.35 15.2971C9.93579 15.2971 9.60001 14.9613 9.60001 14.5471C9.60001 14.1329 9.93579 13.7971 10.35 13.7971C10.7642 13.7971 11.1 14.1329 11.1 14.5471Z" fill="#292A2E"/>
<path d="M14.6 14.5471C14.6 14.9613 14.2642 15.2971 13.85 15.2971C13.4358 15.2971 13.1 14.9613 13.1 14.5471C13.1 14.1329 13.4358 13.7971 13.85 13.7971C14.2642 13.7971 14.6 14.1329 14.6 14.5471Z" fill="#292A2E"/>
</svg>
