<svg width="17" height="17" viewBox="0 0 17 17" fill="none" xmlns="http://www.w3.org/2000/svg">
<path fill-rule="evenodd" clip-rule="evenodd" d="M4.60001 1.72217V0.722168H6.10001V1.72217H7.85001V0.722168H9.35001V1.72217H11.1V0.722168H12.6V1.72217H13.6C14.7046 1.72217 15.6 2.6176 15.6 3.72217V11.4722C15.6 11.9912 15.3938 12.489 15.0268 12.8561L11.7339 16.1489C11.3669 16.516 10.8691 16.7222 10.35 16.7222H3.60001C2.49544 16.7222 1.60001 15.8267 1.60001 14.7222V3.72217C1.60001 2.6176 2.49544 1.72217 3.60001 1.72217H4.60001ZM4.60001 3.22217H3.60001C3.32386 3.22217 3.10001 3.44603 3.10001 3.72217V14.7222C3.10001 14.9983 3.32386 15.2222 3.60001 15.2222H9.60001V11.4722C9.60001 11.058 9.93579 10.7222 10.35 10.7222H14.1V3.72217C14.1 3.44603 13.8761 3.22217 13.6 3.22217H12.6V5.22217H11.1V3.22217H9.35001V5.22217H7.85001V3.22217H6.10001V5.22217H4.60001V3.22217ZM13.5393 12.2222H11.1V14.6615L13.5393 12.2222ZM12.6 8.72217H4.60001V7.22217H12.6V8.72217ZM7.60001 10.7222V12.2222H4.60001V10.7222H7.60001Z" fill="#292A2E"/>
</svg>
