<svg width="17" height="17" viewBox="0 0 17 17" fill="none" xmlns="http://www.w3.org/2000/svg">
<path fill-rule="evenodd" clip-rule="evenodd" d="M1.10001 5.29126C1.10001 3.15116 2.8349 1.41626 4.97501 1.41626H12.225C14.3651 1.41626 16.1 3.15116 16.1 5.29126V6.04126H14.6V5.29126C14.6 3.97958 13.5367 2.91626 12.225 2.91626H4.97501C3.66333 2.91626 2.60001 3.97958 2.60001 5.29126C2.60001 6.60294 3.66333 7.66626 4.97501 7.66626H8.60001V9.16626H4.97501C3.66333 9.16626 2.60001 10.2296 2.60001 11.5413C2.60001 12.8529 3.66333 13.9163 4.97501 13.9163H8.60001V15.4163H4.97501C2.8349 15.4163 1.10001 13.6814 1.10001 11.5413C1.10001 10.2586 1.72318 9.12154 2.68328 8.41626C1.72318 7.71098 1.10001 6.5739 1.10001 5.29126ZM6.10001 6.04126H4.60001V4.54126H6.10001V6.04126ZM12.6 6.04126H8.60001V4.54126H12.6V6.04126ZM6.10001 12.2913H4.60001V10.7913H6.10001V12.2913Z" fill="#292A2E"/>
<path fill-rule="evenodd" clip-rule="evenodd" d="M10.1 8.41626C10.1 8.00205 10.4358 7.66626 10.85 7.66626H15.85C16.2642 7.66626 16.6 8.00205 16.6 8.41626V9.33821C16.6 9.92495 16.3424 10.4821 15.8953 10.8621L14.508 12.0413L15.8953 13.2204C16.3424 13.6004 16.6 14.1576 16.6 14.7443V15.6663C16.6 16.0805 16.2642 16.4163 15.85 16.4163H10.85C10.4358 16.4163 10.1 16.0805 10.1 15.6663V14.7443C10.1 14.1576 10.3577 13.6004 10.8047 13.2204L12.192 12.0413L10.8047 10.8621C10.3577 10.4821 10.1 9.92495 10.1 9.33821V8.41626ZM13.35 11.0569L14.9238 9.71918C15.0356 9.62418 15.1 9.48489 15.1 9.33821V9.16626H11.6V9.33821C11.6 9.48489 11.6644 9.62418 11.7762 9.71918L13.35 11.0569ZM13.35 13.0256L11.7762 14.3633C11.6644 14.4583 11.6 14.5976 11.6 14.7443V14.9163H15.1V14.7443C15.1 14.5976 15.0356 14.4583 14.9238 14.3633L13.35 13.0256Z" fill="#292A2E"/>
</svg>
