<svg width="17" height="17" viewBox="0 0 17 17" fill="none" xmlns="http://www.w3.org/2000/svg">
<path fill-rule="evenodd" clip-rule="evenodd" d="M2.39159 14.5408C2.24501 14.5897 2.10556 14.4502 2.15442 14.3036L3.86525 9.17115L7.52407 12.83L2.39159 14.5408ZM9.11506 12.2996L4.39558 7.58016L4.92774 5.98367L10.7115 11.7675L9.11506 12.2996ZM0.731392 13.8293C0.291651 15.1485 1.54671 16.4036 2.86593 15.9638L11.3778 13.1265C12.3475 12.8033 12.638 11.5726 11.9152 10.8498L8.41064 7.34525L9.36255 6.39334C10.6317 5.12414 10.6318 3.06635 9.36255 1.79715L9.13031 1.56492L8.06965 2.62558L8.30189 2.85781C8.9853 3.54123 8.9853 4.64927 8.30189 5.33268L7.34998 6.28459L5.84539 4.77999C5.12262 4.05722 3.89191 4.34775 3.56868 5.31745L0.731392 13.8293ZM6.09998 1.09525L4.59998 1.09525L4.59998 2.59525L6.09998 2.59525L6.09998 1.09525ZM11.6303 8.12558L12.6125 7.14335C13.296 6.45993 14.404 6.45993 15.0874 7.14334L15.3197 7.37558L16.3803 6.31492L16.1481 6.08268C14.8789 4.81348 12.8211 4.81348 11.5519 6.08269L10.5697 7.06492L11.6303 8.12558ZM15.6 8.59525H14.1V10.0952H15.6V8.59525ZM13.6 1.09525L12.1 1.09525L12.1 2.59525L13.6 2.59525L13.6 1.09525Z" fill="#292A2E"/>
</svg>
