<svg width="17" height="17" viewBox="0 0 17 17" fill="none" xmlns="http://www.w3.org/2000/svg">
<path fill-rule="evenodd" clip-rule="evenodd" d="M1.60001 3.70654C1.60001 2.60197 2.49544 1.70654 3.60001 1.70654H13.6C14.7046 1.70654 15.6 2.60197 15.6 3.70654V13.7065C15.6 14.8111 14.7046 15.7065 13.6 15.7065H3.60001C2.49544 15.7065 1.60001 14.8111 1.60001 13.7065V3.70654ZM3.60001 3.20654C3.32386 3.20654 3.10001 3.4304 3.10001 3.70654V4.83154H4.35001V3.20654H3.60001ZM5.85001 3.20654V7.95654H11.35V3.20654H5.85001ZM12.85 3.20654V4.83154H14.1V3.70654C14.1 3.4304 13.8761 3.20654 13.6 3.20654H12.85ZM14.1 6.33154H12.85V7.95654H14.1V6.33154ZM14.1 9.45654H12.85V11.0815H14.1V9.45654ZM14.1 12.5815H12.85V14.2065H13.6C13.8761 14.2065 14.1 13.9827 14.1 13.7065V12.5815ZM11.35 14.2065V9.45654H5.85001V14.2065H11.35ZM4.35001 14.2065V12.5815H3.10001V13.7065C3.10001 13.9827 3.32386 14.2065 3.60001 14.2065H4.35001ZM3.10001 11.0815H4.35001V9.45654H3.10001V11.0815ZM3.10001 7.95654H4.35001V6.33154H3.10001V7.95654Z" fill="#292A2E"/>
</svg>
