<svg width="17" height="17" viewBox="0 0 17 17" fill="none" xmlns="http://www.w3.org/2000/svg">
<path fill-rule="evenodd" clip-rule="evenodd" d="M2.10001 5.56885C2.10001 3.77392 3.55508 2.31885 5.35001 2.31885H11.85C13.6449 2.31885 15.1 3.77392 15.1 5.56885V12.0688C15.1 13.8638 13.6449 15.3188 11.85 15.3188H5.35001C3.55508 15.3188 2.10001 13.8638 2.10001 12.0688V5.56885ZM5.35001 3.81885C4.38351 3.81885 3.60001 4.60235 3.60001 5.56885V12.0688C3.60001 13.0353 4.38351 13.8188 5.35001 13.8188H11.85C12.8165 13.8188 13.6 13.0353 13.6 12.0688V5.56885C13.6 4.60235 12.8165 3.81885 11.85 3.81885H5.35001Z" fill="#292A2E"/>
</svg>
