<svg width="17" height="17" viewBox="0 0 17 17" fill="none" xmlns="http://www.w3.org/2000/svg">
<path fill-rule="evenodd" clip-rule="evenodd" d="M1.10001 4.89575C1.10001 2.75565 2.8349 1.02075 4.97501 1.02075H12.225C14.3651 1.02075 16.1 2.75565 16.1 4.89575C16.1 6.17839 15.4768 7.31548 14.5167 8.02075C15.4768 8.72603 16.1 9.86311 16.1 11.1458C16.1 13.2859 14.3651 15.0208 12.225 15.0208H4.97501C2.8349 15.0208 1.10001 13.2859 1.10001 11.1458C1.10001 9.86311 1.72318 8.72603 2.68328 8.02075C1.72318 7.31548 1.10001 6.17839 1.10001 4.89575ZM4.97501 8.77075C3.66333 8.77075 2.60001 9.83408 2.60001 11.1458C2.60001 12.4574 3.66333 13.5208 4.97501 13.5208H12.225C13.5367 13.5208 14.6 12.4574 14.6 11.1458C14.6 9.83408 13.5367 8.77075 12.225 8.77075H4.97501ZM12.225 7.27075C13.5367 7.27075 14.6 6.20743 14.6 4.89575C14.6 3.58408 13.5367 2.52075 12.225 2.52075H4.97501C3.66333 2.52075 2.60001 3.58408 2.60001 4.89575C2.60001 6.20743 3.66333 7.27075 4.97501 7.27075H12.225ZM6.10001 5.64575H4.60001V4.14575H6.10001V5.64575ZM12.6 5.64575H8.60001V4.14575H12.6V5.64575ZM6.10001 11.8958H4.60001V10.3958H6.10001V11.8958ZM12.6 11.8958H8.60001V10.3958H12.6V11.8958Z" fill="#292A2E"/>
</svg>
