<svg width="17" height="17" viewBox="0 0 17 17" fill="none" xmlns="http://www.w3.org/2000/svg">
<path fill-rule="evenodd" clip-rule="evenodd" d="M10.9447 2.44742C11.997 1.39513 13.7031 1.39513 14.7553 2.44742C15.8076 3.4997 15.8076 5.20579 14.7553 6.25808L12.2857 8.72775L13.6303 10.0724L12.5697 11.1331L11.225 9.78841L6.05201 14.9614C5.64136 15.372 5.08441 15.6027 4.50367 15.6027H2.35001C1.93579 15.6027 1.60001 15.267 1.60001 14.8527V12.6991C1.60001 12.1183 1.83071 11.5614 2.24135 11.1507L7.41435 5.97775L6.06968 4.63308L7.13034 3.57242L8.47501 4.91709L10.9447 2.44742ZM8.47501 7.03841L3.30201 12.2114C3.17267 12.3407 3.10001 12.5162 3.10001 12.6991V14.1027H4.50367C4.68658 14.1027 4.86201 14.0301 4.99135 13.9007L10.1643 8.72775L8.47501 7.03841ZM11.225 7.66709L9.53567 5.97775L12.0053 3.50808C12.4718 3.04158 13.2282 3.04158 13.6947 3.50808C14.1612 3.97458 14.1612 4.73092 13.6947 5.19742L11.225 7.66709Z" fill="#292A2E"/>
</svg>
