<svg width="17" height="17" viewBox="0 0 17 17" fill="none" xmlns="http://www.w3.org/2000/svg">
<path fill-rule="evenodd" clip-rule="evenodd" d="M9.60001 2.75928H1.60001V1.25928H9.60001V2.75928ZM1.60001 6.25928C1.60001 5.15471 2.49544 4.25928 3.60001 4.25928H13.6C14.7046 4.25928 15.6 5.15471 15.6 6.25928V13.2593C15.6 14.3638 14.7046 15.2593 13.6 15.2593H3.60001C2.49544 15.2593 1.60001 14.3638 1.60001 13.2593V6.25928ZM3.60001 5.75928C3.32386 5.75928 3.10001 5.98313 3.10001 6.25928V13.2593C3.10001 13.5354 3.32386 13.7593 3.60001 13.7593H13.6C13.8761 13.7593 14.1 13.5354 14.1 13.2593V6.25928C14.1 5.98314 13.8761 5.75928 13.6 5.75928H3.60001Z" fill="#292A2E"/>
</svg>
