<svg width="17" height="17" viewBox="0 0 17 17" fill="none" xmlns="http://www.w3.org/2000/svg">
<path d="M7.60001 8.1106C7.60001 8.52481 7.26422 8.8606 6.85001 8.8606C6.43579 8.8606 6.10001 8.52481 6.10001 8.1106C6.10001 7.69638 6.43579 7.3606 6.85001 7.3606C7.26422 7.3606 7.60001 7.69638 7.60001 8.1106Z" fill="#292A2E"/>
<path d="M4.10001 8.1106C4.10001 8.52481 3.76422 8.8606 3.35001 8.8606C2.93579 8.8606 2.60001 8.52481 2.60001 8.1106C2.60001 7.69638 2.93579 7.3606 3.35001 7.3606C3.76422 7.3606 4.10001 7.69638 4.10001 8.1106Z" fill="#292A2E"/>
<path d="M11.1 8.1106C11.1 8.52481 10.7642 8.8606 10.35 8.8606C9.93579 8.8606 9.60001 8.52481 9.60001 8.1106C9.60001 7.69638 9.93579 7.3606 10.35 7.3606C10.7642 7.3606 11.1 7.69638 11.1 8.1106Z" fill="#292A2E"/>
<path d="M7.60001 1.8606C7.60001 2.27481 7.26422 2.6106 6.85001 2.6106C6.43579 2.6106 6.10001 2.27481 6.10001 1.8606C6.10001 1.44638 6.43579 1.1106 6.85001 1.1106C7.26422 1.1106 7.60001 1.44638 7.60001 1.8606Z" fill="#292A2E"/>
<path d="M4.10001 1.8606C4.10001 2.27481 3.76422 2.6106 3.35001 2.6106C2.93579 2.6106 2.60001 2.27481 2.60001 1.8606C2.60001 1.44638 2.93579 1.1106 3.35001 1.1106C3.76422 1.1106 4.10001 1.44638 4.10001 1.8606Z" fill="#292A2E"/>
<path d="M11.1 1.8606C11.1 2.27481 10.7642 2.6106 10.35 2.6106C9.93579 2.6106 9.60001 2.27481 9.60001 1.8606C9.60001 1.44638 9.93579 1.1106 10.35 1.1106C10.7642 1.1106 11.1 1.44638 11.1 1.8606Z" fill="#292A2E"/>
<path d="M14.6 8.1106C14.6 8.52481 14.2642 8.8606 13.85 8.8606C13.4358 8.8606 13.1 8.52481 13.1 8.1106C13.1 7.69638 13.4358 7.3606 13.85 7.3606C14.2642 7.3606 14.6 7.69638 14.6 8.1106Z" fill="#292A2E"/>
<path d="M14.6 1.8606C14.6 2.27481 14.2642 2.6106 13.85 2.6106C13.4358 2.6106 13.1 2.27481 13.1 1.8606C13.1 1.44638 13.4358 1.1106 13.85 1.1106C14.2642 1.1106 14.6 1.44638 14.6 1.8606Z" fill="#292A2E"/>
<path fill-rule="evenodd" clip-rule="evenodd" d="M0.600006 13.6106H16.6V15.1106H0.600006V13.6106Z" fill="#292A2E"/>
</svg>
