<svg width="17" height="17" viewBox="0 0 17 17" fill="none" xmlns="http://www.w3.org/2000/svg">
<path fill-rule="evenodd" clip-rule="evenodd" d="M4.9129 2.20085C5.03233 1.92786 5.30204 1.75146 5.60002 1.75146H11.6C11.898 1.75146 12.1677 1.92786 12.2871 2.20085L13.7914 5.63916L15.684 4.37743L16.516 5.6255L14.5544 6.93327L13.5949 15.0891C13.5504 15.4668 13.2303 15.7515 12.85 15.7515H4.35002C3.9697 15.7515 3.64959 15.4668 3.60515 15.0891L2.64564 6.93327L0.68399 5.6255L1.51604 4.37743L3.40864 5.63916L4.9129 2.20085ZM4.19342 7.25146L5.01695 14.2515H12.1831L13.0066 7.25146H4.19342ZM12.2033 5.75146L11.1095 3.25146H6.09053L4.99678 5.75146H12.2033Z" fill="#292A2E"/>
</svg>
