<svg width="17" height="17" viewBox="0 0 17 17" fill="none" xmlns="http://www.w3.org/2000/svg">
<path fill-rule="evenodd" clip-rule="evenodd" d="M1.60001 3.93799C1.60001 2.83342 2.49544 1.93799 3.60001 1.93799H13.6C14.7046 1.93799 15.6 2.83342 15.6 3.93799V13.938C15.6 15.0426 14.7046 15.938 13.6 15.938H3.60001C2.49544 15.938 1.60001 15.0426 1.60001 13.938V3.93799ZM3.60001 3.43799C3.32386 3.43799 3.10001 3.66185 3.10001 3.93799V5.43799H14.1V3.93799C14.1 3.66185 13.8761 3.43799 13.6 3.43799H3.60001ZM14.1 6.93799H7.10001V14.438H13.6C13.8761 14.438 14.1 14.2141 14.1 13.938V6.93799ZM5.60001 14.438V6.93799H3.10001V13.938C3.10001 14.2141 3.32386 14.438 3.60001 14.438H5.60001Z" fill="#292A2E"/>
</svg>
