<svg width="17" height="17" viewBox="0 0 17 17" fill="none" xmlns="http://www.w3.org/2000/svg">
<path fill-rule="evenodd" clip-rule="evenodd" d="M16.6 14.4009H0.600006V12.9009H16.6V14.4009Z" fill="#292A2E"/>
<path fill-rule="evenodd" clip-rule="evenodd" d="M3.42696 2.6695C4.04996 2.2636 4.82302 2.20082 5.6683 2.42624C6.24429 2.57985 6.69672 2.9064 6.99 3.37071C7.27444 3.82102 7.3753 4.3459 7.36554 4.85894C7.34623 5.87294 6.89549 7.00262 6.21035 7.96184C5.88356 8.41934 5.46888 8.89261 5.03164 9.34486C5.04926 9.36396 5.06695 9.38264 5.08471 9.40089C5.40623 9.73114 5.70542 9.87559 5.96058 9.89732C6.19725 9.91748 6.52732 9.84348 6.95373 9.4569C7.39166 9.05989 7.8947 8.3616 8.41898 7.22471C8.57826 6.8793 8.97088 6.70782 9.33251 6.82572C9.69363 6.94344 9.90965 7.31249 9.83568 7.68487L9.83545 7.68602L9.83516 7.68757L9.83193 7.70521C9.8289 7.72224 9.82427 7.74941 9.81882 7.78525C9.80788 7.85717 9.79386 7.96263 9.78277 8.09008C9.76014 8.35006 9.7519 8.67769 9.79587 8.99044C9.84118 9.31274 9.9319 9.54671 10.0482 9.68791C10.1373 9.79615 10.279 9.90092 10.6 9.90092C11.4287 9.90092 11.9447 9.33944 12.1289 8.69488C12.2289 8.34498 12.5656 8.11734 12.9275 8.15493C13.2843 8.19199 13.5642 8.47629 13.5969 8.8321C13.5973 8.83651 13.5977 8.84093 13.598 8.84536L13.5978 8.84341L13.5976 8.8399L13.5971 8.83455L13.5966 8.83016L13.5969 8.8321L13.5971 8.83455C13.5974 8.83687 13.5982 8.84033 13.5989 8.84427C13.6022 8.86318 13.6097 8.89854 13.6246 8.94485C13.6546 9.038 13.712 9.16808 13.8202 9.29986C14.0136 9.53528 14.4721 9.90092 15.6 9.90092V11.4009C14.2514 11.4009 13.3738 10.9875 12.829 10.4379C13.1929 10.0409 13.4398 9.56672 13.5712 9.10696L12.85 8.90092L13.5981 8.84748L13.5981 8.84642C13.5981 8.84642 13.5941 8.84777 12.85 8.90092C12.102 8.95435 12.102 8.95546 12.102 8.95546L12.1021 8.95662L12.1023 8.95906L12.1027 8.96447L12.1039 8.97733C12.1048 8.98679 12.106 8.99805 12.1076 9.01098C12.1107 9.03681 12.1153 9.06946 12.1222 9.10796C12.1359 9.18475 12.1587 9.28611 12.1966 9.40386C12.2721 9.63884 12.41 9.94626 12.6611 10.252C12.7132 10.3153 12.7691 10.3774 12.829 10.4379C12.318 10.9954 11.5762 11.4009 10.6 11.4009C9.85862 11.4009 9.28155 11.1167 8.8902 10.6414C8.72231 10.4375 8.59962 10.2119 8.50987 9.98341C8.95248 9.43818 9.37612 8.73108 9.78112 7.85286L9.10005 7.53878C8.36473 7.39111 8.36463 7.39162 8.36463 7.39162L8.36424 7.39358L8.36352 7.3972L8.36147 7.40785L8.35516 7.44225C8.35007 7.47081 8.34335 7.51051 8.33586 7.55976C8.32092 7.65804 8.30272 7.79571 8.28842 7.96003C8.26026 8.28357 8.24507 8.73398 8.31047 9.19926C8.34501 9.4449 8.40493 9.71621 8.50987 9.98341C8.33012 10.2048 8.14724 10.3996 7.96121 10.5682C7.30559 11.1626 6.58097 11.4556 5.83327 11.3919C5.10405 11.3298 4.48918 10.9395 4.00992 10.4472C3.991 10.4278 3.97222 10.4081 3.95358 10.3882C3.8432 10.4891 3.73483 10.5867 3.62957 10.6802C3.19817 11.0637 2.80713 11.3909 2.52375 11.6224C2.38192 11.7382 2.26671 11.8304 2.18646 11.894C2.14633 11.9258 2.11492 11.9505 2.09328 11.9674L2.06825 11.9869L2.05955 11.9937C2.05955 11.9937 2.05863 11.9944 1.60005 11.4009L1.14139 10.8075L1.1477 10.8026L1.16919 10.7858C1.18844 10.7708 1.21733 10.7481 1.25484 10.7184C1.32987 10.6589 1.43927 10.5714 1.57478 10.4607C1.84608 10.2391 2.22067 9.92564 2.63302 9.55911C2.78276 9.42601 2.93599 9.28721 3.08995 9.14441C3.0032 8.97864 2.92271 8.80868 2.84858 8.63632C2.275 7.30272 2.00877 5.64661 2.3248 4.35903C2.48526 3.70525 2.81794 3.0663 3.42696 2.6695ZM4.21754 8.02266C4.51016 7.7054 4.77591 7.38935 4.98974 7.08998C5.5546 6.29918 5.85386 5.45805 5.86581 4.83039C5.87167 4.52261 5.80846 4.30895 5.72181 4.17176C5.644 4.04858 5.51831 3.93867 5.28179 3.87559C4.72083 3.72599 4.41577 3.81555 4.2458 3.92629C4.06185 4.04613 3.88672 4.28813 3.78156 4.71658C3.56766 5.58806 3.73552 6.89076 4.21754 8.02266Z" fill="#292A2E"/>
<path d="M8.50987 9.98341C8.95248 9.43818 9.37612 8.73108 9.78112 7.85286L9.10005 7.53878C8.36473 7.39111 8.36463 7.39162 8.36463 7.39162L8.36424 7.39358L8.36352 7.3972L8.36147 7.40785L8.35516 7.44225C8.35007 7.47081 8.34335 7.51051 8.33586 7.55976C8.32092 7.65804 8.30272 7.79571 8.28842 7.96003C8.26026 8.28357 8.24507 8.73398 8.31047 9.19926C8.34501 9.4449 8.40493 9.71621 8.50987 9.98341Z" fill="#292A2E"/>
<path d="M12.829 10.4379C13.1929 10.0409 13.4398 9.56672 13.5712 9.10696L12.85 8.90092C12.102 8.95435 12.102 8.95546 12.102 8.95546L12.1021 8.95662L12.1023 8.95906L12.1027 8.96447L12.1039 8.97733C12.1048 8.98679 12.106 8.99805 12.1076 9.01098C12.1107 9.03681 12.1153 9.06946 12.1222 9.10796C12.1359 9.18475 12.1587 9.28611 12.1966 9.40386C12.2721 9.63884 12.41 9.94626 12.6611 10.252C12.7132 10.3153 12.7691 10.3774 12.829 10.4379Z" fill="#292A2E"/>
</svg>
