<svg width="17" height="17" viewBox="0 0 17 17" fill="none" xmlns="http://www.w3.org/2000/svg">
<path d="M6.84995 5.1626C6.43573 5.1626 6.09995 5.49838 6.09995 5.9126L6.09995 9.62646L4.90366 9.02783C4.43759 8.7948 3.88396 9.04243 3.73471 9.5249L3.7103 9.62451C3.6693 9.85033 3.72263 10.0833 3.85874 10.2681L5.82944 12.9419C6.39482 13.7092 7.29139 14.1625 8.24448 14.1626H10.5999C12.2568 14.1626 13.5999 12.8195 13.5999 11.1626V6.1626C13.5999 5.74838 13.2642 5.4126 12.8499 5.4126C12.4618 5.4126 12.1425 5.70748 12.1039 6.08545L12.0999 6.1626V7.1626H10.5999V5.1626C10.5999 4.74838 10.2642 4.4126 9.84995 4.4126C9.43573 4.4126 9.09995 4.74838 9.09995 5.1626V7.1626H7.59995V5.9126C7.59995 5.49838 7.26416 5.1626 6.84995 5.1626ZM6.84995 3.6626C7.25133 3.6626 7.62719 3.76943 7.95346 3.95361C8.35309 3.32804 9.05257 2.9126 9.84995 2.9126C10.7266 2.9126 11.4835 3.41533 11.8548 4.14697C12.1551 3.99842 12.4922 3.9126 12.8499 3.9126C14.0926 3.9126 15.0999 4.91996 15.0999 6.1626V11.1626C15.0999 13.6479 13.0852 15.6626 10.5999 15.6626H8.24448C6.81478 15.6625 5.47051 14.9825 4.62241 13.8315L2.6517 11.1577L2.51987 10.9575C2.23708 10.4774 2.13409 9.90936 2.23471 9.35596L2.26401 9.21436C2.53352 8.11286 3.53896 7.40879 4.59995 7.43994L4.59995 5.9126C4.59995 4.66996 5.60731 3.6626 6.84995 3.6626Z" fill="#292A2E"/>
</svg>
