<svg width="17" height="17" viewBox="0 0 17 17" fill="none" xmlns="http://www.w3.org/2000/svg">
<path fill-rule="evenodd" clip-rule="evenodd" d="M0.600006 2.87451C0.600006 2.4603 0.935793 2.12451 1.35001 2.12451H15.85C16.2642 2.12451 16.6 2.4603 16.6 2.87451V6.37451C16.6 6.78873 16.2642 7.12451 15.85 7.12451H15.6C15.0477 7.12451 14.6 7.57223 14.6 8.12451C14.6 8.6768 15.0477 9.12451 15.6 9.12451H15.85C16.2642 9.12451 16.6 9.4603 16.6 9.87451V13.3745C16.6 13.7887 16.2642 14.1245 15.85 14.1245H1.35001C0.935793 14.1245 0.600006 13.7887 0.600006 13.3745V9.87451C0.600006 9.4603 0.935793 9.12451 1.35001 9.12451H1.60001C2.15229 9.12451 2.60001 8.6768 2.60001 8.12451C2.60001 7.57223 2.15229 7.12451 1.60001 7.12451H1.35001C0.935793 7.12451 0.600006 6.78873 0.600006 6.37451V2.87451ZM2.10001 3.62451V5.67452C3.24113 5.90616 4.10001 6.91503 4.10001 8.12451C4.10001 9.33399 3.24113 10.3429 2.10001 10.5745V12.6245H15.1V10.5745C13.9589 10.3429 13.1 9.33399 13.1 8.12451C13.1 6.91503 13.9589 5.90616 15.1 5.67452V3.62451H2.10001ZM9.60001 6.12451V4.62451H11.1V6.12451H9.60001ZM11.1 8.87451H9.60001V7.37451H11.1V8.87451ZM9.60001 11.6245V10.1245H11.1V11.6245H9.60001Z" fill="#292A2E"/>
</svg>
