<svg width="17" height="17" viewBox="0 0 17 17" fill="none" xmlns="http://www.w3.org/2000/svg">
<path d="M11.6 12.5317C11.6 12.0876 11.4314 11.6623 11.1322 11.3403L10.9965 11.2095L8.60001 9.13135L6.20352 11.2095C5.82018 11.5419 5.60001 12.0243 5.60001 12.5317V13.6401H11.6V12.5317ZM11.6 2.64014H5.60001V3.74854C5.60001 4.25593 5.82018 4.73841 6.20352 5.0708L8.60001 7.14795L10.9965 5.0708L11.1322 4.93994C11.4314 4.61794 11.6 4.1927 11.6 3.74854V2.64014ZM13.1 3.74854C13.1 4.63207 12.7405 5.47492 12.1088 6.08545L11.9789 6.20459L9.74454 8.14014L11.9789 10.0757L12.1088 10.1948C12.7405 10.8054 13.1 11.6482 13.1 12.5317V13.6401H14.6V15.1401H2.60001V13.6401H4.10001V12.5317C4.10001 11.5893 4.50895 10.693 5.2211 10.0757L7.4545 8.14014L5.2211 6.20459C4.50895 5.58729 4.10001 4.691 4.10001 3.74854V2.64014H2.60001V1.14014H14.6V2.64014H13.1V3.74854Z" fill="#292A2E"/>
</svg>
