<svg width="17" height="17" viewBox="0 0 17 17" fill="none" xmlns="http://www.w3.org/2000/svg">
<path fill-rule="evenodd" clip-rule="evenodd" d="M4.67384 3.78085C4.44079 2.1961 5.66911 0.773926 7.27091 0.773926H9.9291C11.5309 0.773926 12.7592 2.1961 12.5262 3.78085L11.7184 9.27393H12.975C14.4248 9.27393 15.6 10.4492 15.6 11.8989V13.5239C15.6 13.9381 15.2642 14.2739 14.85 14.2739H2.35001C1.93579 14.2739 1.60001 13.9381 1.60001 13.5239V11.8989C1.60001 10.4492 2.77526 9.27393 4.22501 9.27393H5.48165L4.67384 3.78085ZM7.27091 2.27393C6.58442 2.27393 6.058 2.88343 6.15788 3.56261L7.09203 9.91481C7.12374 10.1304 7.06007 10.3492 6.91761 10.5142C6.77514 10.6791 6.56796 10.7739 6.35001 10.7739H4.22501C3.60369 10.7739 3.10001 11.2776 3.10001 11.8989V12.7739H14.1V11.8989C14.1 11.2776 13.5963 10.7739 12.975 10.7739H10.85C10.632 10.7739 10.4249 10.6791 10.2824 10.5142C10.1399 10.3492 10.0763 10.1304 10.108 9.91481L11.0421 3.56261C11.142 2.88343 10.6156 2.27393 9.9291 2.27393H7.27091ZM14.1 16.7739H3.10001V15.2739H14.1V16.7739Z" fill="#292A2E"/>
</svg>
