<svg width="17" height="17" viewBox="0 0 17 17" fill="none" xmlns="http://www.w3.org/2000/svg">
<path fill-rule="evenodd" clip-rule="evenodd" d="M0.600006 2.21509L16.6 2.21509V0.715089L0.600006 0.715088L0.600006 2.21509Z" fill="#292A2E"/>
<path fill-rule="evenodd" clip-rule="evenodd" d="M4.97501 3.71509C4.21561 3.71509 3.60001 4.3307 3.60001 5.09009L3.60001 14.3401C3.60001 15.0995 4.21561 15.7151 4.97501 15.7151H6.47501C7.2344 15.7151 7.85001 15.0995 7.85001 14.3401L7.85001 5.09009C7.85001 4.3307 7.2344 3.71509 6.47501 3.71509L4.97501 3.71509ZM5.10001 5.21509H6.35001L6.35001 14.2151H5.10001L5.10001 5.21509Z" fill="#292A2E"/>
<path fill-rule="evenodd" clip-rule="evenodd" d="M10.725 3.71509C9.96561 3.71509 9.35001 4.3307 9.35001 5.09009V9.34009C9.35001 10.0995 9.96561 10.7151 10.725 10.7151H12.225C12.9844 10.7151 13.6 10.0995 13.6 9.34009V5.09009C13.6 4.3307 12.9844 3.71509 12.225 3.71509L10.725 3.71509ZM10.85 5.21509H12.1V9.21509H10.85V5.21509Z" fill="#292A2E"/>
</svg>
