<svg width="17" height="17" viewBox="0 0 17 17" fill="none" xmlns="http://www.w3.org/2000/svg">
<path fill-rule="evenodd" clip-rule="evenodd" d="M6.10001 2.28955C5.40965 2.28955 4.85001 2.84919 4.85001 3.53955C4.85001 4.22991 5.40965 4.78955 6.10001 4.78955H7.85001C7.85001 2.89092 6.7302 2.28955 6.10001 2.28955ZM8.60001 2.1681C7.96625 1.26188 7.01758 0.789551 6.10001 0.789551C4.58122 0.789551 3.35001 2.02077 3.35001 3.53955C3.35001 3.98966 3.45815 4.41452 3.64986 4.78955H2.35001C1.93579 4.78955 1.60001 5.12534 1.60001 5.53955V9.03955C1.60001 9.45376 1.93579 9.78955 2.35001 9.78955H2.60001V13.7896C2.60001 14.8941 3.49544 15.7896 4.60001 15.7896H12.6C13.7046 15.7896 14.6 14.8941 14.6 13.7896V9.78955H14.85C15.2642 9.78955 15.6 9.45376 15.6 9.03955V5.53955C15.6 5.12534 15.2642 4.78955 14.85 4.78955H13.5502C13.7419 4.41452 13.85 3.98966 13.85 3.53955C13.85 2.02077 12.6188 0.789551 11.1 0.789551C10.1824 0.789551 9.23376 1.26188 8.60001 2.1681ZM7.85001 6.28955H3.10001V8.28955H7.85001V6.28955ZM9.35001 8.28955V6.28955H14.1V8.28955H9.35001ZM7.85001 9.78955H4.10001V13.7896C4.10001 14.0657 4.32386 14.2896 4.60001 14.2896H7.85001V9.78955ZM9.35001 14.2896V9.78955H13.1V13.7896C13.1 14.0657 12.8761 14.2896 12.6 14.2896H9.35001ZM9.35001 4.78955H11.1C11.7904 4.78955 12.35 4.22991 12.35 3.53955C12.35 2.84919 11.7904 2.28955 11.1 2.28955C10.4698 2.28955 9.35001 2.89092 9.35001 4.78955Z" fill="#292A2E"/>
</svg>
