<svg width="17" height="17" viewBox="0 0 17 17" fill="none" xmlns="http://www.w3.org/2000/svg">
<path fill-rule="evenodd" clip-rule="evenodd" d="M10.6 3.35669C9.42888 3.35669 8.39193 3.93116 7.75539 4.81698L6.53727 3.94166C7.44351 2.68052 8.92556 1.85669 10.6 1.85669C13.3614 1.85669 15.6 4.09527 15.6 6.85669C15.6 8.53114 14.7762 10.0132 13.515 10.9194L12.6397 9.70131C13.5255 9.06477 14.1 8.02782 14.1 6.85669C14.1 4.92369 12.533 3.35669 10.6 3.35669ZM6.60001 7.35669C4.66701 7.35669 3.10001 8.92369 3.10001 10.8567C3.10001 12.7897 4.66701 14.3567 6.60001 14.3567C8.533 14.3567 10.1 12.7897 10.1 10.8567C10.1 8.92369 8.533 7.35669 6.60001 7.35669ZM1.60001 10.8567C1.60001 8.09527 3.83858 5.85669 6.60001 5.85669C9.36143 5.85669 11.6 8.09527 11.6 10.8567C11.6 13.6181 9.36143 15.8567 6.60001 15.8567C3.83858 15.8567 1.60001 13.6181 1.60001 10.8567Z" fill="#292A2E"/>
</svg>
