<svg width="17" height="17" viewBox="0 0 17 17" fill="none" xmlns="http://www.w3.org/2000/svg">
<path d="M3.3018 5.42543C4.4801 3.77094 6.41402 2.69189 8.59996 2.69189C12.1898 2.69189 15.1 5.60204 15.1 9.19189C15.1 11.0439 14.3264 12.714 13.0826 13.8989L14.1173 14.9849C15.6458 13.5287 16.6 11.4711 16.6 9.19189C16.6 4.77362 13.0182 1.19189 8.59996 1.19189C5.71191 1.19189 3.18131 2.72225 1.77482 5.01628L3.3018 5.42543Z" fill="#292A2E"/>
<path fill-rule="evenodd" clip-rule="evenodd" d="M0.943875 6.86418C0.800013 7.33797 0.698927 7.83037 0.645111 8.33689L6.10136 9.79888C6.14656 10.861 6.87142 11.817 7.95269 12.1067C9.28636 12.464 10.6572 11.6726 11.0146 10.3389C11.3719 9.00525 10.5805 7.6344 9.24679 7.27705C8.16552 6.98732 7.05981 7.45273 6.48959 8.34999L0.943875 6.86418ZM8.34092 10.6578C7.80745 10.5148 7.49087 9.96651 7.63381 9.43304C7.77676 8.89958 8.32509 8.58299 8.85856 8.72594C9.39202 8.86888 9.70861 9.41722 9.56567 9.95068C9.42272 10.4841 8.87439 10.8007 8.34092 10.6578Z" fill="#292A2E"/>
<path d="M3.08264 14.9849C1.83425 13.7956 0.969013 12.2052 0.693779 10.4205L2.31446 10.8547C2.62546 12.0339 3.25957 13.0818 4.11728 13.8989L3.08264 14.9849Z" fill="#292A2E"/>
</svg>
