<svg width="17" height="17" viewBox="0 0 17 17" fill="none" xmlns="http://www.w3.org/2000/svg">
<path fill-rule="evenodd" clip-rule="evenodd" d="M14.6 4.19971C14.8761 4.19971 15.1 4.42356 15.1 4.69971V12.6997C15.1 12.9758 14.8761 13.1997 14.6 13.1997H2.60001C2.32386 13.1997 2.10001 12.9758 2.10001 12.6997V4.69971C2.10001 4.42356 2.32386 4.19971 2.60001 4.19971H14.6ZM16.6 4.69971C16.6 3.59514 15.7046 2.69971 14.6 2.69971H2.60001C1.49544 2.69971 0.600006 3.59514 0.600006 4.69971V12.6997C0.600006 13.8043 1.49544 14.6997 2.60001 14.6997H14.6C15.7046 14.6997 16.6 13.8043 16.6 12.6997V4.69971ZM8.60001 6.19971H3.60001V7.69971H8.60001V6.19971ZM13.6 11.1997V9.69971H3.60001V11.1997H13.6Z" fill="#292A2E"/>
</svg>
