<svg width="17" height="17" viewBox="0 0 17 17" fill="none" xmlns="http://www.w3.org/2000/svg">
<path fill-rule="evenodd" clip-rule="evenodd" d="M2.10001 0.528564V16.5286H0.600006V0.528564H2.10001Z" fill="#292A2E"/>
<path fill-rule="evenodd" clip-rule="evenodd" d="M3.60001 4.90356C3.60001 4.14417 4.21561 3.52856 4.97501 3.52856H14.225C14.9844 3.52856 15.6 4.14417 15.6 4.90356V6.40356C15.6 7.16296 14.9844 7.77856 14.225 7.77856H4.97501C4.21561 7.77856 3.60001 7.16296 3.60001 6.40356V4.90356ZM5.10001 5.02856V6.27856H14.1V5.02856H5.10001Z" fill="#292A2E"/>
<path fill-rule="evenodd" clip-rule="evenodd" d="M3.60001 10.6536C3.60001 9.89417 4.21561 9.27856 4.97501 9.27856H9.22501C9.9844 9.27856 10.6 9.89417 10.6 10.6536V12.1536C10.6 12.913 9.9844 13.5286 9.22501 13.5286H4.97501C4.21561 13.5286 3.60001 12.913 3.60001 12.1536V10.6536ZM5.10001 10.7786V12.0286H9.10001V10.7786H5.10001Z" fill="#292A2E"/>
</svg>
