<svg width="17" height="17" viewBox="0 0 17 17" fill="none" xmlns="http://www.w3.org/2000/svg">
<path d="M6.84999 3.45361C6.43578 3.45361 6.09999 3.7894 6.09999 4.20361L6.09999 10.5952L4.96913 9.92725L4.26112 9.51025C3.87172 9.2804 3.37612 9.42653 3.16835 9.81494L3.13124 9.89502C3.02543 10.1596 3.07112 10.4607 3.25038 10.6821L5.80702 13.8413C6.37662 14.5449 7.23378 14.9536 8.13905 14.9536H10.6C12.2568 14.9536 13.6 13.6105 13.6 11.9536V4.70361C13.6 4.2894 13.2642 3.95361 12.85 3.95361C12.4618 3.95361 12.1425 4.2485 12.1039 4.62646L12.1 4.70361V7.95361H10.6V3.20361C10.6 2.7894 10.2642 2.45361 9.84999 2.45361C9.43578 2.45361 9.09999 2.7894 9.09999 3.20361L9.09999 7.95361H7.59999L7.59999 4.20361C7.59999 3.7894 7.2642 3.45361 6.84999 3.45361ZM6.84999 1.95361C7.20741 1.95361 7.54401 2.03968 7.84413 2.18799C8.21543 1.45614 8.97318 0.953613 9.84999 0.953613C10.8885 0.953613 11.7588 1.65825 12.018 2.61475C12.2755 2.51205 12.5558 2.45361 12.85 2.45361C14.0926 2.45361 15.1 3.46097 15.1 4.70361V11.9536C15.1 14.4389 13.0853 16.4536 10.6 16.4536H8.13905C6.78114 16.4536 5.4954 15.8401 4.64101 14.7847L2.08437 11.6265L1.99062 11.5024C1.54809 10.8731 1.4504 10.0591 1.73866 9.33838L1.84804 9.10303C2.3793 8.11206 3.55483 7.66584 4.59999 8.0249L4.59999 4.20361C4.59999 2.96097 5.60735 1.95361 6.84999 1.95361Z" fill="#292A2E"/>
</svg>
