<svg width="17" height="17" viewBox="0 0 17 17" fill="none" xmlns="http://www.w3.org/2000/svg">
<path fill-rule="evenodd" clip-rule="evenodd" d="M15.6 15.6702H1.60001V14.1702H15.6V15.6702Z" fill="#292A2E"/>
<path fill-rule="evenodd" clip-rule="evenodd" d="M4.25583 4.79607L5.96994 5.78571C7.00792 4.2812 8.3027 3.36092 9.38017 2.80968C9.42378 2.78737 9.46705 2.76565 9.50995 2.74451C7.54832 2.41583 5.51054 3.17642 4.25583 4.79607ZM11.1977 3.67101C10.8908 3.77133 10.4979 3.92275 10.0634 4.14506C9.17763 4.59821 8.12924 5.34005 7.27406 6.53865L10.676 8.50278C11.2865 7.16287 11.4047 5.88403 11.3543 4.89038C11.3296 4.4029 11.2642 3.98694 11.1977 3.67101ZM11.9802 9.25572L13.6943 10.2454C14.4696 8.34892 14.1094 6.20386 12.8439 4.66937C12.8471 4.7171 12.8499 4.76543 12.8524 4.81436C12.9137 6.02309 12.7641 7.60455 11.9802 9.25572ZM2.53787 4.67024C4.47087 1.32219 8.752 0.175062 12.1 2.10806C15.4481 4.04106 16.5952 8.32219 14.6622 11.6702C14.4551 12.029 13.9964 12.1519 13.6377 11.9448L8.87457 9.19476L5.12457 15.6899L3.82553 14.9399L7.57553 8.44476L2.81239 5.69476C2.45367 5.48765 2.33077 5.02896 2.53787 4.67024Z" fill="#292A2E"/>
</svg>
