<svg width="17" height="17" viewBox="0 0 17 17" fill="none" xmlns="http://www.w3.org/2000/svg">
<path fill-rule="evenodd" clip-rule="evenodd" d="M10.35 2.89404H8.60001V1.39404H13.6V2.89404H11.85V4.89404H14.6C15.7046 4.89404 16.6 5.78947 16.6 6.89404V9.89404C16.6 10.9986 15.7046 11.894 14.6 11.894H11.85V13.894H13.6V15.394H8.60001V13.894H10.35V2.89404ZM11.85 10.394H14.6C14.8761 10.394 15.1 10.1702 15.1 9.89404V6.89404C15.1 6.6179 14.8761 6.39404 14.6 6.39404H11.85V10.394ZM2.60001 6.39404C2.32386 6.39404 2.10001 6.6179 2.10001 6.89404V9.89404C2.10001 10.1702 2.32386 10.394 2.60001 10.394H8.60001V11.894H2.60001C1.49544 11.894 0.600006 10.9986 0.600006 9.89404V6.89404C0.600006 5.78947 1.49544 4.89404 2.60001 4.89404H8.60001V6.39404H2.60001Z" fill="#292A2E"/>
</svg>
