<svg width="17" height="17" viewBox="0 0 17 17" fill="none" xmlns="http://www.w3.org/2000/svg">
<path fill-rule="evenodd" clip-rule="evenodd" d="M16.6 9.48755H12.85V7.98755H16.6V9.48755ZM9.85001 9.48755H7.35001V7.98755H9.85001V9.48755ZM4.35001 9.48755L0.600006 9.48755L0.600006 7.98755L4.35001 7.98755V9.48755Z" fill="#292A2E"/>
<path fill-rule="evenodd" clip-rule="evenodd" d="M12.225 1.73755C12.9844 1.73755 13.6 2.35316 13.6 3.11255L13.6 14.3625C13.6 15.1219 12.9844 15.7375 12.225 15.7375H10.725C9.96561 15.7375 9.35001 15.1219 9.35001 14.3625L9.35001 3.11255C9.35001 2.35316 9.96561 1.73755 10.725 1.73755L12.225 1.73755ZM12.1 3.23755L10.85 3.23755L10.85 14.2375H12.1L12.1 3.23755Z" fill="#292A2E"/>
<path fill-rule="evenodd" clip-rule="evenodd" d="M6.47501 3.73755C7.2344 3.73755 7.85001 4.35316 7.85001 5.11255L7.85001 12.3625C7.85001 13.1219 7.2344 13.7375 6.47501 13.7375H4.97501C4.21561 13.7375 3.60001 13.1219 3.60001 12.3625L3.60001 5.11255C3.60001 4.35316 4.21561 3.73755 4.97501 3.73755H6.47501ZM6.35001 5.23755H5.10001L5.10001 12.2375H6.35001L6.35001 5.23755Z" fill="#292A2E"/>
</svg>
