<svg width="17" height="17" viewBox="0 0 17 17" fill="none" xmlns="http://www.w3.org/2000/svg">
<path d="M2.10013 9.5874C2.10013 5.99755 5.01028 3.0874 8.60013 3.0874C10.1551 3.0874 11.5826 3.63344 12.7012 4.54424L14.073 3.75228C12.642 2.40969 10.7171 1.5874 8.60013 1.5874C4.18185 1.5874 0.600128 5.16912 0.600128 9.5874C0.600128 11.8666 1.55425 13.9242 3.08281 15.3804L4.11745 14.2944C2.87371 13.1095 2.10013 11.4394 2.10013 9.5874Z" fill="#292A2E"/>
<path fill-rule="evenodd" clip-rule="evenodd" d="M10.291 8.24513C9.50802 7.52603 8.31954 7.36266 7.3501 7.92236C6.15437 8.61272 5.74468 10.1417 6.43504 11.3374C7.12539 12.5332 8.65437 12.9428 9.8501 12.2525C10.8195 11.6928 11.2723 10.5818 11.041 9.54417L16.0455 6.65478C15.8603 6.185 15.632 5.73695 15.3653 5.31554L10.291 8.24513ZM8.1001 9.2214C8.57839 8.94526 9.18998 9.10913 9.46613 9.58743C9.74227 10.0657 9.57839 10.6773 9.1001 10.9535C8.62181 11.2296 8.01022 11.0657 7.73408 10.5874C7.45793 10.1091 7.62181 9.49754 8.1001 9.2214Z" fill="#292A2E"/>
<path d="M16.5485 8.67378L15.0997 9.51027C15.1 9.53595 15.1001 9.56166 15.1001 9.5874C15.1001 11.4394 14.3265 13.1095 13.0828 14.2944L14.1175 15.3804C15.646 13.9242 16.6001 11.8666 16.6001 9.5874C16.6001 9.27846 16.5826 8.9736 16.5485 8.67378Z" fill="#292A2E"/>
</svg>
