<svg width="17" height="17" viewBox="0 0 17 17" fill="none" xmlns="http://www.w3.org/2000/svg">
<path fill-rule="evenodd" clip-rule="evenodd" d="M15.1 0.924072V16.9241H16.6V0.924072H15.1Z" fill="#292A2E"/>
<path fill-rule="evenodd" clip-rule="evenodd" d="M13.6 5.29907C13.6 4.53968 12.9844 3.92407 12.225 3.92407H2.97501C2.21562 3.92407 1.60001 4.53968 1.60001 5.29907V6.79907C1.60001 7.55846 2.21561 8.17407 2.97501 8.17407H12.225C12.9844 8.17407 13.6 7.55846 13.6 6.79907V5.29907ZM12.1 5.42407V6.67407H3.10001V5.42407H12.1Z" fill="#292A2E"/>
<path fill-rule="evenodd" clip-rule="evenodd" d="M13.6 11.0491C13.6 10.2897 12.9844 9.67407 12.225 9.67407H7.97501C7.21561 9.67407 6.60001 10.2897 6.60001 11.0491V12.5491C6.60001 13.3085 7.21561 13.9241 7.97501 13.9241H12.225C12.9844 13.9241 13.6 13.3085 13.6 12.5491V11.0491ZM12.1 11.1741V12.4241H8.10001V11.1741H12.1Z" fill="#292A2E"/>
</svg>
