<svg width="415" height="120" viewBox="0 0 415 120" fill="none" xmlns="http://www.w3.org/2000/svg">
<g clip-path="url(#clip0_7725_22694)">
<rect width="415" height="251" transform="translate(0 -115)" fill="#CFE1FD"/>
<mask id="mask0_7725_22694" style="mask-type:alpha" maskUnits="userSpaceOnUse" x="0" y="-115" width="415" height="251">
<rect y="-115" width="415" height="251" fill="#F0F1F2"/>
</mask>
<g mask="url(#mask0_7725_22694)">
<path opacity="0.5" d="M55.6758 92.0222L-27.6061 20.5424L-37.0015 9.3049L19.8344 -72.3698L118.195 -50.8215L107.408 72.3276L55.6758 92.0222Z" stroke="white" stroke-width="2"/>
<rect x="209.482" y="86.6106" width="74.6986" height="61.1691" stroke="white" stroke-width="2"/>
<path opacity="0.5" d="M234.071 69.5907L139.422 24.9883C150.093 8.53751 176.887 -30.8517 198.694 -56.8022C220.5 -82.7527 262.064 -119.902 280.12 -135.233L336.608 -48.8085C322.341 -35.6402 294.387 -11.1571 279.772 6.6839C266.094 23.3805 241.688 56.4224 234.071 69.5907Z" stroke="white" stroke-width="2"/>
<path opacity="0.5" d="M85.3704 99.4442L29.1145 134.663L182.687 129.45L85.3704 99.4442Z" stroke="white" stroke-width="2"/>
<ellipse opacity="0.5" cx="347.278" cy="112.111" rx="83.9779" ry="80.2844" stroke="white" stroke-width="2"/>
</g>
<line x1="78" y1="59.5" x2="337" y2="59.5" stroke="#F0F1F2"/>
<rect x="87" y="19" width="250" height="101" fill="white"/>
<path d="M294.231 48.8092C294.488 48.9544 298.399 47.8818 297.215 47.386C296.81 47.1507 296.46 47.2125 296.381 47.6257C296.188 46.8573 295.533 47.9667 295.146 47.7464C295.221 47.1908 294.244 48.4261 294.398 47.8409C290.039 47.655 281.899 53.7374 292.15 49.5804C291.076 49.4342 292.045 49.1266 292.529 49.2027C291.921 49.9611 293.833 49.1739 294.173 48.8998C293.564 48.9705 294.521 48.3637 294.229 48.8075L294.231 48.8092Z" fill="#101214"/>
<path d="M285.82 42.9458C286.377 42.8594 288.365 38.8209 288.626 38.4299C289.027 37.4902 287.73 37.5387 287.592 38.3207C287.5 38.4609 287.237 39.5806 286.932 39.1396C285.856 39.4812 285.887 41.4361 284.972 41.6424C285.144 41.8843 284.845 42.2195 284.936 42.3835C284.657 42.3794 284.539 42.7629 284.608 42.79C283.521 43.8556 285.088 44.8501 285.591 43.4173C285.644 43.4717 285.941 43.1997 285.82 42.9494L285.82 42.9458Z" fill="#101214"/>
<path d="M270.862 37.0972C270.418 37.7775 270.39 37.1053 270.61 36.7755C271.116 37.3019 270.991 35.9749 270.807 35.6487C270.792 35.7892 270.555 35.8331 270.569 35.5426C271.167 35.7547 271.303 32.0808 270.051 33.7937C270.053 33.8566 270.525 33.8929 270.378 33.9639C269.663 33.8275 270.16 34.4141 270.214 34.5778C269.842 34.5675 270.187 34.7286 270.033 34.7669C269.533 34.5587 270.366 35.5131 269.872 35.2785C269.108 36.1068 270.104 37.7914 269.409 38.4225C270.243 38.8818 268.981 41.5541 270.583 40.5433C270.95 39.388 271.157 38.4401 270.862 37.0972Z" fill="#101214"/>
<path d="M279.435 30.254C278.289 29.9421 278.527 32.4768 278.053 33.1561C277.378 33.9763 275.009 42.8774 277.278 40.5947C277.973 37.8947 279.014 35.8025 279.441 32.4225C279.551 31.8785 280.238 30.1952 279.435 30.254Z" fill="#101214"/>
<path d="M289.493 57.3958C288.833 58.324 287.892 57.1441 287.265 57.9061C286.32 59.3721 294.816 59.9869 294.546 58.4654C294.138 57.1884 290.097 57.9596 289.493 57.3958Z" fill="#101214"/>
<rect x="112" y="42" width="127" height="6" fill="#F0F1F2"/>
<rect x="112" y="70" width="199" height="6" fill="#F0F1F2"/>
<rect x="112" y="82" width="199" height="6" fill="#F0F1F2"/>
<rect x="112" y="94" width="104" height="6" fill="#F0F1F2"/>
<rect x="112" y="109" width="94" height="6" fill="#F0F1F2"/>
<rect x="219" y="109" width="94" height="6" fill="#F0F1F2"/>
<circle cx="116" cy="57" r="4" fill="#B3DF72"/>
<rect x="123" y="55" width="26" height="4" fill="#F0F1F2"/>
<rect x="136" y="46" width="143.062" height="42" rx="3.9375" fill="white"/>
<rect x="136" y="46" width="143.062" height="42" rx="3.9375" stroke="#964AC0" stroke-width="2.625"/>
<path fill-rule="evenodd" clip-rule="evenodd" d="M167.192 67C167.192 66.2751 167.78 65.6875 168.504 65.6875H170.906C171.631 65.6875 172.219 66.2751 172.219 67C172.219 67.7249 171.631 68.3125 170.906 68.3125H168.504C167.78 68.3125 167.192 67.7249 167.192 67Z" fill="#964AC0"/>
<path fill-rule="evenodd" clip-rule="evenodd" d="M160.406 55.1875C161.131 55.1875 161.719 55.7751 161.719 56.5V58.9019C161.719 59.6267 161.131 60.2144 160.406 60.2144C159.681 60.2144 159.094 59.6267 159.094 58.9019V56.5C159.094 55.7751 159.681 55.1875 160.406 55.1875Z" fill="#964AC0"/>
<path fill-rule="evenodd" clip-rule="evenodd" d="M148.594 67C148.594 66.2751 149.181 65.6875 149.906 65.6875H152.308C153.033 65.6875 153.621 66.2751 153.621 67C153.621 67.7249 153.033 68.3125 152.308 68.3125H149.906C149.181 68.3125 148.594 67.7249 148.594 67Z" fill="#964AC0"/>
<path fill-rule="evenodd" clip-rule="evenodd" d="M160.406 73.7855C161.131 73.7855 161.719 74.3731 161.719 75.098V77.4999C161.719 78.2248 161.131 78.8124 160.406 78.8124C159.681 78.8124 159.094 78.2248 159.094 77.4999V75.098C159.094 74.3731 159.681 73.7855 160.406 73.7855Z" fill="#964AC0"/>
<path fill-rule="evenodd" clip-rule="evenodd" d="M163.416 70.0094C163.928 69.4969 164.759 69.4969 165.272 70.0094L170.522 75.2594C171.035 75.772 171.035 76.603 170.522 77.1156C170.009 77.6281 169.178 77.6281 168.666 77.1156L163.416 71.8656C162.903 71.353 162.903 70.522 163.416 70.0094Z" fill="#964AC0"/>
<path fill-rule="evenodd" clip-rule="evenodd" d="M170.522 56.8844C171.035 57.397 171.035 58.228 170.522 58.7406L165.272 63.9906C164.759 64.5031 163.928 64.5031 163.416 63.9906C162.903 63.478 162.903 62.647 163.416 62.1344L168.666 56.8844C169.178 56.3719 170.009 56.3719 170.522 56.8844Z" fill="#964AC0"/>
<path fill-rule="evenodd" clip-rule="evenodd" d="M150.291 56.8844C150.803 56.3719 151.634 56.3719 152.147 56.8844L157.397 62.1344C157.909 62.647 157.909 63.478 157.397 63.9906C156.884 64.5031 156.053 64.5031 155.541 63.9906L150.291 58.7406C149.778 58.228 149.778 57.397 150.291 56.8844Z" fill="#964AC0"/>
<path fill-rule="evenodd" clip-rule="evenodd" d="M157.397 70.0094C157.909 70.522 157.909 71.353 157.397 71.8656L152.147 77.1156C151.634 77.6281 150.803 77.6281 150.291 77.1156C149.778 76.603 149.778 75.772 150.291 75.2594L155.541 70.0094C156.053 69.4969 156.884 69.4969 157.397 70.0094Z" fill="#964AC0"/>
<path d="M187.18 72.7812C186.305 72.7812 185.544 72.6458 184.898 72.375C184.253 72.1042 183.745 71.7266 183.375 71.2422C183.005 70.7578 182.794 70.1927 182.742 69.5469L182.734 69.4375H184.727L184.734 69.5156C184.766 69.8281 184.888 70.1016 185.102 70.3359C185.32 70.5651 185.612 70.7448 185.977 70.875C186.346 71.0052 186.768 71.0703 187.242 71.0703C187.695 71.0703 188.094 71.0026 188.438 70.8672C188.781 70.7266 189.049 70.5339 189.242 70.2891C189.44 70.0443 189.539 69.763 189.539 69.4453V69.4375C189.539 69.0312 189.383 68.7005 189.07 68.4453C188.758 68.1901 188.237 67.987 187.508 67.8359L186.297 67.5781C185.141 67.3385 184.299 66.9505 183.773 66.4141C183.247 65.8724 182.984 65.1797 182.984 64.3359V64.3281C182.99 63.651 183.169 63.0599 183.523 62.5547C183.883 62.0495 184.378 61.6562 185.008 61.375C185.638 61.0885 186.359 60.9453 187.172 60.9453C188.01 60.9453 188.734 61.0859 189.344 61.3672C189.953 61.6432 190.432 62.0208 190.781 62.5C191.13 62.9792 191.328 63.5234 191.375 64.1328L191.383 64.2344H189.43L189.414 64.1406C189.367 63.849 189.247 63.5938 189.055 63.375C188.862 63.151 188.604 62.974 188.281 62.8438C187.964 62.7135 187.591 62.651 187.164 62.6562C186.747 62.6562 186.38 62.7188 186.062 62.8438C185.745 62.9688 185.495 63.1458 185.312 63.375C185.13 63.599 185.039 63.8724 185.039 64.1953V64.2031C185.039 64.5938 185.193 64.9193 185.5 65.1797C185.807 65.4349 186.31 65.6354 187.008 65.7812L188.219 66.0391C189.01 66.2005 189.654 66.4193 190.148 66.6953C190.643 66.9714 191.008 67.3151 191.242 67.7266C191.477 68.138 191.594 68.6302 191.594 69.2031V69.2109C191.594 69.9401 191.414 70.5729 191.055 71.1094C190.695 71.6406 190.185 72.0521 189.523 72.3438C188.862 72.6354 188.081 72.7812 187.18 72.7812ZM196.492 72.6719C195.852 72.6719 195.315 72.5495 194.883 72.3047C194.451 72.0547 194.125 71.6927 193.906 71.2188C193.688 70.7396 193.578 70.1615 193.578 69.4844V63.9609H195.555V69.0312C195.555 69.6875 195.685 70.1823 195.945 70.5156C196.206 70.8438 196.628 71.0078 197.211 71.0078C197.518 71.0078 197.792 70.9609 198.031 70.8672C198.271 70.7682 198.471 70.6302 198.633 70.4531C198.794 70.2708 198.917 70.0521 199 69.7969C199.083 69.5417 199.125 69.2552 199.125 68.9375V63.9609H201.094V72.5H199.125V71.1953H198.984C198.854 71.5026 198.672 71.7682 198.438 71.9922C198.203 72.2109 197.922 72.3802 197.594 72.5C197.271 72.6146 196.904 72.6719 196.492 72.6719ZM203.469 72.5V63.9609H205.445V65.2812H205.578C205.766 64.8073 206.062 64.4401 206.469 64.1797C206.88 63.9193 207.367 63.7891 207.93 63.7891C208.315 63.7891 208.664 63.8516 208.977 63.9766C209.289 64.1016 209.555 64.2812 209.773 64.5156C209.997 64.7448 210.172 65.0182 210.297 65.3359H210.43C210.57 65.0234 210.766 64.7526 211.016 64.5234C211.271 64.2891 211.57 64.1094 211.914 63.9844C212.258 63.8542 212.625 63.7891 213.016 63.7891C213.589 63.7891 214.081 63.9036 214.492 64.1328C214.904 64.3568 215.219 64.6797 215.438 65.1016C215.656 65.5234 215.766 66.0312 215.766 66.625V72.5H213.797V67.1094C213.797 66.7396 213.74 66.4323 213.625 66.1875C213.516 65.9427 213.346 65.7578 213.117 65.6328C212.888 65.5078 212.602 65.4453 212.258 65.4453C211.924 65.4453 211.633 65.5234 211.383 65.6797C211.133 65.8307 210.94 66.0365 210.805 66.2969C210.669 66.5521 210.602 66.8438 210.602 67.1719V72.5H208.625V66.9688C208.625 66.651 208.562 66.3802 208.438 66.1562C208.318 65.9271 208.143 65.7526 207.914 65.6328C207.685 65.5078 207.414 65.4453 207.102 65.4453C206.784 65.4453 206.5 65.5286 206.25 65.6953C206 65.8568 205.802 66.0781 205.656 66.3594C205.516 66.6354 205.445 66.9505 205.445 67.3047V72.5H203.469ZM218.062 72.5V63.9609H220.039V65.2812H220.172C220.359 64.8073 220.656 64.4401 221.062 64.1797C221.474 63.9193 221.961 63.7891 222.523 63.7891C222.909 63.7891 223.258 63.8516 223.57 63.9766C223.883 64.1016 224.148 64.2812 224.367 64.5156C224.591 64.7448 224.766 65.0182 224.891 65.3359H225.023C225.164 65.0234 225.359 64.7526 225.609 64.5234C225.865 64.2891 226.164 64.1094 226.508 63.9844C226.852 63.8542 227.219 63.7891 227.609 63.7891C228.182 63.7891 228.674 63.9036 229.086 64.1328C229.497 64.3568 229.812 64.6797 230.031 65.1016C230.25 65.5234 230.359 66.0312 230.359 66.625V72.5H228.391V67.1094C228.391 66.7396 228.333 66.4323 228.219 66.1875C228.109 65.9427 227.94 65.7578 227.711 65.6328C227.482 65.5078 227.195 65.4453 226.852 65.4453C226.518 65.4453 226.227 65.5234 225.977 65.6797C225.727 65.8307 225.534 66.0365 225.398 66.2969C225.263 66.5521 225.195 66.8438 225.195 67.1719V72.5H223.219V66.9688C223.219 66.651 223.156 66.3802 223.031 66.1562C222.911 65.9271 222.737 65.7526 222.508 65.6328C222.279 65.5078 222.008 65.4453 221.695 65.4453C221.378 65.4453 221.094 65.5286 220.844 65.6953C220.594 65.8568 220.396 66.0781 220.25 66.3594C220.109 66.6354 220.039 66.9505 220.039 67.3047V72.5H218.062ZM234.992 72.6406C234.451 72.6406 233.969 72.5365 233.547 72.3281C233.125 72.1198 232.792 71.8229 232.547 71.4375C232.307 71.0521 232.188 70.6016 232.188 70.0859V70.0703C232.188 69.5599 232.312 69.1224 232.562 68.7578C232.812 68.3932 233.18 68.1068 233.664 67.8984C234.148 67.6901 234.737 67.5651 235.43 67.5234L238.594 67.3359V68.625L235.711 68.8047C235.174 68.8359 234.776 68.9505 234.516 69.1484C234.26 69.3464 234.133 69.6198 234.133 69.9688V69.9844C234.133 70.3438 234.268 70.625 234.539 70.8281C234.815 71.0312 235.167 71.1328 235.594 71.1328C235.984 71.1328 236.331 71.0573 236.633 70.9062C236.94 70.75 237.18 70.5391 237.352 70.2734C237.529 70.0026 237.617 69.7005 237.617 69.3672V66.6641C237.617 66.2422 237.482 65.9193 237.211 65.6953C236.945 65.4661 236.552 65.3516 236.031 65.3516C235.589 65.3516 235.227 65.4297 234.945 65.5859C234.664 65.737 234.477 65.9505 234.383 66.2266L234.367 66.2578H232.508L232.516 66.1953C232.583 65.7109 232.773 65.2891 233.086 64.9297C233.398 64.5703 233.812 64.2917 234.328 64.0938C234.849 63.8906 235.448 63.7891 236.125 63.7891C236.865 63.7891 237.49 63.9036 238 64.1328C238.516 64.3568 238.906 64.6849 239.172 65.1172C239.438 65.5443 239.57 66.0599 239.57 66.6641V72.5H237.617V71.3281H237.484C237.328 71.6042 237.128 71.8411 236.883 72.0391C236.638 72.2318 236.354 72.3802 236.031 72.4844C235.714 72.5885 235.367 72.6406 234.992 72.6406ZM241.891 72.5V63.9609H243.867V65.2656H244C244.146 64.8073 244.409 64.4531 244.789 64.2031C245.169 63.9479 245.638 63.8203 246.195 63.8203C246.346 63.8203 246.492 63.8281 246.633 63.8438C246.773 63.8594 246.893 63.8802 246.992 63.9062V65.6719C246.831 65.6354 246.669 65.6094 246.508 65.5938C246.352 65.5729 246.188 65.5625 246.016 65.5625C245.583 65.5625 245.206 65.6432 244.883 65.8047C244.56 65.9661 244.31 66.1953 244.133 66.4922C243.956 66.7891 243.867 67.1432 243.867 67.5547V72.5H241.891ZM248.586 72.5V63.9609H250.562V72.5H248.586ZM249.578 62.5391C249.26 62.5391 248.984 62.4271 248.75 62.2031C248.521 61.974 248.406 61.7005 248.406 61.3828C248.406 61.0599 248.521 60.7865 248.75 60.5625C248.984 60.3333 249.26 60.2188 249.578 60.2188C249.901 60.2188 250.177 60.3333 250.406 60.5625C250.635 60.7865 250.75 61.0599 250.75 61.3828C250.75 61.7005 250.635 61.974 250.406 62.2031C250.177 62.4271 249.901 62.5391 249.578 62.5391ZM252.758 72.5V71.2969L257.305 65.6172V65.4766H252.805V63.9609H259.633V65.2656L255.266 70.8438V70.9766H259.703V72.5H252.758ZM265.344 72.6719C264.495 72.6719 263.763 72.4922 263.148 72.1328C262.539 71.7734 262.07 71.263 261.742 70.6016C261.414 69.9401 261.25 69.1562 261.25 68.25V68.2422C261.25 67.3411 261.414 66.5573 261.742 65.8906C262.07 65.224 262.534 64.7083 263.133 64.3438C263.732 63.974 264.438 63.7891 265.25 63.7891C266.062 63.7891 266.763 63.9688 267.352 64.3281C267.94 64.6823 268.393 65.1797 268.711 65.8203C269.029 66.4609 269.188 67.2109 269.188 68.0703V68.7188H262.242V67.4062H268.227L267.289 68.6406V67.8516C267.289 67.2891 267.203 66.8229 267.031 66.4531C266.859 66.0781 266.622 65.7969 266.32 65.6094C266.018 65.4219 265.669 65.3281 265.273 65.3281C264.878 65.3281 264.526 65.4245 264.219 65.6172C263.911 65.8099 263.667 66.0964 263.484 66.4766C263.307 66.8516 263.219 67.3099 263.219 67.8516V68.6406C263.219 69.1667 263.305 69.6146 263.477 69.9844C263.654 70.3542 263.904 70.638 264.227 70.8359C264.555 71.0339 264.94 71.1328 265.383 71.1328C265.732 71.1328 266.031 71.0833 266.281 70.9844C266.531 70.8802 266.734 70.7578 266.891 70.6172C267.047 70.4714 267.154 70.3359 267.211 70.2109L267.242 70.1562H269.109L269.094 70.2266C269.026 70.5026 268.901 70.7839 268.719 71.0703C268.536 71.3568 268.294 71.6224 267.992 71.8672C267.69 72.1068 267.318 72.3021 266.875 72.4531C266.438 72.599 265.927 72.6719 265.344 72.6719Z" fill="#09326C"/>
<path d="M118.623 86.4489L142.849 80.0605L133.022 103.082L128.595 92.366L118.623 86.4489Z" fill="#101214"/>
</g>
<defs>
<clipPath id="clip0_7725_22694">
<rect width="415" height="120" fill="white"/>
</clipPath>
</defs>
</svg>
