<svg width="415" height="120" viewBox="0 0 415 120" fill="none" xmlns="http://www.w3.org/2000/svg">
<g clip-path="url(#clip0_7725_22219)">
<rect width="415" height="251" transform="translate(0 -115)" fill="#CFE1FD"/>
<mask id="mask0_7725_22219" style="mask-type:alpha" maskUnits="userSpaceOnUse" x="0" y="-115" width="415" height="251">
<rect y="-115" width="415" height="251" fill="#F0F1F2"/>
</mask>
<g mask="url(#mask0_7725_22219)">
<path opacity="0.5" d="M55.6759 92.0223L-27.6061 20.5425L-37.0014 9.30502L19.8345 -72.3696L118.195 -50.8214L107.408 72.3277L55.6759 92.0223Z" stroke="white" stroke-width="2"/>
<rect x="209.482" y="86.6106" width="74.6986" height="61.1691" stroke="white" stroke-width="2"/>
<path opacity="0.5" d="M234.071 69.5906L139.422 24.9882C150.093 8.53738 176.887 -30.8518 198.694 -56.8023C220.5 -82.7529 262.064 -119.902 280.12 -135.233L336.608 -48.8086C322.341 -35.6403 294.387 -11.1572 279.772 6.68378C266.094 23.3804 241.688 56.4223 234.071 69.5906Z" stroke="white" stroke-width="2"/>
<path opacity="0.5" d="M85.3704 99.4443L29.1145 134.663L182.687 129.45L85.3704 99.4443Z" stroke="white" stroke-width="2"/>
<ellipse opacity="0.5" cx="347.278" cy="112.111" rx="83.9779" ry="80.2844" stroke="white" stroke-width="2"/>
</g>
<rect x="103" y="21" width="221" height="101" fill="white"/>
<rect x="118" y="45" width="99" height="6" fill="#F0F1F2"/>
<rect x="118" y="75" width="191" height="6" fill="#F0F1F2"/>
<rect x="118" y="87" width="191" height="6" fill="#F0F1F2"/>
<rect x="118" y="99" width="100" height="6" fill="#F0F1F2"/>
<g clip-path="url(#clip1_7725_22219)">
<path d="M161 75.5C161 74.6716 161.672 74 162.5 74H167.5C168.328 74 169 74.6716 169 75.5V83.75C169 84.5784 168.328 85.25 167.5 85.25H161V75.5Z" fill="#0C66E4"/>
<path d="M162.884 82L164.601 77.244H165.399L167.116 82H166.338L165.91 80.7146H164.09L163.659 82H162.884ZM164.97 78.0779L164.288 80.1213H165.712L165.026 78.0779H164.97Z" fill="white"/>
</g>
<rect x="161" y="85.25" width="1.5" height="12.75" fill="#0C66E4"/>
<g clip-path="url(#clip2_7725_22219)">
<path d="M250.364 75.5C250.364 74.6716 251.035 74 251.864 74H256.864C257.692 74 258.364 74.6716 258.364 75.5V83.75C258.364 84.5784 257.692 85.25 256.864 85.25H250.364V75.5Z" fill="#FFA900"/>
<path d="M253.994 82V77.8801H252.498V77.244H256.226V77.8801H254.733V82H253.994Z" fill="white"/>
</g>
<rect x="250.364" y="85.25" width="1.5" height="12.75" fill="#FFA900"/>
<g clip-path="url(#clip3_7725_22219)">
<path d="M197.572 87.5C197.572 86.6716 198.243 86 199.072 86H203.072C203.9 86 204.572 86.6716 204.572 87.5V95.75C204.572 96.5784 203.9 97.25 203.072 97.25H197.572V87.5Z" fill="#BF63F3"/>
<path d="M199.717 94V89.244H200.456V93.3639H202.684V94H199.717Z" fill="white"/>
</g>
<rect x="197.572" y="97.25" width="1.5" height="12.75" fill="#BF63F3"/>
<g clip-path="url(#clip4_7725_22219)">
<path d="M133.144 87.5C133.144 86.6716 133.816 86 134.644 86H139.644C140.472 86 141.144 86.6716 141.144 87.5V95.75C141.144 96.5784 140.472 97.25 139.644 97.25H133.144V87.5Z" fill="#82B536"/>
<path d="M137.243 94.1154C135.921 94.1154 135.097 93.1595 135.097 91.627V91.6204C135.097 90.0845 135.918 89.1287 137.24 89.1287C138.288 89.1287 139.092 89.7911 139.217 90.7371L139.214 90.7535H138.482V90.7437C138.344 90.1603 137.866 89.7812 137.24 89.7812C136.386 89.7812 135.852 90.4899 135.852 91.6204V91.627C135.852 92.7542 136.386 93.4628 137.243 93.4628C137.872 93.4628 138.344 93.1266 138.479 92.5894L138.485 92.5762H139.217V92.5959C139.079 93.5089 138.304 94.1154 137.243 94.1154Z" fill="white"/>
</g>
<rect x="133.144" y="97.25" width="1.5" height="12.75" fill="#82B536"/>
<rect x="0.2" y="-0.2" width="10.4" height="10.4" rx="5.2" transform="matrix(-1 0 0 1 128.4 55)" fill="#BF63F3"/>
<rect x="0.2" y="-0.2" width="10.4" height="10.4" rx="5.2" transform="matrix(-1 0 0 1 128.4 55)" stroke="white" stroke-width="0.4"/>
<rect x="0.2" y="-0.2" width="10.4" height="10.4" rx="5.2" transform="matrix(-1 0 0 1 138.4 55)" fill="#1868DB"/>
<rect x="0.2" y="-0.2" width="10.4" height="10.4" rx="5.2" transform="matrix(-1 0 0 1 138.4 55)" stroke="white" stroke-width="0.4"/>
<rect x="0.2" y="-0.2" width="10.2" height="10.4" rx="5.1" transform="matrix(-1 0 0 1 148.2 55)" fill="#82B536"/>
<rect x="0.2" y="-0.2" width="10.2" height="10.4" rx="5.1" transform="matrix(-1 0 0 1 148.2 55)" stroke="white" stroke-width="0.4"/>
<rect x="0.2" y="-0.2" width="10.4" height="10.4" rx="5.2" transform="matrix(-1 0 0 1 158.2 55)" fill="#FFA900"/>
<rect x="0.2" y="-0.2" width="10.4" height="10.4" rx="5.2" transform="matrix(-1 0 0 1 158.2 55)" stroke="white" stroke-width="0.4"/>
<rect x="160.679" y="58" width="26" height="4" fill="#F0F1F2"/>
<circle cx="311" cy="73" r="23" fill="#AF59E0" stroke="white" stroke-width="2"/>
<path d="M305.75 63.5C308.235 63.5 310.25 65.5158 310.25 68.0027V70.25H316.99C318.238 70.25 319.25 71.2484 319.25 72.4996V79.2504C319.25 80.4928 318.235 81.5 316.99 81.5H308.01C306.762 81.5 305.75 80.5016 305.75 79.2504V72.4996C305.75 71.2602 306.76 70.2549 308.001 70.25L308 68.0027C308 66.7582 306.992 65.75 305.75 65.75C304.511 65.75 303.5 66.7604 303.5 68.0027V71.375H301.25V68.0027C301.25 65.5159 303.27 63.5 305.75 63.5ZM312.5 73.625C311.257 73.625 310.25 74.6324 310.25 75.875C310.25 77.1176 311.257 78.125 312.5 78.125C313.743 78.125 314.75 77.1176 314.75 75.875C314.75 74.6324 313.743 73.625 312.5 73.625Z" fill="white"/>
</g>
<defs>
<clipPath id="clip0_7725_22219">
<rect width="415" height="120" fill="white"/>
</clipPath>
<clipPath id="clip1_7725_22219">
<path d="M161 75.5C161 74.6716 161.672 74 162.5 74H167.5C168.328 74 169 74.6716 169 75.5V83.75C169 84.5784 168.328 85.25 167.5 85.25H161V75.5Z" fill="white"/>
</clipPath>
<clipPath id="clip2_7725_22219">
<path d="M250.364 75.5C250.364 74.6716 251.035 74 251.864 74H256.864C257.692 74 258.364 74.6716 258.364 75.5V83.75C258.364 84.5784 257.692 85.25 256.864 85.25H250.364V75.5Z" fill="white"/>
</clipPath>
<clipPath id="clip3_7725_22219">
<path d="M197.572 87.5C197.572 86.6716 198.243 86 199.072 86H203.072C203.9 86 204.572 86.6716 204.572 87.5V95.75C204.572 96.5784 203.9 97.25 203.072 97.25H197.572V87.5Z" fill="white"/>
</clipPath>
<clipPath id="clip4_7725_22219">
<path d="M133.144 87.5C133.144 86.6716 133.816 86 134.644 86H139.644C140.472 86 141.144 86.6716 141.144 87.5V95.75C141.144 96.5784 140.472 97.25 139.644 97.25H133.144V87.5Z" fill="white"/>
</clipPath>
</defs>
</svg>
