<svg width="415" height="120" viewBox="0 0 415 120" fill="none" xmlns="http://www.w3.org/2000/svg">
<g clip-path="url(#clip0_7725_22511)">
<rect width="415" height="251" transform="translate(0 -115)" fill="#CFE1FD"/>
<mask id="mask0_7725_22511" style="mask-type:alpha" maskUnits="userSpaceOnUse" x="0" y="-115" width="415" height="251">
<rect y="-115" width="415" height="251" fill="#F0F1F2"/>
</mask>
<g mask="url(#mask0_7725_22511)">
<path opacity="0.5" d="M55.6758 92.0223L-27.6061 20.5425L-37.0015 9.30502L19.8344 -72.3696L118.195 -50.8214L107.408 72.3277L55.6758 92.0223Z" stroke="white" stroke-width="2"/>
<rect x="209.482" y="86.6106" width="74.6986" height="61.1691" stroke="white" stroke-width="2"/>
<path opacity="0.5" d="M234.071 69.5906L139.422 24.9882C150.093 8.53738 176.887 -30.8518 198.694 -56.8023C220.5 -82.7529 262.064 -119.902 280.12 -135.233L336.608 -48.8086C322.341 -35.6403 294.387 -11.1572 279.772 6.68378C266.094 23.3804 241.688 56.4223 234.071 69.5906Z" stroke="white" stroke-width="2"/>
<path opacity="0.5" d="M85.3704 99.4443L29.1145 134.663L182.687 129.45L85.3704 99.4443Z" stroke="white" stroke-width="2"/>
<ellipse opacity="0.5" cx="347.278" cy="112.111" rx="83.9779" ry="80.2844" stroke="white" stroke-width="2"/>
</g>
<rect x="105" y="19" width="220" height="101" fill="white"/>
<rect x="125.529" y="39.2801" width="182.293" height="28.3567" stroke="#F0F1F2" stroke-width="1.35032"/>
<rect x="125.529" y="39.2801" width="32.3176" height="28.3567" fill="white"/>
<rect x="125.529" y="39.2801" width="32.3176" height="28.3567" stroke="#F0F1F2" stroke-width="1.35032"/>
<rect x="157.666" y="39.2801" width="30.7873" height="28.3567" fill="white"/>
<rect x="157.666" y="39.2801" width="30.7873" height="28.3567" stroke="#F0F1F2" stroke-width="1.35032"/>
<rect x="188.273" y="39.2801" width="29.2569" height="28.3567" fill="white"/>
<rect x="188.273" y="39.2801" width="29.2569" height="28.3567" stroke="#F0F1F2" stroke-width="1.35032"/>
<rect x="217.35" y="39.2801" width="30.7873" height="28.3567" fill="white"/>
<rect x="217.35" y="39.2801" width="30.7873" height="28.3567" stroke="#F0F1F2" stroke-width="1.35032"/>
<rect x="247.958" y="39.2801" width="30.7873" height="28.3567" fill="white"/>
<rect x="247.958" y="39.2801" width="30.7873" height="28.3567" stroke="#F0F1F2" stroke-width="1.35032"/>
<rect x="278.565" y="39.2801" width="29.2569" height="28.3567" fill="white"/>
<rect x="278.565" y="39.2801" width="29.2569" height="28.3567" stroke="#F0F1F2" stroke-width="1.35032"/>
<rect x="125.529" y="67.6368" width="32.3176" height="27.8265" fill="white"/>
<rect x="125.529" y="67.6368" width="32.3176" height="27.8265" stroke="#F0F1F2" stroke-width="1.35032"/>
<rect x="157.666" y="67.6368" width="30.7873" height="27.8265" fill="white"/>
<rect x="157.666" y="67.6368" width="30.7873" height="27.8265" stroke="#F0F1F2" stroke-width="1.35032"/>
<rect x="188.273" y="67.6368" width="29.2569" height="27.8265" fill="white"/>
<rect x="188.273" y="67.6368" width="29.2569" height="27.8265" stroke="#F0F1F2" stroke-width="1.35032"/>
<rect x="217.35" y="67.6368" width="30.7873" height="27.8265" fill="white"/>
<rect x="217.35" y="67.6368" width="30.7873" height="27.8265" stroke="#F0F1F2" stroke-width="1.35032"/>
<rect x="247.958" y="67.6368" width="30.7873" height="27.8265" fill="white"/>
<rect x="247.958" y="67.6368" width="30.7873" height="27.8265" stroke="#F0F1F2" stroke-width="1.35032"/>
<rect x="278.565" y="67.6368" width="29.2569" height="27.8265" fill="white"/>
<rect x="278.565" y="67.6368" width="29.2569" height="27.8265" stroke="#F0F1F2" stroke-width="1.35032"/>
<rect x="125.529" y="95.4635" width="32.3176" height="27.8265" fill="white"/>
<rect x="125.529" y="95.4635" width="32.3176" height="27.8265" stroke="#F0F1F2" stroke-width="1.35032"/>
<rect x="157.666" y="95.4635" width="30.7873" height="27.8265" fill="white"/>
<rect x="157.666" y="95.4635" width="30.7873" height="27.8265" stroke="#F0F1F2" stroke-width="1.35032"/>
<rect x="188.273" y="95.4635" width="29.2569" height="27.8265" fill="white"/>
<rect x="188.273" y="95.4635" width="29.2569" height="27.8265" stroke="#F0F1F2" stroke-width="1.35032"/>
<rect x="217.35" y="95.4635" width="30.7873" height="27.8265" fill="white"/>
<rect x="217.35" y="95.4635" width="30.7873" height="27.8265" stroke="#F0F1F2" stroke-width="1.35032"/>
<rect x="247.958" y="95.4635" width="30.7873" height="27.8265" fill="white"/>
<rect x="247.958" y="95.4635" width="30.7873" height="27.8265" stroke="#F0F1F2" stroke-width="1.35032"/>
<rect x="278.565" y="95.4635" width="29.2569" height="27.8265" fill="white"/>
<rect x="278.565" y="95.4635" width="29.2569" height="27.8265" stroke="#F0F1F2" stroke-width="1.35032"/>
<rect x="193.72" y="100.42" width="18.9045" height="5.40127" fill="#1868DB"/>
<rect x="254" y="100.42" width="18.9045" height="5.40127" fill="#964AC0"/>
<rect x="162.662" y="46.0574" width="20.2548" height="5.40127" fill="#82B536"/>
<rect x="193.72" y="107.172" width="18.9045" height="5.40127" fill="#CFE1FD"/>
<rect x="164" y="73" width="18.9045" height="5.40127" fill="#FFC716"/>
<path d="M138.604 88.8042C139.144 87.3554 139.876 85.8756 140.514 84.3169L140.585 84.8082C140.638 85.1329 140.675 85.4664 140.706 85.8053L140.733 86.0724L140.781 86.3294L140.886 86.8467C140.926 87.0187 140.958 87.1951 141.016 87.355C141.075 87.516 141.143 87.6725 141.214 87.8268C141.284 87.752 141.361 87.746 141.338 87.8138L141.238 87.8757C141.38 88.0447 141.462 88.2306 141.56 88.3923C141.655 88.5529 141.733 88.7137 141.814 88.8723C141.897 89.0276 141.976 89.1851 142.093 89.3085C142.214 89.4297 142.362 89.531 142.551 89.6036C142.551 89.6036 142.39 89.6551 142.386 89.6574C143.21 90.701 144.391 91.6827 145.786 92.2361C147.172 92.8125 148.749 92.9237 150.146 92.6873L150.133 92.67L150.141 92.6504C150.081 92.6247 149.957 92.6071 149.812 92.5844C149.667 92.5539 149.497 92.5204 149.337 92.4912C149.175 92.4653 149.023 92.4393 148.908 92.4217C148.795 92.4009 148.727 92.3796 148.727 92.3796C148.974 92.2521 149.217 92.1497 149.453 92.1259C149.69 92.0945 149.922 92.1154 150.161 92.12C150.4 92.1322 150.642 92.1651 150.884 92.1751C151.127 92.1698 151.375 92.1546 151.616 92.0981L151.61 92.2584C151.187 92.3383 150.81 92.5041 150.654 92.5774C151.408 92.5678 152.588 92.3866 153.733 91.8687C154.88 91.3748 155.967 90.6076 156.593 89.9817C156.515 89.906 156.184 90.4401 155.949 90.1813C156.289 89.9265 156.615 89.6423 156.916 89.3671C157.019 89.5735 156.803 89.6604 156.787 89.7271C156.869 89.6958 157.114 89.5247 157.479 89.2457C157.664 89.1111 157.857 88.9098 158.081 88.7028C158.193 88.595 158.31 88.486 158.432 88.3672C158.55 88.243 158.665 88.1057 158.79 87.965C159.034 87.6848 159.302 87.3913 159.538 87.0381C159.781 86.6957 160.043 86.3455 160.26 85.9455C160.373 85.7493 160.486 85.5532 160.601 85.3537C160.718 85.1553 160.801 84.9386 160.9 84.7327C160.995 84.5214 161.092 84.3143 161.187 84.1063C161.276 83.8961 161.345 83.6774 161.42 83.4651C162.022 81.7671 162.233 80.1476 162.183 79.2623C162.158 78.3603 162.02 78.1542 161.713 79.0393L161.606 78.967C161.573 79.1855 161.544 79.3941 161.513 79.6016C161.483 79.8059 161.447 80.0079 161.387 80.207C161.268 80.6061 161.158 81.0129 160.943 81.4412C160.929 81.5668 160.903 81.5789 161.013 81.5911C161.022 81.6259 161.038 81.6869 161.087 81.6767C161.353 81.6963 161.174 81.9694 161.151 82.0951C160.956 82.0203 160.81 82.1557 160.697 82.3988C160.579 82.6431 160.457 82.9866 160.368 83.3637C160.346 83.4588 160.323 83.5539 160.302 83.6533C160.274 83.7463 160.245 83.8425 160.215 83.9344C160.161 84.1247 160.109 84.304 160.06 84.4692C159.974 84.8048 159.869 85.0587 159.812 85.1432C159.628 85.0727 159.528 85.2394 159.443 85.4397C159.358 85.64 159.281 85.8829 159.146 85.9222C159.144 85.8982 159.135 85.7586 159.129 85.7368C159.05 85.7418 158.903 85.947 158.732 86.2386C158.641 86.3823 158.559 86.5608 158.446 86.7221C158.337 86.8888 158.226 87.0589 158.118 87.2223C157.912 87.5611 157.684 87.8248 157.553 87.9513C157.418 88.0801 157.371 88.0565 157.468 87.7797C157.26 87.9047 157.069 88.0677 156.847 88.1983C156.629 88.3343 156.408 88.4812 156.187 88.6391C155.724 88.9156 155.248 89.2326 154.732 89.502C153.708 90.0636 152.568 90.5564 151.4 90.8399C150.235 91.1245 149.048 91.1944 148.006 91.0002C147.75 90.938 147.489 90.9009 147.255 90.809C147.02 90.7172 146.789 90.6308 146.574 90.5278C146.367 90.4052 146.17 90.2792 145.986 90.1542C145.802 90.0259 145.649 89.8527 145.501 89.7045L145.494 89.771C145.479 89.7417 145.397 89.726 145.416 89.6528C145.222 89.6751 144.953 89.553 144.713 89.4514C144.596 89.3978 144.486 89.3475 144.41 89.3034C144.339 89.2538 144.295 89.2236 144.295 89.2236L143.894 88.976L143.693 88.8479L143.508 88.6956C143.508 88.6956 143.45 88.6012 143.36 88.4547C143.267 88.3104 143.129 88.1163 143.009 87.8795C142.945 87.7633 142.875 87.6482 142.801 87.5354C142.727 87.4226 142.648 87.3153 142.588 87.1969C142.455 86.97 142.311 86.777 142.16 86.6627C142.073 86.4474 142.04 86.1968 141.976 85.9682C141.925 85.7297 141.846 85.5101 141.826 85.2572C141.781 84.9128 141.52 83.7128 141.369 82.8501C142.207 82.9424 143.637 84.3824 144.353 84.1168L145.093 84.799C145.592 85.1232 146.747 84.0358 145.941 83.5582C144.495 82.7739 143.106 80.9791 141.143 81.1885L141.151 81.2037C141.151 81.2037 140.75 81.1383 140.791 81.0856C140.554 81.1323 140.244 81.3149 140.244 81.3149C139.558 81.9773 139.121 83.7296 139.228 84.3952C139.089 84.2742 137.336 89.8009 138.605 88.8009L138.604 88.8042Z" fill="#101214"/>
<rect x="162.662" y="52.8091" width="20.2548" height="5.40127" fill="#D3F1A7"/>
<rect x="88" y="46" width="48" height="48" rx="24" fill="#AF59E0"/>
<rect x="88" y="46" width="48" height="48" rx="24" stroke="white" stroke-width="2"/>
<path d="M114.497 65L117.497 64L114.497 63L113.497 60L112.497 63L109.497 64L112.497 65L113.497 68L114.497 65Z" fill="white"/>
<path d="M102.83 80.0001L118.523 75.4535L107.203 64.1335L102.83 80.0001Z" fill="white"/>
<path d="M118.497 72C119.969 72 121.163 70.8061 121.163 69.3333C121.163 67.8606 119.969 66.6667 118.497 66.6667C117.024 66.6667 115.83 67.8606 115.83 69.3333C115.83 70.8061 117.024 72 118.497 72Z" fill="white"/>
<path d="M121.497 63.3333C121.497 64.0697 120.9 64.6667 120.163 64.6667C119.427 64.6667 118.83 64.0697 118.83 63.3333C118.83 62.597 119.427 62 120.163 62C120.9 62 121.497 62.597 121.497 63.3333Z" fill="white"/>
<path d="M89.9645 39.659C90.085 39.3903 88.6491 35.5969 88.2669 36.8221C88.0708 37.2478 88.1652 37.5907 88.5841 37.6304C87.8372 37.8947 89.0033 38.442 88.8204 38.8483C88.2601 38.8258 89.5819 39.6821 88.9848 39.5838C89.2098 43.9409 96.031 51.4732 90.9282 41.6589C90.8836 42.7417 90.4862 41.8058 90.5165 41.3173C91.3286 41.8504 90.3651 40.0214 90.0603 39.7086C90.1879 40.3083 89.4938 39.4131 89.963 39.6612L89.9645 39.659Z" fill="#101214"/>
<path d="M84.9183 48.5848C84.7799 48.0378 80.5723 46.4389 80.1585 46.216C79.1852 45.9048 79.3555 47.1915 80.147 47.2551C80.2953 47.3343 81.4348 47.4903 81.0245 47.836C81.4657 48.8746 83.409 48.6598 83.7005 49.5518C83.9251 49.3574 84.287 49.6238 84.4417 49.5177C84.4638 49.7953 84.8568 49.8774 84.8772 49.8059C86.0403 50.7878 86.8831 49.1342 85.4093 48.7686C85.4585 48.7105 85.1597 48.4398 84.9219 48.5841L84.9183 48.5848Z" fill="#101214"/>
<path d="M80.503 64.0266C81.222 64.4044 80.5554 64.4958 80.2064 64.3078C80.6829 63.7543 79.3735 64.004 79.0661 64.2177C79.2073 64.2193 79.2734 64.4511 78.9829 64.4644C79.1378 63.8492 75.4674 64.0597 77.2905 65.1448C77.3529 65.1369 77.3446 64.6632 77.4292 64.8032C77.3606 65.528 77.8979 64.9781 78.0558 64.909C78.0804 65.2801 78.2085 64.9217 78.261 65.0715C78.1007 65.5881 78.9725 64.6692 78.7855 65.1833C79.682 65.8659 81.2654 64.7156 81.959 65.3479C82.3379 64.4746 85.1171 65.4797 83.96 63.9802C82.7754 63.7237 81.8121 63.606 80.503 64.0266Z" fill="#101214"/>
<path d="M72.8837 56.1352C72.6809 57.306 75.182 56.8305 75.9029 57.238C76.783 57.8334 85.8674 59.354 83.3814 57.3095C80.6281 56.8725 78.4472 56.033 75.042 55.9251C74.4901 55.8672 72.7495 55.3414 72.8837 56.1352Z" fill="#101214"/>
<path d="M98.959 43.5689C99.9452 44.1388 98.859 45.1862 99.6766 45.7389C101.225 46.5413 101.038 38.0257 99.5484 38.437C98.3155 38.9636 99.4634 42.9143 98.959 43.5689Z" fill="#101214"/>
</g>
<defs>
<clipPath id="clip0_7725_22511">
<rect width="415" height="120" fill="white"/>
</clipPath>
</defs>
</svg>
