<svg width="415" height="120" viewBox="0 0 415 120" fill="none" xmlns="http://www.w3.org/2000/svg">
<g clip-path="url(#clip0_7725_22275)">
<rect width="415" height="251" transform="translate(0 -115)" fill="#CFE1FD"/>
<mask id="mask0_7725_22275" style="mask-type:alpha" maskUnits="userSpaceOnUse" x="0" y="-115" width="415" height="251">
<rect y="-115" width="415" height="251" fill="#F0F1F2"/>
</mask>
<g mask="url(#mask0_7725_22275)">
<path opacity="0.5" d="M55.6759 92.0223L-27.606 20.5425L-37.0014 9.30502L19.8345 -72.3696L118.195 -50.8214L107.408 72.3277L55.6759 92.0223Z" stroke="white" stroke-width="2"/>
<rect x="209.482" y="86.6106" width="74.6986" height="61.1691" stroke="white" stroke-width="2"/>
<path opacity="0.5" d="M234.071 69.5906L139.422 24.9882C150.093 8.53738 176.887 -30.8518 198.694 -56.8023C220.5 -82.7529 262.064 -119.902 280.12 -135.233L336.608 -48.8086C322.341 -35.6403 294.387 -11.1572 279.772 6.68378C266.094 23.3804 241.688 56.4223 234.071 69.5906Z" stroke="white" stroke-width="2"/>
<path opacity="0.5" d="M85.3704 99.4443L29.1145 134.663L182.687 129.45L85.3704 99.4443Z" stroke="white" stroke-width="2"/>
<ellipse opacity="0.5" cx="347.278" cy="112.111" rx="83.9779" ry="80.2844" stroke="white" stroke-width="2"/>
</g>
<rect x="103" y="21" width="221" height="101" fill="white"/>
<rect x="118" y="75" width="191" height="6" fill="#F0F1F2"/>
<rect x="118" y="87" width="191" height="6" fill="#F0F1F2"/>
<rect x="118" y="99" width="100" height="6" fill="#F0F1F2"/>
<g clip-path="url(#clip1_7725_22275)">
<path d="M250.364 77.75C250.364 76.9216 251.035 76.25 251.864 76.25H256.864C257.692 76.25 258.364 76.9216 258.364 77.75V86C258.364 86.8284 257.692 87.5 256.864 87.5H250.364V77.75Z" fill="#FFA900"/>
<path d="M253.994 84.25V80.1301H252.498V79.494H256.226V80.1301H254.733V84.25H253.994Z" fill="white"/>
</g>
<rect x="250.364" y="87.5" width="1.5" height="12.75" fill="#FFA900"/>
<g clip-path="url(#clip2_7725_22275)">
<path d="M133.144 87.5C133.144 86.6716 133.816 86 134.644 86H139.644C140.472 86 141.144 86.6716 141.144 87.5V95.75C141.144 96.5784 140.472 97.25 139.644 97.25H133.144V87.5Z" fill="#82B536"/>
<path d="M137.243 94.1154C135.921 94.1154 135.097 93.1595 135.097 91.627V91.6204C135.097 90.0845 135.918 89.1287 137.24 89.1287C138.288 89.1287 139.092 89.7911 139.217 90.7371L139.214 90.7535H138.482V90.7437C138.344 90.1603 137.866 89.7812 137.24 89.7812C136.386 89.7812 135.852 90.4899 135.852 91.6204V91.627C135.852 92.7542 136.386 93.4628 137.243 93.4628C137.872 93.4628 138.344 93.1266 138.479 92.5894L138.485 92.5762H139.217V92.5959C139.079 93.5089 138.304 94.1154 137.243 94.1154Z" fill="white"/>
</g>
<rect x="133.144" y="97.25" width="1.5" height="12.75" fill="#82B536"/>
<rect x="118" y="45" width="99" height="6" fill="#F0F1F2"/>
<rect x="0.2" y="-0.2" width="10.2" height="10.4" rx="5.1" transform="matrix(-1 0 0 1 128.2 55)" fill="#82B536"/>
<rect x="0.2" y="-0.2" width="10.2" height="10.4" rx="5.1" transform="matrix(-1 0 0 1 128.2 55)" stroke="white" stroke-width="0.4"/>
<rect x="0.2" y="-0.2" width="10.4" height="10.4" rx="5.2" transform="matrix(-1 0 0 1 138.2 55)" fill="#FFA900"/>
<rect x="0.2" y="-0.2" width="10.4" height="10.4" rx="5.2" transform="matrix(-1 0 0 1 138.2 55)" stroke="white" stroke-width="0.4"/>
<rect x="141" y="58" width="26" height="4" fill="#F0F1F2"/>
<circle cx="310" cy="72" r="23" fill="#AF59E0" stroke="white" stroke-width="2"/>
<path d="M344.445 61.5179C344.707 61.7163 348.958 61.2044 347.735 60.4763C347.322 60.1565 346.944 60.1654 346.828 60.5972C346.682 59.7386 345.898 60.825 345.503 60.5243C345.626 59.9386 344.489 61.1077 344.699 60.5032C340.069 59.5871 330.923 64.7963 342.168 62.0061C341.035 61.6723 342.092 61.5004 342.601 61.6618C341.895 62.3782 343.993 61.845 344.376 61.6059C343.722 61.582 344.788 61.0859 344.443 61.5158L344.445 61.5179Z" fill="#101214"/>
<path d="M335.94 53.8254C336.541 53.824 338.973 49.8039 339.281 49.4259C339.782 48.4804 338.397 48.3196 338.189 49.1387C338.079 49.2743 337.712 50.4363 337.421 49.9115C336.249 50.1024 336.13 52.2115 335.138 52.2833C335.303 52.5719 334.958 52.8835 335.042 53.075C334.746 53.0249 334.59 53.4182 334.661 53.4586C333.421 54.427 335.013 55.7548 335.659 54.2952C335.712 54.3626 336.05 54.1187 335.941 53.8294L335.94 53.8254Z" fill="#101214"/>
<path d="M320.46 45.0735C319.934 45.7328 319.956 45.0047 320.216 44.6859C320.715 45.3356 320.684 43.8867 320.514 43.5056C320.487 43.6542 320.231 43.6626 320.269 43.3523C320.889 43.6788 321.32 39.7469 319.853 41.3848C319.85 41.4528 320.351 41.5696 320.188 41.6218C319.437 41.3574 319.92 42.0704 319.965 42.2555C319.57 42.1833 319.925 42.4134 319.758 42.4292C319.242 42.1231 320.055 43.2871 319.547 42.9534C318.668 43.7195 319.599 45.6963 318.809 46.2614C319.662 46.8927 318.109 49.5616 319.894 48.7367C320.375 47.5535 320.67 46.5675 320.46 45.0735Z" fill="#101214"/>
<path d="M330.126 39.1164C328.929 38.5923 328.985 41.3595 328.428 42.0129C327.644 42.7848 324.428 51.9758 327.024 49.8917C327.973 47.0998 329.245 45.019 329.964 41.4514C330.123 40.8839 330.986 39.185 330.126 39.1164Z" fill="#101214"/>
<path d="M338.729 69.9811C337.953 70.8717 337.043 69.4472 336.315 70.1644C335.195 71.587 344.198 73.6442 344.03 71.9624C343.694 70.521 339.329 70.6872 338.729 69.9811Z" fill="#101214"/>
<rect width="27" height="27" transform="translate(297 59)" fill="white" fill-opacity="0.01"/>
<path fill-rule="evenodd" clip-rule="evenodd" d="M306 70.25V68.0022C306.001 66.8088 306.475 65.6643 307.319 64.8201C308.162 63.976 309.307 63.5012 310.5 63.5C311.091 63.5 311.676 63.6165 312.223 63.8428C312.769 64.069 313.265 64.4007 313.683 64.8188C314.101 65.2369 314.432 65.7333 314.658 66.2795C314.884 66.8257 315 67.4111 315 68.0022V70.25C315.597 70.25 316.169 70.4871 316.591 70.909C317.013 71.331 317.25 71.9033 317.25 72.5V79.25C317.25 80.4931 316.235 81.5 314.99 81.5H306.011C305.715 81.5015 305.421 81.4444 305.147 81.332C304.872 81.2196 304.623 81.0541 304.413 80.845C304.203 80.6359 304.036 80.3874 303.922 80.1136C303.809 79.8399 303.75 79.5464 303.75 79.25V72.5C303.75 71.2602 304.759 70.2556 306 70.25ZM308.25 70.25H312.75V68.0022C312.75 67.7066 312.692 67.4139 312.579 67.1407C312.466 66.8675 312.3 66.6193 312.091 66.4101C311.883 66.201 311.634 66.0351 311.361 65.9218C311.088 65.8085 310.796 65.7501 310.5 65.75C309.26 65.75 308.25 66.7602 308.25 68.0022V70.25ZM310.5 78.125C311.097 78.125 311.669 77.8879 312.091 77.466C312.513 77.044 312.75 76.4717 312.75 75.875C312.75 75.2783 312.513 74.706 312.091 74.284C311.669 73.8621 311.097 73.625 310.5 73.625C309.903 73.625 309.331 73.8621 308.909 74.284C308.487 74.706 308.25 75.2783 308.25 75.875C308.25 76.4717 308.487 77.044 308.909 77.466C309.331 77.8879 309.903 78.125 310.5 78.125Z" fill="white"/>
</g>
<defs>
<clipPath id="clip0_7725_22275">
<rect width="415" height="120" fill="white"/>
</clipPath>
<clipPath id="clip1_7725_22275">
<path d="M250.364 77.75C250.364 76.9216 251.035 76.25 251.864 76.25H256.864C257.692 76.25 258.364 76.9216 258.364 77.75V86C258.364 86.8284 257.692 87.5 256.864 87.5H250.364V77.75Z" fill="white"/>
</clipPath>
<clipPath id="clip2_7725_22275">
<path d="M133.144 87.5C133.144 86.6716 133.816 86 134.644 86H139.644C140.472 86 141.144 86.6716 141.144 87.5V95.75C141.144 96.5784 140.472 97.25 139.644 97.25H133.144V87.5Z" fill="white"/>
</clipPath>
</defs>
</svg>
