<svg width="415" height="120" viewBox="0 0 415 120" fill="none" xmlns="http://www.w3.org/2000/svg">
<g clip-path="url(#clip0_7725_23001)">
<rect width="415" height="251" transform="translate(0 -115)" fill="#CFE1FD"/>
<mask id="mask0_7725_23001" style="mask-type:alpha" maskUnits="userSpaceOnUse" x="0" y="-115" width="415" height="251">
<rect y="-115" width="415" height="251" fill="#F0F1F2"/>
</mask>
<g mask="url(#mask0_7725_23001)">
<path opacity="0.5" d="M55.6759 92.0222L-27.606 20.5424L-37.0013 9.3049L19.8345 -72.3698L118.195 -50.8215L107.408 72.3276L55.6759 92.0222Z" stroke="white" stroke-width="2"/>
<rect x="209.482" y="86.6106" width="74.6986" height="61.1691" stroke="white" stroke-width="2"/>
<path opacity="0.5" d="M234.071 69.5907L139.422 24.9883C150.093 8.53751 176.887 -30.8517 198.694 -56.8022C220.5 -82.7527 262.064 -119.902 280.12 -135.233L336.608 -48.8085C322.341 -35.6402 294.387 -11.1571 279.772 6.6839C266.094 23.3805 241.688 56.4224 234.071 69.5907Z" stroke="white" stroke-width="2"/>
<path opacity="0.5" d="M85.3704 99.4442L29.1144 134.663L182.687 129.45L85.3704 99.4442Z" stroke="white" stroke-width="2"/>
<ellipse opacity="0.5" cx="347.278" cy="112.111" rx="83.9779" ry="80.2844" stroke="white" stroke-width="2"/>
</g>
<rect x="103" y="21" width="221" height="101" fill="white"/>
<rect width="195.593" height="23.7914" transform="translate(116 34)" fill="#F7F8F9"/>
<mask id="path-8-inside-1_7725_23001" fill="white">
<rect x="128.771" y="42.2223" width="7.34702" height="7.34702" rx="1"/>
</mask>
<rect x="128.771" y="42.2223" width="7.34702" height="7.34702" rx="1" fill="white"/>
<rect x="128.771" y="42.2223" width="7.34702" height="7.34702" rx="1" stroke="#8590A2" stroke-width="4.02221" mask="url(#path-8-inside-1_7725_23001)"/>
<g clip-path="url(#clip1_7725_23001)">
<rect width="14" height="14" transform="translate(145.477 38.8958)" fill="white" fill-opacity="0.01"/>
<path fill-rule="evenodd" clip-rule="evenodd" d="M147.227 38.8958H157.727C158.191 38.8958 158.636 39.0801 158.965 39.4083C159.293 39.7365 159.477 40.1816 159.477 40.6458V51.1458C159.477 51.6099 159.293 52.055 158.965 52.3832C158.636 52.7114 158.191 52.8958 157.727 52.8958H147.227C146.763 52.8958 146.318 52.7114 145.99 52.3832C145.662 52.055 145.477 51.6099 145.477 51.1458V40.6458C145.477 40.1816 145.662 39.7365 145.99 39.4083C146.318 39.0801 146.763 38.8958 147.227 38.8958V38.8958ZM148.977 41.5208C148.745 41.5208 148.523 41.6129 148.359 41.777C148.194 41.9411 148.102 42.1637 148.102 42.3958C148.102 42.6278 148.194 42.8504 148.359 43.0145C148.523 43.1786 148.745 43.2708 148.977 43.2708H155.977C156.209 43.2708 156.432 43.1786 156.596 43.0145C156.76 42.8504 156.852 42.6278 156.852 42.3958C156.852 42.1637 156.76 41.9411 156.596 41.777C156.432 41.6129 156.209 41.5208 155.977 41.5208H148.977ZM148.977 45.0208C148.745 45.0208 148.523 45.1129 148.359 45.277C148.194 45.4411 148.102 45.6637 148.102 45.8958C148.102 46.1278 148.194 46.3504 148.359 46.5145C148.523 46.6786 148.745 46.7708 148.977 46.7708H155.977C156.209 46.7708 156.432 46.6786 156.596 46.5145C156.76 46.3504 156.852 46.1278 156.852 45.8958C156.852 45.6637 156.76 45.4411 156.596 45.277C156.432 45.1129 156.209 45.0208 155.977 45.0208H148.977ZM148.977 48.5208C148.745 48.5208 148.523 48.6129 148.359 48.777C148.194 48.9411 148.102 49.1637 148.102 49.3958C148.102 49.6278 148.194 49.8504 148.359 50.0145C148.523 50.1786 148.745 50.2708 148.977 50.2708H152.477C152.709 50.2708 152.932 50.1786 153.096 50.0145C153.26 49.8504 153.352 49.6278 153.352 49.3958C153.352 49.1637 153.26 48.9411 153.096 48.777C152.932 48.6129 152.709 48.5208 152.477 48.5208H148.977Z" fill="#2684FF"/>
</g>
<path d="M165.163 46.0346L287.366 45.757" stroke="#DDDEE1" stroke-width="2.91245"/>
<g clip-path="url(#clip2_7725_23001)">
<path fill-rule="evenodd" clip-rule="evenodd" d="M302.632 49.7849C303.889 48.9489 304.718 47.5192 304.718 45.8958C304.718 43.3185 302.629 41.2291 300.051 41.2291C297.474 41.2291 295.385 43.3185 295.385 45.8958C295.385 47.5192 296.214 48.9489 297.471 49.7849C297.699 48.5673 298.768 47.6458 300.051 47.6458C301.335 47.6458 302.404 48.5673 302.632 49.7849ZM300.051 46.7708C301.018 46.7708 301.801 45.9873 301.801 45.0208C301.801 44.0543 301.018 43.2708 300.051 43.2708C299.085 43.2708 298.301 44.0543 298.301 45.0208C298.301 45.9873 299.085 46.7708 300.051 46.7708Z" fill="#FCA700"/>
</g>
<rect width="195.593" height="23.7914" transform="translate(116 61.7914)" fill="#F7F8F9"/>
<mask id="path-12-inside-2_7725_23001" fill="white">
<rect x="128.771" y="70.0137" width="7.34702" height="7.34702" rx="1"/>
</mask>
<rect x="128.771" y="70.0137" width="7.34702" height="7.34702" rx="1" fill="white"/>
<rect x="128.771" y="70.0137" width="7.34702" height="7.34702" rx="1" stroke="#8590A2" stroke-width="4.02221" mask="url(#path-12-inside-2_7725_23001)"/>
<g clip-path="url(#clip3_7725_23001)">
<rect width="14" height="14" transform="translate(145.477 66.6871)" fill="white" fill-opacity="0.01"/>
<path fill-rule="evenodd" clip-rule="evenodd" d="M147.227 66.6871H157.727C158.191 66.6871 158.636 66.8715 158.965 67.1997C159.293 67.5279 159.477 67.973 159.477 68.4371V78.9371C159.477 79.4013 159.293 79.8464 158.965 80.1746C158.636 80.5028 158.191 80.6871 157.727 80.6871H147.227C146.763 80.6871 146.318 80.5028 145.99 80.1746C145.662 79.8464 145.477 79.4013 145.477 78.9371V68.4371C145.477 67.973 145.662 67.5279 145.99 67.1997C146.318 66.8715 146.763 66.6871 147.227 66.6871V66.6871ZM148.977 69.3121C148.745 69.3121 148.523 69.4043 148.359 69.5684C148.194 69.7325 148.102 69.9551 148.102 70.1871C148.102 70.4192 148.194 70.6418 148.359 70.8059C148.523 70.9699 148.745 71.0621 148.977 71.0621H155.977C156.209 71.0621 156.432 70.9699 156.596 70.8059C156.76 70.6418 156.852 70.4192 156.852 70.1871C156.852 69.9551 156.76 69.7325 156.596 69.5684C156.432 69.4043 156.209 69.3121 155.977 69.3121H148.977ZM148.977 72.8121C148.745 72.8121 148.523 72.9043 148.359 73.0684C148.194 73.2325 148.102 73.4551 148.102 73.6871C148.102 73.9192 148.194 74.1418 148.359 74.3059C148.523 74.4699 148.745 74.5621 148.977 74.5621H155.977C156.209 74.5621 156.432 74.4699 156.596 74.3059C156.76 74.1418 156.852 73.9192 156.852 73.6871C156.852 73.4551 156.76 73.2325 156.596 73.0684C156.432 72.9043 156.209 72.8121 155.977 72.8121H148.977ZM148.977 76.3121C148.745 76.3121 148.523 76.4043 148.359 76.5684C148.194 76.7325 148.102 76.9551 148.102 77.1871C148.102 77.4192 148.194 77.6418 148.359 77.8059C148.523 77.9699 148.745 78.0621 148.977 78.0621H152.477C152.709 78.0621 152.932 77.9699 153.096 77.8059C153.26 77.6418 153.352 77.4192 153.352 77.1871C153.352 76.9551 153.26 76.7325 153.096 76.5684C152.932 76.4043 152.709 76.3121 152.477 76.3121H148.977Z" fill="#2684FF"/>
</g>
<path d="M165.163 73.8259L287.366 73.5483" stroke="#DDDEE1" stroke-width="2.91245"/>
<g clip-path="url(#clip4_7725_23001)">
<path fill-rule="evenodd" clip-rule="evenodd" d="M302.632 77.5763C303.889 76.7403 304.718 75.3105 304.718 73.6872C304.718 71.1098 302.629 69.0205 300.051 69.0205C297.474 69.0205 295.385 71.1098 295.385 73.6872C295.385 75.3105 296.214 76.7403 297.471 77.5763C297.699 76.3587 298.768 75.4372 300.051 75.4372C301.335 75.4372 302.404 76.3587 302.632 77.5763ZM300.051 74.5622C301.018 74.5622 301.801 73.7787 301.801 72.8122C301.801 71.8457 301.018 71.0622 300.051 71.0622C299.085 71.0622 298.301 71.8457 298.301 72.8122C298.301 73.7787 299.085 74.5622 300.051 74.5622Z" fill="#82B536"/>
</g>
<rect width="195.593" height="23.7914" transform="translate(116 89.5828)" fill="#F7F8F9"/>
<mask id="path-16-inside-3_7725_23001" fill="white">
<rect x="128.771" y="97.8051" width="7.34702" height="7.34702" rx="1"/>
</mask>
<rect x="128.771" y="97.8051" width="7.34702" height="7.34702" rx="1" fill="white"/>
<rect x="128.771" y="97.8051" width="7.34702" height="7.34702" rx="1" stroke="#8590A2" stroke-width="4.02221" mask="url(#path-16-inside-3_7725_23001)"/>
<g clip-path="url(#clip5_7725_23001)">
<rect width="14" height="14" transform="translate(145.477 94.4785)" fill="white" fill-opacity="0.01"/>
<path fill-rule="evenodd" clip-rule="evenodd" d="M147.227 94.4785H157.727C158.191 94.4785 158.636 94.6629 158.965 94.9911C159.293 95.3193 159.477 95.7644 159.477 96.2285V106.729C159.477 107.193 159.293 107.638 158.965 107.966C158.636 108.294 158.191 108.479 157.727 108.479H147.227C146.763 108.479 146.318 108.294 145.99 107.966C145.662 107.638 145.477 107.193 145.477 106.729V96.2285C145.477 95.7644 145.662 95.3193 145.99 94.9911C146.318 94.6629 146.763 94.4785 147.227 94.4785V94.4785ZM148.977 97.1035C148.745 97.1035 148.523 97.1957 148.359 97.3598C148.194 97.5239 148.102 97.7465 148.102 97.9785C148.102 98.2106 148.194 98.4331 148.359 98.5972C148.523 98.7613 148.745 98.8535 148.977 98.8535H155.977C156.209 98.8535 156.432 98.7613 156.596 98.5972C156.76 98.4331 156.852 98.2106 156.852 97.9785C156.852 97.7465 156.76 97.5239 156.596 97.3598C156.432 97.1957 156.209 97.1035 155.977 97.1035H148.977ZM148.977 100.604C148.745 100.604 148.523 100.696 148.359 100.86C148.194 101.024 148.102 101.246 148.102 101.479C148.102 101.711 148.194 101.933 148.359 102.097C148.523 102.261 148.745 102.354 148.977 102.354H155.977C156.209 102.354 156.432 102.261 156.596 102.097C156.76 101.933 156.852 101.711 156.852 101.479C156.852 101.246 156.76 101.024 156.596 100.86C156.432 100.696 156.209 100.604 155.977 100.604H148.977ZM148.977 104.104C148.745 104.104 148.523 104.196 148.359 104.36C148.194 104.524 148.102 104.746 148.102 104.979C148.102 105.211 148.194 105.433 148.359 105.597C148.523 105.761 148.745 105.854 148.977 105.854H152.477C152.709 105.854 152.932 105.761 153.096 105.597C153.26 105.433 153.352 105.211 153.352 104.979C153.352 104.746 153.26 104.524 153.096 104.36C152.932 104.196 152.709 104.104 152.477 104.104H148.977Z" fill="#2684FF"/>
</g>
<path d="M165.163 101.617L287.366 101.34" stroke="#DDDEE1" stroke-width="2.91245"/>
<g clip-path="url(#clip6_7725_23001)">
<path fill-rule="evenodd" clip-rule="evenodd" d="M302.632 105.368C303.889 104.532 304.718 103.102 304.718 101.479C304.718 98.9012 302.629 96.8119 300.051 96.8119C297.474 96.8119 295.385 98.9012 295.385 101.479C295.385 103.102 296.214 104.532 297.471 105.368C297.699 104.15 298.768 103.229 300.051 103.229C301.335 103.229 302.404 104.15 302.632 105.368ZM300.051 102.354C301.018 102.354 301.801 101.57 301.801 100.604C301.801 99.6371 301.018 98.8536 300.051 98.8536C299.085 98.8536 298.301 99.6371 298.301 100.604C298.301 101.57 299.085 102.354 300.051 102.354Z" fill="#BF63F3"/>
</g>
</g>
<defs>
<clipPath id="clip0_7725_23001">
<rect width="415" height="120" fill="white"/>
</clipPath>
<clipPath id="clip1_7725_23001">
<rect width="14" height="14" fill="white" transform="translate(145.477 38.8958)"/>
</clipPath>
<clipPath id="clip2_7725_23001">
<rect width="14" height="14" fill="white" transform="translate(293.051 38.8958)"/>
</clipPath>
<clipPath id="clip3_7725_23001">
<rect width="14" height="14" fill="white" transform="translate(145.477 66.6871)"/>
</clipPath>
<clipPath id="clip4_7725_23001">
<rect width="14" height="14" fill="white" transform="translate(293.051 66.6871)"/>
</clipPath>
<clipPath id="clip5_7725_23001">
<rect width="14" height="14" fill="white" transform="translate(145.477 94.4785)"/>
</clipPath>
<clipPath id="clip6_7725_23001">
<rect width="14" height="14" fill="white" transform="translate(293.051 94.4785)"/>
</clipPath>
</defs>
</svg>
