<svg width="415" height="120" viewBox="0 0 415 120" fill="none" xmlns="http://www.w3.org/2000/svg">
<g clip-path="url(#clip0_7725_22563)">
<rect width="415" height="251" transform="translate(0 -115)" fill="#CFE1FD"/>
<mask id="mask0_7725_22563" style="mask-type:alpha" maskUnits="userSpaceOnUse" x="0" y="-115" width="415" height="251">
<rect y="-115" width="415" height="251" fill="#F0F1F2"/>
</mask>
<g mask="url(#mask0_7725_22563)">
<path opacity="0.5" d="M55.6759 92.0223L-27.606 20.5425L-37.0013 9.30502L19.8345 -72.3696L118.195 -50.8214L107.408 72.3277L55.6759 92.0223Z" stroke="white" stroke-width="2"/>
<rect x="209.482" y="86.6106" width="74.6986" height="61.1691" stroke="white" stroke-width="2"/>
<path opacity="0.5" d="M234.071 69.5906L139.422 24.9882C150.093 8.53738 176.887 -30.8518 198.694 -56.8023C220.5 -82.7529 262.064 -119.902 280.12 -135.233L336.608 -48.8086C322.341 -35.6403 294.387 -11.1572 279.772 6.68378C266.094 23.3804 241.688 56.4223 234.071 69.5906Z" stroke="white" stroke-width="2"/>
<path opacity="0.5" d="M85.3704 99.4443L29.1145 134.663L182.687 129.45L85.3704 99.4443Z" stroke="white" stroke-width="2"/>
<ellipse opacity="0.5" cx="347.278" cy="112.111" rx="83.9779" ry="80.2844" stroke="white" stroke-width="2"/>
</g>
<rect x="105" y="19" width="220" height="101" fill="white"/>
<rect x="125.529" y="39.2801" width="182.293" height="28.3567" stroke="#F0F1F2" stroke-width="1.35032"/>
<rect x="125.529" y="39.2801" width="32.3176" height="28.3567" fill="white"/>
<rect x="125.529" y="39.2801" width="32.3176" height="28.3567" stroke="#F0F1F2" stroke-width="1.35032"/>
<rect x="157.666" y="39.2801" width="30.7873" height="28.3567" fill="white"/>
<rect x="157.666" y="39.2801" width="30.7873" height="28.3567" stroke="#F0F1F2" stroke-width="1.35032"/>
<rect x="188.273" y="39.2801" width="29.2569" height="28.3567" fill="white"/>
<rect x="188.273" y="39.2801" width="29.2569" height="28.3567" stroke="#F0F1F2" stroke-width="1.35032"/>
<rect x="217.35" y="39.2801" width="30.7873" height="28.3567" fill="white"/>
<rect x="217.35" y="39.2801" width="30.7873" height="28.3567" stroke="#F0F1F2" stroke-width="1.35032"/>
<rect x="247.958" y="39.2801" width="30.7873" height="28.3567" fill="white"/>
<rect x="247.958" y="39.2801" width="30.7873" height="28.3567" stroke="#F0F1F2" stroke-width="1.35032"/>
<rect x="278.565" y="39.2801" width="29.2569" height="28.3567" fill="white"/>
<rect x="278.565" y="39.2801" width="29.2569" height="28.3567" stroke="#F0F1F2" stroke-width="1.35032"/>
<rect x="125.529" y="67.6368" width="32.3176" height="27.8265" fill="white"/>
<rect x="125.529" y="67.6368" width="32.3176" height="27.8265" stroke="#F0F1F2" stroke-width="1.35032"/>
<rect x="157.666" y="67.6368" width="30.7873" height="27.8265" fill="white"/>
<rect x="157.666" y="67.6368" width="30.7873" height="27.8265" stroke="#F0F1F2" stroke-width="1.35032"/>
<rect x="188.273" y="67.6368" width="29.2569" height="27.8265" fill="white"/>
<rect x="188.273" y="67.6368" width="29.2569" height="27.8265" stroke="#F0F1F2" stroke-width="1.35032"/>
<rect x="217.35" y="67.6368" width="30.7873" height="27.8265" fill="white"/>
<rect x="217.35" y="67.6368" width="30.7873" height="27.8265" stroke="#F0F1F2" stroke-width="1.35032"/>
<rect x="247.958" y="67.6368" width="30.7873" height="27.8265" fill="white"/>
<rect x="247.958" y="67.6368" width="30.7873" height="27.8265" stroke="#F0F1F2" stroke-width="1.35032"/>
<rect x="278.565" y="67.6368" width="29.2569" height="27.8265" fill="white"/>
<rect x="278.565" y="67.6368" width="29.2569" height="27.8265" stroke="#F0F1F2" stroke-width="1.35032"/>
<rect x="125.529" y="95.4635" width="32.3176" height="27.8265" fill="white"/>
<rect x="125.529" y="95.4635" width="32.3176" height="27.8265" stroke="#F0F1F2" stroke-width="1.35032"/>
<rect x="157.666" y="95.4635" width="30.7873" height="27.8265" fill="white"/>
<rect x="157.666" y="95.4635" width="30.7873" height="27.8265" stroke="#F0F1F2" stroke-width="1.35032"/>
<rect x="188.273" y="95.4635" width="29.2569" height="27.8265" fill="white"/>
<rect x="188.273" y="95.4635" width="29.2569" height="27.8265" stroke="#F0F1F2" stroke-width="1.35032"/>
<rect x="217.35" y="95.4635" width="30.7873" height="27.8265" fill="white"/>
<rect x="217.35" y="95.4635" width="30.7873" height="27.8265" stroke="#F0F1F2" stroke-width="1.35032"/>
<rect x="247.958" y="95.4635" width="30.7873" height="27.8265" fill="white"/>
<rect x="247.958" y="95.4635" width="30.7873" height="27.8265" stroke="#F0F1F2" stroke-width="1.35032"/>
<rect x="278.565" y="95.4635" width="29.2569" height="27.8265" fill="white"/>
<rect x="278.565" y="95.4635" width="29.2569" height="27.8265" stroke="#F0F1F2" stroke-width="1.35032"/>
<rect x="193.72" y="100.42" width="18.9045" height="5.40127" fill="#1868DB"/>
<rect x="254" y="100.42" width="18.9045" height="5.40127" fill="#964AC0"/>
<rect x="162.662" y="46.0574" width="20.2548" height="5.40127" fill="#82B536"/>
<rect x="193.72" y="107.172" width="18.9045" height="5.40127" fill="#CFE1FD"/>
<rect x="164" y="73" width="18.9045" height="5.40127" fill="#FFC716"/>
<path d="M300.726 98.5187C300.059 97.7949 293.628 96.9259 294.182 98.3889C295.689 98.5006 297.315 99.1634 298.569 99.3487C298.546 99.3672 298.594 99.3815 298.626 99.4143C298.409 99.51 298.162 99.8956 297.909 99.9165C296.951 100.924 295.684 101.413 294.581 102.23C294.695 102.375 294.56 102.399 294.537 102.265C293.892 102.963 288.33 106.168 286.084 105.88C290.142 100.71 279.546 101.016 283.769 106.136C282.427 106.938 280.669 107.377 279.094 107.194C277.692 107.053 276.532 106.414 275.86 106.013C275.204 105.594 274.892 105.532 275.35 106.253L275.214 106.286C275.838 106.878 276.406 107.3 277.179 107.852C277.31 107.882 277.763 107.664 277.887 107.68C277.785 107.881 277.904 108.034 278.151 108.153C278.403 108.255 278.783 108.321 279.183 108.305C279.988 108.299 280.809 107.999 280.999 107.982C281.148 108.4 281.788 107.842 282.029 107.945C282.019 107.966 281.935 108.086 281.926 108.104C282.066 108.216 282.978 107.815 283.642 107.353C284.013 107.106 284.263 106.894 284.475 106.77C284.653 106.98 285.443 107.251 286.015 107.346C287.606 107.556 290.733 106.555 290.781 106.599C291.513 105.978 292.456 105.401 293.138 104.791C294.815 103.94 299.091 100.447 299.359 100.065C299.328 100.305 299.225 100.615 299.108 100.947C299.108 100.947 298.851 101.657 298.806 101.797C298.765 101.782 298.764 101.828 298.73 101.838C298.774 102.222 298.466 102.796 298.663 103.032L298.191 103.981C298.304 107.037 300.749 100.11 300.688 98.9112L300.675 98.9245C300.675 98.9245 300.682 98.4965 300.729 98.52L300.726 98.5187ZM285.044 105.515C284.599 104.986 285.109 105.966 285.413 106.024C285.241 106.604 283.875 105.081 283.968 104.287C283.886 103.429 284.676 105.471 284.279 104.164C285.178 102.14 286.058 105.11 285.044 105.515Z" fill="#101214"/>
<rect x="162.662" y="52.8091" width="20.2548" height="5.40127" fill="#D3F1A7"/>
<rect x="290" y="49" width="48" height="48" rx="24" fill="#AF59E0"/>
<rect x="290" y="49" width="48" height="48" rx="24" stroke="white" stroke-width="2"/>
<g clip-path="url(#clip1_7725_22563)">
<path fill-rule="evenodd" clip-rule="evenodd" d="M303.658 76.7182L306.487 73.8898L303.658 71.0613L306.015 68.7043H311.672L315.915 64.4617H322.514V71.0613L318.272 75.304V80.9608L315.915 83.3179L313.086 80.4894L310.258 83.3179L307.667 80.7274L311.91 76.4848L310.496 75.0706L306.253 79.3132L303.658 76.7182ZM319.215 70.1186C318.564 70.7695 317.508 70.7695 316.858 70.1186C316.207 69.4677 316.207 68.4125 316.858 67.7616C317.508 67.1107 318.564 67.1107 319.215 67.7616C319.865 68.4125 319.865 69.4677 319.215 70.1186Z" fill="white"/>
</g>
<path d="M349.27 57.2464C349.527 57.3896 353.43 56.2855 352.242 55.7992C351.835 55.5672 351.485 55.6318 351.41 56.0457C351.211 55.2789 350.565 56.3935 350.176 56.1763C350.247 55.6201 349.28 56.8632 349.429 56.2769C345.069 56.1261 336.977 62.274 347.194 58.0345C346.119 57.8969 347.086 57.5815 347.57 57.6537C346.969 58.4169 348.874 57.6144 349.212 57.3376C348.604 57.4132 349.555 56.7986 349.268 57.2448L349.27 57.2464Z" fill="#101214"/>
<path d="M340.811 51.4509C341.368 51.36 343.323 47.3056 343.581 46.9125C343.974 45.9696 342.678 46.0286 342.546 46.8117C342.455 46.9526 342.201 48.0744 341.892 47.6359C340.82 47.9861 340.866 49.9407 339.953 50.1544C340.127 50.3949 339.83 50.7325 339.923 50.8958C339.644 50.8939 339.529 51.2784 339.598 51.3049C338.52 52.3792 340.095 53.3611 340.586 51.9242C340.639 51.9782 340.935 51.7038 340.812 51.4545L340.811 51.4509Z" fill="#101214"/>
<path d="M325.806 45.7233C325.368 46.4072 325.335 45.7352 325.552 45.4037C326.062 45.926 325.926 44.6 325.74 44.2754C325.726 44.4159 325.489 44.4618 325.501 44.1712C326.101 44.3785 326.207 40.7036 324.969 42.4265C324.971 42.4894 325.444 42.5219 325.297 42.5941C324.581 42.4634 325.083 43.046 325.138 43.2093C324.766 43.2019 325.112 43.3603 324.958 43.3998C324.457 43.1956 325.298 44.1433 324.802 43.9127C324.045 44.7471 325.055 46.4237 324.365 47.0603C325.202 47.5129 323.962 50.1953 325.555 49.1716C325.913 48.0134 326.113 47.0638 325.806 45.7233Z" fill="#101214"/>
<path d="M334.324 38.8111C333.175 38.5084 333.434 41.0412 332.966 41.7243C332.297 42.5499 330 51.4698 332.251 49.1689C332.923 46.4634 333.947 44.3629 334.348 40.9795C334.453 40.4347 335.127 38.7458 334.324 38.8111Z" fill="#101214"/>
<path d="M344.6 65.871C343.948 66.8045 342.998 65.6321 342.377 66.3992C341.444 67.8727 349.944 68.419 349.663 66.8997C349.244 65.6261 345.209 66.4299 344.6 65.871Z" fill="#101214"/>
</g>
<defs>
<clipPath id="clip0_7725_22563">
<rect width="415" height="120" fill="white"/>
</clipPath>
<clipPath id="clip1_7725_22563">
<rect width="32" height="32" fill="white" transform="translate(298.163 57)"/>
</clipPath>
</defs>
</svg>
