<svg width="415" height="120" viewBox="0 0 415 120" fill="none" xmlns="http://www.w3.org/2000/svg">
<g clip-path="url(#clip0_7725_22352)">
<rect width="415" height="251" transform="translate(0 -115)" fill="#CFE1FD"/>
<mask id="mask0_7725_22352" style="mask-type:alpha" maskUnits="userSpaceOnUse" x="0" y="-115" width="415" height="251">
<rect y="-115" width="415" height="251" fill="#F0F1F2"/>
</mask>
<g mask="url(#mask0_7725_22352)">
<path opacity="0.5" d="M55.6758 92.0223L-27.6061 20.5425L-37.0015 9.30502L19.8344 -72.3696L118.195 -50.8214L107.408 72.3277L55.6758 92.0223Z" stroke="white" stroke-width="2"/>
<rect x="209.481" y="86.6106" width="74.6986" height="61.1691" stroke="white" stroke-width="2"/>
<path opacity="0.5" d="M234.071 69.5906L139.422 24.9882C150.093 8.53738 176.887 -30.8518 198.694 -56.8023C220.5 -82.7529 262.064 -119.902 280.12 -135.233L336.608 -48.8086C322.341 -35.6403 294.387 -11.1572 279.772 6.68378C266.094 23.3804 241.688 56.4223 234.071 69.5906Z" stroke="white" stroke-width="2"/>
<path opacity="0.5" d="M85.3704 99.4443L29.1145 134.663L182.687 129.45L85.3704 99.4443Z" stroke="white" stroke-width="2"/>
<ellipse opacity="0.5" cx="347.278" cy="112.111" rx="83.9779" ry="80.2844" stroke="white" stroke-width="2"/>
</g>
<line x1="78" y1="59.5" x2="337" y2="59.5" stroke="#F0F1F2"/>
<rect x="72" y="19" width="265" height="101" fill="white"/>
<g clip-path="url(#clip1_7725_22352)">
<path d="M98 88.3658C99.3066 88.3658 100.366 87.3066 100.366 86C100.366 84.6934 99.3066 83.6342 98 83.6342C97.9183 83.6342 97.8376 83.6384 97.7581 83.6465C96.5651 83.7676 95.6342 84.7751 95.6342 86C95.6342 86.1634 95.6508 86.3228 95.6823 86.4768C95.9029 87.5549 96.8567 88.3658 98 88.3658Z" fill="#1C2B42"/>
<path fill-rule="evenodd" clip-rule="evenodd" d="M98 80.677C94.0255 80.677 90.9026 84.2257 89.7197 86C90.5083 87.7744 94.0255 91.3231 98 91.3231C101.975 91.3231 105.492 87.7744 106.28 86C105.097 84.2257 101.975 80.677 98 80.677ZM98 81.8599C100.287 81.8599 102.14 83.7135 102.14 86C102.14 88.2866 100.287 90.1402 98 90.1402C95.7135 90.1402 93.8599 88.2866 93.8599 86C93.8599 83.7135 95.7135 81.8599 98 81.8599Z" fill="#1C2B42"/>
</g>
<line x1="111" y1="98.5" x2="315" y2="98.5" stroke="#F0F1F2"/>
<line x1="111" y1="55.5" x2="315" y2="55.5" stroke="#F0F1F2"/>
<path d="M121 85.4152L157.178 77.4382C158.11 77.2326 159.085 77.4832 159.802 78.1131L185.276 100.471C186.302 101.372 187.806 101.466 188.936 100.701L222.421 78.039C223.274 77.4615 224.364 77.3623 225.308 77.7764L250.76 88.9462C251.633 89.3293 252.636 89.2746 253.463 88.7988L300 62" stroke="#94C748" stroke-width="2" stroke-linecap="round"/>
</g>
<defs>
<clipPath id="clip0_7725_22352">
<rect width="415" height="120" fill="white"/>
</clipPath>
<clipPath id="clip1_7725_22352">
<rect width="29" height="29" fill="white" transform="translate(83 71)"/>
</clipPath>
</defs>
</svg>
