<svg width="415" height="120" viewBox="0 0 415 120" fill="none" xmlns="http://www.w3.org/2000/svg">
<g clip-path="url(#clip0_7725_23040)">
<rect width="415" height="251" transform="translate(0 -115)" fill="#CFE1FD"/>
<mask id="mask0_7725_23040" style="mask-type:alpha" maskUnits="userSpaceOnUse" x="0" y="-115" width="415" height="251">
<rect y="-115" width="415" height="251" fill="#F0F1F2"/>
</mask>
<g mask="url(#mask0_7725_23040)">
<path opacity="0.5" d="M55.6759 92.0222L-27.6061 20.5424L-37.0014 9.3049L19.8345 -72.3698L118.195 -50.8215L107.408 72.3276L55.6759 92.0222Z" stroke="white" stroke-width="2"/>
<rect x="209.482" y="86.6106" width="74.6986" height="61.1691" stroke="white" stroke-width="2"/>
<path opacity="0.5" d="M234.071 69.5907L139.422 24.9883C150.093 8.53751 176.887 -30.8517 198.694 -56.8022C220.5 -82.7527 262.064 -119.902 280.12 -135.233L336.608 -48.8085C322.341 -35.6402 294.387 -11.1571 279.772 6.6839C266.094 23.3805 241.688 56.4224 234.071 69.5907Z" stroke="white" stroke-width="2"/>
<path opacity="0.5" d="M85.3704 99.4442L29.1144 134.663L182.687 129.45L85.3704 99.4442Z" stroke="white" stroke-width="2"/>
<ellipse opacity="0.5" cx="347.278" cy="112.111" rx="83.9779" ry="80.2844" stroke="white" stroke-width="2"/>
</g>
<rect x="103" y="21" width="221" height="101" fill="white"/>
<rect width="195.593" height="23.0974" transform="translate(116 34)" fill="#F7F8F9"/>
<g clip-path="url(#clip1_7725_23040)">
<rect width="14" height="14" transform="translate(125.097 38.5487)" fill="white" fill-opacity="0.01"/>
<path fill-rule="evenodd" clip-rule="evenodd" d="M126.847 38.5487H137.347C137.811 38.5487 138.257 38.7331 138.585 39.0613C138.913 39.3895 139.097 39.8346 139.097 40.2987V50.7987C139.097 51.2628 138.913 51.708 138.585 52.0361C138.257 52.3643 137.811 52.5487 137.347 52.5487H126.847C126.383 52.5487 125.938 52.3643 125.61 52.0361C125.282 51.708 125.097 51.2628 125.097 50.7987V40.2987C125.097 39.8346 125.282 39.3895 125.61 39.0613C125.938 38.7331 126.383 38.5487 126.847 38.5487V38.5487ZM128.597 41.1737C128.365 41.1737 128.143 41.2659 127.979 41.43C127.815 41.5941 127.722 41.8166 127.722 42.0487C127.722 42.2808 127.815 42.5033 127.979 42.6674C128.143 42.8315 128.365 42.9237 128.597 42.9237H135.597C135.829 42.9237 136.052 42.8315 136.216 42.6674C136.38 42.5033 136.472 42.2808 136.472 42.0487C136.472 41.8166 136.38 41.5941 136.216 41.43C136.052 41.2659 135.829 41.1737 135.597 41.1737H128.597ZM128.597 44.6737C128.365 44.6737 128.143 44.7659 127.979 44.93C127.815 45.0941 127.722 45.3166 127.722 45.5487C127.722 45.7808 127.815 46.0033 127.979 46.1674C128.143 46.3315 128.365 46.4237 128.597 46.4237H135.597C135.829 46.4237 136.052 46.3315 136.216 46.1674C136.38 46.0033 136.472 45.7808 136.472 45.5487C136.472 45.3166 136.38 45.0941 136.216 44.93C136.052 44.7659 135.829 44.6737 135.597 44.6737H128.597ZM128.597 48.1737C128.365 48.1737 128.143 48.2659 127.979 48.43C127.815 48.5941 127.722 48.8166 127.722 49.0487C127.722 49.2808 127.815 49.5033 127.979 49.6674C128.143 49.8315 128.365 49.9237 128.597 49.9237H132.097C132.329 49.9237 132.552 49.8315 132.716 49.6674C132.88 49.5033 132.972 49.2808 132.972 49.0487C132.972 48.8166 132.88 48.5941 132.716 48.43C132.552 48.2659 132.329 48.1737 132.097 48.1737H128.597Z" fill="#2684FF"/>
</g>
<path d="M144.783 45.6408L286.786 45.4564" stroke="#DDDEE1" stroke-width="2.91245"/>
<g clip-path="url(#clip2_7725_23040)">
<path fill-rule="evenodd" clip-rule="evenodd" d="M302.052 49.4379C303.309 48.6019 304.138 47.1721 304.138 45.5487C304.138 42.9714 302.049 40.8821 299.471 40.8821C296.894 40.8821 294.805 42.9714 294.805 45.5487C294.805 47.1721 295.634 48.6019 296.891 49.4379C297.119 48.2203 298.188 47.2987 299.471 47.2987C300.755 47.2987 301.824 48.2203 302.052 49.4379ZM299.471 46.4237C300.438 46.4237 301.221 45.6402 301.221 44.6737C301.221 43.7072 300.438 42.9237 299.471 42.9237C298.505 42.9237 297.721 43.7072 297.721 44.6737C297.721 45.6402 298.505 46.4237 299.471 46.4237Z" fill="#FCA700"/>
</g>
<rect width="195.593" height="23.0974" transform="translate(116 61.0974)" fill="#F7F8F9"/>
<g clip-path="url(#clip3_7725_23040)">
<rect width="14" height="14" transform="translate(125.097 65.6461)" fill="white" fill-opacity="0.01"/>
<path fill-rule="evenodd" clip-rule="evenodd" d="M126.847 65.6461H137.347C137.811 65.6461 138.257 65.8305 138.585 66.1587C138.913 66.4869 139.097 66.932 139.097 67.3961V77.8961C139.097 78.3602 138.913 78.8054 138.585 79.1336C138.257 79.4617 137.811 79.6461 137.347 79.6461H126.847C126.383 79.6461 125.938 79.4617 125.61 79.1336C125.282 78.8054 125.097 78.3602 125.097 77.8961V67.3961C125.097 66.932 125.282 66.4869 125.61 66.1587C125.938 65.8305 126.383 65.6461 126.847 65.6461V65.6461ZM128.597 68.2711C128.365 68.2711 128.143 68.3633 127.979 68.5274C127.815 68.6915 127.722 68.9141 127.722 69.1461C127.722 69.3782 127.815 69.6007 127.979 69.7648C128.143 69.9289 128.365 70.0211 128.597 70.0211H135.597C135.829 70.0211 136.052 69.9289 136.216 69.7648C136.38 69.6007 136.472 69.3782 136.472 69.1461C136.472 68.9141 136.38 68.6915 136.216 68.5274C136.052 68.3633 135.829 68.2711 135.597 68.2711H128.597ZM128.597 71.7711C128.365 71.7711 128.143 71.8633 127.979 72.0274C127.815 72.1915 127.722 72.4141 127.722 72.6461C127.722 72.8782 127.815 73.1007 127.979 73.2648C128.143 73.4289 128.365 73.5211 128.597 73.5211H135.597C135.829 73.5211 136.052 73.4289 136.216 73.2648C136.38 73.1007 136.472 72.8782 136.472 72.6461C136.472 72.4141 136.38 72.1915 136.216 72.0274C136.052 71.8633 135.829 71.7711 135.597 71.7711H128.597ZM128.597 75.2711C128.365 75.2711 128.143 75.3633 127.979 75.5274C127.815 75.6915 127.722 75.9141 127.722 76.1461C127.722 76.3782 127.815 76.6007 127.979 76.7648C128.143 76.9289 128.365 77.0211 128.597 77.0211H132.097C132.329 77.0211 132.552 76.9289 132.716 76.7648C132.88 76.6007 132.972 76.3782 132.972 76.1461C132.972 75.9141 132.88 75.6915 132.716 75.5274C132.552 75.3633 132.329 75.2711 132.097 75.2711H128.597Z" fill="#2684FF"/>
</g>
<path d="M144.783 72.7413L286.786 72.5508" stroke="#DDDEE1" stroke-width="2.91245"/>
<g clip-path="url(#clip4_7725_23040)">
<path fill-rule="evenodd" clip-rule="evenodd" d="M302.052 76.5353C303.309 75.6993 304.138 74.2695 304.138 72.6462C304.138 70.0688 302.049 67.9795 299.471 67.9795C296.894 67.9795 294.805 70.0688 294.805 72.6462C294.805 74.2695 295.634 75.6993 296.891 76.5353C297.119 75.3177 298.188 74.3962 299.471 74.3962C300.755 74.3962 301.824 75.3177 302.052 76.5353ZM299.471 73.5212C300.438 73.5212 301.221 72.7377 301.221 71.7712C301.221 70.8047 300.438 70.0212 299.471 70.0212C298.505 70.0212 297.721 70.8047 297.721 71.7712C297.721 72.7377 298.505 73.5212 299.471 73.5212Z" fill="#FCA700"/>
</g>
<rect width="195.593" height="23.0974" transform="translate(116 88.1947)" fill="#F7F8F9"/>
<g clip-path="url(#clip5_7725_23040)">
<rect width="14" height="14" transform="translate(125.097 92.7434)" fill="white" fill-opacity="0.01"/>
<path fill-rule="evenodd" clip-rule="evenodd" d="M126.847 92.7434H137.347C137.811 92.7434 138.257 92.9278 138.585 93.256C138.913 93.5842 139.097 94.0293 139.097 94.4934V104.993C139.097 105.458 138.913 105.903 138.585 106.231C138.257 106.559 137.811 106.743 137.347 106.743H126.847C126.383 106.743 125.938 106.559 125.61 106.231C125.282 105.903 125.097 105.458 125.097 104.993V94.4934C125.097 94.0293 125.282 93.5842 125.61 93.256C125.938 92.9278 126.383 92.7434 126.847 92.7434V92.7434ZM128.597 95.3684C128.365 95.3684 128.143 95.4606 127.979 95.6247C127.815 95.7888 127.722 96.0113 127.722 96.2434C127.722 96.4755 127.815 96.698 127.979 96.8621C128.143 97.0262 128.365 97.1184 128.597 97.1184H135.597C135.829 97.1184 136.052 97.0262 136.216 96.8621C136.38 96.698 136.472 96.4755 136.472 96.2434C136.472 96.0113 136.38 95.7888 136.216 95.6247C136.052 95.4606 135.829 95.3684 135.597 95.3684H128.597ZM128.597 98.8684C128.365 98.8684 128.143 98.9606 127.979 99.1247C127.815 99.2888 127.722 99.5113 127.722 99.7434C127.722 99.9755 127.815 100.198 127.979 100.362C128.143 100.526 128.365 100.618 128.597 100.618H135.597C135.829 100.618 136.052 100.526 136.216 100.362C136.38 100.198 136.472 99.9755 136.472 99.7434C136.472 99.5113 136.38 99.2888 136.216 99.1247C136.052 98.9606 135.829 98.8684 135.597 98.8684H128.597ZM128.597 102.368C128.365 102.368 128.143 102.461 127.979 102.625C127.815 102.789 127.722 103.011 127.722 103.243C127.722 103.475 127.815 103.698 127.979 103.862C128.143 104.026 128.365 104.118 128.597 104.118H132.097C132.329 104.118 132.552 104.026 132.716 103.862C132.88 103.698 132.972 103.475 132.972 103.243C132.972 103.011 132.88 102.789 132.716 102.625C132.552 102.461 132.329 102.368 132.097 102.368H128.597Z" fill="#2684FF"/>
</g>
<path d="M144.783 99.8438L286.786 99.6429" stroke="#DDDEE1" stroke-width="2.91245"/>
<g clip-path="url(#clip6_7725_23040)">
<path fill-rule="evenodd" clip-rule="evenodd" d="M302.052 103.633C303.309 102.797 304.138 101.367 304.138 99.7434C304.138 97.1661 302.049 95.0768 299.471 95.0768C296.894 95.0768 294.805 97.1661 294.805 99.7434C294.805 101.367 295.634 102.797 296.891 103.633C297.119 102.415 298.188 101.493 299.471 101.493C300.755 101.493 301.824 102.415 302.052 103.633ZM299.471 100.618C300.438 100.618 301.221 99.8349 301.221 98.8684C301.221 97.902 300.438 97.1184 299.471 97.1184C298.505 97.1184 297.721 97.902 297.721 98.8684C297.721 99.8349 298.505 100.618 299.471 100.618Z" fill="#BF63F3"/>
</g>
</g>
<defs>
<clipPath id="clip0_7725_23040">
<rect width="415" height="120" fill="white"/>
</clipPath>
<clipPath id="clip1_7725_23040">
<rect width="14" height="14" fill="white" transform="translate(125.097 38.5487)"/>
</clipPath>
<clipPath id="clip2_7725_23040">
<rect width="14" height="14" fill="white" transform="translate(292.471 38.5487)"/>
</clipPath>
<clipPath id="clip3_7725_23040">
<rect width="14" height="14" fill="white" transform="translate(125.097 65.6461)"/>
</clipPath>
<clipPath id="clip4_7725_23040">
<rect width="14" height="14" fill="white" transform="translate(292.471 65.6461)"/>
</clipPath>
<clipPath id="clip5_7725_23040">
<rect width="14" height="14" fill="white" transform="translate(125.097 92.7434)"/>
</clipPath>
<clipPath id="clip6_7725_23040">
<rect width="14" height="14" fill="white" transform="translate(292.471 92.7434)"/>
</clipPath>
</defs>
</svg>
