<svg width="415" height="120" viewBox="0 0 415 120" fill="none" xmlns="http://www.w3.org/2000/svg">
<g clip-path="url(#clip0_7725_22822)">
<rect width="415" height="251" transform="translate(0 -115)" fill="#CFE1FD"/>
<mask id="mask0_7725_22822" style="mask-type:alpha" maskUnits="userSpaceOnUse" x="0" y="-115" width="415" height="251">
<rect y="-115" width="415" height="251" fill="#F0F1F2"/>
</mask>
<g mask="url(#mask0_7725_22822)">
<path opacity="0.5" d="M55.6759 92.0222L-27.606 20.5424L-37.0014 9.3049L19.8345 -72.3698L118.195 -50.8215L107.408 72.3276L55.6759 92.0222Z" stroke="white" stroke-width="2"/>
<rect x="209.482" y="86.6106" width="74.6986" height="61.1691" stroke="white" stroke-width="2"/>
<path opacity="0.5" d="M234.071 69.5907L139.422 24.9883C150.093 8.53751 176.887 -30.8517 198.694 -56.8022C220.5 -82.7527 262.064 -119.902 280.12 -135.233L336.608 -48.8085C322.341 -35.6402 294.387 -11.1571 279.772 6.6839C266.094 23.3805 241.688 56.4224 234.071 69.5907Z" stroke="white" stroke-width="2"/>
<path opacity="0.5" d="M85.3704 99.4442L29.1145 134.663L182.687 129.45L85.3704 99.4442Z" stroke="white" stroke-width="2"/>
<ellipse opacity="0.5" cx="347.278" cy="112.111" rx="83.9779" ry="80.2844" stroke="white" stroke-width="2"/>
</g>
<rect x="93" y="19" width="229" height="101" fill="white"/>
<rect x="112" y="55" width="127" height="6" fill="#F0F1F2"/>
<rect x="112" y="83" width="191" height="6" fill="#F0F1F2"/>
<rect x="112" y="95" width="191" height="6" fill="#F0F1F2"/>
<rect x="112" y="107" width="100" height="6" fill="#F0F1F2"/>
<circle cx="116" cy="70" r="4" fill="#D3F1A7"/>
<rect x="123" y="68" width="26" height="4" fill="#F0F1F2"/>
<rect x="93" y="19" width="229" height="24" fill="#B3DF72"/>
<g clip-path="url(#clip1_7725_22822)">
<path fill-rule="evenodd" clip-rule="evenodd" d="M112.333 29.9316H111.146V36.4273H119.854V29.9316L118.667 29.9316V28.3077C118.667 26.5139 117.249 25.0598 115.5 25.0598C113.751 25.0598 112.333 26.5139 112.333 28.3077L112.333 29.9316ZM113.917 29.9316V28.3077C113.917 27.4108 114.626 26.6837 115.5 26.6837C116.374 26.6837 117.083 27.4108 117.083 28.3077V29.9316L113.917 29.9316Z" fill="#1C2B42"/>
</g>
<circle cx="311" cy="74" r="23" fill="#AF59E0" stroke="white" stroke-width="2"/>
<g clip-path="url(#clip2_7725_22822)">
<path fill-rule="evenodd" clip-rule="evenodd" d="M314.438 76.8717C314.438 75.9199 314.22 75.0202 313.833 74.2221H315.729V72.2349H317.667V70.2477H319.604V67.7L320.896 66.2734L320.896 63.6238H317.667L310.314 71.1656C309.779 70.9994 309.212 70.9101 308.625 70.9101C305.415 70.9101 302.812 73.5792 302.812 76.8717C302.812 80.1641 305.415 82.8332 308.625 82.8332C311.835 82.8332 314.438 80.1641 314.438 76.8717ZM307.333 80.1836C308.403 80.1836 309.271 79.2939 309.271 78.1964C309.271 77.0989 308.403 76.2093 307.333 76.2093C306.263 76.2093 305.396 77.0989 305.396 78.1964C305.396 79.2939 306.263 80.1836 307.333 80.1836Z" fill="white"/>
</g>
<path d="M346.01 86.0028C346.093 86.3204 349.751 88.5453 349.24 87.2174C349.113 86.7103 348.81 86.4837 348.452 86.7513C348.868 85.9863 347.58 86.356 347.455 85.8751C347.914 85.4909 346.298 85.7073 346.836 85.3617C343.763 81.7801 333.353 80.2222 343.918 84.9787C343.233 84.0162 344.17 84.5341 344.471 84.9756C343.473 85.1026 345.452 85.9799 345.901 86.0291C345.401 85.6059 346.546 85.875 346.01 85.9999L346.01 86.0028Z" fill="#101214"/>
<path d="M344.079 74.6987C344.552 75.0689 348.948 73.4117 349.424 73.3051C350.402 72.8714 349.412 71.8886 348.743 72.4041C348.573 72.4429 347.566 73.1297 347.662 72.5371C346.622 71.9626 345.225 73.547 344.401 72.9906C344.352 73.3194 343.888 73.3512 343.836 73.5538C343.634 73.3312 343.268 73.5438 343.3 73.6199C341.726 73.6142 342.157 75.642 343.567 74.8944C343.567 74.9798 343.984 74.9971 344.076 74.7019L344.079 74.6987Z" fill="#101214"/>
<path d="M337.318 58.2505C336.497 58.4439 336.965 57.8852 337.366 57.7953C337.357 58.6141 338.228 57.4563 338.33 57.0514C338.217 57.1516 338.01 57.0001 338.232 56.7794C338.518 57.4196 341.287 54.5947 339.121 54.9756C339.077 55.0274 339.398 55.4285 339.238 55.3691C338.811 54.6969 338.75 55.5564 338.671 55.7295C338.405 55.4285 338.542 55.8286 338.401 55.7378C338.184 55.1784 338.104 56.596 337.911 56.0195C336.747 56.0788 336.256 58.2078 335.287 58.1642C335.567 59.1874 332.696 60.3258 334.61 60.7807C335.719 60.1477 336.56 59.555 337.318 58.2505Z" fill="#101214"/>
<path d="M348.599 59.5422C347.982 58.3902 346.316 60.6004 345.474 60.7696C344.381 60.8921 336.172 66.1296 339.5 66.0953C341.972 64.4874 344.258 63.6377 347.028 61.2775C347.504 60.9296 349.233 60.1276 348.599 59.5422Z" fill="#101214"/>
<path d="M336.285 89.1224C335.125 89.3432 335.29 87.6607 334.275 87.7749C332.515 88.2008 338.32 95.3825 339.227 93.9562C339.855 92.6157 336.32 90.0482 336.285 89.1224Z" fill="#101214"/>
</g>
<defs>
<clipPath id="clip0_7725_22822">
<rect width="415" height="120" fill="white"/>
</clipPath>
<clipPath id="clip1_7725_22822">
<rect width="19" height="19.4872" fill="white" transform="translate(106 21)"/>
</clipPath>
<clipPath id="clip2_7725_22822">
<rect width="31" height="31.7949" fill="white" transform="translate(297 57)"/>
</clipPath>
</defs>
</svg>
