<svg width="415" height="120" viewBox="0 0 415 120" fill="none" xmlns="http://www.w3.org/2000/svg">
<g clip-path="url(#clip0_7725_22730)">
<rect width="415" height="251" transform="translate(0 -115)" fill="#CFE1FD"/>
<mask id="mask0_7725_22730" style="mask-type:alpha" maskUnits="userSpaceOnUse" x="0" y="-115" width="415" height="251">
<rect y="-115" width="415" height="251" fill="#F0F1F2"/>
</mask>
<g mask="url(#mask0_7725_22730)">
<path opacity="0.5" d="M55.6759 92.0222L-27.606 20.5424L-37.0013 9.3049L19.8345 -72.3698L118.195 -50.8215L107.408 72.3276L55.6759 92.0222Z" stroke="white" stroke-width="2"/>
<rect x="209.482" y="86.6106" width="74.6986" height="61.1691" stroke="white" stroke-width="2"/>
<path opacity="0.5" d="M234.071 69.5907L139.422 24.9883C150.093 8.53751 176.887 -30.8517 198.694 -56.8022C220.5 -82.7527 262.064 -119.902 280.12 -135.233L336.608 -48.8085C322.341 -35.6402 294.387 -11.1571 279.772 6.6839C266.094 23.3805 241.688 56.4224 234.071 69.5907Z" stroke="white" stroke-width="2"/>
<path opacity="0.5" d="M85.3704 99.4442L29.1145 134.663L182.687 129.45L85.3704 99.4442Z" stroke="white" stroke-width="2"/>
<ellipse opacity="0.5" cx="347.278" cy="112.111" rx="83.9779" ry="80.2844" stroke="white" stroke-width="2"/>
</g>
<line x1="78" y1="59.5" x2="337" y2="59.5" stroke="#F0F1F2"/>
<rect x="87" y="19" width="250" height="101" fill="white"/>
<path fill-rule="evenodd" clip-rule="evenodd" d="M121.447 115C121.447 114.632 121.745 114.333 122.113 114.333H123.333C123.702 114.333 124 114.632 124 115C124 115.368 123.702 115.667 123.333 115.667H122.113C121.745 115.667 121.447 115.368 121.447 115Z" fill="#964AC0"/>
<path fill-rule="evenodd" clip-rule="evenodd" d="M118 109C118.368 109 118.667 109.298 118.667 109.667V110.887C118.667 111.255 118.368 111.553 118 111.553C117.632 111.553 117.333 111.255 117.333 110.887V109.667C117.333 109.298 117.632 109 118 109Z" fill="#964AC0"/>
<path fill-rule="evenodd" clip-rule="evenodd" d="M112 115C112 114.632 112.298 114.333 112.667 114.333H113.887C114.255 114.333 114.553 114.632 114.553 115C114.553 115.368 114.255 115.667 113.887 115.667H112.667C112.298 115.667 112 115.368 112 115Z" fill="#964AC0"/>
<path fill-rule="evenodd" clip-rule="evenodd" d="M118 118.447C118.368 118.447 118.667 118.745 118.667 119.113V120.333C118.667 120.702 118.368 121 118 121C117.632 121 117.333 120.702 117.333 120.333V119.113C117.333 118.745 117.632 118.447 118 118.447Z" fill="#964AC0"/>
<path fill-rule="evenodd" clip-rule="evenodd" d="M119.529 116.529C119.789 116.268 120.211 116.268 120.471 116.529L123.138 119.195C123.398 119.456 123.398 119.878 123.138 120.138C122.878 120.398 122.456 120.398 122.195 120.138L119.529 117.471C119.268 117.211 119.268 116.789 119.529 116.529Z" fill="#964AC0"/>
<path fill-rule="evenodd" clip-rule="evenodd" d="M123.138 109.862C123.398 110.122 123.398 110.544 123.138 110.805L120.471 113.471C120.211 113.732 119.789 113.732 119.529 113.471C119.268 113.211 119.268 112.789 119.529 112.529L122.195 109.862C122.456 109.602 122.878 109.602 123.138 109.862Z" fill="#964AC0"/>
<path fill-rule="evenodd" clip-rule="evenodd" d="M112.862 109.862C113.122 109.602 113.544 109.602 113.805 109.862L116.471 112.529C116.732 112.789 116.732 113.211 116.471 113.471C116.211 113.732 115.789 113.732 115.529 113.471L112.862 110.805C112.602 110.544 112.602 110.122 112.862 109.862Z" fill="#964AC0"/>
<path fill-rule="evenodd" clip-rule="evenodd" d="M116.471 116.529C116.732 116.789 116.732 117.211 116.471 117.471L113.805 120.138C113.544 120.398 113.122 120.398 112.862 120.138C112.602 119.878 112.602 119.456 112.862 119.195L115.529 116.529C115.789 116.268 116.211 116.268 116.471 116.529Z" fill="#964AC0"/>
<rect x="132" y="107" width="146" height="5" fill="#DDDEE1"/>
<rect x="132" y="116" width="177" height="5" fill="#F0F1F2"/>
<path fill-rule="evenodd" clip-rule="evenodd" d="M121.447 70.5C121.447 70.1319 121.745 69.8334 122.113 69.8334H123.333C123.702 69.8334 124 70.1319 124 70.5C124 70.8682 123.702 71.1667 123.333 71.1667H122.113C121.745 71.1667 121.447 70.8682 121.447 70.5Z" fill="#964AC0"/>
<path fill-rule="evenodd" clip-rule="evenodd" d="M118 64.5C118.368 64.5 118.667 64.7985 118.667 65.1667V66.3867C118.667 66.7549 118.368 67.0533 118 67.0533C117.632 67.0533 117.333 66.7549 117.333 66.3867V65.1667C117.333 64.7985 117.632 64.5 118 64.5Z" fill="#964AC0"/>
<path fill-rule="evenodd" clip-rule="evenodd" d="M112 70.5C112 70.1319 112.298 69.8334 112.667 69.8334H113.887C114.255 69.8334 114.553 70.1319 114.553 70.5C114.553 70.8682 114.255 71.1667 113.887 71.1667H112.667C112.298 71.1667 112 70.8682 112 70.5Z" fill="#964AC0"/>
<path fill-rule="evenodd" clip-rule="evenodd" d="M118 73.9467C118.368 73.9467 118.667 74.2451 118.667 74.6133V75.8333C118.667 76.2015 118.368 76.5 118 76.5C117.632 76.5 117.333 76.2015 117.333 75.8333V74.6133C117.333 74.2451 117.632 73.9467 118 73.9467Z" fill="#964AC0"/>
<path fill-rule="evenodd" clip-rule="evenodd" d="M119.529 72.0286C119.789 71.7683 120.211 71.7683 120.471 72.0286L123.138 74.6953C123.398 74.9557 123.398 75.3778 123.138 75.6381C122.878 75.8985 122.456 75.8985 122.195 75.6381L119.529 72.9714C119.268 72.7111 119.268 72.289 119.529 72.0286Z" fill="#964AC0"/>
<path fill-rule="evenodd" clip-rule="evenodd" d="M123.138 65.3619C123.398 65.6222 123.398 66.0443 123.138 66.3047L120.471 68.9714C120.211 69.2317 119.789 69.2317 119.529 68.9714C119.268 68.711 119.268 68.2889 119.529 68.0286L122.195 65.3619C122.456 65.1015 122.878 65.1015 123.138 65.3619Z" fill="#964AC0"/>
<path fill-rule="evenodd" clip-rule="evenodd" d="M112.862 65.3619C113.122 65.1015 113.544 65.1015 113.805 65.3619L116.471 68.0286C116.732 68.2889 116.732 68.711 116.471 68.9714C116.211 69.2317 115.789 69.2317 115.529 68.9714L112.862 66.3047C112.602 66.0443 112.602 65.6222 112.862 65.3619Z" fill="#964AC0"/>
<path fill-rule="evenodd" clip-rule="evenodd" d="M116.471 72.0286C116.732 72.289 116.732 72.7111 116.471 72.9714L113.805 75.6381C113.544 75.8985 113.122 75.8985 112.862 75.6381C112.602 75.3778 112.602 74.9557 112.862 74.6953L115.529 72.0286C115.789 71.7683 116.211 71.7683 116.471 72.0286Z" fill="#964AC0"/>
<rect x="131" y="63" width="178" height="5" fill="#DDDEE1"/>
<rect x="131" y="72" width="128" height="5" fill="#DDDEE1"/>
<rect x="131" y="81" width="178" height="5" fill="#F0F1F2"/>
<rect x="131" y="90" width="111" height="5" fill="#F0F1F2"/>
<rect x="112" y="42" width="127" height="6" fill="#F0F1F2"/>
</g>
<defs>
<clipPath id="clip0_7725_22730">
<rect width="415" height="120" fill="white"/>
</clipPath>
</defs>
</svg>
