<svg width="415" height="120" viewBox="0 0 415 120" fill="none" xmlns="http://www.w3.org/2000/svg">
<g clip-path="url(#clip0_7725_22438)">
<rect width="415" height="251" transform="translate(0 -115)" fill="#CFE1FD"/>
<mask id="mask0_7725_22438" style="mask-type:alpha" maskUnits="userSpaceOnUse" x="0" y="-115" width="415" height="251">
<rect y="-115" width="415" height="251" fill="#F0F1F2"/>
</mask>
<g mask="url(#mask0_7725_22438)">
<path opacity="0.5" d="M55.6758 92.0222L-27.6061 20.5424L-37.0015 9.3049L19.8344 -72.3698L118.195 -50.8215L107.408 72.3276L55.6758 92.0222Z" stroke="white" stroke-width="2"/>
<rect x="209.481" y="86.6106" width="74.6986" height="61.1691" stroke="white" stroke-width="2"/>
<path opacity="0.5" d="M234.071 69.5907L139.422 24.9883C150.093 8.53751 176.887 -30.8517 198.694 -56.8022C220.5 -82.7527 262.064 -119.902 280.12 -135.233L336.608 -48.8085C322.341 -35.6402 294.387 -11.1571 279.772 6.6839C266.094 23.3805 241.688 56.4224 234.071 69.5907Z" stroke="white" stroke-width="2"/>
<path opacity="0.5" d="M85.3704 99.4443L29.1145 134.663L182.687 129.45L85.3704 99.4443Z" stroke="white" stroke-width="2"/>
<ellipse opacity="0.5" cx="347.278" cy="112.111" rx="83.9779" ry="80.2844" stroke="white" stroke-width="2"/>
</g>
<line x1="78" y1="59.5" x2="337" y2="59.5" stroke="#F0F1F2"/>
<rect x="87" y="19" width="250" height="101" fill="white"/>
<rect x="112" y="100" width="198" height="6" fill="#F0F1F2"/>
<rect x="112.5" y="106.5" width="66" height="13" fill="white"/>
<rect x="112.5" y="106.5" width="66" height="13" stroke="#F0F1F2"/>
<rect x="130.5" y="112" width="30" height="2" fill="#F0F1F2"/>
<rect x="178.5" y="106.5" width="66" height="13" fill="white"/>
<rect x="178.5" y="106.5" width="66" height="13" stroke="#F0F1F2"/>
<rect x="244.5" y="106.5" width="65" height="13" fill="white"/>
<rect x="244.5" y="106.5" width="65" height="13" stroke="#F0F1F2"/>
<rect x="112" y="42" width="127" height="6" fill="#F0F1F2"/>
<rect x="112" y="70" width="199" height="6" fill="#F0F1F2"/>
<rect x="112" y="82" width="104" height="6" fill="#F0F1F2"/>
<circle cx="116" cy="57" r="4" fill="#F0F1F2"/>
<rect x="123" y="55" width="26" height="4" fill="#F0F1F2"/>
</g>
<defs>
<clipPath id="clip0_7725_22438">
<rect width="415" height="120" fill="white"/>
</clipPath>
</defs>
</svg>
