<svg width="415" height="120" viewBox="0 0 415 120" fill="none" xmlns="http://www.w3.org/2000/svg">
<g clip-path="url(#clip0_7725_22326)">
<rect width="415" height="251" transform="translate(0 -115)" fill="#CFE1FD"/>
<mask id="mask0_7725_22326" style="mask-type:alpha" maskUnits="userSpaceOnUse" x="0" y="-115" width="415" height="251">
<rect y="-115" width="415" height="251" fill="#F0F1F2"/>
</mask>
<g mask="url(#mask0_7725_22326)">
<path opacity="0.5" d="M55.6759 92.0222L-27.606 20.5424L-37.0013 9.3049L19.8345 -72.3698L118.195 -50.8215L107.408 72.3276L55.6759 92.0222Z" stroke="white" stroke-width="2"/>
<rect x="209.482" y="86.6106" width="74.6986" height="61.1691" stroke="white" stroke-width="2"/>
<path opacity="0.5" d="M234.071 69.5907L139.422 24.9883C150.093 8.53751 176.887 -30.8517 198.694 -56.8022C220.5 -82.7527 262.064 -119.902 280.12 -135.233L336.608 -48.8085C322.341 -35.6402 294.387 -11.1571 279.772 6.6839C266.094 23.3805 241.688 56.4224 234.071 69.5907Z" stroke="white" stroke-width="2"/>
<path opacity="0.5" d="M85.3704 99.4442L29.1144 134.663L182.687 129.45L85.3704 99.4442Z" stroke="white" stroke-width="2"/>
<ellipse opacity="0.5" cx="347.278" cy="112.111" rx="83.9779" ry="80.2844" stroke="white" stroke-width="2"/>
</g>
<rect x="93" y="19" width="229" height="101" fill="white"/>
<rect x="109" y="37" width="198" height="83" fill="#FFF5D4"/>
<g clip-path="url(#clip1_7725_22326)">
<path fill-rule="evenodd" clip-rule="evenodd" d="M201.667 77.4165H199.292V90.0832H216.708V77.4165L214.333 77.4165V74.2498C214.333 70.752 211.498 67.9165 208 67.9165C204.502 67.9165 201.667 70.752 201.667 74.2498L201.667 77.4165ZM204.833 77.4165V74.2498C204.833 72.5009 206.251 71.0832 208 71.0832C209.749 71.0832 211.167 72.5009 211.167 74.2498V77.4165L204.833 77.4165Z" fill="#FCA700"/>
</g>
</g>
<defs>
<clipPath id="clip0_7725_22326">
<rect width="415" height="120" fill="white"/>
</clipPath>
<clipPath id="clip1_7725_22326">
<rect width="38" height="38" fill="white" transform="translate(189 60)"/>
</clipPath>
</defs>
</svg>
