<svg width="415" height="120" viewBox="0 0 415 120" fill="none" xmlns="http://www.w3.org/2000/svg">
<g clip-path="url(#clip0_7725_22384)">
<rect width="415" height="251" transform="translate(0 -115)" fill="#CFE1FD"/>
<mask id="mask0_7725_22384" style="mask-type:alpha" maskUnits="userSpaceOnUse" x="0" y="-115" width="415" height="251">
<rect y="-115" width="415" height="251" fill="#F0F1F2"/>
</mask>
<g mask="url(#mask0_7725_22384)">
<path opacity="0.5" d="M55.6759 92.0223L-27.606 20.5425L-37.0013 9.30502L19.8345 -72.3696L118.195 -50.8214L107.408 72.3277L55.6759 92.0223Z" stroke="white" stroke-width="2"/>
<rect x="209.482" y="86.6106" width="74.6986" height="61.1691" stroke="white" stroke-width="2"/>
<path opacity="0.5" d="M234.071 69.5906L139.422 24.9882C150.093 8.53738 176.887 -30.8518 198.694 -56.8023C220.5 -82.7529 262.064 -119.902 280.12 -135.233L336.608 -48.8086C322.341 -35.6403 294.387 -11.1572 279.772 6.68378C266.094 23.3804 241.688 56.4223 234.071 69.5906Z" stroke="white" stroke-width="2"/>
<path opacity="0.5" d="M85.3704 99.4443L29.1145 134.663L182.687 129.45L85.3704 99.4443Z" stroke="white" stroke-width="2"/>
<ellipse opacity="0.5" cx="347.278" cy="112.111" rx="83.9779" ry="80.2844" stroke="white" stroke-width="2"/>
</g>
<line x1="78" y1="59.5" x2="337" y2="59.5" stroke="#F0F1F2"/>
<rect x="45" y="19" width="328" height="101" fill="white"/>
<rect x="312" y="41" width="44" height="3" fill="#DDDEE1"/>
<g clip-path="url(#clip1_7725_22384)">
<path d="M303 37L304.587 40.8157L308.706 41.1459L305.568 43.8343L306.527 47.8541L303 45.7L299.473 47.8541L300.432 43.8343L297.294 41.1459L301.413 40.8157L303 37Z" fill="#964AC0"/>
</g>
<line x1="64" y1="98.5" x2="268" y2="98.5" stroke="#F0F1F2"/>
<line x1="64" y1="55.5" x2="268" y2="55.5" stroke="#F0F1F2"/>
<path d="M74 85.4152L110.178 77.4382C111.11 77.2326 112.085 77.4832 112.802 78.1131L138.276 100.471C139.302 101.372 140.806 101.466 141.936 100.701L175.421 78.039C176.274 77.4615 177.364 77.3623 178.308 77.7764L203.76 88.9462C204.633 89.3293 205.636 89.2746 206.463 88.7988L253 62" stroke="#94C748" stroke-width="2" stroke-linecap="round"/>
<path d="M74 59.4153L112.175 67.9274C112.391 67.9757 112.601 68.0477 112.802 68.1422L137.078 79.5932C138.229 80.1365 139.599 79.8934 140.493 78.9869L174.214 44.8103C175.244 43.7658 176.879 43.62 178.078 44.4656L204.783 63.2981C205.025 63.4688 205.291 63.6028 205.573 63.6955L253.5 79.5" stroke="#FFC716" stroke-width="2" stroke-linecap="round"/>
<g clip-path="url(#clip2_7725_22384)">
<path fill-rule="evenodd" clip-rule="evenodd" d="M300.375 59H308.625C308.99 59 309.339 59.1449 309.597 59.4027C309.855 59.6606 310 60.0103 310 60.375V68.625C310 68.9897 309.855 69.3394 309.597 69.5973C309.339 69.8551 308.99 70 308.625 70H300.375C300.01 70 299.661 69.8551 299.403 69.5973C299.145 69.3394 299 68.9897 299 68.625V60.375C299 60.0103 299.145 59.6606 299.403 59.4027C299.661 59.1449 300.01 59 300.375 59V59ZM301.75 61.0625C301.568 61.0625 301.393 61.1349 301.264 61.2639C301.135 61.3928 301.062 61.5677 301.062 61.75C301.062 61.9323 301.135 62.1072 301.264 62.2361C301.393 62.3651 301.568 62.4375 301.75 62.4375H307.25C307.432 62.4375 307.607 62.3651 307.736 62.2361C307.865 62.1072 307.938 61.9323 307.938 61.75C307.938 61.5677 307.865 61.3928 307.736 61.2639C307.607 61.1349 307.432 61.0625 307.25 61.0625H301.75ZM301.75 63.8125C301.568 63.8125 301.393 63.8849 301.264 64.0139C301.135 64.1428 301.062 64.3177 301.062 64.5C301.062 64.6823 301.135 64.8572 301.264 64.9861C301.393 65.1151 301.568 65.1875 301.75 65.1875H307.25C307.432 65.1875 307.607 65.1151 307.736 64.9861C307.865 64.8572 307.938 64.6823 307.938 64.5C307.938 64.3177 307.865 64.1428 307.736 64.0139C307.607 63.8849 307.432 63.8125 307.25 63.8125H301.75ZM301.75 66.5625C301.568 66.5625 301.393 66.6349 301.264 66.7639C301.135 66.8928 301.062 67.0677 301.062 67.25C301.062 67.4323 301.135 67.6072 301.264 67.7361C301.393 67.8651 301.568 67.9375 301.75 67.9375H304.5C304.682 67.9375 304.857 67.8651 304.986 67.7361C305.115 67.6072 305.188 67.4323 305.188 67.25C305.188 67.0677 305.115 66.8928 304.986 66.7639C304.857 66.6349 304.682 66.5625 304.5 66.5625H301.75Z" fill="#2684FF"/>
</g>
<rect x="314" y="63" width="34" height="3" fill="#DDDEE1"/>
<g clip-path="url(#clip3_7725_22384)">
<path fill-rule="evenodd" clip-rule="evenodd" d="M300.375 77H308.625C308.99 77 309.339 77.1449 309.597 77.4027C309.855 77.6606 310 78.0103 310 78.375V86.625C310 86.9897 309.855 87.3394 309.597 87.5973C309.339 87.8551 308.99 88 308.625 88H300.375C300.01 88 299.661 87.8551 299.403 87.5973C299.145 87.3394 299 86.9897 299 86.625V78.375C299 78.0103 299.145 77.6606 299.403 77.4027C299.661 77.1449 300.01 77 300.375 77V77ZM301.75 79.0625C301.568 79.0625 301.393 79.1349 301.264 79.2639C301.135 79.3928 301.062 79.5677 301.062 79.75C301.062 79.9323 301.135 80.1072 301.264 80.2361C301.393 80.3651 301.568 80.4375 301.75 80.4375H307.25C307.432 80.4375 307.607 80.3651 307.736 80.2361C307.865 80.1072 307.938 79.9323 307.938 79.75C307.938 79.5677 307.865 79.3928 307.736 79.2639C307.607 79.1349 307.432 79.0625 307.25 79.0625H301.75ZM301.75 81.8125C301.568 81.8125 301.393 81.8849 301.264 82.0139C301.135 82.1428 301.062 82.3177 301.062 82.5C301.062 82.6823 301.135 82.8572 301.264 82.9861C301.393 83.1151 301.568 83.1875 301.75 83.1875H307.25C307.432 83.1875 307.607 83.1151 307.736 82.9861C307.865 82.8572 307.938 82.6823 307.938 82.5C307.938 82.3177 307.865 82.1428 307.736 82.0139C307.607 81.8849 307.432 81.8125 307.25 81.8125H301.75ZM301.75 84.5625C301.568 84.5625 301.393 84.6349 301.264 84.7639C301.135 84.8928 301.062 85.0677 301.062 85.25C301.062 85.4323 301.135 85.6072 301.264 85.7361C301.393 85.8651 301.568 85.9375 301.75 85.9375H304.5C304.682 85.9375 304.857 85.8651 304.986 85.7361C305.115 85.6072 305.188 85.4323 305.188 85.25C305.188 85.0677 305.115 84.8928 304.986 84.7639C304.857 84.6349 304.682 84.5625 304.5 84.5625H301.75Z" fill="#2684FF"/>
</g>
<rect x="314" y="81" width="28" height="3" fill="#DDDEE1"/>
<g clip-path="url(#clip4_7725_22384)">
<path fill-rule="evenodd" clip-rule="evenodd" d="M300.375 95H308.625C308.99 95 309.339 95.1449 309.597 95.4027C309.855 95.6606 310 96.0103 310 96.375V104.625C310 104.99 309.855 105.339 309.597 105.597C309.339 105.855 308.99 106 308.625 106H300.375C300.01 106 299.661 105.855 299.403 105.597C299.145 105.339 299 104.99 299 104.625V96.375C299 96.0103 299.145 95.6606 299.403 95.4027C299.661 95.1449 300.01 95 300.375 95V95ZM301.75 97.0625C301.568 97.0625 301.393 97.1349 301.264 97.2639C301.135 97.3928 301.062 97.5677 301.062 97.75C301.062 97.9323 301.135 98.1072 301.264 98.2361C301.393 98.3651 301.568 98.4375 301.75 98.4375H307.25C307.432 98.4375 307.607 98.3651 307.736 98.2361C307.865 98.1072 307.938 97.9323 307.938 97.75C307.938 97.5677 307.865 97.3928 307.736 97.2639C307.607 97.1349 307.432 97.0625 307.25 97.0625H301.75ZM301.75 99.8125C301.568 99.8125 301.393 99.8849 301.264 100.014C301.135 100.143 301.062 100.318 301.062 100.5C301.062 100.682 301.135 100.857 301.264 100.986C301.393 101.115 301.568 101.188 301.75 101.188H307.25C307.432 101.188 307.607 101.115 307.736 100.986C307.865 100.857 307.938 100.682 307.938 100.5C307.938 100.318 307.865 100.143 307.736 100.014C307.607 99.8849 307.432 99.8125 307.25 99.8125H301.75ZM301.75 102.562C301.568 102.562 301.393 102.635 301.264 102.764C301.135 102.893 301.062 103.068 301.062 103.25C301.062 103.432 301.135 103.607 301.264 103.736C301.393 103.865 301.568 103.938 301.75 103.938H304.5C304.682 103.938 304.857 103.865 304.986 103.736C305.115 103.607 305.188 103.432 305.188 103.25C305.188 103.068 305.115 102.893 304.986 102.764C304.857 102.635 304.682 102.562 304.5 102.562H301.75Z" fill="#2684FF"/>
</g>
<rect x="314" y="99" width="39" height="3" fill="#DDDEE1"/>
</g>
<defs>
<clipPath id="clip0_7725_22384">
<rect width="415" height="120" fill="white"/>
</clipPath>
<clipPath id="clip1_7725_22384">
<rect width="16" height="16" fill="white" transform="translate(295 35)"/>
</clipPath>
<clipPath id="clip2_7725_22384">
<rect width="11" height="11" fill="white" transform="translate(299 59)"/>
</clipPath>
<clipPath id="clip3_7725_22384">
<rect width="11" height="11" fill="white" transform="translate(299 77)"/>
</clipPath>
<clipPath id="clip4_7725_22384">
<rect width="11" height="11" fill="white" transform="translate(299 95)"/>
</clipPath>
</defs>
</svg>
