<svg width="415" height="120" viewBox="0 0 415 120" fill="none" xmlns="http://www.w3.org/2000/svg">
<g clip-path="url(#clip0_7725_22464)">
<rect width="415" height="251" transform="translate(0 -115)" fill="#CFE1FD"/>
<mask id="mask0_7725_22464" style="mask-type:alpha" maskUnits="userSpaceOnUse" x="0" y="-115" width="415" height="251">
<rect y="-115" width="415" height="251" fill="#F0F1F2"/>
</mask>
<g mask="url(#mask0_7725_22464)">
<path opacity="0.5" d="M55.6758 92.0223L-27.6061 20.5425L-37.0015 9.30502L19.8344 -72.3696L118.195 -50.8214L107.408 72.3277L55.6758 92.0223Z" stroke="white" stroke-width="2"/>
<rect x="209.481" y="86.6106" width="74.6986" height="61.1691" stroke="white" stroke-width="2"/>
<path opacity="0.5" d="M234.071 69.5906L139.422 24.9882C150.093 8.53738 176.887 -30.8518 198.694 -56.8023C220.5 -82.7529 262.064 -119.902 280.12 -135.233L336.608 -48.8086C322.341 -35.6403 294.387 -11.1572 279.772 6.68378C266.094 23.3804 241.688 56.4223 234.071 69.5906Z" stroke="white" stroke-width="2"/>
<path opacity="0.5" d="M85.3704 99.4443L29.1145 134.663L182.687 129.45L85.3704 99.4443Z" stroke="white" stroke-width="2"/>
<ellipse opacity="0.5" cx="347.278" cy="112.111" rx="83.9779" ry="80.2844" stroke="white" stroke-width="2"/>
</g>
<rect x="105" y="19" width="220" height="101" fill="white"/>
<rect x="125.529" y="39.2801" width="182.293" height="28.3567" stroke="#F0F1F2" stroke-width="1.35032"/>
<rect x="125.529" y="39.2801" width="32.3176" height="28.3567" fill="white"/>
<rect x="125.529" y="39.2801" width="32.3176" height="28.3567" stroke="#F0F1F2" stroke-width="1.35032"/>
<rect x="157.666" y="39.2801" width="30.7873" height="28.3567" fill="white"/>
<rect x="157.666" y="39.2801" width="30.7873" height="28.3567" stroke="#F0F1F2" stroke-width="1.35032"/>
<rect x="188.274" y="39.2801" width="29.2569" height="28.3567" fill="white"/>
<rect x="188.274" y="39.2801" width="29.2569" height="28.3567" stroke="#F0F1F2" stroke-width="1.35032"/>
<rect x="217.35" y="39.2801" width="30.7873" height="28.3567" fill="white"/>
<rect x="217.35" y="39.2801" width="30.7873" height="28.3567" stroke="#F0F1F2" stroke-width="1.35032"/>
<rect x="247.958" y="39.2801" width="30.7873" height="28.3567" fill="white"/>
<rect x="247.958" y="39.2801" width="30.7873" height="28.3567" stroke="#F0F1F2" stroke-width="1.35032"/>
<rect x="278.565" y="39.2801" width="29.2569" height="28.3567" fill="white"/>
<rect x="278.565" y="39.2801" width="29.2569" height="28.3567" stroke="#F0F1F2" stroke-width="1.35032"/>
<rect x="125.529" y="67.6368" width="32.3176" height="27.8265" fill="white"/>
<rect x="125.529" y="67.6368" width="32.3176" height="27.8265" stroke="#F0F1F2" stroke-width="1.35032"/>
<rect x="157.666" y="67.6368" width="30.7873" height="27.8265" fill="white"/>
<rect x="157.666" y="67.6368" width="30.7873" height="27.8265" stroke="#F0F1F2" stroke-width="1.35032"/>
<rect x="188.274" y="67.6368" width="29.2569" height="27.8265" fill="white"/>
<rect x="188.274" y="67.6368" width="29.2569" height="27.8265" stroke="#F0F1F2" stroke-width="1.35032"/>
<rect x="217.35" y="67.6368" width="30.7873" height="27.8265" fill="white"/>
<rect x="217.35" y="67.6368" width="30.7873" height="27.8265" stroke="#F0F1F2" stroke-width="1.35032"/>
<rect x="247.958" y="67.6368" width="30.7873" height="27.8265" fill="white"/>
<rect x="247.958" y="67.6368" width="30.7873" height="27.8265" stroke="#F0F1F2" stroke-width="1.35032"/>
<rect x="278.565" y="67.6368" width="29.2569" height="27.8265" fill="white"/>
<rect x="278.565" y="67.6368" width="29.2569" height="27.8265" stroke="#F0F1F2" stroke-width="1.35032"/>
<rect x="125.529" y="95.4635" width="32.3176" height="27.8265" fill="white"/>
<rect x="125.529" y="95.4635" width="32.3176" height="27.8265" stroke="#F0F1F2" stroke-width="1.35032"/>
<rect x="157.666" y="95.4635" width="30.7873" height="27.8265" fill="white"/>
<rect x="157.666" y="95.4635" width="30.7873" height="27.8265" stroke="#F0F1F2" stroke-width="1.35032"/>
<rect x="188.274" y="95.4635" width="29.2569" height="27.8265" fill="white"/>
<rect x="188.274" y="95.4635" width="29.2569" height="27.8265" stroke="#F0F1F2" stroke-width="1.35032"/>
<rect x="217.35" y="95.4635" width="30.7873" height="27.8265" fill="white"/>
<rect x="217.35" y="95.4635" width="30.7873" height="27.8265" stroke="#F0F1F2" stroke-width="1.35032"/>
<rect x="247.958" y="95.4635" width="30.7873" height="27.8265" fill="white"/>
<rect x="247.958" y="95.4635" width="30.7873" height="27.8265" stroke="#F0F1F2" stroke-width="1.35032"/>
<rect x="278.565" y="95.4635" width="29.2569" height="27.8265" fill="white"/>
<rect x="278.565" y="95.4635" width="29.2569" height="27.8265" stroke="#F0F1F2" stroke-width="1.35032"/>
<rect x="193.72" y="100.42" width="18.9045" height="5.40127" fill="#1868DB"/>
<rect x="254" y="100.42" width="18.9045" height="5.40127" fill="#964AC0"/>
<rect x="162.662" y="46.0574" width="20.2548" height="5.40127" fill="#82B536"/>
<rect x="193.72" y="107.172" width="18.9045" height="5.40127" fill="#CFE1FD"/>
<rect x="162.662" y="52.8091" width="20.2548" height="5.40127" fill="#D3F1A7"/>
</g>
<defs>
<clipPath id="clip0_7725_22464">
<rect width="415" height="120" fill="white"/>
</clipPath>
</defs>
</svg>
