<svg width="415" height="120" viewBox="0 0 415 120" fill="none" xmlns="http://www.w3.org/2000/svg">
<g clip-path="url(#clip0_7725_22758)">
<rect width="415" height="251" transform="translate(0 -115)" fill="#CFE1FD"/>
<mask id="mask0_7725_22758" style="mask-type:alpha" maskUnits="userSpaceOnUse" x="0" y="-115" width="415" height="251">
<rect y="-115" width="415" height="251" fill="#F0F1F2"/>
</mask>
<g mask="url(#mask0_7725_22758)">
<path opacity="0.5" d="M55.6758 92.0222L-27.6061 20.5424L-37.0015 9.3049L19.8344 -72.3698L118.195 -50.8215L107.408 72.3276L55.6758 92.0222Z" stroke="white" stroke-width="2"/>
<rect x="209.482" y="86.6106" width="74.6986" height="61.1691" stroke="white" stroke-width="2"/>
<path opacity="0.5" d="M234.071 69.5907L139.422 24.9883C150.093 8.53751 176.887 -30.8517 198.694 -56.8022C220.5 -82.7527 262.064 -119.902 280.12 -135.233L336.608 -48.8085C322.341 -35.6402 294.387 -11.1571 279.772 6.6839C266.094 23.3805 241.688 56.4224 234.071 69.5907Z" stroke="white" stroke-width="2"/>
<path opacity="0.5" d="M85.3704 99.4442L29.1145 134.663L182.687 129.45L85.3704 99.4442Z" stroke="white" stroke-width="2"/>
<ellipse opacity="0.5" cx="347.278" cy="112.111" rx="83.9779" ry="80.2844" stroke="white" stroke-width="2"/>
</g>
<line x1="78" y1="59.5" x2="337" y2="59.5" stroke="#F0F1F2"/>
<rect x="57" y="19" width="302" height="101" fill="white"/>
<line x1="78" y1="98.5" x2="337" y2="98.5" stroke="#F0F1F2"/>
<line x1="78" y1="55.5" x2="337" y2="55.5" stroke="#F0F1F2"/>
<path d="M81 81.3421L122.02 72.3252C122.951 72.1207 123.923 72.3702 124.64 72.9975L153.762 98.4788C154.786 99.3754 156.286 99.4695 157.415 98.708L195.632 72.9231C196.484 72.3483 197.571 72.2496 198.512 72.6616L227.615 85.3941C228.486 85.7752 229.486 85.7208 230.311 85.2474L283 55" stroke="#357DE8" stroke-width="2" stroke-linecap="round"/>
<circle cx="280" cy="62" r="23" fill="#AF59E0" stroke="white" stroke-width="2"/>
<path fill-rule="evenodd" clip-rule="evenodd" d="M279.985 65.5059C279.052 65.5052 278.157 65.1342 277.496 64.4742C276.836 63.8143 276.465 62.9194 276.463 61.9859C276.463 60.0446 278.043 58.4659 279.985 58.4659C280.919 58.4666 281.814 58.8376 282.474 59.4975C283.134 60.1575 283.506 61.0524 283.507 61.9859C283.507 63.9272 281.927 65.5059 279.985 65.5059ZM280 54.96C275.142 54.96 271.2 59.2192 271.2 62C271.2 64.7156 275.228 69.04 280 69.04C284.772 69.04 288.8 64.7156 288.8 62C288.8 59.2192 284.857 54.96 280 54.96Z" fill="white"/>
<path d="M280 63.76C280.972 63.76 281.76 62.972 281.76 62C281.76 61.0279 280.972 60.24 280 60.24C279.028 60.24 278.24 61.0279 278.24 62C278.24 62.972 279.028 63.76 280 63.76Z" fill="white"/>
</g>
<defs>
<clipPath id="clip0_7725_22758">
<rect width="415" height="120" fill="white"/>
</clipPath>
</defs>
</svg>
