<svg width="216" height="190" viewBox="0 0 216 190" fill="none" xmlns="http://www.w3.org/2000/svg">
<g clip-path="url(#clip0_146_12037)">
<path d="M152.034 134.073C152.572 131.044 152.856 127.83 152.856 124.423C152.856 121.017 152.572 117.71 152.022 114.644C148.746 96.4075 136.073 85.1627 118.312 82.2758C115.283 81.7813 112.106 81.5278 108.799 81.5278C105.491 81.5278 102.042 81.7998 98.8892 82.3253C81.1103 85.2926 68.4685 96.5064 65.1859 114.638C64.6296 117.704 64.3452 120.962 64.3452 124.417C64.3452 127.873 64.6296 131.038 65.1736 134.067C68.4314 152.18 81.0856 163.412 98.8954 166.379C102.048 166.905 105.355 167.177 108.805 167.177C112.254 167.177 115.29 166.923 118.319 166.429C136.116 163.536 148.795 152.273 152.047 134.061L152.034 134.073Z" fill="#6A9A23"/>
<path d="M120.55 119.929C120.699 119.095 120.779 118.211 120.779 117.271C120.779 116.332 120.699 115.423 120.55 114.582C119.648 109.563 116.161 106.472 111.271 105.674C110.437 105.538 109.565 105.47 108.65 105.47C107.735 105.47 106.789 105.544 105.924 105.693C101.028 106.509 97.5476 109.593 96.6451 114.588C96.4905 115.429 96.4102 116.332 96.4102 117.277C96.4102 118.223 96.4905 119.101 96.6389 119.936C97.5352 124.918 101.022 128.015 105.918 128.831C106.783 128.973 107.698 129.054 108.644 129.054C109.59 129.054 110.431 128.986 111.265 128.85C116.161 128.052 119.654 124.955 120.55 119.942V119.929Z" fill="white"/>
<path d="M140.771 70.5303H76.4243V98.5277H140.771V70.5303Z" fill="#6A9A23"/>
<path d="M116.346 122.977H100.849V143.513H116.346V122.977Z" fill="white"/>
<g clip-path="url(#clip1_146_12037)">
<path d="M91.9224 68.3324C90.9117 66.5818 90.0525 64.7722 89.3789 62.9626C85.194 51.7948 87.8539 41.108 96.6738 33.6603C98.1237 32.4377 99.7503 31.2987 101.501 30.288C103.252 29.2773 105.094 28.4134 106.902 27.762C117.772 23.8636 128.345 26.8959 135.918 36.0933C138.335 39.0308 140.407 42.5954 141.756 46.1426C145.981 57.2941 143.319 67.9893 134.441 75.4849C132.973 76.7252 131.33 77.8734 129.563 78.8934C127.797 79.9134 126.021 80.7456 124.238 81.39C113.314 85.3415 102.715 82.3024 95.1608 73.0513C93.9889 71.615 92.8969 70.0326 91.9202 68.3409L91.9224 68.3324ZM134.334 43.8462C133.487 42.3793 132.524 40.972 131.503 39.7344C125.469 32.411 117.424 30.0745 108.843 33.1514C107.357 33.6809 105.851 34.3862 104.368 35.2423C102.886 36.0985 101.565 37.0253 100.373 38.0274C93.4116 43.9096 91.4106 52.0532 94.7419 60.9512C95.854 63.9282 97.6074 66.9775 99.6011 69.4169C105.612 76.7749 113.671 79.1106 122.294 75.9952C123.763 75.4611 125.247 74.7683 126.703 73.9275C128.16 73.0868 129.545 72.123 130.755 71.1031C137.761 65.1878 139.768 57.0411 136.407 48.1669C135.861 46.7263 135.152 45.2511 134.336 43.8378L134.334 43.8462Z" fill="#6A9A23"/>
</g>
<path d="M161.666 113.952C160.51 107.523 156.052 103.22 149.438 102.144C147.342 101.804 145.03 101.811 142.928 102.163C136.413 103.251 131.999 107.455 130.769 113.711H97.0532C96.979 113.995 96.9172 114.292 96.8615 114.588C96.707 115.429 96.6328 116.332 96.6328 117.278C96.6328 118.223 96.7132 119.101 96.8615 119.936C96.9172 120.232 96.979 120.529 97.0532 120.814H130.769C131.987 127.07 136.4 131.273 142.928 132.361C143.998 132.54 145.111 132.633 146.248 132.633C147.386 132.633 148.418 132.547 149.444 132.38C156.071 131.304 160.528 126.995 161.678 120.566C161.863 119.522 161.962 118.415 161.962 117.284C161.962 116.152 161.863 115.021 161.678 113.958L161.666 113.952ZM154.624 119.299C154.025 122.65 151.836 124.727 148.288 125.308C146.971 125.524 145.444 125.518 144.103 125.295C140.548 124.702 138.354 122.631 137.754 119.299C137.643 118.668 137.581 117.988 137.581 117.278C137.581 116.567 137.637 115.862 137.754 115.225C138.36 111.893 140.555 109.816 144.103 109.223C144.783 109.111 145.5 109.05 146.242 109.05C146.984 109.05 147.639 109.105 148.288 109.21C151.83 109.785 154.019 111.862 154.618 115.219C154.736 115.862 154.791 116.554 154.791 117.278C154.791 118.001 154.736 118.668 154.618 119.305L154.624 119.299Z" fill="#FCA700"/>
<path d="M182.643 136.07C183.428 136.015 183.44 135.322 182.661 135.236C181.549 135.112 180.386 135.038 178.884 135.001C177.184 135.001 176.758 135.137 175.602 135.1C173.654 135.063 170.372 134.809 169.581 134.747C169.463 134.741 169.346 134.735 169.228 134.735C169.117 134.735 168.962 134.735 168.666 134.735C168.517 134.735 168.332 134.735 168.097 134.735H168.023H168.017L167.992 134.741C167.992 134.741 167.979 134.741 167.979 134.729V134.716C167.979 134.716 167.967 134.754 167.979 134.618C168.01 134.234 168.047 133.764 168.091 133.245C168.183 132.207 168.301 130.97 168.437 129.802C168.659 127.576 168.795 126.198 168.863 125.475C169.03 123.775 169.086 122.495 169.08 121.234C169.08 120.542 168.48 120.48 168.338 121.16C168.085 122.396 167.887 123.657 167.714 125.357C167.646 126.019 167.343 127.379 167.126 129.32C167.089 129.635 167.071 129.956 167.065 130.272C167.052 131.168 166.997 132.151 166.929 133.054C166.891 133.505 166.854 133.938 166.823 134.327C166.768 134.927 166.712 135.471 166.669 135.922C167.769 135.947 168.387 135.965 168.387 135.965C168.387 135.965 173.661 136.064 175.892 136.107C177.567 136.138 178.377 136.151 178.872 136.157C180.374 136.182 181.542 136.144 182.655 136.064L182.643 136.07Z" fill="#101214"/>
<path d="M146.356 88.9025C144.495 89.7617 144.823 90.3737 146.659 89.6814C149.304 88.7974 152.198 88.1297 155.956 88.1483C158.083 88.173 159.406 88.3399 160.549 88.5377C161.699 88.717 162.663 88.9643 164.03 89.4341C166.342 90.2377 169.247 91.8821 171.46 93.7799C171.732 94.021 172.004 94.2559 172.264 94.4908C172.394 94.6083 172.523 94.7196 172.653 94.837C172.771 94.9607 172.888 95.0843 172.999 95.2079C173.451 95.6963 173.871 96.1537 174.254 96.5617C174.947 97.4457 175.466 98.1567 175.763 98.5523C175.917 98.7996 176.072 99.0468 176.232 99.2941C176.517 99.733 177.092 100.512 177.648 101.662C177.796 101.946 177.957 102.243 178.124 102.558C178.279 102.88 178.408 103.232 178.557 103.59C178.705 103.949 178.86 104.326 179.014 104.716C179.163 105.105 179.268 105.525 179.398 105.952C179.521 106.378 179.67 106.811 179.775 107.262C179.867 107.72 179.954 108.184 180.047 108.653C180.096 108.888 180.139 109.129 180.189 109.364C180.232 109.605 180.238 109.853 180.269 110.094C180.319 110.588 180.362 111.083 180.411 111.584C180.461 112.084 180.424 112.591 180.43 113.098V113.858C180.43 114.112 180.424 114.365 180.387 114.619C180.269 115.626 180.226 116.64 179.972 117.598C179.75 118.983 179.323 120.176 178.99 121.264C178.798 121.802 178.563 122.284 178.371 122.754C178.161 123.218 178.007 123.669 177.79 124.065C176.98 125.666 176.232 126.754 175.713 127.489C174.458 129.22 173.172 130.58 171.887 131.736C170.601 132.892 169.315 133.826 167.974 134.666C166.49 135.544 166.725 136.101 168.338 135.316C169.779 134.568 171.182 133.677 172.567 132.528C173.951 131.378 175.33 129.974 176.647 128.169C177.147 127.465 177.945 126.383 178.792 124.831C179.014 124.448 179.212 124.028 179.41 123.57C179.614 123.119 179.824 122.643 180.047 122.148C180.275 121.654 180.411 121.097 180.609 120.535C180.788 119.966 181.005 119.385 181.11 118.748L181.357 117.518L181.468 116.9C181.493 116.696 181.506 116.486 181.518 116.276C181.549 115.83 181.586 115.373 181.617 114.916C181.629 114.687 181.66 114.458 181.66 114.223L181.648 113.525C181.642 113.055 181.635 112.585 181.623 112.115C181.635 111.645 181.536 111.176 181.499 110.712C181.45 110.248 181.4 109.785 181.351 109.327C181.258 108.876 181.172 108.431 181.085 107.998C180.992 107.565 180.924 107.133 180.819 106.718C180.696 106.31 180.578 105.915 180.467 105.532C180.35 105.148 180.238 104.777 180.133 104.425C179.997 104.085 179.867 103.757 179.738 103.448C179.478 102.836 179.305 102.268 179.058 101.841C178.612 100.969 178.353 100.456 178.353 100.456C178.353 100.456 178.254 100.265 178.075 99.9185C177.864 99.5908 177.562 99.121 177.184 98.5399C176.832 97.9403 176.313 97.3036 175.744 96.5927C175.212 95.8508 174.477 95.1647 173.76 94.4043C170.823 91.3937 166.366 89.0879 163.584 88.2596C161.495 87.5919 159.882 87.3385 158.658 87.1777C158.039 87.1159 157.52 87.0727 157.075 87.0417C156.624 87.0294 156.253 87.017 155.925 87.0047C151.994 86.9923 148.971 87.8083 146.312 88.9148L146.356 88.9025Z" fill="#101214"/>
<path d="M152.856 124.424C152.856 123.954 152.838 123.503 152.825 123.039C151.737 124.214 150.217 124.993 148.282 125.308C146.965 125.524 145.438 125.518 144.097 125.295C140.542 124.702 138.348 122.631 137.748 119.299C137.637 118.669 137.575 117.989 137.575 117.278C137.575 116.567 137.631 115.862 137.748 115.225C138.354 111.893 140.548 109.816 144.097 109.223C144.777 109.111 145.494 109.05 146.236 109.05C146.977 109.05 147.633 109.105 148.282 109.21C149.289 109.371 150.167 109.674 150.952 110.07C150.118 107.152 149.017 104.438 147.67 101.947C146.087 101.835 144.449 101.903 142.922 102.163C136.407 103.251 131.993 107.455 130.763 113.711H96.8305C96.7563 113.995 96.6945 114.292 96.6389 114.589C96.4843 115.429 96.4102 116.332 96.4102 117.278C96.4102 118.223 96.4905 119.101 96.6389 119.936C96.6945 120.233 96.7563 120.529 96.8305 120.814H130.763C131.98 127.07 136.394 131.273 142.922 132.361C143.992 132.541 145.104 132.633 146.242 132.633C147.379 132.633 148.412 132.547 149.438 132.38C150.489 132.207 151.478 131.947 152.411 131.619C152.708 129.326 152.863 126.927 152.863 124.43L152.856 124.424Z" fill="#164B35"/>
<path d="M96.8307 120.807H120.359C120.433 120.523 120.495 120.226 120.55 119.93C120.699 119.095 120.779 118.211 120.779 117.272C120.779 116.332 120.699 115.423 120.55 114.582C120.495 114.279 120.433 113.989 120.359 113.705H96.8369C96.7627 113.989 96.7009 114.286 96.6452 114.582C96.571 115.003 96.5092 115.442 96.4721 115.887C96.435 116.338 96.4165 116.796 96.4165 117.272C96.4165 117.748 96.435 118.193 96.4721 118.638C96.5092 119.083 96.5649 119.509 96.639 119.923C96.6947 120.22 96.7565 120.517 96.8307 120.801V120.807Z" fill="#FCA700"/>
</g>
<defs>
<clipPath id="clip0_146_12037">
<rect width="170" height="170" fill="white" transform="translate(39 20)"/>
</clipPath>
<clipPath id="clip1_146_12037">
<rect width="56" height="34" fill="white" transform="translate(125.445 17) rotate(60)"/>
</clipPath>
</defs>
</svg>
