<svg width="216" height="170" viewBox="0 0 216 170" fill="none" xmlns="http://www.w3.org/2000/svg">
<path d="M152.034 114.073C152.572 111.044 152.856 107.83 152.856 104.423C152.856 101.017 152.572 97.71 152.022 94.6438C148.746 76.4075 136.073 65.1627 118.312 62.2758C115.283 61.7813 112.106 61.5278 108.799 61.5278C105.491 61.5278 102.042 61.7998 98.8892 62.3253C81.1103 65.2926 68.4685 76.5064 65.1859 94.6376C64.6296 97.7038 64.3452 100.962 64.3452 104.417C64.3452 107.873 64.6296 111.038 65.1736 114.067C68.4314 132.18 81.0856 143.412 98.8954 146.379C102.048 146.905 105.355 147.177 108.805 147.177C112.254 147.177 115.29 146.923 118.319 146.429C136.116 143.536 148.795 132.273 152.047 114.061L152.034 114.073Z" fill="#AE2E24"/>
<path d="M120.55 99.9296C120.699 99.0951 120.779 98.2111 120.779 97.2714C120.779 96.3318 120.699 95.4231 120.55 94.5823C119.648 89.5627 116.161 86.4718 111.271 85.6743C110.437 85.5383 109.565 85.4703 108.65 85.4703C107.735 85.4703 106.789 85.5445 105.924 85.6929C101.028 86.5089 97.5476 89.5936 96.6451 94.5885C96.4905 95.4292 96.4102 96.3318 96.4102 97.2776C96.4102 98.2234 96.4905 99.1013 96.6389 99.9358C97.5352 104.918 101.022 108.015 105.918 108.831C106.783 108.974 107.698 109.054 108.644 109.054C109.59 109.054 110.431 108.986 111.265 108.85C116.161 108.053 119.654 104.955 120.55 99.942V99.9296Z" fill="white"/>
<path d="M140.771 50.5303H76.4243V78.5277H140.771V50.5303Z" fill="#AE2E24"/>
<path d="M116.346 102.977H100.849V123.513H116.346V102.977Z" fill="white"/>
<path d="M108.694 77.8789C106.672 77.8789 104.676 77.7182 102.772 77.3967C91.0076 75.4371 83.0826 67.7902 81.0426 56.428C80.7087 54.5611 80.5356 52.5829 80.5356 50.5615C80.5356 48.54 80.7087 46.5124 81.0487 44.6207C83.1073 33.2586 91.02 25.6178 102.772 23.6582C106.524 23.0338 110.647 23.0215 114.393 23.6273C126.164 25.5436 134.095 33.1967 136.147 44.6331C136.487 46.5247 136.66 48.5215 136.66 50.5615C136.66 52.6015 136.493 54.5549 136.16 56.4218C134.12 67.8582 126.188 75.5175 114.4 77.4338C112.57 77.7306 110.653 77.8851 108.7 77.8851L108.694 77.8789ZM108.694 28.9066C107 28.9066 105.3 29.0364 103.717 29.3022C94.3582 30.8662 88.3124 36.6647 86.6866 45.6346C86.4022 47.1862 86.26 48.8429 86.26 50.5553C86.26 52.2676 86.4022 53.8749 86.6742 55.408C88.2876 64.3778 94.3396 70.1826 103.711 71.7466C106.845 72.272 110.363 72.2782 113.472 71.7713C122.85 70.2444 128.902 64.4335 130.516 55.408C130.788 53.8687 130.93 52.2367 130.93 50.5553C130.93 48.8738 130.788 47.1924 130.509 45.6346C128.89 36.6091 122.838 30.7982 113.472 29.2713C111.952 29.024 110.32 28.9004 108.688 28.9004L108.694 28.9066Z" fill="#AE2E24"/>
<path d="M161.666 93.9518C160.51 87.5227 156.052 83.2201 149.438 82.1445C147.342 81.8045 145.03 81.8107 142.928 82.163C136.413 83.251 131.999 87.4547 130.769 93.7107H97.0532C96.979 93.995 96.9172 94.2918 96.8615 94.5885C96.707 95.4292 96.6328 96.3318 96.6328 97.2776C96.6328 98.2234 96.7132 99.1012 96.8615 99.9358C96.9172 100.232 96.979 100.529 97.0532 100.814H130.769C131.987 107.07 136.4 111.273 142.928 112.361C143.998 112.54 145.111 112.633 146.248 112.633C147.386 112.633 148.418 112.547 149.444 112.38C156.071 111.304 160.528 106.995 161.678 100.566C161.863 99.5216 161.962 98.415 161.962 97.2838C161.962 96.1525 161.863 95.0212 161.678 93.9579L161.666 93.9518ZM154.624 99.299C154.025 102.65 151.836 104.727 148.288 105.308C146.971 105.524 145.444 105.518 144.103 105.295C140.548 104.702 138.354 102.631 137.754 99.299C137.643 98.6685 137.581 97.9885 137.581 97.2776C137.581 96.5667 137.637 95.8619 137.754 95.2252C138.36 91.8932 140.555 89.8161 144.103 89.2227C144.783 89.1114 145.5 89.0496 146.242 89.0496C146.984 89.0496 147.639 89.1052 148.288 89.2103C151.83 89.7852 154.019 91.8623 154.618 95.219C154.736 95.8619 154.791 96.5543 154.791 97.2776C154.791 98.0009 154.736 98.6685 154.618 99.3052L154.624 99.299Z" fill="#FCA700"/>
<path d="M182.643 116.07C183.428 116.015 183.44 115.322 182.661 115.236C181.549 115.112 180.386 115.038 178.884 115.001C177.184 115.001 176.758 115.137 175.602 115.1C173.654 115.063 170.372 114.809 169.581 114.747C169.463 114.741 169.346 114.735 169.228 114.735C169.117 114.735 168.962 114.735 168.666 114.735C168.517 114.735 168.332 114.735 168.097 114.735H168.023H168.017L167.992 114.741C167.992 114.741 167.979 114.741 167.979 114.729V114.716C167.979 114.716 167.967 114.754 167.979 114.618C168.01 114.234 168.047 113.764 168.091 113.245C168.183 112.207 168.301 110.97 168.437 109.802C168.659 107.576 168.795 106.198 168.863 105.475C169.03 103.775 169.086 102.495 169.08 101.234C169.08 100.542 168.48 100.48 168.338 101.16C168.085 102.396 167.887 103.657 167.714 105.357C167.646 106.019 167.343 107.379 167.126 109.32C167.089 109.635 167.071 109.956 167.065 110.272C167.052 111.168 166.997 112.151 166.929 113.054C166.891 113.505 166.854 113.938 166.823 114.327C166.768 114.927 166.712 115.471 166.669 115.922C167.769 115.947 168.387 115.965 168.387 115.965C168.387 115.965 173.661 116.064 175.892 116.107C177.567 116.138 178.377 116.151 178.872 116.157C180.374 116.182 181.542 116.144 182.655 116.064L182.643 116.07Z" fill="#101214"/>
<path d="M146.356 68.9025C144.495 69.7617 144.823 70.3737 146.659 69.6814C149.304 68.7974 152.198 68.1297 155.956 68.1483C158.083 68.173 159.406 68.3399 160.549 68.5377C161.699 68.717 162.663 68.9643 164.03 69.4341C166.342 70.2377 169.247 71.8821 171.46 73.7799C171.732 74.021 172.004 74.2559 172.264 74.4908C172.394 74.6083 172.523 74.7196 172.653 74.837C172.771 74.9607 172.888 75.0843 172.999 75.2079C173.451 75.6963 173.871 76.1537 174.254 76.5617C174.947 77.4457 175.466 78.1567 175.763 78.5523C175.917 78.7996 176.072 79.0468 176.232 79.2941C176.517 79.733 177.092 80.5119 177.648 81.6617C177.796 81.9461 177.957 82.2428 178.124 82.5581C178.279 82.8796 178.408 83.2319 178.557 83.5905C178.705 83.949 178.86 84.3261 179.014 84.7156C179.163 85.105 179.268 85.5254 179.398 85.9519C179.521 86.3785 179.67 86.8112 179.775 87.2625C179.867 87.7199 179.954 88.1836 180.047 88.6534C180.096 88.8883 180.139 89.1294 180.189 89.3643C180.232 89.6054 180.238 89.8527 180.269 90.0937C180.319 90.5883 180.362 91.0828 180.411 91.5836C180.461 92.0843 180.424 92.5912 180.43 93.0981V93.8585C180.43 94.1119 180.424 94.3654 180.387 94.6188C180.269 95.6265 180.226 96.6403 179.972 97.5985C179.75 98.9832 179.323 100.176 178.99 101.264C178.798 101.802 178.563 102.284 178.371 102.754C178.161 103.218 178.007 103.669 177.79 104.065C176.98 105.666 176.232 106.754 175.713 107.489C174.458 109.22 173.172 110.58 171.887 111.736C170.601 112.892 169.315 113.826 167.974 114.666C166.49 115.544 166.725 116.101 168.338 115.316C169.779 114.568 171.182 113.677 172.567 112.528C173.951 111.378 175.33 109.974 176.647 108.169C177.147 107.465 177.945 106.383 178.792 104.831C179.014 104.448 179.212 104.028 179.41 103.57C179.614 103.119 179.824 102.643 180.047 102.148C180.275 101.654 180.411 101.097 180.609 100.535C180.788 99.9661 181.005 99.385 181.11 98.7483L181.357 97.5181L181.468 96.8999C181.493 96.6959 181.506 96.4857 181.518 96.2756C181.549 95.8305 181.586 95.373 181.617 94.9156C181.629 94.6868 181.66 94.4581 181.66 94.2232L181.648 93.5247C181.642 93.0548 181.635 92.585 181.623 92.1152C181.635 91.6454 181.536 91.1756 181.499 90.7119C181.45 90.2483 181.4 89.7847 181.351 89.3272C181.258 88.8759 181.172 88.4308 181.085 87.9981C180.992 87.5654 180.924 87.1327 180.819 86.7185C180.696 86.3105 180.578 85.9148 180.467 85.5316C180.35 85.1483 180.238 84.7774 180.133 84.425C179.997 84.085 179.867 83.7574 179.738 83.4483C179.478 82.8363 179.305 82.2676 179.058 81.841C178.612 80.9694 178.353 80.4563 178.353 80.4563C178.353 80.4563 178.254 80.2647 178.075 79.9185C177.864 79.5908 177.562 79.121 177.184 78.5399C176.832 77.9403 176.313 77.3036 175.744 76.5927C175.212 75.8508 174.477 75.1647 173.76 74.4043C170.823 71.3937 166.366 69.0879 163.584 68.2596C161.495 67.5919 159.882 67.3385 158.658 67.1777C158.039 67.1159 157.52 67.0727 157.075 67.0417C156.624 67.0294 156.253 67.017 155.925 67.0047C151.994 66.9923 148.971 67.8083 146.312 68.9148L146.356 68.9025Z" fill="#101214"/>
<path d="M152.856 104.424C152.856 103.954 152.838 103.503 152.825 103.039C151.737 104.214 150.217 104.993 148.282 105.308C146.965 105.524 145.438 105.518 144.097 105.295C140.542 104.702 138.348 102.631 137.748 99.2991C137.637 98.6685 137.575 97.9885 137.575 97.2776C137.575 96.5667 137.631 95.862 137.748 95.2252C138.354 91.8932 140.548 89.8162 144.097 89.2227C144.777 89.1114 145.494 89.0496 146.236 89.0496C146.977 89.0496 147.633 89.1052 148.282 89.2103C149.289 89.3711 150.167 89.674 150.952 90.0696C150.118 87.1518 149.017 84.438 147.67 81.9467C146.087 81.8354 144.449 81.9034 142.922 82.1631C136.407 83.2511 131.993 87.4547 130.763 93.7107H96.8305C96.7563 93.9951 96.6945 94.2918 96.6389 94.5885C96.4843 95.4292 96.4102 96.3318 96.4102 97.2776C96.4102 98.2234 96.4905 99.1012 96.6389 99.9358C96.6945 100.233 96.7563 100.529 96.8305 100.814H130.763C131.98 107.07 136.394 111.273 142.922 112.361C143.992 112.541 145.104 112.633 146.242 112.633C147.379 112.633 148.412 112.547 149.438 112.38C150.489 112.207 151.478 111.947 152.411 111.619C152.708 109.326 152.863 106.927 152.863 104.43L152.856 104.424Z" fill="#164B35"/>
<path d="M96.8307 100.807H120.359C120.433 100.523 120.495 100.226 120.55 99.9297C120.699 99.0951 120.779 98.2111 120.779 97.2715C120.779 96.3319 120.699 95.4231 120.55 94.5824C120.495 94.2795 120.433 93.989 120.359 93.7046H96.8369C96.7627 93.989 96.7009 94.2857 96.6452 94.5824C96.571 95.0028 96.5092 95.4417 96.4721 95.8868C96.435 96.338 96.4165 96.7955 96.4165 97.2715C96.4165 97.7475 96.435 98.1926 96.4721 98.6377C96.5092 99.0828 96.5649 99.5093 96.639 99.9235C96.6947 100.22 96.7565 100.517 96.8307 100.801V100.807Z" fill="#FCA700"/>
</svg>
