<svg width="17" height="17" viewBox="0 0 17 17" fill="none" xmlns="http://www.w3.org/2000/svg">
<path fill-rule="evenodd" clip-rule="evenodd" d="M8.80005 2.89551C8.38584 2.89551 8.05005 3.23129 8.05005 3.64551C8.05005 4.05972 8.38584 4.39551 8.80005 4.39551C9.21426 4.39551 9.55005 4.05972 9.55005 3.64551C9.55005 3.23129 9.21426 2.89551 8.80005 2.89551ZM6.55005 3.64551C6.55005 2.40287 7.55741 1.39551 8.80005 1.39551C10.0427 1.39551 11.05 2.40287 11.05 3.64551C11.05 4.88815 10.0427 5.89551 8.80005 5.89551C7.55741 5.89551 6.55005 4.88815 6.55005 3.64551Z" fill="#292A2E"/>
<path fill-rule="evenodd" clip-rule="evenodd" d="M7.56773 8.39551H2.80005V6.89551H14.8V8.39551H10.0324L13.2162 14.5509L11.8839 15.2401L8.80005 9.27799L5.71621 15.2401L4.38389 14.5509L7.56773 8.39551Z" fill="#292A2E"/>
</svg>
