<svg width="17" height="17" viewBox="0 0 17 17" fill="none" xmlns="http://www.w3.org/2000/svg">
<path fill-rule="evenodd" clip-rule="evenodd" d="M0.200012 3.31152C0.200012 1.86178 1.37526 0.686523 2.82501 0.686523H13.575C15.0248 0.686523 16.2 1.86178 16.2 3.31152V11.5615C16.2 13.0113 15.0248 14.1865 13.575 14.1865H4.64919L1.32212 16.0877C1.08999 16.2204 0.804803 16.2194 0.573567 16.0852C0.342331 15.951 0.200012 15.7039 0.200012 15.4365V3.31152ZM2.82501 2.18652C2.20369 2.18652 1.70001 2.6902 1.70001 3.31152V14.1441L4.25084 12.6865H13.575C14.1963 12.6865 14.7 12.1828 14.7 11.5615V3.31152C14.7 2.6902 14.1963 2.18652 13.575 2.18652H2.82501Z" fill="#292A2E"/>
<path d="M6.20001 7.43652C6.20001 7.98881 5.7523 8.43652 5.20001 8.43652C4.64773 8.43652 4.20001 7.98881 4.20001 7.43652C4.20001 6.88424 4.64773 6.43652 5.20001 6.43652C5.7523 6.43652 6.20001 6.88424 6.20001 7.43652Z" fill="#292A2E"/>
<path d="M9.20001 7.43652C9.20001 7.98881 8.7523 8.43652 8.20001 8.43652C7.64773 8.43652 7.20001 7.98881 7.20001 7.43652C7.20001 6.88424 7.64773 6.43652 8.20001 6.43652C8.7523 6.43652 9.20001 6.88424 9.20001 7.43652Z" fill="#292A2E"/>
<path d="M12.2 7.43652C12.2 7.98881 11.7523 8.43652 11.2 8.43652C10.6477 8.43652 10.2 7.98881 10.2 7.43652C10.2 6.88424 10.6477 6.43652 11.2 6.43652C11.7523 6.43652 12.2 6.88424 12.2 7.43652Z" fill="#292A2E"/>
</svg>
