<svg width="17" height="17" viewBox="0 0 17 17" fill="none" xmlns="http://www.w3.org/2000/svg">
<path fill-rule="evenodd" clip-rule="evenodd" d="M1.20001 1.97754H15.2V3.47754H1.20001V1.97754ZM1.20001 6.14384H15.2V7.64384H1.20001V6.14384ZM11.9958 10.4718C12.1038 10.1758 12.3853 9.97883 12.7004 9.97883C13.0155 9.97883 13.2975 10.1758 13.4055 10.4718L14.0206 12.1582L15.707 12.7734C16.003 12.8813 16.2 13.1628 16.2 13.4779C16.2 13.7931 16.003 14.075 15.707 14.183L14.0206 14.7981L13.4055 16.4845C13.2975 16.7806 13.016 16.9775 12.7009 16.9775C12.3858 16.9775 12.1038 16.7806 11.9958 16.4845L11.3807 14.7981L9.69429 14.183C9.39826 14.075 9.2013 13.7935 9.2013 13.4784C9.2013 13.1633 9.39826 12.8813 9.69429 12.7734L11.3807 12.1582L11.9958 10.4718ZM1.20001 10.3101H8.20001V11.8101H1.20001V10.3101ZM1.20001 14.4764H6.20001V15.9764H1.20001V14.4764Z" fill="#292A2E"/>
</svg>
