<svg width="17" height="17" viewBox="0 0 17 17" fill="none" xmlns="http://www.w3.org/2000/svg">
<path fill-rule="evenodd" clip-rule="evenodd" d="M9.35 0.395508V3.39551H7.85V0.395508H9.35ZM2.72347 1.45833L4.77157 3.50642L3.71091 4.56708L1.66281 2.51899L2.72347 1.45833ZM15.5372 2.51899L13.4891 4.56708L12.4284 3.50642L14.4765 1.45833L15.5372 2.51899ZM4.79528 6.27094C4.86006 5.4935 5.50996 4.89551 6.2901 4.89551H10.9099C11.69 4.89551 12.3399 5.4935 12.4047 6.27094L13.0401 13.8955H14.6V15.3955H2.6V13.8955H4.1599L4.79528 6.27094ZM5.6651 13.8955H11.5349L10.9099 6.39551L6.2901 6.39551L5.6651 13.8955Z" fill="#292A2E"/>
</svg>
