<svg width="17" height="16" viewBox="0 0 17 16" fill="none" xmlns="http://www.w3.org/2000/svg">
<path fill-rule="evenodd" clip-rule="evenodd" d="M1.30005 6C1.30005 4.89543 2.19548 4 3.30005 4H4.30005C5.40462 4 6.30005 4.89543 6.30005 6V12H4.80005V9.5H2.80005V12H1.30005V6ZM2.80005 8H4.80005V6C4.80005 5.72386 4.57619 5.5 4.30005 5.5H3.30005C3.02391 5.5 2.80005 5.72386 2.80005 6V8Z" fill="#292A2E"/>
<path fill-rule="evenodd" clip-rule="evenodd" d="M7.80005 4.75C7.80005 4.33579 8.13584 4 8.55005 4H10.8C11.9046 4 12.8 4.89543 12.8 6V7.5C12.8 8.60457 11.9046 9.5 10.8 9.5H9.30005V12H7.80005V4.75ZM9.30005 8H10.8C11.0762 8 11.3 7.77614 11.3 7.5V6C11.3 5.72386 11.0762 5.5 10.8 5.5H9.30005V8Z" fill="#292A2E"/>
<path fill-rule="evenodd" clip-rule="evenodd" d="M15.8 4V12H14.3V4H15.8Z" fill="#292A2E"/>
</svg>
