<svg width="16" height="17" viewBox="0 0 16 17" fill="none" xmlns="http://www.w3.org/2000/svg">
<path fill-rule="evenodd" clip-rule="evenodd" d="M1 2.14551C1 1.73129 1.33579 1.39551 1.75 1.39551H4.25C4.66421 1.39551 5 1.73129 5 2.14551V4.64551C5 5.05972 4.66421 5.39551 4.25 5.39551H1.75C1.33579 5.39551 1 5.05972 1 4.64551V2.14551ZM6 2.14551C6 1.73129 6.33579 1.39551 6.75 1.39551H9.25C9.66421 1.39551 10 1.73129 10 2.14551V4.64551C10 5.05972 9.66421 5.39551 9.25 5.39551H6.75C6.33579 5.39551 6 5.05972 6 4.64551V2.14551ZM11 2.14551C11 1.73129 11.3358 1.39551 11.75 1.39551H14.25C14.6642 1.39551 15 1.73129 15 2.14551V4.64551C15 5.05972 14.6642 5.39551 14.25 5.39551H11.75C11.3358 5.39551 11 5.05972 11 4.64551V2.14551ZM1 7.14551C1 6.73129 1.33579 6.39551 1.75 6.39551H4.25C4.66421 6.39551 5 6.73129 5 7.14551V9.64551C5 10.0597 4.66421 10.3955 4.25 10.3955H1.75C1.33579 10.3955 1 10.0597 1 9.64551V7.14551ZM6 7.14551C6 6.73129 6.33579 6.39551 6.75 6.39551H9.25C9.66421 6.39551 10 6.73129 10 7.14551V9.64551C10 10.0597 9.66421 10.3955 9.25 10.3955H6.75C6.33579 10.3955 6 10.0597 6 9.64551V7.14551ZM11 7.14551C11 6.73129 11.3358 6.39551 11.75 6.39551H14.25C14.6642 6.39551 15 6.73129 15 7.14551V9.64551C15 10.0597 14.6642 10.3955 14.25 10.3955H11.75C11.3358 10.3955 11 10.0597 11 9.64551V7.14551ZM1 12.1455C1 11.7313 1.33579 11.3955 1.75 11.3955H4.25C4.66421 11.3955 5 11.7313 5 12.1455V14.6455C5 15.0597 4.66421 15.3955 4.25 15.3955H1.75C1.33579 15.3955 1 15.0597 1 14.6455V12.1455ZM6 12.1455C6 11.7313 6.33579 11.3955 6.75 11.3955H9.25C9.66421 11.3955 10 11.7313 10 12.1455V14.6455C10 15.0597 9.66421 15.3955 9.25 15.3955H6.75C6.33579 15.3955 6 15.0597 6 14.6455V12.1455ZM11 12.1455C11 11.7313 11.3358 11.3955 11.75 11.3955H14.25C14.6642 11.3955 15 11.7313 15 12.1455V14.6455C15 15.0597 14.6642 15.3955 14.25 15.3955H11.75C11.3358 15.3955 11 15.0597 11 14.6455V12.1455Z" fill="#292A2E"/>
</svg>
