<svg width="16" height="17" viewBox="0 0 16 17" fill="none" xmlns="http://www.w3.org/2000/svg">
<path fill-rule="evenodd" clip-rule="evenodd" d="M1 3.79102C1 2.68645 1.89543 1.79102 3 1.79102H5C6.10457 1.79102 7 2.68645 7 3.79102V5.79102C7 6.89559 6.10457 7.79102 5 7.79102H3C1.89543 7.79102 1 6.89559 1 5.79102V3.79102ZM3 3.29102C2.72386 3.29102 2.5 3.51487 2.5 3.79102V5.79102C2.5 6.06716 2.72386 6.29102 3 6.29102H5C5.27614 6.29102 5.5 6.06716 5.5 5.79102V3.79102C5.5 3.51487 5.27614 3.29102 5 3.29102H3ZM9 3.79102C9 2.68645 9.89543 1.79102 11 1.79102H13C14.1046 1.79102 15 2.68645 15 3.79102V5.79102C15 6.89559 14.1046 7.79102 13 7.79102H11C9.89543 7.79102 9 6.89559 9 5.79102V3.79102ZM11 3.29102C10.7239 3.29102 10.5 3.51487 10.5 3.79102V5.79102C10.5 6.06716 10.7239 6.29102 11 6.29102H13C13.2761 6.29102 13.5 6.06716 13.5 5.79102V3.79102C13.5 3.51487 13.2761 3.29102 13 3.29102H11ZM1 11.791C1 10.6864 1.89543 9.79102 3 9.79102H5C6.10457 9.79102 7 10.6864 7 11.791V13.791C7 14.8956 6.10457 15.791 5 15.791H3C1.89543 15.791 1 14.8956 1 13.791V11.791ZM3 11.291C2.72386 11.291 2.5 11.5149 2.5 11.791V13.791C2.5 14.0672 2.72386 14.291 3 14.291H5C5.27614 14.291 5.5 14.0672 5.5 13.791V11.791C5.5 11.5149 5.27614 11.291 5 11.291H3ZM9 11.791C9 10.6864 9.89543 9.79102 11 9.79102H13C14.1046 9.79102 15 10.6864 15 11.791V13.791C15 14.8956 14.1046 15.791 13 15.791H11C9.89543 15.791 9 14.8956 9 13.791V11.791ZM11 11.291C10.7239 11.291 10.5 11.5149 10.5 11.791V13.791C10.5 14.0672 10.7239 14.291 11 14.291H13C13.2761 14.291 13.5 14.0672 13.5 13.791V11.791C13.5 11.5149 13.2761 11.291 13 11.291H11Z" fill="#292A2E"/>
</svg>
