<svg width="17" height="16" viewBox="0 0 17 16" fill="none" xmlns="http://www.w3.org/2000/svg">
<path fill-rule="evenodd" clip-rule="evenodd" d="M8.45726 1.77877C8.29892 1.68377 8.10111 1.68377 7.94276 1.77877L2.94276 4.77877C2.79216 4.86913 2.70001 5.03189 2.70001 5.20752V10.792C2.70001 10.9677 2.79216 11.1304 2.94276 11.2208L7.94276 14.2208C8.10111 14.3158 8.29892 14.3158 8.45726 14.2208L13.4573 11.2208C13.6079 11.1304 13.7 10.9677 13.7 10.792V5.20752C13.7 5.03189 13.6079 4.86913 13.4573 4.77877L8.45726 1.77877ZM7.17102 0.492534C7.80439 0.112515 8.59564 0.112514 9.229 0.492534L14.229 3.49253C14.8314 3.85398 15.2 4.50499 15.2 5.20752V10.792C15.2 11.4946 14.8314 12.1456 14.229 12.507L9.229 15.507C8.59564 15.887 7.80439 15.887 7.17102 15.507L2.17102 12.507C1.56861 12.1456 1.20001 11.4946 1.20001 10.792V5.20752C1.20001 4.50499 1.56861 3.85398 2.17102 3.49253L7.17102 0.492534ZM8.20001 6.49978C7.37158 6.49978 6.70001 7.17135 6.70001 7.99978C6.70001 8.82821 7.37158 9.49978 8.20001 9.49978C9.02844 9.49978 9.70001 8.82821 9.70001 7.99978C9.70001 7.17135 9.02844 6.49978 8.20001 6.49978ZM5.20001 7.99978C5.20001 6.34293 6.54316 4.99978 8.20001 4.99978C9.85687 4.99978 11.2 6.34293 11.2 7.99978C11.2 9.65664 9.85687 10.9998 8.20001 10.9998C6.54316 10.9998 5.20001 9.65664 5.20001 7.99978Z" fill="#292A2E"/>
</svg>
