<svg width="16" height="17" viewBox="0 0 16 17" fill="none" xmlns="http://www.w3.org/2000/svg">
<path fill-rule="evenodd" clip-rule="evenodd" d="M4.48744 2.9901C3.80402 2.30668 2.69598 2.30668 2.01256 2.9901C1.32915 3.67352 1.32915 4.78156 2.01256 5.46498C2.35442 5.80683 2.80097 5.97754 3.25 5.97754C3.69903 5.97754 4.14558 5.80683 4.48744 5.46498C4.82929 5.12312 5 4.67656 5 4.22754C5 3.77851 4.82929 3.33196 4.48744 2.9901ZM0.951903 1.92944C2.22111 0.660238 4.27889 0.660239 5.5481 1.92944C5.99034 2.37168 6.27855 2.91041 6.4126 3.47754H9.5V4.97754H6.4126C6.27855 5.54467 5.99034 6.0834 5.5481 6.52564C5.10586 6.96788 4.56713 7.25609 4 7.39014V10.4775H2.5V7.39014C1.93287 7.25609 1.39414 6.96788 0.951903 6.52564C-0.3173 5.25643 -0.317301 3.19865 0.951903 1.92944ZM10.5 4.22754C10.5 2.9849 11.5074 1.97754 12.75 1.97754C13.9926 1.97754 15 2.9849 15 4.22754C15 5.47018 13.9926 6.47754 12.75 6.47754C11.5074 6.47754 10.5 5.47018 10.5 4.22754ZM13.5 7.47754V10.4775H12V7.47754H13.5ZM1 13.7275C1 12.4849 2.00736 11.4775 3.25 11.4775C4.49264 11.4775 5.5 12.4849 5.5 13.7275C5.5 14.9702 4.49264 15.9775 3.25 15.9775C2.00736 15.9775 1 14.9702 1 13.7275ZM10.5 13.7275C10.5 12.4849 11.5074 11.4775 12.75 11.4775C13.9926 11.4775 15 12.4849 15 13.7275C15 14.9702 13.9926 15.9775 12.75 15.9775C11.5074 15.9775 10.5 14.9702 10.5 13.7275ZM9.5 14.4775H6.5V12.9775H9.5V14.4775Z" fill="#292A2E"/>
</svg>
