<svg width="17" height="17" viewBox="0 0 17 17" fill="none" xmlns="http://www.w3.org/2000/svg">
<path fill-rule="evenodd" clip-rule="evenodd" d="M7.85001 4.58203V1.58203H9.35001V4.58203H7.85001ZM6.06968 7.11236L2.06968 3.11236L3.13034 2.0517L7.13034 6.0517L6.06968 7.11236ZM10.0697 6.0517L14.0697 2.0517L15.1303 3.11236L11.1303 7.11236L10.0697 6.0517ZM1.60001 7.83203H4.60001V9.33203H1.60001V7.83203ZM12.6 7.83203H15.6V9.33203H12.6V7.83203ZM2.06968 14.0517L6.06968 10.0517L7.13034 11.1124L3.13034 15.1124L2.06968 14.0517ZM14.0697 15.1124L10.0697 11.1124L11.1303 10.0517L15.1303 14.0517L14.0697 15.1124ZM7.85001 15.582V12.582H9.35001V15.582H7.85001Z" fill="#292A2E"/>
</svg>
