<svg width="16" height="17" viewBox="0 0 16 17" fill="none" xmlns="http://www.w3.org/2000/svg">
<path d="M5.21945 8.65579L9.71966 4.15558L10.7803 5.21624L6.28011 9.71645C6.02083 9.97573 6.02104 10.3962 6.28011 10.6556C6.5395 10.915 6.96054 10.9157 7.21993 10.6563L11.7201 6.15605C12.5316 5.34436 12.5311 4.02806 11.7194 3.21645C10.9078 2.40506 9.59216 2.40506 8.78054 3.21645L4.28033 7.71666C2.91647 9.08052 2.91669 11.2914 4.28033 12.6554C5.64429 14.0193 7.85575 14.02 9.21972 12.6561L11.7194 10.1563L12.7801 11.217L10.2804 13.7167C8.33063 15.6665 5.16941 15.6658 3.21967 13.716C1.27024 11.7662 1.27002 8.60564 3.21967 6.656L7.71988 2.15579C9.11729 0.758617 11.3827 0.758616 12.7801 2.15579C14.1775 3.55318 14.178 5.81923 12.7808 7.21671L8.28059 11.7169C7.43541 12.5621 6.06463 12.5614 5.21945 11.7162C4.3746 10.871 4.37438 9.50086 5.21945 8.65579Z" fill="#292A2E"/>
</svg>
