<svg width="17" height="16" viewBox="0 0 17 16" fill="none" xmlns="http://www.w3.org/2000/svg">
<path fill-rule="evenodd" clip-rule="evenodd" d="M15.3464 1.18775C15.5076 1.33011 15.6 1.53488 15.6 1.75V11C15.6 12.6569 14.2569 14 12.6 14C10.9432 14 9.60001 12.6569 9.60001 11C9.60001 9.34316 10.9432 8.00002 12.6 8.00002H14.1V5.84959L7.60001 6.66209V12C7.60001 13.6569 6.25686 15 4.60001 15C2.94315 15 1.60001 13.6569 1.60001 12C1.60001 10.3432 2.94315 9.00002 4.60001 9.00002H6.10001V2.75C6.10001 2.37176 6.38166 2.05271 6.75698 2.0058L14.757 1.0058C14.9704 0.979113 15.1851 1.04538 15.3464 1.18775ZM6.10001 10.5H4.60001C3.77158 10.5 3.10001 11.1716 3.10001 12C3.10001 12.8284 3.77158 13.5 4.60001 13.5C5.42843 13.5 6.10001 12.8284 6.10001 12V10.5ZM7.60001 5.15042L14.1 4.33792V2.59959L7.60001 3.41209V5.15042ZM14.1 9.50002H12.6C11.7716 9.50002 11.1 10.1716 11.1 11C11.1 11.8284 11.7716 12.5 12.6 12.5C13.4284 12.5 14.1 11.8284 14.1 11V9.50002Z" fill="#292A2E"/>
</svg>
