<svg width="16" height="17" viewBox="0 0 16 17" fill="none" xmlns="http://www.w3.org/2000/svg">
<path fill-rule="evenodd" clip-rule="evenodd" d="M10.3774 0.265947C10.6716 0.437273 10.8135 0.785305 10.723 1.11353L8.98491 7.41408H13.25C13.5533 7.41408 13.8268 7.59681 13.9429 7.87707C14.059 8.15732 13.9948 8.47991 13.7803 8.69441L6.53033 15.9444C6.28957 16.1852 5.91685 16.2335 5.62261 16.0622C5.32837 15.8909 5.18646 15.5429 5.277 15.2146L7.01509 8.91408H2.75C2.44665 8.91408 2.17318 8.73135 2.05709 8.45109C1.941 8.17084 2.00517 7.84825 2.21967 7.63375L9.46967 0.38375C9.71043 0.142993 10.0832 0.0946207 10.3774 0.265947ZM7.42888 7.41408L8.52154 3.4532L4.56066 7.41408H7.42888ZM8.57112 8.91408L7.47846 12.875L11.4393 8.91408H8.57112Z" fill="#292A2E"/>
</svg>
