<svg width="17" height="17" viewBox="0 0 17 17" fill="none" xmlns="http://www.w3.org/2000/svg">
<path fill-rule="evenodd" clip-rule="evenodd" d="M1.20001 3.58203C1.20001 2.47746 2.09544 1.58203 3.20001 1.58203H13.2C14.3046 1.58203 15.2 2.47746 15.2 3.58203V13.582C15.2 14.6866 14.3046 15.582 13.2 15.582H3.20001C2.09544 15.582 1.20001 14.6866 1.20001 13.582V3.58203ZM3.20001 3.08203C2.92387 3.08203 2.70001 3.30589 2.70001 3.58203V5.7487H13.7V3.58203C13.7 3.30589 13.4762 3.08203 13.2 3.08203H3.20001ZM13.7 7.2487H2.70001V9.91536H13.7V7.2487ZM13.7 11.4154H2.70001V13.582C2.70001 13.8582 2.92387 14.082 3.20001 14.082H13.2C13.4762 14.082 13.7 13.8582 13.7 13.582V11.4154Z" fill="#292A2E"/>
</svg>
