<svg width="17" height="17" viewBox="0 0 17 17" fill="none" xmlns="http://www.w3.org/2000/svg">
<path fill-rule="evenodd" clip-rule="evenodd" d="M2.60001 3.87305C2.32386 3.87305 2.10001 4.0969 2.10001 4.37305V12.373C2.10001 12.6492 2.32386 12.873 2.60001 12.873H5.43334V3.87305H2.60001ZM6.93334 3.87305V12.873H10.2667V3.87305H6.93334ZM11.7667 3.87305V12.873H14.6C14.8761 12.873 15.1 12.6492 15.1 12.373V4.37305C15.1 4.09691 14.8761 3.87305 14.6 3.87305H11.7667ZM0.600006 4.37305C0.600006 3.26848 1.49544 2.37305 2.60001 2.37305H14.6C15.7046 2.37305 16.6 3.26848 16.6 4.37305V12.373C16.6 13.4776 15.7046 14.373 14.6 14.373H2.60001C1.49544 14.373 0.600006 13.4776 0.600006 12.373L0.600006 4.37305Z" fill="#292A2E"/>
</svg>
