<svg width="17" height="17" viewBox="0 0 17 17" fill="none" xmlns="http://www.w3.org/2000/svg">
<path fill-rule="evenodd" clip-rule="evenodd" d="M2.60001 4.26855C2.32386 4.26855 2.10001 4.49241 2.10001 4.76855V10.7686C2.10001 11.0447 2.32386 11.2686 2.60001 11.2686H4.43334V4.26855H2.60001ZM5.93334 4.26855V11.2686H8.26667V4.26855H5.93334ZM9.76667 4.26855V11.2686H11.6C11.8761 11.2686 12.1 11.0447 12.1 10.7686V4.76855C12.1 4.49241 11.8761 4.26855 11.6 4.26855H9.76667ZM0.600006 4.76855C0.600006 3.66399 1.49544 2.76855 2.60001 2.76855H11.6C12.7046 2.76855 13.6 3.66399 13.6 4.76855V10.7686C13.6 11.8731 12.7046 12.7686 11.6 12.7686H2.60001C1.49544 12.7686 0.600006 11.8731 0.600006 10.7686V4.76855ZM15.1 12.5186L15.1 7.76855H16.6V12.5186C16.6 14.3135 15.1449 15.7686 13.35 15.7686H5.60001V14.2686H13.35C14.3165 14.2686 15.1 13.4851 15.1 12.5186Z" fill="#292A2E"/>
</svg>
