<svg width="17" height="17" viewBox="0 0 17 17" fill="none" xmlns="http://www.w3.org/2000/svg">
<path d="M9.35001 8.55957C9.35001 8.97378 9.01422 9.30957 8.60001 9.30957C8.18579 9.30957 7.85001 8.97378 7.85001 8.55957C7.85001 8.14536 8.18579 7.80957 8.60001 7.80957C9.01422 7.80957 9.35001 8.14536 9.35001 8.55957Z" fill="#292A2E"/>
<path d="M6.10001 8.55957C6.10001 8.97378 5.76422 9.30957 5.35001 9.30957C4.93579 9.30957 4.60001 8.97378 4.60001 8.55957C4.60001 8.14536 4.93579 7.80957 5.35001 7.80957C5.76422 7.80957 6.10001 8.14536 6.10001 8.55957Z" fill="#292A2E"/>
<path d="M12.6 8.55957C12.6 8.97378 12.2642 9.30957 11.85 9.30957C11.4358 9.30957 11.1 8.97378 11.1 8.55957C11.1 8.14536 11.4358 7.80957 11.85 7.80957C12.2642 7.80957 12.6 8.14536 12.6 8.55957Z" fill="#292A2E"/>
<path d="M9.35001 11.8096C9.35001 12.2238 9.01422 12.5596 8.60001 12.5596C8.18579 12.5596 7.85001 12.2238 7.85001 11.8096C7.85001 11.3954 8.18579 11.0596 8.60001 11.0596C9.01422 11.0596 9.35001 11.3954 9.35001 11.8096Z" fill="#292A2E"/>
<path d="M9.35001 5.30957C9.35001 5.72378 9.01422 6.05957 8.60001 6.05957C8.18579 6.05957 7.85001 5.72378 7.85001 5.30957C7.85001 4.89536 8.18579 4.55957 8.60001 4.55957C9.01422 4.55957 9.35001 4.89536 9.35001 5.30957Z" fill="#292A2E"/>
<path fill-rule="evenodd" clip-rule="evenodd" d="M1.60001 3.55957C1.60001 2.455 2.49544 1.55957 3.60001 1.55957H13.6C14.7046 1.55957 15.6 2.455 15.6 3.55957V13.5596C15.6 14.6641 14.7046 15.5596 13.6 15.5596H3.60001C2.49544 15.5596 1.60001 14.6641 1.60001 13.5596V3.55957ZM3.60001 3.05957C3.32386 3.05957 3.10001 3.28343 3.10001 3.55957V13.5596C3.10001 13.8357 3.32386 14.0596 3.60001 14.0596H13.6C13.8761 14.0596 14.1 13.8357 14.1 13.5596V3.55957C14.1 3.28343 13.8761 3.05957 13.6 3.05957H3.60001Z" fill="#292A2E"/>
</svg>
