<svg width="17" height="17" viewBox="0 0 17 17" fill="none" xmlns="http://www.w3.org/2000/svg">
<path fill-rule="evenodd" clip-rule="evenodd" d="M4.85001 3.45508C4.43579 3.45508 4.10001 3.79086 4.10001 4.20508C4.10001 4.61929 4.43579 4.95508 4.85001 4.95508C5.26422 4.95508 5.60001 4.61929 5.60001 4.20508C5.60001 3.79086 5.26422 3.45508 4.85001 3.45508ZM2.60001 4.20508C2.60001 2.96244 3.60737 1.95508 4.85001 1.95508C6.09265 1.95508 7.10001 2.96244 7.10001 4.20508C7.10001 5.18474 6.4739 6.01817 5.60001 6.32705V9.95508H4.10001V6.32705C3.22611 6.01817 2.60001 5.18474 2.60001 4.20508ZM12.35 3.45508C11.9358 3.45508 11.6 3.79086 11.6 4.20508C11.6 4.61929 11.9358 4.95508 12.35 4.95508C12.7642 4.95508 13.1 4.61929 13.1 4.20508C13.1 3.79086 12.7642 3.45508 12.35 3.45508ZM10.1 4.20508C10.1 2.96244 11.1074 1.95508 12.35 1.95508C13.5926 1.95508 14.6 2.96244 14.6 4.20508C14.6 5.18474 13.9739 6.01817 13.1 6.32705V11.2051C13.1 13 11.6449 14.4551 9.85001 14.4551H6.97198C6.6631 15.329 5.82967 15.9551 4.85001 15.9551C3.60737 15.9551 2.60001 14.9477 2.60001 13.7051C2.60001 12.4624 3.60737 11.4551 4.85001 11.4551C5.82967 11.4551 6.6631 12.0812 6.97198 12.9551H9.85001C10.8165 12.9551 11.6 12.1716 11.6 11.2051V6.32705C10.7261 6.01817 10.1 5.18474 10.1 4.20508ZM4.85001 12.9551C4.43579 12.9551 4.10001 13.2909 4.10001 13.7051C4.10001 14.1193 4.43579 14.4551 4.85001 14.4551C5.26422 14.4551 5.60001 14.1193 5.60001 13.7051C5.60001 13.2909 5.26422 12.9551 4.85001 12.9551Z" fill="#292A2E"/>
</svg>
