<svg width="17" height="17" viewBox="0 0 17 17" fill="none" xmlns="http://www.w3.org/2000/svg">
<path fill-rule="evenodd" clip-rule="evenodd" d="M2.60001 2.74609C2.60001 1.64152 3.49544 0.746094 4.60001 0.746094H12.6C13.7046 0.746094 14.6 1.64152 14.6 2.74609V9.74609H13.1V6.24609H4.10001V12.7461C4.10001 13.0222 4.32386 13.2461 4.60001 13.2461H9.60001V14.7461H4.60001C3.49544 14.7461 2.60001 13.8507 2.60001 12.7461V2.74609ZM4.10001 4.74609H13.1V2.74609C13.1 2.46995 12.8761 2.24609 12.6 2.24609H4.60001C4.32386 2.24609 4.10001 2.46995 4.10001 2.74609V4.74609ZM13.85 12.7461C13.1596 12.7461 12.6 13.3057 12.6 13.9961C12.6 14.6865 13.1596 15.2461 13.85 15.2461C14.5404 15.2461 15.1 14.6865 15.1 13.9961C15.1 13.3057 14.5404 12.7461 13.85 12.7461ZM11.1 13.9961C11.1 12.4773 12.3312 11.2461 13.85 11.2461C15.3688 11.2461 16.6 12.4773 16.6 13.9961C16.6 15.5149 15.3688 16.7461 13.85 16.7461C12.3312 16.7461 11.1 15.5149 11.1 13.9961Z" fill="#292A2E"/>
</svg>
