<svg width="17" height="17" viewBox="0 0 17 17" fill="none" xmlns="http://www.w3.org/2000/svg">
<path d="M9.10001 13.6416H14.1V11.1416H9.10001V13.6416ZM9.10001 6.6416H14.1V4.1416H9.10001V6.6416ZM15.6 6.8916C15.6 7.58196 15.0404 8.1416 14.35 8.1416H8.85001C8.15965 8.1416 7.60001 7.58196 7.60001 6.8916V6.1416H3.10001V11.1416C3.10001 11.4177 3.32386 11.6416 3.60001 11.6416H7.60001V10.8916C7.60001 10.2012 8.15965 9.6416 8.85001 9.6416H14.35C15.0404 9.6416 15.6 10.2012 15.6 10.8916V13.8916C15.6 14.582 15.0404 15.1416 14.35 15.1416H8.85001C8.15965 15.1416 7.60001 14.582 7.60001 13.8916V13.1416H3.60001C2.49544 13.1416 1.60001 12.2462 1.60001 11.1416V1.1416H3.10001V4.6416H7.60001V3.8916C7.60001 3.20125 8.15965 2.6416 8.85001 2.6416H14.35C15.0404 2.6416 15.6 3.20125 15.6 3.8916V6.8916Z" fill="#292A2E"/>
</svg>
