<svg width="17" height="17" viewBox="0 0 17 17" fill="none" xmlns="http://www.w3.org/2000/svg">
<path fill-rule="evenodd" clip-rule="evenodd" d="M15.6 8.18262L15.6 9.68262L1.60001 9.68262L1.60001 8.18262L15.6 8.18262ZM7.85001 13.4933L6.63034 14.7129L5.56968 13.6523L8.06968 11.1523C8.21033 11.0116 8.40109 10.9326 8.60001 10.9326C8.79892 10.9326 8.98968 11.0116 9.13034 11.1523L11.6303 13.6523L10.5697 14.7129L9.35001 13.4933L9.35001 16.9326L7.85001 16.9326L7.85001 13.4933ZM8.06968 6.71295L5.56968 4.21295L6.63034 3.15229L7.85001 4.37196L7.85001 0.932617L9.35001 0.932617L9.35001 4.37196L10.5697 3.15229L11.6303 4.21295L9.13034 6.71295C8.83744 7.00584 8.36257 7.00584 8.06968 6.71295Z" fill="#292A2E"/>
</svg>
