<svg width="17" height="17" viewBox="0 0 17 17" fill="none" xmlns="http://www.w3.org/2000/svg">
<path fill-rule="evenodd" clip-rule="evenodd" d="M3.22501 2.72363C2.60369 2.72363 2.10001 3.22731 2.10001 3.84863V14.6812L4.65083 13.2236H13.975C14.5963 13.2236 15.1 12.72 15.1 12.0986V3.84863C15.1 3.22731 14.5963 2.72363 13.975 2.72363H3.22501ZM0.600006 3.84863C0.600006 2.39889 1.77526 1.22363 3.22501 1.22363H13.975C15.4248 1.22363 16.6 2.39889 16.6 3.84863V12.0986C16.6 13.5484 15.4248 14.7236 13.975 14.7236H5.04918L1.72211 16.6248C1.48998 16.7575 1.2048 16.7565 0.973561 16.6223C0.742325 16.4881 0.600006 16.241 0.600006 15.9736V3.84863ZM7.85004 7.22388V4.97388H9.35004V7.22388H11.6V8.72388H9.35004V10.9739H7.85004V8.72388H5.60004V7.22388H7.85004Z" fill="#292A2E"/>
</svg>
