<svg width="17" height="17" viewBox="0 0 17 17" fill="none" xmlns="http://www.w3.org/2000/svg">
<path fill-rule="evenodd" clip-rule="evenodd" d="M0.600006 3.45313C0.600006 2.00338 1.77526 0.828125 3.22501 0.828125H13.975C15.4248 0.828125 16.6 2.00338 16.6 3.45312V11.7031C16.6 13.1529 15.4248 14.3281 13.975 14.3281H5.04918L1.72211 16.2293C1.48998 16.362 1.2048 16.361 0.973561 16.2268C0.742325 16.0926 0.600006 15.8455 0.600006 15.5781V3.45313ZM3.22501 2.32812C2.60369 2.32812 2.10001 2.8318 2.10001 3.45313V14.2857L4.65083 12.8281H13.975C14.5963 12.8281 15.1 12.3244 15.1 11.7031V3.45312C15.1 2.8318 14.5963 2.32812 13.975 2.32812H3.22501ZM12.6003 6.82794H4.60025V5.32794H12.6003V6.82794ZM9.60025 9.82794H4.60025V8.32794H9.60025V9.82794Z" fill="#292A2E"/>
</svg>
