<svg width="17" height="17" viewBox="0 0 17 17" fill="none" xmlns="http://www.w3.org/2000/svg">
<path fill-rule="evenodd" clip-rule="evenodd" d="M7.85001 5.47266C6.69575 5.79912 5.85001 6.86036 5.85001 8.11914C5.85001 9.37792 6.69575 10.4392 7.85001 10.7656V16.1191H9.35001V10.7656C10.5043 10.4392 11.35 9.37792 11.35 8.11914C11.35 6.86036 10.5043 5.79912 9.35001 5.47266V0.119141H7.85001V5.47266ZM8.60001 6.86914C7.90965 6.86914 7.35001 7.42878 7.35001 8.11914C7.35001 8.8095 7.90965 9.36914 8.60001 9.36914C9.29036 9.36914 9.85001 8.8095 9.85001 8.11914C9.85001 7.42878 9.29036 6.86914 8.60001 6.86914Z" fill="#292A2E"/>
</svg>
