<svg width="17" height="17" viewBox="0 0 17 17" fill="none" xmlns="http://www.w3.org/2000/svg">
<path fill-rule="evenodd" clip-rule="evenodd" d="M2.60001 3.26465C2.60001 2.85043 2.93579 2.51465 3.35001 2.51465H6.85001C7.26422 2.51465 7.60001 2.85043 7.60001 3.26465V5.01465H9.60001V3.26465C9.60001 2.85043 9.93579 2.51465 10.35 2.51465H13.85C14.2642 2.51465 14.6 2.85043 14.6 3.26465V5.01465C15.7046 5.01465 16.6 5.91008 16.6 7.01465V12.5146C16.6 13.6192 15.7046 14.5146 14.6 14.5146H2.60001C1.49544 14.5146 0.600006 13.6192 0.600006 12.5146V7.01465C0.600006 5.91008 1.49544 5.01465 2.60001 5.01465V3.26465ZM4.10001 5.01465H6.10001V4.01465H4.10001V5.01465ZM13.1 5.01465V4.01465H11.1V5.01465H13.1ZM2.60001 6.51465C2.32386 6.51465 2.10001 6.73851 2.10001 7.01465V12.5146C2.10001 12.7908 2.32386 13.0146 2.60001 13.0146H14.6C14.8761 13.0146 15.1 12.7908 15.1 12.5146V7.01465C15.1 6.73851 14.8761 6.51465 14.6 6.51465H2.60001Z" fill="#292A2E"/>
</svg>
