<svg width="17" height="17" viewBox="0 0 17 17" fill="none" xmlns="http://www.w3.org/2000/svg">
<path fill-rule="evenodd" clip-rule="evenodd" d="M15.6 3.20117L1.60001 3.20117L1.60001 1.70117L15.6 1.70117L15.6 3.20117ZM3.10001 7.20117L3.10001 10.2012L6.10001 10.2012L6.10001 7.20117L3.10001 7.20117ZM2.97501 5.70117L6.22501 5.70117C6.9844 5.70117 7.60001 6.31678 7.60001 7.07617L7.60001 10.3262C7.60001 11.0856 6.9844 11.7012 6.22501 11.7012L2.97501 11.7012C2.21562 11.7012 1.60001 11.0856 1.60001 10.3262L1.60001 7.07617C1.60001 6.31678 2.21561 5.70117 2.97501 5.70117ZM15.6 7.36784L9.60001 7.36784L9.60001 5.86784L15.6 5.86784L15.6 7.36784ZM15.6 11.5345L9.60001 11.5345L9.60001 10.0345L15.6 10.0345L15.6 11.5345ZM15.6 15.7012L1.60001 15.7012L1.60001 14.2012L15.6 14.2012L15.6 15.7012Z" fill="#292A2E"/>
</svg>
