<svg width="17" height="17" viewBox="0 0 17 17" fill="none" xmlns="http://www.w3.org/2000/svg">
<path fill-rule="evenodd" clip-rule="evenodd" d="M12.6 2.80567L4.60001 2.80567L4.60001 1.30567L12.6 1.30567L12.6 2.80567ZM2.10001 5.80566L2.10001 10.8057L15.1 10.8057L15.1 5.80566L2.10001 5.80566ZM1.97501 4.30566L15.225 4.30566C15.9844 4.30566 16.6 4.92127 16.6 5.68066L16.6 10.9307C16.6 11.6901 15.9844 12.3057 15.225 12.3057L1.97501 12.3057C1.21561 12.3057 0.600006 11.6901 0.600006 10.9307L0.600006 5.68066C0.600006 4.92127 1.21561 4.30566 1.97501 4.30566ZM12.6 15.3057L4.60001 15.3057L4.60001 13.8057L12.6 13.8057L12.6 15.3057Z" fill="#292A2E"/>
</svg>
