<svg width="17" height="17" viewBox="0 0 17 17" fill="none" xmlns="http://www.w3.org/2000/svg">
<path fill-rule="evenodd" clip-rule="evenodd" d="M14.6 3.41016L2.60001 3.41016L2.60001 1.91016L14.6 1.91016L14.6 3.41016ZM4.10001 6.41016L4.10001 11.4102L13.1 11.4102L13.1 6.41016L4.10001 6.41016ZM3.97501 4.91016L13.225 4.91016C13.9844 4.91016 14.6 5.52576 14.6 6.28516L14.6 11.5352C14.6 12.2945 13.9844 12.9102 13.225 12.9102L3.97501 12.9102C3.21561 12.9102 2.60001 12.2945 2.60001 11.5352L2.60001 6.28516C2.60001 5.52576 3.21561 4.91016 3.97501 4.91016ZM14.6 15.9102L2.60001 15.9102L2.60001 14.4102L14.6 14.4102L14.6 15.9102Z" fill="#292A2E"/>
</svg>
