<svg width="17" height="17" viewBox="0 0 17 17" fill="none" xmlns="http://www.w3.org/2000/svg">
<path fill-rule="evenodd" clip-rule="evenodd" d="M15.6 2.59668L1.60001 2.59668L1.60001 1.09668L15.6 1.09668L15.6 2.59668ZM11.1 6.59668L11.1 9.59668L14.1 9.59668L14.1 6.59668L11.1 6.59668ZM10.975 5.09668L14.225 5.09668C14.9844 5.09668 15.6 5.71229 15.6 6.47168L15.6 9.72168C15.6 10.4811 14.9844 11.0967 14.225 11.0967L10.975 11.0967C10.2156 11.0967 9.60001 10.4811 9.60001 9.72168L9.60001 6.47168C9.60001 5.71229 10.2156 5.09668 10.975 5.09668ZM7.60001 6.76335L1.60001 6.76335L1.60001 5.26335L7.60001 5.26335L7.60001 6.76335ZM7.60001 10.93L1.60001 10.93L1.60001 9.43002L7.60001 9.43002L7.60001 10.93ZM15.6 15.0967L1.60001 15.0967L1.60001 13.5967L15.6 13.5967L15.6 15.0967Z" fill="#292A2E"/>
</svg>
