<svg width="17" height="17" viewBox="0 0 17 17" fill="none" xmlns="http://www.w3.org/2000/svg">
<path fill-rule="evenodd" clip-rule="evenodd" d="M1.60001 3.49219C1.60001 2.38762 2.49544 1.49219 3.60001 1.49219H11.6C12.7046 1.49219 13.6 2.38762 13.6 3.49219V11.4922C13.6 12.5968 12.7046 13.4922 11.6 13.4922H3.60001C2.49544 13.4922 1.60001 12.5968 1.60001 11.4922V3.49219ZM3.60001 2.99219C3.32386 2.99219 3.10001 3.21605 3.10001 3.49219V11.4922C3.10001 11.7683 3.32386 11.9922 3.60001 11.9922H11.6C11.8761 11.9922 12.1 11.7683 12.1 11.4922V3.49219C12.1 3.21605 11.8761 2.99219 11.6 2.99219H3.60001ZM16.6 6.49219V13.2422C16.6 15.0371 15.1449 16.4922 13.35 16.4922H6.60001V14.9922H13.35C14.3165 14.9922 15.1 14.2087 15.1 13.2422V6.49219H16.6Z" fill="#292A2E"/>
</svg>
