<svg width="17" height="17" viewBox="0 0 17 17" fill="none" xmlns="http://www.w3.org/2000/svg">
<path fill-rule="evenodd" clip-rule="evenodd" d="M3.60001 3.3877C3.32386 3.3877 3.10001 3.61155 3.10001 3.8877V13.8877C3.10001 14.1638 3.32386 14.3877 3.60001 14.3877H7.85001V3.3877H3.60001ZM9.35001 3.3877V8.1377H14.1V3.8877C14.1 3.61155 13.8761 3.3877 13.6 3.3877H9.35001ZM14.1 9.6377H9.35001V14.3877H13.6C13.8761 14.3877 14.1 14.1638 14.1 13.8877V9.6377ZM1.60001 3.8877C1.60001 2.78313 2.49544 1.8877 3.60001 1.8877H13.6C14.7046 1.8877 15.6 2.78313 15.6 3.8877V13.8877C15.6 14.9923 14.7046 15.8877 13.6 15.8877H3.60001C2.49544 15.8877 1.60001 14.9923 1.60001 13.8877V3.8877Z" fill="#292A2E"/>
</svg>
