<svg width="17" height="17" viewBox="0 0 17 17" fill="none" xmlns="http://www.w3.org/2000/svg">
<path fill-rule="evenodd" clip-rule="evenodd" d="M1.60001 3.2832C1.60001 2.17863 2.49544 1.2832 3.60001 1.2832H13.6C14.7046 1.2832 15.6 2.17863 15.6 3.2832V13.2832C15.6 14.3878 14.7046 15.2832 13.6 15.2832H3.60001C2.49544 15.2832 1.60001 14.3878 1.60001 13.2832V3.2832ZM3.60001 2.7832C3.32386 2.7832 3.10001 3.00706 3.10001 3.2832V6.7832H14.1V3.2832C14.1 3.00706 13.8761 2.7832 13.6 2.7832H3.60001ZM14.1 8.2832H9.35001V10.2832H14.1V8.2832ZM14.1 11.7832H9.35001V13.7832H13.6C13.8761 13.7832 14.1 13.5593 14.1 13.2832V11.7832ZM7.85001 13.7832V11.7832H3.10001V13.2832C3.10001 13.5593 3.32386 13.7832 3.60001 13.7832H7.85001ZM3.10001 10.2832H7.85001V8.2832H3.10001V10.2832Z" fill="#292A2E"/>
</svg>
