<svg width="17" height="17" viewBox="0 0 17 17" fill="none" xmlns="http://www.w3.org/2000/svg">
<path d="M14.1 3.07422C14.1 2.79808 13.8761 2.57422 13.6 2.57422H10.1127L8.94669 5.57422H10.85C11.0975 5.57422 11.3293 5.69616 11.4691 5.90039C11.6089 6.10463 11.6388 6.36504 11.5492 6.5957L9.79922 11.0957L8.40079 10.5527L9.75333 7.07422H7.85001C7.6025 7.07422 7.37067 6.95228 7.23087 6.74805C7.09115 6.54381 7.06123 6.2834 7.15079 6.05273L8.50333 2.57422H3.60001C3.32386 2.57422 3.10001 2.79808 3.10001 3.07422V13.0742C3.10001 13.3504 3.32386 13.5742 3.60001 13.5742H13.6C13.8761 13.5742 14.1 13.3504 14.1 13.0742V3.07422ZM15.6 13.0742C15.6 14.1788 14.7046 15.0742 13.6 15.0742H3.60001C2.49544 15.0742 1.60001 14.1788 1.60001 13.0742V3.07422C1.60001 1.96965 2.49544 1.07422 3.60001 1.07422H13.6C14.7046 1.07422 15.6 1.96965 15.6 3.07422V13.0742Z" fill="#292A2E"/>
</svg>
