<svg width="17" height="17" viewBox="0 0 17 17" fill="none" xmlns="http://www.w3.org/2000/svg">
<path fill-rule="evenodd" clip-rule="evenodd" d="M5.60001 1.21973C5.60001 0.805513 5.93579 0.469727 6.35001 0.469727H10.85C11.2642 0.469727 11.6 0.805513 11.6 1.21973V2.96973H15.1V4.46973H14.1V14.4697C14.1 15.5743 13.2046 16.4697 12.1 16.4697H5.10001C3.99544 16.4697 3.10001 15.5743 3.10001 14.4697V4.46973H2.10001V2.96973H5.60001V1.21973ZM7.10001 2.96973H10.1V1.96973H7.10001V2.96973ZM4.60001 4.46973V14.4697C4.60001 14.7459 4.82386 14.9697 5.10001 14.9697H12.1C12.3761 14.9697 12.6 14.7459 12.6 14.4697V4.46973H4.60001ZM6.35001 13.4697V5.96973H7.85001V13.4697H6.35001ZM9.35001 13.4697V5.96973H10.85V13.4697H9.35001Z" fill="#292A2E"/>
</svg>
