<svg width="17" height="17" viewBox="0 0 17 17" fill="none" xmlns="http://www.w3.org/2000/svg">
<path fill-rule="evenodd" clip-rule="evenodd" d="M6.10001 1.61523C6.10001 1.20102 6.43579 0.865234 6.85001 0.865234H10.35C10.7642 0.865234 11.1 1.20102 11.1 1.61523V5.11523C11.1 5.52945 10.7642 5.86523 10.35 5.86523H9.35001V8.11523H12.475C13.2344 8.11523 13.85 8.73084 13.85 9.49023V11.8652H14.85C15.2642 11.8652 15.6 12.201 15.6 12.6152V16.1152C15.6 16.5294 15.2642 16.8652 14.85 16.8652H11.35C10.9358 16.8652 10.6 16.5294 10.6 16.1152V12.6152C10.6 12.201 10.9358 11.8652 11.35 11.8652H12.35V9.61523H4.85001V11.8652H5.85001C6.26422 11.8652 6.60001 12.201 6.60001 12.6152V16.1152C6.60001 16.5294 6.26422 16.8652 5.85001 16.8652H2.35001C1.93579 16.8652 1.60001 16.5294 1.60001 16.1152V12.6152C1.60001 12.201 1.93579 11.8652 2.35001 11.8652H3.35001V9.49023C3.35001 8.73084 3.96561 8.11523 4.72501 8.11523H7.85001V5.86523H6.85001C6.43579 5.86523 6.10001 5.52945 6.10001 5.11523V1.61523ZM7.60001 2.36523V4.36523H9.60001V2.36523H7.60001ZM3.10001 13.3652V15.3652H5.10001V13.3652H3.10001ZM12.1 13.3652V15.3652H14.1V13.3652H12.1Z" fill="#292A2E"/>
</svg>
