<svg width="17" height="17" viewBox="0 0 17 17" fill="none" xmlns="http://www.w3.org/2000/svg">
<path d="M3.35001 9.65625C4.3165 9.65625 5.10001 10.4398 5.10001 11.4062C5.10001 12.3727 4.3165 13.1562 3.35001 13.1562C2.38351 13.1562 1.60001 12.3727 1.60001 11.4062C1.60001 10.4398 2.38351 9.65625 3.35001 9.65625Z" fill="#292A2E"/>
<path d="M3.35001 4.15625C4.3165 4.15625 5.10001 4.93975 5.10001 5.90625C5.10001 6.87275 4.3165 7.65625 3.35001 7.65625C2.38351 7.65625 1.60001 6.87275 1.60001 5.90625C1.60001 4.93975 2.38351 4.15625 3.35001 4.15625Z" fill="#292A2E"/>
<path d="M8.60001 9.65625C9.5665 9.65625 10.35 10.4398 10.35 11.4062C10.35 12.3727 9.5665 13.1562 8.60001 13.1562C7.63351 13.1562 6.85001 12.3727 6.85001 11.4062C6.85001 10.4398 7.63351 9.65625 8.60001 9.65625Z" fill="#292A2E"/>
<path d="M8.60001 4.15625C9.5665 4.15625 10.35 4.93975 10.35 5.90625C10.35 6.87275 9.5665 7.65625 8.60001 7.65625C7.63351 7.65625 6.85001 6.87275 6.85001 5.90625C6.85001 4.93975 7.63351 4.15625 8.60001 4.15625Z" fill="#292A2E"/>
<path d="M13.85 9.65625C14.8165 9.65625 15.6 10.4398 15.6 11.4062C15.6 12.3727 14.8165 13.1562 13.85 13.1562C12.8835 13.1562 12.1 12.3727 12.1 11.4062C12.1 10.4398 12.8835 9.65625 13.85 9.65625Z" fill="#292A2E"/>
<path d="M13.85 4.15625C14.8165 4.15625 15.6 4.93975 15.6 5.90625C15.6 6.87275 14.8165 7.65625 13.85 7.65625C12.8835 7.65625 12.1 6.87275 12.1 5.90625C12.1 4.93975 12.8835 4.15625 13.85 4.15625Z" fill="#292A2E"/>
</svg>
