<svg width="17" height="17" viewBox="0 0 17 17" fill="none" xmlns="http://www.w3.org/2000/svg">
<path d="M7.60001 2.80176C7.60001 3.76826 6.8165 4.55176 5.85001 4.55176C4.88351 4.55176 4.10001 3.76826 4.10001 2.80176C4.10001 1.83526 4.88351 1.05176 5.85001 1.05176C6.8165 1.05176 7.60001 1.83526 7.60001 2.80176Z" fill="#292A2E"/>
<path d="M13.1 2.80176C13.1 3.76826 12.3165 4.55176 11.35 4.55176C10.3835 4.55176 9.60001 3.76826 9.60001 2.80176C9.60001 1.83526 10.3835 1.05176 11.35 1.05176C12.3165 1.05176 13.1 1.83526 13.1 2.80176Z" fill="#292A2E"/>
<path d="M7.60001 8.05176C7.60001 9.01826 6.8165 9.80176 5.85001 9.80176C4.88351 9.80176 4.10001 9.01826 4.10001 8.05176C4.10001 7.08526 4.88351 6.30176 5.85001 6.30176C6.8165 6.30176 7.60001 7.08526 7.60001 8.05176Z" fill="#292A2E"/>
<path d="M13.1 8.05176C13.1 9.01826 12.3165 9.80176 11.35 9.80176C10.3835 9.80176 9.60001 9.01826 9.60001 8.05176C9.60001 7.08526 10.3835 6.30176 11.35 6.30176C12.3165 6.30176 13.1 7.08526 13.1 8.05176Z" fill="#292A2E"/>
<path d="M7.60001 13.3018C7.60001 14.2683 6.8165 15.0518 5.85001 15.0518C4.88351 15.0518 4.10001 14.2683 4.10001 13.3018C4.10001 12.3353 4.88351 11.5518 5.85001 11.5518C6.8165 11.5518 7.60001 12.3353 7.60001 13.3018Z" fill="#292A2E"/>
<path d="M13.1 13.3018C13.1 14.2683 12.3165 15.0518 11.35 15.0518C10.3835 15.0518 9.60001 14.2683 9.60001 13.3018C9.60001 12.3353 10.3835 11.5518 11.35 11.5518C12.3165 11.5518 13.1 12.3353 13.1 13.3018Z" fill="#292A2E"/>
</svg>
