<svg width="17" height="17" viewBox="0 0 17 17" fill="none" xmlns="http://www.w3.org/2000/svg">
<path fill-rule="evenodd" clip-rule="evenodd" d="M12.1858 1.30087C12.9668 0.519825 14.2332 0.519826 15.0142 1.30087L15.7465 2.03311C16.5275 2.81416 16.5275 4.08049 15.7465 4.86153L10.6094 9.99861C10.369 10.239 10.0714 10.4141 9.7446 10.5074L6.55605 11.4185C6.29415 11.4933 6.01227 11.4202 5.81968 11.2277C5.62708 11.0351 5.55404 10.7532 5.62886 10.4913L6.53988 7.30273C6.63325 6.97591 6.80838 6.67829 7.04871 6.43795L12.1858 1.30087ZM13.9536 2.36153C13.7583 2.16627 13.4417 2.16627 13.2465 2.36153L12.6607 2.94732L14.1 4.38666L14.6858 3.80087C14.8811 3.60561 14.8811 3.28903 14.6858 3.09377L13.9536 2.36153ZM13.0393 5.44732L11.6 4.00798L8.10937 7.49861C8.04929 7.5587 8.00551 7.6331 7.98216 7.71481L7.44202 9.6053L9.33252 9.06516C9.41422 9.04182 9.48863 8.99804 9.54871 8.93795L13.0393 5.44732ZM3.60001 2.94842C3.32386 2.94842 3.10001 3.17228 3.10001 3.44842V13.4484C3.10001 13.7246 3.32386 13.9484 3.60001 13.9484H13.6C13.8761 13.9484 14.1 13.7246 14.1 13.4484V10.4473H15.6V13.4484C15.6 14.553 14.7046 15.4484 13.6 15.4484H3.60001C2.49544 15.4484 1.60001 14.553 1.60001 13.4484V3.44842C1.60001 2.34385 2.49544 1.44842 3.60001 1.44842H6.60001V2.94842H3.60001Z" fill="#292A2E"/>
</svg>
