<svg width="17" height="17" viewBox="0 0 17 17" fill="none" xmlns="http://www.w3.org/2000/svg">
<path fill-rule="evenodd" clip-rule="evenodd" d="M1.60001 2.59277C1.60001 2.17856 1.93579 1.84277 2.35001 1.84277H4.85001C5.26422 1.84277 5.60001 2.17856 5.60001 2.59277V5.09277C5.60001 5.50699 5.26422 5.84277 4.85001 5.84277H2.35001C1.93579 5.84277 1.60001 5.50699 1.60001 5.09277V2.59277ZM3.10001 3.34277V4.34277H4.10001V3.34277H3.10001ZM12.9358 3.44633C13.7168 2.66528 14.9832 2.66528 15.7642 3.44633L15.9965 3.67856C16.7775 4.45961 16.7775 5.72594 15.9965 6.50699L11.148 11.3555C10.8688 11.6347 10.5132 11.825 10.126 11.9024L7.99709 12.3282C7.7512 12.3774 7.49699 12.3004 7.31968 12.1231C7.14236 11.9458 7.06539 11.6916 7.11457 11.4457L7.54035 9.31681C7.61778 8.92962 7.80809 8.57403 8.08729 8.29483L12.9358 3.44633ZM14.7036 4.50699C14.5083 4.31172 14.1917 4.31172 13.9965 4.50699L13.6607 4.84277L14.6 5.78211L14.9358 5.44633C15.1311 5.25106 15.1311 4.93448 14.9358 4.73922L14.7036 4.50699ZM13.5393 6.84277L12.6 5.90343L9.14795 9.35548C9.07815 9.42529 9.03058 9.51418 9.01122 9.61098L8.80607 10.6367L9.8318 10.4316C9.92859 10.4122 10.0175 10.3646 10.0873 10.2948L13.5393 6.84277ZM1.60001 7.59277C1.60001 7.17856 1.93579 6.84277 2.35001 6.84277H4.85001C5.26422 6.84277 5.60001 7.17856 5.60001 7.59277V10.0928C5.60001 10.507 5.26422 10.8428 4.85001 10.8428H2.35001C1.93579 10.8428 1.60001 10.507 1.60001 10.0928V7.59277ZM3.10001 8.34277V9.34277H4.10001V8.34277H3.10001ZM1.60001 12.5928C1.60001 12.1786 1.93579 11.8428 2.35001 11.8428H4.85001C5.26422 11.8428 5.60001 12.1786 5.60001 12.5928V15.0928C5.60001 15.507 5.26422 15.8428 4.85001 15.8428H2.35001C1.93579 15.8428 1.60001 15.507 1.60001 15.0928V12.5928ZM3.10001 13.3428V14.3428H4.10001V13.3428H3.10001Z" fill="#292A2E"/>
</svg>
