<svg width="17" height="17" viewBox="0 0 17 17" fill="none" xmlns="http://www.w3.org/2000/svg">
<path fill-rule="evenodd" clip-rule="evenodd" d="M0.600006 4.23828C0.600006 3.13371 1.49544 2.23828 2.60001 2.23828H14.6C15.7046 2.23828 16.6 3.13371 16.6 4.23828V12.2383C16.6 13.3429 15.7046 14.2383 14.6 14.2383H2.60001C1.49544 14.2383 0.600006 13.3429 0.600006 12.2383V4.23828ZM2.60001 3.73828C2.32386 3.73828 2.10001 3.96214 2.10001 4.23828V4.76687L8.60001 8.36626L15.1 4.76687V4.23828C15.1 3.96214 14.8761 3.73828 14.6 3.73828H2.60001ZM15.1 6.4815L8.96333 9.87969C8.73729 10.0049 8.46273 10.0049 8.23668 9.87969L2.10001 6.4815V12.2383C2.10001 12.5144 2.32386 12.7383 2.60001 12.7383H14.6C14.8761 12.7383 15.1 12.5144 15.1 12.2383V6.4815Z" fill="#292A2E"/>
</svg>
