<svg width="17" height="17" viewBox="0 0 17 17" fill="none" xmlns="http://www.w3.org/2000/svg">
<path fill-rule="evenodd" clip-rule="evenodd" d="M2.10001 8.0293C2.10001 11.6191 5.01016 14.5293 8.60001 14.5293C12.1899 14.5293 15.1 11.6191 15.1 8.0293L16.6 8.0293C16.6 12.4476 13.0183 16.0293 8.60001 16.0293C4.18173 16.0293 0.600007 12.4476 0.600007 8.0293C0.600007 3.61102 4.18173 0.0292972 8.60001 0.0292976L8.60001 1.5293C5.01016 1.5293 2.10001 4.43945 2.10001 8.0293ZM6.68546 10.0623C7.17081 10.4398 7.82471 10.7793 8.60001 10.7793C9.3753 10.7793 10.0292 10.4398 10.5146 10.0623C10.7543 9.8758 10.9414 9.68867 11.0673 9.54955C11.1299 9.48038 11.1763 9.4242 11.2056 9.38743C11.2202 9.36909 11.2304 9.35568 11.2362 9.34804L11.2414 9.34104L11.2408 9.34188L11.24 9.34294C11.24 9.34294 11.2397 9.34337 11.85 9.7793C12.4603 10.2152 12.46 10.2157 12.46 10.2157L12.4588 10.2174L12.4568 10.2201L12.4513 10.2276L12.4348 10.2499C12.4213 10.2679 12.4027 10.292 12.3792 10.3216C12.3323 10.3805 12.2655 10.461 12.1796 10.5559C12.0086 10.7449 11.7582 10.9953 11.4355 11.2463C10.7958 11.7438 9.82471 12.2793 8.60001 12.2793C7.3753 12.2793 6.4042 11.7438 5.76455 11.2463C5.44181 10.9953 5.19142 10.7449 5.02042 10.5559C4.93456 10.461 4.86772 10.3805 4.82081 10.3216C4.79732 10.292 4.77876 10.2679 4.76522 10.2499L4.74867 10.2276L4.74324 10.2201L4.74123 10.2174L4.74041 10.2162C4.74041 10.2162 4.73971 10.2152 5.35001 9.7793C5.96031 9.34337 5.96 9.34294 5.96 9.34294L5.95863 9.34104L5.96385 9.34804C5.9696 9.35568 5.97984 9.36909 5.99444 9.38743C6.0237 9.4242 6.07014 9.48038 6.13272 9.54955C6.2586 9.68867 6.4457 9.8758 6.68546 10.0623ZM6.35001 7.5293C5.65965 7.5293 5.10001 6.96966 5.10001 6.2793C5.10001 5.58894 5.65965 5.0293 6.35001 5.0293C7.04036 5.0293 7.60001 5.58894 7.60001 6.2793C7.60001 6.96965 7.04036 7.5293 6.35001 7.5293ZM10.85 7.5293C10.1597 7.5293 9.60001 6.96965 9.60001 6.2793C9.60001 5.58894 10.1597 5.0293 10.85 5.0293C11.5404 5.0293 12.1 5.58894 12.1 6.2793C12.1 6.96965 11.5404 7.5293 10.85 7.5293ZM13.1 3.52954L11.1 3.52954L11.1 2.02954L13.1 2.02954L13.1 0.0295421L14.6 0.0295422L14.6 2.02954L16.6 2.02954L16.6 3.52954L14.6 3.52954L14.6 5.52954L13.1 5.52954L13.1 3.52954Z" fill="#292A2E"/>
</svg>
