<svg width="16" height="17" viewBox="0 0 16 17" fill="none" xmlns="http://www.w3.org/2000/svg">
<path fill-rule="evenodd" clip-rule="evenodd" d="M8 2.08203C4.41015 2.08203 1.5 4.99218 1.5 8.58203C1.5 12.1719 4.41015 15.082 8 15.082C11.5899 15.082 14.5 12.1719 14.5 8.58203C14.5 4.99218 11.5899 2.08203 8 2.08203ZM0 8.58203C0 4.16375 3.58172 0.582031 8 0.582031C12.4183 0.582031 16 4.16375 16 8.58203C16 13.0003 12.4183 16.582 8 16.582C3.58172 16.582 0 13.0003 0 8.58203ZM4.5 6.83203C4.5 6.14168 5.05964 5.58203 5.75 5.58203C6.44036 5.58203 7 6.14168 7 6.83203C7 7.52239 6.44036 8.08203 5.75 8.08203C5.05964 8.08203 4.5 7.52239 4.5 6.83203ZM9 6.83203C9 6.14168 9.55964 5.58203 10.25 5.58203C10.9404 5.58203 11.5 6.14168 11.5 6.83203C11.5 7.52239 10.9404 8.08203 10.25 8.08203C9.55964 8.08203 9 7.52239 9 6.83203ZM11.25 10.082V11.582H4.75V10.082H11.25Z" fill="#292A2E"/>
</svg>
