<svg width="17" height="17" viewBox="0 0 17 17" fill="none" xmlns="http://www.w3.org/2000/svg">
<path fill-rule="evenodd" clip-rule="evenodd" d="M8.60001 2.13379C5.01016 2.13379 2.10001 5.04394 2.10001 8.63379C2.10001 12.2236 5.01016 15.1338 8.60001 15.1338C12.1899 15.1338 15.1 12.2236 15.1 8.63379C15.1 5.04394 12.1899 2.13379 8.60001 2.13379ZM0.600006 8.63379C0.600006 4.21551 4.18173 0.633789 8.60001 0.633789C13.0183 0.633789 16.6 4.21551 16.6 8.63379C16.6 13.0521 13.0183 16.6338 8.60001 16.6338C4.18173 16.6338 0.600006 13.0521 0.600006 8.63379ZM5.10001 6.88379C5.10001 6.19343 5.65965 5.63379 6.35001 5.63379C7.04036 5.63379 7.60001 6.19343 7.60001 6.88379C7.60001 7.57414 7.04036 8.13379 6.35001 8.13379C5.65965 8.13379 5.10001 7.57414 5.10001 6.88379ZM9.60001 6.88379C9.60001 6.19343 10.1596 5.63379 10.85 5.63379C11.5404 5.63379 12.1 6.19343 12.1 6.88379C12.1 7.57414 11.5404 8.13379 10.85 8.13379C10.1596 8.13379 9.60001 7.57414 9.60001 6.88379ZM6.68546 10.6668C7.17081 11.0443 7.82471 11.3838 8.60001 11.3838C9.3753 11.3838 10.0292 11.0443 10.5146 10.6668C10.7543 10.4803 10.9414 10.2932 11.0673 10.154C11.1299 10.0849 11.1763 10.0287 11.2056 9.99193C11.2202 9.97358 11.2304 9.96017 11.2362 9.95253L11.2414 9.94553L11.2408 9.94637L11.24 9.94743C11.24 9.94743 11.2397 9.94786 11.85 10.3838C12.4603 10.8197 12.46 10.8202 12.46 10.8202L12.4588 10.8218L12.4568 10.8246L12.4513 10.8321L12.4348 10.8544C12.4213 10.8723 12.4027 10.8965 12.3792 10.926C12.3323 10.985 12.2655 11.0655 12.1796 11.1604C12.0086 11.3494 11.7582 11.5998 11.4355 11.8508C10.7958 12.3483 9.82471 12.8838 8.60001 12.8838C7.3753 12.8838 6.4042 12.3483 5.76455 11.8508C5.44181 11.5998 5.19142 11.3494 5.02042 11.1604C4.93456 11.0655 4.86772 10.985 4.82081 10.926C4.79732 10.8965 4.77875 10.8723 4.76522 10.8544L4.74867 10.8321L4.74324 10.8246L4.74123 10.8218L4.74041 10.8207C4.74041 10.8207 4.73971 10.8197 5.35001 10.3838C5.96031 9.94786 5.96 9.94743 5.96 9.94743L5.95863 9.94553L5.96385 9.95253C5.9696 9.96017 5.97984 9.97358 5.99444 9.99193C6.0237 10.0287 6.07014 10.0849 6.13272 10.154C6.25859 10.2932 6.4457 10.4803 6.68546 10.6668Z" fill="#292A2E"/>
</svg>
