<svg width="16" height="17" viewBox="0 0 16 17" fill="none" xmlns="http://www.w3.org/2000/svg">
<path d="M10.7222 14.2773L11.8386 15.3937C10.6991 16.018 9.39102 16.373 8 16.373C3.58172 16.373 0 12.7913 0 8.37305C0 6.98203 0.355018 5.67393 0.97939 4.53442L2.09578 5.65081C1.71335 6.47887 1.5 7.40104 1.5 8.37305C1.5 11.9629 4.41015 14.873 8 14.873C8.972 14.873 9.89417 14.6597 10.7222 14.2773Z" fill="#292A2E"/>
<path d="M8 0.373047C6.60898 0.373047 5.30088 0.728065 4.16137 1.35244L5.27776 2.46883C6.10583 2.0864 7.028 1.87305 8 1.87305C11.5899 1.87305 14.5 4.7832 14.5 8.37305C14.5 9.34505 14.2866 10.2672 13.9042 11.0953L15.0206 12.2117C15.645 11.0722 16 9.76406 16 8.37305C16 3.95477 12.4183 0.373047 8 0.373047Z" fill="#292A2E"/>
<path d="M9.05717 6.24823L10.6248 7.81588C11.132 7.65665 11.5 7.18282 11.5 6.62305C11.5 5.93269 10.9404 5.37305 10.25 5.37305C9.69023 5.37305 9.21639 5.741 9.05717 6.24823Z" fill="#292A2E"/>
<path d="M6.08546 10.406C6.46829 10.7038 6.95599 10.9779 7.52542 11.0804L8.95709 12.5121C8.65859 12.582 8.33901 12.623 8 12.623C6.77529 12.623 5.80419 12.0876 5.16454 11.5901C4.84181 11.339 4.59141 11.0887 4.42041 10.8997C4.33455 10.8048 4.26771 10.7242 4.2208 10.6653C4.19732 10.6358 4.17875 10.6116 4.16521 10.5936L4.14867 10.5713L4.14323 10.5639L4.14123 10.5611L4.1404 10.56C4.1404 10.56 4.1397 10.559 4.75 10.123C5.3603 9.68712 5.35999 9.68669 5.35999 9.68669L5.35863 9.68479L5.36384 9.69179C5.36959 9.69943 5.37983 9.71283 5.39444 9.73118C5.4237 9.76795 5.47013 9.82413 5.53271 9.8933C5.65859 10.0324 5.84569 10.2196 6.08546 10.406Z" fill="#292A2E"/>
<path d="M0.469673 1.90343L14.4697 15.9034L15.5303 14.8428L1.53033 0.842773L0.469673 1.90343Z" fill="#292A2E"/>
</svg>
