<svg width="17" height="17" viewBox="0 0 17 17" fill="none" xmlns="http://www.w3.org/2000/svg">
<path fill-rule="evenodd" clip-rule="evenodd" d="M2.37625 6.54339L2.65492 7.84386C2.85252 8.766 3.66745 9.4248 4.61053 9.4248H5.66517C7.00667 9.4248 8.13231 8.41332 8.27523 7.07946L8.39894 5.9248H8.80107L8.92478 7.07946C9.0677 8.41332 10.1933 9.4248 11.5348 9.4248H12.5895C13.5326 9.4248 14.3475 8.766 14.5451 7.84386L14.8238 6.54339C15.0034 7.13845 15.1 7.76992 15.1 8.4248C15.1 12.0147 12.1899 14.9248 8.60001 14.9248C5.01016 14.9248 2.10001 12.0147 2.10001 8.4248C2.10001 7.76992 2.19663 7.13845 2.37625 6.54339ZM13.724 4.4248C12.5337 2.90222 10.6806 1.9248 8.60001 1.9248C6.51946 1.9248 4.6663 2.90222 3.47601 4.4248H13.724ZM13.4223 5.9248H10.3097L10.4162 6.91966C10.4775 7.49131 10.9599 7.9248 11.5348 7.9248H12.5895C12.8253 7.9248 13.029 7.7601 13.0784 7.52957L13.4223 5.9248ZM6.89036 5.9248H3.77775L4.12162 7.52957C4.17103 7.7601 4.37476 7.9248 4.61053 7.9248H5.66517C6.2401 7.9248 6.72252 7.49131 6.78377 6.91966L6.89036 5.9248ZM1.4473 4.83815C2.76126 2.22243 5.47003 0.424805 8.60001 0.424805C11.73 0.424805 14.4388 2.22243 15.7527 4.83815C16.295 5.91778 16.6 7.13676 16.6 8.4248C16.6 12.8431 13.0183 16.4248 8.60001 16.4248C4.18173 16.4248 0.600006 12.8431 0.600006 8.4248C0.600006 7.13676 0.904968 5.91778 1.4473 4.83815ZM6.68546 10.9578C7.17081 11.3353 7.82471 11.6748 8.60001 11.6748C9.3753 11.6748 10.0292 11.3353 10.5146 10.9578C10.7543 10.7713 10.9414 10.5842 11.0673 10.4451C11.1299 10.3759 11.1763 10.3197 11.2056 10.2829C11.2202 10.2646 11.2304 10.2512 11.2362 10.2435L11.2414 10.2365L11.2408 10.2374L11.24 10.2384C11.2399 10.2387 11.2397 10.2389 11.85 10.6748C12.4603 11.1107 12.4601 11.111 12.46 11.1112L12.4588 11.1129L12.4568 11.1156L12.4513 11.1231L12.4348 11.1454C12.4213 11.1634 12.4027 11.1876 12.3792 11.2171C12.3323 11.276 12.2655 11.3565 12.1796 11.4514C12.0086 11.6404 11.7582 11.8908 11.4355 12.1418C10.7958 12.6393 9.82471 13.1748 8.60001 13.1748C7.3753 13.1748 6.4042 12.6393 5.76455 12.1418C5.44181 11.8908 5.19142 11.6404 5.02042 11.4514C4.93456 11.3565 4.86772 11.276 4.82081 11.2171C4.79732 11.1876 4.77875 11.1634 4.76522 11.1454L4.74867 11.1231L4.74324 11.1156L4.74123 11.1129L4.74041 11.1117C4.74024 11.1115 4.73971 11.1107 5.35001 10.6748C5.96031 10.2389 5.96015 10.2387 5.96 10.2384L5.95863 10.2365L5.96385 10.2435C5.9696 10.2512 5.97984 10.2646 5.99444 10.2829C6.0237 10.3197 6.07014 10.3759 6.13272 10.4451C6.25859 10.5842 6.4457 10.7713 6.68546 10.9578ZM11.2414 10.2365C11.2415 10.2363 11.2414 10.2365 11.2414 10.2365Z" fill="#292A2E"/>
</svg>
