<svg width="16" height="17" viewBox="0 0 16 17" fill="none" xmlns="http://www.w3.org/2000/svg">
<path fill-rule="evenodd" clip-rule="evenodd" d="M10.271 0.819241C10.5597 0.931112 10.75 1.20893 10.75 1.51858V6.15373L13.8971 6.78315C14.1622 6.83618 14.3783 7.02783 14.4626 7.28475C14.5469 7.54167 14.4864 7.82409 14.3042 8.0239L6.55422 16.5239C6.34559 16.7527 6.01778 16.8298 5.72904 16.7179C5.4403 16.6061 5.25 16.3282 5.25 16.0186V11.3834L2.10291 10.754C1.83776 10.701 1.62169 10.5093 1.53738 10.2524C1.45308 9.99549 1.5136 9.71308 1.69578 9.51327L9.44578 1.01327C9.65441 0.784449 9.98222 0.70737 10.271 0.819241ZM3.69822 9.54338L6.75 10.1537V14.0828L12.3018 7.99379L9.25 7.38344V3.45433L3.69822 9.54338Z" fill="#292A2E"/>
</svg>
