<svg width="16" height="17" viewBox="0 0 16 17" fill="none" xmlns="http://www.w3.org/2000/svg">
<path fill-rule="evenodd" clip-rule="evenodd" d="M15 0.955078L1 0.955078L1 2.45508L15 2.45508L15 0.955078ZM15 16.9551L15 15.4551L1 15.4551L1 16.9551L15 16.9551ZM7.46967 4.17475L4.96967 6.67475L6.03033 7.73541L7.25 6.51574L7.25 11.3944L6.03033 10.1747L4.96967 11.2354L7.46967 13.7354C7.76256 14.0283 8.23744 14.0283 8.53033 13.7354L11.0303 11.2354L9.96967 10.1747L8.75 11.3944L8.75 6.51574L9.96967 7.73541L11.0303 6.67475L8.53033 4.17475C8.23744 3.88185 7.76256 3.88185 7.46967 4.17475Z" fill="#292A2E"/>
</svg>
