<svg width="16" height="17" viewBox="0 0 16 17" fill="none" xmlns="http://www.w3.org/2000/svg">
<path fill-rule="evenodd" clip-rule="evenodd" d="M1 3.74609C1 2.64152 1.89543 1.74609 3 1.74609H13C14.1046 1.74609 15 2.64152 15 3.74609V11.7461C15 12.8507 14.1046 13.7461 13 13.7461H6.22149L2.15744 16.3758C1.92676 16.525 1.63294 16.5362 1.39159 16.4049C1.15024 16.2736 1 16.0208 1 15.7461V10.2461H2.5V14.3675L5.59256 12.3664C5.71394 12.2879 5.85543 12.2461 6 12.2461H13C13.2761 12.2461 13.5 12.0222 13.5 11.7461V3.74609C13.5 3.46995 13.2761 3.24609 13 3.24609H3C2.72386 3.24609 2.5 3.46995 2.5 3.74609V6.49609C2.5 6.77224 2.72386 6.99609 3 6.99609H8.43934L7.21967 5.77642L8.28033 4.71576L10.7803 7.21576C11.0732 7.50866 11.0732 7.98353 10.7803 8.27642L8.28033 10.7764L7.21967 9.71576L8.43934 8.49609H3C1.89543 8.49609 1 7.60066 1 6.49609V3.74609Z" fill="#292A2E"/>
</svg>
