<svg width="16" height="17" viewBox="0 0 16 17" fill="none" xmlns="http://www.w3.org/2000/svg">
<path fill-rule="evenodd" clip-rule="evenodd" d="M7 2.85059C6.72386 2.85059 6.5 3.07444 6.5 3.35059V12.6006C6.5 13.0507 6.39186 13.4756 6.20015 13.8506H12.25C12.9404 13.8506 13.5 13.2909 13.5 12.6006V3.35059C13.5 3.07444 13.2761 2.85059 13 2.85059H7ZM3.75 13.8506C4.44036 13.8506 5 13.2909 5 12.6006V7.35059H3C2.72386 7.35059 2.5 7.57444 2.5 7.85059V12.6006C2.5 13.2909 3.05964 13.8506 3.75 13.8506ZM5 5.85059V3.35059C5 2.24602 5.89543 1.35059 7 1.35059H13C14.1046 1.35059 15 2.24602 15 3.35059V12.6006C15 14.1194 13.7688 15.3506 12.25 15.3506H3.75C2.23122 15.3506 1 14.1194 1 12.6006V7.85059C1 6.74602 1.89543 5.85059 3 5.85059H5ZM12 5.85059H8V4.35059H12V5.85059ZM11 8.85059H8V7.35059H11V8.85059Z" fill="#292A2E"/>
</svg>
