<svg width="16" height="17" viewBox="0 0 16 17" fill="none" xmlns="http://www.w3.org/2000/svg">
<path d="M1 13.5371V10.5371H2.5V13.5371C2.5 13.8133 2.72386 14.0371 3 14.0371H6V15.5371H3C1.89543 15.5371 1 14.6417 1 13.5371ZM13.5 13.5371V10.5371H15V13.5371C15 14.6417 14.1046 15.5371 13 15.5371H10V14.0371H13C13.2761 14.0371 13.5 13.8133 13.5 13.5371ZM9.75 8.53711C9.75 7.57061 8.9665 6.78711 8 6.78711C7.0335 6.78711 6.25 7.57061 6.25 8.53711C6.25 9.50361 7.0335 10.2871 8 10.2871C8.9665 10.2871 9.75 9.50361 9.75 8.53711ZM1 3.53711C1 2.43254 1.89543 1.53711 3 1.53711H6V3.03711H3C2.72386 3.03711 2.5 3.26097 2.5 3.53711V6.53711H1V3.53711ZM13.5 3.53711C13.5 3.26097 13.2761 3.03711 13 3.03711H10V1.53711H13C14.1046 1.53711 15 2.43254 15 3.53711V6.53711H13.5V3.53711ZM11.25 8.53711C11.25 10.332 9.79493 11.7871 8 11.7871C6.20507 11.7871 4.75 10.332 4.75 8.53711C4.75 6.74218 6.20507 5.28711 8 5.28711C9.79493 5.28711 11.25 6.74218 11.25 8.53711Z" fill="#292A2E"/>
</svg>
