<svg width="17" height="17" viewBox="0 0 17 17" fill="none" xmlns="http://www.w3.org/2000/svg">
<path fill-rule="evenodd" clip-rule="evenodd" d="M2 2.82812C1.72386 2.82812 1.5 3.05198 1.5 3.32812V12.8014L3.14801 7.30802C3.32249 6.72642 3.85781 6.32812 4.46502 6.32812H12.5L12.5 5.07812C12.5 4.80198 12.2761 4.57812 12 4.57812H6.68934L4.93934 2.82812H2ZM14 6.32812H14.66C15.581 6.32812 16.2417 7.21601 15.977 8.09823L14.2356 13.9028C13.9818 14.7488 13.2032 15.3281 12.32 15.3281H1.75C0.783502 15.3281 0 14.5446 0 13.5781V3.32812C0 2.22356 0.89543 1.32812 2 1.32812H5.56066L7.31066 3.07812H12C13.1046 3.07812 14 3.97356 14 5.07812L14 6.32812ZM2.75802 13.8281H12.32C12.5408 13.8281 12.7354 13.6833 12.7989 13.4718L14.492 7.82812H4.55802L2.75802 13.8281Z" fill="#292A2E"/>
</svg>
