<svg width="16" height="17" viewBox="0 0 16 17" fill="none" xmlns="http://www.w3.org/2000/svg">
<path fill-rule="evenodd" clip-rule="evenodd" d="M3 3.43262C2.72386 3.43262 2.5 3.65647 2.5 3.93262V6.93262H13.5V5.68262C13.5 5.40647 13.2761 5.18262 13 5.18262H7.68934L5.93934 3.43262H3ZM13.5 8.43262H2.5V13.9326C2.5 14.2088 2.72386 14.4326 3 14.4326H13C13.2761 14.4326 13.5 14.2088 13.5 13.9326V8.43262ZM1 3.93262C1 2.82805 1.89543 1.93262 3 1.93262H6.56066L8.31066 3.68262H13C14.1046 3.68262 15 4.57805 15 5.68262V13.9326C15 15.0372 14.1046 15.9326 13 15.9326H3C1.89543 15.9326 1 15.0372 1 13.9326V3.93262Z" fill="#292A2E"/>
</svg>
