<svg width="16" height="17" viewBox="0 0 16 17" fill="none" xmlns="http://www.w3.org/2000/svg">
<path fill-rule="evenodd" clip-rule="evenodd" d="M11.5 12.1191L11.5 15.1191L10 15.1191L10 12.1191C10 11.0146 10.8954 10.1191 12 10.1191L15 10.1191L15 11.6191L12 11.6191C11.7239 11.6191 11.5 11.843 11.5 12.1191ZM4.5 15.1191L4.5 12.1191C4.5 11.843 4.27614 11.6191 4 11.6191L1 11.6191L1 10.1191L4 10.1191C5.10457 10.1191 6 11.0146 6 12.1191L6 15.1191L4.5 15.1191ZM12 4.61914L15 4.61914L15 6.11914L12 6.11914C10.8954 6.11914 10 5.22371 10 4.11914L10 1.11914L11.5 1.11914L11.5 4.11914C11.5 4.39528 11.7239 4.61914 12 4.61914ZM4 4.61914C4.27614 4.61914 4.5 4.39528 4.5 4.11914L4.5 1.11914L6 1.11914L6 4.11914C6 5.22371 5.10457 6.11914 4 6.11914L1 6.11914L1 4.61914L4 4.61914Z" fill="#292A2E"/>
</svg>
