<svg width="16" height="17" viewBox="0 0 16 17" fill="none" xmlns="http://www.w3.org/2000/svg">
<path fill-rule="evenodd" clip-rule="evenodd" d="M12.9999 3.22363L9.99994 3.22363V1.72363L12.9999 1.72363C14.1045 1.72363 14.9999 2.61906 14.9999 3.72363V6.72363H13.4999V3.72363C13.4999 3.44749 13.2761 3.22363 12.9999 3.22363ZM3 3.22363C2.72386 3.22363 2.5 3.44749 2.5 3.72363L2.5 6.72363H1L1 3.72363C1 2.61906 1.89543 1.72363 3 1.72363L6 1.72363V3.22363L3 3.22363ZM2.50012 10.7236L2.50012 13.7236C2.50012 13.9998 2.72398 14.2236 3.00012 14.2236H6.00012V15.7236H3.00012C1.89555 15.7236 1.00012 14.8282 1.00012 13.7236L1.00012 10.7236H2.50012ZM13.5 13.7236V10.7236H15V13.7236C15 14.8282 14.1046 15.7236 13 15.7236H10V14.2236H13C13.2761 14.2236 13.5 13.9998 13.5 13.7236Z" fill="#292A2E"/>
</svg>
