<svg width="16" height="17" viewBox="0 0 16 17" fill="none" xmlns="http://www.w3.org/2000/svg">
<path fill-rule="evenodd" clip-rule="evenodd" d="M8 2.01465C4.41015 2.01465 1.5 4.9248 1.5 8.51465C1.5 12.1045 4.41015 15.0146 8 15.0146C11.5899 15.0146 14.5 12.1045 14.5 8.51465C14.5 4.9248 11.5899 2.01465 8 2.01465ZM0 8.51465C0 4.09637 3.58172 0.514648 8 0.514648C12.4183 0.514648 16 4.09637 16 8.51465C16 12.9329 12.4183 16.5146 8 16.5146C3.58172 16.5146 0 12.9329 0 8.51465ZM8 6.01465C6.61929 6.01465 5.5 7.13394 5.5 8.51465C5.5 9.89536 6.61929 11.0146 8 11.0146C9.38071 11.0146 10.5 9.89536 10.5 8.51465C10.5 7.13394 9.38071 6.01465 8 6.01465ZM4 8.51465C4 6.30551 5.79086 4.51465 8 4.51465C10.2091 4.51465 12 6.30551 12 8.51465C12 10.7238 10.2091 12.5146 8 12.5146C5.79086 12.5146 4 10.7238 4 8.51465Z" fill="#292A2E"/>
</svg>
