<svg width="16" height="17" viewBox="0 0 16 17" fill="none" xmlns="http://www.w3.org/2000/svg">
<path fill-rule="evenodd" clip-rule="evenodd" d="M10.5163 0.406269C11.0628 0.0247208 11.8043 0.0901181 12.2756 0.561439L13.535 1.82083C14.0063 2.29215 14.0717 3.03365 13.6902 3.58019L9.36497 9.77578C9.27577 9.90355 9.149 10.0004 9.00225 10.0528L5.50225 11.3028C5.2293 11.4003 4.92461 11.3317 4.71967 11.1268L4.625 11.0321L4.03033 11.6268C3.73744 11.9197 3.26256 11.9197 2.96967 11.6268L2.46967 11.1268C2.17678 10.8339 2.17678 10.359 2.46967 10.0661L3.06434 9.47147L2.96967 9.3768C2.76473 9.17185 2.69621 8.86716 2.79369 8.59421L4.04369 5.09421C4.0961 4.94747 4.19292 4.82069 4.32068 4.7315L10.5163 0.406269ZM11.289 1.69616L5.91326 5.44906L8.6474 8.18321L12.4003 2.80743L11.289 1.69616ZM7.38164 9.03877L5.0577 6.71482L4.36594 8.65175L5.44472 9.73053L7.38164 9.03877Z" fill="#292A2E"/>
</svg>
