<svg width="16" height="17" viewBox="0 0 16 17" fill="none" xmlns="http://www.w3.org/2000/svg">
<path fill-rule="evenodd" clip-rule="evenodd" d="M6.64589 1.21906C7.4113 0.514871 8.5887 0.514873 9.35411 1.21906L14.3541 5.81906C14.7658 6.19777 15 6.73156 15 7.29092V13.4924C15 14.597 14.1046 15.4924 13 15.4924H9.75C9.33579 15.4924 9 15.1566 9 14.7424V9.99239H7V14.7424C7 15.1566 6.66421 15.4924 6.25 15.4924H3C1.89543 15.4924 1 14.597 1 13.4924V7.29092C1 6.73156 1.23424 6.19777 1.64589 5.81906L6.64589 1.21906ZM8.33853 2.32295C8.14717 2.14691 7.85283 2.14691 7.66147 2.32295L2.66147 6.92295C2.55856 7.01763 2.5 7.15108 2.5 7.29092V13.4924C2.5 13.7685 2.72386 13.9924 3 13.9924H5.5V9.24239C5.5 8.82818 5.83579 8.49239 6.25 8.49239H9.75C10.1642 8.49239 10.5 8.82818 10.5 9.24239V13.9924H13C13.2761 13.9924 13.5 13.7685 13.5 13.4924V7.29092C13.5 7.15108 13.4414 7.01763 13.3385 6.92295L8.33853 2.32295Z" fill="#292A2E"/>
</svg>
