<svg width="16" height="17" viewBox="0 0 16 17" fill="none" xmlns="http://www.w3.org/2000/svg">
<path fill-rule="evenodd" clip-rule="evenodd" d="M1.5 2.3877H5V0.887695H1.375C0.615609 0.887695 0 1.5033 0 2.2627V5.8877H1.5V2.3877ZM3 5.8877C3 4.78313 3.89543 3.8877 5 3.8877H11C12.1046 3.8877 13 4.78313 13 5.8877V11.8877C13 12.9923 12.1046 13.8877 11 13.8877H5C3.89543 13.8877 3 12.9923 3 11.8877V5.8877ZM5 5.3877C4.72386 5.3877 4.5 5.61155 4.5 5.8877V11.8877C4.5 12.1638 4.72386 12.3877 5 12.3877H5.63319L8.52548 8.66903C8.99066 8.07094 9.85203 7.96189 10.4516 8.42518L11.5 9.23532V5.8877C11.5 5.61155 11.2761 5.3877 11 5.3877H5ZM11.5 11.131L9.63301 9.6883L7.53348 12.3877H11C11.2761 12.3877 11.5 12.1638 11.5 11.8877V11.131ZM16 11.8877V15.5127C16 16.2721 15.3844 16.8877 14.625 16.8877H11V15.3877H14.5V11.8877H16Z" fill="#292A2E"/>
<path d="M7.5 7.3877C7.5 7.93998 7.05228 8.3877 6.5 8.3877C5.94772 8.3877 5.5 7.93998 5.5 7.3877C5.5 6.83541 5.94772 6.3877 6.5 6.3877C7.05228 6.3877 7.5 6.83541 7.5 7.3877Z" fill="#292A2E"/>
</svg>
