<svg width="16" height="17" viewBox="0 0 16 17" fill="none" xmlns="http://www.w3.org/2000/svg">
<path fill-rule="evenodd" clip-rule="evenodd" d="M3 3.17871C2.72386 3.17871 2.5 3.40257 2.5 3.67871V6.67871H1V3.67871C1 2.57414 1.89543 1.67871 3 1.67871H6V3.17871H3ZM13 3.17871H10V1.67871H13C14.1046 1.67871 15 2.57414 15 3.67871V6.67871H13.5V3.67871C13.5 3.40257 13.2761 3.17871 13 3.17871ZM1 10.0537C1 9.29432 1.61561 8.67871 2.375 8.67871H6.625C7.38439 8.67871 8 9.29432 8 10.0537V14.3037C8 15.0631 7.38439 15.6787 6.625 15.6787H2.375C1.61561 15.6787 1 15.0631 1 14.3037V10.0537ZM2.5 10.1787V14.1787H6.5V10.1787H2.5ZM15 10.6787V13.6787C15 14.7833 14.1046 15.6787 13 15.6787H10V14.1787H13C13.2761 14.1787 13.5 13.9549 13.5 13.6787V10.6787H15Z" fill="#292A2E"/>
</svg>
