<svg width="16" height="17" viewBox="0 0 16 17" fill="none" xmlns="http://www.w3.org/2000/svg">
<path fill-rule="evenodd" clip-rule="evenodd" d="M9.43484 0.470917C9.6358 0.459587 9.83287 0.529503 9.98176 0.664944L13.0047 3.41494L11.9953 4.52451L9.5583 2.30754C8.4066 3.8359 7.67316 5.69601 7.52694 7.71984L10.6897 7.71989L11.9698 6.43949C12.1105 6.2988 12.3013 6.21976 12.5002 6.21976L15.2502 6.21977C15.5101 6.21977 15.7515 6.35435 15.8882 6.57546C16.0248 6.79656 16.0373 7.07266 15.921 7.30515L15.3387 8.46986L15.921 9.63428C16.0372 9.86677 16.0248 10.1429 15.8882 10.364C15.7515 10.5851 15.5101 10.7197 15.2502 10.7197L12.5002 10.7197C12.3013 10.7197 12.1105 10.6407 11.9699 10.5L10.6898 9.21989L7.52758 9.21984C7.67681 11.2401 8.42309 13.0998 9.57899 14.6299L11.9932 12.4169L13.0068 13.5226L10.0068 16.2726C9.85806 16.4089 9.66067 16.4796 9.4592 16.4686C9.25773 16.4576 9.06919 16.366 8.93614 16.2143C7.27941 14.3253 6.1959 11.8952 6.02399 9.21981L2.75552 9.21976L4.11713 10.4038L3.13287 11.5357L0.257866 9.03568C0.0940564 8.89324 0 8.68681 0 8.46973C0 8.25265 0.0940564 8.04622 0.257866 7.90377L3.13287 5.40377L4.11713 6.53568L2.75544 7.71976L6.02352 7.71981C6.19193 5.04781 7.25395 2.61703 8.91321 0.725191C9.04592 0.573873 9.23389 0.482247 9.43484 0.470917ZM12.061 8.46984L12.8109 9.21971H14.0366L13.8294 8.80533C13.7238 8.59419 13.7238 8.34565 13.8294 8.1345L14.0367 7.71976L12.8109 7.71976L12.061 8.46984Z" fill="#292A2E"/>
</svg>
