<svg width="16" height="17" viewBox="0 0 16 17" fill="none" xmlns="http://www.w3.org/2000/svg">
<path fill-rule="evenodd" clip-rule="evenodd" d="M0 3.03125C0 2.27186 0.615608 1.65625 1.375 1.65625H2.125C2.88439 1.65625 3.5 2.27186 3.5 3.03125V14.2812C3.5 15.0406 2.88439 15.6562 2.125 15.6562H1.375C0.615608 15.6562 0 15.0406 0 14.2812V3.03125ZM1.5 3.15625V14.1562H2V3.15625H1.5ZM5 3.03125C5 2.27186 5.61561 1.65625 6.375 1.65625H9.625C10.3844 1.65625 11 2.27186 11 3.03125V14.2812C11 15.0406 10.3844 15.6562 9.625 15.6562H6.375C5.61561 15.6562 5 15.0406 5 14.2812V3.03125ZM6.5 3.15625V14.1562H9.5V3.15625H6.5ZM12.5 3.03125C12.5 2.27186 13.1156 1.65625 13.875 1.65625H14.625C15.3844 1.65625 16 2.27186 16 3.03125V14.2812C16 15.0406 15.3844 15.6562 14.625 15.6562H13.875C13.1156 15.6562 12.5 15.0406 12.5 14.2812V3.03125ZM14 3.15625V14.1562H14.5V3.15625H14Z" fill="#292A2E"/>
</svg>
