<svg width="16" height="17" viewBox="0 0 16 17" fill="none" xmlns="http://www.w3.org/2000/svg">
<path fill-rule="evenodd" clip-rule="evenodd" d="M0 2.63574C0 1.87635 0.615608 1.26074 1.375 1.26074H2.875C3.63439 1.26074 4.25 1.87635 4.25 2.63574V13.8857C4.25 14.6451 3.63439 15.2607 2.875 15.2607H1.375C0.615609 15.2607 0 14.6451 0 13.8857V2.63574ZM1.5 2.76074V13.7607H2.75V2.76074H1.5ZM5.75 2.63574C5.75 1.87635 6.36561 1.26074 7.125 1.26074H8.875C9.63439 1.26074 10.25 1.87635 10.25 2.63574V13.8857C10.25 14.6451 9.63439 15.2607 8.875 15.2607H7.125C6.36561 15.2607 5.75 14.6451 5.75 13.8857V2.63574ZM7.25 2.76074V13.7607H8.75V2.76074H7.25ZM11.75 2.63574C11.75 1.87635 12.3656 1.26074 13.125 1.26074H14.625C15.3844 1.26074 16 1.87635 16 2.63574V13.8857C16 14.6451 15.3844 15.2607 14.625 15.2607H13.125C12.3656 15.2607 11.75 14.6451 11.75 13.8857V2.63574ZM13.25 2.76074V13.7607H14.5V2.76074H13.25Z" fill="#292A2E"/>
</svg>
