<svg width="16" height="17" viewBox="0 0 16 17" fill="none" xmlns="http://www.w3.org/2000/svg">
<path fill-rule="evenodd" clip-rule="evenodd" d="M0 2.42676C0 1.66737 0.615608 1.05176 1.375 1.05176H5.875C6.63439 1.05176 7.25 1.66737 7.25 2.42676V13.6768C7.25 14.4361 6.63439 15.0518 5.875 15.0518H1.375C0.615608 15.0518 0 14.4361 0 13.6768V2.42676ZM1.5 2.55176V13.5518H5.75V2.55176H1.5ZM8.75 2.42676C8.75 1.66737 9.36561 1.05176 10.125 1.05176H14.625C15.3844 1.05176 16 1.66737 16 2.42676V13.6768C16 14.4361 15.3844 15.0518 14.625 15.0518H10.125C9.36561 15.0518 8.75 14.4361 8.75 13.6768V2.42676ZM10.25 2.55176V13.5518H14.5V2.55176H10.25Z" fill="#292A2E"/>
</svg>
