<svg width="16" height="17" viewBox="0 0 16 17" fill="none" xmlns="http://www.w3.org/2000/svg">
<path fill-rule="evenodd" clip-rule="evenodd" d="M0 3.21777C0 2.45838 0.615608 1.84277 1.375 1.84277H9.125C9.88439 1.84277 10.5 2.45838 10.5 3.21777V14.4678C10.5 15.2272 9.88439 15.8428 9.125 15.8428H1.375C0.615608 15.8428 0 15.2272 0 14.4678V3.21777ZM1.5 3.34277V14.3428H9V3.34277H1.5ZM12 3.21777C12 2.45838 12.6156 1.84277 13.375 1.84277H14.625C15.3844 1.84277 16 2.45838 16 3.21777V14.4678C16 15.2272 15.3844 15.8428 14.625 15.8428H13.375C12.6156 15.8428 12 15.2272 12 14.4678V3.21777ZM13.5 3.34277V14.3428H14.5V3.34277H13.5Z" fill="#292A2E"/>
</svg>
