<svg width="16" height="17" viewBox="0 0 16 17" fill="none" xmlns="http://www.w3.org/2000/svg">
<path fill-rule="evenodd" clip-rule="evenodd" d="M16 2.82227C16 2.06287 15.3844 1.44727 14.625 1.44727H6.875C6.11561 1.44727 5.5 2.06287 5.5 2.82227V14.0723C5.5 14.8317 6.11561 15.4473 6.875 15.4473H14.625C15.3844 15.4473 16 14.8317 16 14.0723V2.82227ZM14.5 2.94727V13.9473H7V2.94727H14.5ZM4 2.82227C4 2.06287 3.38439 1.44727 2.625 1.44727H1.375C0.615608 1.44727 0 2.06287 0 2.82227V14.0723C0 14.8317 0.615608 15.4473 1.375 15.4473H2.625C3.38439 15.4473 4 14.8317 4 14.0723V2.82227ZM2.5 2.94727V13.9473H1.5V2.94727H2.5Z" fill="#292A2E"/>
</svg>
