<svg width="16" height="17" viewBox="0 0 16 17" fill="none" xmlns="http://www.w3.org/2000/svg">
<path fill-rule="evenodd" clip-rule="evenodd" d="M13 2.73828H3V1.23828H13V2.73828ZM1 6.23828C1 5.13371 1.89543 4.23828 3 4.23828H13C14.1046 4.23828 15 5.13371 15 6.23828V13.2383C15 14.3429 14.1046 15.2383 13 15.2383H3C1.89543 15.2383 1 14.3429 1 13.2383V6.23828ZM3 5.73828C2.72386 5.73828 2.5 5.96214 2.5 6.23828V13.2383C2.5 13.5144 2.72386 13.7383 3 13.7383H13C13.2761 13.7383 13.5 13.5144 13.5 13.2383V6.23828C13.5 5.96214 13.2761 5.73828 13 5.73828H3ZM11 8.73828H5V7.23828H11V8.73828Z" fill="#292A2E"/>
</svg>
