<svg width="16" height="17" viewBox="0 0 16 17" fill="none" xmlns="http://www.w3.org/2000/svg">
<path fill-rule="evenodd" clip-rule="evenodd" d="M3 2.9248C2.72386 2.9248 2.5 3.14866 2.5 3.4248V13.4248C2.5 13.7009 2.72386 13.9248 3 13.9248H13C13.2761 13.9248 13.5 13.7009 13.5 13.4248V10.4248H15V13.4248C15 14.5294 14.1046 15.4248 13 15.4248H3C1.89543 15.4248 1 14.5294 1 13.4248V3.4248C1 2.32024 1.89543 1.4248 3 1.4248H6V2.9248H3ZM10 1.4248H14.25C14.6642 1.4248 15 1.76059 15 2.1748V6.4248H13.5V3.98546L7.53033 9.95514L6.46967 8.89447L12.4393 2.9248H10V1.4248Z" fill="#292A2E"/>
</svg>
