<svg width="16" height="17" viewBox="0 0 16 17" fill="none" xmlns="http://www.w3.org/2000/svg">
<path fill-rule="evenodd" clip-rule="evenodd" d="M8.21967 2.85356C9.7552 1.31802 12.2448 1.31802 13.7803 2.85355C15.3159 4.38909 15.3159 6.87868 13.7803 8.41421L11.5303 10.6642L10.4697 9.60356L12.7197 7.35355C13.6694 6.40381 13.6694 4.86396 12.7197 3.91421C11.7699 2.96447 10.2301 2.96447 9.28033 3.91422L7.03033 6.16422L5.96967 5.10355L8.21967 2.85356ZM11.2803 6.41422L5.78033 11.9142L4.71967 10.8536L10.2197 5.35355L11.2803 6.41422ZM2.21967 8.85356L4.46967 6.60355L5.53033 7.66422L3.28033 9.91422C2.33058 10.864 2.33058 12.4038 3.28033 13.3536C4.23007 14.3033 5.76992 14.3033 6.71967 13.3536L8.96967 11.1036L10.0303 12.1642L7.78033 14.4142C6.24479 15.9497 3.7552 15.9497 2.21967 14.4142C0.684133 12.8787 0.684132 10.3891 2.21967 8.85356Z" fill="#292A2E"/>
</svg>
