<svg width="16" height="17" viewBox="0 0 16 17" fill="none" xmlns="http://www.w3.org/2000/svg">
<path fill-rule="evenodd" clip-rule="evenodd" d="M6 1.0293V4.0293H4.5V1.0293H6ZM8.21967 2.24897C9.7552 0.713434 12.2448 0.713432 13.7803 2.24897C15.3159 3.7845 15.3159 6.27409 13.7803 7.80963L13.0303 8.55963L11.9697 7.49897L12.7197 6.74897C13.6694 5.79922 13.6694 4.25937 12.7197 3.30963C11.7699 2.35988 10.2301 2.35988 9.28033 3.30963L8.53033 4.05963L7.46967 2.99897L8.21967 2.24897ZM1 4.5293H4V6.0293H1V4.5293ZM2.21967 8.24897L2.96967 7.49897L4.03033 8.55963L3.28033 9.30963C2.33058 10.2594 2.33058 11.7992 3.28033 12.749C4.23008 13.6987 5.76992 13.6987 6.71967 12.749L7.46967 11.999L8.53033 13.0596L7.78033 13.8096C6.2448 15.3452 3.7552 15.3452 2.21967 13.8096C0.684135 12.2741 0.684138 9.7845 2.21967 8.24897ZM15 11.5293H12V10.0293H15V11.5293ZM10 15.0293V12.0293H11.5V15.0293H10Z" fill="#292A2E"/>
</svg>
