<svg width="16" height="17" viewBox="0 0 16 17" fill="none" xmlns="http://www.w3.org/2000/svg">
<path fill-rule="evenodd" clip-rule="evenodd" d="M3 2.71582H8V1.21582H3C1.89543 1.21582 1 2.11125 1 3.21582V13.2158C1 14.3204 1.89543 15.2158 3 15.2158H8V13.7158H3C2.72386 13.7158 2.5 13.492 2.5 13.2158V3.21582C2.5 2.93968 2.72386 2.71582 3 2.71582ZM14.7803 7.68539L11.2803 4.18548L10.2197 5.24616L12.4393 7.46573H6V8.96573H12.4393L10.2197 11.1854L11.2803 12.2461L14.7803 8.74606C14.921 8.60541 15 8.41464 15 8.21573C15 8.01681 14.921 7.82605 14.7803 7.68539Z" fill="#292A2E"/>
</svg>
