<svg width="17" height="17" viewBox="0 0 17 17" fill="none" xmlns="http://www.w3.org/2000/svg">
<path fill-rule="evenodd" clip-rule="evenodd" d="M0 4.36133C0 3.94711 0.335786 3.61133 0.75 3.61133H1.25C1.52446 3.61133 1.777 3.76124 1.90842 4.00219L4.25 8.29508L6.59158 4.00219C6.723 3.76124 6.97554 3.61133 7.25 3.61133H7.75C8.16421 3.61133 8.5 3.94711 8.5 4.36133V13.6113H7V6.38591L4.90842 10.2205C4.777 10.4614 4.52446 10.6113 4.25 10.6113C3.97554 10.6113 3.723 10.4614 3.59158 10.2205L1.5 6.38591V13.6113H0V4.36133ZM12 3.61133H13.5V10.9325L14.9471 9.35453L16.0529 10.3681L13.3029 13.3681C13.1608 13.5231 12.9602 13.6113 12.75 13.6113C12.5398 13.6113 12.3392 13.5231 12.1971 13.3681L9.44713 10.3681L10.5529 9.35453L12 10.9332V3.61133Z" fill="#292A2E"/>
</svg>
