<svg width="16" height="16" viewBox="0 0 16 16" fill="none" xmlns="http://www.w3.org/2000/svg">
<path fill-rule="evenodd" clip-rule="evenodd" d="M1.78853 1.51955C1.89065 1.21335 2.17723 1.00684 2.5 1.00684H13.5C13.8228 1.00684 14.1093 1.21332 14.2115 1.51949L15.7127 6.01949C15.7382 6.09602 15.7513 6.17616 15.7513 6.25684C15.7513 7.48334 15.0357 8.54135 14 9.03838V13.0068C14 14.1114 13.1046 15.0068 12 15.0068H4C2.89543 15.0068 2 14.1114 2 13.0068V9.03818C0.964514 8.54107 0.249168 7.48318 0.249168 6.25684C0.249168 6.17618 0.262178 6.09606 0.287695 6.01955L1.78853 1.51955ZM3.5 9.33614V13.0068C3.5 13.283 3.72386 13.5068 4 13.5068H12C12.2761 13.5068 12.5 13.283 12.5 13.0068V9.33611C11.6353 9.28983 10.8651 8.88729 10.3338 8.27263C9.76829 8.92671 8.93248 9.34059 8 9.34059C7.06764 9.34059 6.23192 8.92681 5.66646 8.27287C5.13499 8.88749 4.36479 9.28996 3.5 9.33614ZM4.91625 6.25684C4.91625 6.26679 4.9163 6.27673 4.91639 6.28665C4.9005 7.14758 4.19764 7.84059 3.33292 7.84059C3.19518 7.84059 3.06259 7.82318 2.93678 7.79083C2.28776 7.62394 1.80039 7.05532 1.75296 6.36724L1.78978 6.25684H4.91625ZM6.41669 6.29447L6.42088 6.25684H9.57913L9.58331 6.29447C9.56332 7.15176 8.8621 7.84059 8 7.84059C7.1379 7.84059 6.43668 7.15176 6.41669 6.29447ZM9.41232 4.75684H6.58768L6.83789 2.50684H9.16212L9.41232 4.75684ZM11.0838 6.25684C11.0838 7.13152 11.7928 7.84059 12.6675 7.84059C12.8051 7.84059 12.9376 7.8232 13.0634 7.7909C13.7125 7.62411 14.2 7.05544 14.2475 6.36727L14.2106 6.25684H11.0838ZM13.7102 4.75684H10.9216L10.6714 2.50684H12.9596L13.7102 4.75684ZM5.32864 2.50684L5.07843 4.75684H2.29006L3.04048 2.50684H5.32864Z" fill="#292A2E"/>
</svg>
