<svg width="16" height="17" viewBox="0 0 16 17" fill="none" xmlns="http://www.w3.org/2000/svg">
<path fill-rule="evenodd" clip-rule="evenodd" d="M15 3.40234C15 2.29777 14.1046 1.40234 13 1.40234H3C1.89543 1.40234 1 2.29777 1 3.40234V13.4023C1 14.5069 1.89543 15.4023 3 15.4023H13C14.1046 15.4023 15 14.5069 15 13.4023V3.40234ZM13 2.90234C13.2761 2.90234 13.5 3.1262 13.5 3.40234V13.4023C13.5 13.6785 13.2761 13.9023 13 13.9023H3C2.72386 13.9023 2.5 13.6785 2.5 13.4023V3.40234C2.5 3.1262 2.72386 2.90234 3 2.90234H13ZM8 4.40234H4.75C4.33579 4.40234 4 4.73813 4 5.15234L4 8.40234H5.5L5.5 5.90234H8V4.40234ZM10.5002 10.9022V8.40222H12.0002L12.0002 11.6522C12.0002 11.8511 11.9212 12.0419 11.7805 12.1826C11.6399 12.3232 11.4491 12.4022 11.2502 12.4022H8.00018V10.9022H10.5002Z" fill="#292A2E"/>
</svg>
