<svg width="16" height="17" viewBox="0 0 16 17" fill="none" xmlns="http://www.w3.org/2000/svg">
<path fill-rule="evenodd" clip-rule="evenodd" d="M8 2.29785C4.41015 2.29785 1.5 5.208 1.5 8.79785C1.5 12.3877 4.41015 15.2979 8 15.2979C9.18518 15.2979 10.2942 14.9813 11.2495 14.4287L12.0005 15.7271C10.8231 16.4083 9.4559 16.7979 8 16.7979C3.58172 16.7979 0 13.2161 0 8.79785C0 4.37957 3.58172 0.797852 8 0.797852C12.4183 0.797852 16 4.37957 16 8.79785C16 9.63986 15.7208 10.5728 15.183 11.3109C14.6358 12.062 13.7816 12.655 12.6607 12.655C12.0844 12.655 11.5903 12.4782 11.199 12.1476C10.8956 11.8912 10.686 11.5698 10.5389 11.2401C9.38723 12.5736 7.52817 13.1442 6 12.262C4.2285 11.2392 3.92551 8.85509 4.96891 7.04786C6.01232 5.24063 8.2285 4.31098 10 5.33376C11.1202 5.9805 11.6593 7.20309 11.6325 8.43913C11.6315 8.48218 11.6299 8.52532 11.6276 8.56852C11.6283 9.25582 11.6658 9.96618 11.8539 10.4915C11.9453 10.7469 12.0551 10.9072 12.167 11.0017C12.2654 11.0848 12.4085 11.155 12.6607 11.155C13.197 11.155 13.6375 10.8849 13.9706 10.4276C14.3132 9.95745 14.5 9.3368 14.5 8.79785C14.5 5.208 11.5899 2.29785 8 2.29785ZM10.1329 8.40008C10.1483 7.6021 9.80456 6.95297 9.25 6.6328C8.39089 6.13679 7.01947 6.49619 6.26795 7.79786C5.51643 9.09953 5.89089 10.4669 6.75 10.9629C7.60911 11.4589 8.98053 11.0995 9.73205 9.79786C9.97552 9.37616 10.1028 8.93175 10.1285 8.51039L10.1329 8.40008Z" fill="#292A2E"/>
</svg>
