<svg width="16" height="17" viewBox="0 0 16 17" fill="none" xmlns="http://www.w3.org/2000/svg">
<path fill-rule="evenodd" clip-rule="evenodd" d="M3.18934 3.83892L1.46967 2.11925L2.53033 1.05859L4.25 2.77826L5.96967 1.05859L7.03033 2.11925L5.31066 3.83892L7.03033 5.55859L5.96967 6.61925L4.25 4.89958L2.53033 6.61925L1.46967 5.55859L3.18934 3.83892ZM8.5 3.08892H9.75001C11.2688 3.08892 12.5 4.32014 12.5 5.83893L12.5 11.217C13.3739 11.5258 14 12.3593 14 13.3389C14 14.5816 12.9926 15.5889 11.75 15.5889C10.5074 15.5889 9.5 14.5816 9.5 13.3389C9.5 12.3593 10.1261 11.5258 11 11.217L11 5.83892C11 5.14857 10.4404 4.58892 9.75001 4.58892H8.5V3.08892ZM3.5 11.217L3.50001 8.08892L5.00001 8.08892L5 11.217C5.8739 11.5258 6.5 12.3593 6.5 13.3389C6.5 14.5816 5.49264 15.5889 4.25 15.5889C3.00736 15.5889 2 14.5816 2 13.3389C2 12.3593 2.62611 11.5258 3.5 11.217ZM4.25 12.5889C3.83579 12.5889 3.5 12.9247 3.5 13.3389C3.5 13.7531 3.83579 14.0889 4.25 14.0889C4.66422 14.0889 5 13.7531 5 13.3389C5 12.9247 4.66422 12.5889 4.25 12.5889ZM11.75 12.5889C11.3358 12.5889 11 12.9247 11 13.3389C11 13.7531 11.3358 14.0889 11.75 14.0889C12.1642 14.0889 12.5 13.7531 12.5 13.3389C12.5 12.9247 12.1642 12.5889 11.75 12.5889Z" fill="#292A2E"/>
</svg>
