<svg width="16" height="17" viewBox="0 0 16 17" fill="none" xmlns="http://www.w3.org/2000/svg">
<path fill-rule="evenodd" clip-rule="evenodd" d="M6.17384 1.75415L7.32617 2.71443L3.99283 6.71443C3.85034 6.88542 3.63925 6.98429 3.41667 6.98429C3.19408 6.98429 2.983 6.88542 2.8405 6.71443L1.17384 4.71443L2.32617 3.75415L3.41667 5.06275L6.17384 1.75415ZM8.5 3.48429H9.75C11.2688 3.48429 12.5 4.71551 12.5 6.23429L12.5 11.6123C13.3739 11.9212 14 12.7546 14 13.7343C14 14.9769 12.9926 15.9843 11.75 15.9843C10.5074 15.9843 9.5 14.9769 9.5 13.7343C9.5 12.7546 10.1261 11.9212 11 11.6123L11 6.23429C11 5.54393 10.4404 4.98429 9.75 4.98429H8.5V3.48429ZM3.5 11.6123L3.5 8.48429L5 8.48429L5 11.6123C5.8739 11.9212 6.5 12.7546 6.5 13.7343C6.5 14.9769 5.49264 15.9843 4.25 15.9843C3.00736 15.9843 2 14.9769 2 13.7343C2 12.7546 2.62611 11.9212 3.5 11.6123ZM4.25 12.9843C3.83579 12.9843 3.5 13.3201 3.5 13.7343C3.5 14.1485 3.83579 14.4843 4.25 14.4843C4.66422 14.4843 5 14.1485 5 13.7343C5 13.3201 4.66422 12.9843 4.25 12.9843ZM11.75 12.9843C11.3358 12.9843 11 13.3201 11 13.7343C11 14.1485 11.3358 14.4843 11.75 14.4843C12.1642 14.4843 12.5 14.1485 12.5 13.7343C12.5 13.3201 12.1642 12.9843 11.75 12.9843Z" fill="#292A2E"/>
</svg>
