<svg width="16" height="17" viewBox="0 0 16 17" fill="none" xmlns="http://www.w3.org/2000/svg">
<path fill-rule="evenodd" clip-rule="evenodd" d="M1 3.1709C1 2.06633 1.89543 1.1709 3 1.1709H13C14.1046 1.1709 15 2.06633 15 3.1709V9.9209C15 10.44 14.7938 10.9378 14.4268 11.3048L11.1339 14.5977C10.7669 14.9647 10.2691 15.1709 9.75 15.1709H3C1.89543 15.1709 1 14.2755 1 13.1709V3.1709ZM3 2.6709C2.72386 2.6709 2.5 2.89476 2.5 3.1709V13.1709C2.5 13.447 2.72386 13.6709 3 13.6709H9V9.9209C9 9.50668 9.33579 9.1709 9.75 9.1709H13.5V3.1709C13.5 2.89476 13.2761 2.6709 13 2.6709H3ZM12.9393 10.6709H10.5V13.1102L12.9393 10.6709ZM11 6.1709H4V4.6709H11V6.1709ZM7 9.6709H4V8.1709H7V9.6709Z" fill="#292A2E"/>
</svg>
