<svg width="16" height="17" viewBox="0 0 16 17" fill="none" xmlns="http://www.w3.org/2000/svg">
<path d="M13 10.7799L11.5 9.27994V5.96191C11.5 4.02892 9.933 2.46191 8 2.46191C7.07979 2.46191 6.24253 2.81704 5.61778 3.39771L4.55662 2.33655C5.45324 1.48466 6.66558 0.961914 8 0.961914C10.7614 0.961914 13 3.20049 13 5.96191V10.7799Z" fill="#292A2E"/>
<path fill-rule="evenodd" clip-rule="evenodd" d="M3 7.1439L4.5 8.6439V9.59769C4.5 9.8129 4.43952 10.0238 4.32546 10.2063L2.60319 12.9619H8.81802L10.9448 15.0887C10.4265 16.1954 9.30278 16.9619 8 16.9619C6.46321 16.9619 5.17555 15.8953 4.83697 14.4619H2.37766C1.29768 14.4619 0.639273 13.274 1.21166 12.3582L3 9.49682V7.1439ZM6.41841 14.4619C6.69928 15.0532 7.3019 15.4619 8 15.4619C8.6981 15.4619 9.30073 15.0532 9.58159 14.4619H6.41841Z" fill="#292A2E"/>
<path d="M0.469673 2.4923L14.4697 16.4923L15.5303 15.4316L1.53033 1.43164L0.469673 2.4923Z" fill="#292A2E"/>
</svg>
