<svg width="16" height="17" viewBox="0 0 16 17" fill="none" xmlns="http://www.w3.org/2000/svg">
<path fill-rule="evenodd" clip-rule="evenodd" d="M3 5.56641C3 2.80498 5.23858 0.566406 8 0.566406C10.7614 0.566406 13 2.80498 13 5.56641V9.10131L14.7883 11.9627C15.3607 12.8785 14.7023 14.0664 13.6223 14.0664H11.163C10.8245 15.4998 9.53679 16.5664 8 16.5664C6.46321 16.5664 5.17555 15.4998 4.83697 14.0664H2.37766C1.29768 14.0664 0.639273 12.8785 1.21166 11.9627L3 9.10131V5.56641ZM6.41841 14.0664C6.69928 14.6576 7.3019 15.0664 8 15.0664C8.6981 15.0664 9.30073 14.6576 9.58159 14.0664H6.41841ZM8 2.06641C6.06701 2.06641 4.5 3.63341 4.5 5.56641V9.20218C4.5 9.41739 4.43952 9.62827 4.32546 9.81077L2.60319 12.5664H13.3968L11.6745 9.81077C11.5605 9.62827 11.5 9.41739 11.5 9.20218V5.56641C11.5 3.63341 9.933 2.06641 8 2.06641Z" fill="#292A2E"/>
</svg>
