<svg width="16" height="17" viewBox="0 0 16 17" fill="none" xmlns="http://www.w3.org/2000/svg">
<path fill-rule="evenodd" clip-rule="evenodd" d="M13.4223 0.3775C13.6753 0.43722 13.8793 0.623672 13.9615 0.870266L14.3429 2.01451L15.4872 2.39592C15.7338 2.47812 15.9202 2.68214 15.9799 2.93512C16.0397 3.1881 15.9641 3.45397 15.7803 3.63777L13.7803 5.63777C13.6397 5.77842 13.4489 5.85744 13.25 5.85744H11.5607L8.03033 9.38777L6.96967 8.32711L10.5 4.79678V3.10744C10.5 2.90852 10.579 2.71776 10.7197 2.57711L12.7197 0.577107C12.9035 0.393306 13.1693 0.31778 13.4223 0.3775ZM12 4.35744H12.9393L13.8616 3.4352L13.5128 3.31895C13.2889 3.2443 13.1131 3.06856 13.0385 2.84461L12.9222 2.49586L12 3.4181V4.35744ZM8 1.85744C4.41015 1.85744 1.5 4.76759 1.5 8.35744C1.5 11.9473 4.41015 14.8574 8 14.8574C11.5899 14.8574 14.5 11.9473 14.5 8.35744H16C16 12.7757 12.4183 16.3574 8 16.3574C3.58172 16.3574 0 12.7757 0 8.35744C0 3.93916 3.58172 0.357437 8 0.357437V1.85744ZM8 5.35744C6.34315 5.35744 5 6.70058 5 8.35744C5 10.0143 6.34315 11.3574 8 11.3574C9.65685 11.3574 11 10.0143 11 8.35744H12.5C12.5 10.8427 10.4853 12.8574 8 12.8574C5.51472 12.8574 3.5 10.8427 3.5 8.35744C3.5 5.87216 5.51472 3.85744 8 3.85744V5.35744Z" fill="#292A2E"/>
</svg>
