<svg width="16" height="17" viewBox="0 0 16 17" fill="none" xmlns="http://www.w3.org/2000/svg">
<path fill-rule="evenodd" clip-rule="evenodd" d="M0 3.50293C0 3.08872 0.335786 2.75293 0.75 2.75293H4.25C4.58486 2.75293 4.87915 2.97491 4.97114 3.29689L5.79226 6.1708C5.98256 6.83686 5.76207 7.55248 5.22992 7.99595L3.28978 9.61273C4.2648 11.1635 5.58942 12.4881 7.1402 13.4632L8.75698 11.523C9.20045 10.9909 9.91607 10.7704 10.5821 10.9607L13.456 11.7818C13.778 11.8738 14 12.1681 14 12.5029V16.0029C14 16.4171 13.6642 16.7529 13.25 16.7529C10.984 16.7529 8.82808 16.1436 6.94134 15.0888C4.73808 13.8571 2.89588 12.0149 1.66414 9.81158C0.609367 7.92485 0 5.76897 0 3.50293ZM8.48445 14.1931C9.73414 14.7711 11.0897 15.1324 12.5 15.2276V13.0687L10.17 12.403C10.0749 12.3758 9.97267 12.4073 9.90931 12.4833L8.48445 14.1931ZM2.5598 8.26848L4.26964 6.84362C4.34566 6.78026 4.37716 6.67803 4.34997 6.58288L3.68427 4.25293H1.5253C1.62056 5.66319 1.98186 7.01879 2.5598 8.26848Z" fill="#292A2E"/>
<path d="M16 1.75293C16 2.30521 15.5523 2.75293 15 2.75293C14.4477 2.75293 14 2.30521 14 1.75293C14 1.20064 14.4477 0.75293 15 0.75293C15.5523 0.75293 16 1.20064 16 1.75293Z" fill="#292A2E"/>
<path d="M13.5 4.25293C13.5 4.80521 13.0523 5.25293 12.5 5.25293C11.9477 5.25293 11.5 4.80521 11.5 4.25293C11.5 3.70064 11.9477 3.25293 12.5 3.25293C13.0523 3.25293 13.5 3.70064 13.5 4.25293Z" fill="#292A2E"/>
<path d="M11 6.75293C11 7.30521 10.5523 7.75293 10 7.75293C9.44772 7.75293 9 7.30521 9 6.75293C9 6.20064 9.44772 5.75293 10 5.75293C10.5523 5.75293 11 6.20064 11 6.75293Z" fill="#292A2E"/>
</svg>
