<svg width="16" height="17" viewBox="0 0 16 17" fill="none" xmlns="http://www.w3.org/2000/svg">
<path fill-rule="evenodd" clip-rule="evenodd" d="M12.0356 3.05218C9.48405 1.02651 5.76285 1.1932 3.40381 3.55224C0.865398 6.09065 0.865398 10.2062 3.40381 12.7446C4.67316 14.014 6.33534 14.6484 8 14.6484V16.1484C5.95378 16.1484 3.9051 15.3672 2.34315 13.8053C-0.781049 10.6811 -0.781049 5.61578 2.34315 2.49158C5.46734 -0.632611 10.5327 -0.632611 13.6569 2.49158L14.1872 3.02191L8.28033 8.92877L7.21967 7.86811L9.52416 5.56362C8.37373 4.88417 6.86713 5.03867 5.87868 6.02712C4.70711 7.19869 4.70711 9.09818 5.87868 10.2698C6.46461 10.8557 7.23107 11.1484 8 11.1484V12.6484C6.84951 12.6484 5.69655 12.209 4.81802 11.3304C3.06066 9.57306 3.06066 6.72382 4.81802 4.96646C6.39469 3.38979 8.85025 3.22768 10.6077 4.48012L12.0356 3.05218Z" fill="#292A2E"/>
<path fill-rule="evenodd" clip-rule="evenodd" d="M14.5802 5.01016C14.9704 4.8711 15.3994 5.07467 15.5385 5.46484L15.5471 5.48929C15.6849 5.87992 15.48 6.30828 15.0893 6.44607C14.6987 6.58386 14.2703 6.37889 14.1326 5.98827L14.1255 5.96843C13.9865 5.57825 14.19 5.14922 14.5802 5.01016ZM11.7823 7.58341C12.1961 7.60377 12.5149 7.95565 12.4946 8.36937L12.4938 8.38398L12.493 8.39859C12.47 8.81217 12.1161 9.12879 11.7026 9.10579C11.289 9.08279 10.9724 8.72888 10.9954 8.3153L10.9959 8.30548L10.9964 8.29565C11.0167 7.88193 11.3686 7.56306 11.7823 7.58341ZM15.2787 7.76705C15.6924 7.78807 16.0107 8.14046 15.9897 8.55414L15.989 8.56716L15.9883 8.58017C15.966 8.99378 15.6126 9.31097 15.199 9.28863C14.7854 9.26629 14.4682 8.91288 14.4905 8.49927L14.4911 8.48865L14.4916 8.47803C14.5127 8.06435 14.8651 7.74604 15.2787 7.76705ZM11.074 10.4235C11.3522 10.7304 11.3288 11.2047 11.0219 11.4828C11.0147 11.4894 11.0075 11.4959 11.0002 11.5024C10.6915 11.7785 10.2174 11.7522 9.94121 11.4434C9.66504 11.1347 9.69143 10.6606 10.0001 10.3844L10.0146 10.3714C10.3216 10.0932 10.7959 10.1165 11.074 10.4235ZM14.8725 10.5826C15.2466 10.7604 15.4057 11.2079 15.2278 11.582L15.2167 11.6054C15.0376 11.9789 14.5896 12.1365 14.2161 11.9574C13.8426 11.7783 13.685 11.3304 13.8641 10.9569L13.8732 10.9379C14.051 10.5638 14.4985 10.4047 14.8725 10.5826ZM13.4165 13.0256C13.6941 13.333 13.6701 13.8073 13.3627 14.0849L13.3434 14.1023C13.0351 14.379 12.561 14.3534 12.2843 14.0451C12.0076 13.7368 12.0332 13.2626 12.3415 12.986L12.3572 12.9718C12.6646 12.6942 13.1388 12.7183 13.4165 13.0256ZM11.1383 14.7287C11.2774 15.1188 11.0738 15.5479 10.6836 15.6869L10.6592 15.6956C10.2686 15.8334 9.84019 15.6284 9.7024 15.2378C9.56462 14.8472 9.76958 14.4188 10.1602 14.281L10.18 14.274C10.5702 14.1349 10.9992 14.3385 11.1383 14.7287Z" fill="#292A2E"/>
</svg>
