<svg width="16" height="17" viewBox="0 0 16 17" fill="none" xmlns="http://www.w3.org/2000/svg">
<path fill-rule="evenodd" clip-rule="evenodd" d="M1 3.54395C1 2.43938 1.89543 1.54395 3 1.54395H13C14.1046 1.54395 15 2.43938 15 3.54395V13.5439C15 14.6485 14.1046 15.5439 13 15.5439H3C1.89543 15.5439 1 14.6485 1 13.5439V3.54395ZM3 3.04395C2.72386 3.04395 2.5 3.2678 2.5 3.54395V13.5439C2.5 13.8201 2.72386 14.0439 3 14.0439H13C13.2761 14.0439 13.5 13.8201 13.5 13.5439V3.54395C13.5 3.2678 13.2761 3.04395 13 3.04395H3ZM12 6.54395H4V5.04395H12V6.54395ZM10 10.0439H4V8.54395H10V10.0439Z" fill="#292A2E"/>
</svg>
