<svg width="16" height="17" viewBox="0 0 16 17" fill="none" xmlns="http://www.w3.org/2000/svg">
<path fill-rule="evenodd" clip-rule="evenodd" d="M1 3.93945C1 2.83488 1.89543 1.93945 3 1.93945H11C12.1046 1.93945 13 2.83488 13 3.93945V11.9395C13 13.044 12.1046 13.9395 11 13.9395H3C1.89543 13.9395 1 13.044 1 11.9395V3.93945ZM3 3.43945C2.72386 3.43945 2.5 3.66331 2.5 3.93945V11.9395C2.5 12.2156 2.72386 12.4395 3 12.4395H11C11.2761 12.4395 11.5 12.2156 11.5 11.9395V3.93945C11.5 3.66331 11.2761 3.43945 11 3.43945H3ZM4 4.93945H10V6.43945H4V4.93945ZM14.5 13.6895L14.5 6.93945H16L16 13.6895C16 15.4844 14.5449 16.9395 12.75 16.9395H6V15.4395H12.75C13.7165 15.4395 14.5 14.656 14.5 13.6895ZM4 7.93945H8.5V9.43945H4V7.93945Z" fill="#292A2E"/>
</svg>
