<svg width="16" height="17" viewBox="0 0 16 17" fill="none" xmlns="http://www.w3.org/2000/svg">
<path d="M14.5 3.33496C14.5 3.05882 14.2761 2.83496 14 2.83496H8V13.835H14C14.2761 13.835 14.5 13.6111 14.5 13.335V3.33496ZM5 10.335V11.835H3V10.335H5ZM5 7.33496V8.83496H3V7.33496H5ZM5 4.33496V5.83496H3V4.33496H5ZM1.5 13.335C1.5 13.6111 1.72386 13.835 2 13.835H6.5V2.83496H2C1.72386 2.83496 1.5 3.05882 1.5 3.33496V13.335ZM16 13.335C16 14.4395 15.1046 15.335 14 15.335H2C0.895431 15.335 1.61064e-07 14.4395 0 13.335V3.33496C1.00667e-08 2.23039 0.895431 1.33496 2 1.33496H14C15.1046 1.33496 16 2.23039 16 3.33496V13.335Z" fill="#292A2E"/>
</svg>
