<svg width="16" height="17" viewBox="0 0 16 17" fill="none" xmlns="http://www.w3.org/2000/svg">
<path d="M14.5 3.73047C14.5 3.45433 14.2761 3.23047 14 3.23047H9.5V14.2305H14C14.2761 14.2305 14.5 14.0066 14.5 13.7305V3.73047ZM13 10.7305V12.2305H11V10.7305H13ZM13 7.73047V9.23047H11V7.73047H13ZM13 4.73047V6.23047H11V4.73047H13ZM1.5 13.7305C1.5 14.0066 1.72386 14.2305 2 14.2305H8V3.23047H2C1.72386 3.23047 1.5 3.45433 1.5 3.73047V13.7305ZM16 13.7305C16 14.835 15.1046 15.7305 14 15.7305H2C0.89543 15.7305 1.61064e-07 14.835 0 13.7305V3.73047C1.00667e-08 2.6259 0.895431 1.73047 2 1.73047H14C15.1046 1.73047 16 2.6259 16 3.73047V13.7305Z" fill="#292A2E"/>
</svg>
