<svg width="16" height="17" viewBox="0 0 16 17" fill="none" xmlns="http://www.w3.org/2000/svg">
<path fill-rule="evenodd" clip-rule="evenodd" d="M9.00016 4.62598C9.00016 3.52141 9.89559 2.62598 11.0002 2.62598C12.1047 2.62598 13.0002 3.52141 13.0002 4.62598C13.0002 5.73055 12.1047 6.62598 11.0002 6.62598C9.89559 6.62598 9.00016 5.73055 9.00016 4.62598ZM11.0002 1.12598C9.06716 1.12598 7.50016 2.69298 7.50016 4.62598C7.50016 6.55897 9.06716 8.12598 11.0002 8.12598C12.9332 8.12598 14.5002 6.55897 14.5002 4.62598C14.5002 2.69298 12.9332 1.12598 11.0002 1.12598ZM3.00016 5.62598C3.00016 5.07369 3.44788 4.62598 4.00016 4.62598C4.55245 4.62598 5.00016 5.07369 5.00016 5.62598C5.00016 6.17826 4.55245 6.62598 4.00016 6.62598C3.44788 6.62598 3.00016 6.17826 3.00016 5.62598ZM4.00016 3.12598C2.61945 3.12598 1.50017 4.24526 1.50017 5.62598C1.50017 7.00669 2.61945 8.12598 4.00016 8.12598C5.38088 8.12598 6.50016 7.00669 6.50016 5.62598C6.50016 4.24526 5.38088 3.12598 4.00016 3.12598ZM2.62525 9.12598C1.17543 9.12598 0.000192406 10.3014 0.000244142 11.7511L0.000278117 13.126H1.50028L1.50024 11.7511C1.50022 11.1297 2.00395 10.626 2.62525 10.626H5.00016V9.12598H2.62525ZM6.00016 12.626C6.00016 10.693 7.56717 9.12598 9.50016 9.12598H12.5002C14.4332 9.12598 16.0002 10.693 16.0002 12.626V14.126H14.5002V12.626C14.5002 11.5214 13.6047 10.626 12.5002 10.626H9.50016C8.39559 10.626 7.50016 11.5214 7.50016 12.626V14.126H6.00016V12.626Z" fill="#292A2E"/>
</svg>
