<svg width="16" height="17" viewBox="0 0 16 17" fill="none" xmlns="http://www.w3.org/2000/svg">
<path fill-rule="evenodd" clip-rule="evenodd" d="M5 1.60352C3.61929 1.60352 2.5 2.7228 2.5 4.10352C2.5 5.48423 3.61929 6.60352 5 6.60352C6.38071 6.60352 7.5 5.48423 7.5 4.10352C7.5 2.7228 6.38071 1.60352 5 1.60352ZM1 4.10352C1 1.89438 2.79086 0.103516 5 0.103516C7.20914 0.103516 9 1.89438 9 4.10352C9 6.31265 7.20914 8.10352 5 8.10352C2.79086 8.10352 1 6.31265 1 4.10352ZM12.2803 4.07319L15.7803 7.57319C16.0732 7.86608 16.0732 8.34095 15.7803 8.63385L12.2803 12.1338L11.2197 11.0732L13.4393 8.85352H9V7.35352H13.4393L11.2197 5.13385L12.2803 4.07319ZM3.75 10.6035C2.50736 10.6035 1.5 11.6109 1.5 12.8535V15.1035H0V12.8535C0 10.7824 1.67893 9.10352 3.75 9.10352H6.25C8.32107 9.10352 10 10.7824 10 12.8535V15.1035H8.5V12.8535C8.5 11.6109 7.49264 10.6035 6.25 10.6035H3.75Z" fill="#292A2E"/>
</svg>
