<svg width="16" height="17" viewBox="0 0 16 17" fill="none" xmlns="http://www.w3.org/2000/svg">
<path fill-rule="evenodd" clip-rule="evenodd" d="M8 2.20801C4.41015 2.20801 1.5 5.11816 1.5 8.70801C1.5 10.7204 2.4143 12.5199 3.85214 13.7129C4.177 12.5561 5.23945 11.708 6.5 11.708H9.5C10.7605 11.708 11.823 12.5561 12.1479 13.7129C13.5857 12.5199 14.5 10.7204 14.5 8.70801C14.5 5.11816 11.5899 2.20801 8 2.20801ZM10.75 14.5995V14.458C10.75 13.7677 10.1904 13.208 9.5 13.208H6.5C5.80964 13.208 5.25 13.7677 5.25 14.458V14.5995C5.27017 14.609 5.2904 14.6183 5.31068 14.6275C6.12929 15.0001 7.03935 15.208 8 15.208C8.96065 15.208 9.87071 15.0001 10.6893 14.6275C10.7096 14.6183 10.7298 14.609 10.75 14.5995ZM0 8.70801C0 4.28973 3.58172 0.708008 8 0.708008C12.4183 0.708008 16 4.28973 16 8.70801C16 11.7267 14.3277 14.3538 11.8626 15.7153C11.6828 15.8146 11.4987 15.9072 11.3107 15.9928C10.3009 16.4524 9.17926 16.708 8 16.708C6.82074 16.708 5.69914 16.4524 4.68932 15.9928C4.50132 15.9072 4.31723 15.8146 4.13741 15.7153C1.67228 14.3538 0 11.7267 0 8.70801ZM8 5.20801C6.89543 5.20801 6 6.10344 6 7.20801C6 8.31258 6.89543 9.20801 8 9.20801C9.10457 9.20801 10 8.31258 10 7.20801C10 6.10344 9.10457 5.20801 8 5.20801ZM4.5 7.20801C4.5 5.27501 6.067 3.70801 8 3.70801C9.933 3.70801 11.5 5.27501 11.5 7.20801C11.5 9.141 9.933 10.708 8 10.708C6.067 10.708 4.5 9.141 4.5 7.20801Z" fill="#292A2E"/>
</svg>
