<svg width="16" height="17" viewBox="0 0 16 17" fill="none" xmlns="http://www.w3.org/2000/svg">
<path fill-rule="evenodd" clip-rule="evenodd" d="M5 1.8125C3.61929 1.8125 2.5 2.93179 2.5 4.3125C2.5 5.69321 3.61929 6.8125 5 6.8125C6.38071 6.8125 7.5 5.69321 7.5 4.3125C7.5 2.93179 6.38071 1.8125 5 1.8125ZM1 4.3125C1 2.10336 2.79086 0.3125 5 0.3125C7.20914 0.3125 9 2.10336 9 4.3125C9 6.52164 7.20914 8.3125 5 8.3125C2.79086 8.3125 1 6.52164 1 4.3125ZM15.8765 6.34283L11.8765 10.3428C11.5875 10.6318 11.1204 10.6362 10.826 10.3527L8.97981 8.57496L10.0203 7.49448L11.3363 8.76175L14.8158 5.28217L15.8765 6.34283ZM3.75 10.8125C2.50736 10.8125 1.5 11.8199 1.5 13.0625V15.3125H0V13.0625C0 10.9914 1.67893 9.3125 3.75 9.3125H6.27027C8.34134 9.3125 10.0203 10.9914 10.0203 13.0625V15.3125H8.52027V13.0625C8.52027 11.8199 7.51291 10.8125 6.27027 10.8125H3.75Z" fill="#292A2E"/>
</svg>
