<svg width="16" height="17" viewBox="0 0 16 17" fill="none" xmlns="http://www.w3.org/2000/svg">
<path fill-rule="evenodd" clip-rule="evenodd" d="M8 2.02148C6.61929 2.02148 5.5 3.14077 5.5 4.52148C5.5 5.9022 6.61929 7.02148 8 7.02148C9.38071 7.02148 10.5 5.9022 10.5 4.52148C10.5 3.14077 9.38071 2.02148 8 2.02148ZM4 4.52148C4 2.31235 5.79086 0.521484 8 0.521484C10.2091 0.521484 12 2.31235 12 4.52148C12 6.73062 10.2091 8.52148 8 8.52148C5.79086 8.52148 4 6.73062 4 4.52148ZM2 13.5215C2 11.4504 3.67893 9.77148 5.75 9.77148H10.25C12.3211 9.77148 14 11.4504 14 13.5215V15.5215H12.5V13.5215C12.5 12.2788 11.4926 11.2715 10.25 11.2715H5.75C4.50736 11.2715 3.5 12.2788 3.5 13.5215V15.5215H2V13.5215Z" fill="#292A2E"/>
</svg>
