<svg width="16" height="17" viewBox="0 0 16 17" fill="none" xmlns="http://www.w3.org/2000/svg">
<path fill-rule="evenodd" clip-rule="evenodd" d="M6 1.79028C4.61929 1.79028 3.5 2.90957 3.5 4.29028C3.5 5.671 4.61929 6.79028 6 6.79028C7.38071 6.79028 8.5 5.671 8.5 4.29028C8.5 2.90957 7.38071 1.79028 6 1.79028ZM2 4.29028C2 2.08114 3.79086 0.290283 6 0.290283C8.20914 0.290283 10 2.08114 10 4.29028C10 6.49942 8.20914 8.29028 6 8.29028C3.79086 8.29028 2 6.49942 2 4.29028ZM13.5 8.79028V3.79028H15V8.79028H13.5ZM4.75 10.7903C3.50736 10.7903 2.5 11.7976 2.5 13.0403V15.2903H1V13.0403C1 10.9692 2.67893 9.29028 4.75 9.29028H7.25C9.32107 9.29028 11 10.9692 11 13.0403V15.2903H9.5V13.0403C9.5 11.7976 8.49264 10.7903 7.25 10.7903H4.75Z" fill="#292A2E"/>
<path d="M15.25 11.2903C15.25 11.8426 14.8023 12.2903 14.25 12.2903C13.6977 12.2903 13.25 11.8426 13.25 11.2903C13.25 10.738 13.6977 10.2903 14.25 10.2903C14.8023 10.2903 15.25 10.738 15.25 11.2903Z" fill="#292A2E"/>
</svg>
