<svg width="16" height="17" viewBox="0 0 16 17" fill="none" xmlns="http://www.w3.org/2000/svg">
<path fill-rule="evenodd" clip-rule="evenodd" d="M5 2.41699C3.61929 2.41699 2.5 3.53628 2.5 4.91699C2.5 6.2977 3.61929 7.41699 5 7.41699C6.38071 7.41699 7.5 6.2977 7.5 4.91699C7.5 3.53628 6.38071 2.41699 5 2.41699ZM1 4.91699C1 2.70785 2.79086 0.916992 5 0.916992C7.20914 0.916992 9 2.70785 9 4.91699C9 7.12613 7.20914 8.91699 5 8.91699C2.79086 8.91699 1 7.12613 1 4.91699ZM12.25 9.66699V11.917H13.75V9.66699H16V8.16699H13.75V5.91699H12.25V8.16699H10V9.66699H12.25ZM3.75 11.417C2.50736 11.417 1.5 12.4244 1.5 13.667V15.917H0V13.667C0 11.5959 1.67893 9.91699 3.75 9.91699H6.25C8.32107 9.91699 10 11.5959 10 13.667V15.917H8.5V13.667C8.5 12.4244 7.49264 11.417 6.25 11.417H3.75Z" fill="#292A2E"/>
</svg>
