<svg width="16" height="17" viewBox="0 0 16 17" fill="none" xmlns="http://www.w3.org/2000/svg">
<path fill-rule="evenodd" clip-rule="evenodd" d="M5 1.99902C3.61929 1.99902 2.5 3.11831 2.5 4.49902C2.5 5.87974 3.61929 6.99902 5 6.99902C6.38071 6.99902 7.5 5.87974 7.5 4.49902C7.5 3.11831 6.38071 1.99902 5 1.99902ZM1 4.49902C1 2.28988 2.79086 0.499023 5 0.499023C7.20914 0.499023 9 2.28988 9 4.49902C9 6.70816 7.20914 8.49902 5 8.49902C2.79086 8.49902 1 6.70816 1 4.49902ZM16 9.24902H10V7.74902H16V9.24902ZM3.75 10.999C2.50736 10.999 1.5 12.0064 1.5 13.249V15.499H0V13.249C0 11.178 1.67893 9.49902 3.75 9.49902H6.25C8.32107 9.49902 10 11.178 10 13.249V15.499H8.5V13.249C8.5 12.0064 7.49264 10.999 6.25 10.999H3.75Z" fill="#292A2E"/>
</svg>
