<svg width="16" height="17" viewBox="0 0 16 17" fill="none" xmlns="http://www.w3.org/2000/svg">
<path fill-rule="evenodd" clip-rule="evenodd" d="M1.5 3.68579V5.18579H3V3.68579H4.5V2.18579H3V0.685791H1.5V2.18579H0V3.68579H1.5ZM8 1.68579C8.30931 1.68579 8.58689 1.87568 8.699 2.16396L10.3294 6.35639L14.5218 7.98679C14.8101 8.0989 15 8.37648 15 8.68579C15 8.9951 14.8101 9.27269 14.5218 9.38479L10.3294 11.0152L8.699 15.2076C8.58689 15.4959 8.30931 15.6858 8 15.6858C7.69069 15.6858 7.41311 15.4959 7.301 15.2076L5.6706 11.0152L1.47817 9.38479C1.18989 9.27269 1 8.9951 1 8.68579C1 8.37648 1.18989 8.0989 1.47817 7.98679L5.6706 6.35639L7.301 2.16396C7.41311 1.87568 7.69069 1.68579 8 1.68579ZM8 4.50506L6.949 7.20763C6.87279 7.4036 6.71781 7.55858 6.52183 7.63479L3.81927 8.68579L6.52183 9.73679C6.71781 9.813 6.87279 9.96798 6.949 10.164L8 12.8665L9.051 10.164C9.12721 9.96798 9.28219 9.813 9.47817 9.73679L12.1807 8.68579L9.47817 7.63479C9.28219 7.55858 9.12721 7.4036 9.051 7.20763L8 4.50506ZM13 15.1858V16.6858H14.5V15.1858H16V13.6858H14.5V12.1858H13V13.6858H11.5V15.1858H13Z" fill="#292A2E"/>
</svg>
