<svg width="16" height="17" viewBox="0 0 16 17" fill="none" xmlns="http://www.w3.org/2000/svg">
<path fill-rule="evenodd" clip-rule="evenodd" d="M4.90856 2.97656C3.57823 2.97656 2.49979 4.05501 2.49979 5.38534C2.49979 6.33663 3.05116 7.16057 3.85514 7.55235L3.19805 8.90077C1.8981 8.2673 0.999786 6.93194 0.999786 5.38534C0.999786 3.22658 2.7498 1.47656 4.90856 1.47656C6.45516 1.47656 7.79052 2.37488 8.424 3.67483L7.07558 4.33192C6.68379 3.52794 5.85985 2.97656 4.90856 2.97656ZM4.71967 5.19646C4.92529 4.99084 5.23123 4.92261 5.50473 5.02138L14.5047 8.27138C14.7982 8.37736 14.9954 8.654 14.9999 8.96602C15.0044 9.27803 14.8152 9.56022 14.5249 9.6746L10.7033 11.1801L9.19781 15.0017C9.08343 15.292 8.80124 15.4812 8.48923 15.4767C8.17721 15.4722 7.90057 15.275 7.79458 14.9815L4.54458 5.98152C4.44582 5.70802 4.51405 5.40208 4.71967 5.19646ZM6.49811 6.9749L8.53051 12.6031L9.42719 10.3269C9.50343 10.1334 9.65659 9.98022 9.85011 9.90399L12.1263 9.0073L6.49811 6.9749Z" fill="#292A2E"/>
</svg>
