<svg width="16" height="17" viewBox="0 0 16 17" fill="none" xmlns="http://www.w3.org/2000/svg">
<path d="M13.9131 5.1814L8.41309 1.5564C8.16268 1.39136 7.83732 1.39136 7.58691 1.5564L2.08691 5.1814L2.91309 6.43335L8 3.08081L13.0869 6.43335L13.9131 5.1814ZM13.9131 9.6814L8.41309 6.0564C8.16268 5.89136 7.83732 5.89136 7.58691 6.0564L2.08691 9.6814L2.91309 10.9334L8 7.58081L13.0869 10.9334L13.9131 9.6814ZM13.9131 14.1814L8.41309 10.5564C8.16268 10.3914 7.83732 10.3914 7.58691 10.5564L2.08691 14.1814L2.91309 15.4334L8 12.0808L13.0869 15.4334L13.9131 14.1814Z" fill="#292A2E"/>
</svg>
