<svg width="16" height="17" viewBox="0 0 16 17" fill="none" xmlns="http://www.w3.org/2000/svg">
<path d="M13.9131 11.8694L8.41309 15.4944C8.16268 15.6594 7.83732 15.6594 7.58691 15.4944L2.08691 11.8694L2.91309 10.6174L8 13.97L13.0869 10.6174L13.9131 11.8694ZM13.9131 7.36938L8.41309 10.9944C8.16268 11.1594 7.83732 11.1594 7.58691 10.9944L2.08691 7.36938L2.91309 6.11743L8 9.46997L13.0869 6.11743L13.9131 7.36938ZM13.9131 2.86938L8.41309 6.49438C8.16268 6.65943 7.83732 6.65943 7.58691 6.49438L2.08691 2.86938L2.91309 1.61743L8 4.96997L13.0869 1.61743L13.9131 2.86938Z" fill="#292A2E"/>
</svg>
