<svg width="16" height="17" viewBox="0 0 16 17" fill="none" xmlns="http://www.w3.org/2000/svg">
<path d="M12.8369 15.4995C13.0673 15.6513 13.3626 15.6645 13.6055 15.5337C13.8484 15.4029 14 15.1494 14 14.8735V5.87354C14 5.62152 13.8734 5.38636 13.6631 5.24756L8.41309 1.78662C8.16268 1.62158 7.83732 1.62158 7.58691 1.78662L2.33691 5.24756C2.12658 5.38636 2 5.62152 2 5.87354V14.8735L2.00684 14.9761C2.03923 15.2111 2.18208 15.4193 2.39453 15.5337C2.63742 15.6645 2.93275 15.6513 3.16309 15.4995L8 12.312L12.8369 15.4995ZM8.41309 10.7866C8.16268 10.6216 7.83732 10.6216 7.58691 10.7866L3.5 13.481V6.27783L8 3.31201L12.5 6.27783V13.481L8.41309 10.7866Z" fill="#292A2E"/>
</svg>
