<svg width="16" height="17" viewBox="0 0 16 17" fill="none" xmlns="http://www.w3.org/2000/svg">
<path d="M2.34277 3.14759C5.46697 0.0233948 10.533 0.0233948 13.6572 3.14759C16.7814 6.27178 16.7814 11.3378 13.6572 14.462C10.533 17.5862 5.46697 17.5862 2.34277 14.462C-0.781422 11.3378 -0.781422 6.27178 2.34277 3.14759ZM2.9043 4.76966C0.878626 7.3212 1.04427 11.0424 3.40332 13.4015C5.76233 15.7605 9.48264 15.9251 12.0342 13.8995L2.9043 4.76966ZM12.5967 4.20814C10.2376 1.84909 6.51639 1.68344 3.96484 3.70911L13.0947 12.839C15.1203 10.2875 14.9557 6.56714 12.5967 4.20814Z" fill="#292A2E"/>
</svg>
