<svg width="16" height="16" viewBox="0 0 16 16" fill="none" xmlns="http://www.w3.org/2000/svg">
<path fill-rule="evenodd" clip-rule="evenodd" d="M3.5 2.61645C3.5 1.16671 4.67525 -0.00854492 6.125 -0.00854492H9.875C11.3247 -0.00854492 12.5 1.16671 12.5 2.61646V11.3665C12.5 12.8162 11.3247 13.9915 9.875 13.9915H8.75V15.9915H7.25L7.25 13.9915H6.125C4.67525 13.9915 3.5 12.8162 3.5 11.3665V2.61645ZM6.125 1.49146C5.50368 1.49146 5 1.99513 5 2.61645V11.3665C5 11.9878 5.50368 12.4915 6.125 12.4915H9.875C10.4963 12.4915 11 11.9878 11 11.3665V2.61646C11 1.99513 10.4963 1.49146 9.875 1.49146H6.125ZM6.5 4.74146C6.5 3.91303 7.17157 3.24146 8 3.24146C8.82843 3.24146 9.5 3.91303 9.5 4.74146C9.5 5.56988 8.82843 6.24146 8 6.24146C7.17157 6.24146 6.5 5.56988 6.5 4.74146ZM6.5 9.24146C6.5 8.41303 7.17157 7.74146 8 7.74146C8.82843 7.74146 9.5 8.41303 9.5 9.24146C9.5 10.0699 8.82843 10.7415 8 10.7415C7.17157 10.7415 6.5 10.0699 6.5 9.24146Z" fill="#292A2E"/>
</svg>
