<svg width="16" height="17" viewBox="0 0 16 17" fill="none" xmlns="http://www.w3.org/2000/svg">
<path fill-rule="evenodd" clip-rule="evenodd" d="M13.5 3.59595C13.5 3.31981 13.2761 3.09595 13 3.09595L10.5178 3.09595C10.3852 3.09595 10.258 3.14863 10.1642 3.24239L7.78033 5.62628C7.63968 5.76694 7.44891 5.84595 7.25 5.84595L3.01777 5.84596C2.88516 5.84596 2.75798 5.89864 2.66421 5.9924L2.31066 6.34596L4.03033 8.06563C4.32322 8.35852 4.32322 8.83339 4.03033 9.12629L1.78033 11.3763L0.719669 10.3156L2.43934 8.59596L0.71967 6.87629C0.426777 6.58339 0.426777 6.10852 0.71967 5.81563L1.60355 4.93174C1.97863 4.55667 2.48733 4.34596 3.01777 4.34596L6.93934 4.34595L9.10355 2.18174C9.47863 1.80666 9.98734 1.59595 10.5178 1.59595L13 1.59595C14.1046 1.59596 15 2.49139 15 3.59595L15 6.0782C15 6.60863 14.7893 7.11734 14.4142 7.49241L12.25 9.65662L12.25 13.5782C12.25 14.1086 12.0393 14.6173 11.6642 14.9924L10.7803 15.8763C10.6397 16.0169 10.4489 16.096 10.25 16.096C10.0511 16.096 9.86032 16.0169 9.71967 15.8763L8 14.1566L6.28033 15.8763L5.21967 14.8156L7.46967 12.5656C7.61032 12.425 7.80109 12.346 8 12.346C8.19891 12.346 8.38968 12.425 8.53033 12.5656L10.25 14.2853L10.6036 13.9318C10.6973 13.838 10.75 13.7108 10.75 13.5782L10.75 9.34596C10.75 9.14705 10.829 8.95629 10.9697 8.81563L13.3536 6.43175C13.4473 6.33798 13.5 6.21081 13.5 6.0782L13.5 3.59595ZM6.78033 10.8763L1.78033 15.8763L0.71967 14.8156L5.71967 9.81563L6.78033 10.8763Z" fill="#292A2E"/>
<path d="M12.5 5.22096C12.5 5.84228 11.9963 6.34596 11.375 6.34596C10.7537 6.34596 10.25 5.84228 10.25 5.22096C10.25 4.59964 10.7537 4.09596 11.375 4.09596C11.9963 4.09596 12.5 4.59964 12.5 5.22096Z" fill="#292A2E"/>
</svg>
