<svg width="16" height="17" viewBox="0 0 16 17" fill="none" xmlns="http://www.w3.org/2000/svg">
<path fill-rule="evenodd" clip-rule="evenodd" d="M4.25 3.28247C3.83579 3.28247 3.5 3.61826 3.5 4.03247C3.5 4.44668 3.83579 4.78247 4.25 4.78247C4.66422 4.78247 5 4.44668 5 4.03247C5 3.61826 4.66422 3.28247 4.25 3.28247ZM2 4.03247C2 2.78983 3.00736 1.78247 4.25 1.78247C5.49264 1.78247 6.5 2.78983 6.5 4.03247C6.5 5.01214 5.8739 5.84556 5 6.15444L5 11.4105C5.87389 11.7194 6.5 12.5528 6.5 13.5325C6.5 14.7751 5.49264 15.7825 4.25 15.7825C3.00736 15.7825 2 14.7751 2 13.5325C2 12.5528 2.62611 11.7194 3.5 11.4105L3.5 6.15444C2.62611 5.84556 2 5.01213 2 4.03247ZM8 3.28247H9.75C11.2688 3.28247 12.5 4.51369 12.5 6.03247L12.5 11.4105C13.3739 11.7194 14 12.5528 14 13.5325C14 14.7751 12.9926 15.7825 11.75 15.7825C10.5074 15.7825 9.5 14.7751 9.5 13.5325C9.5 12.5528 10.1261 11.7194 11 11.4105L11 6.03247C11 5.34212 10.4404 4.78247 9.75 4.78247H8V3.28247ZM4.25 12.7825C3.83579 12.7825 3.5 13.1183 3.5 13.5325C3.5 13.9467 3.83579 14.2825 4.25 14.2825C4.66421 14.2825 5 13.9467 5 13.5325C5 13.1183 4.66421 12.7825 4.25 12.7825ZM11.75 12.7825C11.3358 12.7825 11 13.1183 11 13.5325C11 13.9467 11.3358 14.2825 11.75 14.2825C12.1642 14.2825 12.5 13.9467 12.5 13.5325C12.5 13.1183 12.1642 12.7825 11.75 12.7825Z" fill="#292A2E"/>
</svg>
