<svg width="16" height="17" viewBox="0 0 16 17" fill="none" xmlns="http://www.w3.org/2000/svg">
<path fill-rule="evenodd" clip-rule="evenodd" d="M2.5 3.82518V1.15552H1V6.15552C1 6.56973 1.33579 6.90552 1.75 6.90552H6.5V5.40552H3.23557C4.18687 3.76103 5.96502 2.65552 8 2.65552C11.0376 2.65552 13.5 5.11795 13.5 8.15552C13.5 11.1931 11.0376 13.6555 8 13.6555C5.26268 13.6555 2.99116 11.6551 2.57006 9.03644L1.08908 9.2746C1.62526 12.6088 4.51451 15.1555 8 15.1555C11.866 15.1555 15 12.0215 15 8.15552C15 4.28952 11.866 1.15552 8 1.15552C5.7683 1.15552 3.78149 2.19962 2.5 3.82518Z" fill="#292A2E"/>
</svg>
