<svg width="16" height="17" viewBox="0 0 16 17" fill="none" xmlns="http://www.w3.org/2000/svg">
<path fill-rule="evenodd" clip-rule="evenodd" d="M4 2.55103H7V4.55103H9C9.26675 4.55103 9.51343 4.69271 9.64783 4.92312L11.1808 7.55103H15.25C15.5193 7.55103 15.7679 7.69541 15.9014 7.92931C16.0349 8.16322 16.0327 8.45072 15.8957 8.68257L13.0086 13.5685C12.6487 14.1774 11.994 14.551 11.2867 14.551H2C0.89543 14.551 0 13.6556 0 12.551V8.30103C0 7.88681 0.335786 7.55103 0.75 7.55103H2V5.30103C2 4.88681 2.33579 4.55103 2.75 4.55103H4V2.55103ZM3.5 7.55103H9.44422L8.56922 6.05103H3.5V7.55103ZM1.5 9.05103V12.551C1.5 12.8272 1.72386 13.051 2 13.051H11.2867C11.4635 13.051 11.6272 12.9576 11.7172 12.8054L13.9357 9.05103H1.5Z" fill="#292A2E"/>
</svg>
