<svg width="16" height="17" viewBox="0 0 16 17" fill="none" xmlns="http://www.w3.org/2000/svg">
<path fill-rule="evenodd" clip-rule="evenodd" d="M1 8.34204C1 4.47605 4.13401 1.34204 8 1.34204C10.2317 1.34204 12.2185 2.38615 13.5 4.01171V1.34204H15V6.34204C15 6.75625 14.6642 7.09204 14.25 7.09204H9.5V5.59204H12.7644C11.8131 3.94756 10.035 2.84204 8 2.84204C4.96243 2.84204 2.5 5.30448 2.5 8.34204C2.5 11.3796 4.96243 13.842 8 13.842C10.7373 13.842 13.0088 11.8416 13.4299 9.22296L14.9109 9.46112C14.3747 12.7953 11.4855 15.342 8 15.342C4.13401 15.342 1 12.208 1 8.34204Z" fill="#292A2E"/>
</svg>
