<svg width="16" height="17" viewBox="0 0 16 17" fill="none" xmlns="http://www.w3.org/2000/svg">
<path fill-rule="evenodd" clip-rule="evenodd" d="M0 4.73755C0 3.63298 0.895431 2.73755 2 2.73755H11C12.1046 2.73755 13 3.63298 13 4.73755V5.73755C13 6.84212 12.1046 7.73755 11 7.73755H2C0.89543 7.73755 0 6.84212 0 5.73755V4.73755ZM2 4.23755C1.72386 4.23755 1.5 4.46141 1.5 4.73755V5.73755C1.5 6.01369 1.72386 6.23755 2 6.23755H11C11.2761 6.23755 11.5 6.01369 11.5 5.73755V4.73755C11.5 4.46141 11.2761 4.23755 11 4.23755H2ZM3 11.7375C3 10.633 3.89543 9.73755 5 9.73755H14C15.1046 9.73755 16 10.633 16 11.7375V12.7375C16 13.8421 15.1046 14.7375 14 14.7375H5C3.89543 14.7375 3 13.8421 3 12.7375V11.7375ZM5 11.2375C4.72386 11.2375 4.5 11.4614 4.5 11.7375V12.7375C4.5 13.0137 4.72386 13.2375 5 13.2375H14C14.2761 13.2375 14.5 13.0137 14.5 12.7375V11.7375C14.5 11.4614 14.2761 11.2375 14 11.2375H5Z" fill="#292A2E"/>
</svg>
