<svg width="16" height="17" viewBox="0 0 16 17" fill="none" xmlns="http://www.w3.org/2000/svg">
<path fill-rule="evenodd" clip-rule="evenodd" d="M8 2.02856C4.41015 2.02856 1.5 4.93871 1.5 8.52856C1.5 12.1184 4.41015 15.0286 8 15.0286V16.5286C3.58172 16.5286 0 12.9468 0 8.52856C0 4.11029 3.58172 0.528564 8 0.528564C12.4183 0.528564 16 4.11029 16 8.52856H14.5C14.5 4.93871 11.5899 2.02856 8 2.02856ZM12.3262 6.0087L7.32617 12.0087C7.18367 12.1797 6.97258 12.2786 6.75 12.2786C6.52742 12.2786 6.31633 12.1797 6.17383 12.0087L3.67383 9.0087L4.82617 8.04843L6.75 10.357L11.1738 5.04843L12.3262 6.0087ZM10.4373 14.5564C12.0665 13.8969 13.3683 12.595 14.0278 10.9659L15.4182 11.5287C14.6063 13.5344 13.0058 15.1349 11.0002 15.9468L10.4373 14.5564Z" fill="#292A2E"/>
</svg>
