<svg width="16" height="17" viewBox="0 0 16 17" fill="none" xmlns="http://www.w3.org/2000/svg">
<path fill-rule="evenodd" clip-rule="evenodd" d="M7 3.42407C4.51472 3.42407 2.5 5.43879 2.5 7.92407C2.5 10.4094 4.51472 12.4241 7 12.4241C8.24285 12.4241 9.36682 11.9212 10.182 11.1061C10.9971 10.2909 11.5 9.16692 11.5 7.92407C11.5 5.43879 9.48528 3.42407 7 3.42407ZM1 7.92407C1 4.61036 3.68629 1.92407 7 1.92407C10.3137 1.92407 13 4.61036 13 7.92407C13 9.31029 12.5292 10.5876 11.7399 11.6033L15.0303 14.8937L13.9697 15.9544L10.6792 12.6639C9.66348 13.4533 8.38622 13.9241 7 13.9241C3.68629 13.9241 1 11.2378 1 7.92407Z" fill="#292A2E"/>
</svg>
