<svg width="16" height="17" viewBox="0 0 16 17" fill="none" xmlns="http://www.w3.org/2000/svg">
<path fill-rule="evenodd" clip-rule="evenodd" d="M14.7803 1.93478C14.9875 2.14196 15.0551 2.45083 14.9533 2.7256L9.95331 16.2256C9.8512 16.5013 9.59742 16.6919 9.30419 16.7131C9.01096 16.7344 8.73236 16.5823 8.59158 16.3242L5.69721 11.0179L0.390862 8.12353C0.132761 7.98275 -0.0192823 7.70415 0.00196137 7.41092C0.023205 7.11769 0.213818 6.86391 0.489515 6.7618L13.9895 1.7618C14.2643 1.66003 14.5731 1.72759 14.7803 1.93478ZM7.17714 10.5986L9.11915 14.159L12.3558 5.41994L7.17714 10.5986ZM11.2952 4.35928L2.55614 7.59596L6.11648 9.53797L11.2952 4.35928Z" fill="#292A2E"/>
</svg>
