<svg width="16" height="17" viewBox="0 0 16 17" fill="none" xmlns="http://www.w3.org/2000/svg">
<path fill-rule="evenodd" clip-rule="evenodd" d="M6.05769 0.572134C6.17415 0.292649 6.44723 0.110596 6.75 0.110596H9.25C9.55278 0.110596 9.82586 0.292649 9.94231 0.572134L10.9684 3.03479L13.546 2.66086C13.8498 2.61679 14.1497 2.76227 14.3032 3.02809L15.5532 5.19315C15.7033 5.45307 15.6839 5.77743 15.504 6.01768L13.9369 8.1106L15.504 10.2036C15.6839 10.4438 15.7033 10.7682 15.5532 11.0281L14.3032 13.1932C14.1497 13.459 13.8498 13.6045 13.546 13.5604L10.9684 13.1864L9.94231 15.6491C9.82586 15.9285 9.55278 16.1106 9.25 16.1106H6.75C6.44723 16.1106 6.17415 15.9285 6.05769 15.6491L5.03159 13.1864L2.45401 13.5604C2.15024 13.6045 1.85027 13.459 1.6968 13.1932L0.4468 11.0281C0.296736 10.7682 0.316074 10.4438 0.495958 10.2036L2.06306 8.1106L0.495959 6.01768C0.316071 5.77743 0.296731 5.45307 0.446797 5.19315L1.6968 3.02809C1.85027 2.76227 2.15023 2.61679 2.45399 2.66086L5.03159 3.03479L6.05769 0.572134ZM7.25 1.6106L6.37889 3.70127C6.13735 4.28096 5.53374 4.62334 4.91225 4.53318L2.74168 4.21829L1.99322 5.51467L3.31987 7.28647C3.68567 7.775 3.68567 8.44619 3.31988 8.93472L1.99322 10.7066L2.74168 12.0029L4.91223 11.688C5.53373 11.5978 6.13735 11.9402 6.37889 12.5199L7.25 14.6106H8.75L9.62111 12.5199C9.86265 11.9402 10.4663 11.5978 11.0878 11.688L13.2583 12.0029L14.0068 10.7066L12.6801 8.93472C12.3143 8.44618 12.3143 7.775 12.6801 7.28647L14.0068 5.51467L13.2583 4.2183L11.0878 4.53318C10.4663 4.62334 9.86266 4.28096 9.62112 3.70127L8.75 1.6106H7.25ZM8 6.6106C7.17157 6.6106 6.5 7.28217 6.5 8.1106C6.5 8.93902 7.17157 9.6106 8 9.6106C8.82843 9.6106 9.5 8.93902 9.5 8.1106C9.5 7.28217 8.82843 6.6106 8 6.6106ZM5 8.1106C5 6.45374 6.34315 5.1106 8 5.1106C9.65686 5.1106 11 6.45374 11 8.1106C11 9.76745 9.65686 11.1106 8 11.1106C6.34315 11.1106 5 9.76745 5 8.1106Z" fill="#292A2E"/>
</svg>
