<svg width="16" height="17" viewBox="0 0 16 17" fill="none" xmlns="http://www.w3.org/2000/svg">
<path fill-rule="evenodd" clip-rule="evenodd" d="M15 3.27663C15 2.51723 14.3844 1.90163 13.625 1.90163H10.375C9.6156 1.90163 9 2.51723 9 3.27663V6.52663C9 7.28602 9.6156 7.90163 10.375 7.90163H13.625C14.3844 7.90163 15 7.28602 15 6.52663V3.27663ZM13.5 3.40163V6.40163H10.5V3.40163H13.5Z" fill="#292A2E"/>
<path fill-rule="evenodd" clip-rule="evenodd" d="M3.13175 2.15938C3.51565 1.48756 4.48434 1.48756 4.86824 2.15938L7.43744 6.65549C7.81839 7.32214 7.33702 8.15163 6.5692 8.15163H1.43079C0.662966 8.15163 0.181602 7.32214 0.562548 6.65549L3.13175 2.15938ZM4 3.6633L2.29238 6.65163H5.70761L4 3.6633Z" fill="#292A2E"/>
<path fill-rule="evenodd" clip-rule="evenodd" d="M0.749996 12.9016C0.749996 11.1067 2.20507 9.65163 4 9.65163C5.79492 9.65163 7.25 11.1067 7.25 12.9016C7.25 14.6966 5.79492 16.1516 4 16.1516C2.20507 16.1516 0.749996 14.6966 0.749996 12.9016ZM4 11.1516C3.0335 11.1516 2.25 11.9351 2.25 12.9016C2.25 13.8681 3.0335 14.6516 4 14.6516C4.96649 14.6516 5.75 13.8681 5.75 12.9016C5.75 11.9351 4.96649 11.1516 4 11.1516Z" fill="#292A2E"/>
<path fill-rule="evenodd" clip-rule="evenodd" d="M10 9.90163H14.25C14.6642 9.90163 15 10.2374 15 10.6516V14.9016H13.5V12.4623L9.78033 16.182L8.71967 15.1213L12.4393 11.4016H10V9.90163Z" fill="#292A2E"/>
</svg>
