<svg width="16" height="17" viewBox="0 0 16 17" fill="none" xmlns="http://www.w3.org/2000/svg">
<path fill-rule="evenodd" clip-rule="evenodd" d="M12 2.79712C11.4477 2.79712 11 3.24483 11 3.79712C11 3.95926 11.038 4.11036 11.105 4.24398C11.2701 4.57353 11.6096 4.79712 12 4.79712C12.5523 4.79712 13 4.3494 13 3.79712C13 3.24483 12.5523 2.79712 12 2.79712ZM9.5 3.79712C9.5 2.41641 10.6193 1.29712 12 1.29712C13.3807 1.29712 14.5 2.41641 14.5 3.79712C14.5 5.17783 13.3807 6.29712 12 6.29712C11.3076 6.29712 10.6816 6.01557 10.2294 5.56191L6.2126 7.8646C6.23719 8.00531 6.25 8.14986 6.25 8.29712C6.25 8.44438 6.23719 8.58893 6.2126 8.72964L10.2294 11.0323C10.6816 10.5787 11.3076 10.2971 12 10.2971C13.3807 10.2971 14.5 11.4164 14.5 12.7971C14.5 14.1778 13.3807 15.2971 12 15.2971C10.6193 15.2971 9.5 14.1778 9.5 12.7971C9.5 12.6499 9.51281 12.5053 9.5374 12.3646L5.52057 10.0619C5.06839 10.5156 4.44241 10.7971 3.75 10.7971C2.36929 10.7971 1.25 9.67783 1.25 8.29712C1.25 6.91641 2.36929 5.79712 3.75 5.79712C4.44241 5.79712 5.06839 6.07867 5.52057 6.53232L9.5374 4.22964C9.51281 4.08893 9.5 3.94438 9.5 3.79712ZM3.75 7.29712C3.19772 7.29712 2.75 7.74483 2.75 8.29712C2.75 8.8494 3.19772 9.29712 3.75 9.29712C4.1404 9.29712 4.47994 9.07353 4.64503 8.74398C4.71197 8.61036 4.75 8.45926 4.75 8.29712C4.75 8.13498 4.71197 7.98388 4.64503 7.85026C4.47994 7.52071 4.1404 7.29712 3.75 7.29712ZM12 11.7971C11.6096 11.7971 11.2701 12.0207 11.105 12.3503C11.038 12.4839 11 12.635 11 12.7971C11 13.3494 11.4477 13.7971 12 13.7971C12.5523 13.7971 13 13.3494 13 12.7971C13 12.2448 12.5523 11.7971 12 11.7971Z" fill="#292A2E"/>
</svg>
