<svg width="16" height="17" viewBox="0 0 16 17" fill="none" xmlns="http://www.w3.org/2000/svg">
<path fill-rule="evenodd" clip-rule="evenodd" d="M12.25 2.33838L12.25 0.0883789H13.75L13.75 2.33838H16V3.83838H13.75L13.75 6.08838H12.25L12.25 3.83838H10V2.33838H12.25ZM3 2.58838C2.72386 2.58838 2.5 2.81224 2.5 3.08838V13.0884C2.5 13.3645 2.72386 13.5884 3 13.5884H13C13.2761 13.5884 13.5 13.3645 13.5 13.0884V8.58815H15V13.0884C15 14.1929 14.1046 15.0884 13 15.0884H3C1.89543 15.0884 1 14.1929 1 13.0884V3.08838C1 1.98381 1.89543 1.08838 3 1.08838H7.5V2.58838H3Z" fill="#292A2E"/>
</svg>
