<svg width="16" height="17" viewBox="0 0 16 17" fill="none" xmlns="http://www.w3.org/2000/svg">
<path fill-rule="evenodd" clip-rule="evenodd" d="M6.5 1.77466C6.5 0.946231 7.17157 0.274658 8 0.274658C8.82843 0.274658 9.5 0.946231 9.5 1.77466C9.5 2.60309 8.82843 3.27466 8 3.27466C7.17157 3.27466 6.5 2.60309 6.5 1.77466ZM6.5 8.27466C6.5 7.44623 7.17157 6.77466 8 6.77466C8.82843 6.77466 9.5 7.44623 9.5 8.27466C9.5 9.10309 8.82843 9.77466 8 9.77466C7.17157 9.77466 6.5 9.10309 6.5 8.27466ZM6.5 14.7747C6.5 13.9462 7.17157 13.2747 8 13.2747C8.82843 13.2747 9.5 13.9462 9.5 14.7747C9.5 15.6031 8.82843 16.2747 8 16.2747C7.17157 16.2747 6.5 15.6031 6.5 14.7747Z" fill="#292A2E"/>
</svg>
