<svg width="16" height="17" viewBox="0 0 16 17" fill="none" xmlns="http://www.w3.org/2000/svg">
<path fill-rule="evenodd" clip-rule="evenodd" d="M0 8.48364C0 7.65522 0.671573 6.98364 1.5 6.98364C2.32843 6.98364 3 7.65522 3 8.48364C3 9.31207 2.32843 9.98364 1.5 9.98364C0.671573 9.98364 0 9.31207 0 8.48364ZM6.5 8.48364C6.5 7.65522 7.17157 6.98364 8 6.98364C8.82843 6.98364 9.5 7.65522 9.5 8.48364C9.5 9.31207 8.82843 9.98364 8 9.98364C7.17157 9.98364 6.5 9.31207 6.5 8.48364ZM13 8.48364C13 7.65522 13.6716 6.98364 14.5 6.98364C15.3284 6.98364 16 7.65522 16 8.48364C16 9.31207 15.3284 9.98364 14.5 9.98364C13.6716 9.98364 13 9.31207 13 8.48364Z" fill="#292A2E"/>
</svg>
