<svg width="16" height="17" viewBox="0 0 16 17" fill="none" xmlns="http://www.w3.org/2000/svg">
<path fill-rule="evenodd" clip-rule="evenodd" d="M14 2.54321C14.2761 2.54321 14.5 2.76707 14.5 3.04321V13.0432C14.5 13.3194 14.2761 13.5432 14 13.5432H12V2.54321H14ZM10.5 2.54321V13.5432H2C1.72386 13.5432 1.5 13.3194 1.5 13.0432V3.04321C1.5 2.76707 1.72386 2.54321 2 2.54321H10.5ZM16 3.04321C16 1.93864 15.1046 1.04321 14 1.04321H2C0.895431 1.04321 0 1.93864 0 3.04321V13.0432C0 14.1478 0.895431 15.0432 2 15.0432H14C15.1046 15.0432 16 14.1478 16 13.0432V3.04321ZM8.03033 7.51288L5.53033 5.01288L4.46967 6.07354L6.43934 8.04321L4.46967 10.0129L5.53033 11.0735L8.03033 8.57354C8.32322 8.28065 8.32322 7.80578 8.03033 7.51288Z" fill="#292A2E"/>
</svg>
