<svg width="16" height="17" viewBox="0 0 16 17" fill="none" xmlns="http://www.w3.org/2000/svg">
<path fill-rule="evenodd" clip-rule="evenodd" d="M2 3.14771C1.72386 3.14771 1.5 3.37156 1.5 3.64771V13.6477C1.5 13.9238 1.72386 14.1477 2 14.1477H4V3.14771H2ZM5.5 3.14771V14.1477H14C14.2761 14.1477 14.5 13.9238 14.5 13.6477V3.64771C14.5 3.37156 14.2761 3.14771 14 3.14771H5.5ZM0 3.64771C0 2.54314 0.89543 1.64771 2 1.64771H14C15.1046 1.64771 16 2.54314 16 3.64771V13.6477C16 14.7523 15.1046 15.6477 14 15.6477H2C0.895431 15.6477 0 14.7523 0 13.6477V3.64771ZM7.96967 8.11737L10.4697 5.61737L11.5303 6.67804L9.56066 8.64771L11.5303 10.6174L10.4697 11.678L7.96967 9.17804C7.67678 8.88514 7.67678 8.41027 7.96967 8.11737Z" fill="#292A2E"/>
</svg>
