<svg width="16" height="17" viewBox="0 0 16 17" fill="none" xmlns="http://www.w3.org/2000/svg">
<path fill-rule="evenodd" clip-rule="evenodd" d="M9.11745 2.38152C10.6097 1.56732 12.5172 1.79125 13.7802 3.05426C15.3157 4.5898 15.3157 7.07939 13.7802 8.61492L11.5302 10.8649L10.4695 9.80426L12.7195 7.55426C13.6693 6.60451 13.6693 5.06467 12.7195 4.11492C12.0158 3.41122 10.9873 3.22873 10.1157 3.56815C10.2025 3.80746 10.2499 4.06565 10.2499 4.33459C10.2499 5.57723 9.24249 6.58459 7.99985 6.58459C6.75721 6.58459 5.74985 5.57723 5.74985 4.33459C5.74985 3.09195 6.75721 2.08459 7.99985 2.08459C8.40642 2.08459 8.78822 2.19282 9.11745 2.38152ZM7.99985 3.58459C7.58564 3.58459 7.24985 3.92038 7.24985 4.33459C7.24985 4.7488 7.58564 5.08459 7.99985 5.08459C8.41407 5.08459 8.74985 4.7488 8.74985 4.33459C8.74985 4.13258 8.67098 3.95056 8.54076 3.81506C8.40337 3.67208 8.21247 3.58459 7.99985 3.58459ZM2.21952 9.05426L4.46952 6.80426L5.53018 7.86492L3.28018 10.1149C2.33043 11.0647 2.33043 12.6045 3.28018 13.5543C3.98388 14.258 5.01237 14.4404 5.88397 14.101C5.79723 13.8617 5.74985 13.6035 5.74985 13.3346C5.74985 12.092 6.75721 11.0846 7.99985 11.0846C9.24249 11.0846 10.2499 12.092 10.2499 13.3346C10.2499 14.5772 9.24249 15.5846 7.99985 15.5846C7.59329 15.5846 7.21148 15.4764 6.88226 15.2877C5.38997 16.1019 3.48253 15.8779 2.21952 14.6149C0.683988 13.0794 0.683987 10.5898 2.21952 9.05426ZM7.99985 12.5846C7.58564 12.5846 7.24985 12.9204 7.24985 13.3346C7.24985 13.5366 7.32873 13.7186 7.45894 13.8541C7.59633 13.9971 7.78724 14.0846 7.99985 14.0846C8.41407 14.0846 8.74985 13.7488 8.74985 13.3346C8.74985 12.9204 8.41407 12.5846 7.99985 12.5846Z" fill="#292A2E"/>
</svg>
