<svg width="16" height="17" viewBox="0 0 16 17" fill="none" xmlns="http://www.w3.org/2000/svg">
<path fill-rule="evenodd" clip-rule="evenodd" d="M1 3.02075C1 1.91618 1.89543 1.02075 3 1.02075H13C14.1046 1.02075 15 1.91618 15 3.02075V13.0208C15 14.1253 14.1046 15.0208 13 15.0208H3C1.89543 15.0208 1 14.1253 1 13.0208V3.02075ZM3 2.52075C2.72386 2.52075 2.5 2.74461 2.5 3.02075V7.02075H13.5V3.02075C13.5 2.74461 13.2761 2.52075 13 2.52075H3ZM13.5 8.52075H2.5V13.0208C2.5 13.2969 2.72386 13.5208 3 13.5208H13C13.2761 13.5208 13.5 13.2969 13.5 13.0208V8.52075ZM5.5 5.52075H4V4.02075H5.5V5.52075ZM12 5.52075H7V4.02075H12V5.52075Z" fill="#292A2E"/>
</svg>
