<svg width="16" height="17" viewBox="0 0 16 17" fill="none" xmlns="http://www.w3.org/2000/svg">
<path fill-rule="evenodd" clip-rule="evenodd" d="M2 4.72974C1.72386 4.72974 1.5 4.95359 1.5 5.22974V11.2297C1.5 11.5059 1.72386 11.7297 2 11.7297H10V4.72974H2ZM11.5 4.72974V11.7297H14C14.2761 11.7297 14.5 11.5059 14.5 11.2297V5.22974C14.5 4.95359 14.2761 4.72974 14 4.72974H11.5ZM0 5.22974C0 4.12517 0.89543 3.22974 2 3.22974H14C15.1046 3.22974 16 4.12517 16 5.22974V11.2297C16 12.3343 15.1046 13.2297 14 13.2297H2C0.89543 13.2297 0 12.3343 0 11.2297V5.22974ZM8.5 7.72974H3V6.22974H8.5V7.72974ZM6 10.2297H3V8.72974H6V10.2297Z" fill="#292A2E"/>
</svg>
