<svg width="16" height="17" viewBox="0 0 16 17" fill="none" xmlns="http://www.w3.org/2000/svg">
<path fill-rule="evenodd" clip-rule="evenodd" d="M1 3.20728C1 2.10271 1.89543 1.20728 3 1.20728H13C14.1046 1.20728 15 2.10271 15 3.20728V13.2073C15 14.3118 14.1046 15.2073 13 15.2073H3C1.89543 15.2073 1 14.3118 1 13.2073V3.20728ZM3 2.70728C2.72386 2.70728 2.5 2.93113 2.5 3.20728V13.2073C2.5 13.4834 2.72386 13.7073 3 13.7073H13C13.2761 13.7073 13.5 13.4834 13.5 13.2073V3.20728C13.5 2.93113 13.2761 2.70728 13 2.70728H3ZM5.5 5.70728H4V4.20728H5.5V5.70728ZM12 5.70728H7V4.20728H12V5.70728ZM5.5 8.95728H4V7.45728H5.5V8.95728ZM12 8.95728H7V7.45728H12V8.95728ZM5.5 12.2073H4V10.7073H5.5V12.2073ZM12 12.2073H7V10.7073H12V12.2073Z" fill="#292A2E"/>
</svg>
