<svg width="16" height="17" viewBox="0 0 16 17" fill="none" xmlns="http://www.w3.org/2000/svg">
<path fill-rule="evenodd" clip-rule="evenodd" d="M2 6.91626C1.72386 6.91626 1.5 7.14012 1.5 7.41626V9.41626C1.5 9.6924 1.72386 9.91626 2 9.91626H4.5V6.91626H2ZM6 6.91626V9.91626H14C14.2761 9.91626 14.5 9.6924 14.5 9.41626V7.41626C14.5 7.14012 14.2761 6.91626 14 6.91626H6ZM0 7.41626C0 6.31169 0.895431 5.41626 2 5.41626H14C15.1046 5.41626 16 6.31169 16 7.41626V9.41626C16 10.5208 15.1046 11.4163 14 11.4163H2C0.895431 11.4163 0 10.5208 0 9.41626V7.41626Z" fill="#292A2E"/>
</svg>
