<svg width="16" height="17" viewBox="0 0 16 17" fill="none" xmlns="http://www.w3.org/2000/svg">
<path fill-rule="evenodd" clip-rule="evenodd" d="M13.75 15.2676C12.5589 15.9553 11.037 15.5513 10.3429 14.3662L8.00002 10.6489L5.65714 14.3662C4.96305 15.5513 3.44118 15.9553 2.25002 15.2676C1.05429 14.5772 0.644601 13.0482 1.33496 11.8525C2.02531 10.6568 3.55429 10.2471 4.75002 10.9374C5.08733 11.1322 5.36209 11.3937 5.56725 11.6956L7.11349 9.24226L7.11294 9.24139L7.99947 7.83479L8.00002 7.83565L11.8655 1.70251L13.1345 2.50231L8.88656 9.24226L10.4328 11.6956C10.638 11.3937 10.9127 11.1322 11.25 10.9374C12.4458 10.2471 13.9747 10.6568 14.6651 11.8525C15.3554 13.0482 14.9458 14.5772 13.75 15.2676ZM13 13.9685C12.5217 14.2447 11.9101 14.0808 11.634 13.6025C11.3579 13.1242 11.5217 12.5126 12 12.2365C12.4783 11.9603 13.0899 12.1242 13.366 12.6025C13.6422 13.0808 13.4783 13.6924 13 13.9685ZM4.36605 13.6025C4.0899 14.0808 3.47831 14.2447 3.00002 13.9685C2.52173 13.6924 2.35785 13.0808 2.634 12.6025C2.91014 12.1242 3.52173 11.9603 4.00002 12.2365C4.47831 12.5126 4.64219 13.1242 4.36605 13.6025Z" fill="#292A2E"/>
<path d="M7.11294 6.42818L6.2264 7.83479L2.86553 2.50231L4.13451 1.70251L7.11294 6.42818Z" fill="#292A2E"/>
</svg>
