<svg width="17" height="17" viewBox="0 0 17 17" fill="none" xmlns="http://www.w3.org/2000/svg">
<path fill-rule="evenodd" clip-rule="evenodd" d="M15 4.28955L1 4.28955L1 2.78955L15 2.78955L15 4.28955ZM13.25 8.03955L13.25 13.2289L14.9697 11.5092L16.0303 12.5699L13.0303 15.5699C12.8897 15.7105 12.6989 15.7896 12.5 15.7896C12.3011 15.7896 12.1103 15.7105 11.9697 15.5699L8.96967 12.5699L10.0303 11.5092L11.75 13.2289L11.75 8.03955L13.25 8.03955ZM8 9.53955L1 9.53955L1 8.03955L8 8.03955L8 9.53955ZM6 14.7896L0.999999 14.7896L1 13.2896L6 13.2896L6 14.7896Z" fill="#292A2E"/>
</svg>
