<svg width="17" height="17" viewBox="0 0 17 17" fill="none" xmlns="http://www.w3.org/2000/svg">
<path fill-rule="evenodd" clip-rule="evenodd" d="M15 12.894L1 12.894L1 14.394L15 14.394L15 12.894ZM13.25 9.14404L13.25 3.9547L14.9697 5.67437L16.0303 4.61371L13.0303 1.61371C12.8897 1.47306 12.6989 1.39404 12.5 1.39404C12.3011 1.39404 12.1103 1.47306 11.9697 1.61371L8.96967 4.61371L10.0303 5.67437L11.75 3.9547L11.75 9.14404L13.25 9.14404ZM8 7.64404L1 7.64404L1 9.14404L8 9.14404L8 7.64404ZM6 2.39404L0.999999 2.39404L1 3.89404L6 3.89404L6 2.39404Z" fill="#292A2E"/>
</svg>
