<svg width="16" height="17" viewBox="0 0 16 17" fill="none" xmlns="http://www.w3.org/2000/svg">
<path fill-rule="evenodd" clip-rule="evenodd" d="M0 4.58057C0 3.476 0.895431 2.58057 2 2.58057H14C15.1046 2.58057 16 3.476 16 4.58057V12.5806C16 13.6851 15.1046 14.5806 14 14.5806H2C0.895431 14.5806 0 13.6851 0 12.5806V4.58057ZM2 4.08057C1.72386 4.08057 1.5 4.30442 1.5 4.58057V7.83057H5V4.08057H2ZM6.5 4.08057V7.83057H14.5V4.58057C14.5 4.30442 14.2761 4.08057 14 4.08057H6.5ZM14.5 9.33057H6.5V13.0806H14C14.2761 13.0806 14.5 12.8567 14.5 12.5806V9.33057ZM5 13.0806V9.33057H1.5V12.5806C1.5 12.8567 1.72386 13.0806 2 13.0806H5Z" fill="#292A2E"/>
</svg>
