<svg width="16" height="17" viewBox="0 0 16 17" fill="none" xmlns="http://www.w3.org/2000/svg">
<path fill-rule="evenodd" clip-rule="evenodd" d="M8 2.47607C5.37665 2.47607 3.25 4.60272 3.25 7.22607C3.25 9.84943 5.37665 11.9761 8 11.9761H13.4393L11.2197 9.7564L12.2803 8.69574L15.7803 12.1957C16.0732 12.4886 16.0732 12.9635 15.7803 13.2564L12.2803 16.7564L11.2197 15.6957L13.4393 13.4761H0V11.9761H3.9378C2.59867 10.8298 1.75 9.12703 1.75 7.22607C1.75 3.77429 4.54822 0.976074 8 0.976074C11.4518 0.976074 14.25 3.77429 14.25 7.22607H12.75C12.75 4.60272 10.6234 2.47607 8 2.47607Z" fill="#292A2E"/>
</svg>
