<svg width="16" height="17" viewBox="0 0 16 17" fill="none" xmlns="http://www.w3.org/2000/svg">
<path fill-rule="evenodd" clip-rule="evenodd" d="M8 0.76709C8.31033 0.76709 8.5886 0.958211 8.70001 1.24786L10.4049 5.68064L14.8075 6.0193C15.1119 6.04271 15.3717 6.24823 15.4645 6.53902C15.5573 6.82981 15.4646 7.14784 15.2301 7.34326L11.8487 10.1611L13.0994 14.8227C13.1807 15.126 13.0646 15.4479 12.8083 15.6293C12.552 15.8107 12.2098 15.8132 11.9509 15.6356L8 12.9265L4.04914 15.6356C3.79018 15.8132 3.44801 15.8107 3.19171 15.6293C2.93542 15.4479 2.81925 15.126 2.90061 14.8227L4.15129 10.1611L0.769858 7.34326C0.535364 7.14784 0.442693 6.82981 0.535514 6.53902C0.628336 6.24823 0.88813 6.04271 1.19247 6.0193L5.59507 5.68064L7.29999 1.24786C7.41139 0.958211 7.68967 0.76709 8 0.76709ZM8 3.60635L6.65492 7.10354L3.14891 7.37324L5.8487 9.62306L4.87557 13.2502L8 11.1077L11.1244 13.2502L10.1513 9.62306L12.8511 7.37324L9.34507 7.10354L8 3.60635Z" fill="#292A2E"/>
<path d="M6.65492 7.10354L8 3.60635L9.34507 7.10354L12.8511 7.37324L10.1513 9.62306L11.1244 13.2502L8 11.1077L4.87557 13.2502L5.8487 9.62306L3.14891 7.37324L6.65492 7.10354Z" fill="#292A2E"/>
</svg>
