<svg width="16" height="17" viewBox="0 0 16 17" fill="none" xmlns="http://www.w3.org/2000/svg">
<path fill-rule="evenodd" clip-rule="evenodd" d="M8 0.162598C8.31033 0.162598 8.58861 0.353719 8.70001 0.643363L10.4049 5.07615L14.8075 5.41481C15.1119 5.43822 15.3717 5.64374 15.4645 5.93453C15.5573 6.22532 15.4646 6.54335 15.2301 6.73876L11.8487 9.55663L13.0994 14.2183C13.1808 14.5215 13.0646 14.8434 12.8083 15.0248C12.552 15.2062 12.2098 15.2087 11.9509 15.0311L8 12.322L4.04915 15.0311C3.79019 15.2087 3.44802 15.2062 3.19172 15.0248C2.93542 14.8434 2.81926 14.5215 2.90062 14.2183L4.1513 9.55663L0.769866 6.73876C0.535372 6.54335 0.4427 6.22532 0.535522 5.93453C0.628343 5.64374 0.888138 5.43822 1.19248 5.41481L5.59508 5.07615L7.29999 0.643363C7.4114 0.353719 7.68968 0.162598 8 0.162598ZM8 3.00186L6.65493 6.49905L3.14892 6.76874L5.84871 9.01857L4.87558 12.6457L8 10.5032L11.1244 12.6457L10.1513 9.01857L12.8511 6.76874L9.34508 6.49905L8 3.00186Z" fill="#292A2E"/>
</svg>
