<svg width="16" height="17" viewBox="0 0 16 17" fill="none" xmlns="http://www.w3.org/2000/svg">
<path fill-rule="evenodd" clip-rule="evenodd" d="M8 0.140137C12.4183 0.140137 16 3.72186 16 8.14014C16 12.5584 12.4183 16.1401 8 16.1401C3.58172 16.1401 0 12.5584 0 8.14014C0 3.72186 3.58172 0.140137 8 0.140137ZM6.5 6.89014V8.39014H7.25V12.6401H8.75V7.64014C8.75 7.22592 8.41421 6.89014 8 6.89014H6.5ZM8 3.64014C7.44772 3.64014 7 4.08785 7 4.64014C7 5.19242 7.44772 5.64014 8 5.64014C8.55228 5.64014 9 5.19242 9 4.64014C9 4.08785 8.55228 3.64014 8 3.64014Z" fill="#292A2E"/>
</svg>
