<svg width="16" height="17" viewBox="0 0 16 17" fill="none" xmlns="http://www.w3.org/2000/svg">
<path fill-rule="evenodd" clip-rule="evenodd" d="M6.84929 0.770869C7.5021 0.178591 8.49824 0.17859 9.15105 0.770869L10.2995 1.81286C10.3406 1.85001 10.3945 1.86959 10.4499 1.86755L11.9997 1.80798C12.8803 1.77389 13.6428 2.41339 13.7624 3.28649L13.9723 4.8236C13.9799 4.87861 14.0095 4.92825 14.0534 4.96228L15.279 5.91247C15.9754 6.45255 16.1483 7.43341 15.6784 8.17907L14.8512 9.4906C14.8216 9.53759 14.8122 9.5945 14.8239 9.6488L15.152 11.1644C15.3385 12.0259 14.84 12.8884 14.0007 13.1576L12.5241 13.6312C12.4713 13.6483 12.4269 13.6856 12.401 13.7347L11.6784 15.1068C11.2675 15.8863 10.3321 16.2269 9.51628 15.8939L8.08073 15.307C8.02923 15.286 7.9711 15.286 7.9196 15.307L6.48406 15.8939C5.66823 16.227 4.73287 15.8863 4.32195 15.1068L3.59929 13.7347C3.57336 13.6855 3.52824 13.6482 3.47527 13.6312L1.9987 13.1576C1.15963 12.8882 0.661821 12.0258 0.848313 11.1644L1.17644 9.6488C1.18812 9.59451 1.1787 9.53759 1.14909 9.4906L0.321945 8.17907C-0.147942 7.43339 0.0248457 6.45254 0.721359 5.91247L1.94695 4.96228C1.99084 4.92825 2.02041 4.87862 2.028 4.8236L2.23796 3.28649C2.35753 2.41339 3.12002 1.77389 4.00066 1.80798L5.55046 1.86755C5.60579 1.86957 5.65979 1.85001 5.70085 1.81286L6.84929 0.770869ZM6.74968 10.1547L4.82585 7.84606L3.67351 8.807L6.17351 11.807C6.31591 11.9778 6.52734 12.0764 6.74968 12.0765C6.97206 12.0765 7.18336 11.9777 7.32585 11.807L12.3259 5.807L11.1735 4.84606L6.74968 10.1547Z" fill="#292A2E"/>
</svg>
