<svg width="16" height="17" viewBox="0 0 16 17" fill="none" xmlns="http://www.w3.org/2000/svg">
<path fill-rule="evenodd" clip-rule="evenodd" d="M6.58593 0.952438C7.36699 0.171486 8.63304 0.17142 9.41405 0.952438L15.3965 6.93486C16.1772 7.7159 16.1773 8.98202 15.3965 9.76299L9.41405 15.7454C8.63309 16.5263 7.36697 16.5261 6.58593 15.7454L0.603508 9.76299C-0.177508 8.98197 -0.177447 7.71592 0.603508 6.93486L6.58593 0.952438ZM7.99999 10.5989C7.44771 10.5989 6.99999 11.0466 6.99999 11.5989C7.00012 12.1511 7.44779 12.5989 7.99999 12.5989C8.55211 12.5988 8.99986 12.151 8.99999 11.5989C8.99999 11.0467 8.55219 10.599 7.99999 10.5989ZM7.24999 4.09892V9.34892H8.74999V4.09892H7.24999Z" fill="#292A2E"/>
</svg>
