<svg width="16" height="17" viewBox="0 0 16 17" fill="none" xmlns="http://www.w3.org/2000/svg">
<path d="M11.5179 3.51318C11.5179 3.2371 11.2939 3.01328 11.0179 3.01318H4.98273C4.70659 3.01318 4.48273 3.23704 4.48273 3.51318V13.3188L8.00031 10.8462L8.43098 11.1499L11.5179 13.3188V3.51318ZM13.0179 14.7153C13.0177 15.3034 12.3965 15.6629 11.8958 15.4087L11.7972 15.3491L7.99934 12.6792L4.20344 15.3491C3.68999 15.71 2.98295 15.3428 2.98273 14.7153V3.51318C2.98273 2.40861 3.87817 1.51318 4.98273 1.51318H11.0179C12.1224 1.51328 13.0179 2.40868 13.0179 3.51318V14.7153Z" fill="#292A2E"/>
</svg>
