<svg width="16" height="17" viewBox="0 0 16 17" fill="none" xmlns="http://www.w3.org/2000/svg">
<path d="M13.5 9.53174C13.5 9.2556 13.2761 9.03174 13 9.03174H8.75V13.2817C8.75 13.5579 8.97386 13.7817 9.25 13.7817H13C13.2761 13.7817 13.5 13.5579 13.5 13.2817V9.53174ZM7.25 3.28174C7.25 3.0056 7.02614 2.78174 6.75 2.78174H3C2.72386 2.78174 2.5 3.0056 2.5 3.28174V7.03174C2.5 7.30788 2.72386 7.53174 3 7.53174H7.25V3.28174ZM8.75 7.53174H13C14.1046 7.53174 15 8.42717 15 9.53174V13.2817C15 14.3863 14.1046 15.2817 13 15.2817H9.25C8.14543 15.2817 7.25 14.3863 7.25 13.2817V9.03174H3C1.89543 9.03174 1 8.13631 1 7.03174V3.28174C1 2.17717 1.89543 1.28174 3 1.28174H6.75C7.85457 1.28174 8.75 2.17717 8.75 3.28174V7.53174Z" fill="#292A2E"/>
</svg>
