<svg width="16" height="17" viewBox="0 0 16 17" fill="none" xmlns="http://www.w3.org/2000/svg">
<path fill-rule="evenodd" clip-rule="evenodd" d="M3.9644 2.9765L5.75154 4.76363C7.10401 3.84246 8.89599 3.84246 10.2485 4.76363L12.0356 2.9765C9.67805 1.10484 6.32195 1.10484 3.9644 2.9765ZM13.0963 4.03715L11.3091 5.82429C12.2303 7.17676 12.2303 8.96875 11.3091 10.3212L13.0963 12.1084C14.9679 9.75081 14.9679 6.3947 13.0963 4.03715ZM12.0356 13.169L10.2485 11.3819C8.89599 12.303 7.10401 12.303 5.75154 11.3819L3.9644 13.169C6.32195 15.0407 9.67805 15.0407 12.0356 13.169ZM2.90374 12.1084L4.69088 10.3212C3.76971 8.96875 3.76971 7.17676 4.69088 5.82429L2.90374 4.03716C1.03209 6.3947 1.03209 9.75081 2.90374 12.1084ZM2.34315 2.4159C5.46734 -0.708295 10.5327 -0.708295 13.6569 2.4159C16.781 5.54009 16.781 10.6054 13.6569 13.7296C10.5327 16.8538 5.46734 16.8538 2.34315 13.7296C-0.781049 10.6054 -0.781049 5.54009 2.34315 2.4159ZM9.76777 6.30499C8.79146 5.32868 7.20854 5.32868 6.23223 6.30499C5.25592 7.2813 5.25592 8.86421 6.23223 9.84052C7.20854 10.8168 8.79146 10.8168 9.76777 9.84052C10.7441 8.86421 10.7441 7.2813 9.76777 6.30499Z" fill="#292A2E"/>
</svg>
