<svg width="16" height="17" viewBox="0 0 16 17" fill="none" xmlns="http://www.w3.org/2000/svg">
<path fill-rule="evenodd" clip-rule="evenodd" d="M16 2.40283C16 1.64344 15.3844 1.02783 14.625 1.02783H8.875C8.11561 1.02783 7.5 1.64344 7.5 2.40283V13.6528C7.5 14.4122 8.11561 15.0278 8.875 15.0278H14.625C15.3844 15.0278 16 14.4122 16 13.6528V2.40283ZM14.5 2.52783V13.5278H12.5V2.52783H14.5ZM11 2.52783V13.5278H9V2.52783H11ZM3.21967 4.4975L0.21967 7.4975C-0.0732231 7.7904 -0.0732231 8.26527 0.21967 8.55816L3.21967 11.5582L4.28033 10.4975L2.56066 8.77783H6V7.27783H2.56066L4.28033 5.55816L3.21967 4.4975Z" fill="#292A2E"/>
</svg>
