<svg width="16" height="17" viewBox="0 0 16 17" fill="none" xmlns="http://www.w3.org/2000/svg">
<path fill-rule="evenodd" clip-rule="evenodd" d="M2.375 16.3784C1.61561 16.3784 1 15.7628 1 15.0034L1 9.25342C1 8.49403 1.61561 7.87842 2.375 7.87842L13.625 7.87842C14.3844 7.87842 15 8.49403 15 9.25342L15 15.0034C15 15.7628 14.3844 16.3784 13.625 16.3784L2.375 16.3784ZM2.5 14.8784L13.5 14.8784L13.5 12.8784L2.5 12.8784L2.5 14.8784ZM2.5 11.3784L13.5 11.3784L13.5 9.37842L2.5 9.37842L2.5 11.3784ZM4.46967 3.59809L7.46967 0.598089C7.76256 0.305195 8.23744 0.305195 8.53033 0.598089L11.5303 3.59809L10.4697 4.65875L8.75 2.93908L8.75 6.37842L7.25 6.37842L7.25 2.93908L5.53033 4.65875L4.46967 3.59809Z" fill="#292A2E"/>
</svg>
