<svg width="16" height="17" viewBox="0 0 16 17" fill="none" xmlns="http://www.w3.org/2000/svg">
<path fill-rule="evenodd" clip-rule="evenodd" d="M2.375 0.587402C1.61561 0.587402 1 1.20301 1 1.9624L1 7.7124C1 8.47179 1.61561 9.0874 2.375 9.0874L13.625 9.0874C14.3844 9.0874 15 8.47179 15 7.7124L15 1.9624C15 1.20301 14.3844 0.587402 13.625 0.587402L2.375 0.587402ZM2.5 2.0874L13.5 2.0874L13.5 4.0874L2.5 4.0874L2.5 2.0874ZM2.5 5.5874L13.5 5.5874L13.5 7.5874L2.5 7.5874L2.5 5.5874ZM4.46967 13.3677L7.46967 16.3677C7.61032 16.5084 7.80109 16.5874 8 16.5874C8.19891 16.5874 8.38968 16.5084 8.53033 16.3677L11.5303 13.3677L10.4697 12.3071L8.75 14.0267L8.75 10.5874L7.25 10.5874L7.25 14.0267L5.53033 12.3071L4.46967 13.3677Z" fill="#292A2E"/>
</svg>
