<svg width="16" height="17" viewBox="0 0 16 17" fill="none" xmlns="http://www.w3.org/2000/svg">
<path fill-rule="evenodd" clip-rule="evenodd" d="M5 4.15479H1.49012e-08V2.65479H5C6.10457 2.65479 7 3.55022 7 4.65479V12.6548C7 13.7594 6.10457 14.6548 5 14.6548H1.49012e-08V13.1548H5C5.27614 13.1548 5.5 12.9309 5.5 12.6548V4.65479C5.5 4.37864 5.27614 4.15479 5 4.15479ZM11 4.15479C10.7239 4.15479 10.5 4.37864 10.5 4.65479V12.6548C10.5 12.9309 10.7239 13.1548 11 13.1548H16V14.6548H11C9.89543 14.6548 9 13.7594 9 12.6548V4.65479C9 3.55022 9.89543 2.65479 11 2.65479H16V4.15479H11ZM0.21967 8.12445L2.46967 5.87445L3.53033 6.93512L1.81066 8.65479L3.53033 10.3745L2.46967 11.4351L0.21967 9.18512C-0.0732233 8.89222 -0.0732233 8.41735 0.21967 8.12445ZM14.1893 8.65479L12.4697 6.93512L13.5303 5.87445L15.7803 8.12445C16.0732 8.41735 16.0732 8.89222 15.7803 9.18512L13.5303 11.4351L12.4697 10.3745L14.1893 8.65479Z" fill="#292A2E"/>
</svg>
