<svg width="16" height="16" viewBox="0 0 16 16" fill="none" xmlns="http://www.w3.org/2000/svg">
<path fill-rule="evenodd" clip-rule="evenodd" d="M2.375 16.0054C1.61561 16.0054 1 15.3898 1 14.6304L1 8.88037C1 8.12098 1.61561 7.50537 2.375 7.50537L13.625 7.50537C14.3844 7.50537 15 8.12098 15 8.88037L15 14.6304C15 15.3898 14.3844 16.0054 13.625 16.0054L2.375 16.0054ZM2.5 14.5054L13.5 14.5054L13.5 12.5054L2.5 12.5054L2.5 14.5054ZM2.5 11.0054L13.5 11.0054L13.5 9.00537L2.5 9.00537L2.5 11.0054ZM8.75 3.75537L11 3.75537L11 2.25537L8.75 2.25537L8.75 0.00537143L7.25 0.00537137L7.25 2.25537L5 2.25537L5 3.75537L7.25 3.75537L7.25 6.00537L8.75 6.00537L8.75 3.75537Z" fill="#292A2E"/>
</svg>
