<svg width="16" height="17" viewBox="0 0 16 17" fill="none" xmlns="http://www.w3.org/2000/svg">
<path fill-rule="evenodd" clip-rule="evenodd" d="M2.375 0.191894C1.61561 0.191895 1 0.807503 1 1.56689L1 7.31689C1 8.07629 1.61561 8.69189 2.375 8.69189L13.625 8.69189C14.3844 8.69189 15 8.07629 15 7.31689L15 1.56689C15 0.807502 14.3844 0.191894 13.625 0.191894L2.375 0.191894ZM2.5 1.69189L13.5 1.69189L13.5 3.69189L2.5 3.69189L2.5 1.69189ZM2.5 5.19189L13.5 5.19189L13.5 7.19189L2.5 7.19189L2.5 5.19189ZM11 12.4419L5 12.4419L5 13.9419L11 13.9419L11 12.4419Z" fill="#292A2E"/>
</svg>
