<svg width="16" height="17" viewBox="0 0 16 17" fill="none" xmlns="http://www.w3.org/2000/svg">
<path fill-rule="evenodd" clip-rule="evenodd" d="M2 3.96826C1.72386 3.96826 1.5 4.19212 1.5 4.46826V12.4683C1.5 12.7444 1.72386 12.9683 2 12.9683H14C14.2761 12.9683 14.5 12.7444 14.5 12.4683V4.46826C14.5 4.19212 14.2761 3.96826 14 3.96826H2ZM0 4.46826C0 3.36369 0.89543 2.46826 2 2.46826H14C15.1046 2.46826 16 3.36369 16 4.46826V12.4683C16 13.5728 15.1046 14.4683 14 14.4683H2C0.895431 14.4683 0 13.5728 0 12.4683V4.46826ZM6.93934 8.46826L5.21967 6.74859L6.28033 5.68793L8 7.4076L9.71967 5.68793L10.7803 6.74859L9.06066 8.46826L10.7803 10.1879L9.71967 11.2486L8 9.52892L6.28033 11.2486L5.21967 10.1879L6.93934 8.46826Z" fill="#292A2E"/>
</svg>
