<svg width="16" height="17" viewBox="0 0 16 17" fill="none" xmlns="http://www.w3.org/2000/svg">
<path fill-rule="evenodd" clip-rule="evenodd" d="M2 3.75928C1.72386 3.75928 1.5 3.98314 1.5 4.25928V12.2593C1.5 12.5354 1.72386 12.7593 2 12.7593H7V14.2593H2C0.89543 14.2593 0 13.3638 0 12.2593V4.25928C0 3.15471 0.89543 2.25928 2 2.25928H7V3.75928H2ZM14 3.75928H9V2.25928H14C15.1046 2.25928 16 3.15471 16 4.25928V12.2593C16 13.3638 15.1046 14.2593 14 14.2593H9V12.7593H14C14.2761 12.7593 14.5 12.5354 14.5 12.2593V4.25928C14.5 3.98313 14.2761 3.75928 14 3.75928ZM5.18934 8.25928L3.46967 6.53961L4.53033 5.47895L6.78033 7.72895C7.07322 8.02184 7.07322 8.49671 6.78033 8.78961L4.53033 11.0396L3.46967 9.97895L5.18934 8.25928ZM9.21967 7.72895L11.4697 5.47895L12.5303 6.53961L10.8107 8.25928L12.5303 9.97895L11.4697 11.0396L9.21967 8.78961C8.92678 8.49671 8.92678 8.02184 9.21967 7.72895Z" fill="#292A2E"/>
</svg>
