<svg width="16" height="17" viewBox="0 0 16 17" fill="none" xmlns="http://www.w3.org/2000/svg">
<path fill-rule="evenodd" clip-rule="evenodd" d="M2.375 0.400879C1.61561 0.400879 1 1.01649 1 1.77588L1 7.52588C1 8.28527 1.61561 8.90088 2.375 8.90088L13.625 8.90088C14.3844 8.90088 15 8.28527 15 7.52588L15 1.77588C15 1.01649 14.3844 0.400878 13.625 0.400878L2.375 0.400879ZM2.5 1.90088L13.5 1.90088L13.5 3.90088L2.5 3.90088L2.5 1.90088ZM2.5 5.40088L13.5 5.40088L13.5 7.40088L2.5 7.40088L2.5 5.40088ZM8.75 12.6509L11 12.6509L11 14.1509L8.75 14.1509L8.75 16.4009L7.25 16.4009L7.25 14.1509L5 14.1509L5 12.6509L7.25 12.6509L7.25 10.4009L8.75 10.4009L8.75 12.6509Z" fill="#292A2E"/>
</svg>
