<svg width="16" height="17" viewBox="0 0 16 17" fill="none" xmlns="http://www.w3.org/2000/svg">
<path fill-rule="evenodd" clip-rule="evenodd" d="M0 3.19385C0 2.43446 0.615608 1.81885 1.375 1.81885H7.125C7.88439 1.81885 8.5 2.43446 8.5 3.19385V14.4438C8.5 15.2032 7.88439 15.8188 7.125 15.8188H1.375C0.615608 15.8188 0 15.2032 0 14.4438V3.19385ZM1.5 3.31885V14.3188H3.5V3.31885H1.5ZM5 3.31885V14.3188H7V3.31885H5ZM12.7803 5.28852L15.7803 8.28852C16.0732 8.58141 16.0732 9.05628 15.7803 9.34918L12.7803 12.3492L11.7197 11.2885L13.4393 9.56885H10V8.06885H13.4393L11.7197 6.34918L12.7803 5.28852Z" fill="#292A2E"/>
</svg>
