<svg width="16" height="17" viewBox="0 0 16 17" fill="none" xmlns="http://www.w3.org/2000/svg">
<path d="M11 4.77393C10.4477 4.77393 10 5.22164 10 5.77393C10 6.32621 10.4477 6.77393 11 6.77393C11.5523 6.77393 12 6.32621 12 5.77393C12 5.22164 11.5523 4.77393 11 4.77393Z" fill="#292A2E"/>
<path fill-rule="evenodd" clip-rule="evenodd" d="M9.28554 1.77393C8.42358 1.77393 7.59693 2.11634 6.98744 2.72583L1.60355 8.10971C0.822505 8.89076 0.822508 10.1571 1.60356 10.9381L5.83579 15.1704C6.61684 15.9514 7.88317 15.9514 8.66422 15.1704L14.0481 9.78649C14.6576 9.17699 15 8.35035 15 7.48839V3.77393C15 2.66936 14.1046 1.77393 13 1.77393H9.28554ZM8.0481 3.78649C8.37629 3.4583 8.82141 3.27393 9.28554 3.27393H13C13.2761 3.27393 13.5 3.49778 13.5 3.77393V7.48839C13.5 7.95252 13.3156 8.39764 12.9874 8.72583L7.60356 14.1097C7.40829 14.305 7.09171 14.305 6.89645 14.1097L2.66422 9.87748C2.46895 9.68222 2.46895 9.36563 2.66421 9.17037L8.0481 3.78649Z" fill="#292A2E"/>
</svg>
