<svg width="16" height="17" viewBox="0 0 16 17" fill="none" xmlns="http://www.w3.org/2000/svg">
<path fill-rule="evenodd" clip-rule="evenodd" d="M1.5428 7.81482H4V9.31482H1.5428C1.88638 12.3053 4.2595 14.6784 7.25 15.022V12.5649H8.75V15.022C11.7405 14.6784 14.1136 12.3053 14.4572 9.31482H12V7.81482H14.4572C14.1136 4.82432 11.7405 2.4512 8.75 2.10762V4.5649H7.25V2.10762C4.2595 2.4512 1.88638 4.82432 1.5428 7.81482ZM0 8.56482C-3.57628e-07 4.14654 3.58172 0.564819 8 0.564819C12.4183 0.564819 16 4.14654 16 8.56482C16 12.9831 12.4183 16.5648 8 16.5648C3.58172 16.5648 1.78814e-07 12.9831 0 8.56482Z" fill="#292A2E"/>
</svg>
