<svg width="16" height="17" viewBox="0 0 16 17" fill="none" xmlns="http://www.w3.org/2000/svg">
<path fill-rule="evenodd" clip-rule="evenodd" d="M1 3.93799C1 2.83342 1.89543 1.93799 3 1.93799H11C12.1046 1.93799 13 2.83342 13 3.93799V11.938C13 13.0426 12.1046 13.938 11 13.938H3C1.89543 13.938 1 13.0426 1 11.938V3.93799ZM3 3.43799C2.72386 3.43799 2.5 3.66185 2.5 3.93799V11.938C2.5 12.2141 2.72386 12.438 3 12.438H11C11.2761 12.438 11.5 12.2141 11.5 11.938V3.93799C11.5 3.66185 11.2761 3.43799 11 3.43799H3ZM9.42632 4.95489L10.5737 5.92109L6.57368 10.6711C6.43118 10.8403 6.22123 10.938 6 10.938C5.77877 10.938 5.56882 10.8403 5.42632 10.6711L3.42632 8.29609L4.57368 7.32989L6 9.02364L9.42632 4.95489Z" fill="#292A2E"/>
<path fill-rule="evenodd" clip-rule="evenodd" d="M16 6.93799V13.688C16 15.4829 14.5449 16.938 12.75 16.938H6V15.438H12.75C13.7165 15.438 14.5 14.6545 14.5 13.688V6.93799H16Z" fill="#292A2E"/>
</svg>
