<svg width="16" height="17" viewBox="0 0 16 17" fill="none" xmlns="http://www.w3.org/2000/svg">
<path fill-rule="evenodd" clip-rule="evenodd" d="M8.02811 1.64703L8 1.64697V0.146973L8.03444 0.147045C9.99109 0.155309 11.7835 0.866904 13.1693 2.04115L12.1995 3.18554C11.073 2.23094 9.61879 1.65375 8.02811 1.64703ZM5.74972 2.04682C4.31031 2.57801 3.10907 3.60537 2.35511 4.92187L1.05346 4.17641C1.98044 2.55781 3.45687 1.29408 5.2304 0.639585L5.74972 2.04682ZM14.5 8.14697C14.5 6.9712 14.1885 5.87046 13.644 4.92036L14.9455 4.17455C15.6166 5.34565 16 6.70267 16 8.14697C16 8.63121 15.9569 9.10601 15.8741 9.56757L14.3977 9.3028C14.4648 8.92823 14.5 8.54202 14.5 8.14697ZM1.59344 7.04185C1.53206 7.40053 1.5 7.76971 1.5 8.14697C1.5 9.34096 1.82124 10.4576 2.38152 11.4178L1.08598 12.1738C0.395427 10.9904 0 9.61374 0 8.14697C0 7.68456 0.0393113 7.23074 0.114937 6.78882L1.59344 7.04185ZM10.1975 14.2664C11.6422 13.7475 12.8516 12.7301 13.6165 11.4211L14.9116 12.1779C13.9712 13.7872 12.4848 15.0386 10.7045 15.6781L10.1975 14.2664ZM3.85375 13.1531C4.97932 14.0865 6.42321 14.647 8 14.647V16.147C6.0608 16.147 4.28099 15.456 2.89625 14.3077L3.85375 13.1531Z" fill="#292A2E"/>
</svg>
