<svg width="16" height="17" viewBox="0 0 16 17" fill="none" xmlns="http://www.w3.org/2000/svg">
<path fill-rule="evenodd" clip-rule="evenodd" d="M1.54281 8.00138H9.18931L6.96968 5.7818L8.03032 4.72113L11.5303 8.22104C11.671 8.36169 11.75 8.55246 11.75 8.75137C11.75 8.95029 11.671 9.14105 11.5303 9.28171L8.03033 12.7817L6.96967 11.721L9.18934 9.50138H1.54279C1.9146 12.738 4.66377 15.2515 8 15.2515C11.5899 15.2515 14.5 12.3413 14.5 8.75146C14.5 5.16161 11.5899 2.25146 8 2.25146C4.66384 2.25146 1.9147 4.76484 1.54281 8.00138ZM0 8.75146C0 4.33319 3.58172 0.751465 8 0.751465C12.4183 0.751465 16 4.33319 16 8.75146C16 13.1697 12.4183 16.7515 8 16.7515C3.58172 16.7515 0 13.1697 0 8.75146Z" fill="#292A2E"/>
</svg>
