<svg width="16" height="17" viewBox="0 0 16 17" fill="none" xmlns="http://www.w3.org/2000/svg">
<path fill-rule="evenodd" clip-rule="evenodd" d="M1 3.96045C1 2.85588 1.89543 1.96045 3 1.96045H13C14.1046 1.96045 15 2.85588 15 3.96045V13.9604C15 15.065 14.1046 15.9604 13 15.9604H3C1.89543 15.9604 1 15.065 1 13.9604V3.96045ZM3 3.46045C2.72386 3.46045 2.5 3.68431 2.5 3.96045V13.9604C2.5 14.2366 2.72386 14.4604 3 14.4604H13C13.2761 14.4604 13.5 14.2366 13.5 13.9604V3.96045C13.5 3.68431 13.2761 3.46045 13 3.46045H3ZM12.3262 6.44059L7.32617 12.4406C7.18367 12.6116 6.97258 12.7104 6.75 12.7104C6.52742 12.7104 6.31633 12.6116 6.17383 12.4406L3.67383 9.44059L4.82617 8.48031L6.75 10.7889L11.1738 5.48031L12.3262 6.44059Z" fill="#292A2E"/>
</svg>
