<svg width="16" height="17" viewBox="0 0 16 17" fill="none" xmlns="http://www.w3.org/2000/svg">
<path fill-rule="evenodd" clip-rule="evenodd" d="M4 2.8335C3.17157 2.8335 2.5 3.50507 2.5 4.3335C2.5 5.16192 3.17157 5.8335 4 5.8335C4.82843 5.8335 5.5 5.16192 5.5 4.3335C5.5 3.50507 4.82843 2.8335 4 2.8335ZM1 4.3335C1 2.67664 2.34315 1.3335 4 1.3335C5.65685 1.3335 7 2.67664 7 4.3335C7 5.99035 5.65685 7.3335 4 7.3335C2.34315 7.3335 1 5.99035 1 4.3335ZM12 2.8335C11.1716 2.8335 10.5 3.50507 10.5 4.3335C10.5 5.16192 11.1716 5.8335 12 5.8335C12.8284 5.8335 13.5 5.16192 13.5 4.3335C13.5 3.50507 12.8284 2.8335 12 2.8335ZM9 4.3335C9 2.67664 10.3431 1.3335 12 1.3335C13.6569 1.3335 15 2.67664 15 4.3335C15 5.99035 13.6569 7.3335 12 7.3335C10.3431 7.3335 9 5.99035 9 4.3335ZM3.75 9.8335C2.50736 9.8335 1.5 10.8409 1.5 12.0835V13.3335C1.5 13.6096 1.72386 13.8335 2 13.8335H6V15.3335H2C0.89543 15.3335 0 14.4381 0 13.3335V12.0835C0 10.0124 1.67893 8.3335 3.75 8.3335H4.89872C6.47562 8.3335 7.88405 9.32 8.42294 10.802L8.98675 12.3524C9.31008 13.2416 10.1551 13.8335 11.1013 13.8335H14C14.2761 13.8335 14.5 13.6096 14.5 13.3335V12.0835C14.5 10.8409 13.4926 9.8335 12.25 9.8335H12C11.2249 9.8335 10.7417 9.89321 10.4685 9.94525C10.3322 9.9712 10.2496 9.99498 10.2099 10.0079C10.1901 10.0143 10.1811 10.0179 10.1817 10.0177L10.1894 10.0143L10.1983 10.0102L10.204 10.0075L10.2071 10.006L10.2087 10.0052L10.2096 10.0047C10.21 10.0045 10.2104 10.0043 9.875 9.3335C9.53959 8.66268 9.54002 8.66246 9.54045 8.66225L9.54132 8.66182L9.54308 8.66094L9.54676 8.65914L9.55464 8.65535L9.5726 8.64704C9.58556 8.64119 9.60053 8.63474 9.61765 8.62779C9.65186 8.61391 9.69467 8.59803 9.74714 8.58102C9.85199 8.54701 9.99591 8.50829 10.1878 8.47174C10.5708 8.39878 11.1501 8.3335 12 8.3335H12.25C14.3211 8.3335 16 10.0124 16 12.0835V13.3335C16 14.4381 15.1046 15.3335 14 15.3335H11.1013C9.52438 15.3335 8.11595 14.347 7.57706 12.865L7.01325 11.3146C6.68992 10.4254 5.84486 9.8335 4.89872 9.8335H3.75Z" fill="#292A2E"/>
</svg>
