<svg width="16" height="17" viewBox="0 0 16 17" fill="none" xmlns="http://www.w3.org/2000/svg">
<path fill-rule="evenodd" clip-rule="evenodd" d="M13.375 5.45264L-6.62458e-08 5.45264L0 3.95264L13.375 3.95264C14.8247 3.95264 16 5.12789 16 6.57764L16 9.32764C16 10.7774 14.8247 11.9526 13.375 11.9526L9.56066 11.9526L11.2803 13.6723L10.2197 14.733L7.21967 11.733C6.92678 11.4401 6.92678 10.9652 7.21967 10.6723L10.2197 7.67231L11.2803 8.73297L9.56066 10.4526L13.375 10.4526C13.9963 10.4526 14.5 9.94896 14.5 9.32764L14.5 6.57764C14.5 5.95632 13.9963 5.45264 13.375 5.45264ZM5 11.9526L-3.5331e-07 11.9526L-2.87065e-07 10.4526L5 10.4526L5 11.9526Z" fill="#292A2E"/>
</svg>
