<svg width="16" height="17" viewBox="0 0 16 17" fill="none" xmlns="http://www.w3.org/2000/svg">
<path d="M7.46557 3.37061C6.78602 3.37061 6.1478 3.69693 5.74993 4.24783C5.21348 4.9906 5.23919 5.92523 5.6777 6.62061H4.03156C3.6857 5.5737 3.81151 4.36984 4.53391 3.3696C5.21379 2.42823 6.30436 1.87061 7.46557 1.87061H8.39922C9.63884 1.87061 10.8113 2.4341 11.5856 3.40208L10.4143 4.33913C9.92462 3.72696 9.18317 3.37061 8.39922 3.37061H7.46557Z" fill="#292A2E"/>
<path d="M10.9749 11.1206H12.5559C12.7714 11.9699 12.6981 12.9014 12.2684 13.7609C11.6219 15.0539 10.3004 15.8706 8.85478 15.8706H8.18702C6.40867 15.8706 4.79713 14.8233 4.07487 13.1982L4.06464 13.1752L5.43536 12.566L5.44559 12.589C5.92709 13.6724 7.00146 14.3706 8.18702 14.3706H8.85478C9.73221 14.3706 10.5343 13.8749 10.9267 13.0901C11.2512 12.4411 11.2408 11.7246 10.9749 11.1206Z" fill="#292A2E"/>
<path d="M15 8.12061H1V9.62061H15V8.12061Z" fill="#292A2E"/>
</svg>
