<svg width="16" height="17" viewBox="0 0 16 17" fill="none" xmlns="http://www.w3.org/2000/svg">
<path fill-rule="evenodd" clip-rule="evenodd" d="M3 2.64502C3 2.0237 3.50368 1.52002 4.125 1.52002H8.75C11.0036 1.52002 13 3.14566 13 5.58252C13 6.56211 12.6774 7.41062 12.1451 8.07512C13.2476 8.77123 14 9.9615 14 11.4575C14 13.8944 12.0036 15.52 9.75 15.52H4.125C3.50368 15.52 3 15.0163 3 14.395V2.64502ZM8.75 7.39502C9.94818 7.39502 10.75 6.59744 10.75 5.58252C10.75 4.5676 9.94818 3.77002 8.75 3.77002H5.25V7.39502H8.75ZM5.25 9.64502H9.75C10.9482 9.64502 11.75 10.4426 11.75 11.4575C11.75 12.4724 10.9482 13.27 9.75 13.27H5.25V9.64502Z" fill="#292A2E"/>
</svg>
