<svg width="16" height="17" viewBox="0 0 16 17" fill="none" xmlns="http://www.w3.org/2000/svg">
<path fill-rule="evenodd" clip-rule="evenodd" d="M4.6699 0.57399C4.77747 0.277231 5.05934 0.0795898 5.375 0.0795898H6.125C6.44066 0.0795898 6.72253 0.277231 6.8301 0.57399L10.4551 10.574C10.4848 10.6559 10.5 10.7424 10.5 10.8296V11.0796H9.06035L9.0449 11.0852L9.04287 11.0796H9V10.9613L7.95537 8.07959H3.54463L2.5 10.9613V11.0796H2.45713L2.4551 11.0852L2.43966 11.0796H1V10.8296C1 10.7424 1.01519 10.6559 1.0449 10.574L4.6699 0.57399ZM4.08838 6.57959H7.41162L5.75 1.99582L4.08838 6.57959Z" fill="#292A2E"/>
<path fill-rule="evenodd" clip-rule="evenodd" d="M13.9281 9.34436L15.0719 10.3148L10.4052 15.8148C10.2627 15.9828 10.0536 16.0796 9.83333 16.0796C9.61308 16.0796 9.40395 15.9828 9.26145 15.8148L6.92812 13.0648L8.07188 12.0944L9.83333 14.1704L13.9281 9.34436Z" fill="#292A2E"/>
</svg>
