<svg width="16" height="17" viewBox="0 0 16 17" fill="none" xmlns="http://www.w3.org/2000/svg">
<path fill-rule="evenodd" clip-rule="evenodd" d="M15 3.20655L1 3.20654L1 1.70654L15 1.70655L15 3.20655ZM2.81066 8.70654L5.03033 6.48687L3.96967 5.42621L1.21967 8.17621C0.926777 8.46911 0.926777 8.94398 1.21967 9.23687L3.96967 11.9869L5.03033 10.9262L2.81066 8.70654ZM15 7.37321L8 7.37321L8 5.87321L15 5.87321L15 7.37321ZM15 11.5399L8 11.5399L8 10.0399L15 10.0399L15 11.5399ZM15 15.7065L0.999999 15.7065L0.999999 14.2065L15 14.2065L15 15.7065Z" fill="#292A2E"/>
</svg>
