<svg width="16" height="17" viewBox="0 0 16 17" fill="none" xmlns="http://www.w3.org/2000/svg">
<path fill-rule="evenodd" clip-rule="evenodd" d="M15 2.99756L1 2.99756L1 1.49756L15 1.49756L15 2.99756ZM2.03033 5.21723L4.78033 7.96723C4.92099 8.10788 5 8.29865 5 8.49756C5 8.69647 4.92099 8.88724 4.78033 9.02789L2.03033 11.7779L0.969673 10.7172L3.18934 8.49756L0.969673 6.27789L2.03033 5.21723ZM15 7.16423L8 7.16423L8 5.66423L15 5.66423L15 7.16423ZM15 11.3309L8 11.3309L8 9.83089L15 9.83089L15 11.3309ZM15 13.9976L15 15.4976L1 15.4976L1 13.9976L15 13.9976Z" fill="#292A2E"/>
</svg>
