<svg width="16" height="17" viewBox="0 0 16 17" fill="none" xmlns="http://www.w3.org/2000/svg">
<path fill-rule="evenodd" clip-rule="evenodd" d="M8 1.74365C4.41015 1.74365 1.5 4.6538 1.5 8.24365C1.5 11.8335 4.41015 14.7437 8 14.7437C11.5899 14.7437 14.5 11.8335 14.5 8.24365C14.5 4.6538 11.5899 1.74365 8 1.74365ZM0 8.24365C0 3.82537 3.58172 0.243652 8 0.243652C12.4183 0.243652 16 3.82537 16 8.24365C16 12.6619 12.4183 16.2437 8 16.2437C3.58172 16.2437 0 12.6619 0 8.24365ZM7.25 3.24365H8C10.7614 3.24365 13 5.48223 13 8.24365C13 11.0051 10.7614 13.2437 8 13.2437H7.25V3.24365Z" fill="#292A2E"/>
</svg>
