<svg width="16" height="17" viewBox="0 0 16 17" fill="none" xmlns="http://www.w3.org/2000/svg">
<path fill-rule="evenodd" clip-rule="evenodd" d="M12.75 2.93018C12.3358 2.93018 12 3.26596 12 3.68018C12 4.09439 12.3358 4.43018 12.75 4.43018C13.1642 4.43018 13.5 4.09439 13.5 3.68018C13.5 3.26596 13.1642 2.93018 12.75 2.93018ZM10.628 2.93018C10.9369 2.05628 11.7703 1.43018 12.75 1.43018C13.9926 1.43018 15 2.43754 15 3.68018C15 4.92282 13.9926 5.93018 12.75 5.93018C11.7703 5.93018 10.9369 5.30407 10.628 4.43018H9.8125C9.2257 4.43018 8.75 4.90587 8.75 5.49268V11.3677C8.75 12.7829 7.60273 13.9302 6.1875 13.9302H5.37197C5.06309 14.8041 4.22966 15.4302 3.25 15.4302C2.00736 15.4302 1 14.4228 1 13.1802C1 11.9375 2.00736 10.9302 3.25 10.9302C4.22966 10.9302 5.06309 11.5563 5.37197 12.4302H6.1875C6.7743 12.4302 7.25 11.9545 7.25 11.3677V5.49268C7.25 4.07745 8.39727 2.93018 9.8125 2.93018H10.628ZM3.25 12.4302C2.83579 12.4302 2.5 12.766 2.5 13.1802C2.5 13.5944 2.83579 13.9302 3.25 13.9302C3.66421 13.9302 4 13.5944 4 13.1802C4 12.766 3.66421 12.4302 3.25 12.4302Z" fill="#292A2E"/>
</svg>
