<svg width="16" height="17" viewBox="0 0 16 17" fill="none" xmlns="http://www.w3.org/2000/svg">
<path fill-rule="evenodd" clip-rule="evenodd" d="M5.39465 5.32568H0V3.82568H4V1.82568H5.5V3.82568H9.5V5.32568H6.91097C6.6587 7.09685 6.20745 8.6505 5.57281 10.0102C6.04415 10.5328 6.54626 10.984 7.05191 11.334L6.19809 12.5673C5.71927 12.2358 5.25634 11.8395 4.82062 11.3982C4.00665 12.7017 2.99878 13.7814 1.82953 14.6723L0.920468 13.4791C2.06691 12.6056 3.03284 11.5313 3.78707 10.2029C3.0633 9.2502 2.45477 8.1744 2.04775 7.08903L3.45225 6.56234C3.71713 7.26869 4.08539 7.98046 4.52477 8.64942C4.90984 7.6672 5.20419 6.56472 5.39465 5.32568ZM10.5646 7.27108C10.685 7.00023 10.9536 6.82568 11.25 6.82568H11.75C12.0464 6.82568 12.315 7.00023 12.4354 7.27108L15.9354 15.1461C15.978 15.242 16 15.3457 16 15.4507V15.8257H14.5V15.6098L13.707 13.8257H9.29296L8.5 15.6098V15.8257H7V15.4507C7 15.3457 7.02202 15.242 7.06464 15.1461L10.5646 7.27108ZM9.95963 12.3257H13.0404L11.5 8.85985L9.95963 12.3257Z" fill="#292A2E"/>
</svg>
