<svg width="16" height="17" viewBox="0 0 16 17" fill="none" xmlns="http://www.w3.org/2000/svg">
<path fill-rule="evenodd" clip-rule="evenodd" d="M12.7803 0.351074L15.7803 3.35107C16.0732 3.64397 16.0732 4.11884 15.7803 4.41173L12.7803 7.41173L11.7197 6.35107L14.1893 3.8814L11.7197 1.41173L12.7803 0.351074Z" fill="#292A2E"/>
<path fill-rule="evenodd" clip-rule="evenodd" d="M9.28033 0.351074L12.2803 3.35107C12.5732 3.64397 12.5732 4.11884 12.2803 4.41173L9.28033 7.41173L8.21967 6.35107L9.93934 4.6314H4.25C3.2835 4.6314 2.5 5.41491 2.5 6.3814V9.8814C2.5 10.8479 3.2835 11.6314 4.25 11.6314H5V13.1314H4.25C2.45507 13.1314 1 11.6763 1 9.8814V6.3814C1 4.58648 2.45507 3.1314 4.25 3.1314H9.93934L8.21967 1.41173L9.28033 0.351074Z" fill="#292A2E"/>
<path fill-rule="evenodd" clip-rule="evenodd" d="M7 9.63135H8.75C9.16421 9.63135 9.5 9.96713 9.5 10.3813V16.1313H8V11.1313H7V9.63135Z" fill="#292A2E"/>
<path fill-rule="evenodd" clip-rule="evenodd" d="M15 9.63135H11.75C11.3358 9.63135 11 9.96713 11 10.3813V12.8813C11 13.2956 11.3358 13.6313 11.75 13.6313H13.5V14.6313H11V16.1313H13.625C14.3844 16.1313 15 15.5157 15 14.7563V13.5063C15 12.747 14.3844 12.1313 13.625 12.1313H12.5V11.1313H15V9.63135Z" fill="#292A2E"/>
</svg>
