<svg width="16" height="17" viewBox="0 0 16 17" fill="none" xmlns="http://www.w3.org/2000/svg">
<path fill-rule="evenodd" clip-rule="evenodd" d="M1.81066 4.69488L4.28033 2.22521L3.21967 1.16455L0.21967 4.16455C-0.0732233 4.45744 -0.0732233 4.93232 0.21967 5.22521L3.21967 8.22521L4.28033 7.16455L1.81066 4.69488Z" fill="#292A2E"/>
<path fill-rule="evenodd" clip-rule="evenodd" d="M6.06066 5.44488L7.78033 7.16455L6.71967 8.22521L3.71967 5.22521C3.42678 4.93232 3.42678 4.45744 3.71967 4.16455L6.71967 1.16455L7.78033 2.22521L6.06066 3.94488H11.75C13.5449 3.94488 15 5.39996 15 7.19488V10.6949C15 12.4898 13.5449 13.9449 11.75 13.9449H11V12.4449H11.75C12.7165 12.4449 13.5 11.6614 13.5 10.6949V7.19488C13.5 6.22838 12.7165 5.44488 11.75 5.44488H6.06066Z" fill="#292A2E"/>
<path fill-rule="evenodd" clip-rule="evenodd" d="M1 10.4448H2.75C3.16421 10.4448 3.5 10.7806 3.5 11.1948V16.9448H2V11.9448H1V10.4448Z" fill="#292A2E"/>
<path fill-rule="evenodd" clip-rule="evenodd" d="M9 10.4448H5.75C5.33579 10.4448 5 10.7806 5 11.1948V13.6948C5 14.109 5.33579 14.4448 5.75 14.4448H7.5V15.4448H5V16.9448H7.625C8.38439 16.9448 9 16.3292 9 15.5698V14.3198C9 13.5604 8.38439 12.9448 7.625 12.9448H6.5V11.9448H9V10.4448Z" fill="#292A2E"/>
</svg>
