<svg width="16" height="17" viewBox="0 0 16 17" fill="none" xmlns="http://www.w3.org/2000/svg">
<path fill-rule="evenodd" clip-rule="evenodd" d="M13 1.19873L13 15.1987H11.5V8.90685C11.3531 9.24304 11.0962 9.53984 10.7292 9.73822L4.58215 13.0609C3.41617 13.6912 2 12.8469 2 11.5214V4.87601C2 3.55059 3.41617 2.70627 4.58216 3.33653L10.7292 6.65924C11.0962 6.85762 11.3531 7.15442 11.5 7.49061V1.19873H13ZM3.86888 4.65609C3.70231 4.56605 3.5 4.68667 3.5 4.87601V11.5214C3.5 11.7108 3.70231 11.8314 3.86888 11.7414L10.0159 8.41866C10.1907 8.32416 10.1907 8.0733 10.0159 7.9788L3.86888 4.65609Z" fill="#292A2E"/>
</svg>
