<svg width="16" height="17" viewBox="0 0 16 17" fill="none" xmlns="http://www.w3.org/2000/svg">
<path fill-rule="evenodd" clip-rule="evenodd" d="M3 1.7583L3 15.7583H4.5V9.46642C4.64688 9.80261 4.90382 10.0994 5.27082 10.2978L11.4178 13.6205C12.5838 14.2508 14 13.4064 14 12.081V5.43558C14 4.11016 12.5838 3.26584 11.4178 3.8961L5.27082 7.21881C4.90382 7.41719 4.64688 7.71399 4.5 8.05018V1.7583H3ZM12.1311 5.21566C12.2977 5.12562 12.5 5.24624 12.5 5.43558V12.081C12.5 12.2704 12.2977 12.391 12.1311 12.3009L5.9841 8.97823C5.80927 8.88373 5.80927 8.63287 5.98409 8.53837L12.1311 5.21566Z" fill="#292A2E"/>
</svg>
