<svg width="16" height="17" viewBox="0 0 16 17" fill="none" xmlns="http://www.w3.org/2000/svg">
<path fill-rule="evenodd" clip-rule="evenodd" d="M2 3.17627C2 2.0717 2.89543 1.17627 4 1.17627H5C6.10457 1.17627 7 2.0717 7 3.17627V13.1763C7 14.2808 6.10457 15.1763 5 15.1763H4C2.89543 15.1763 2 14.2808 2 13.1763V3.17627ZM9 3.17627C9 2.0717 9.89543 1.17627 11 1.17627H12C13.1046 1.17627 14 2.0717 14 3.17627V13.1763C14 14.2808 13.1046 15.1763 12 15.1763H11C9.89543 15.1763 9 14.2808 9 13.1763V3.17627Z" fill="#292A2E"/>
</svg>
