<svg width="16" height="17" viewBox="0 0 16 17" fill="none" xmlns="http://www.w3.org/2000/svg">
<path fill-rule="evenodd" clip-rule="evenodd" d="M2 4.80322C1.72386 4.80322 1.5 5.02708 1.5 5.30322V12.3032C1.5 12.5794 1.72386 12.8032 2 12.8032H10C10.2761 12.8032 10.5 12.5794 10.5 12.3032V5.30322C10.5 5.02708 10.2761 4.80322 10 4.80322H2ZM0 5.30322C0 4.19865 0.895431 3.30322 2 3.30322H10C11.1046 3.30322 12 4.19865 12 5.30322V5.52084L14.1372 4.31868C14.9704 3.84997 16 4.45211 16 5.40815V12.1983C16 13.1543 14.9704 13.7565 14.1372 13.2878L12 12.0856V12.3032C12 13.4078 11.1046 14.3032 10 14.3032H2C0.895431 14.3032 0 13.4078 0 12.3032V5.30322ZM12 10.3646L14.5 11.7708V5.83561L12 7.24186V10.3646Z" fill="#292A2E"/>
</svg>
