<svg width="16" height="17" viewBox="0 0 16 17" fill="none" xmlns="http://www.w3.org/2000/svg">
<path fill-rule="evenodd" clip-rule="evenodd" d="M1.81066 4.4859L4.28033 2.01623L3.21967 0.955566L0.21967 3.95557C-0.0732233 4.24846 -0.0732233 4.72333 0.21967 5.01623L3.21967 8.01623L4.28033 6.95557L1.81066 4.4859Z" fill="#292A2E"/>
<path fill-rule="evenodd" clip-rule="evenodd" d="M6.06066 5.2359L7.78033 6.95557L6.71967 8.01623L3.71967 5.01623C3.42678 4.72333 3.42678 4.24846 3.71967 3.95557L6.71967 0.955566L7.78033 2.01623L6.06066 3.7359H11.75C13.5449 3.7359 15 5.19097 15 6.9859V10.4859C15 12.2808 13.5449 13.7359 11.75 13.7359H11V12.2359H11.75C12.7165 12.2359 13.5 11.4524 13.5 10.4859V6.9859C13.5 6.0194 12.7165 5.2359 11.75 5.2359H6.06066Z" fill="#292A2E"/>
<path fill-rule="evenodd" clip-rule="evenodd" d="M1 10.2358H2.75C3.16421 10.2358 3.5 10.5716 3.5 10.9858V16.7358H2V11.7358H1V10.2358Z" fill="#292A2E"/>
<path fill-rule="evenodd" clip-rule="evenodd" d="M9 11.6108C9 10.8514 8.38439 10.2358 7.625 10.2358H5.875C5.11561 10.2358 4.5 10.8514 4.5 11.6108V15.3608C4.5 16.1202 5.11561 16.7358 5.875 16.7358H7.625C8.38439 16.7358 9 16.1202 9 15.3608V11.6108ZM7.5 11.7358V15.2358H6V11.7358H7.5Z" fill="#292A2E"/>
</svg>
