<svg width="16" height="17" viewBox="0 0 16 17" fill="none" xmlns="http://www.w3.org/2000/svg">
<path fill-rule="evenodd" clip-rule="evenodd" d="M2 3.38525C2 2.28068 2.89543 1.38525 4 1.38525H5C6.10457 1.38525 7 2.28068 7 3.38525V13.3853C7 14.4898 6.10457 15.3853 5 15.3853H4C2.89543 15.3853 2 14.4898 2 13.3853V3.38525ZM4 2.88525C3.72386 2.88525 3.5 3.10911 3.5 3.38525V13.3853C3.5 13.6614 3.72386 13.8853 4 13.8853H5C5.27614 13.8853 5.5 13.6614 5.5 13.3853V3.38525C5.5 3.10911 5.27614 2.88525 5 2.88525H4ZM9 3.38525C9 2.28068 9.89543 1.38525 11 1.38525H12C13.1046 1.38525 14 2.28068 14 3.38525V13.3853C14 14.4898 13.1046 15.3853 12 15.3853H11C9.89543 15.3853 9 14.4898 9 13.3853V3.38525ZM11 2.88525C10.7239 2.88525 10.5 3.10911 10.5 3.38525V13.3853C10.5 13.6614 10.7239 13.8853 11 13.8853H12C12.2761 13.8853 12.5 13.6614 12.5 13.3853V3.38525C12.5 3.10911 12.2761 2.88525 12 2.88525H11Z" fill="#292A2E"/>
</svg>
