<svg width="16" height="17" viewBox="0 0 16 17" fill="none" xmlns="http://www.w3.org/2000/svg">
<path fill-rule="evenodd" clip-rule="evenodd" d="M1 3.31787C1 2.2133 1.89543 1.31787 3 1.31787H13C14.1046 1.31787 15 2.2133 15 3.31787V13.3179C15 14.4224 14.1046 15.3179 13 15.3179H3C1.89543 15.3179 1 14.4224 1 13.3179V3.31787ZM3 2.81787C2.72386 2.81787 2.5 3.04173 2.5 3.31787V13.3179C2.5 13.594 2.72386 13.8179 3 13.8179H13C13.2761 13.8179 13.5 13.594 13.5 13.3179V3.31787C13.5 3.04173 13.2761 2.81787 13 2.81787H3Z" fill="#292A2E"/>
</svg>
