<svg width="16" height="17" viewBox="0 0 16 17" fill="none" xmlns="http://www.w3.org/2000/svg">
<path fill-rule="evenodd" clip-rule="evenodd" d="M1 3.10889C1 2.00432 1.89543 1.10889 3 1.10889H13C14.1046 1.10889 15 2.00432 15 3.10889V13.1089C15 14.2135 14.1046 15.1089 13 15.1089H3C1.89543 15.1089 1 14.2135 1 13.1089V3.10889ZM3 2.60889C2.72386 2.60889 2.5 2.83274 2.5 3.10889V13.1089C2.5 13.385 2.72386 13.6089 3 13.6089H13C13.2761 13.6089 13.5 13.385 13.5 13.1089V3.10889C13.5 2.83274 13.2761 2.60889 13 2.60889H3Z" fill="#292A2E"/>
<path d="M2.5 3.10889C2.5 2.83274 2.72386 2.60889 3 2.60889H13C13.2761 2.60889 13.5 2.83274 13.5 3.10889V13.1089C13.5 13.385 13.2761 13.6089 13 13.6089H3C2.72386 13.6089 2.5 13.385 2.5 13.1089V3.10889Z" fill="#292A2E"/>
</svg>
