<svg width="16" height="17" viewBox="0 0 16 17" fill="none" xmlns="http://www.w3.org/2000/svg">
<path fill-rule="evenodd" clip-rule="evenodd" d="M12.7803 1.14209L15.7803 4.14209C16.0732 4.43498 16.0732 4.90986 15.7803 5.20275L12.7803 8.20275L11.7197 7.14209L14.1893 4.67242L11.7197 2.20275L12.7803 1.14209Z" fill="#292A2E"/>
<path fill-rule="evenodd" clip-rule="evenodd" d="M9.28033 1.14209L12.2803 4.14209C12.5732 4.43498 12.5732 4.90986 12.2803 5.20275L9.28033 8.20275L8.21967 7.14209L9.93934 5.42242H4.25C3.2835 5.42242 2.5 6.20592 2.5 7.17242V10.6724C2.5 11.6389 3.2835 12.4224 4.25 12.4224H5V13.9224H4.25C2.45507 13.9224 1 12.4673 1 10.6724V7.17242C1 5.3775 2.45507 3.92242 4.25 3.92242H9.93934L8.21967 2.20275L9.28033 1.14209Z" fill="#292A2E"/>
<path fill-rule="evenodd" clip-rule="evenodd" d="M7 10.4224H8.75C9.16421 10.4224 9.5 10.7581 9.5 11.1724V16.9224H8V11.9224H7V10.4224Z" fill="#292A2E"/>
<path fill-rule="evenodd" clip-rule="evenodd" d="M15 11.7974C15 11.038 14.3844 10.4224 13.625 10.4224H11.875C11.1156 10.4224 10.5 11.038 10.5 11.7974V15.5474C10.5 16.3068 11.1156 16.9224 11.875 16.9224H13.625C14.3844 16.9224 15 16.3068 15 15.5474V11.7974ZM13.5 11.9224V15.4224H12V11.9224H13.5Z" fill="#292A2E"/>
</svg>
