<svg width="16" height="17" viewBox="0 0 16 17" fill="none" xmlns="http://www.w3.org/2000/svg">
<path fill-rule="evenodd" clip-rule="evenodd" d="M9.1619 2.68177C8.44826 2.96366 7.88265 3.49802 7.71338 4.01965L6.28662 3.55668C6.63773 2.47465 7.63325 1.67281 8.61083 1.28667C9.55407 0.914087 10.8589 0.797248 11.7004 1.6616C12.0468 2.01741 12.2371 2.43888 12.2491 2.89779C12.2605 3.33394 12.1087 3.72472 11.9256 4.0417C11.6983 4.43517 11.369 4.80246 11.0501 5.1158C12.5164 4.97897 13.7669 5.35425 14.4714 6.24915C15.2979 7.29918 15.115 8.71359 14.2146 9.94671L13.0032 9.06213C13.6639 8.15732 13.559 7.51525 13.2927 7.17692C12.9884 6.79032 12.1976 6.4207 10.7692 6.66521C10.2477 6.75449 9.83387 6.80385 9.5325 6.79588C9.39247 6.79217 9.18901 6.77559 8.99618 6.68619C8.89059 6.63723 8.75812 6.55263 8.65145 6.40784C8.53838 6.25435 8.48832 6.07908 8.48693 5.91235C8.48456 5.62735 8.62322 5.41334 8.68351 5.32621C8.76091 5.21433 8.85536 5.11125 8.9397 5.02564C9.08003 4.8832 9.26252 4.72009 9.43883 4.56249C9.47296 4.53199 9.50685 4.50169 9.54016 4.47179C9.99306 4.0653 10.4103 3.66606 10.6268 3.29129C10.7295 3.11356 10.7512 2.9998 10.7496 2.93691C10.7485 2.8968 10.7393 2.82476 10.6256 2.70796C10.4264 2.50329 9.90989 2.38632 9.1619 2.68177ZM9.52959 5.29352C9.52966 5.29347 9.53137 5.29366 9.53455 5.29422C9.53112 5.29384 9.52953 5.29356 9.52959 5.29352ZM3.75 6.00442C2.50736 6.00442 1.5 7.01178 1.5 8.25442C1.5 9.49706 2.50736 10.5044 3.75 10.5044C4.99264 10.5044 6 9.49706 6 8.25442C6 7.01178 4.99264 6.00442 3.75 6.00442ZM0 8.25442C0 6.18335 1.67893 4.50442 3.75 4.50442C5.82107 4.50442 7.5 6.18335 7.5 8.25442C7.5 10.3255 5.82107 12.0044 3.75 12.0044C1.67893 12.0044 0 10.3255 0 8.25442ZM10.25 9.00442C10.5134 9.00442 10.7576 9.14264 10.8931 9.36855L13.8931 14.3685C14.0321 14.6002 14.0358 14.8888 13.9026 15.1239C13.7695 15.3591 13.5202 15.5044 13.25 15.5044H7.25C6.9798 15.5044 6.73048 15.3591 6.59735 15.1239C6.46422 14.8888 6.46786 14.6002 6.60688 14.3685L9.60688 9.36855C9.74242 9.14264 9.98655 9.00442 10.25 9.00442ZM8.57464 14.0044H11.9254L10.25 11.2122L8.57464 14.0044Z" fill="#292A2E"/>
</svg>
