<svg width="16" height="17" viewBox="0 0 16 17" fill="none" xmlns="http://www.w3.org/2000/svg">
<path d="M14.5 4.8999C14.5 4.65819 14.3286 4.45619 14.1006 4.40967L14 4.3999H2C1.72386 4.3999 1.5 4.62376 1.5 4.8999V12.8999C1.5 13.176 1.72386 13.3999 2 13.3999H14C14.2761 13.3999 14.5 13.176 14.5 12.8999V4.8999ZM11.5732 6.8833L7.57324 11.6333C7.43074 11.8023 7.22106 11.8999 7 11.8999C6.77894 11.8999 6.56926 11.8023 6.42676 11.6333L4.42676 9.2583L5.57324 8.2915L7 9.98486L10.4268 5.9165L11.5732 6.8833ZM16 12.8999C16 14.0045 15.1046 14.8999 14 14.8999H2C0.895431 14.8999 2.0133e-09 14.0045 0 12.8999V4.8999C1.28853e-07 3.79533 0.89543 2.8999 2 2.8999H14L14.2041 2.91064C15.2128 3.01291 16 3.86425 16 4.8999V12.8999Z" fill="#292A2E"/>
</svg>
