<svg width="16" height="17" viewBox="0 0 16 17" fill="none" xmlns="http://www.w3.org/2000/svg">
<path d="M11.5 4.29541C11.5 4.01927 11.2761 3.79541 11 3.79541H2C1.72386 3.79541 1.5 4.01927 1.5 4.29541V10.2954C1.5 10.5716 1.72386 10.7954 2 10.7954H11C11.2761 10.7954 11.5 10.5716 11.5 10.2954V4.29541ZM9.44824 5.90381L6.28125 9.65381C6.13875 9.82256 5.92888 9.92041 5.70801 9.92041C5.51481 9.92033 5.32995 9.84604 5.19141 9.71436L5.13574 9.65381L3.55176 7.77881L4.69824 6.81201L5.70801 8.0083L8.30176 4.93701L9.44824 5.90381ZM13 10.2954C13 11.4 12.1046 12.2954 11 12.2954H2C0.89543 12.2954 2.81862e-08 11.4 0 10.2954V4.29541C9.66399e-08 3.19084 0.89543 2.29541 2 2.29541H11C12.1046 2.29541 13 3.19084 13 4.29541V10.2954Z" fill="#292A2E"/>
<path d="M14.5 12.0454V7.29541H16V12.0454C16 13.8403 14.5449 15.2954 12.75 15.2954H5V13.7954H12.75C13.7165 13.7954 14.5 13.0119 14.5 12.0454Z" fill="#292A2E"/>
</svg>
