<svg width="16" height="17" viewBox="0 0 16 17" fill="none" xmlns="http://www.w3.org/2000/svg">
<path fill-rule="evenodd" clip-rule="evenodd" d="M7 3.19092C4.51472 3.19092 2.5 5.20564 2.5 7.69092C2.5 10.1762 4.51472 12.1909 7 12.1909C8.24285 12.1909 9.36682 11.6881 10.182 10.8729C10.9971 10.0577 11.5 8.93377 11.5 7.69092C11.5 5.20564 9.48528 3.19092 7 3.19092ZM1 7.69092C1 4.37721 3.68629 1.69092 7 1.69092C10.3137 1.69092 13 4.37721 13 7.69092C13 9.07714 12.5292 10.3544 11.7399 11.3701L15.0303 14.6606L13.9697 15.7212L10.6792 12.4308C9.66348 13.2201 8.38622 13.6909 7 13.6909C3.68629 13.6909 1 11.0046 1 7.69092ZM6.25 8.44092V10.6909H7.75V8.44092H10V6.94092H7.75V4.69092H6.25V6.94092H4V8.44092H6.25Z" fill="#292A2E"/>
</svg>
