<svg width="16" height="17" viewBox="0 0 16 17" fill="none" xmlns="http://www.w3.org/2000/svg">
<path fill-rule="evenodd" clip-rule="evenodd" d="M7 2.58643C4.51472 2.58643 2.5 4.60114 2.5 7.08643C2.5 9.57171 4.51472 11.5864 7 11.5864C8.24285 11.5864 9.36682 11.0836 10.182 10.2684C10.9971 9.45325 11.5 8.32927 11.5 7.08643C11.5 4.60114 9.48528 2.58643 7 2.58643ZM1 7.08643C1 3.77272 3.68629 1.08643 7 1.08643C10.3137 1.08643 13 3.77272 13 7.08643C13 8.47265 12.5292 9.74991 11.7399 10.7656L15.0303 14.0561L13.9697 15.1168L10.6792 11.8263C9.66348 12.6156 8.38622 13.0864 7 13.0864C3.68629 13.0864 1 10.4001 1 7.08643ZM10 7.83643H4V6.33643H10V7.83643Z" fill="#292A2E"/>
</svg>
