<svg width="17" height="17" viewBox="0 0 17 17" fill="none" xmlns="http://www.w3.org/2000/svg">
<path fill-rule="evenodd" clip-rule="evenodd" d="M8.20001 0.611328C9.16457 0.611328 10.0836 0.806304 10.9197 1.15918L10.6795 1.24707C10.1611 1.43617 9.74471 1.80324 9.48712 2.26367C9.07418 2.16464 8.64332 2.11133 8.20001 2.11133C5.16245 2.11133 2.70001 4.57376 2.70001 7.61133V8.32031C3.00634 8.18642 3.34432 8.11133 3.70001 8.11133C5.08072 8.11133 6.20001 9.23062 6.20001 10.6113V13.6943C6.20001 14.7529 5.34157 15.6113 4.28302 15.6113C2.60816 15.6112 1.24614 14.2756 1.20197 12.6113H1.20001V7.61133C1.20001 3.74534 4.33402 0.611328 8.20001 0.611328ZM3.70001 9.61133C3.14773 9.61133 2.70001 10.059 2.70001 10.6113V12.5283C2.70019 13.4025 3.40883 14.1112 4.28302 14.1113C4.51314 14.1113 4.70001 13.9245 4.70001 13.6943V10.6113C4.70001 10.059 4.2523 9.61133 3.70001 9.61133Z" fill="#292A2E"/>
<path fill-rule="evenodd" clip-rule="evenodd" d="M15.1551 6.82715C15.1838 7.08464 15.2 7.34618 15.2 7.61133V12.6113H15.1981C15.1539 14.2756 13.7919 15.6112 12.117 15.6113C11.0585 15.6113 10.2 14.7529 10.2 13.6943V10.6113C10.2 9.23062 11.3193 8.11133 12.7 8.11133C13.0557 8.11133 13.3937 8.18642 13.7 8.32031V7.61133C13.7 7.60612 13.6991 7.60091 13.699 7.5957C14.2707 7.53218 14.7885 7.25323 15.1551 6.82715ZM12.7 9.61133C12.1477 9.61133 11.7 10.059 11.7 10.6113V13.6943C11.7 13.9245 11.8869 14.1113 12.117 14.1113C12.9912 14.1112 13.6998 13.4025 13.7 12.5283V10.6113C13.7 10.059 13.2523 9.61133 12.7 9.61133Z" fill="#292A2E"/>
<path d="M13.5652 0.620117C13.7941 0.65561 13.9941 0.795475 14.1063 0.998047L14.1551 1.10449L14.4901 2.02344C14.5406 2.16174 14.6496 2.27071 14.7879 2.32129L15.7068 2.65625C16.0031 2.76433 16.2 3.0463 16.2 3.36133C16.2 3.67654 16.003 3.95839 15.7068 4.06641L14.7879 4.40137C14.6496 4.45194 14.5406 4.56091 14.4901 4.69922L14.1551 5.61816C14.0471 5.91418 13.7653 6.11133 13.45 6.11133C13.1348 6.11133 12.8529 5.91429 12.7449 5.61816L12.41 4.69922C12.3594 4.56091 12.2504 4.45194 12.1121 4.40137L11.1932 4.06641C10.9339 3.97182 10.7505 3.74404 10.7088 3.47754L10.7 3.36133L10.7088 3.24512C10.7505 2.9785 10.934 2.75078 11.1932 2.65625L12.1121 2.32129C12.2504 2.27071 12.3594 2.16174 12.41 2.02344L12.7449 1.10449C12.8528 0.808798 13.1341 0.611737 13.449 0.611328L13.5652 0.620117Z" fill="#292A2E"/>
</svg>
