<svg width="17" height="17" viewBox="0 0 17 17" fill="none" xmlns="http://www.w3.org/2000/svg">
<path fill-rule="evenodd" clip-rule="evenodd" d="M0.200012 4.48193C0.200012 3.37736 1.09544 2.48193 2.20001 2.48193H14.2C15.3046 2.48193 16.2 3.37736 16.2 4.48193V12.4819C16.2 13.5865 15.3046 14.4819 14.2 14.4819H2.20001C1.09544 14.4819 0.200012 13.5865 0.200012 12.4819V4.48193ZM2.20001 3.98193C1.92387 3.98193 1.70001 4.20579 1.70001 4.48193V12.4819C1.70001 12.7581 1.92387 12.9819 2.20001 12.9819H14.2C14.4762 12.9819 14.7 12.7581 14.7 12.4819V4.48193C14.7 4.20579 14.4762 3.98193 14.2 3.98193H2.20001ZM4.94928 6.98193V9.98193H6.19928V9.48193H7.69928V10.1069C7.69928 10.8663 7.08367 11.4819 6.32428 11.4819H4.82428C4.06489 11.4819 3.44928 10.8663 3.44928 10.1069V6.85693C3.44928 6.09754 4.06489 5.48193 4.82428 5.48193H6.32428C7.08367 5.48193 7.69928 6.09754 7.69928 6.85693V7.48193H6.19928V6.98193H4.94928ZM10.1993 6.98193V9.98193H11.4493V9.48193H12.9493V10.1069C12.9493 10.8663 12.3337 11.4819 11.5743 11.4819H10.0743C9.31489 11.4819 8.69928 10.8663 8.69928 10.1069V6.85693C8.69928 6.09754 9.31489 5.48193 10.0743 5.48193H11.5743C12.3337 5.48193 12.9493 6.09754 12.9493 6.85693V7.48193H11.4493V6.98193H10.1993Z" fill="#292A2E"/>
</svg>
