<svg width="17" height="17" viewBox="0 0 17 17" fill="none" xmlns="http://www.w3.org/2000/svg">
<path fill-rule="evenodd" clip-rule="evenodd" d="M4.66458 2.40491C4.75932 1.86717 5.2265 1.4751 5.77252 1.4751H10.395C11.5196 1.4751 12.5697 1.87331 13.2914 2.66305C14.025 3.46579 14.3172 4.56324 14.1103 5.73347C13.9413 6.68953 13.48 7.51467 12.841 8.15425C12.9885 8.26974 13.127 8.39759 13.2552 8.53778C13.9889 9.34012 14.2824 10.4375 14.0753 11.6085C13.6655 13.9267 11.5371 15.4751 9.32502 15.4751H3.70002C3.36751 15.4751 3.05203 15.328 2.83828 15.0733C2.62452 14.8186 2.53439 14.4824 2.59208 14.1549L3.62708 8.27991C3.63144 8.25519 3.63658 8.23078 3.64248 8.2067L4.66458 2.40491ZM6.07804 7.3501H9.36002C10.5979 7.3501 11.6946 6.47353 11.8947 5.34172C11.9928 4.78696 11.845 4.41565 11.6305 4.18089C11.4041 3.93314 10.9979 3.7251 10.395 3.7251H6.71665L6.07804 7.3501ZM5.67915 9.6001L5.04054 13.2251H9.32502C10.5629 13.2251 11.6596 12.3485 11.8597 11.2167C11.9577 10.6627 11.8098 10.2913 11.5948 10.0562C11.3678 9.80792 10.9613 9.6001 10.36 9.6001H5.67915Z" fill="#292A2E"/>
</svg>
