<svg width="17" height="17" viewBox="0 0 17 17" fill="none" xmlns="http://www.w3.org/2000/svg">
<path fill-rule="evenodd" clip-rule="evenodd" d="M10.2 1.50439L12.7 1.50439C13.8046 1.50439 14.7 2.39983 14.7 3.5044V7.7544L16.2 7.7544V9.2544L14.7 9.2544V13.5044C14.7 14.609 13.8046 15.5044 12.7 15.5044H10.2V14.0044H12.7C12.9762 14.0044 13.2 13.7805 13.2 13.5044L13.2 3.50439C13.2 3.22825 12.9762 3.00439 12.7 3.00439L10.2 3.00439V1.50439ZM1.70001 3.5044C1.70001 2.39983 2.59544 1.5044 3.70001 1.5044H6.20001V3.0044H3.70001C3.42387 3.0044 3.20001 3.22825 3.20001 3.5044V13.5044C3.20001 13.7805 3.42387 14.0044 3.70001 14.0044H6.20001V15.5044H3.70001C2.59544 15.5044 1.70001 14.609 1.70001 13.5044V9.2544H0.200012V7.7544H1.70001V3.5044ZM7.53669 5.55467C7.64467 5.25864 7.92618 5.06168 8.24128 5.06168C8.55639 5.06168 8.83836 5.25864 8.94634 5.55467L9.56148 7.24107L11.2479 7.85621C11.5439 7.96419 11.7409 8.24569 11.7409 8.5608C11.7409 8.87591 11.5439 9.15788 11.2479 9.26586L9.56148 9.881L8.94634 11.5674C8.83836 11.8634 8.55686 12.0604 8.24175 12.0604C7.92664 12.0604 7.64467 11.8634 7.53669 11.5674L6.92155 9.881L5.23515 9.26586C4.93939 9.15798 4.74248 8.87686 4.74216 8.56203C4.74184 8.24665 4.93886 7.96429 5.23515 7.85621L6.92155 7.24107L7.53669 5.55467Z" fill="#292A2E"/>
</svg>
