<svg width="17" height="17" viewBox="0 0 17 17" fill="none" xmlns="http://www.w3.org/2000/svg">
<path d="M8.20001 12.6875V10.75C8.20001 9.92389 7.81101 9.14614 7.15021 8.65039L6.70001 8.3125L7.15021 7.97461C7.81101 7.47886 8.20001 6.70111 8.20001 5.875V3.9375C8.20001 3.31618 8.70369 2.8125 9.32501 2.8125H10.2V1.3125H9.32501C7.87526 1.3125 6.70001 2.48775 6.70001 3.9375V5.875C6.70001 6.2291 6.5331 6.56293 6.24982 6.77539L4.99982 7.71289L4.93243 7.76953C4.78487 7.91017 4.70001 8.10612 4.70001 8.3125C4.70001 8.51888 4.78487 8.71483 4.93243 8.85547L4.99982 8.91211L6.24982 9.84961C6.5331 10.0621 6.70001 10.3959 6.70001 10.75V12.6875C6.70001 14.1372 7.87526 15.3125 9.32501 15.3125H10.2V13.8125H9.32501C8.70369 13.8125 8.20001 13.3088 8.20001 12.6875Z" fill="#292A2E"/>
</svg>
