<svg width="17" height="17" viewBox="0 0 17 17" fill="none" xmlns="http://www.w3.org/2000/svg">
<path d="M8.20001 2.04395C9.45133 2.04395 10.609 2.44351 11.5527 3.122L10.5272 4.23718C9.85856 3.79886 9.05893 3.54395 8.20001 3.54395C5.97042 3.54395 4.14118 5.26133 3.9641 7.44488C3.93813 7.76517 3.71099 8.03333 3.39933 8.11164C2.4225 8.3571 1.70001 9.24209 1.70001 10.2939C1.70001 11.5366 2.70737 12.5439 3.95001 12.5439H12.2C13.5807 12.5439 14.7 11.4247 14.7 10.0439C14.7 9.08832 14.1634 8.25663 13.3741 7.83598L14.3995 6.70264C15.4839 7.41782 16.2 8.64668 16.2 10.0439C16.2 12.2531 14.4092 14.0439 12.2 14.0439H3.95001C1.87894 14.0439 0.200012 12.365 0.200012 10.2939C0.200012 8.72399 1.1642 7.38074 2.53199 6.82157C2.9943 4.10869 5.3557 2.04395 8.20001 2.04395Z" fill="#292A2E"/>
<path d="M9.18166 10.5371L13.765 5.28715L12.635 4.30066L8.61874 8.90113L7.01677 7.0527L5.88324 8.0351L8.04991 10.5351C8.19205 10.6991 8.39828 10.7935 8.61532 10.7939C8.83236 10.7943 9.03892 10.7006 9.18166 10.5371Z" fill="#292A2E"/>
</svg>
