<svg width="17" height="17" viewBox="0 0 17 17" fill="none" xmlns="http://www.w3.org/2000/svg">
<path fill-rule="evenodd" clip-rule="evenodd" d="M3.20001 1.62354C2.09544 1.62354 1.20001 2.51897 1.20001 3.62354V13.6235C1.20001 14.7281 2.09544 15.6235 3.20001 15.6235H7.20001V14.1235H3.20001C2.92387 14.1235 2.70001 13.8997 2.70001 13.6235V9.37354H7.45001V10.7944C7.51426 10.6975 7.59008 10.6076 7.67653 10.527L10.5195 7.87354H8.95001V3.12354H13.2C13.4762 3.12354 13.7 3.34739 13.7 3.62354V7.23837L15.2 8.63837V3.62354C15.2 2.51897 14.3046 1.62354 13.2 1.62354H3.20001ZM2.70001 3.62354C2.70001 3.34739 2.92387 3.12354 3.20001 3.12354H7.45001V7.87354H2.70001V3.62354Z" fill="#292A2E"/>
<path d="M16.2 12.1667V15.9985C16.2 16.3437 15.9202 16.6235 15.575 16.6235H13.45V13.6235H11.45V16.6235H9.32501C8.97983 16.6235 8.70001 16.3437 8.70001 15.9985V12.1667C8.70001 11.8202 8.84382 11.4893 9.09711 11.2529L11.5971 8.91957C12.0774 8.47133 12.8227 8.47133 13.3029 8.91957L15.8029 11.2529C16.0562 11.4893 16.2 11.8202 16.2 12.1667Z" fill="#292A2E"/>
</svg>
