<svg width="17" height="17" viewBox="0 0 17 17" fill="none" xmlns="http://www.w3.org/2000/svg">
<path d="M10.45 9.79541V6.79541H11.45C11.5881 6.79541 11.7 6.90734 11.7 7.04541V9.54541C11.7 9.68348 11.5881 9.79541 11.45 9.79541H10.45Z" fill="#292A2E"/>
<path fill-rule="evenodd" clip-rule="evenodd" d="M2.20001 2.29541C1.09544 2.29541 0.200012 3.19084 0.200012 4.29541V12.2954C0.200012 13.4 1.09544 14.2954 2.20001 14.2954H14.2C15.3046 14.2954 16.2 13.4 16.2 12.2954V4.29541C16.2 3.19084 15.3046 2.29541 14.2 2.29541H2.20001ZM4.95001 5.29541V7.54541H6.20001V5.29541H7.70001V11.2954H6.20001V9.04541H4.95001V11.2954H3.45001V5.29541H4.95001ZM11.45 5.29541H8.95001V11.2954H11.45C12.4165 11.2954 13.2 10.5119 13.2 9.54541V7.04541C13.2 6.07891 12.4165 5.29541 11.45 5.29541Z" fill="#292A2E"/>
</svg>
