<svg width="17" height="17" viewBox="0 0 17 17" fill="none" xmlns="http://www.w3.org/2000/svg">
<path fill-rule="evenodd" clip-rule="evenodd" d="M6.20001 1.37524C6.20001 0.961031 6.5358 0.625244 6.95001 0.625244H12.95C13.3642 0.625244 13.7 0.961031 13.7 1.37524V7.37524C13.7 7.78946 13.3642 8.12524 12.95 8.12524H11.5572C11.2548 8.12524 10.9657 8.0683 10.7 7.96456V10.3752C10.7 10.7895 10.3642 11.1252 9.95001 11.1252H8.55716C8.25476 11.1252 7.96567 11.0683 7.70001 10.9646V13.3752C7.70001 13.7895 7.36423 14.1252 6.95001 14.1252H5.55716C4.25534 14.1252 3.20001 13.0699 3.20001 11.7681V11.1252H2.55716C1.25534 11.1252 0.200012 10.0699 0.200012 8.7681V7.37524C0.200012 6.96103 0.535799 6.62524 0.950012 6.62524H3.3607C3.25695 6.35959 3.20001 6.07049 3.20001 5.7681V4.37524C3.20001 3.96103 3.5358 3.62524 3.95001 3.62524H6.3607C6.25695 3.35959 6.20001 3.07049 6.20001 2.7681V1.37524ZM8.55716 3.62524H9.95001C10.3642 3.62524 10.7 3.96103 10.7 4.37524V5.7681C10.7 6.24149 11.0838 6.62524 11.5572 6.62524H12.2V2.12524H7.70001V2.7681C7.70001 3.24149 8.08377 3.62524 8.55716 3.62524ZM9.20001 5.12524H4.70001V5.7681C4.70001 6.24149 5.08377 6.62524 5.55716 6.62524H6.95001C7.36423 6.62524 7.70001 6.96103 7.70001 7.37524V8.7681C7.70001 9.24149 8.08377 9.62524 8.55716 9.62524H9.20001V5.12524ZM6.20001 8.12524H1.70001V8.7681C1.70001 9.24149 2.08377 9.62524 2.55716 9.62524H3.95001C4.36423 9.62524 4.70001 9.96103 4.70001 10.3752V11.7681C4.70001 12.2415 5.08377 12.6252 5.55716 12.6252H6.20001V8.12524ZM12.6697 10.8449C12.9626 10.552 13.4374 10.552 13.7303 10.8449L16.1053 13.2199L15.0447 14.2806L13.95 13.1859V16.6252H12.45V13.1859L11.3553 14.2806L10.2947 13.2199L12.6697 10.8449Z" fill="#292A2E"/>
</svg>
