<svg width="17" height="17" viewBox="0 0 17 17" fill="none" xmlns="http://www.w3.org/2000/svg">
<path fill-rule="evenodd" clip-rule="evenodd" d="M3.45001 4.43115C3.0358 4.43115 2.70001 4.76694 2.70001 5.18115C2.70001 5.59537 3.0358 5.93115 3.45001 5.93115C3.86423 5.93115 4.20001 5.59537 4.20001 5.18115C4.20001 4.76694 3.86423 4.43115 3.45001 4.43115ZM1.20001 5.18115C1.20001 3.93851 2.20737 2.93115 3.45001 2.93115C4.69265 2.93115 5.70001 3.93851 5.70001 5.18115C5.70001 6.42379 4.69265 7.43115 3.45001 7.43115C2.20737 7.43115 1.20001 6.42379 1.20001 5.18115Z" fill="#292A2E"/>
<path fill-rule="evenodd" clip-rule="evenodd" d="M3.45001 11.9312C3.0358 11.9312 2.70001 12.2669 2.70001 12.6812C2.70001 13.0954 3.0358 13.4312 3.45001 13.4312C3.86423 13.4312 4.20001 13.0954 4.20001 12.6812C4.20001 12.2669 3.86423 11.9312 3.45001 11.9312ZM1.20001 12.6812C1.20001 11.4385 2.20737 10.4312 3.45001 10.4312C4.69265 10.4312 5.70001 11.4385 5.70001 12.6812C5.70001 13.9238 4.69265 14.9312 3.45001 14.9312C2.20737 14.9312 1.20001 13.9238 1.20001 12.6812Z" fill="#292A2E"/>
<path fill-rule="evenodd" clip-rule="evenodd" d="M4.20001 11.9312L15.2 11.9312V13.4312L4.20001 13.4312L4.20001 11.9312Z" fill="#292A2E"/>
<path fill-rule="evenodd" clip-rule="evenodd" d="M8.95001 5.93115H4.20001V4.43115H8.95001C10.0546 4.43115 10.95 5.32658 10.95 6.43115V12.6812H9.45001V6.43115C9.45001 6.15501 9.22615 5.93115 8.95001 5.93115Z" fill="#292A2E"/>
</svg>
