<svg width="17" height="17" viewBox="0 0 17 17" fill="none" xmlns="http://www.w3.org/2000/svg">
<path fill-rule="evenodd" clip-rule="evenodd" d="M12.95 4.22217C12.5358 4.22217 12.2 4.55795 12.2 4.97217C12.2 5.38638 12.5358 5.72217 12.95 5.72217C13.3642 5.72217 13.7 5.38638 13.7 4.97217C13.7 4.55795 13.3642 4.22217 12.95 4.22217ZM10.7 4.97217C10.7 3.72953 11.7074 2.72217 12.95 2.72217C14.1927 2.72217 15.2 3.72953 15.2 4.97217C15.2 6.21481 14.1927 7.22217 12.95 7.22217C11.7074 7.22217 10.7 6.21481 10.7 4.97217Z" fill="#292A2E"/>
<path fill-rule="evenodd" clip-rule="evenodd" d="M12.95 11.7222C12.5358 11.7222 12.2 12.058 12.2 12.4722C12.2 12.8864 12.5358 13.2222 12.95 13.2222C13.3642 13.2222 13.7 12.8864 13.7 12.4722C13.7 12.058 13.3642 11.7222 12.95 11.7222ZM10.7 12.4722C10.7 11.2295 11.7074 10.2222 12.95 10.2222C14.1927 10.2222 15.2 11.2295 15.2 12.4722C15.2 13.7148 14.1927 14.7222 12.95 14.7222C11.7074 14.7222 10.7 13.7148 10.7 12.4722Z" fill="#292A2E"/>
<path fill-rule="evenodd" clip-rule="evenodd" d="M1.20001 11.7222L12.2 11.7222V13.2222L1.20001 13.2222L1.20001 11.7222Z" fill="#292A2E"/>
<path fill-rule="evenodd" clip-rule="evenodd" d="M7.45001 5.72217C7.17387 5.72217 6.95001 5.94603 6.95001 6.22217V12.4722H5.45001V6.22217C5.45001 5.1176 6.34544 4.22217 7.45001 4.22217H12.2V5.72217H7.45001Z" fill="#292A2E"/>
</svg>
