<svg width="17" height="17" viewBox="0 0 17 17" fill="none" xmlns="http://www.w3.org/2000/svg">
<path d="M11.7733 6.18896L7.77325 10.939C7.63076 11.1079 7.42107 11.2056 7.20001 11.2056C6.97895 11.2056 6.76927 11.1079 6.62677 10.939L4.62677 8.56396L5.77325 7.59717L7.20001 9.29053L10.6268 5.22217L11.7733 6.18896ZM14.7 4.20557C14.7 3.96385 14.5286 3.76186 14.3006 3.71533L14.2 3.70557H2.20001C1.92387 3.70557 1.70001 3.92942 1.70001 4.20557V12.2056C1.70001 12.4817 1.92387 12.7056 2.20001 12.7056H7.70001V14.2056H2.20001C1.09544 14.2056 0.200012 13.3101 0.200012 12.2056V4.20557C0.200012 3.101 1.09544 2.20557 2.20001 2.20557H14.2L14.4041 2.21631C15.4128 2.31857 16.2 3.16992 16.2 4.20557V8.70557H14.7V4.20557Z" fill="#292A2E"/>
<path d="M13.7 9.70557V12.2056H16.2V13.7056H13.7V16.2056H12.2V13.7056H9.70001V12.2056H12.2V9.70557H13.7Z" fill="#292A2E"/>
</svg>
