<svg width="17" height="17" viewBox="0 0 17 17" fill="none" xmlns="http://www.w3.org/2000/svg">
<path fill-rule="evenodd" clip-rule="evenodd" d="M16.2 8.06567H12.7V6.56567H16.2V8.06567ZM16.2 11.5657H12.7V10.0657H16.2V11.5657ZM16.2 15.0657H5.20001V13.5657H16.2V15.0657Z" fill="#292A2E"/>
<path fill-rule="evenodd" clip-rule="evenodd" d="M0.200012 3.06567C0.200012 1.9611 1.09544 1.06567 2.20001 1.06567H9.20001C10.3046 1.06567 11.2 1.9611 11.2 3.06567V10.0657C11.2 11.1702 10.3046 12.0657 9.20001 12.0657H2.20001C1.09544 12.0657 0.200012 11.1702 0.200012 10.0657V3.06567ZM2.20001 2.56567C1.92387 2.56567 1.70001 2.78953 1.70001 3.06567V10.0657C1.70001 10.3418 1.92387 10.5657 2.20001 10.5657H9.20001C9.47615 10.5657 9.70001 10.3418 9.70001 10.0657V3.06567C9.70001 2.78953 9.47615 2.56567 9.20001 2.56567H2.20001Z" fill="#292A2E"/>
<path fill-rule="evenodd" clip-rule="evenodd" d="M7.40635 5.06695C7.60877 5.05514 7.80734 5.1258 7.95681 5.26281L10.9568 8.01281L9.94322 9.11854L7.51269 6.89056L3.26763 11.8059L2.1324 10.8255L6.88239 5.32546C7.01492 5.17201 7.20394 5.07875 7.40635 5.06695Z" fill="#292A2E"/>
<path d="M5.20001 4.94067C5.20001 5.56199 4.69633 6.06567 4.07501 6.06567C3.45369 6.06567 2.95001 5.56199 2.95001 4.94067C2.95001 4.31935 3.45369 3.81567 4.07501 3.81567C4.69633 3.81567 5.20001 4.31935 5.20001 4.94067Z" fill="#292A2E"/>
</svg>
