<svg width="17" height="17" viewBox="0 0 17 17" fill="none" xmlns="http://www.w3.org/2000/svg">
<path fill-rule="evenodd" clip-rule="evenodd" d="M0.200012 6.97607C0.200012 5.8715 1.09544 4.97607 2.20001 4.97607H14.2C15.3046 4.97607 16.2 5.8715 16.2 6.97607V10.9761C16.2 12.0806 15.3046 12.9761 14.2 12.9761H2.20001C1.09544 12.9761 0.200012 12.0806 0.200012 10.9761V6.97607ZM2.20001 6.47607C1.92387 6.47607 1.70001 6.69993 1.70001 6.97607V10.9761C1.70001 11.2522 1.92387 11.4761 2.20001 11.4761H14.2C14.4762 11.4761 14.7 11.2522 14.7 10.9761V6.97607C14.7 6.69993 14.4762 6.47607 14.2 6.47607H2.20001ZM13.2 9.72607H3.20001V8.22607H13.2V9.72607Z" fill="#292A2E"/>
</svg>
