<svg width="17" height="17" viewBox="0 0 17 17" fill="none" xmlns="http://www.w3.org/2000/svg">
<path fill-rule="evenodd" clip-rule="evenodd" d="M3.45001 7.36768C3.0358 7.36768 2.70001 7.70346 2.70001 8.11768C2.70001 8.53189 3.0358 8.86768 3.45001 8.86768C3.86423 8.86768 4.20001 8.53189 4.20001 8.11768C4.20001 7.70346 3.86423 7.36768 3.45001 7.36768ZM1.20001 8.11768C1.20001 6.87504 2.20737 5.86768 3.45001 5.86768C4.69265 5.86768 5.70001 6.87504 5.70001 8.11768C5.70001 9.36032 4.69265 10.3677 3.45001 10.3677C2.20737 10.3677 1.20001 9.36032 1.20001 8.11768Z" fill="#292A2E"/>
<path fill-rule="evenodd" clip-rule="evenodd" d="M4.20001 7.36767L14.2 7.36768V8.86768L4.20001 8.86767L4.20001 7.36767Z" fill="#292A2E"/>
</svg>
