<svg width="17" height="17" viewBox="0 0 17 17" fill="none" xmlns="http://www.w3.org/2000/svg">
<path fill-rule="evenodd" clip-rule="evenodd" d="M2.81402 1.4631C2.95107 1.24381 3.19142 1.1106 3.45002 1.1106H12.95C13.2086 1.1106 13.449 1.24381 13.586 1.4631L16.086 5.4631C16.2594 5.74054 16.233 6.09838 16.0206 6.34731L8.77064 14.8473C8.62815 15.0144 8.4196 15.1106 8.20002 15.1106C7.98044 15.1106 7.77189 15.0144 7.62939 14.8473L0.379392 6.34731C0.167072 6.09838 0.140615 5.74054 0.314019 5.4631L2.81402 1.4631ZM3.8657 2.6106L2.3032 5.1106H4.89862L5.67987 2.6106H3.8657ZM7.25141 2.6106L6.47016 5.1106H9.92987L9.14862 2.6106H7.25141ZM10.7202 2.6106L11.5014 5.1106H14.0968L12.5343 2.6106H10.7202ZM13.8246 6.6106H11.4956L10.0724 11.0096L13.8246 6.6106ZM8.20002 11.9241L9.9191 6.6106H6.48094L8.20002 11.9241ZM4.90439 6.6106L6.32761 11.0096L2.57548 6.6106H4.90439Z" fill="#292A2E"/>
</svg>
