<svg width="17" height="17" viewBox="0 0 17 17" fill="none" xmlns="http://www.w3.org/2000/svg">
<path fill-rule="evenodd" clip-rule="evenodd" d="M6.20001 0.979736C6.20001 0.565523 6.5358 0.229736 6.95001 0.229736H12.95C13.3642 0.229736 13.7 0.565523 13.7 0.979736V6.97974C13.7 7.39395 13.3642 7.72974 12.95 7.72974H11.5572C11.2548 7.72974 10.9657 7.67279 10.7 7.56905V9.97974C10.7 10.3939 10.3642 10.7297 9.95001 10.7297H8.55716C8.25476 10.7297 7.96567 10.6728 7.70001 10.569V12.9797C7.70001 13.3939 7.36423 13.7297 6.95001 13.7297H5.55716C4.25534 13.7297 3.20001 12.6744 3.20001 11.3726V10.7297H2.55716C1.25534 10.7297 0.200012 9.67441 0.200012 8.37259V6.97974C0.200012 6.56552 0.535799 6.22974 0.950012 6.22974H3.3607C3.25695 5.96408 3.20001 5.67499 3.20001 5.37259V3.97974C3.20001 3.56552 3.5358 3.22974 3.95001 3.22974H6.3607C6.25695 2.96408 6.20001 2.67499 6.20001 2.37259V0.979736ZM8.55716 3.22974H9.95001C10.3642 3.22974 10.7 3.56552 10.7 3.97974V5.37259C10.7 5.84598 11.0838 6.22974 11.5572 6.22974H12.2V1.72974H7.70001V2.37259C7.70001 2.84598 8.08377 3.22974 8.55716 3.22974ZM9.20001 4.72974H4.70001V5.37259C4.70001 5.84598 5.08377 6.22974 5.55716 6.22974H6.95001C7.36423 6.22974 7.70001 6.56552 7.70001 6.97974V8.37259C7.70001 8.84598 8.08377 9.22974 8.55716 9.22974H9.20001V4.72974ZM6.20001 7.72974H1.70001V8.37259C1.70001 8.84598 2.08377 9.22974 2.55716 9.22974H3.95001C4.36423 9.22974 4.70001 9.56552 4.70001 9.97974V11.3726C4.70001 11.846 5.08377 12.2297 5.55716 12.2297H6.20001V7.72974ZM12.45 12.4797V10.2297H13.95V12.4797H16.2V13.9797H13.95V16.2297H12.45V13.9797H10.2V12.4797H12.45Z" fill="#292A2E"/>
</svg>
