<svg width="17" height="17" viewBox="0 0 17 17" fill="none" xmlns="http://www.w3.org/2000/svg">
<path d="M14.7 6.39648C14.7 5.08481 13.6367 4.02148 12.325 4.02148H4.07501C2.76334 4.02148 1.70001 5.08481 1.70001 6.39648V10.6465C1.70001 11.9582 2.76334 13.0215 4.07501 13.0215H12.325C13.6367 13.0215 14.7 11.9582 14.7 10.6465V6.39648ZM16.2 10.6465C16.2 12.7866 14.4651 14.5215 12.325 14.5215H4.07501C1.93491 14.5215 0.200012 12.7866 0.200012 10.6465V6.39648C0.200012 4.25638 1.93491 2.52148 4.07501 2.52148H12.325C14.4651 2.52148 16.2 4.25638 16.2 6.39648V10.6465Z" fill="#292A2E"/>
</svg>
