<svg width="17" height="17" viewBox="0 0 17 17" fill="none" xmlns="http://www.w3.org/2000/svg">
<path fill-rule="evenodd" clip-rule="evenodd" d="M6.78546 2.95215C7.56632 2.17139 8.83252 2.17171 9.61359 2.95215L13.596 6.93457C14.3281 7.6668 14.3743 8.82582 13.7337 9.61133L13.596 9.7627L9.61359 13.7451C8.83256 14.526 7.56649 14.526 6.78546 13.7451L2.80304 9.7627C2.0226 8.98163 2.02228 7.71543 2.80304 6.93457L6.78546 2.95215ZM8.2005 10.3486C7.6483 10.3486 7.20063 10.7965 7.2005 11.3486C7.2005 11.9009 7.64822 12.3486 8.2005 12.3486C8.75256 12.3484 9.2005 11.9008 9.2005 11.3486C9.20037 10.7966 8.75248 10.3489 8.2005 10.3486ZM7.4505 4.34863V9.34863H8.9505V4.34863H7.4505Z" fill="#292A2E"/>
</svg>
