<svg width="17" height="17" viewBox="0 0 17 17" fill="none" xmlns="http://www.w3.org/2000/svg">
<path fill-rule="evenodd" clip-rule="evenodd" d="M14.2 15.7375L14.2 13.2375C14.2 12.133 13.3046 11.2375 12.2 11.2375H4.20001C3.09544 11.2375 2.20001 12.133 2.20001 13.2375L2.20001 15.7375H3.70001L3.70001 13.2375C3.70001 12.9614 3.92387 12.7375 4.20001 12.7375H12.2C12.4761 12.7375 12.7 12.9614 12.7 13.2375L12.7 15.7375L14.2 15.7375ZM16.2 7.98755H0.200012V9.48755H16.2V7.98755ZM2.20001 4.23809C2.20001 5.34309 3.09587 6.23755 4.20001 6.23755H12.2C13.3046 6.23755 14.2 5.34212 14.2 4.23755L14.2 1.73755L12.7 1.73755L12.7 4.23755C12.7 4.51369 12.4761 4.73755 12.2 4.73755H4.20001C3.92345 4.73755 3.70001 4.51381 3.70001 4.23809V1.73755H2.20001V4.23809Z" fill="#292A2E"/>
</svg>
