<svg width="17" height="17" viewBox="0 0 17 17" fill="none" xmlns="http://www.w3.org/2000/svg">
<path fill-rule="evenodd" clip-rule="evenodd" d="M3.45001 4.00293V1.75293H4.95001V4.00293H7.20001V5.50293H4.95001V7.75293H3.45001V5.50293H1.20001V4.00293H3.45001Z" fill="#292A2E"/>
<path fill-rule="evenodd" clip-rule="evenodd" d="M2.88935 13.0029L1.16968 11.2833L2.23034 10.2226L3.95001 11.9423L5.66968 10.2226L6.73034 11.2833L5.01067 13.0029L6.73033 14.7226L5.66966 15.7833L3.95001 14.0636L2.23034 15.7833L1.16968 14.7226L2.88935 13.0029Z" fill="#292A2E"/>
<path fill-rule="evenodd" clip-rule="evenodd" d="M15.2 5.50293H9.20001V4.00293H15.2V5.50293Z" fill="#292A2E"/>
<path fill-rule="evenodd" clip-rule="evenodd" d="M15.2 13.5029H9.20001V12.0029H15.2V13.5029Z" fill="#292A2E"/>
<path d="M12.95 10.2529C12.95 10.6671 12.6142 11.0029 12.2 11.0029C11.7858 11.0029 11.45 10.6671 11.45 10.2529C11.45 9.83872 11.7858 9.50293 12.2 9.50293C12.6142 9.50293 12.95 9.83872 12.95 10.2529Z" fill="#292A2E"/>
<path d="M12.95 15.2529C12.95 15.6671 12.6142 16.0029 12.2 16.0029C11.7858 16.0029 11.45 15.6671 11.45 15.2529C11.45 14.8387 11.7858 14.5029 12.2 14.5029C12.6142 14.5029 12.95 14.8387 12.95 15.2529Z" fill="#292A2E"/>
</svg>
