<svg width="17" height="17" viewBox="0 0 17 17" fill="none" xmlns="http://www.w3.org/2000/svg">
<path fill-rule="evenodd" clip-rule="evenodd" d="M15.2 7.32569L1.20001 7.32569L1.20001 5.82569L15.2 5.82569V7.32569ZM15.2 3.32568L1.20001 3.32568L1.20001 1.82568L15.2 1.82568L15.2 3.32568Z" fill="#292A2E"/>
<path d="M1.95001 11.8257C2.36423 11.8257 2.70001 11.4899 2.70001 11.0757C2.70001 10.6615 2.36423 10.3257 1.95001 10.3257C1.5358 10.3257 1.20001 10.6615 1.20001 11.0757C1.20001 11.4899 1.5358 11.8257 1.95001 11.8257Z" fill="#292A2E"/>
<path d="M1.95001 15.8257C2.36423 15.8257 2.70001 15.4899 2.70001 15.0757C2.70001 14.6615 2.36423 14.3257 1.95001 14.3257C1.5358 14.3257 1.20001 14.6615 1.20001 15.0757C1.20001 15.4899 1.5358 15.8257 1.95001 15.8257Z" fill="#292A2E"/>
<path d="M5.82501 11.0757C5.82501 11.4899 5.48923 11.8257 5.07501 11.8257C4.6608 11.8257 4.32501 11.4899 4.32501 11.0757C4.32501 10.6615 4.6608 10.3257 5.07501 10.3257C5.48923 10.3257 5.82501 10.6615 5.82501 11.0757Z" fill="#292A2E"/>
<path d="M5.07501 15.8257C5.48923 15.8257 5.82501 15.4899 5.82501 15.0757C5.82501 14.6615 5.48923 14.3257 5.07501 14.3257C4.6608 14.3257 4.32501 14.6615 4.32501 15.0757C4.32501 15.4899 4.6608 15.8257 5.07501 15.8257Z" fill="#292A2E"/>
<path d="M8.95001 11.0757C8.95001 11.4899 8.61423 11.8257 8.20001 11.8257C7.7858 11.8257 7.45001 11.4899 7.45001 11.0757C7.45001 10.6615 7.7858 10.3257 8.20001 10.3257C8.61423 10.3257 8.95001 10.6615 8.95001 11.0757Z" fill="#292A2E"/>
<path d="M8.20001 15.8257C8.61423 15.8257 8.95001 15.4899 8.95001 15.0757C8.95001 14.6615 8.61423 14.3257 8.20001 14.3257C7.7858 14.3257 7.45001 14.6615 7.45001 15.0757C7.45001 15.4899 7.7858 15.8257 8.20001 15.8257Z" fill="#292A2E"/>
<path d="M12.075 11.0757C12.075 11.4899 11.7392 11.8257 11.325 11.8257C10.9108 11.8257 10.575 11.4899 10.575 11.0757C10.575 10.6615 10.9108 10.3257 11.325 10.3257C11.7392 10.3257 12.075 10.6615 12.075 11.0757Z" fill="#292A2E"/>
<path d="M14.45 11.8257C14.8642 11.8257 15.2 11.4899 15.2 11.0757C15.2 10.6615 14.8642 10.3257 14.45 10.3257C14.0358 10.3257 13.7 10.6615 13.7 11.0757C13.7 11.4899 14.0358 11.8257 14.45 11.8257Z" fill="#292A2E"/>
</svg>
