<svg width="17" height="16" viewBox="0 0 17 16" fill="none" xmlns="http://www.w3.org/2000/svg">
<path fill-rule="evenodd" clip-rule="evenodd" d="M0.200012 2.37305C0.200012 1.61366 0.81562 0.998047 1.57501 0.998047H2.32501C3.0844 0.998047 3.70001 1.61366 3.70001 2.37305V13.623C3.70001 14.3824 3.0844 14.998 2.32501 14.998H1.57501C0.815621 14.998 0.200012 14.3824 0.200012 13.623V2.37305ZM1.70001 2.49805V13.498H2.20001V2.49805H1.70001ZM5.20001 2.37305C5.20001 1.61366 5.81562 0.998047 6.57501 0.998047H7.32501C8.0844 0.998047 8.70001 1.61366 8.70001 2.37305V13.623C8.70001 14.3824 8.0844 14.998 7.32501 14.998H6.57501C5.81562 14.998 5.20001 14.3824 5.20001 13.623V2.37305ZM6.70001 2.49805V13.498H7.20001V2.49805H6.70001ZM10.2 2.37305C10.2 1.61366 10.8156 0.998047 11.575 0.998047H14.825C15.5844 0.998047 16.2 1.61366 16.2 2.37305V13.623C16.2 14.3824 15.5844 14.998 14.825 14.998H11.575C10.8156 14.998 10.2 14.3824 10.2 13.623V2.37305ZM11.7 2.49805V13.498H14.7V2.49805H11.7Z" fill="#292A2E"/>
</svg>
