<svg width="17" height="17" viewBox="0 0 17 17" fill="none" xmlns="http://www.w3.org/2000/svg">
<path fill-rule="evenodd" clip-rule="evenodd" d="M12.6999 0.798829C13.0154 0.798508 13.2974 0.995617 13.4056 1.29204L13.9409 2.75958C13.9914 2.8982 14.1006 3.00741 14.2393 3.05797L15.7068 3.59328C16.0028 3.70125 16.2 3.98278 16.2 4.29818C16.2 4.61343 16.003 4.89506 15.7068 5.00309L14.2393 5.5384C14.1006 5.58896 13.9914 5.69817 13.9409 5.83678L13.4056 7.30433C13.2976 7.60038 13.016 7.79754 12.7007 7.79754C12.3854 7.79754 12.1038 7.60049 11.9957 7.30433L11.4604 5.83678C11.4099 5.69817 11.3007 5.58896 11.1621 5.5384L9.69451 5.00309C9.39849 4.89511 9.20129 4.61359 9.20129 4.29818C9.20129 3.98294 9.39835 3.70131 9.69451 3.59328L11.1621 3.05797C11.3007 3.00741 11.4099 2.8982 11.4604 2.75958L11.9957 1.29204C12.1036 0.996241 12.3848 0.799149 12.6999 0.798829ZM5.60013 6.9913C6.3673 6.22517 7.6052 6.20982 8.39113 6.95669L10.5221 8.98175C11.3355 9.7548 11.3539 11.0457 10.5627 11.8416L7.39864 15.0243L7.38485 15.0378L6.1222 16.2441C5.75009 16.5996 5.25525 16.798 4.74062 16.798H3.83033C3.35177 16.798 2.88908 16.6264 2.52625 16.3143L2.40165 16.2072C2.38741 16.1949 2.37363 16.1822 2.36035 16.1689L0.803559 14.6121C0.0225102 13.831 0.0225124 12.5647 0.80356 11.7837L2.47925 10.108L5.60013 6.9913ZM7.35783 8.04402C7.16134 7.8573 6.85187 7.86114 6.66008 8.05267L4.0706 10.6387L6.8652 13.4333L9.49892 10.784C9.69672 10.5851 9.69214 10.2623 9.48877 10.0691L7.35783 8.04402ZM5.79386 14.4832L3.00958 11.699L1.86422 12.8443C1.66896 13.0396 1.66896 13.3562 1.86422 13.5514L3.40108 15.0883L3.50431 15.1771C3.59502 15.2551 3.71069 15.298 3.83033 15.298H4.74062C4.86928 15.298 4.99298 15.2484 5.08601 15.1595L5.79386 14.4832ZM16.2 16.798H9.20001V15.298H16.2V16.798Z" fill="#292A2E"/>
</svg>
