<svg width="17" height="17" viewBox="0 0 17 17" fill="none" xmlns="http://www.w3.org/2000/svg">
<path d="M10.2 10.4907H12.2V12.4907H10.2V10.4907Z" fill="#292A2E"/>
<path fill-rule="evenodd" clip-rule="evenodd" d="M3.20001 2.99072C2.92387 2.99072 2.70001 3.21458 2.70001 3.49072V5.74072H1.20001V3.49072C1.20001 2.38615 2.09544 1.49072 3.20001 1.49072H5.45001V2.99072H3.20001ZM10.95 1.49072H13.2C14.3046 1.49072 15.2 2.38615 15.2 3.49072V5.74072H13.7V3.49072C13.7 3.21458 13.4762 2.99072 13.2 2.99072H10.95V1.49072ZM4.20001 4.49072H9.20001V9.49072H4.20001V4.49072ZM5.70001 5.99072V7.99072H7.70001V5.99072H5.70001ZM10.7 8.49072V4.49072H12.2V8.49072H10.7ZM8.20001 12.4907H4.20001V10.9907H8.20001V12.4907ZM1.20001 13.4907V11.2407H2.70001V13.4907C2.70001 13.7669 2.92387 13.9907 3.20001 13.9907H5.45001V15.4907H3.20001C2.09544 15.4907 1.20001 14.5953 1.20001 13.4907ZM13.7 13.4907V11.2407H15.2V13.4907C15.2 14.5953 14.3046 15.4907 13.2 15.4907H10.95V13.9907H13.2C13.4762 13.9907 13.7 13.7669 13.7 13.4907Z" fill="#292A2E"/>
</svg>
