<svg width="17" height="17" viewBox="0 0 17 17" fill="none" xmlns="http://www.w3.org/2000/svg">
<path fill-rule="evenodd" clip-rule="evenodd" d="M0.200012 4.87744C0.200012 3.77287 1.09544 2.87744 2.20001 2.87744H14.2C15.3046 2.87744 16.2 3.77287 16.2 4.87744V12.8774C16.2 13.982 15.3046 14.8774 14.2 14.8774H2.20001C1.09544 14.8774 0.200012 13.982 0.200012 12.8774V4.87744ZM4.94928 10.3776V7.37756H6.19928V7.87756H7.69928V7.25256C7.69928 6.49317 7.08367 5.87756 6.32428 5.87756H4.82428C4.06489 5.87756 3.44928 6.49317 3.44928 7.25256V10.5026C3.44928 11.262 4.06489 11.8776 4.82428 11.8776H6.32428C7.08367 11.8776 7.69928 11.262 7.69928 10.5026V9.87756H6.19928V10.3776H4.94928ZM10.1993 10.3776V7.37756H11.4493V7.87756H12.9493V7.25256C12.9493 6.49317 12.3337 5.87756 11.5743 5.87756H10.0743C9.31489 5.87756 8.69928 6.49317 8.69928 7.25256V10.5026C8.69928 11.262 9.31489 11.8776 10.0743 11.8776H11.5743C12.3337 11.8776 12.9493 11.262 12.9493 10.5026V9.87756H11.4493V10.3776H10.1993Z" fill="#292A2E"/>
</svg>
