<svg width="17" height="17" viewBox="0 0 17 17" fill="none" xmlns="http://www.w3.org/2000/svg">
<path fill-rule="evenodd" clip-rule="evenodd" d="M12.0358 6.1871C12.8169 5.40606 14.0832 5.40606 14.8642 6.18711L15.5965 6.91934C16.3775 7.70039 16.3775 8.96672 15.5965 9.74776L10.4594 14.8848C10.2191 15.1252 9.92144 15.3003 9.59463 15.3937L6.40607 16.3047C6.14418 16.3795 5.8623 16.3065 5.6697 16.1139C5.4771 15.9213 5.40406 15.6394 5.47889 15.3775L6.3899 12.189C6.48328 11.8621 6.6584 11.5645 6.89874 11.3242L12.0358 6.1871ZM13.8036 7.24777C13.6083 7.0525 13.2917 7.0525 13.0965 7.24776L12.5107 7.83355L13.95 9.27289L14.5358 8.68711C14.7311 8.49184 14.7311 8.17526 14.5358 7.98L13.8036 7.24777ZM12.8894 10.3336L11.45 8.89421L7.9594 12.3848C7.89931 12.4449 7.85553 12.5193 7.83219 12.601L7.29205 14.4915L9.18254 13.9514C9.26425 13.928 9.33865 13.8843 9.39874 13.8242L12.8894 10.3336Z" fill="#292A2E"/>
<path fill-rule="evenodd" clip-rule="evenodd" d="M4.95001 0.333496C5.25932 0.333496 5.53691 0.523383 5.64902 0.811661L6.64941 3.3841L9.22185 4.38449C9.51013 4.4966 9.70001 4.77419 9.70001 5.0835C9.70001 5.39281 9.51013 5.67039 9.22185 5.7825L6.64941 6.78289L5.64902 9.35533C5.53691 9.64361 5.25932 9.8335 4.95001 9.8335C4.6407 9.8335 4.36312 9.64361 4.25101 9.35533L3.25062 6.78289L0.678178 5.7825C0.389899 5.67039 0.200012 5.39281 0.200012 5.0835C0.200012 4.77419 0.389899 4.4966 0.678177 4.38449L3.25062 3.3841L4.25101 0.811661C4.36312 0.523383 4.6407 0.333496 4.95001 0.333496ZM4.95001 3.15277L4.52902 4.23533C4.4528 4.43131 4.29782 4.58629 4.10185 4.6625L3.01928 5.0835L4.10185 5.50449C4.29782 5.58071 4.4528 5.73569 4.52902 5.93166L4.95001 7.01422L5.37101 5.93166C5.44722 5.73569 5.6022 5.58071 5.79818 5.50449L6.88074 5.0835L5.79818 4.6625C5.6022 4.58629 5.44722 4.43131 5.37101 4.23533L4.95001 3.15277Z" fill="#292A2E"/>
</svg>
