<svg width="17" height="17" viewBox="0 0 17 17" fill="none" xmlns="http://www.w3.org/2000/svg">
<path fill-rule="evenodd" clip-rule="evenodd" d="M0.200012 2.56177C0.200012 2.14755 0.535799 1.81177 0.950012 1.81177H1.45001C1.86423 1.81177 2.20001 2.14755 2.20001 2.56177V15.0618C2.20001 15.476 1.86423 15.8118 1.45001 15.8118H0.950012C0.535799 15.8118 0.200012 15.476 0.200012 15.0618V2.56177ZM3.70001 2.56177C3.70001 2.14755 4.0358 1.81177 4.45001 1.81177H4.95001C5.36423 1.81177 5.70001 2.14755 5.70001 2.56177V15.0618C5.70001 15.476 5.36423 15.8118 4.95001 15.8118H4.45001C4.0358 15.8118 3.70001 15.476 3.70001 15.0618V2.56177ZM7.20001 2.56177C7.20001 2.14755 7.5358 1.81177 7.95001 1.81177H8.45001C8.86423 1.81177 9.20001 2.14755 9.20001 2.56177V15.0618C9.20001 15.476 8.86423 15.8118 8.45001 15.8118H7.95001C7.5358 15.8118 7.20001 15.476 7.20001 15.0618V2.56177ZM10.7 2.56177C10.7 2.14755 11.0358 1.81177 11.45 1.81177H11.95C12.3642 1.81177 12.7 2.14755 12.7 2.56177V15.0618C12.7 15.476 12.3642 15.8118 11.95 15.8118H11.45C11.0358 15.8118 10.7 15.476 10.7 15.0618V2.56177ZM14.2 2.56177C14.2 2.14755 14.5358 1.81177 14.95 1.81177H15.45C15.8642 1.81177 16.2 2.14755 16.2 2.56177V15.0618C16.2 15.476 15.8642 15.8118 15.45 15.8118H14.95C14.5358 15.8118 14.2 15.476 14.2 15.0618V2.56177Z" fill="#292A2E"/>
</svg>
