<svg width="17" height="17" viewBox="0 0 17 17" fill="none" xmlns="http://www.w3.org/2000/svg">
<path fill-rule="evenodd" clip-rule="evenodd" d="M6.45001 0.272949H11.7C12.1142 0.272949 12.45 0.608736 12.45 1.02295V6.27295H10.95V2.83361L6.48034 7.30328L5.41968 6.24262L9.88935 1.77295H6.45001V0.272949ZM1.70001 10.2729V14.7729H6.20001V10.2729H1.70001ZM0.200012 10.1479C0.200012 9.38856 0.815621 8.77295 1.57501 8.77295H6.32501C7.0844 8.77295 7.70001 9.38856 7.70001 10.1479V14.8979C7.70001 15.6573 7.0844 16.2729 6.32501 16.2729H1.57501C0.815621 16.2729 0.200012 15.6573 0.200012 14.8979V10.1479ZM11.7 10.2729H9.20001V8.77295H15.7V10.2729H13.2V16.2729H11.7V10.2729Z" fill="#292A2E"/>
</svg>
