<svg width="17" height="17" viewBox="0 0 17 17" fill="none" xmlns="http://www.w3.org/2000/svg">
<path d="M9.20001 3.39304C9.20001 2.84075 8.7523 2.39304 8.20001 2.39304C7.64773 2.39304 7.20001 2.84075 7.20001 3.39304C7.20001 3.94532 7.64773 4.39304 8.20001 4.39304C8.7523 4.39304 9.20001 3.94532 9.20001 3.39304ZM10.7 3.39304C10.7 4.77375 9.58072 5.89304 8.20001 5.89304C6.8193 5.89304 5.70001 4.77375 5.70001 3.39304C5.70001 2.01232 6.8193 0.893036 8.20001 0.893036C9.58072 0.893036 10.7 2.01232 10.7 3.39304Z" fill="#292A2E"/>
<path d="M3.20001 8.89304C3.20001 8.47882 2.86423 8.14304 2.45001 8.14304C2.0358 8.14304 1.70001 8.47882 1.70001 8.89304C1.70001 9.30725 2.0358 9.64304 2.45001 9.64304C2.86423 9.64304 3.20001 9.30725 3.20001 8.89304ZM4.70001 8.89304C4.70001 10.1357 3.69265 11.143 2.45001 11.143C1.20737 11.143 0.200012 10.1357 0.200012 8.89304C0.200012 7.6504 1.20737 6.64304 2.45001 6.64304C3.69265 6.64304 4.70001 7.6504 4.70001 8.89304Z" fill="#292A2E"/>
<path d="M14.7 8.89304C14.7 8.47882 14.3642 8.14304 13.95 8.14304C13.5358 8.14304 13.2 8.47882 13.2 8.89304C13.2 9.30725 13.5358 9.64304 13.95 9.64304C14.3642 9.64304 14.7 9.30725 14.7 8.89304ZM16.2 8.89304C16.2 10.1357 15.1927 11.143 13.95 11.143C12.7074 11.143 11.7 10.1357 11.7 8.89304C11.7 7.6504 12.7074 6.64304 13.95 6.64304C15.1927 6.64304 16.2 7.6504 16.2 8.89304Z" fill="#292A2E"/>
<path d="M8.95001 14.643C8.95001 14.2288 8.61423 13.893 8.20001 13.893C7.7858 13.893 7.45001 14.2288 7.45001 14.643C7.45001 15.0572 7.7858 15.393 8.20001 15.393C8.61423 15.393 8.95001 15.0572 8.95001 14.643ZM10.45 14.643C10.45 15.8857 9.44265 16.893 8.20001 16.893C6.95737 16.893 5.95001 15.8857 5.95001 14.643C5.95001 13.4004 6.95737 12.393 8.20001 12.393C9.44265 12.393 10.45 13.4004 10.45 14.643Z" fill="#292A2E"/>
<path d="M2.98039 9.42329C3.12662 9.27704 3.19964 9.08697 3.19998 8.89435C3.20021 8.70093 3.12721 8.50945 2.98039 8.36263C2.68751 8.06975 2.21262 8.06978 1.91973 8.36263C1.62683 8.65553 1.62683 9.1304 1.91973 9.42329C2.21262 9.71619 2.68749 9.71619 2.98039 9.42329ZM8.73046 15.1734C9.02329 14.8805 9.02317 14.4056 8.73046 14.1127C8.43757 13.8198 7.9627 13.8198 7.6698 14.1127C7.37699 14.4056 7.37694 14.8805 7.6698 15.1734C7.96269 15.466 8.43763 15.4661 8.73046 15.1734ZM8.73046 3.67322C9.02324 3.38032 9.02332 2.90541 8.73046 2.61256C8.43761 2.3197 7.96271 2.31978 7.6698 2.61256C7.37691 2.90545 7.37691 3.38032 7.6698 3.67322C7.9627 3.96611 8.43757 3.96611 8.73046 3.67322ZM14.4805 9.42329C14.7734 9.13046 14.7732 8.65554 14.4805 8.36263C14.1876 8.06974 13.7128 8.06974 13.4199 8.36263C13.2731 8.50944 13.1998 8.69963 13.2 8.89304C13.2003 9.08579 13.2735 9.27696 13.4199 9.42329C13.7128 9.716 14.1877 9.71612 14.4805 9.42329ZM15.5412 10.484C14.8489 11.1763 13.8189 11.3198 12.9828 10.9211L10.2296 13.6742C10.6287 14.5104 10.4836 15.5415 9.79112 16.234C8.9125 17.1126 7.48781 17.1125 6.60914 16.234C5.73049 15.3554 5.73054 13.9307 6.60914 13.052C7.30177 12.3594 8.33267 12.2142 9.16895 12.6136L11.9214 9.86109C11.8875 9.79003 11.8577 9.7178 11.8317 9.64427L4.56793 9.64357C4.45954 9.95 4.286 10.239 4.04105 10.484C3.16237 11.3626 1.73775 11.3626 0.859068 10.484C-0.0196119 9.60527 -0.0196119 8.18065 0.859068 7.30197C1.55156 6.60951 2.582 6.46515 3.41819 6.86418L6.17135 4.11102C5.77235 3.27483 5.91667 2.24438 6.60914 1.5519C7.48783 0.673331 8.91248 0.673256 9.79112 1.5519C10.6698 2.43054 10.6697 3.85519 9.79112 4.73388C9.09865 5.42636 8.06819 5.57067 7.23201 5.17168L4.47885 7.92484C4.51306 7.99656 4.54311 8.06949 4.56931 8.14373L11.8303 8.14442C11.9386 7.83703 12.1136 7.54763 12.3592 7.30197C13.2379 6.42329 14.6625 6.42329 15.5412 7.30197C16.4197 8.18067 16.4198 9.60534 15.5412 10.484Z" fill="#292A2E"/>
</svg>
