<svg width="17" height="17" viewBox="0 0 17 17" fill="none" xmlns="http://www.w3.org/2000/svg">
<path fill-rule="evenodd" clip-rule="evenodd" d="M1.69977 2.29712C1.69977 2.02098 1.92363 1.79712 2.19977 1.79712H5.13911L6.88911 3.54712H12.1998C12.4759 3.54712 12.6998 3.77098 12.6998 4.04712V5.29712H1.69977V2.29712ZM1.69977 12.2971V6.79712H14.1998V4.04712C14.1998 2.94255 13.3043 2.04712 12.1998 2.04712H7.51043L5.76043 0.297119H2.19977C1.0952 0.297119 0.199768 1.19255 0.199768 2.29712V12.2971C0.199768 13.4017 1.0952 14.2971 2.19977 14.2971H6.69977V12.7971H2.19977C1.92363 12.7971 1.69977 12.5733 1.69977 12.2971ZM10.9498 13.2971C9.43099 13.2971 8.19977 14.5283 8.19977 16.0471V16.2971H9.69977V16.0471C9.69977 15.3568 10.2594 14.7971 10.9498 14.7971H13.4498C14.1401 14.7971 14.6998 15.3568 14.6998 16.0471V16.2971H16.1998V16.0471C16.1998 14.5283 14.9686 13.2971 13.4498 13.2971H10.9498Z" fill="#292A2E"/>
<path fill-rule="evenodd" clip-rule="evenodd" d="M12.2 8.29712C11.0954 8.29712 10.2 9.19255 10.2 10.2971C10.2 11.4017 11.0954 12.2971 12.2 12.2971C13.3046 12.2971 14.2 11.4017 14.2 10.2971C14.2 9.19255 13.3046 8.29712 12.2 8.29712ZM12.2 9.79712C11.9239 9.79712 11.7 10.021 11.7 10.2971C11.7 10.5733 11.9239 10.7971 12.2 10.7971C12.4762 10.7971 12.7 10.5733 12.7 10.2971C12.7 10.021 12.4762 9.79712 12.2 9.79712Z" fill="#292A2E"/>
<path d="M11.7 10.2971C11.7 10.021 11.9239 9.79712 12.2 9.79712C12.4762 9.79712 12.7 10.021 12.7 10.2971C12.7 10.5733 12.4762 10.7971 12.2 10.7971C11.9239 10.7971 11.7 10.5733 11.7 10.2971Z" fill="#292A2E"/>
</svg>
