<svg width="17" height="17" viewBox="0 0 17 17" fill="none" xmlns="http://www.w3.org/2000/svg">
<path fill-rule="evenodd" clip-rule="evenodd" d="M3.48034 2.99506C3.18745 2.70217 2.71258 2.70217 2.41968 2.99506C2.12679 3.28795 2.12679 3.76283 2.41968 4.05572C2.71258 4.34861 3.18745 4.34861 3.48034 4.05572C3.77324 3.76283 3.77324 3.28795 3.48034 2.99506ZM1.35902 1.9344C2.2377 1.05572 3.66232 1.05572 4.541 1.9344C5.23374 2.62713 5.38033 3.6592 4.98079 4.49555L6.67565 6.19056C7.61295 5.63699 8.78668 5.637 9.72397 6.19059L11.4192 4.49549C11.0197 3.65915 11.1663 2.62712 11.859 1.9344C12.7377 1.05572 14.1623 1.05572 15.041 1.9344C15.9197 2.81308 15.9197 4.2377 15.041 5.11638C14.3483 5.80912 13.3162 5.95571 12.4799 5.55617L10.7846 7.25126C11.3382 8.18854 11.3382 9.36224 10.7846 10.2995L12.4799 11.9946C13.3162 11.5951 14.3483 11.7417 15.041 12.4344C15.9197 13.3131 15.9197 14.7377 15.041 15.6164C14.1623 16.4951 12.7377 16.4951 11.859 15.6164C11.1663 14.9237 11.0197 13.8916 11.4192 13.0553L9.72397 11.3602C8.78668 11.9138 7.61295 11.9138 6.67565 11.3602L4.98079 13.0552C5.38033 13.8916 5.23374 14.9236 4.541 15.6164C3.66232 16.4951 2.2377 16.4951 1.35902 15.6164C0.480342 14.7377 0.480342 13.3131 1.35902 12.4344C2.05174 11.7417 3.08377 11.5951 3.92012 11.9946L5.61498 10.2996C5.06139 9.36227 5.06139 8.18852 5.61498 7.25121L3.92012 5.55619C3.08377 5.95571 2.05174 5.8091 1.35902 5.11638C0.480342 4.2377 0.480342 2.81308 1.35902 1.9344ZM13.9803 2.99506C13.6874 2.70217 13.2126 2.70217 12.9197 2.99506C12.6268 3.28795 12.6268 3.76283 12.9197 4.05572C13.2126 4.34861 13.6874 4.34861 13.9803 4.05572C14.2732 3.76283 14.2732 3.28795 13.9803 2.99506ZM9.26045 7.71473C8.67466 7.12894 7.72491 7.12894 7.13912 7.71473C6.55334 8.30052 6.55334 9.25026 7.13913 9.83605C7.72491 10.4218 8.67466 10.4218 9.26045 9.83605C9.84623 9.25026 9.84623 8.30052 9.26045 7.71473ZM3.48034 13.4951C3.18745 13.2022 2.71258 13.2022 2.41968 13.4951C2.12679 13.788 2.12679 14.2628 2.41968 14.5557C2.71258 14.8486 3.18745 14.8486 3.48034 14.5557C3.77324 14.2628 3.77324 13.788 3.48034 13.4951ZM13.9803 13.4951C13.6874 13.2022 13.2126 13.2022 12.9197 13.4951C12.6268 13.788 12.6268 14.2628 12.9197 14.5557C13.2126 14.8486 13.6874 14.8486 13.9803 14.5557C14.2732 14.2628 14.2732 13.788 13.9803 13.4951Z" fill="#292A2E"/>
</svg>
