<svg width="17" height="17" viewBox="0 0 17 17" fill="none" xmlns="http://www.w3.org/2000/svg">
<path fill-rule="evenodd" clip-rule="evenodd" d="M3.20001 2.78174C2.09544 2.78174 1.20001 3.67717 1.20001 4.78174L1.20001 13.2817C1.20001 14.3863 2.09544 15.2817 3.20001 15.2817L11.7 15.2817C12.8046 15.2817 13.7 14.3863 13.7 13.2817V10.5317H12.2V13.2817C12.2 13.5579 11.9762 13.7817 11.7 13.7817L3.20001 13.7817C2.92387 13.7817 2.70001 13.5579 2.70001 13.2817L2.70001 4.78174C2.70001 4.5056 2.92387 4.28174 3.20001 4.28174H6.20001V2.78174H3.20001Z" fill="#292A2E"/>
<path fill-rule="evenodd" clip-rule="evenodd" d="M6.20001 9.22108L6.20001 6.78174H4.70001V11.0317C4.70001 11.2307 4.77903 11.4214 4.91968 11.5621C5.06033 11.7027 5.2511 11.7817 5.45001 11.7817H9.70001V10.2817H7.26067L9.48034 8.06207L8.41968 7.00141L6.20001 9.22108Z" fill="#292A2E"/>
<path fill-rule="evenodd" clip-rule="evenodd" d="M14.2 8.28174C15.3046 8.28174 16.2 7.38631 16.2 6.28174V2.28174C16.2 1.17717 15.3046 0.281738 14.2 0.281738L10.2 0.281738C9.09544 0.281739 8.20001 1.17717 8.20001 2.28174L8.20001 6.28174C8.20001 7.38631 9.09544 8.28174 10.2 8.28174H14.2ZM14.7 6.28174C14.7 6.55788 14.4762 6.78174 14.2 6.78174H10.2C9.92387 6.78174 9.70001 6.55788 9.70001 6.28174V2.28174C9.70001 2.0056 9.92387 1.78174 10.2 1.78174L14.2 1.78174C14.4762 1.78174 14.7 2.0056 14.7 2.28174V6.28174Z" fill="#292A2E"/>
</svg>
