<svg width="17" height="17" viewBox="0 0 17 17" fill="none" xmlns="http://www.w3.org/2000/svg">
<path d="M13.45 13.9163H14.7V2.91626H13.45V13.9163ZM1.70001 11.9163H2.95001V2.91626H1.70001V11.9163ZM7.45001 9.91626H8.95001V2.91626H7.45001V9.91626ZM4.45001 12.0413C4.45001 12.8007 3.8344 13.4163 3.07501 13.4163H1.57501C0.815621 13.4163 0.200012 12.8007 0.200012 12.0413V2.79126C0.200012 2.03187 0.815621 1.41626 1.57501 1.41626H3.07501C3.8344 1.41626 4.45001 2.03187 4.45001 2.79126V12.0413ZM10.45 10.0413C10.45 10.8007 9.8344 11.4163 9.07501 11.4163H7.32501C6.56562 11.4163 5.95001 10.8007 5.95001 10.0413V2.79126C5.95001 2.03187 6.56562 1.41626 7.32501 1.41626H9.07501C9.8344 1.41626 10.45 2.03187 10.45 2.79126V10.0413ZM16.2 14.0413C16.2 14.8007 15.5844 15.4163 14.825 15.4163H13.325C12.5656 15.4163 11.95 14.8007 11.95 14.0413V2.79126C11.95 2.03187 12.5656 1.41626 13.325 1.41626H14.825C15.5844 1.41626 16.2 2.03187 16.2 2.79126V14.0413Z" fill="#292A2E"/>
</svg>
