<svg width="17" height="17" viewBox="0 0 17 17" fill="none" xmlns="http://www.w3.org/2000/svg">
<path fill-rule="evenodd" clip-rule="evenodd" d="M5.20001 1.60205C3.8193 1.60205 2.70001 2.72134 2.70001 4.10205C2.70001 5.48276 3.8193 6.60205 5.20001 6.60205C6.58072 6.60205 7.70001 5.48276 7.70001 4.10205C7.70001 2.72134 6.58072 1.60205 5.20001 1.60205ZM1.20001 4.10205C1.20001 1.89291 2.99087 0.102051 5.20001 0.102051C7.40915 0.102051 9.20001 1.89291 9.20001 4.10205C9.20001 6.31119 7.40915 8.10205 5.20001 8.10205C2.99087 8.10205 1.20001 6.31119 1.20001 4.10205ZM3.95001 10.6021C2.70737 10.6021 1.70001 11.6094 1.70001 12.8521V15.1021H0.200012V12.8521C0.200012 10.781 1.87894 9.10205 3.95001 9.10205H6.45001C8.52108 9.10205 10.2 10.781 10.2 12.8521V15.1021H8.70001V12.8521C8.70001 11.6094 7.69265 10.6021 6.45001 10.6021H3.95001Z" fill="#292A2E"/>
<path d="M13.2 9.5465L11.674 10.5929C11.4192 10.7676 11.0847 10.5309 11.1648 10.2326L11.6445 8.44464L10.329 7.34843C10.0997 7.15736 10.2188 6.78437 10.5164 6.76148L12.2278 6.62983L12.8897 4.90893C12.999 4.62474 13.401 4.62474 13.5103 4.90893L14.1722 6.62983L15.8837 6.76148C16.1812 6.78437 16.3003 7.15736 16.071 7.34843L14.7556 8.44464L15.2353 10.2326C15.3153 10.5309 14.9808 10.7676 14.7261 10.5929L13.2 9.5465Z" fill="#292A2E"/>
</svg>
