<svg width="17" height="17" viewBox="0 0 17 17" fill="none" xmlns="http://www.w3.org/2000/svg">
<path d="M7.33182 0.495328C7.83598 0.0839142 8.56399 0.0839142 9.06815 0.495328L9.17264 0.589078L15.7889 7.20529L15.8826 7.30978C16.294 7.81394 16.294 8.54195 15.8826 9.04611L15.7889 9.1506L9.17264 15.7668C8.66914 16.2703 7.87187 16.3013 7.33182 15.8606L7.22733 15.7668L0.611116 9.1506C0.074208 8.61364 0.0742081 7.74225 0.611116 7.20529L7.22733 0.589078L7.33182 0.495328ZM8.19998 14.6164L13.8885 8.92795H2.51151L8.19998 14.6164ZM2.51151 7.42795H13.8885L8.19998 1.73947L2.51151 7.42795Z" fill="#292A2E"/>
</svg>
