<svg width="17" height="17" viewBox="0 0 17 17" fill="none" xmlns="http://www.w3.org/2000/svg">
<path fill-rule="evenodd" clip-rule="evenodd" d="M4.45001 2.6709C4.0358 2.6709 3.70001 3.00668 3.70001 3.4209C3.70001 3.83511 4.0358 4.1709 4.45001 4.1709C4.86423 4.1709 5.20001 3.83511 5.20001 3.4209C5.20001 3.00668 4.86423 2.6709 4.45001 2.6709ZM2.20001 3.4209C2.20001 2.17826 3.20737 1.1709 4.45001 1.1709C5.69265 1.1709 6.70001 2.17826 6.70001 3.4209C6.70001 4.40056 6.07391 5.23399 5.20001 5.54287V6.6709H9.82804C10.1369 5.797 10.9703 5.1709 11.95 5.1709C13.1927 5.1709 14.2 6.17826 14.2 7.4209C14.2 8.66354 13.1927 9.6709 11.95 9.6709C10.9703 9.6709 10.1369 9.04479 9.82804 8.1709H5.20001V11.7959C5.20001 12.072 5.42387 12.2959 5.70001 12.2959H9.78795C10.0588 11.3573 10.9242 10.6709 11.95 10.6709C13.1927 10.6709 14.2 11.6783 14.2 12.9209C14.2 14.1635 13.1927 15.1709 11.95 15.1709C11.0177 15.1709 10.2179 14.6039 9.87649 13.7959H5.70001C4.59544 13.7959 3.70001 12.9005 3.70001 11.7959V5.54287C2.82612 5.23399 2.20001 4.40056 2.20001 3.4209ZM11.95 6.6709C11.5358 6.6709 11.2 7.00668 11.2 7.4209C11.2 7.83511 11.5358 8.1709 11.95 8.1709C12.3642 8.1709 12.7 7.83511 12.7 7.4209C12.7 7.00668 12.3642 6.6709 11.95 6.6709ZM11.95 12.1709C11.5358 12.1709 11.2 12.5067 11.2 12.9209C11.2 13.3351 11.5358 13.6709 11.95 13.6709C12.3642 13.6709 12.7 13.3351 12.7 12.9209C12.7 12.5067 12.3642 12.1709 11.95 12.1709Z" fill="#292A2E"/>
</svg>
