<svg width="17" height="17" viewBox="0 0 17 17" fill="none" xmlns="http://www.w3.org/2000/svg">
<path d="M14.7 4.26782C14.7 4.02611 14.5286 3.82411 14.3006 3.77759L14.2 3.76782H2.20001C1.92387 3.76782 1.70001 3.99168 1.70001 4.26782V10.8147L4.96271 12.5325L5.11505 12.5989C5.47721 12.7259 5.8846 12.6598 6.19025 12.4153L9.27325 9.94849C10.0882 9.29673 11.2121 9.18999 12.1356 9.67603L14.7 11.0256V4.26782ZM16.2 11.8538C16.2 12.6063 15.4001 13.089 14.7342 12.7385L11.4373 11.0032C11.0415 10.7948 10.5591 10.8409 10.2098 11.1204L7.12677 13.5872C6.36277 14.1982 5.32757 14.3299 4.44025 13.9436L4.26447 13.8596L0.734192 12.0022C0.40564 11.8293 0.200012 11.4877 0.200012 11.1165V4.26782C0.200012 3.16325 1.09544 2.26782 2.20001 2.26782H14.2L14.4041 2.27856C15.4128 2.38083 16.2 3.23217 16.2 4.26782V11.8538Z" fill="#292A2E"/>
</svg>
