<svg width="17" height="16" viewBox="0 0 17 16" fill="none" xmlns="http://www.w3.org/2000/svg">
<path d="M14.7 3.99146C14.7 3.74974 14.5286 3.54775 14.3006 3.50122L14.2 3.49146H13.2V12.4915H14.2C14.4762 12.4915 14.7 12.2676 14.7 11.9915V3.99146ZM4.70001 12.4915H11.7V3.49146H4.70001V12.4915ZM1.70001 11.9915C1.70001 12.2676 1.92387 12.4915 2.20001 12.4915H3.20001V3.49146H2.20001C1.92387 3.49146 1.70001 3.71531 1.70001 3.99146V11.9915ZM16.2 11.9915C16.2 13.096 15.3046 13.9915 14.2 13.9915H2.20001C1.09544 13.9915 0.200012 13.096 0.200012 11.9915V3.99146C0.200012 2.88689 1.09544 1.99146 2.20001 1.99146H14.2L14.4041 2.0022C15.4128 2.10446 16.2 2.9558 16.2 3.99146V11.9915Z" fill="#292A2E"/>
</svg>
