<svg width="17" height="17" viewBox="0 0 17 17" fill="none" xmlns="http://www.w3.org/2000/svg">
<path fill-rule="evenodd" clip-rule="evenodd" d="M3.31491 1.85707C4.75079 0.747431 6.47648 0.193359 8.20001 0.193359V1.69336C6.79724 1.69336 5.39661 2.14406 4.23213 3.04396L3.31491 1.85707ZM1.70001 8.19341C1.70031 9.85768 2.33476 11.5194 3.60382 12.7884C4.87317 14.0578 6.53536 14.6923 8.20001 14.6923V16.1923C6.15379 16.1923 4.10511 15.4111 2.54316 13.8491C1.76897 13.0749 1.18659 12.1812 0.796081 11.2274C0.398778 10.2568 0.200021 9.22487 0.200012 8.19342M11.9952 9.68764C12.1032 9.39161 12.3847 9.19465 12.6998 9.19465C13.0149 9.19465 13.2969 9.39161 13.4048 9.68764L14.02 11.374L15.7064 11.9892C16.0024 12.0972 16.1994 12.3787 16.1994 12.6938C16.1994 13.0089 16.0024 13.2908 15.7064 13.3988L14.02 14.014L13.4048 15.7004C13.2969 15.9964 13.0154 16.1934 12.7002 16.1934C12.3851 16.1934 12.1032 15.9964 11.9952 15.7004L11.38 14.014L9.69365 13.3988C9.39762 13.2908 9.20066 13.0093 9.20066 12.6942C9.20066 12.3791 9.39762 12.0972 9.69365 11.9892L11.38 11.374L11.9952 9.68764Z" fill="#292A2E"/>
<path d="M3.11929 4.13816L1.94822 3.20082C0.782381 4.65738 0.200026 6.42594 0.200012 8.19219V8.19342C0.200021 9.22487 0.398778 10.2568 0.796081 11.2274C1.18659 12.1812 1.76897 13.0749 2.54316 13.8491C4.10511 15.4111 6.15379 16.1923 8.20001 16.1923V14.6923C6.53536 14.6923 4.87317 14.0578 3.60382 12.7884C2.33476 11.5194 1.70031 9.85768 1.70001 8.19341V8.1922C1.70027 6.75464 2.17383 5.31938 3.11929 4.13816Z" fill="#292A2E"/>
<path d="M13.5732 2.34694C13.8806 2.6246 13.9047 3.09886 13.627 3.40623C13.3493 3.71361 12.8751 3.7377 12.5677 3.46004L12.552 3.44591C12.2437 3.16924 12.2181 2.69506 12.4948 2.38679C12.7715 2.07853 13.2456 2.05291 13.5539 2.32958L13.5732 2.34694Z" fill="#292A2E"/>
<path d="M10.8941 0.744944C11.2843 0.884005 11.4879 1.31303 11.3488 1.70321C11.2098 2.09338 10.7807 2.29695 10.3906 2.15789L10.3707 2.15085C9.98009 2.01306 9.77512 1.5847 9.91291 1.19408C10.0507 0.803454 10.4791 0.598488 10.8697 0.736275L10.8941 0.744944Z" fill="#292A2E"/>
<path d="M15.4805 5.00835C15.3414 4.61818 14.9124 4.41461 14.5222 4.55367C14.132 4.69273 13.9285 5.12176 14.0675 5.51193L14.0746 5.53177C14.2124 5.9224 14.6407 6.12736 15.0313 5.98958C15.422 5.85179 15.6269 5.42343 15.4891 5.0328L15.4805 5.00835Z" fill="#292A2E"/>
<path d="M16.2001 8.25678C16.2211 7.8431 15.9028 7.49071 15.4891 7.4697C15.0755 7.44868 14.7231 7.76699 14.7021 8.18067L14.7015 8.19129L14.7009 8.20191C14.6786 8.61552 14.9958 8.96893 15.4094 8.99127C15.823 9.01361 16.1764 8.69642 16.1988 8.28281L16.1995 8.2698L16.2001 8.25678Z" fill="#292A2E"/>
</svg>
