<svg width="17" height="17" viewBox="0 0 17 17" fill="none" xmlns="http://www.w3.org/2000/svg">
<path fill-rule="evenodd" clip-rule="evenodd" d="M12.4803 1.88989L14.9803 4.38989C15.2732 4.68279 15.2732 5.15766 14.9803 5.45055L12.4803 7.95055L11.4197 6.88989L12.6394 5.67022L8.95001 5.67022L8.95001 11.1702C8.95001 11.4464 9.17387 11.6702 9.45001 11.6702H12.6394L11.4197 10.4506L12.4803 9.38989L14.9803 11.8899C15.2732 12.1828 15.2732 12.6577 14.9803 12.9506L12.4803 15.4506L11.4197 14.3899L12.6394 13.1702H9.45001C8.34544 13.1702 7.45001 12.2748 7.45001 11.1702L7.45001 5.67022L5.57198 5.67022C5.26311 6.54412 4.42968 7.17022 3.45001 7.17022C2.20737 7.17022 1.20001 6.16286 1.20001 4.92022C1.20001 3.67758 2.20737 2.67022 3.45001 2.67022C4.42968 2.67022 5.26311 3.29633 5.57198 4.17022L12.6394 4.17022L11.4197 2.95055L12.4803 1.88989ZM3.45001 4.17022C3.0358 4.17022 2.70001 4.50601 2.70001 4.92022C2.70001 5.33444 3.0358 5.67022 3.45001 5.67022C3.86423 5.67022 4.20001 5.33444 4.20001 4.92022C4.20001 4.50601 3.86423 4.17022 3.45001 4.17022Z" fill="#292A2E"/>
</svg>
