<svg width="17" height="17" viewBox="0 0 17 17" fill="none" xmlns="http://www.w3.org/2000/svg">
<path d="M3.45001 1.28857C3.64892 1.28857 3.83963 1.36765 3.98029 1.5083L6.48029 4.0083L5.41974 5.06885L4.20001 3.84912V12.728L5.41974 11.5083L6.48029 12.5688L3.98029 15.0688C3.68739 15.3617 3.21263 15.3617 2.91974 15.0688L0.419739 12.5688L1.48029 11.5083L2.70001 12.728V3.84912L1.48029 5.06885L0.419739 4.0083L2.91974 1.5083L3.034 1.41455C3.1563 1.33302 3.30086 1.28857 3.45001 1.28857ZM13.2 11.7886V13.2886H8.20001V11.7886H13.2ZM16.2 7.53857V9.03857H8.20001V7.53857H16.2ZM16.2 3.28857V4.78857H8.20001V3.28857H16.2Z" fill="#292A2E"/>
</svg>
