<svg width="17" height="17" viewBox="0 0 17 17" fill="none" xmlns="http://www.w3.org/2000/svg">
<path fill-rule="evenodd" clip-rule="evenodd" d="M10.7812 1.33378C11.8678 1.06212 12.9657 1.73574 13.2157 2.82756L14.1398 6.86203C14.7651 6.98153 15.4194 7.11748 16.1112 7.26966L15.7889 8.73463C12.6863 8.05207 10.4342 7.72089 8.20003 7.72089C5.9659 7.72089 3.71371 8.05207 0.611172 8.73463L0.288879 7.26966C0.980628 7.11748 1.63496 6.98153 2.26029 6.86203L3.1843 2.82756C3.43436 1.73574 4.53225 1.06212 5.6189 1.33378L8.07876 1.94875C8.15838 1.96865 8.24167 1.96865 8.32129 1.94875L10.7812 1.33378ZM3.86308 6.5828C5.4084 6.34288 6.80112 6.22089 8.20003 6.22089C9.59893 6.22089 10.9917 6.34288 12.537 6.5828L11.7536 3.16244C11.6911 2.88948 11.4166 2.72108 11.145 2.78899L8.6851 3.40396C8.36662 3.48358 8.03343 3.48358 7.71495 3.40396L5.25509 2.78899C4.98343 2.72108 4.70896 2.88948 4.64644 3.16244L3.86308 6.5828Z" fill="#292A2E"/>
<path fill-rule="evenodd" clip-rule="evenodd" d="M11.7 10.7521C10.8716 10.7521 10.2 11.4237 10.2 12.2521C10.2 13.0806 10.8716 13.7521 11.7 13.7521C12.5285 13.7521 13.2 13.0806 13.2 12.2521C13.2 11.4237 12.5285 10.7521 11.7 10.7521ZM8.70003 12.2521C8.70003 10.5953 10.0432 9.25214 11.7 9.25214C13.3569 9.25214 14.7 10.5953 14.7 12.2521C14.7 13.909 13.3569 15.2521 11.7 15.2521C10.0432 15.2521 8.70003 13.909 8.70003 12.2521Z" fill="#292A2E"/>
<path fill-rule="evenodd" clip-rule="evenodd" d="M8.20002 11.7521C7.77089 11.7521 7.37537 11.8864 7.05031 12.1154L6.18666 10.8889C6.75627 10.4878 7.45174 10.2521 8.20002 10.2521C8.9483 10.2521 9.64378 10.4878 10.2134 10.8889L9.34974 12.1154C9.02467 11.8864 8.62915 11.7521 8.20002 11.7521Z" fill="#292A2E"/>
<path fill-rule="evenodd" clip-rule="evenodd" d="M4.70003 10.7521C3.8716 10.7521 3.20003 11.4237 3.20003 12.2521C3.20003 13.0806 3.8716 13.7521 4.70003 13.7521C5.52845 13.7521 6.20003 13.0806 6.20003 12.2521C6.20003 11.4237 5.52845 10.7521 4.70003 10.7521ZM1.70003 12.2521C1.70003 10.5953 3.04317 9.25214 4.70003 9.25214C6.35688 9.25214 7.70003 10.5953 7.70003 12.2521C7.70003 13.909 6.35688 15.2521 4.70003 15.2521C3.04317 15.2521 1.70003 13.909 1.70003 12.2521Z" fill="#292A2E"/>
</svg>
