<svg width="17" height="17" viewBox="0 0 17 17" fill="none" xmlns="http://www.w3.org/2000/svg">
<path fill-rule="evenodd" clip-rule="evenodd" d="M4.20001 7.38916C4.20001 6.83688 4.64773 6.38916 5.20001 6.38916H9.82501C11.689 6.38916 13.2 7.9002 13.2 9.76416C13.2 11.6281 11.689 13.1392 9.82501 13.1392H5.20001C4.64773 13.1392 4.20001 12.6914 4.20001 12.1392V7.38916ZM6.20001 8.38916V11.1392H9.82501C10.5844 11.1392 11.2 10.5236 11.2 9.76416C11.2 9.00477 10.5844 8.38916 9.82501 8.38916H6.20001Z" fill="#292A2E"/>
<path fill-rule="evenodd" clip-rule="evenodd" d="M4.20001 2.63916C4.20001 2.08688 4.64773 1.63916 5.20001 1.63916H8.82501C10.689 1.63916 12.2 3.1502 12.2 5.01416C12.2 6.87812 10.689 8.38916 8.82501 8.38916H5.20001C4.64773 8.38916 4.20001 7.94144 4.20001 7.38916V2.63916ZM6.20001 3.63916V6.38916H8.82501C9.5844 6.38916 10.2 5.77355 10.2 5.01416C10.2 4.25477 9.5844 3.63916 8.82501 3.63916H6.20001Z" fill="#292A2E"/>
<path fill-rule="evenodd" clip-rule="evenodd" d="M16.2 16.6392L0.200012 16.6392L0.200012 15.1392L16.2 15.1392V16.6392Z" fill="#292A2E"/>
</svg>
