<svg width="17" height="17" viewBox="0 0 17 17" fill="none" xmlns="http://www.w3.org/2000/svg">
<path fill-rule="evenodd" clip-rule="evenodd" d="M1.20001 1.34131H15.2V2.84131H1.20001V1.34131ZM1.20001 5.50761H15.2V7.00761H1.20001V5.50761ZM1.20001 9.67391H8.20001V11.1739H1.20001V9.67391ZM1.20001 13.8402H6.20001V15.3402H1.20001V13.8402Z" fill="#292A2E"/>
<path fill-rule="evenodd" clip-rule="evenodd" d="M12.5358 8.94394C13.3169 8.16289 14.5832 8.16289 15.3642 8.94394L15.5965 9.17617C16.3775 9.95722 16.3775 11.2236 15.5965 12.0046L12.248 15.3531C11.9688 15.6323 11.6132 15.8226 11.226 15.9L9.09711 16.3258C8.85122 16.375 8.59701 16.298 8.41969 16.1207C8.24238 15.9434 8.16541 15.6892 8.21459 15.4433L8.64036 13.3144C8.7178 12.9272 8.90811 12.5716 9.18731 12.2924L12.5358 8.94394ZM14.3036 10.0046C14.1083 9.80934 13.7917 9.80934 13.5965 10.0046L10.248 13.3531C10.1782 13.4229 10.1306 13.5118 10.1112 13.6086L9.90609 14.6343L10.9318 14.4292C11.0286 14.4098 11.1175 14.3622 11.1873 14.2924L14.5358 10.9439C14.7311 10.7487 14.7311 10.4321 14.5358 10.2368L14.3036 10.0046Z" fill="#292A2E"/>
</svg>
