<svg width="17" height="17" viewBox="0 0 17 17" fill="none" xmlns="http://www.w3.org/2000/svg">
<path fill-rule="evenodd" clip-rule="evenodd" d="M2.20001 3.58759V1.87907H0.700012V6.16461H4.98555V4.66461H3.25128C4.44433 3.26502 6.21885 2.37915 8.20001 2.37915C11.7899 2.37915 14.7 5.2893 14.7 8.87915C14.7 12.469 11.7899 15.3792 8.20001 15.3792C4.61016 15.3792 1.70001 12.469 1.70001 8.87915C1.70001 8.65156 1.71168 8.42694 1.73441 8.20583L0.242265 8.05247C0.214312 8.32445 0.200012 8.60026 0.200012 8.87915C0.200012 13.2974 3.78173 16.8792 8.20001 16.8792C12.6183 16.8792 16.2 13.2974 16.2 8.87915C16.2 4.46087 12.6183 0.87915 8.20001 0.87915C5.81 0.87915 3.66514 1.92766 2.20001 3.58759ZM8.95001 9.01868V4.62915H7.45001V9.73962L10.2315 11.9648L11.1685 10.7935L8.95001 9.01868Z" fill="#292A2E"/>
</svg>
