<svg width="17" height="17" viewBox="0 0 17 17" fill="none" xmlns="http://www.w3.org/2000/svg">
<path fill-rule="evenodd" clip-rule="evenodd" d="M1.20001 3.71338C1.20001 2.60881 2.09544 1.71338 3.20001 1.71338H13.2C14.3046 1.71338 15.2 2.60881 15.2 3.71338V13.7134C15.2 14.8179 14.3046 15.7134 13.2 15.7134H3.20001C2.09544 15.7134 1.20001 14.8179 1.20001 13.7134V3.71338ZM3.20001 3.21338C2.92387 3.21338 2.70001 3.43724 2.70001 3.71338V13.7134C2.70001 13.9895 2.92387 14.2134 3.20001 14.2134H13.2C13.4762 14.2134 13.7 13.9895 13.7 13.7134V3.71338C13.7 3.43724 13.4762 3.21338 13.2 3.21338H3.20001ZM12.2 6.21338H4.20001V4.71338H12.2V6.21338ZM12.2 9.46338H4.20001V7.96338H12.2V9.46338ZM12.2 12.7134H4.20001V11.2134H12.2V12.7134Z" fill="#292A2E"/>
</svg>
