<svg width="17" height="17" viewBox="0 0 17 17" fill="none" xmlns="http://www.w3.org/2000/svg">
<path fill-rule="evenodd" clip-rule="evenodd" d="M8.94999 14.0461V15.6461H7.44999V14.0461L8.94999 14.0461ZM12.95 13.1463L16.2 13.1463V14.6463L12.95 14.6463C11.8454 14.6463 10.95 13.7508 10.95 12.6463L10.95 4.64628C10.95 3.54171 11.8454 2.64628 12.95 2.64628L16.2 2.64628V4.14628L12.95 4.14628C12.6739 4.14628 12.45 4.37014 12.45 4.64628L12.45 12.6463C12.45 12.9224 12.6739 13.1463 12.95 13.1463ZM3.45001 13.1463C3.72616 13.1463 3.95001 12.9224 3.95001 12.6463L3.95001 4.64628C3.95001 4.37013 3.72616 4.14628 3.45001 4.14628L0.200012 4.14628L0.200012 2.64628L3.45001 2.64628C4.55458 2.64628 5.45001 3.54171 5.45001 4.64628L5.45001 12.6463C5.45001 13.7508 4.55458 14.6463 3.45001 14.6463H0.200013L0.200013 13.1463H3.45001ZM8.94999 10.946V12.546H7.44999V10.946H8.94999ZM8.94999 7.84595L8.94999 9.44595H7.44999V7.84595H8.94999ZM8.94999 4.74634V6.34634H7.44999L7.44999 4.74634L8.94999 4.74634ZM8.94999 1.64624V3.24624L7.44999 3.24624V1.64624L8.94999 1.64624Z" fill="#292A2E"/>
</svg>
