<svg width="17" height="17" viewBox="0 0 17 17" fill="none" xmlns="http://www.w3.org/2000/svg">
<path d="M4.78546 3.16156C5.44517 2.50194 6.44988 2.40216 7.2171 2.85687L5.88214 4.19184C5.87023 4.20172 5.85717 4.21095 5.84601 4.22211L1.86359 8.20453C1.66875 8.3997 1.66879 8.71637 1.86359 8.91156L5.84601 12.894C5.85399 12.902 5.864 12.9081 5.87238 12.9155L7.21613 14.2592C6.44899 14.7135 5.44498 14.614 4.78546 13.9545L0.80304 9.97211C0.0224592 9.19113 0.022422 7.92493 0.80304 7.14398L4.78546 3.16156Z" fill="#292A2E"/>
<path d="M8.78595 3.16162C9.56697 2.3807 10.833 2.3807 11.6141 3.16162L15.5965 7.14404C16.3774 7.92507 16.3774 9.19114 15.5965 9.97217L11.6141 13.9546C10.833 14.7355 9.56697 14.7355 8.78595 13.9546L4.80352 9.97217C4.0226 9.19114 4.0226 7.92507 4.80352 7.14404L8.78595 3.16162ZM10.5535 4.22217C10.3583 4.02703 10.0417 4.02703 9.84649 4.22217L5.86407 8.20459C5.66894 8.39983 5.66894 8.71638 5.86407 8.91162L9.84649 12.894C10.0417 13.0892 10.3583 13.0892 10.5535 12.894L14.5359 8.91162C14.7311 8.71638 14.7311 8.39983 14.5359 8.20459L10.5535 4.22217Z" fill="#292A2E"/>
</svg>
