<svg width="17" height="17" viewBox="0 0 17 17" fill="none" xmlns="http://www.w3.org/2000/svg">
<path fill-rule="evenodd" clip-rule="evenodd" d="M15.2 3.8042H1.20001V2.3042H15.2V3.8042ZM6.20001 8.8042H1.20001V7.3042H6.20001V8.8042ZM6.20001 14.3042H1.20001V12.8042H6.20001V14.3042Z" fill="#292A2E"/>
<path fill-rule="evenodd" clip-rule="evenodd" d="M8.91971 7.52384C9.12768 7.31588 9.438 7.24866 9.71338 7.35193L15.7134 9.60195C16.0208 9.71723 16.2175 10.0191 16.1988 10.3468C16.1801 10.6746 15.9504 10.9522 15.6319 11.0318L13.0685 11.6727L12.4276 14.2361C12.348 14.5546 12.0704 14.7843 11.7427 14.803C11.4149 14.8217 11.113 14.625 10.9978 14.3175L8.74779 8.31751C8.64452 8.04213 8.71174 7.73181 8.91971 7.52384Z" fill="#292A2E"/>
</svg>
