<svg width="17" height="17" viewBox="0 0 17 17" fill="none" xmlns="http://www.w3.org/2000/svg">
<path fill-rule="evenodd" clip-rule="evenodd" d="M1.20001 3.13306C1.20001 2.02849 2.09544 1.13306 3.20001 1.13306H13.2C14.3046 1.13306 15.2 2.02849 15.2 3.13306V13.1331C15.2 14.2376 14.3046 15.1331 13.2 15.1331H3.20001C2.09544 15.1331 1.20001 14.2376 1.20001 13.1331V3.13306ZM3.20001 2.63306C2.92387 2.63306 2.70001 2.85691 2.70001 3.13306V13.1331C2.70001 13.4092 2.92387 13.6331 3.20001 13.6331H13.2C13.4762 13.6331 13.7 13.4092 13.7 13.1331V3.13306C13.7 2.85691 13.4762 2.63306 13.2 2.63306H3.20001ZM12.2 5.63306H4.20001V4.13306H12.2V5.63306Z" fill="#292A2E"/>
</svg>
