<svg width="17" height="17" viewBox="0 0 17 17" fill="none" xmlns="http://www.w3.org/2000/svg">
<path fill-rule="evenodd" clip-rule="evenodd" d="M0.200012 4.69092C0.200012 3.58635 1.09544 2.69092 2.20001 2.69092H14.2C15.3046 2.69092 16.2 3.58635 16.2 4.69092V12.6909C16.2 13.7955 15.3046 14.6909 14.2 14.6909H2.20001C1.09544 14.6909 0.200012 13.7955 0.200012 12.6909V4.69092ZM2.20001 4.19092C1.92387 4.19092 1.70001 4.41478 1.70001 4.69092V12.6909C1.70001 12.9671 1.92387 13.1909 2.20001 13.1909H14.2C14.4762 13.1909 14.7 12.9671 14.7 12.6909V4.69092C14.7 4.41478 14.4762 4.19092 14.2 4.19092H2.20001ZM6.95001 8.19092C6.95001 7.7767 7.2858 7.44092 7.70001 7.44092H12.45C12.8642 7.44092 13.2 7.7767 13.2 8.19092V10.9409C13.2 11.3551 12.8642 11.6909 12.45 11.6909H7.70001C7.2858 11.6909 6.95001 11.3551 6.95001 10.9409V8.19092Z" fill="#292A2E"/>
</svg>
