<svg width="17" height="17" viewBox="0 0 17 17" fill="none" xmlns="http://www.w3.org/2000/svg">
<path fill-rule="evenodd" clip-rule="evenodd" d="M0.200012 4.92407C0.200012 3.8195 1.09544 2.92407 2.20001 2.92407H11.2C12.3046 2.92407 13.2 3.8195 13.2 4.92407V10.9241C13.2 12.0286 12.3046 12.9241 11.2 12.9241H2.20001C1.09544 12.9241 0.200012 12.0286 0.200012 10.9241V4.92407ZM2.20001 4.42407C1.92387 4.42407 1.70001 4.64793 1.70001 4.92407V10.9241C1.70001 11.2002 1.92387 11.4241 2.20001 11.4241H11.2C11.4762 11.4241 11.7 11.2002 11.7 10.9241V4.92407C11.7 4.64793 11.4762 4.42407 11.2 4.42407H2.20001Z" fill="#292A2E"/>
<path d="M4.20001 15.1741C4.20001 15.5883 3.86423 15.9241 3.45001 15.9241C3.0358 15.9241 2.70001 15.5883 2.70001 15.1741C2.70001 14.7599 3.0358 14.4241 3.45001 14.4241C3.86423 14.4241 4.20001 14.7599 4.20001 15.1741Z" fill="#292A2E"/>
<path d="M7.20001 15.1741C7.20001 15.5883 6.86423 15.9241 6.45001 15.9241C6.0358 15.9241 5.70001 15.5883 5.70001 15.1741C5.70001 14.7599 6.0358 14.4241 6.45001 14.4241C6.86423 14.4241 7.20001 14.7599 7.20001 15.1741Z" fill="#292A2E"/>
<path d="M10.2 15.1741C10.2 15.5883 9.86423 15.9241 9.45001 15.9241C9.0358 15.9241 8.70001 15.5883 8.70001 15.1741C8.70001 14.7599 9.0358 14.4241 9.45001 14.4241C9.86423 14.4241 10.2 14.7599 10.2 15.1741Z" fill="#292A2E"/>
<path d="M13.2 15.1741C13.2 15.5883 12.8642 15.9241 12.45 15.9241C12.0358 15.9241 11.7 15.5883 11.7 15.1741C11.7 14.7599 12.0358 14.4241 12.45 14.4241C12.8642 14.4241 13.2 14.7599 13.2 15.1741Z" fill="#292A2E"/>
<path d="M16.2 15.1741C16.2 15.5883 15.8642 15.9241 15.45 15.9241C15.0358 15.9241 14.7 15.5883 14.7 15.1741C14.7 14.7599 15.0358 14.4241 15.45 14.4241C15.8642 14.4241 16.2 14.7599 16.2 15.1741Z" fill="#292A2E"/>
<path d="M16.2 12.1741C16.2 12.5883 15.8642 12.9241 15.45 12.9241C15.0358 12.9241 14.7 12.5883 14.7 12.1741C14.7 11.7599 15.0358 11.4241 15.45 11.4241C15.8642 11.4241 16.2 11.7599 16.2 12.1741Z" fill="#292A2E"/>
<path d="M16.2 9.17407C16.2 9.58829 15.8642 9.92407 15.45 9.92407C15.0358 9.92407 14.7 9.58829 14.7 9.17407C14.7 8.75986 15.0358 8.42407 15.45 8.42407C15.8642 8.42407 16.2 8.75986 16.2 9.17407Z" fill="#292A2E"/>
<path d="M16.2 6.17407C16.2 6.58829 15.8642 6.92407 15.45 6.92407C15.0358 6.92407 14.7 6.58829 14.7 6.17407C14.7 5.75986 15.0358 5.42407 15.45 5.42407C15.8642 5.42407 16.2 5.75986 16.2 6.17407Z" fill="#292A2E"/>
</svg>
