<svg width="17" height="17" viewBox="0 0 17 17" fill="none" xmlns="http://www.w3.org/2000/svg">
<path d="M13.7 7.04321C13.7 4.00565 11.2376 1.54321 8.20001 1.54321C5.16245 1.54321 2.70001 4.00565 2.70001 7.04321C2.70001 8.90389 3.6251 10.5469 5.04181 11.5432H11.3582C12.7749 10.5469 13.7 8.90389 13.7 7.04321ZM4.80743 13.0432C4.61821 13.0432 4.45028 13.1645 4.39044 13.344L3.99103 14.5432H12.409L12.0096 13.344C11.9497 13.1645 11.7818 13.0432 11.5926 13.0432H4.80743ZM8.20001 4.54321C6.8193 4.54321 5.70001 5.6625 5.70001 7.04321H4.20001C4.20001 4.83407 5.99087 3.04321 8.20001 3.04321V4.54321ZM15.2 7.04321C15.2 9.05477 14.3501 10.8667 12.993 12.1428C13.187 12.3455 13.3396 12.591 13.4324 12.8694L14.1619 15.0559C14.2382 15.2846 14.1994 15.5361 14.0584 15.7317C13.9174 15.9273 13.6911 16.0432 13.45 16.0432H2.95001C2.70893 16.0432 2.48258 15.9273 2.34161 15.7317C2.20066 15.5361 2.16186 15.2846 2.2381 15.0559L2.96759 12.8694L3.02228 12.7239C3.11529 12.5049 3.24674 12.3093 3.40607 12.1428C2.04922 10.8667 1.20001 9.05452 1.20001 7.04321C1.20001 3.17722 4.33402 0.0432129 8.20001 0.0432129C12.066 0.0432129 15.2 3.17722 15.2 7.04321Z" fill="#292A2E"/>
</svg>
