<svg width="17" height="17" viewBox="0 0 17 17" fill="none" xmlns="http://www.w3.org/2000/svg">
<path fill-rule="evenodd" clip-rule="evenodd" d="M8.98034 4.5835L5.98034 1.5835L4.91968 2.64416L6.63935 4.36383L4.70001 4.36383C2.21473 4.36383 0.200012 6.37855 0.200012 8.86383C0.200012 11.3491 2.21473 13.3638 4.70001 13.3638H5.70001V11.8638H4.70001C3.04316 11.8638 1.70001 10.5207 1.70001 8.86383C1.70001 7.20697 3.04316 5.86383 4.70001 5.86383L6.63935 5.86383L4.91968 7.5835L5.98034 8.64416L8.98034 5.64416C9.12099 5.5035 9.20001 5.31274 9.20001 5.11383C9.20001 4.91491 9.12099 4.72415 8.98034 4.5835Z" fill="#292A2E"/>
<path fill-rule="evenodd" clip-rule="evenodd" d="M11.7 5.86377C13.3569 5.86377 14.7 7.20692 14.7 8.86377C14.7 10.5206 13.3569 11.8638 11.7 11.8638H9.76067L11.4803 10.1441L10.4197 9.08344L7.41968 12.0834C7.12679 12.3763 7.12679 12.8512 7.41968 13.1441L10.4197 16.1441L11.4803 15.0834L9.76067 13.3638H11.7C14.1853 13.3638 16.2 11.3491 16.2 8.86377C16.2 6.37849 14.1853 4.36377 11.7 4.36377H10.7V5.86377H11.7Z" fill="#292A2E"/>
</svg>
