<svg width="17" height="16" viewBox="0 0 17 16" fill="none" xmlns="http://www.w3.org/2000/svg">
<path fill-rule="evenodd" clip-rule="evenodd" d="M1.70001 2.50684V12.5068H7.44952V14.0068H1.57501C0.815621 14.0068 0.200012 13.3912 0.200012 12.6318V2.38184C0.200012 1.62434 0.812518 1.00683 1.5738 1.00684L5.07491 1.00684C6.35757 1.00684 7.49467 1.63004 8.19995 2.59016C8.90529 1.63003 10.0425 1.00684 11.3251 1.00684L14.8254 1.00684C15.5874 1.00684 16.2 1.6265 16.2 2.38321V8.25683H14.7V2.50766L11.3251 2.50684C10.0134 2.50684 8.94994 3.5702 8.94991 4.88179V10.0068H7.44991V4.88181C7.44988 3.57016 6.38657 2.50684 5.07491 2.50684L1.70001 2.50684ZM13.4495 6.00683H10.6995V4.50683H13.4495V6.00683ZM2.9505 4.50684H5.7005V6.00684H2.9505V4.50684ZM2.9505 7.00684H5.7005V8.50684H2.9505V7.00684ZM11.9945 9.50111C12.1025 9.20509 12.384 9.00812 12.6991 9.00812C13.0142 9.00812 13.2962 9.20509 13.4042 9.50111L14.0193 11.1875L15.7057 11.8027C16.0018 11.9106 16.1987 12.1921 16.1987 12.5072C16.1987 12.8224 16.0018 13.1043 15.7057 13.2123L14.0193 13.8274L13.4042 15.5138C13.2962 15.8099 13.0147 16.0068 12.6996 16.0068C12.3845 16.0068 12.1025 15.8099 11.9945 15.5138L11.3794 13.8274L9.693 13.2123C9.39697 13.1043 9.20001 12.8228 9.20001 12.5077C9.20001 12.1926 9.39697 11.9106 9.693 11.8027L11.3794 11.1875L11.9945 9.50111Z" fill="#292A2E"/>
</svg>
