<svg width="17" height="17" viewBox="0 0 17 17" fill="none" xmlns="http://www.w3.org/2000/svg">
<path d="M1.70001 7.49341V12.9319H14.7V7.49341L11.1385 3.93188H5.26154L1.70001 7.49341ZM16.2 13.0569C16.2 13.8163 15.5844 14.4319 14.825 14.4319H1.57501C0.815621 14.4319 0.200012 13.8163 0.200012 13.0569V7.44067C0.200037 7.07604 0.344516 6.72586 0.602356 6.46802L4.23615 2.83423L4.33771 2.74341C4.58235 2.54299 4.88978 2.43191 5.2088 2.43188H11.1912C11.5102 2.43191 11.8177 2.54299 12.0623 2.74341L12.1639 2.83423L15.7977 6.46802L15.8885 6.56958C16.0889 6.81422 16.2 7.12165 16.2 7.44067V13.0569Z" fill="#292A2E"/>
</svg>
