<svg width="17" height="17" viewBox="0 0 17 17" fill="none" xmlns="http://www.w3.org/2000/svg">
<path d="M0.669678 1.71545L14.6697 15.7154L15.7303 14.6548L1.73034 0.654785L0.669678 1.71545Z" fill="#292A2E"/>
<path d="M12.5714 9.37443L11.5107 8.31377L12.9197 6.90482C13.8694 5.95508 13.8694 4.41523 12.9197 3.46548C11.9699 2.51574 10.4301 2.51574 9.48032 3.46549L8.07137 4.87443L7.01071 3.81377L8.41966 2.40482C9.95519 0.869291 12.4448 0.86929 13.9803 2.40482C15.5159 3.94036 15.5159 6.42995 13.9803 7.96548L12.5714 9.37443Z" fill="#292A2E"/>
<path d="M11.4803 5.96548L10.3214 7.12443L9.26071 6.06377L10.4197 4.90482L11.4803 5.96548Z" fill="#292A2E"/>
<path d="M4.88939 8.05641L3.82873 6.99575L2.41966 8.40482C0.884122 9.94036 0.884121 12.4299 2.41966 13.9655C3.95519 15.501 6.44478 15.501 7.98032 13.9655L9.38939 12.5564L8.32873 11.4958L6.91966 12.9048C5.96991 13.8546 4.43006 13.8546 3.48032 12.9048C2.53057 11.9551 2.53057 10.4152 3.48032 9.46548L4.88939 8.05641Z" fill="#292A2E"/>
<path d="M5.98032 11.4655L7.13939 10.3064L6.07873 9.24575L4.91966 10.4048L5.98032 11.4655Z" fill="#292A2E"/>
</svg>
