<svg width="17" height="17" viewBox="0 0 17 17" fill="none" xmlns="http://www.w3.org/2000/svg">
<path d="M10.2625 13.9543C10.1288 13.6989 10.0086 13.4211 9.90314 13.1282C9.45964 11.8962 9.20001 10.2435 9.20001 8.45435C9.20001 6.66521 9.45964 5.01244 9.90314 3.78052C10.0086 3.48761 10.1288 3.20984 10.2625 2.95435L4.95001 2.95435C4.52225 2.95435 3.96459 3.30604 3.47247 4.35376C2.99976 5.36018 2.70001 6.80749 2.70001 8.45435C2.70001 10.1012 2.99976 11.5485 3.47247 12.5549C3.96459 13.6027 4.52225 13.9543 4.95001 13.9543H10.2625ZM12.2 13.9543C12.2068 13.9543 12.3126 13.9525 12.5047 13.7268C12.6942 13.5041 12.8992 13.1375 13.0858 12.6194C13.4565 11.5893 13.7 10.1168 13.7 8.45435C13.7 6.79193 13.4565 5.31942 13.0858 4.28931C12.8992 3.77119 12.6942 3.40458 12.5047 3.18189C12.3126 2.95621 12.2068 2.95435 12.2 2.95435C12.1933 2.95435 12.0874 2.95621 11.8953 3.18189C11.7058 3.40458 11.5008 3.77119 11.3143 4.28931C10.9435 5.31942 10.7 6.79193 10.7 8.45435C10.7 10.1168 10.9435 11.5893 11.3143 12.6194C11.5008 13.1375 11.7058 13.5041 11.8953 13.7268C12.0874 13.9525 12.1933 13.9543 12.2 13.9543ZM4.95001 15.4543C3.6278 15.4543 2.68543 14.4069 2.11505 13.1926C1.52527 11.937 1.20001 10.2593 1.20001 8.45435C1.20001 6.64944 1.52527 4.9717 2.11505 3.71606C2.68543 2.50175 3.6278 1.45435 4.95001 1.45435L12.2 1.45435C12.8146 1.45435 13.301 1.80237 13.6473 2.20923C13.996 2.61902 14.2763 3.16788 14.4969 3.78052C14.9404 5.01244 15.2 6.66521 15.2 8.45435C15.2 10.2435 14.9404 11.8962 14.4969 13.1282C14.2763 13.7408 13.996 14.2897 13.6473 14.6995C13.301 15.1063 12.8146 15.4543 12.2 15.4543H4.95001Z" fill="#292A2E"/>
</svg>
