<svg width="17" height="17" viewBox="0 0 17 17" fill="none" xmlns="http://www.w3.org/2000/svg">
<path fill-rule="evenodd" clip-rule="evenodd" d="M5.95001 3.77002C5.95001 2.52738 6.95737 1.52002 8.20001 1.52002C9.44265 1.52002 10.45 2.52738 10.45 3.77002C10.45 4.74968 9.8239 5.58311 8.95001 5.89199V7.77002H10.7C11.8046 7.77002 12.7 8.66545 12.7 9.77002V12.9594L13.9197 11.7397L14.9803 12.8003L12.4803 15.3003C12.1874 15.5932 11.7126 15.5932 11.4197 15.3003L8.91968 12.8003L9.98034 11.7397L11.2 12.9594V9.77002C11.2 9.49388 10.9761 9.27002 10.7 9.27002H5.70001C5.42387 9.27002 5.20001 9.49388 5.20001 9.77002V12.9594L6.41968 11.7397L7.48034 12.8003L4.98034 15.3003C4.68744 15.5932 4.21257 15.5932 3.91968 15.3003L1.41968 12.8003L2.48034 11.7397L3.70001 12.9594V9.77002C3.70001 8.66545 4.59544 7.77002 5.70001 7.77002H7.45001V5.89199C6.57611 5.58311 5.95001 4.74968 5.95001 3.77002ZM8.20001 3.02002C7.78579 3.02002 7.45001 3.35581 7.45001 3.77002C7.45001 4.18423 7.78579 4.52002 8.20001 4.52002C8.61422 4.52002 8.95001 4.18423 8.95001 3.77002C8.95001 3.35581 8.61422 3.02002 8.20001 3.02002Z" fill="#292A2E"/>
</svg>
