<svg width="17" height="17" viewBox="0 0 17 17" fill="none" xmlns="http://www.w3.org/2000/svg">
<path fill-rule="evenodd" clip-rule="evenodd" d="M12.9803 1.07471L15.9803 4.07471C16.2732 4.3676 16.2732 4.84247 15.9803 5.13537L12.9803 8.13537L11.9197 7.07471L14.3893 4.60504L11.9197 2.13537L12.9803 1.07471Z" fill="#292A2E"/>
<path fill-rule="evenodd" clip-rule="evenodd" d="M9.48034 1.07471L12.4803 4.07471C12.7732 4.3676 12.7732 4.84247 12.4803 5.13537L9.48034 8.13537L8.41968 7.07471L10.1394 5.35504H4.45001C3.48351 5.35504 2.70001 6.13854 2.70001 7.10504V10.605C2.70001 11.5715 3.48351 12.355 4.45001 12.355H5.20001V13.855H4.45001C2.65509 13.855 1.20001 12.4 1.20001 10.605V7.10504C1.20001 5.31011 2.65509 3.85504 4.45001 3.85504H10.1394L8.41968 2.13537L9.48034 1.07471Z" fill="#292A2E"/>
<path fill-rule="evenodd" clip-rule="evenodd" d="M12.2 10.355H8.95001C8.5358 10.355 8.20001 10.6908 8.20001 11.105V13.605C8.20001 14.0192 8.5358 14.355 8.95001 14.355H10.7V15.355H8.20001V16.855H10.825C11.5844 16.855 12.2 16.2394 12.2 15.48V14.23C12.2 13.4706 11.5844 12.855 10.825 12.855H9.70001V11.855H12.2V10.355Z" fill="#292A2E"/>
</svg>
