<svg width="17" height="17" viewBox="0 0 17 17" fill="none" xmlns="http://www.w3.org/2000/svg">
<path fill-rule="evenodd" clip-rule="evenodd" d="M12.95 4.03564C12.5358 4.03564 12.2 4.37143 12.2 4.78564C12.2 5.19986 12.5358 5.53564 12.95 5.53564C13.3642 5.53564 13.7 5.19986 13.7 4.78564C13.7 4.37143 13.3642 4.03564 12.95 4.03564ZM10.7 4.78564C10.7 3.543 11.7074 2.53564 12.95 2.53564C14.1927 2.53564 15.2 3.543 15.2 4.78564C15.2 6.02829 14.1927 7.03564 12.95 7.03564C11.7074 7.03564 10.7 6.02829 10.7 4.78564Z" fill="#292A2E"/>
<path fill-rule="evenodd" clip-rule="evenodd" d="M12.95 11.5356C12.5358 11.5356 12.2 11.8714 12.2 12.2856C12.2 12.6999 12.5358 13.0356 12.95 13.0356C13.3642 13.0356 13.7 12.6999 13.7 12.2856C13.7 11.8714 13.3642 11.5356 12.95 11.5356ZM10.7 12.2856C10.7 11.043 11.7074 10.0356 12.95 10.0356C14.1927 10.0356 15.2 11.043 15.2 12.2856C15.2 13.5283 14.1927 14.5356 12.95 14.5356C11.7074 14.5356 10.7 13.5283 10.7 12.2856Z" fill="#292A2E"/>
<path fill-rule="evenodd" clip-rule="evenodd" d="M1.20001 4.03564L12.2 4.03564V5.53564L1.20001 5.53564L1.20001 4.03564Z" fill="#292A2E"/>
<path fill-rule="evenodd" clip-rule="evenodd" d="M6.95001 4.78564V11.0356C6.95001 11.3118 7.17387 11.5356 7.45001 11.5356H12.2V13.0356H7.45001C6.34544 13.0356 5.45001 12.1402 5.45001 11.0356V4.78564H6.95001Z" fill="#292A2E"/>
</svg>
