<svg width="17" height="17" viewBox="0 0 17 17" fill="none" xmlns="http://www.w3.org/2000/svg">
<path fill-rule="evenodd" clip-rule="evenodd" d="M8.20001 2.23047C4.61016 2.23047 1.70001 5.14062 1.70001 8.73047C1.70001 12.3203 4.61016 15.2305 8.20001 15.2305C11.7899 15.2305 14.7 12.3203 14.7 8.73047C14.7 5.14062 11.7899 2.23047 8.20001 2.23047ZM0.200012 8.73047C0.200012 4.31219 3.78173 0.730469 8.20001 0.730469C12.6183 0.730469 16.2 4.31219 16.2 8.73047C16.2 13.1487 12.6183 16.7305 8.20001 16.7305C3.78173 16.7305 0.200012 13.1487 0.200012 8.73047ZM7.20001 11.7305H5.70001L5.70001 5.73047H7.20001L7.20001 11.7305ZM10.7 11.7305H9.20001V5.73047H10.7V11.7305Z" fill="#292A2E"/>
</svg>
