<svg width="17" height="17" viewBox="0 0 17 17" fill="none" xmlns="http://www.w3.org/2000/svg">
<path fill-rule="evenodd" clip-rule="evenodd" d="M6.53335 12.728V3.72803H9.86668V8.08731L11.3667 6.68731V3.72803H14.2C14.4762 3.72803 14.7 3.95189 14.7 4.22803V7.7762L16.2 9.1762V4.22803C16.2 3.12346 15.3046 2.22803 14.2 2.22803H2.20001C1.09544 2.22803 0.200012 3.12346 0.200012 4.22803V12.228C0.200012 13.3326 1.09544 14.228 2.20001 14.228H7.20001V12.728H6.53335ZM1.70001 4.22803C1.70001 3.95188 1.92387 3.72803 2.20001 3.72803H5.03335V12.728H2.20001C1.92387 12.728 1.70001 12.5042 1.70001 12.228V4.22803Z" fill="#292A2E"/>
<path d="M16.2 11.7712V15.603C16.2 15.9482 15.9202 16.228 15.575 16.228H13.45V13.228H11.45V16.228H9.32501C8.97983 16.228 8.70001 15.9482 8.70001 15.603V11.7712C8.70001 11.4247 8.84382 11.0938 9.09711 10.8574L11.5971 8.52407C12.0774 8.07582 12.8227 8.07582 13.3029 8.52406L15.8029 10.8574C16.0562 11.0938 16.2 11.4247 16.2 11.7712Z" fill="#292A2E"/>
</svg>
