<svg width="17" height="17" viewBox="0 0 17 17" fill="none" xmlns="http://www.w3.org/2000/svg">
<path d="M13.7 8.3645C13.7 7.11594 13.2829 5.96539 12.5818 5.04224L9.26056 8.3645L12.5818 11.6858C13.2826 10.7627 13.7 9.61279 13.7 8.3645ZM4.87775 12.7463C5.8009 13.4473 6.95145 13.8645 8.20001 13.8645C9.4483 13.8645 10.5983 13.4471 11.5213 12.7463L8.20001 9.42505L4.87775 12.7463ZM8.20001 2.8645C6.95166 2.8645 5.80082 3.28089 4.87775 3.98169L8.20001 7.30396L11.5213 3.98169C10.5983 3.28118 9.44809 2.8645 8.20001 2.8645ZM2.70001 8.3645C2.70001 9.61257 3.11669 10.7628 3.8172 11.6858L7.13947 8.3645L3.8172 5.04224C3.1164 5.96531 2.70001 7.11615 2.70001 8.3645ZM15.2 8.3645C15.2 12.2305 12.066 15.3645 8.20001 15.3645C4.33402 15.3645 1.20001 12.2305 1.20001 8.3645C1.20001 4.49851 4.33402 1.3645 8.20001 1.3645C12.066 1.3645 15.2 4.49851 15.2 8.3645Z" fill="#292A2E"/>
</svg>
