<svg width="17" height="17" viewBox="0 0 17 17" fill="none" xmlns="http://www.w3.org/2000/svg">
<path d="M8.20001 1.20044C12.066 1.20044 15.2 4.33445 15.2 8.20044C15.2 12.0664 12.066 15.2004 8.20001 15.2004C4.33402 15.2004 1.20001 12.0664 1.20001 8.20044C1.20001 4.33445 4.33402 1.20044 8.20001 1.20044ZM2.75275 8.95044C3.0852 11.3878 5.01269 13.3153 7.45001 13.6477V8.95044H2.75275ZM8.95001 13.6477C11.3873 13.3153 13.3148 11.3878 13.6473 8.95044H8.95001V13.6477ZM8.95001 7.45044H13.6473C13.3148 5.01308 11.3874 3.0846 8.95001 2.7522V7.45044ZM7.45001 2.7522C5.01263 3.0846 3.0852 5.01308 2.75275 7.45044H7.45001V2.7522Z" fill="#292A2E"/>
</svg>
