<svg width="17" height="17" viewBox="0 0 17 17" fill="none" xmlns="http://www.w3.org/2000/svg">
<path d="M5.20001 1.03467C4.64773 1.03467 4.20001 1.48238 4.20001 2.03467V4.53467H6.20001V3.03467H8.82501C9.5844 3.03467 10.2 3.65028 10.2 4.40967C10.2 4.4518 10.1981 4.4935 10.1944 4.53467H12.1977C12.1993 4.49319 12.2 4.45152 12.2 4.40967C12.2 2.54571 10.689 1.03467 8.82501 1.03467H5.20001Z" fill="#292A2E"/>
<path d="M13.1977 9.03467H11.1944C11.1981 9.07584 11.2 9.11753 11.2 9.15967C11.2 9.91906 10.5844 10.5347 9.82501 10.5347H6.20001V9.03467H4.20001V11.5347C4.20001 12.087 4.64773 12.5347 5.20001 12.5347H9.82501C11.689 12.5347 13.2 11.0236 13.2 9.15967C13.2 9.11782 13.1993 9.07615 13.1977 9.03467Z" fill="#292A2E"/>
<path d="M16.2 16.0347H0.200012V14.5347H16.2V16.0347Z" fill="#292A2E"/>
<path d="M15.2 6.03467H1.20001V7.53467H15.2V6.03467Z" fill="#292A2E"/>
</svg>
