<svg width="17" height="17" viewBox="0 0 17 17" fill="none" xmlns="http://www.w3.org/2000/svg">
<path d="M15.9803 11.688C16.2549 11.9626 16.2724 12.3973 16.032 12.6919L15.9803 12.7485L13.4803 15.2485L12.4197 14.188L13.6395 12.9683H10.7947C10.1926 12.9682 9.62271 12.6964 9.24298 12.229L8.11896 10.8462L9.08575 9.65771L10.407 11.2837C10.5019 11.4004 10.6443 11.4682 10.7947 11.4683H13.6395L12.4197 10.2485L13.4803 9.18799L15.9803 11.688Z" fill="#292A2E"/>
<path d="M15.9803 4.18799L16.032 4.24463C16.2724 4.53921 16.2549 4.97393 15.9803 5.24854L13.4803 7.74854L12.4197 6.68799L13.6395 5.46826H10.7947C10.6443 5.46833 10.5019 5.53612 10.407 5.65283L4.65704 12.729C4.27731 13.1964 3.70746 13.4682 3.10529 13.4683H0.200012V11.9683H3.10529C3.2557 11.9682 3.39809 11.9004 3.49298 11.7837L9.24298 4.70752C9.62271 4.24016 10.1926 3.96833 10.7947 3.96826H13.6395L12.4197 2.74854L13.4803 1.68799L15.9803 4.18799Z" fill="#292A2E"/>
<path d="M3.10529 3.46826C3.70746 3.46833 4.27731 3.74016 4.65704 4.20752L6.18634 6.08936L5.21954 7.27783L3.49298 5.15283C3.39809 5.03612 3.2557 4.96833 3.10529 4.96826H0.200012V3.46826H3.10529Z" fill="#292A2E"/>
</svg>
