<svg width="17" height="17" viewBox="0 0 17 17" fill="none" xmlns="http://www.w3.org/2000/svg">
<path fill-rule="evenodd" clip-rule="evenodd" d="M8.95001 0.0864258V2.83643H7.45001V0.0864258H8.95001ZM4.41968 4.61676L2.41968 2.61676L3.48034 1.5561L5.48034 3.5561L4.41968 4.61676ZM13.9803 2.61676L11.9803 4.61676L10.9197 3.5561L12.9197 1.5561L13.9803 2.61676ZM4.94928 7.83643V10.8364H6.19928V10.3364H7.69928V10.9614C7.69928 11.7208 7.08367 12.3364 6.32428 12.3364H4.82428C4.06489 12.3364 3.44928 11.7208 3.44928 10.9614V7.71143C3.44928 6.95203 4.06489 6.33643 4.82428 6.33643H6.32428C7.08367 6.33643 7.69928 6.95203 7.69928 7.71143V8.33643H6.19928V7.83643H4.94928ZM10.1993 7.83643V10.8364H11.4493V10.3364H12.9493V10.9614C12.9493 11.7208 12.3337 12.3364 11.5743 12.3364H10.0743C9.31489 12.3364 8.69928 11.7208 8.69928 10.9614V7.71143C8.69928 6.95203 9.31489 6.33643 10.0743 6.33643H11.5743C12.3337 6.33643 12.9493 6.95203 12.9493 7.71143V8.33643H11.4493V7.83643H10.1993ZM16.2 16.0864H0.200012V14.5864L16.2 14.5864V16.0864Z" fill="#292A2E"/>
</svg>
