<svg width="17" height="17" viewBox="0 0 17 17" fill="none" xmlns="http://www.w3.org/2000/svg">
<path fill-rule="evenodd" clip-rule="evenodd" d="M4.96146 3.48438H0.200012V1.98438H11.2V3.48438H6.46146V15.9844H4.96146V3.48438ZM11.9954 10.4787C12.1034 10.1826 12.3849 9.98566 12.7 9.98566C13.0151 9.98566 13.2971 10.1826 13.4051 10.4787L14.0202 12.1651L15.7066 12.7802C16.0026 12.8882 16.1996 13.1697 16.1996 13.4848C16.1996 13.7999 16.0026 14.0819 15.7066 14.1898L14.0202 14.805L13.4051 16.4914C13.2971 16.7874 13.0156 16.9844 12.7005 16.9844C12.3854 16.9844 12.1034 16.7874 11.9954 16.4914L11.3803 14.805L9.69388 14.1898C9.39785 14.0819 9.20089 13.8004 9.20089 13.4853C9.20089 13.1701 9.39785 12.8882 9.69388 12.7802L11.3803 12.1651L11.9954 10.4787Z" fill="#292A2E"/>
</svg>
