<svg width="17" height="17" viewBox="0 0 17 17" fill="none" xmlns="http://www.w3.org/2000/svg">
<path d="M14.7 7.64087H5.20001V13.1409H14.2C14.4762 13.1409 14.7 12.917 14.7 12.6409V7.64087ZM1.70001 12.6409C1.70001 12.917 1.92387 13.1409 2.20001 13.1409H3.70001V7.64087H1.70001V12.6409ZM14.7 4.64087C14.7 4.39916 14.5286 4.19716 14.3006 4.15063L14.2 4.14087H5.20001V6.14087H14.7V4.64087ZM1.70001 6.14087H3.70001V4.14087H2.20001C1.92387 4.14087 1.70001 4.36473 1.70001 4.64087V6.14087ZM16.2 12.6409C16.2 13.7454 15.3046 14.6409 14.2 14.6409H2.20001C1.09544 14.6409 0.200012 13.7454 0.200012 12.6409V4.64087C0.200012 3.5363 1.09544 2.64087 2.20001 2.64087H14.2L14.4041 2.65161C15.4128 2.75387 16.2 3.60522 16.2 4.64087V12.6409Z" fill="#292A2E"/>
</svg>
