<svg width="17" height="17" viewBox="0 0 17 17" fill="none" xmlns="http://www.w3.org/2000/svg">
<path d="M11.5174 2.38696C12.1979 2.38696 12.832 2.73346 13.2 3.30591L15.9891 7.6438L16.0838 7.8186C16.2478 8.17951 16.2478 8.59441 16.0838 8.95532L15.9891 9.13013L13.2 13.468C12.832 14.0405 12.1979 14.387 11.5174 14.387H4.88263C4.24475 14.387 3.64764 14.083 3.27228 13.5735L3.20001 13.468L0.410948 9.13013C0.120179 8.67742 0.120179 8.09651 0.410948 7.6438L3.20001 3.30591L3.27228 3.20044C3.64764 2.69092 4.24475 2.38696 4.88263 2.38696H11.5174ZM4.88263 3.88696C4.73385 3.88696 4.5941 3.95336 4.49982 4.06567L4.46173 4.11646L1.71661 8.38696L4.46173 12.6575L4.49982 12.7083C4.5941 12.8206 4.73385 12.887 4.88263 12.887H11.5174C11.6875 12.887 11.8463 12.8006 11.9383 12.6575L14.6824 8.38696L11.9383 4.11646C11.8463 3.97336 11.6875 3.88696 11.5174 3.88696H4.88263Z" fill="#292A2E"/>
</svg>
