<svg width="17" height="17" viewBox="0 0 17 17" fill="none" xmlns="http://www.w3.org/2000/svg">
<path fill-rule="evenodd" clip-rule="evenodd" d="M9.53676 1.19217C10.3178 0.411203 11.584 0.411205 12.3651 1.19217L13.5975 2.42448C14.3786 3.20554 14.3786 4.47197 13.5975 5.25303L5.49828 13.3515C5.21908 13.6307 4.86349 13.821 4.47633 13.8984L1.0971 14.5742C0.851203 14.6234 0.597 14.5464 0.419685 14.3691C0.242371 14.1918 0.165408 13.9376 0.214591 13.6917L0.890424 10.3128C0.967871 9.9256 1.1582 9.56999 1.43743 9.29078L9.53676 1.19217ZM11.3045 2.25288C11.1092 2.05763 10.7926 2.05764 10.5974 2.25288L9.63641 3.21376L11.576 5.15314L12.5369 4.19233C12.7322 3.99706 12.7322 3.68045 12.5369 3.48519L11.3045 2.25288ZM10.5153 6.21376L8.5757 4.27437L2.49804 10.3515C2.42823 10.4213 2.38065 10.5102 2.36129 10.607L1.90611 12.8827L4.18218 12.4275C4.27897 12.4082 4.36787 12.3606 4.43767 12.2908L10.5153 6.21376ZM11.9956 10.083C12.1036 9.787 12.3851 9.59004 12.7002 9.59004C13.0153 9.59004 13.2973 9.787 13.4052 10.083L14.0204 11.7694L15.707 12.3846C16.0031 12.4925 16.2 12.7741 16.2 13.0892C16.2 13.4043 16.0031 13.6863 15.707 13.7942L14.0204 14.4094L13.4052 16.0958C13.2973 16.3918 13.0158 16.5888 12.7007 16.5888C12.3856 16.5888 12.1036 16.3918 11.9956 16.0958L11.3804 14.4094L9.69383 13.7942C9.3978 13.6863 9.20082 13.4047 9.20082 13.0896C9.20082 12.7745 9.3978 12.4925 9.69383 12.3846L11.3804 11.7694L11.9956 10.083Z" fill="#292A2E"/>
</svg>
