<svg width="17" height="17" viewBox="0 0 17 17" fill="none" xmlns="http://www.w3.org/2000/svg">
<path d="M0.669678 1.67882L14.6697 15.6788L15.7303 14.6182L1.73034 0.618164L0.669678 1.67882Z" fill="#292A2E"/>
<path d="M9.01828 12.1484L10.5183 13.6484H3.95001C1.87894 13.6484 0.200012 11.9695 0.200012 9.89844C0.200012 8.32849 1.1642 6.98524 2.53199 6.42606C2.56802 6.21461 2.61559 6.0071 2.67403 5.80419L3.95971 7.08988C3.91869 7.39209 3.69776 7.64114 3.39933 7.71613C2.4225 7.96159 1.70001 8.84658 1.70001 9.89844C1.70001 11.1411 2.70737 12.1484 3.95001 12.1484H9.01828Z" fill="#292A2E"/>
<path d="M8.20001 1.64844C7.2384 1.64844 6.33199 1.88444 5.53549 2.30169L6.66712 3.43332C7.14268 3.24934 7.65958 3.14844 8.20001 3.14844C10.2953 3.14844 12.0378 4.66543 12.3864 6.6611C12.4354 6.94161 12.639 7.17017 12.9121 7.2511C13.9466 7.55776 14.7 8.51609 14.7 9.64844C14.7 10.1644 14.5437 10.6439 14.2759 11.0421L15.349 12.1152C15.8821 11.4356 16.2 10.5792 16.2 9.64844C16.2 7.99603 15.1986 6.57916 13.7707 5.96885C13.1349 3.48475 10.8826 1.64844 8.20001 1.64844Z" fill="#292A2E"/>
</svg>
