<svg width="17" height="17" viewBox="0 0 17 17" fill="none" xmlns="http://www.w3.org/2000/svg">
<path fill-rule="evenodd" clip-rule="evenodd" d="M13.7 2.52783C13.1477 2.52783 12.7 2.97555 12.7 3.52783C12.7 4.08012 13.1477 4.52783 13.7 4.52783C14.2523 4.52783 14.7 4.08012 14.7 3.52783C14.7 2.97555 14.2523 2.52783 13.7 2.52783ZM11.3145 2.77783C11.633 1.76356 12.5806 1.02783 13.7 1.02783C15.0807 1.02783 16.2 2.14712 16.2 3.52783C16.2 4.90854 15.0807 6.02783 13.7 6.02783C12.5806 6.02783 11.633 5.29211 11.3145 4.27783H8.90106C8.72687 4.27783 8.56524 4.36848 8.47441 4.51711L6.32897 8.02783L8.47441 11.5386C8.56524 11.6872 8.72687 11.7778 8.90106 11.7778H11.3145C11.633 10.7636 12.5806 10.0278 13.7 10.0278C15.0807 10.0278 16.2 11.1471 16.2 12.5278C16.2 13.9085 15.0807 15.0278 13.7 15.0278C12.5806 15.0278 11.633 14.2921 11.3145 13.2778H8.90106C8.20432 13.2778 7.5578 12.9152 7.19449 12.3207L5.02939 8.77783H0.200012V7.27783H5.02939L7.19449 3.73493C7.5578 3.14042 8.20432 2.77783 8.90106 2.77783H11.3145ZM13.7 11.5278C13.1477 11.5278 12.7 11.9755 12.7 12.5278C12.7 13.0801 13.1477 13.5278 13.7 13.5278C14.2523 13.5278 14.7 13.0801 14.7 12.5278C14.7 11.9755 14.2523 11.5278 13.7 11.5278Z" fill="#292A2E"/>
</svg>
