<svg width="17" height="17" viewBox="0 0 17 17" fill="none" xmlns="http://www.w3.org/2000/svg">
<path d="M8.3172 1.49243C8.58353 1.53427 8.81064 1.71788 8.90509 1.97681L10.4549 6.22778L14.7068 7.77856C15.0027 7.88649 15.1998 8.16774 15.2 8.48267V8.48462C15.1998 8.79955 15.0027 9.08079 14.7068 9.18872L10.4549 10.7385L8.90509 14.9905C8.79716 15.2864 8.51592 15.4835 8.20099 15.4836H8.19904C7.88411 15.4835 7.60286 15.2864 7.49493 14.9905L5.94415 10.7385L1.69318 9.18872C1.39729 9.08079 1.2002 8.79955 1.20001 8.48462V8.48267C1.2002 8.16774 1.39729 7.88649 1.69318 7.77856L5.94415 6.22778L7.49493 1.97681L7.54279 1.87036C7.67323 1.6344 7.92345 1.4838 8.19904 1.48364H8.20099L8.3172 1.49243Z" fill="#292A2E"/>
</svg>
