<svg width="17" height="17" viewBox="0 0 17 17" fill="none" xmlns="http://www.w3.org/2000/svg">
<path d="M6.86652 2.96191C6.86652 3.5142 6.4188 3.96191 5.86652 3.96191C5.31423 3.96191 4.86652 3.5142 4.86652 2.96191C4.86652 2.40963 5.31423 1.96191 5.86652 1.96191C6.4188 1.96191 6.86652 2.40963 6.86652 2.96191Z" fill="#292A2E"/>
<path d="M5.86652 4.96191C4.90002 4.96191 4.11652 5.74542 4.11652 6.71191C4.11652 7.67841 4.90002 8.46191 5.86652 8.46191C6.83301 8.46191 7.61652 7.67841 7.61652 6.71191C7.61652 5.74542 6.83301 4.96191 5.86652 4.96191Z" fill="#292A2E"/>
<path d="M5.86652 9.46191C4.90002 9.46191 4.11652 10.2454 4.11652 11.2119C4.11652 12.1784 4.90002 12.9619 5.86652 12.9619C6.83301 12.9619 7.61652 12.1784 7.61652 11.2119C7.61652 10.2454 6.83301 9.46191 5.86652 9.46191Z" fill="#292A2E"/>
<path d="M10.3665 4.96191C9.40002 4.96191 8.61652 5.74542 8.61652 6.71191C8.61652 7.67841 9.40002 8.46191 10.3665 8.46191C11.333 8.46191 12.1165 7.67841 12.1165 6.71191C12.1165 5.74542 11.333 4.96191 10.3665 4.96191Z" fill="#292A2E"/>
<path d="M10.3665 9.46191C9.40002 9.46191 8.61652 10.2454 8.61652 11.2119C8.61652 12.1784 9.40002 12.9619 10.3665 12.9619C11.333 12.9619 12.1165 12.1784 12.1165 11.2119C12.1165 10.2454 11.333 9.46191 10.3665 9.46191Z" fill="#292A2E"/>
<path d="M5.86652 15.9619C6.4188 15.9619 6.86652 15.5142 6.86652 14.9619C6.86652 14.4096 6.4188 13.9619 5.86652 13.9619C5.31423 13.9619 4.86652 14.4096 4.86652 14.9619C4.86652 15.5142 5.31423 15.9619 5.86652 15.9619Z" fill="#292A2E"/>
<path d="M3.20001 6.71191C3.20001 7.2642 2.7523 7.71191 2.20001 7.71191C1.64773 7.71191 1.20001 7.2642 1.20001 6.71191C1.20001 6.15963 1.64773 5.71191 2.20001 5.71191C2.7523 5.71191 3.20001 6.15963 3.20001 6.71191Z" fill="#292A2E"/>
<path d="M14.2 7.71191C14.7523 7.71191 15.2 7.2642 15.2 6.71191C15.2 6.15963 14.7523 5.71191 14.2 5.71191C13.6477 5.71191 13.2 6.15963 13.2 6.71191C13.2 7.2642 13.6477 7.71191 14.2 7.71191Z" fill="#292A2E"/>
<path d="M3.20001 11.2119C3.20001 11.7642 2.7523 12.2119 2.20001 12.2119C1.64773 12.2119 1.20001 11.7642 1.20001 11.2119C1.20001 10.6596 1.64773 10.2119 2.20001 10.2119C2.7523 10.2119 3.20001 10.6596 3.20001 11.2119Z" fill="#292A2E"/>
<path d="M14.2 12.2119C14.7523 12.2119 15.2 11.7642 15.2 11.2119C15.2 10.6596 14.7523 10.2119 14.2 10.2119C13.6477 10.2119 13.2 10.6596 13.2 11.2119C13.2 11.7642 13.6477 12.2119 14.2 12.2119Z" fill="#292A2E"/>
<path d="M11.3665 2.96191C11.3665 3.5142 10.9188 3.96191 10.3665 3.96191C9.81423 3.96191 9.36652 3.5142 9.36652 2.96191C9.36652 2.40963 9.81423 1.96191 10.3665 1.96191C10.9188 1.96191 11.3665 2.40963 11.3665 2.96191Z" fill="#292A2E"/>
<path d="M10.3665 15.9619C10.9188 15.9619 11.3665 15.5142 11.3665 14.9619C11.3665 14.4096 10.9188 13.9619 10.3665 13.9619C9.81423 13.9619 9.36652 14.4096 9.36652 14.9619C9.36652 15.5142 9.81423 15.9619 10.3665 15.9619Z" fill="#292A2E"/>
</svg>
