<svg width="17" height="17" viewBox="0 0 17 17" fill="none" xmlns="http://www.w3.org/2000/svg">
<path fill-rule="evenodd" clip-rule="evenodd" d="M16.2 13.9448H14.7V13.5659C14.1735 13.959 13.5351 14.1948 12.825 14.1948C10.8701 14.1948 9.45001 12.4187 9.45001 10.4448C9.45001 8.47096 10.8701 6.69482 12.825 6.69482C13.5349 6.69482 14.1736 6.92993 14.7 7.32275V6.69482H16.2V13.9448ZM12.825 8.19482C11.8804 8.19482 10.95 9.10498 10.95 10.4448C10.95 11.7847 11.8804 12.6948 12.825 12.6948C13.7696 12.6948 14.7 11.7847 14.7 10.4448C14.7 9.10498 13.7696 8.19482 12.825 8.19482Z" fill="#292A2E"/>
<path fill-rule="evenodd" clip-rule="evenodd" d="M5.91095 4.45459L9.11505 13.9448H7.53107L6.68732 11.4448H2.71271L1.86896 13.9448H0.284973L3.48907 4.45459L3.66193 3.94482H5.7381L5.91095 4.45459ZM3.21857 9.94482H6.18146L4.70001 5.55908L3.21857 9.94482Z" fill="#292A2E"/>
</svg>
