<svg width="17" height="17" viewBox="0 0 17 17" fill="none" xmlns="http://www.w3.org/2000/svg">
<path fill-rule="evenodd" clip-rule="evenodd" d="M7.20001 1.68872C7.20001 1.27451 7.5358 0.938721 7.95001 0.938721H14.95C15.3642 0.938721 15.7 1.27451 15.7 1.68872V8.68872C15.7 9.10293 15.3642 9.43872 14.95 9.43872H13.325C12.9224 9.43872 12.541 9.34809 12.2 9.18611V12.1887C12.2 12.6029 11.8642 12.9387 11.45 12.9387H9.82501C9.42241 12.9387 9.04098 12.8481 8.70001 12.6861V15.6887C8.70001 16.1029 8.36423 16.4387 7.95001 16.4387H6.32501C4.87526 16.4387 3.70001 15.2635 3.70001 13.8137V12.9387H2.82501C1.37526 12.9387 0.200012 11.7635 0.200012 10.3137V8.68872C0.200012 8.27451 0.535799 7.93872 0.950012 7.93872H3.95262C3.79065 7.59775 3.70001 7.21632 3.70001 6.81372V5.18872C3.70001 4.77451 4.0358 4.43872 4.45001 4.43872H7.45262C7.29065 4.09775 7.20001 3.71632 7.20001 3.31372V1.68872ZM9.82501 4.43872H11.45C11.8642 4.43872 12.2 4.77451 12.2 5.18872V6.81372C12.2 7.43504 12.7037 7.93872 13.325 7.93872H14.2V2.43872H8.70001V3.31372C8.70001 3.93504 9.20369 4.43872 9.82501 4.43872ZM10.7 5.93872H5.20001V6.81372C5.20001 7.43504 5.70369 7.93872 6.32501 7.93872H7.95001C8.36423 7.93872 8.70001 8.27451 8.70001 8.68872V10.3137C8.70001 10.935 9.20369 11.4387 9.82501 11.4387H10.7V5.93872ZM7.20001 9.43872H1.70001V10.3137C1.70001 10.935 2.20369 11.4387 2.82501 11.4387H4.45001C4.86423 11.4387 5.20001 11.7745 5.20001 12.1887V13.8137C5.20001 14.435 5.70369 14.9387 6.32501 14.9387H7.20001V9.43872Z" fill="#292A2E"/>
</svg>
