<svg width="17" height="17" viewBox="0 0 17 17" fill="none" xmlns="http://www.w3.org/2000/svg">
<path d="M11.95 8.57349C11.95 7.0276 12.2762 5.59054 12.8406 4.51294C12.9195 4.36244 13.0066 4.21569 13.0994 4.07349H4.20001C3.80269 4.07349 3.1895 4.3972 2.63068 5.23853C2.09382 6.04685 1.70001 7.21349 1.70001 8.57349C1.70001 9.93348 2.09382 11.1001 2.63068 11.9084C3.1895 12.7498 3.80269 13.0735 4.20001 13.0735H13.0994C13.0066 12.9313 12.9195 12.7845 12.8406 12.634C12.2762 11.5564 11.95 10.1194 11.95 8.57349ZM13.45 8.57349C13.45 9.92698 13.7389 11.1153 14.1697 11.9377C14.6192 12.7958 15.1095 13.0735 15.45 13.0735L15.5272 13.0774C15.9051 13.116 16.2 13.4354 16.2 13.8235C16.2 14.2116 15.9051 14.531 15.5272 14.5696L15.45 14.5735H4.20001C3.07859 14.5735 2.06713 13.7721 1.38068 12.7385C0.672232 11.6719 0.200012 10.2135 0.200012 8.57349C0.200012 6.93348 0.672232 5.47512 1.38068 4.40845C2.06713 3.3749 3.07859 2.57349 4.20001 2.57349H15.45L15.5272 2.57739C15.9051 2.61601 16.2 2.93536 16.2 3.32349C16.2 3.7377 15.8642 4.07349 15.45 4.07349C15.1095 4.07349 14.6192 4.3512 14.1697 5.20923C13.7389 6.03171 13.45 7.21995 13.45 8.57349Z" fill="#292A2E"/>
</svg>
