<svg width="17" height="17" viewBox="0 0 17 17" fill="none" xmlns="http://www.w3.org/2000/svg">
<path d="M0.200012 5.30884C0.200012 3.51391 1.65509 2.05884 3.45001 2.05884H14.2V3.55884H3.45001C2.48351 3.55884 1.70001 4.34234 1.70001 5.30884V11.0588H0.200012V5.30884ZM14.7 7.05884C14.7 6.7827 14.4762 6.55884 14.2 6.55884H5.20001C4.92387 6.55884 4.70001 6.7827 4.70001 7.05884V12.1086L7.35138 13.5227C7.52263 13.6139 7.73129 13.5981 7.88654 13.4817L10.6141 11.4358L10.7322 11.3538C11.3384 10.9639 12.1122 10.9291 12.7547 11.2717L14.7 12.3088V7.05884ZM16.2 13.1418C16.2 13.8497 15.4926 14.3186 14.8553 14.0813L14.7293 14.0247L12.0486 12.595C11.8988 12.5151 11.7203 12.5171 11.574 12.5969L11.5135 12.636L8.78595 14.6819C8.16477 15.1475 7.33035 15.2113 6.64532 14.8459L3.72931 13.2913C3.40348 13.1175 3.20001 12.7777 3.20001 12.4084V7.05884C3.20001 5.95427 4.09544 5.05884 5.20001 5.05884H14.2C15.3046 5.05884 16.2 5.95427 16.2 7.05884V13.1418Z" fill="#292A2E"/>
</svg>
