<svg width="17" height="17" viewBox="0 0 17 17" fill="none" xmlns="http://www.w3.org/2000/svg">
<path d="M13.7 6.83228C13.4445 6.96598 13.1667 7.08619 12.8738 7.19165C11.6419 7.63514 9.98914 7.89478 8.20001 7.89478C6.41088 7.89478 4.75811 7.63514 3.52618 7.19165C3.23327 7.08619 2.95551 6.96598 2.70001 6.83228V12.1448C2.70001 12.5725 3.0517 13.1302 4.09943 13.6223C5.10585 14.095 6.55316 14.3948 8.20001 14.3948C9.84687 14.3948 11.2942 14.095 12.3006 13.6223C13.3483 13.1302 13.7 12.5725 13.7 12.1448V6.83228ZM13.7 4.89478C13.7 4.88803 13.6982 4.78217 13.4725 4.59009C13.2498 4.4006 12.8832 4.19556 12.3651 4.00903C11.3349 3.63827 9.86243 3.39478 8.20001 3.39478C6.5376 3.39478 5.06508 3.63827 4.03497 4.00903C3.51685 4.19556 3.15024 4.4006 2.92755 4.59009C2.70187 4.78217 2.70001 4.88803 2.70001 4.89478C2.70001 4.90152 2.70187 5.00738 2.92755 5.19946C3.15024 5.38895 3.51685 5.59399 4.03497 5.78052C5.06508 6.15128 6.5376 6.39478 8.20001 6.39478C9.86243 6.39478 11.3349 6.15128 12.3651 5.78052C12.8832 5.59399 13.2498 5.38895 13.4725 5.19946C13.6982 5.00738 13.7 4.90152 13.7 4.89478ZM15.2 12.1448C15.2 13.467 14.1526 14.4094 12.9383 14.9797C11.6827 15.5695 10.0049 15.8948 8.20001 15.8948C6.3951 15.8948 4.71736 15.5695 3.46173 14.9797C2.24742 14.4094 1.20001 13.467 1.20001 12.1448V4.89478C1.20001 4.2802 1.54804 3.7938 1.9549 3.44751C2.36469 3.09874 2.91355 2.81847 3.52618 2.5979C4.75811 2.15441 6.41088 1.89478 8.20001 1.89478C9.98914 1.89478 11.6419 2.15441 12.8738 2.5979C13.4865 2.81847 14.0353 3.09874 14.4451 3.44751C14.852 3.7938 15.2 4.2802 15.2 4.89478V12.1448Z" fill="#292A2E"/>
</svg>
