<svg width="17" height="17" viewBox="0 0 17 17" fill="none" xmlns="http://www.w3.org/2000/svg">
<path fill-rule="evenodd" clip-rule="evenodd" d="M0.200012 4.25049C0.200012 3.14592 1.09544 2.25049 2.20001 2.25049H14.2C15.3046 2.25049 16.2 3.14592 16.2 4.25049V12.2505C16.2 13.3551 15.3046 14.2505 14.2 14.2505H2.20001C1.09544 14.2505 0.200012 13.3551 0.200012 12.2505V4.25049ZM2.20001 3.75049C1.92387 3.75049 1.70001 3.97435 1.70001 4.25049V12.2505C1.70001 12.5266 1.92387 12.7505 2.20001 12.7505H14.2C14.4762 12.7505 14.7 12.5266 14.7 12.2505V4.25049C14.7 3.97435 14.4762 3.75049 14.2 3.75049H2.20001Z" fill="#292A2E"/>
</svg>
