<svg width="17" height="17" viewBox="0 0 17 17" fill="none" xmlns="http://www.w3.org/2000/svg">
<path d="M13.7 3.69263C13.7 3.41648 13.4762 3.19263 13.2 3.19263H11.7V5.19263H10.2V3.19263H6.20001V5.19263H4.70001V3.19263H3.20001C2.92387 3.19263 2.70001 3.41648 2.70001 3.69263V6.69263H13.7V3.69263ZM15.2 8.19263H2.70001V13.6926C2.70001 13.9688 2.92387 14.1926 3.20001 14.1926H7.70001V15.6926H3.20001C2.09544 15.6926 1.20001 14.7972 1.20001 13.6926V3.69263C1.20001 2.58806 2.09544 1.69263 3.20001 1.69263H4.70001V0.692627H6.20001V1.69263H10.2V0.692627H11.7V1.69263H13.2L13.4041 1.70337C14.4128 1.80563 15.2 2.65698 15.2 3.69263V8.19263Z" fill="#292A2E"/>
<path d="M12.8162 9.70142C13.0828 9.74305 13.3106 9.92665 13.4051 10.1858L14.0193 11.8723L15.7068 12.4875C16.0029 12.5955 16.2 12.8775 16.2 13.1926L16.1912 13.3088C16.1496 13.5755 15.966 13.8032 15.7068 13.8977L14.0193 14.512L13.4051 16.1995C13.3106 16.4586 13.0828 16.6422 12.8162 16.6838L12.7 16.6926C12.3849 16.6926 12.1029 16.4955 11.9949 16.1995L11.3797 14.512L9.69318 13.8977C9.43403 13.8032 9.25044 13.5755 9.2088 13.3088L9.20001 13.1926C9.20001 12.8775 9.39715 12.5955 9.69318 12.4875L11.3797 11.8723L11.9949 10.1858L12.0438 10.0793C12.1557 9.87703 12.3553 9.7371 12.5838 9.70142L12.7 9.69263L12.8162 9.70142Z" fill="#292A2E"/>
</svg>
