<svg width="17" height="17" viewBox="0 0 17 17" fill="none" xmlns="http://www.w3.org/2000/svg">
<path fill-rule="evenodd" clip-rule="evenodd" d="M0.200012 3.16455C0.200012 2.40516 0.815621 1.78955 1.57501 1.78955H4.82501C5.5844 1.78955 6.20001 2.40516 6.20001 3.16455V14.4146C6.20001 15.1739 5.5844 15.7896 4.82501 15.7896H1.57501C0.815621 15.7896 0.200012 15.1739 0.200012 14.4146V3.16455ZM1.70001 3.28955V14.2896H4.70001V3.28955H1.70001ZM7.70001 3.16455C7.70001 2.40516 8.31562 1.78955 9.07501 1.78955H9.82501C10.5844 1.78955 11.2 2.40516 11.2 3.16455V14.4146C11.2 15.1739 10.5844 15.7896 9.82501 15.7896H9.07501C8.31562 15.7896 7.70001 15.1739 7.70001 14.4146V3.16455ZM9.20001 3.28955V14.2896H9.70001V3.28955H9.20001ZM12.7 3.16455C12.7 2.40516 13.3156 1.78955 14.075 1.78955H14.825C15.5844 1.78955 16.2 2.40516 16.2 3.16455V14.4146C16.2 15.1739 15.5844 15.7896 14.825 15.7896H14.075C13.3156 15.7896 12.7 15.1739 12.7 14.4146V3.16455ZM14.2 3.28955V14.2896H14.7V3.28955H14.2Z" fill="#292A2E"/>
</svg>
