<svg width="17" height="17" viewBox="0 0 17 17" fill="none" xmlns="http://www.w3.org/2000/svg">
<path fill-rule="evenodd" clip-rule="evenodd" d="M3.20001 3.17725C2.09544 3.17725 1.20001 4.07268 1.20001 5.17725L1.20001 13.6772C1.20001 14.7818 2.09544 15.6772 3.20001 15.6772H11.7C12.8046 15.6772 13.7 14.7818 13.7 13.6772V8.67725H12.2V13.6772C12.2 13.9534 11.9762 14.1772 11.7 14.1772H3.20001C2.92387 14.1772 2.70001 13.9534 2.70001 13.6772L2.70001 5.17725C2.70001 4.9011 2.92387 4.67725 3.20001 4.67725L8.20001 4.67725V3.17725L3.20001 3.17725Z" fill="#292A2E"/>
<path fill-rule="evenodd" clip-rule="evenodd" d="M15.2 6.67725V2.42725C15.2 2.01303 14.8642 1.67725 14.45 1.67725L10.2 1.67725V3.17725L12.6394 3.17725L9.16968 6.64692L10.2303 7.70758L13.7 4.23791V6.67725H15.2ZM7.70001 9.67725L7.70001 14.9272H9.20001V9.67725C9.20001 8.57268 8.30458 7.67725 7.20001 7.67725H1.95001L1.95001 9.17725H7.20001C7.47615 9.17725 7.70001 9.4011 7.70001 9.67725Z" fill="#292A2E"/>
</svg>
