<svg width="17" height="17" viewBox="0 0 17 17" fill="none" xmlns="http://www.w3.org/2000/svg">
<path fill-rule="evenodd" clip-rule="evenodd" d="M11.6697 1.32074C11.9626 1.02785 12.4374 1.02785 12.7303 1.32074L15.5588 4.14917C15.6994 4.28982 15.7784 4.48059 15.7784 4.6795C15.7784 4.87841 15.6994 5.06918 15.5588 5.20983L12.95 7.81859V9.69558C14.2439 10.0286 15.2 11.2032 15.2 12.6011C15.2 14.2579 13.8569 15.6011 12.2 15.6011C10.5432 15.6011 9.20001 14.2579 9.20001 12.6011C9.20001 11.2032 10.1561 10.0286 11.45 9.69558V7.81859L8.98249 5.35107H7.1055C6.83417 6.40527 6.00422 7.23522 4.95001 7.50656L4.95001 9.60107H6.45001C6.86423 9.60107 7.20001 9.93686 7.20001 10.3511V14.8511C7.20001 15.2653 6.86423 15.6011 6.45001 15.6011H1.95001C1.5358 15.6011 1.20001 15.2653 1.20001 14.8511V10.3511C1.20001 9.93686 1.5358 9.60107 1.95001 9.60107H3.45001L3.45001 7.50656C2.15609 7.17352 1.20001 5.99895 1.20001 4.60107C1.20001 2.94421 2.54316 1.60107 4.20001 1.60107C5.59789 1.60107 6.77247 2.55715 7.1055 3.85107H9.13936L11.6697 1.32074ZM10.4322 4.6795L12.2 6.44727L13.9678 4.6795L12.2 2.91173L10.4322 4.6795ZM4.20001 3.10107C3.37159 3.10107 2.70001 3.77264 2.70001 4.60107C2.70001 5.4295 3.37159 6.10107 4.20001 6.10107C5.02844 6.10107 5.70001 5.4295 5.70001 4.60107C5.70001 3.77264 5.02844 3.10107 4.20001 3.10107ZM2.70001 11.1011V14.1011H5.70001V11.1011H2.70001ZM12.2 11.1011C11.3716 11.1011 10.7 11.7726 10.7 12.6011C10.7 13.4295 11.3716 14.1011 12.2 14.1011C13.0284 14.1011 13.7 13.4295 13.7 12.6011C13.7 11.7726 13.0284 11.1011 12.2 11.1011Z" fill="#292A2E"/>
</svg>
