<svg width="17" height="17" viewBox="0 0 17 17" fill="none" xmlns="http://www.w3.org/2000/svg">
<path d="M8.20001 13.083V11.1455C8.20001 10.3194 8.58902 9.54165 9.24982 9.0459L9.70001 8.70801L9.24982 8.37012C8.58902 7.87436 8.20001 7.09662 8.20001 6.27051V4.33301C8.20001 3.71169 7.69633 3.20801 7.07501 3.20801H6.20001V1.70801H7.07501C8.52476 1.70801 9.70001 2.88326 9.70001 4.33301V6.27051C9.70001 6.62461 9.86693 6.95844 10.1502 7.1709L11.4002 8.1084L11.4676 8.16504C11.6151 8.30568 11.7 8.50162 11.7 8.70801C11.7 8.91439 11.6151 9.11034 11.4676 9.25098L11.4002 9.30762L10.1502 10.2451C9.86693 10.4576 9.70001 10.7914 9.70001 11.1455V13.083C9.70001 14.5328 8.52476 15.708 7.07501 15.708H6.20001V14.208H7.07501C7.69633 14.208 8.20001 13.7043 8.20001 13.083Z" fill="#292A2E"/>
</svg>
