<svg width="17" height="17" viewBox="0 0 17 17" fill="none" xmlns="http://www.w3.org/2000/svg">
<path fill-rule="evenodd" clip-rule="evenodd" d="M15.2 10.2808L1.20001 10.2808L1.20001 11.7808L15.2 11.7808V10.2808ZM8.20001 14.2808L1.20001 14.2808L1.20001 15.7808L8.20001 15.7808V14.2808Z" fill="#292A2E"/>
<path d="M1.95001 5.78076C2.36423 5.78076 2.70001 6.11655 2.70001 6.53076C2.70001 6.94498 2.36423 7.28076 1.95001 7.28076C1.5358 7.28076 1.20001 6.94498 1.20001 6.53076C1.20001 6.11655 1.5358 5.78076 1.95001 5.78076Z" fill="#292A2E"/>
<path d="M1.95001 1.78076C2.36423 1.78076 2.70001 2.11655 2.70001 2.53076C2.70001 2.94498 2.36423 3.28076 1.95001 3.28076C1.5358 3.28076 1.20001 2.94498 1.20001 2.53076C1.20001 2.11655 1.5358 1.78076 1.95001 1.78076Z" fill="#292A2E"/>
<path d="M5.82501 6.53076C5.82501 6.11655 5.48923 5.78076 5.07501 5.78076C4.6608 5.78076 4.32501 6.11655 4.32501 6.53076C4.32501 6.94498 4.6608 7.28076 5.07501 7.28076C5.48923 7.28076 5.82501 6.94498 5.82501 6.53076Z" fill="#292A2E"/>
<path d="M5.07501 1.78076C5.48923 1.78076 5.82501 2.11655 5.82501 2.53076C5.82501 2.94498 5.48923 3.28076 5.07501 3.28076C4.6608 3.28076 4.32501 2.94498 4.32501 2.53076C4.32501 2.11655 4.6608 1.78076 5.07501 1.78076Z" fill="#292A2E"/>
<path d="M8.95001 6.53076C8.95001 6.11655 8.61423 5.78076 8.20001 5.78076C7.7858 5.78076 7.45001 6.11655 7.45001 6.53076C7.45001 6.94498 7.7858 7.28076 8.20001 7.28076C8.61423 7.28076 8.95001 6.94498 8.95001 6.53076Z" fill="#292A2E"/>
<path d="M8.20001 1.78076C8.61423 1.78076 8.95001 2.11655 8.95001 2.53076C8.95001 2.94498 8.61423 3.28076 8.20001 3.28076C7.7858 3.28076 7.45001 2.94498 7.45001 2.53076C7.45001 2.11655 7.7858 1.78076 8.20001 1.78076Z" fill="#292A2E"/>
<path d="M12.075 6.53076C12.075 6.11655 11.7392 5.78076 11.325 5.78076C10.9108 5.78076 10.575 6.11655 10.575 6.53076C10.575 6.94498 10.9108 7.28076 11.325 7.28076C11.7392 7.28076 12.075 6.94498 12.075 6.53076Z" fill="#292A2E"/>
<path d="M11.325 1.78076C11.7392 1.78076 12.075 2.11655 12.075 2.53076C12.075 2.94498 11.7392 3.28076 11.325 3.28076C10.9108 3.28076 10.575 2.94498 10.575 2.53076C10.575 2.11655 10.9108 1.78076 11.325 1.78076Z" fill="#292A2E"/>
<path d="M15.2 6.53076C15.2 6.11655 14.8642 5.78076 14.45 5.78076C14.0358 5.78076 13.7 6.11655 13.7 6.53076C13.7 6.94498 14.0358 7.28076 14.45 7.28076C14.8642 7.28076 15.2 6.94498 15.2 6.53076Z" fill="#292A2E"/>
<path d="M14.45 1.78076C14.8642 1.78076 15.2 2.11655 15.2 2.53076C15.2 2.94498 14.8642 3.28076 14.45 3.28076C14.0358 3.28076 13.7 2.94498 13.7 2.53076C13.7 2.11655 14.0358 1.78076 14.45 1.78076Z" fill="#292A2E"/>
</svg>
