<svg width="17" height="17" viewBox="0 0 17 17" fill="none" xmlns="http://www.w3.org/2000/svg">
<path fill-rule="evenodd" clip-rule="evenodd" d="M1.20001 3.31958C1.20001 2.21501 2.09544 1.31958 3.20001 1.31958H11.2C12.3046 1.31958 13.2 2.21501 13.2 3.31958V11.3196C13.2 12.4241 12.3046 13.3196 11.2 13.3196H3.20001C2.09544 13.3196 1.20001 12.4241 1.20001 11.3196V3.31958ZM3.20001 2.81958C2.92387 2.81958 2.70001 3.04344 2.70001 3.31958V11.3196C2.70001 11.5957 2.92387 11.8196 3.20001 11.8196H11.2C11.4762 11.8196 11.7 11.5957 11.7 11.3196V3.31958C11.7 3.04344 11.4762 2.81958 11.2 2.81958H3.20001ZM6.45001 8.06958V10.3196H7.95001V8.06958H10.2V6.56958H7.95001V4.31958H6.45001V6.56958H4.20001V8.06958H6.45001Z" fill="#292A2E"/>
<path fill-rule="evenodd" clip-rule="evenodd" d="M16.2 5.31958V13.0696C16.2 14.8645 14.7449 16.3196 12.95 16.3196H5.20001V14.8196H12.95C13.9165 14.8196 14.7 14.0361 14.7 13.0696V5.31958H16.2Z" fill="#292A2E"/>
</svg>
