<svg width="17" height="17" viewBox="0 0 17 17" fill="none" xmlns="http://www.w3.org/2000/svg">
<path d="M6.78595 2.76611C7.56697 1.98519 8.83305 1.98519 9.61407 2.76611L13.5965 6.74853C14.3774 7.52956 14.3774 8.79563 13.5965 9.57666L9.61407 13.5591C8.83305 14.34 7.56697 14.34 6.78595 13.5591L2.80353 9.57666C2.0226 8.79563 2.0226 7.52956 2.80353 6.74853L6.78595 2.76611ZM8.55353 3.82666C8.35829 3.63152 8.04173 3.63152 7.8465 3.82666L3.86407 7.80908C3.66894 8.00432 3.66894 8.32087 3.86407 8.51611L7.8465 12.4985C8.04173 12.6937 8.35829 12.6937 8.55353 12.4985L12.5359 8.51611C12.7311 8.32087 12.7311 8.00432 12.5359 7.80908L8.55353 3.82666Z" fill="#292A2E"/>
</svg>
