<svg width="17" height="17" viewBox="0 0 17 17" fill="none" xmlns="http://www.w3.org/2000/svg">
<path d="M3.20001 2.97314C3.20001 2.35182 3.70369 1.84814 4.32501 1.84814H8.95001C11.2036 1.84814 13.2 3.47378 13.2 5.91064C13.2 6.14774 13.1811 6.37716 13.1449 6.59814H10.8161C10.9035 6.387 10.95 6.15513 10.95 5.91064C10.95 4.89573 10.1482 4.09814 8.95001 4.09814H5.45001V6.59814H3.20001V2.97314Z" fill="#292A2E"/>
<path d="M11.8161 11.0981H14.1449C14.1811 11.3191 14.2 11.5485 14.2 11.7856C14.2 14.2225 12.2036 15.8481 9.95001 15.8481H4.32501C3.70369 15.8481 3.20001 15.3445 3.20001 14.7231V11.0981H5.45001V13.5981H9.95001C11.1482 13.5981 11.95 12.8006 11.95 11.7856C11.95 11.5412 11.9035 11.3093 11.8161 11.0981Z" fill="#292A2E"/>
<path d="M16.2 8.09814H0.200012V9.59814H16.2V8.09814Z" fill="#292A2E"/>
</svg>
