<svg width="17" height="17" viewBox="0 0 17 17" fill="none" xmlns="http://www.w3.org/2000/svg">
<path fill-rule="evenodd" clip-rule="evenodd" d="M12.95 8.15869C12.5358 8.15869 12.2 8.49448 12.2 8.90869C12.2 9.3229 12.5358 9.65869 12.95 9.65869C13.3642 9.65869 13.7 9.3229 13.7 8.90869C13.7 8.49448 13.3642 8.15869 12.95 8.15869ZM10.7 8.90869C10.7 7.66605 11.7074 6.65869 12.95 6.65869C14.1927 6.65869 15.2 7.66605 15.2 8.90869C15.2 10.1513 14.1927 11.1587 12.95 11.1587C11.7074 11.1587 10.7 10.1513 10.7 8.90869Z" fill="#292A2E"/>
<path fill-rule="evenodd" clip-rule="evenodd" d="M2.20001 8.15869L12.2 8.15869V9.65869L2.20001 9.65869L2.20001 8.15869Z" fill="#292A2E"/>
</svg>
