<svg width="17" height="17" viewBox="0 0 17 17" fill="none" xmlns="http://www.w3.org/2000/svg">
<path fill-rule="evenodd" clip-rule="evenodd" d="M5.20001 2.93701C4.92387 2.93701 4.70001 3.16087 4.70001 3.43701V13.2397L7.76749 11.0743C8.0272 10.891 8.37427 10.8913 8.63365 11.0751L11.7 13.248V8.43701H13.2V14.6504C13.2 15.2781 12.4928 15.6453 11.9793 15.2844L11.977 15.2827L8.19918 12.6056L4.42191 15.2721L4.42073 15.2729C3.9072 15.6339 3.20001 15.2666 3.20001 14.6389V3.43701C3.20001 2.33244 4.09544 1.43701 5.20001 1.43701H7.45001V2.93701H5.20001ZM10.7644 4.31181L9.04469 2.59213L10.1054 1.53147L11.825 3.25115L13.5447 1.53148L14.6054 2.59214L12.8857 4.31181L14.6053 6.03148L13.5447 7.09214L11.825 5.37247L10.1054 7.09213L9.0447 6.03147L10.7644 4.31181Z" fill="#292A2E"/>
</svg>
