<svg width="17" height="17" viewBox="0 0 17 17" fill="none" xmlns="http://www.w3.org/2000/svg">
<path d="M12.2 14.3049H14.7V12.3049H12.2V14.3049ZM1.70001 9.80493H4.20001V7.80493H1.70001V9.80493ZM12.2 5.30493H14.7V3.30493H12.2V5.30493ZM16.2 5.42993C16.2 6.18932 15.5844 6.80493 14.825 6.80493H12.075C11.3156 6.80493 10.7 6.18932 10.7 5.42993V5.05493H9.70001C9.42387 5.05493 9.20001 5.27879 9.20001 5.55493V12.0549C9.20001 12.3311 9.42387 12.5549 9.70001 12.5549H10.7V12.1799C10.7 11.4205 11.3156 10.8049 12.075 10.8049H14.825C15.5844 10.8049 16.2 11.4205 16.2 12.1799V14.4299C16.2 15.1893 15.5844 15.8049 14.825 15.8049H12.075C11.3156 15.8049 10.7 15.1893 10.7 14.4299V14.0549H9.70001C8.59544 14.0549 7.70001 13.1595 7.70001 12.0549V9.55493H5.70001V9.92993C5.70001 10.6893 5.0844 11.3049 4.32501 11.3049H1.57501C0.815621 11.3049 0.200012 10.6893 0.200012 9.92993V7.67993C0.200012 6.92054 0.815621 6.30493 1.57501 6.30493H4.32501C5.0844 6.30493 5.70001 6.92054 5.70001 7.67993V8.05493H7.70001V5.55493C7.70001 4.45036 8.59544 3.55493 9.70001 3.55493H10.7V3.17993C10.7 2.42054 11.3156 1.80493 12.075 1.80493H14.825L14.9656 1.81177C15.659 1.88219 16.2 2.46801 16.2 3.17993V5.42993Z" fill="#292A2E"/>
</svg>
