<svg width="17" height="17" viewBox="0 0 17 17" fill="none" xmlns="http://www.w3.org/2000/svg">
<path fill-rule="evenodd" clip-rule="evenodd" d="M8.95001 16.0415V0.041504L7.45001 0.0415039L7.45001 16.0415H8.95001ZM2.20001 12.5415C1.92387 12.5415 1.70001 12.3176 1.70001 12.0415L1.70001 4.0415C1.70001 3.76536 1.92387 3.5415 2.20001 3.5415L5.45001 3.5415V2.0415L2.20001 2.0415C1.09544 2.0415 0.200013 2.93693 0.200013 4.0415L0.200012 12.0415C0.200012 13.1461 1.09544 14.0415 2.20001 14.0415L5.45001 14.0415V12.5415L2.20001 12.5415ZM14.2 12.5415L10.95 12.5415V14.0415L14.2 14.0415C15.3046 14.0415 16.2 13.1461 16.2 12.0415L16.2 4.0415C16.2 2.93694 15.3046 2.0415 14.2 2.0415L10.95 2.04151V3.54151L14.2 3.5415C14.4762 3.5415 14.7 3.76536 14.7 4.0415L14.7 12.0415C14.7 12.3176 14.4762 12.5415 14.2 12.5415Z" fill="#292A2E"/>
</svg>
