<svg width="17" height="17" viewBox="0 0 17 17" fill="none" xmlns="http://www.w3.org/2000/svg">
<path d="M14.0086 9.89715C13.6214 11.4029 12.653 12.7574 11.2 13.5964C9.74703 14.4352 8.08933 14.5976 6.5916 14.1804C7.81944 13.6962 9.13567 13.0573 10.45 12.2985C11.7643 11.5397 12.9753 10.7184 14.0086 9.89715Z" fill="#292A2E"/>
<path fill-rule="evenodd" clip-rule="evenodd" d="M5.2 3.20477C7.31331 1.98465 9.85806 2.19752 11.7146 3.53778C12.5738 3.27379 13.3645 3.11341 14.0232 3.09051C14.4003 3.07745 14.7741 3.10769 15.1062 3.21649C15.4444 3.32739 15.7835 3.53655 15.9939 3.90106C16.3477 4.51403 16.1459 5.19782 15.8875 5.70087C15.6109 6.23928 15.1508 6.81421 14.5809 7.38934C14.451 7.52036 14.3118 7.65187 14.1678 7.78583C13.7241 8.19841 13.2139 8.62233 12.6512 9.04852C11.7809 9.70756 10.7844 10.3726 9.7 10.9987C8.61544 11.6249 7.5409 12.1556 6.53496 12.5798C5.88461 12.854 5.2634 13.0845 4.68437 13.2624L4.68242 13.2614C4.49474 13.3191 4.31167 13.3737 4.13359 13.4206C3.35064 13.6266 2.62288 13.7383 2.01836 13.7087C1.51269 13.6838 0.90404 13.5469 0.528121 13.0788C0.510388 13.0567 0.493025 13.034 0.476363 13.0104L0.406051 12.9011L0.335738 12.7624C0.193717 12.4374 0.193732 12.0944 0.257613 11.7897C0.329426 11.4478 0.489457 11.1087 0.689254 10.7888C1.03835 10.2299 1.57238 9.62522 2.23027 9.01337C1.99777 6.73534 3.08666 4.42495 5.2 3.20477ZM2.65898 10.7038C2.35716 11.0282 2.12259 11.3236 1.96074 11.5827C1.81409 11.8175 1.7482 11.9895 1.72539 12.0983C1.72149 12.1169 1.72182 12.1323 1.7205 12.1442C1.76858 12.166 1.87637 12.2 2.0916 12.2106C2.41958 12.2267 2.87101 12.1749 3.43437 12.0456C3.27955 11.8426 3.13474 11.628 3.00371 11.4011C2.87233 11.1735 2.75762 10.9404 2.65898 10.7038ZM11.0877 4.94794C9.67887 3.77006 7.63067 3.53327 5.95 4.5036C4.37418 5.4134 3.55536 7.13344 3.71953 8.83563L3.76543 9.17548C3.85357 9.68011 4.03028 10.1795 4.30254 10.6511C4.50096 10.9947 4.73788 11.3028 5.00468 11.572C6.18614 11.1427 7.54675 10.5101 8.95 9.69989C10.3529 8.88992 11.5804 8.02778 12.5428 7.21942C12.4431 6.85381 12.2958 6.49469 12.0975 6.15106C11.8591 5.7383 11.5661 5.37762 11.2332 5.07391L11.0877 4.94794ZM14.075 4.58856C13.7695 4.59919 13.3958 4.65432 12.9637 4.7536C13.1194 4.95743 13.2648 5.17336 13.3963 5.40106C13.5273 5.62801 13.6397 5.86082 13.7381 6.09637C14.1323 5.67269 14.4034 5.30761 14.5535 5.01532C14.6518 4.82384 14.6752 4.71342 14.6805 4.66083C14.6697 4.65603 14.6569 4.64801 14.6394 4.64227C14.5338 4.60764 14.3516 4.57897 14.075 4.58856Z" fill="#292A2E"/>
</svg>
