<svg width="17" height="17" viewBox="0 0 17 17" fill="none" xmlns="http://www.w3.org/2000/svg">
<path d="M14.4246 0.844727L12.4197 8.40234H14.0037C15.3488 8.40234 16.3105 9.70342 15.9158 10.9893L14.6883 14.9893C14.4305 15.8291 13.6547 16.4023 12.7762 16.4023H4.95001C4.5905 16.4023 4.28169 16.147 4.21368 15.7939C4.14581 15.441 4.33799 15.0896 4.67169 14.9561L4.66974 14.957H4.66779L4.66193 14.96C4.66067 14.9605 4.65937 14.9608 4.659 14.9609C4.66012 14.9604 4.66519 14.9583 4.67365 14.9541C4.69206 14.9449 4.72679 14.9267 4.77325 14.8975C4.86632 14.8389 5.00702 14.7366 5.16486 14.5762C5.47557 14.2604 5.87422 13.6965 6.09161 12.7363L6.11798 12.6445L7.19025 9.71484C7.4788 8.92653 8.22969 8.40234 9.06915 8.40234H10.868L12.9754 0.459961L14.4246 0.844727ZM9.06915 9.90234C8.8593 9.90234 8.67157 10.0334 8.59943 10.2305L7.54181 13.1191C7.36823 13.8598 7.10171 14.4445 6.80841 14.9023H12.7762C12.9958 14.9023 13.1893 14.7588 13.2537 14.5488L14.4822 10.5488C14.5807 10.2275 14.3399 9.90234 14.0037 9.90234H9.06915Z" fill="#292A2E"/>
<path d="M4.81653 1.41199C5.0452 1.44765 5.24552 1.58739 5.35754 1.78992L5.4054 1.89636L5.94055 3.36414L5.98938 3.46179C6.04792 3.5534 6.13538 3.62405 6.23938 3.66199L7.70715 4.19812L7.81262 4.24597C8.04874 4.37641 8.2002 4.62627 8.20032 4.90222C8.20032 5.17824 8.04901 5.42893 7.81262 5.55945L7.70715 5.6073L6.23938 6.14246C6.10076 6.19302 5.99111 6.30267 5.94055 6.44128L5.4054 7.90906C5.29731 8.20491 5.01554 8.40222 4.70032 8.40222C4.42448 8.4021 4.17455 8.25074 4.04407 8.01453L3.99622 7.90906L3.46008 6.44128C3.42215 6.33729 3.35149 6.24983 3.25989 6.19128L3.16223 6.14246L1.69446 5.6073C1.43562 5.51285 1.25199 5.28587 1.21008 5.01941L1.20129 4.90222L1.21008 4.78601C1.25188 4.51956 1.43546 4.29267 1.69446 4.19812L3.16223 3.66199L3.25989 3.61414C3.35148 3.55564 3.42211 3.46806 3.46008 3.36414L3.99622 1.89636L4.04407 1.78992C4.17452 1.5542 4.42475 1.40348 4.70032 1.4032L4.81653 1.41199Z" fill="#292A2E"/>
</svg>
