<svg width="17" height="17" viewBox="0 0 17 17" fill="none" xmlns="http://www.w3.org/2000/svg">
<path fill-rule="evenodd" clip-rule="evenodd" d="M2.20001 1.41553L6.45001 1.41553C6.86423 1.41553 7.20001 1.75131 7.20001 2.16553L7.20001 6.41553H5.70001L5.70001 3.8567C5.37382 4.08939 4.98939 4.39551 4.60632 4.77296C3.61984 5.74498 2.70001 7.1293 2.70001 8.91553C2.70001 10.7284 3.5173 12.0959 4.57098 13.0248C5.64956 13.9757 6.91688 14.4155 7.70001 14.4155L7.70001 15.9155C6.48315 15.9155 4.87547 15.2929 3.57904 14.15C2.25773 12.9852 1.20001 11.2277 1.20001 8.91553C1.20001 6.57675 2.4101 4.83115 3.55353 3.70449C3.86153 3.401 4.1689 3.13801 4.45387 2.91553L2.20001 2.91553V1.41553ZM12.821 3.68106C14.1423 4.8459 15.2 6.60338 15.2 8.91553C15.2 11.2535 13.9957 12.9942 12.8563 14.1167C12.5524 14.4162 12.2491 14.6758 11.9675 14.8958H14.2V16.3958H9.95001C9.5358 16.3958 9.20001 16.06 9.20001 15.6458V11.3958H10.7V13.9699C11.0278 13.7376 11.4164 13.4297 11.8035 13.0482C12.7843 12.082 13.7 10.7026 13.7 8.91553C13.7 7.10268 12.8827 5.73515 11.829 4.80625C10.7505 3.8554 9.48315 3.41553 8.70001 3.41553V1.91553C9.91688 1.91553 11.5246 2.53815 12.821 3.68106Z" fill="#292A2E"/>
</svg>
