<svg width="17" height="17" viewBox="0 0 17 17" fill="none" xmlns="http://www.w3.org/2000/svg">
<path d="M12.7 13.085C12.7 12.6707 12.3642 12.335 11.95 12.335C11.5358 12.335 11.2 12.6707 11.2 13.085C11.2 13.4992 11.5358 13.835 11.95 13.835C12.3642 13.835 12.7 13.4992 12.7 13.085ZM5.20001 4.58496C5.20001 4.17075 4.86423 3.83496 4.45001 3.83496C4.0358 3.83496 3.70001 4.17075 3.70001 4.58496C3.70001 4.99917 4.0358 5.33496 4.45001 5.33496C4.86423 5.33496 5.20001 4.99917 5.20001 4.58496ZM14.2 13.085C14.2 14.3276 13.1927 15.335 11.95 15.335C10.7074 15.335 9.70001 14.3276 9.70001 13.085C9.70001 12.1056 10.3266 11.2749 11.2 10.9658V5.58496C11.2 4.8946 10.6404 4.33496 9.95001 4.33496H8.20001V2.83496H9.95001C11.4688 2.83496 12.7 4.06618 12.7 5.58496V10.9658C13.5734 11.2749 14.2 12.1056 14.2 13.085ZM6.70001 4.58496C6.70001 5.56418 6.07328 6.39391 5.20001 6.70312V12.085C5.20001 12.7753 5.75966 13.335 6.45001 13.335H8.20001V14.835H6.45001C5.0262 14.835 3.85555 13.7529 3.71466 12.3662L3.70001 12.085V6.70312C2.82674 6.39391 2.20001 5.56418 2.20001 4.58496C2.20001 3.34232 3.20737 2.33496 4.45001 2.33496C5.69265 2.33496 6.70001 3.34232 6.70001 4.58496Z" fill="#292A2E"/>
</svg>
