<svg width="17" height="17" viewBox="0 0 17 17" fill="none" xmlns="http://www.w3.org/2000/svg">
<path fill-rule="evenodd" clip-rule="evenodd" d="M7.89008 0.883444C8.15807 0.761841 8.4724 0.808199 8.69387 1.00199L12.6939 4.50199C12.8566 4.6444 12.95 4.85015 12.95 5.06642C12.95 5.28269 12.8566 5.48843 12.6939 5.63085L9.33894 8.56642L12.6939 11.502C12.8566 11.6444 12.95 11.8501 12.95 12.0664C12.95 12.2827 12.8566 12.4884 12.6939 12.6309L8.69387 16.1309C8.4724 16.3246 8.15807 16.371 7.89008 16.2494C7.6221 16.1278 7.44999 15.8607 7.44999 15.5664V10.2192L4.69387 12.6309L3.70612 11.502L7.06105 8.56642L3.70612 5.63085L4.69387 4.50199L7.44999 6.91359V1.56642C7.44999 1.27214 7.6221 1.00505 7.89008 0.883444ZM8.94999 10.2192L11.0611 12.0664L8.94999 13.9136V10.2192ZM8.94999 6.91359V3.21924L11.061 5.06642L8.94999 6.91359Z" fill="#292A2E"/>
</svg>
