<svg width="17" height="17" viewBox="0 0 17 17" fill="none" xmlns="http://www.w3.org/2000/svg">
<path d="M6.32502 1.45264C5.85632 1.45264 5.45051 1.77817 5.34883 2.23571L4.74507 4.95264H5.01735L6.32502 1.45264Z" fill="#292A2E"/>
<path d="M6.32502 1.45264H9.27013C11.1931 1.45264 12.6586 3.0995 12.5112 4.95264H10.4949C10.6531 4.17983 10.0626 3.45264 9.27013 3.45264H7.12719L6.79386 4.95264H5.01735L6.32502 1.45264Z" fill="#292A2E"/>
<path d="M12.5267 9.45264H10.526C10.5258 9.54933 10.5162 9.64772 10.4964 9.74681C10.3562 10.4479 9.74053 10.9526 9.02551 10.9526H5.54482L5.84482 9.45264H3.80522L3.34444 11.7565C3.28569 12.0503 3.36174 12.3549 3.55168 12.5866C3.74162 12.8183 4.02543 12.9526 4.32502 12.9526H9.02551C10.6939 12.9526 12.1303 11.775 12.4575 10.139C12.5038 9.90783 12.5262 9.67826 12.5267 9.45264Z" fill="#292A2E"/>
<path d="M16.2 16.4526H0.200012V14.9526H16.2V16.4526Z" fill="#292A2E"/>
<path d="M15.2 6.45264H1.20001V7.95264H15.2V6.45264Z" fill="#292A2E"/>
</svg>
