<svg width="17" height="17" viewBox="0 0 17 17" fill="none" xmlns="http://www.w3.org/2000/svg">
<path fill-rule="evenodd" clip-rule="evenodd" d="M6.70001 8.41748C6.70001 7.65809 7.31562 7.04248 8.07501 7.04248H14.825C15.5844 7.04248 16.2 7.65809 16.2 8.41748V15.1675C16.2 15.9269 15.5844 16.5425 14.825 16.5425H8.07501C7.31562 16.5425 6.70001 15.9269 6.70001 15.1675V8.41748ZM8.20001 8.54248V15.0425H14.7V8.54248H8.20001Z" fill="#292A2E"/>
<path d="M6.15503 0.777511C5.72079 0.518174 5.17923 0.518173 4.74499 0.777511L0.869993 3.09175C0.454468 3.33991 0.200012 3.78826 0.200012 4.27224V8.56282C0.200012 9.04681 0.454467 9.49515 0.869993 9.74331L4.74499 12.0576C4.88762 12.1427 5.04183 12.1999 5.20001 12.2292V10.5822L1.70001 8.49187V4.34319L5.45001 2.1036L9.20001 4.34319V5.54248H10.7V4.27224C10.7 3.78826 10.4456 3.33991 10.03 3.09175L6.15503 0.777511Z" fill="#292A2E"/>
</svg>
