<svg width="17" height="17" viewBox="0 0 17 17" fill="none" xmlns="http://www.w3.org/2000/svg">
<path fill-rule="evenodd" clip-rule="evenodd" d="M3.41968 1.94867L0.419678 4.94867L1.48034 6.00933L3.20001 4.28966L3.20001 12.604C3.20001 14.0538 4.37526 15.229 5.82501 15.229H7.70001V13.729H5.82501C5.20369 13.729 4.70001 13.2253 4.70001 12.604L4.70001 4.28966L6.41968 6.00933L7.48034 4.94867L4.48034 1.94867C4.18744 1.65578 3.71257 1.65578 3.41968 1.94867ZM8.70001 3.729L10.575 3.729C11.1963 3.729 11.7 4.23268 11.7 4.854V13.1683L9.98034 11.4487L8.91968 12.5093L11.9197 15.5093C12.2126 15.8022 12.6874 15.8022 12.9803 15.5093L15.9803 12.5093L14.9197 11.4487L13.2 13.1683V4.854C13.2 3.40426 12.0248 2.229 10.575 2.229L8.70001 2.229V3.729Z" fill="#292A2E"/>
</svg>
