<svg width="17" height="17" viewBox="0 0 17 17" fill="none" xmlns="http://www.w3.org/2000/svg">
<path fill-rule="evenodd" clip-rule="evenodd" d="M3.45001 4.24463C3.0358 4.24463 2.70001 4.58042 2.70001 4.99463C2.70001 5.40884 3.0358 5.74463 3.45001 5.74463C3.86423 5.74463 4.20001 5.40884 4.20001 4.99463C4.20001 4.58042 3.86423 4.24463 3.45001 4.24463ZM1.20001 4.99463C1.20001 3.75199 2.20737 2.74463 3.45001 2.74463C4.69265 2.74463 5.70001 3.75199 5.70001 4.99463C5.70001 6.23727 4.69265 7.24463 3.45001 7.24463C2.20737 7.24463 1.20001 6.23727 1.20001 4.99463Z" fill="#292A2E"/>
<path fill-rule="evenodd" clip-rule="evenodd" d="M3.45001 11.7446C3.0358 11.7446 2.70001 12.0804 2.70001 12.4946C2.70001 12.9088 3.0358 13.2446 3.45001 13.2446C3.86423 13.2446 4.20001 12.9088 4.20001 12.4946C4.20001 12.0804 3.86423 11.7446 3.45001 11.7446ZM1.20001 12.4946C1.20001 11.252 2.20737 10.2446 3.45001 10.2446C4.69265 10.2446 5.70001 11.252 5.70001 12.4946C5.70001 13.7373 4.69265 14.7446 3.45001 14.7446C2.20737 14.7446 1.20001 13.7373 1.20001 12.4946Z" fill="#292A2E"/>
<path fill-rule="evenodd" clip-rule="evenodd" d="M4.20001 4.24463L15.2 4.24463V5.74463L4.20001 5.74463L4.20001 4.24463Z" fill="#292A2E"/>
<path fill-rule="evenodd" clip-rule="evenodd" d="M10.95 4.99463V11.2446C10.95 12.3492 10.0546 13.2446 8.95001 13.2446H4.20001V11.7446H8.95001C9.22615 11.7446 9.45001 11.5208 9.45001 11.2446V4.99463H10.95Z" fill="#292A2E"/>
</svg>
