<svg width="17" height="17" viewBox="0 0 17 17" fill="none" xmlns="http://www.w3.org/2000/svg">
<path fill-rule="evenodd" clip-rule="evenodd" d="M0.200012 4.01904C0.200012 2.91447 1.09544 2.01904 2.20001 2.01904H14.2C15.3046 2.01904 16.2 2.91447 16.2 4.01904V8.96721L14.3805 7.26904H14.7V4.01904C14.7 3.7429 14.4762 3.51904 14.2 3.51904H6.70001V7.26904H10.5195L8.91234 8.76904H6.70001V12.519H7.20001V14.019H2.20001C1.09544 14.019 0.200012 13.1236 0.200012 12.019V4.01904ZM2.20001 3.51904C1.92387 3.51904 1.70001 3.7429 1.70001 4.01904V7.26904H5.20001V3.51904H2.20001ZM5.20001 12.519V8.76904H1.70001V12.019C1.70001 12.2952 1.92387 12.519 2.20001 12.519H5.20001Z" fill="#292A2E"/>
<path d="M16.2 15.394V11.5622C16.2 11.2158 16.0562 10.8848 15.8029 10.6484L13.3029 8.31508C12.8227 7.86684 12.0774 7.86684 11.5971 8.31508L9.09711 10.6484C8.84382 10.8848 8.70001 11.2158 8.70001 11.5622V15.394C8.70001 15.7392 8.97983 16.019 9.32501 16.019H11.45V13.019H13.45V16.019H15.575C15.9202 16.019 16.2 15.7392 16.2 15.394Z" fill="#292A2E"/>
</svg>
