<svg width="17" height="17" viewBox="0 0 17 17" fill="none" xmlns="http://www.w3.org/2000/svg">
<path fill-rule="evenodd" clip-rule="evenodd" d="M4.45001 4.56006C4.45001 2.48899 6.12894 0.810059 8.20001 0.810059C10.2711 0.810058 11.95 2.48899 11.95 4.56006H10.45C10.45 3.31742 9.44265 2.31006 8.20001 2.31006C6.95737 2.31006 5.95001 3.31742 5.95001 4.56006C5.95001 5.40947 6.4204 6.15008 7.11846 6.5337C7.48124 6.73307 7.6139 7.18865 7.41485 7.55161L4.60762 12.6707L3.2924 11.9494L5.77572 7.42103C4.96554 6.7338 4.45001 5.70748 4.45001 4.56006ZM8.85762 4.19943L11.3405 8.72711C11.6916 8.61849 12.0644 8.56006 12.45 8.56006C14.5211 8.56006 16.2 10.239 16.2 12.3101C16.2 14.3811 14.5211 16.0601 12.45 16.0601C11.7408 16.0601 11.0754 15.8625 10.5086 15.5189L11.286 14.2361C11.6251 14.4416 12.0226 14.5601 12.45 14.5601C13.6927 14.5601 14.7 13.5527 14.7 12.3101C14.7 11.0674 13.6927 10.0601 12.45 10.0601C12.0565 10.0601 11.6887 10.1604 11.3685 10.3364C11.194 10.4323 10.9887 10.4549 10.7976 10.3992C10.6065 10.3436 10.4453 10.2143 10.3496 10.0398L7.5424 4.92068L8.85762 4.19943ZM0.200012 12.3101C0.200012 10.9329 0.942822 9.72999 2.04606 9.0788L2.80852 10.3706C2.14344 10.7631 1.70001 11.4852 1.70001 12.3101C1.70001 13.5527 2.70737 14.5601 3.95001 14.5601C5.19265 14.5601 6.20001 13.5527 6.20001 12.3101C6.20001 12.1111 6.27903 11.9204 6.41968 11.7797C6.56033 11.6391 6.7511 11.5601 6.95001 11.5601H12.45V13.0601H7.625C7.27755 14.7717 5.76423 16.0601 3.95001 16.0601C1.87894 16.0601 0.200012 14.3811 0.200012 12.3101Z" fill="#292A2E"/>
</svg>
