<svg width="17" height="17" viewBox="0 0 17 17" fill="none" xmlns="http://www.w3.org/2000/svg">
<path fill-rule="evenodd" clip-rule="evenodd" d="M2.20001 4.04639C2.20001 2.80375 3.20737 1.79639 4.45001 1.79639C5.69265 1.79639 6.70001 2.80375 6.70001 4.04639C6.70001 5.02605 6.07391 5.85948 5.20001 6.16836L5.20001 11.4244C6.07391 11.7333 6.70001 12.5667 6.70001 13.5464C6.70001 14.789 5.69265 15.7964 4.45001 15.7964C3.20737 15.7964 2.20001 14.789 2.20001 13.5464C2.20001 12.5667 2.82612 11.7333 3.70001 11.4244L3.70001 6.16836C2.82612 5.85948 2.20001 5.02605 2.20001 4.04639ZM4.45001 3.29639C4.0358 3.29639 3.70001 3.63217 3.70001 4.04639C3.70001 4.4606 4.0358 4.79639 4.45001 4.79639C4.86423 4.79639 5.20001 4.4606 5.20001 4.04639C5.20001 3.63217 4.86423 3.29639 4.45001 3.29639ZM10.7 8.79639H6.70001V7.29639H10.7C11.8046 7.29639 12.7 8.19182 12.7 9.29639V11.4244C13.5739 11.7333 14.2 12.5667 14.2 13.5464C14.2 14.789 13.1927 15.7964 11.95 15.7964C10.7074 15.7964 9.70001 14.789 9.70001 13.5464C9.70001 12.5667 10.3261 11.7333 11.2 11.4244V9.29639C11.2 9.02024 10.9762 8.79639 10.7 8.79639ZM4.45001 12.7964C4.0358 12.7964 3.70001 13.1322 3.70001 13.5464C3.70001 13.9606 4.0358 14.2964 4.45001 14.2964C4.86423 14.2964 5.20001 13.9606 5.20001 13.5464C5.20001 13.1322 4.86423 12.7964 4.45001 12.7964ZM11.95 12.7964C11.5358 12.7964 11.2 13.1322 11.2 13.5464C11.2 13.9606 11.5358 14.2964 11.95 14.2964C12.3642 14.2964 12.7 13.9606 12.7 13.5464C12.7 13.1322 12.3642 12.7964 11.95 12.7964Z" fill="#292A2E"/>
</svg>
