<svg width="17" height="17" viewBox="0 0 17 17" fill="none" xmlns="http://www.w3.org/2000/svg">
<path d="M6.93682 2.83757C7.72225 2.19695 8.88133 2.24335 9.61358 2.97527L11.9495 5.3112L8.2005 9.0612L6.23077 7.09148L5.17022 8.15202L7.67022 10.652L7.72686 10.7038C8.02144 10.9437 8.45632 10.9265 8.73077 10.652L13.0101 6.37175L13.596 6.95769L13.7337 7.10906C14.3742 7.89457 14.3281 9.05362 13.596 9.78581L9.61358 13.7682C8.83257 14.5487 7.56637 14.5489 6.78546 13.7682L2.80303 9.78581C2.02248 9.0049 2.02257 7.73866 2.80303 6.95769L6.78546 2.97527L6.93682 2.83757ZM15.1058 4.27702L13.0101 6.37175L11.9495 5.3112L14.0452 3.21648L15.1058 4.27702Z" fill="#292A2E"/>
</svg>
