<svg width="17" height="17" viewBox="0 0 17 17" fill="none" xmlns="http://www.w3.org/2000/svg">
<path fill-rule="evenodd" clip-rule="evenodd" d="M3.70001 2.73682C3.14773 2.73682 2.70001 3.18453 2.70001 3.73682C2.70001 4.2891 3.14773 4.73682 3.70001 4.73682C4.2523 4.73682 4.70001 4.2891 4.70001 3.73682C4.70001 3.18453 4.2523 2.73682 3.70001 2.73682ZM1.20001 3.73682C1.20001 2.3561 2.3193 1.23682 3.70001 1.23682C4.81942 1.23682 5.767 1.97254 6.08556 2.98682H10.95C12.6069 2.98682 13.95 4.32996 13.95 5.98682C13.95 7.64367 12.6069 8.98682 10.95 8.98682H5.45001C4.62159 8.98682 3.95001 9.65839 3.95001 10.4868C3.95001 11.3152 4.62159 11.9868 5.45001 11.9868H10.3145C10.633 10.9725 11.5806 10.2368 12.7 10.2368C14.0807 10.2368 15.2 11.3561 15.2 12.7368C15.2 14.1175 14.0807 15.2368 12.7 15.2368C11.5806 15.2368 10.633 14.5011 10.3145 13.4868H5.45001C3.79316 13.4868 2.45001 12.1437 2.45001 10.4868C2.45001 8.82996 3.79316 7.48682 5.45001 7.48682H10.95C11.7784 7.48682 12.45 6.81524 12.45 5.98682C12.45 5.15839 11.7784 4.48682 10.95 4.48682H6.08556C5.767 5.50109 4.81942 6.23682 3.70001 6.23682C2.3193 6.23682 1.20001 5.11753 1.20001 3.73682ZM12.7 11.7368C12.1477 11.7368 11.7 12.1845 11.7 12.7368C11.7 13.2891 12.1477 13.7368 12.7 13.7368C13.2523 13.7368 13.7 13.2891 13.7 12.7368C13.7 12.1845 13.2523 11.7368 12.7 11.7368Z" fill="#292A2E"/>
</svg>
