<svg width="17" height="17" viewBox="0 0 17 17" fill="none" xmlns="http://www.w3.org/2000/svg">
<path fill-rule="evenodd" clip-rule="evenodd" d="M16.2 16.6616L0.200012 16.6616L0.200012 15.1616L16.2 15.1616V16.6616Z" fill="#292A2E"/>
<path fill-rule="evenodd" clip-rule="evenodd" d="M4.34443 6.96551C4.43792 6.49808 4.84833 6.16162 5.32501 6.16162H9.0255C11.2342 6.16162 12.8907 8.18226 12.4575 10.348C12.1303 11.984 10.6939 13.1616 9.0255 13.1616H4.32501C4.02542 13.1616 3.74161 13.0273 3.55167 12.7956C3.36173 12.5639 3.28568 12.2593 3.34443 11.9655L4.34443 6.96551ZM6.14482 8.16162L5.54482 11.1616H9.0255C9.74052 11.1616 10.3561 10.6569 10.4964 9.9558C10.682 9.02761 9.97207 8.16162 9.0255 8.16162H6.14482Z" fill="#292A2E"/>
<path fill-rule="evenodd" clip-rule="evenodd" d="M5.34882 2.44469C5.4505 1.98715 5.85631 1.66162 6.32501 1.66162H9.27013C11.3493 1.66162 12.8938 3.58698 12.4427 5.61665C12.1123 7.10364 10.7934 8.16162 9.27013 8.16162H5.32501C5.02169 8.16162 4.73477 8.02395 4.54497 7.78735C4.35517 7.55075 4.28303 7.24079 4.34882 6.94469L5.34882 2.44469ZM7.12718 3.66162L6.57163 6.16162H9.27013C9.856 6.16162 10.3633 5.75471 10.4904 5.18278C10.6638 4.40214 10.0698 3.66162 9.27013 3.66162H7.12718Z" fill="#292A2E"/>
</svg>
