<svg width="17" height="17" viewBox="0 0 17 17" fill="none" xmlns="http://www.w3.org/2000/svg">
<path fill-rule="evenodd" clip-rule="evenodd" d="M0.200012 4.8999C0.200012 3.79533 1.09544 2.8999 2.20001 2.8999H14.2C15.3046 2.8999 16.2 3.79533 16.2 4.8999V12.8999C16.2 14.0045 15.3046 14.8999 14.2 14.8999H2.20001C1.09544 14.8999 0.200012 14.0045 0.200012 12.8999V4.8999ZM2.20001 4.3999C1.92387 4.3999 1.70001 4.62376 1.70001 4.8999V12.8999C1.70001 13.176 1.92387 13.3999 2.20001 13.3999H14.2C14.4762 13.3999 14.7 13.176 14.7 12.8999V4.8999C14.7 4.62376 14.4762 4.3999 14.2 4.3999H2.20001Z" fill="#292A2E"/>
<path fill-rule="evenodd" clip-rule="evenodd" d="M8.95001 5.8999H11.45C12.4165 5.8999 13.2 6.6834 13.2 7.6499V10.1499C13.2 11.1164 12.4165 11.8999 11.45 11.8999H8.95001V5.8999ZM10.45 7.3999V10.3999H11.45C11.5881 10.3999 11.7 10.288 11.7 10.1499V7.6499C11.7 7.51183 11.5881 7.3999 11.45 7.3999H10.45Z" fill="#292A2E"/>
<path fill-rule="evenodd" clip-rule="evenodd" d="M4.95001 8.1499V5.8999H3.45001V11.8999H4.95001V9.6499H6.20001V11.8999H7.70001V5.8999H6.20001V8.1499H4.95001Z" fill="#292A2E"/>
</svg>
