<svg width="17" height="17" viewBox="0 0 17 17" fill="none" xmlns="http://www.w3.org/2000/svg">
<path d="M14.7 8.87231C14.7 7.56659 14.3087 6.39757 13.7674 5.57153C13.2005 4.70657 12.5857 4.37231 12.2 4.37231H4.89632C4.72317 4.37233 4.56265 4.4624 4.47151 4.60962L1.83186 8.87231L4.47151 13.135C4.56265 13.2822 4.72317 13.3723 4.89632 13.3723H12.2C12.5857 13.3723 13.2005 13.0381 13.7674 12.1731C14.3087 11.3471 14.7 10.178 14.7 8.87231ZM16.2 8.87231C16.2 10.4657 15.7261 11.9213 15.0223 12.9954C14.3439 14.0305 13.3332 14.8723 12.2 14.8723H4.89632C4.20375 14.8723 3.5607 14.5139 3.19612 13.925L0.516432 9.59595C0.241918 9.1525 0.241919 8.59213 0.516432 8.14868L3.19612 3.81958L3.26741 3.71216C3.64101 3.18745 4.24692 2.87232 4.89632 2.87231H12.2C13.3332 2.87231 14.3439 3.71411 15.0223 4.74927C15.7261 5.8233 16.2 7.27896 16.2 8.87231Z" fill="#292A2E"/>
</svg>
