<svg width="17" height="17" viewBox="0 0 17 17" fill="none" xmlns="http://www.w3.org/2000/svg">
<path fill-rule="evenodd" clip-rule="evenodd" d="M3.45001 2.87988C3.0358 2.87988 2.70001 3.21567 2.70001 3.62988C2.70001 4.0441 3.0358 4.37988 3.45001 4.37988C3.86423 4.37988 4.20001 4.0441 4.20001 3.62988C4.20001 3.21567 3.86423 2.87988 3.45001 2.87988ZM1.20001 3.62988C1.20001 2.38724 2.20737 1.37988 3.45001 1.37988C4.42968 1.37988 5.26311 2.00599 5.57198 2.87988H6.70001C7.80458 2.87988 8.70001 3.77531 8.70001 4.87988V7.62988H10.828C11.1369 6.75599 11.9703 6.12988 12.95 6.12988C14.1927 6.12988 15.2 7.13724 15.2 8.37988C15.2 9.62252 14.1927 10.6299 12.95 10.6299C11.9703 10.6299 11.1369 10.0038 10.828 9.12988H8.70001V11.8799C8.70001 12.9845 7.80458 13.8799 6.70001 13.8799H5.57198C5.26311 14.7538 4.42968 15.3799 3.45001 15.3799C2.20737 15.3799 1.20001 14.3725 1.20001 13.1299C1.20001 11.8872 2.20737 10.8799 3.45001 10.8799C4.42968 10.8799 5.26311 11.506 5.57198 12.3799H6.70001C6.97615 12.3799 7.20001 12.156 7.20001 11.8799V4.87988C7.20001 4.60374 6.97615 4.37988 6.70001 4.37988H5.57198C5.26311 5.25378 4.42968 5.87988 3.45001 5.87988C2.20737 5.87988 1.20001 4.87252 1.20001 3.62988ZM12.95 7.62988C12.5358 7.62988 12.2 7.96567 12.2 8.37988C12.2 8.7941 12.5358 9.12988 12.95 9.12988C13.3642 9.12988 13.7 8.7941 13.7 8.37988C13.7 7.96567 13.3642 7.62988 12.95 7.62988ZM3.45001 12.3799C3.0358 12.3799 2.70001 12.7157 2.70001 13.1299C2.70001 13.5441 3.0358 13.8799 3.45001 13.8799C3.86423 13.8799 4.20001 13.5441 4.20001 13.1299C4.20001 12.7157 3.86423 12.3799 3.45001 12.3799Z" fill="#292A2E"/>
</svg>
