<svg width="17" height="17" viewBox="0 0 17 17" fill="none" xmlns="http://www.w3.org/2000/svg">
<path d="M4.41458 2.19593C4.50932 1.65819 4.9765 1.26611 5.52252 1.26611H10.145C11.2696 1.26611 12.3197 1.66432 13.0414 2.45407C13.775 3.25681 14.0672 4.35425 13.8603 5.52449C13.8306 5.69251 13.7919 5.85648 13.7448 6.01611H11.278C11.4603 5.7513 11.5882 5.45219 11.6447 5.13274C11.7428 4.57797 11.595 4.20667 11.3805 3.97191C11.1541 3.72415 10.7479 3.51611 10.145 3.51611H6.46665L6.02623 6.01611H3.74158L4.41458 2.19593Z" fill="#292A2E"/>
<path d="M11.6327 10.5161H13.8869C13.8986 10.8032 13.8785 11.0989 13.8253 11.3995C13.4155 13.7177 11.2871 15.2661 9.07502 15.2661H3.45002C3.11751 15.2661 2.80203 15.119 2.58828 14.8643C2.37452 14.6096 2.28439 14.2734 2.34208 13.9459L2.94631 10.5161H5.23096L4.79054 13.0161H9.07502C10.3129 13.0161 11.4096 12.1395 11.6097 11.0077C11.6421 10.8244 11.6476 10.6611 11.6327 10.5161Z" fill="#292A2E"/>
<path d="M16.2 7.51611H0.200012V9.01611H16.2V7.51611Z" fill="#292A2E"/>
</svg>
