<svg width="17" height="17" viewBox="0 0 17 17" fill="none" xmlns="http://www.w3.org/2000/svg">
<path fill-rule="evenodd" clip-rule="evenodd" d="M0.200012 3.21436C0.200012 2.10979 1.09544 1.21436 2.20001 1.21436H12.2C13.3046 1.21436 14.2 2.10979 14.2 3.21436V4.71436H12.7V3.21436C12.7 2.93821 12.4762 2.71436 12.2 2.71436H2.20001C1.92387 2.71436 1.70001 2.93821 1.70001 3.21436V10.2144C1.70001 10.4905 1.92387 10.7144 2.20001 10.7144H8.70001V12.2144H7.95001V13.7144H11.2V15.2144H3.20001V13.7144H6.45001V12.2144H2.20001C1.09544 12.2144 0.200012 11.3189 0.200012 10.2144V3.21436ZM10.2 9.21436C10.2 7.5575 11.5432 6.21436 13.2 6.21436C14.8569 6.21436 16.2 7.5575 16.2 9.21436C16.2 10.8712 14.8569 12.2144 13.2 12.2144C11.5432 12.2144 10.2 10.8712 10.2 9.21436ZM13.2 7.71436C12.3716 7.71436 11.7 8.38593 11.7 9.21436C11.7 10.0428 12.3716 10.7144 13.2 10.7144C14.0284 10.7144 14.7 10.0428 14.7 9.21436C14.7 8.38593 14.0284 7.71436 13.2 7.71436Z" fill="#292A2E"/>
<path d="M11.7 9.21436C11.7 8.38593 12.3716 7.71436 13.2 7.71436C14.0284 7.71436 14.7 8.38593 14.7 9.21436C14.7 10.0428 14.0284 10.7144 13.2 10.7144C12.3716 10.7144 11.7 10.0428 11.7 9.21436Z" fill="#292A2E"/>
</svg>
