<svg width="17" height="17" viewBox="0 0 17 17" fill="none" xmlns="http://www.w3.org/2000/svg">
<path fill-rule="evenodd" clip-rule="evenodd" d="M5.20001 1.59521C3.8193 1.59521 2.70001 2.7145 2.70001 4.09521C2.70001 5.47593 3.8193 6.59521 5.20001 6.59521C6.58072 6.59521 7.70001 5.47593 7.70001 4.09521C7.70001 2.7145 6.58072 1.59521 5.20001 1.59521ZM1.20001 4.09521C1.20001 1.88608 2.99087 0.0952148 5.20001 0.0952148C7.40915 0.0952148 9.20001 1.88608 9.20001 4.09521C9.20001 6.30435 7.40915 8.09521 5.20001 8.09521C2.99087 8.09521 1.20001 6.30435 1.20001 4.09521ZM12.2947 11.0649C14.2109 9.14864 14.2109 6.04179 12.2947 4.12554L13.3553 3.06488C15.8574 5.56692 15.8574 9.62351 13.3553 12.1255L12.2947 11.0649ZM10.2947 9.06489C11.1064 8.25321 11.1064 6.93722 10.2947 6.12555L11.3553 5.06488C12.7528 6.46235 12.7528 8.72808 11.3553 10.1255L10.2947 9.06489ZM3.95001 10.5952C2.70737 10.5952 1.70001 11.6026 1.70001 12.8452V15.0952H0.200012V12.8452C0.200012 10.7741 1.87894 9.09521 3.95001 9.09521H6.45001C8.52108 9.09521 10.2 10.7741 10.2 12.8452V15.0952H8.70001V12.8452C8.70001 11.6026 7.69265 10.5952 6.45001 10.5952H3.95001Z" fill="#292A2E"/>
</svg>
