<svg width="17" height="17" viewBox="0 0 17 17" fill="none" xmlns="http://www.w3.org/2000/svg">
<path fill-rule="evenodd" clip-rule="evenodd" d="M0.200012 2.35278C0.200012 1.93857 0.535799 1.60278 0.950012 1.60278H2.32501C2.73923 1.60278 3.07501 1.93857 3.07501 2.35278V14.8528C3.07501 15.267 2.73923 15.6028 2.32501 15.6028H0.950012C0.535799 15.6028 0.200012 15.267 0.200012 14.8528V2.35278ZM4.57501 2.35278C4.57501 1.93857 4.9108 1.60278 5.32501 1.60278H6.70001C7.11423 1.60278 7.45001 1.93857 7.45001 2.35278V14.8528C7.45001 15.267 7.11423 15.6028 6.70001 15.6028H5.32501C4.9108 15.6028 4.57501 15.267 4.57501 14.8528V2.35278ZM8.95001 2.35278C8.95001 1.93857 9.2858 1.60278 9.70001 1.60278H11.075C11.4892 1.60278 11.825 1.93857 11.825 2.35278V14.8528C11.825 15.267 11.4892 15.6028 11.075 15.6028H9.70001C9.2858 15.6028 8.95001 15.267 8.95001 14.8528V2.35278ZM13.325 2.35278C13.325 1.93857 13.6608 1.60278 14.075 1.60278H15.45C15.8642 1.60278 16.2 1.93857 16.2 2.35278V14.8528C16.2 15.267 15.8642 15.6028 15.45 15.6028H14.075C13.6608 15.6028 13.325 15.267 13.325 14.8528V2.35278Z" fill="#292A2E"/>
</svg>
