<svg width="17" height="17" viewBox="0 0 17 17" fill="none" xmlns="http://www.w3.org/2000/svg">
<path fill-rule="evenodd" clip-rule="evenodd" d="M13.3738 1.79004L14.5262 2.75032L11.1928 6.75032C11.0503 6.92131 10.8393 7.02018 10.6167 7.02018C10.3941 7.02018 10.183 6.92131 10.0405 6.75032L8.37385 4.75032L9.52618 3.79004L10.6167 5.09864L13.3738 1.79004ZM5.20001 3.33268C4.92387 3.33268 4.70001 3.55654 4.70001 3.83268V13.6353L7.76749 11.47C8.0272 11.2866 8.37427 11.2869 8.63365 11.4707L11.7 13.6437V8.83268H13.2V15.046C13.2 15.6737 12.4928 16.041 11.9793 15.68L11.977 15.6784L8.19918 13.0013L4.42191 15.6677L4.42073 15.6685C3.9072 16.0296 3.20001 15.6622 3.20001 15.0345V3.83268C3.20001 2.72811 4.09544 1.83268 5.20001 1.83268H7.45001V3.33268H5.20001Z" fill="#292A2E"/>
</svg>
