<svg width="17" height="17" viewBox="0 0 17 17" fill="none" xmlns="http://www.w3.org/2000/svg">
<path fill-rule="evenodd" clip-rule="evenodd" d="M9.45001 2.35742V2.85742H11.7C12.8046 2.85742 13.7 3.75285 13.7 4.85742V7.10742H14.2C15.3046 7.10742 16.2 8.00285 16.2 9.10742C16.2 10.212 15.3046 11.1074 14.2 11.1074H13.7V13.3574C13.7 14.462 12.8046 15.3574 11.7 15.3574H3.20001C2.09544 15.3574 1.20001 14.462 1.20001 13.3574V11.1074C1.20001 10.6932 1.5358 10.3574 1.95001 10.3574H2.45001C3.14037 10.3574 3.70001 9.79778 3.70001 9.10742C3.70001 8.41707 3.14037 7.85742 2.45001 7.85742H1.95001C1.5358 7.85742 1.20001 7.52164 1.20001 7.10742V4.85742C1.20001 3.75285 2.09544 2.85742 3.20001 2.85742H5.45001V2.35742C5.45001 1.25285 6.34544 0.357422 7.45001 0.357422C8.55458 0.357422 9.45001 1.25285 9.45001 2.35742ZM2.70001 4.85742C2.70001 4.58128 2.92387 4.35742 3.20001 4.35742H11.7C11.9762 4.35742 12.2 4.58128 12.2 4.85742V13.3574C12.2 13.6336 11.9762 13.8574 11.7 13.8574H3.20001C2.92387 13.8574 2.70001 13.6336 2.70001 13.3574V11.8462C4.10164 11.7199 5.20001 10.5419 5.20001 9.10742C5.20001 7.67291 4.10164 6.49494 2.70001 6.36863V4.85742Z" fill="#292A2E"/>
</svg>
