<svg width="17" height="17" viewBox="0 0 17 17" fill="none" xmlns="http://www.w3.org/2000/svg">
<path fill-rule="evenodd" clip-rule="evenodd" d="M2.01067 4.20953L4.48034 1.73986L3.41968 0.679199L0.419682 3.6792C0.126789 3.97209 0.126789 4.44697 0.419682 4.73986L3.41968 7.73986L4.48034 6.6792L2.01067 4.20953Z" fill="#292A2E"/>
<path fill-rule="evenodd" clip-rule="evenodd" d="M6.26067 4.95953L7.98034 6.6792L6.91968 7.73986L3.91968 4.73986C3.62679 4.44697 3.62679 3.97209 3.91968 3.6792L6.91968 0.679199L7.98034 1.73986L6.26067 3.45953H11.95C13.7449 3.45953 15.2 4.9146 15.2 6.70953V10.2095C15.2 12.0045 13.7449 13.4595 11.95 13.4595H11.2V11.9595H11.95C12.9165 11.9595 13.7 11.176 13.7 10.2095V6.70953C13.7 5.74303 12.9165 4.95953 11.95 4.95953H6.26067Z" fill="#292A2E"/>
<path fill-rule="evenodd" clip-rule="evenodd" d="M8.20001 9.95947H4.95001C4.5358 9.95947 4.20001 10.2953 4.20001 10.7095V13.2095C4.20001 13.6237 4.5358 13.9595 4.95001 13.9595H6.70001V14.9595H4.20001V16.4595H6.82501C7.5844 16.4595 8.20001 15.8439 8.20001 15.0845V13.8345C8.20001 13.0751 7.5844 12.4595 6.82501 12.4595H5.70001V11.4595H8.20001V9.95947Z" fill="#292A2E"/>
</svg>
