<svg width="17" height="17" viewBox="0 0 17 17" fill="none" xmlns="http://www.w3.org/2000/svg">
<path fill-rule="evenodd" clip-rule="evenodd" d="M3.20001 2.92334C2.92387 2.92334 2.70001 3.1472 2.70001 3.42334V13.4233C2.70001 13.6995 2.92387 13.9233 3.20001 13.9233H13.2C13.4762 13.9233 13.7 13.6995 13.7 13.4233V4.44111C13.7 4.3085 13.6473 4.18132 13.5536 4.08755L12.5358 3.06979C12.4462 2.98021 12.3262 2.92814 12.2 2.92366V6.67334C12.2 7.08755 11.8642 7.42334 11.45 7.42334H4.95001C4.5358 7.42334 4.20001 7.08755 4.20001 6.67334V2.92334H3.20001ZM5.70001 2.92334V5.92334H10.7V2.92334H5.70001ZM1.20001 3.42334C1.20001 2.31877 2.09544 1.42334 3.20001 1.42334H12.1822C12.7127 1.42334 13.2214 1.63405 13.5965 2.00913L14.6142 3.02689C14.9893 3.40197 15.2 3.91067 15.2 4.44111V13.4233C15.2 14.5279 14.3046 15.4233 13.2 15.4233H3.20001C2.09544 15.4233 1.20001 14.5279 1.20001 13.4233V3.42334Z" fill="#292A2E"/>
</svg>
