<svg width="17" height="17" viewBox="0 0 17 17" fill="none" xmlns="http://www.w3.org/2000/svg">
<path d="M13.7 3.10352C13.7 2.82737 13.4762 2.60352 13.2 2.60352H3.20001C2.92387 2.60352 2.70001 2.82737 2.70001 3.10352V8.76172C2.70001 8.91137 2.767 9.05347 2.88263 9.14844L8.20001 13.5078L13.5174 9.14844L13.5945 9.06934C13.6623 8.98233 13.7 8.87407 13.7 8.76172V3.10352ZM15.2 8.76172C15.2 9.28585 14.9943 9.78593 14.6326 10.1572L14.4686 10.3086L9.07208 14.7334C8.59683 15.1231 7.92534 15.1477 7.4256 14.8066L7.32794 14.7334L1.93146 10.3086C1.46832 9.92871 1.20001 9.36073 1.20001 8.76172V3.10352C1.20001 1.99895 2.09544 1.10352 3.20001 1.10352H13.2C14.3046 1.10352 15.2 1.99895 15.2 3.10352V8.76172Z" fill="#292A2E"/>
</svg>
