<svg width="40" height="40" viewBox="0 0 40 40" fill="none" xmlns="http://www.w3.org/2000/svg">
<g clip-path="url(#clip0_1_7721)">
<g clip-path="url(#clip1_1_7721)">
<path d="M40 0H0V40H40V0Z" fill="#82B536"/>
<path d="M34.8201 23.6403C34.6701 22.7803 34.4401 21.8903 34.1301 20.9803C33.8101 20.0603 33.4501 19.2203 33.0401 18.4603C30.5901 13.9303 26.5501 12.2403 22.0601 13.2903C21.5501 13.4103 21.0401 13.5703 20.5201 13.7603C20.0901 13.6403 19.6501 13.5203 19.1901 13.4503C18.4001 13.3203 17.5801 13.2603 16.7201 13.2703C15.8301 13.2803 14.9701 13.3703 14.1501 13.5403C9.55006 14.4603 6.31006 17.7103 5.53006 22.9003C5.40006 23.7803 5.33006 24.7103 5.35006 25.7003C5.36006 26.6703 5.45006 27.5903 5.60006 28.4503C6.51006 33.6103 9.83006 36.7703 14.4601 37.5503C15.2801 37.6903 16.1401 37.7503 17.0301 37.7403C17.8901 37.7303 18.7101 37.6403 19.4901 37.4903C19.5101 37.4903 19.5201 37.4903 19.5401 37.4803C21.2501 38.0903 23.1401 38.1703 25.1201 37.7103C25.9201 37.5303 26.7301 37.2603 27.5501 36.9103C28.3401 36.5703 29.0701 36.1803 29.7501 35.7403C33.7201 33.1503 35.7101 28.8403 34.8101 23.6603L34.8201 23.6403Z" fill="#AE2A19"/>
<path d="M19.38 14.0903C20.68 14.2803 21.09 13.2303 19.63 12.7603C18.61 12.4503 17.51 12.3303 16.33 12.3203C15.15 12.3203 13.86 12.4803 12.46 12.9203C10.88 13.4603 10.01 14.1003 9.32002 14.6703C8.63002 15.2603 8.08002 15.7903 7.36002 16.6503C6.14002 18.0903 5.03002 20.4303 4.63002 22.6203C4.19002 24.8103 4.26002 26.7503 4.30002 27.5103C4.31002 27.7403 4.34002 27.9603 4.38002 28.1803C4.55002 28.9503 4.89002 31.1903 6.45002 33.5603C7.22002 34.7303 8.32002 35.8903 9.66002 36.7503C10.99 37.6303 12.54 38.1903 14.05 38.5003C14.99 38.6903 15.94 38.7503 16.89 38.7503C17.36 38.7503 17.84 38.7203 18.31 38.6803C18.55 38.6603 18.78 38.6303 19.02 38.5903L19.46 38.5203L19.84 38.6303C20.06 38.6903 20.29 38.7503 20.51 38.7903C20.96 38.8803 21.42 38.9403 21.88 38.9803C23.58 39.0803 25.04 38.7803 26.28 38.3403C27.53 37.9003 28.59 37.3203 29.56 36.6303C30.61 35.8303 30 35.0703 28.95 35.5903C27.96 36.0503 26.93 36.4203 25.79 36.7203C24.65 37.0003 23.41 37.2003 22.01 37.1103C21.76 37.0903 21.45 37.0503 21.09 36.9603C20.91 36.9203 20.71 36.8603 20.51 36.7903C20.22 36.6903 19.92 36.5703 19.58 36.4503C19.45 36.4703 19.31 36.5003 19.17 36.5203C19 36.5503 19 36.5403 18.9 36.5503C18.75 36.5603 18.6 36.5703 18.44 36.5903C18.12 36.6103 17.77 36.6203 17.41 36.6203C16.68 36.6203 15.86 36.5703 15 36.4403C14.49 36.3503 13.97 36.2803 13.47 36.1703C12.38 35.9603 11.24 35.5203 10.29 34.8503C9.33002 34.1903 8.54002 33.3303 8.00002 32.4803C7.45002 31.6303 7.11002 30.8103 6.91002 30.2103C6.71002 29.6103 6.63002 29.2503 6.63002 29.2503C6.63002 29.2503 6.49002 28.7103 6.35002 27.8203C6.22002 26.9303 6.13002 25.6703 6.22002 24.3103C6.31002 22.9503 6.59002 21.4903 7.10002 20.2403C7.60002 18.9903 8.30002 17.9603 8.92002 17.2903C9.85002 16.2703 10.74 15.7303 11.42 15.3603C12.12 15.0103 12.63 14.8103 13.02 14.6903C14.21 14.3103 15.33 14.1203 16.38 14.0403C17.43 13.9603 18.42 13.9503 19.36 14.0803L19.38 14.0903Z" fill="#101214"/>
<path d="M21.5698 16.3101L25.4598 15.5801C25.4598 15.5801 32.2398 17.5401 30.8298 25.6101L26.2298 26.9301C26.2298 26.9301 28.6498 20.5001 21.5798 16.3101H21.5698Z" fill="white"/>
<path d="M20.94 4.66023C19.22 6.51023 18.48 8.89022 18.75 11.0302C20.91 11.1402 23.22 10.2402 24.95 8.39023C26.68 6.54023 27.41 4.16023 27.14 2.02023C24.98 1.91023 22.67 2.81023 20.94 4.66023Z" fill="#164B35"/>
<path d="M15.4399 8.20042C15.1499 8.23042 14.8999 9.32042 15.0299 9.49042C15.2499 9.74042 15.4899 9.92042 15.8399 10.1004C16.2499 10.2504 16.4599 10.1004 16.7099 10.2804C17.1699 10.5504 17.6099 11.3204 17.6599 11.5204C17.6699 11.5504 17.6899 11.5704 17.7099 11.5904C17.8799 11.6804 18.6099 12.2704 18.7699 13.0204C18.9299 13.5104 18.9899 13.8404 18.9999 14.0104C19.0799 14.4104 19.1399 14.7204 19.3499 15.0604C19.4599 15.2404 20.4199 15.3704 20.5499 15.1604C20.7699 14.7804 20.9399 14.3604 20.8599 13.7904C20.8599 13.5704 21.0299 13.0704 20.8799 12.3804C20.8399 12.2704 20.7799 12.1704 20.6999 12.0904C20.3699 11.7104 20.0299 11.3004 19.7899 10.9604C19.5199 10.6504 19.3599 10.4004 19.3599 10.4004C19.3599 10.4004 19.0699 10.0704 18.6799 9.73042C18.2899 9.38042 17.7899 9.03042 17.4799 8.86042C17.0199 8.58042 16.7799 8.48042 16.6399 8.41042C16.1999 8.21042 15.8199 8.16042 15.4299 8.21042L15.4399 8.20042Z" fill="#101214"/>
<path d="M30.4101 21.4805C30.5701 21.6905 31.6801 21.5105 31.7301 21.2205C31.8201 20.8105 31.8001 20.3805 31.6501 19.8705C31.3901 19.3105 31.1301 19.2605 30.9701 18.8905C30.7001 18.2705 30.2901 17.1205 30.1201 16.8505C30.1001 16.8105 30.0801 16.7705 30.0401 16.7405C29.8101 16.5205 28.7401 15.6605 27.7201 15.0605C26.9801 14.6905 26.4801 14.5405 26.2201 14.4705C25.6101 14.3005 25.1201 14.3505 24.6601 14.5205C24.4001 14.6105 24.3601 15.5805 24.5501 15.7205C24.9001 15.9705 25.2401 16.1305 25.7001 16.2705C25.8801 16.3205 26.1701 16.6805 26.6101 16.9605C26.6801 17.0005 26.7701 17.0205 26.8601 17.0305C27.2701 17.0505 27.6701 17.2505 27.9401 17.4705C28.0801 17.5705 28.1901 17.6805 28.2501 17.7605C28.3201 17.8405 28.3601 17.8905 28.3601 17.8905C28.3601 17.8905 28.6201 18.1605 28.8801 18.5305C29.1501 18.9005 29.4001 19.3705 29.5301 19.6705C29.7401 20.1105 29.8001 20.3405 29.8601 20.4705C30.0001 20.8905 30.1701 21.1905 30.3901 21.4905L30.4101 21.4805Z" fill="#101214"/>
</g>
</g>
<defs>
<clipPath id="clip0_1_7721">
<rect width="40" height="40" fill="white"/>
</clipPath>
<clipPath id="clip1_1_7721">
<rect width="40" height="40" fill="white"/>
</clipPath>
</defs>
</svg>
