<svg width="40" height="40" viewBox="0 0 40 40" fill="none" xmlns="http://www.w3.org/2000/svg">
<g clip-path="url(#clip0_1_7734)">
<g clip-path="url(#clip1_1_7734)">
<path d="M40 0H0V40H40V0Z" fill="#164B35"/>
<path d="M2.18018 5.60998C2.31018 5.99998 6.51018 29.25 6.51018 29.25L26.7102 15.65L17.5502 0.22998L2.18018 5.60998Z" fill="white"/>
<path d="M35.6301 21.6399H34.5701C34.0101 20.2599 33.1901 19.0299 32.1301 17.9899L31.9101 12.1499L26.9301 14.9499C25.1001 14.3599 23.0301 14.0399 20.7401 14.0399C11.8801 14.0599 6.03005 18.8599 6.04005 26.1299C6.04005 30.7599 8.41005 34.3799 12.3901 36.3999V40.0899H16.8801V37.8599C18.0901 38.0799 19.3801 38.1999 20.7501 38.1899C22.3201 38.1899 23.7901 38.0199 25.1401 37.7399V40.0899H29.6301V36.1199C32.5801 34.4799 34.5301 31.9199 35.1801 28.6699H35.6301C36.3201 28.6699 36.8701 28.1099 36.8701 27.4299V22.8899C36.8701 22.1999 36.3101 21.6499 35.6301 21.6499V21.6399Z" fill="#FFC716"/>
<path d="M3.07977 7.31C5.67977 11.31 10.1298 12.18 14.2698 9.49C17.8798 7.15 19.1198 3.52 17.6898 0H2.26977C1.25977 2.27 1.48977 4.86 3.07977 7.31Z" fill="#FCA700"/>
<mask id="mask0_1_7734" style="mask-type:luminance" maskUnits="userSpaceOnUse" x="-1" y="0" width="41" height="41">
<path d="M39.48 0.0200195H-0.52002V40.02H39.48V0.0200195Z" fill="white"/>
</mask>
<g mask="url(#mask0_1_7734)">
<path d="M18.2 16.8998C18.41 16.7498 18.27 15.6398 18.01 15.5698C17.63 15.4598 17.24 15.4398 16.75 15.5298C16.21 15.7098 16.14 15.9698 15.78 16.0498C15.18 16.2198 14.05 16.3298 13.78 16.3898C13.74 16.3898 13.7 16.4098 13.67 16.4298C13.43 16.5898 12.4 17.2898 11.51 17.8998C10.92 18.3798 10.58 18.7098 10.41 18.8898C10.01 19.3098 9.81998 19.7398 9.74998 20.1998C9.70998 20.4598 10.51 20.9898 10.73 20.8998C11.12 20.7298 11.42 20.5298 11.76 20.1898C11.89 20.0498 12.35 19.9798 12.79 19.6798C12.86 19.6298 12.92 19.5698 12.97 19.4798C13.16 19.1098 13.5 18.8098 13.79 18.6198C14.08 18.4298 14.32 18.3398 14.32 18.3398C14.32 18.3398 14.66 18.1698 15.08 17.9998C15.5 17.8198 16.02 17.6598 16.33 17.5698C16.79 17.4298 17.03 17.3898 17.17 17.3498C17.6 17.2498 17.91 17.0998 18.22 16.8998H18.2Z" fill="#101214"/>
<path d="M28.3398 22.2697C28.2098 22.2597 27.1098 22.4597 27.0498 22.6697C26.9698 22.9497 27.0198 23.2897 27.2698 23.5897C27.6198 23.8797 27.8398 23.7197 28.0298 23.8697C28.3698 24.0897 28.9498 24.5097 29.1098 24.5897C29.1298 24.5997 29.1598 24.6097 29.1798 24.6097C29.3698 24.5697 29.9998 24.4897 30.7298 24.2997C31.2298 24.1097 31.4898 23.8397 31.6098 23.7297C31.8898 23.4297 31.9398 23.1097 31.8498 22.8197C31.8098 22.6497 30.9098 22.2697 30.7698 22.2797C30.5198 22.3097 30.3598 22.3297 30.2798 22.3997C30.2398 22.4397 30.0298 22.2697 29.9598 22.2397C29.9398 22.2397 29.9398 22.2597 29.9398 22.2997C29.8998 22.7097 29.3998 22.6197 29.4298 22.5997C29.4198 22.6197 28.8798 22.5297 28.7998 22.4397C28.7098 22.3897 28.6898 22.3597 28.6698 22.3397C28.6198 22.2897 28.5198 22.2897 28.3298 22.2497L28.3398 22.2697Z" fill="#101214"/>
<path d="M7.34991 25.0997C7.83991 24.9797 7.70991 23.8697 7.37991 23.7497C6.88991 23.5697 6.41991 23.3897 5.80991 23.1297C5.10991 22.8697 4.81991 22.9197 4.41991 22.5697C4.06991 22.2897 3.77991 21.7697 3.86991 21.5197C3.91991 21.2797 4.13991 21.1397 4.24991 21.0597C4.27991 21.0397 4.29991 21.0197 4.31991 20.9897C4.33991 20.9597 4.35991 20.9197 4.39991 20.8697C4.43991 20.8197 4.42991 20.8397 4.43991 20.7997C4.43991 20.8097 4.41991 20.7797 4.40991 20.7297C4.40991 20.6997 4.40991 20.7197 4.40991 20.6997C4.40991 20.6997 4.38991 20.7797 4.40991 20.7497C4.43991 20.7497 4.53991 20.8097 4.52991 20.8597C4.52991 20.8997 4.52991 20.9997 4.33991 21.1397C4.02991 21.3997 3.97991 21.3897 3.72991 21.4097C3.50991 21.4097 3.29991 21.3597 3.15991 21.3297C2.47991 21.1497 1.89991 20.9297 1.27991 20.7597C0.94991 20.6597 0.32991 21.4097 0.57991 21.7397C1.03991 22.3097 1.62991 22.8297 2.66991 23.1397C2.87991 23.1897 3.17991 23.3497 3.67991 23.4297C3.92991 23.4697 4.23991 23.4897 4.59991 23.4097C4.77991 23.3697 4.96991 23.3097 5.16991 23.2097C5.33991 23.1197 5.47991 23.0297 5.63991 22.9197C5.83991 22.7697 6.02991 22.5697 6.15991 22.3197C6.45991 21.8097 6.62991 21.0097 6.39991 20.3597C6.18991 19.7097 5.70991 19.2397 5.18991 19.0197C4.65991 18.7797 4.08991 18.8597 3.76991 18.9797C3.42991 19.0997 3.28991 19.2297 3.28991 19.2297C3.28991 19.2297 3.22991 19.2697 3.12991 19.3497C3.03991 19.4297 2.93991 19.5197 2.81991 19.6597C2.57991 19.9397 2.24991 20.3897 2.13991 21.0497C2.00991 21.7197 2.26991 22.4497 2.58991 22.8997C2.90991 23.3697 3.26991 23.6797 3.53991 23.8997C4.35991 24.5297 4.82991 24.6997 5.09991 24.8297C5.94991 25.1797 6.69991 25.2297 7.36991 25.0797L7.34991 25.0997Z" fill="#101214"/>
<path d="M6.30998 0.679857C6.49998 0.249857 5.70998 -0.550143 5.21998 -0.110143C4.57998 0.509857 4.01998 1.43986 3.97998 2.74986C3.99998 3.47986 4.17998 3.90986 4.32998 4.25986C4.49998 4.59986 4.63998 4.87986 4.83998 5.28986C5.17998 5.96986 5.69998 6.84986 6.41998 7.51986C7.10998 8.19986 7.94998 8.58986 8.26998 8.70986C8.36998 8.74986 8.46998 8.76986 8.56998 8.78986C8.92998 8.83986 9.95998 8.95986 11.1 8.59986C12.25 8.25986 13.41 7.56986 14.34 6.65986C15.63 5.30986 15.85 3.98986 15.91 3.40986C15.99 2.66986 15.87 2.02986 15.66 1.48986C15.46 0.949857 15.17 0.509857 14.84 0.149857C14.46 -0.260143 13.68 0.329857 13.8 0.749857C14 1.53986 14.14 2.27986 14.05 3.20986C14 3.57986 13.62 4.25986 12.89 4.99986C12.77 5.11986 12.66 5.25986 12.56 5.40986C12.11 6.05986 11.27 6.59986 10.59 6.77986C10.25 6.87986 9.94998 6.89986 9.73998 6.90986C9.52998 6.89986 9.40998 6.88986 9.40998 6.88986C9.40998 6.88986 8.65998 6.87986 7.89998 6.39986C7.11998 5.95986 6.44998 4.99986 6.19998 4.40986C5.80998 3.51986 5.84998 3.04986 5.83998 2.78986C5.84998 1.96986 6.04998 1.33986 6.29998 0.689857L6.30998 0.679857Z" fill="#101214"/>
</g>
</g>
</g>
<defs>
<clipPath id="clip0_1_7734">
<rect width="40" height="40" fill="white"/>
</clipPath>
<clipPath id="clip1_1_7734">
<rect width="40" height="40" fill="white"/>
</clipPath>
</defs>
</svg>
