<svg width="40" height="40" viewBox="0 0 40 40" fill="none" xmlns="http://www.w3.org/2000/svg">
<g clip-path="url(#clip0_1_7920)">
<g clip-path="url(#clip1_1_7920)">
<path d="M40 0H0V40H40V0Z" fill="#94C748"/>
<path d="M20.4598 17L30.3398 0H10.5898L20.4598 17Z" fill="#82B536"/>
<path d="M30.89 9.09033H9.77002V36.6103H30.89V9.09033Z" fill="#AE2A19"/>
<path d="M29.3998 9.09018V7.32018H24.7498C24.4798 6.57018 23.8498 6.05018 22.8498 5.74018C22.1698 5.53018 21.3398 5.43018 20.3398 5.43018C19.3398 5.43018 18.4998 5.53018 17.8298 5.73018C16.7798 6.03018 16.1398 6.57018 15.8998 7.33018H11.2798V9.10018H9.77979V23.6602H30.8998V9.10018H29.3998V9.09018Z" fill="white"/>
<path d="M21.1201 11.67C21.0001 11.47 19.8901 11.47 19.7701 11.67C19.6001 11.96 19.5201 12.26 19.5101 12.66C19.5601 13.1 19.7901 13.21 19.7701 13.51C19.7701 14.02 19.4601 14.87 19.3801 15.08C19.3701 15.11 19.3701 15.14 19.3801 15.17C19.4201 15.39 19.5901 16.35 19.5101 17.17C19.5101 17.75 19.5101 18.11 19.5101 18.3C19.5101 18.75 19.6301 19.08 19.8401 19.4C19.9601 19.58 20.9301 19.58 21.0401 19.4C21.2501 19.07 21.3701 18.74 21.3701 18.3C21.3701 18.13 21.6401 17.77 21.6801 17.26C21.6801 17.18 21.6701 17.09 21.6301 17.01C21.2701 16.3 21.3701 15.38 21.3701 15.38C21.3701 15.38 21.3701 14 21.3701 13.42C21.3701 12.98 21.3701 12.77 21.3701 12.64C21.3701 12.25 21.2701 11.94 21.1101 11.65L21.1201 11.67Z" fill="#101214"/>
<path d="M24.0699 16.02C24.2599 15.9 24.2599 14.79 24.0699 14.67C23.7999 14.5 23.5299 14.42 23.1699 14.41C22.7599 14.46 22.6599 14.69 22.3899 14.67C21.9199 14.67 21.1399 14.36 20.9499 14.28C20.9199 14.27 20.8899 14.27 20.8699 14.28C20.6699 14.32 19.7899 14.49 19.0299 14.41C18.4999 14.41 18.1599 14.41 17.9899 14.41C17.5799 14.41 17.2799 14.53 16.9799 14.74C16.8199 14.86 16.8199 15.83 16.9799 15.94C17.2799 16.15 17.5799 16.27 17.9899 16.27C18.1499 16.27 18.4799 16.54 18.9499 16.58C19.0299 16.58 19.0999 16.57 19.1799 16.53C19.8299 16.17 20.6699 16.27 20.6699 16.27C20.6699 16.27 21.9299 16.27 22.4599 16.27C22.8599 16.27 23.0499 16.27 23.1699 16.27C23.5299 16.27 23.8099 16.17 24.0699 16.01V16.02Z" fill="#101214"/>
<path d="M24.0699 31.7001C24.2599 31.5801 24.2599 30.4701 24.0699 30.3501C23.7999 30.1801 23.5299 30.1001 23.1699 30.0901C22.7599 30.1401 22.6599 30.3701 22.3899 30.3501C21.9199 30.3501 21.1399 30.0401 20.9499 29.9601C20.9199 29.9501 20.8899 29.9501 20.8699 29.9601C20.6699 30.0001 19.7899 30.1701 19.0299 30.0901C18.4999 30.0901 18.1599 30.0901 17.9899 30.0901C17.5799 30.0901 17.2799 30.2101 16.9799 30.4201C16.8199 30.5401 16.8199 31.5101 16.9799 31.6201C17.2799 31.8301 17.5799 31.9501 17.9899 31.9501C18.1499 31.9501 18.4799 32.2201 18.9499 32.2601C19.0299 32.2601 19.0999 32.2501 19.1799 32.2101C19.8299 31.8501 20.6699 31.9501 20.6699 31.9501C20.6699 31.9501 21.9299 31.9501 22.4599 31.9501C22.8599 31.9501 23.0499 31.9501 23.1699 31.9501C23.5299 31.9501 23.8099 31.8501 24.0699 31.6901V31.7001Z" fill="#101214"/>
<path d="M10.9898 36.1698C9.20979 36.2898 9.20979 37.3998 10.9898 37.5198C13.5098 37.6898 16.1498 37.7698 19.5498 37.7798C23.3998 37.7298 24.3598 37.4998 26.9698 37.5198C28.2598 37.5298 29.7698 37.5498 31.5498 37.5698C31.5598 36.8198 31.5698 36.0398 31.5898 35.2698C31.5998 34.7698 31.6198 34.2598 31.6298 33.7598C31.6598 32.7598 31.6998 31.7698 31.7298 30.8698C31.7998 29.0598 31.8598 27.5698 31.8898 26.8898C31.8998 26.6198 31.8998 26.3598 31.8898 26.0898C31.8698 25.1598 31.8298 22.6898 31.7798 19.5498C31.7698 17.9798 31.7498 16.2498 31.7398 14.4598C31.7398 12.3298 31.7398 10.1398 31.7498 8.00977C31.6298 8.00977 31.3598 8.00977 31.0798 8.00977C25.6398 8.00977 22.2798 8.00977 20.5198 8.00977C16.6498 8.00977 13.7598 8.12977 10.9198 8.33977C9.35979 8.45977 9.35979 9.42977 10.9198 9.53977C13.7598 9.74977 16.6498 9.86977 20.5198 9.86977C22.0098 9.86977 25.1798 10.1398 29.5498 10.1798C29.5498 10.1798 29.5498 10.1798 29.5598 10.1798C29.5598 10.1798 29.5798 10.1798 29.5998 10.1798V10.3298L29.6198 10.6198L29.6498 11.2098C29.6698 11.6098 29.6798 12.0098 29.6998 12.4098C29.7298 13.2198 29.7498 14.0398 29.7798 14.8498C29.8098 16.4698 29.8298 18.0498 29.8498 19.4298C29.8498 22.1998 29.8498 24.1998 29.8498 24.1998V35.8898H26.2498C22.4498 35.8898 20.6298 35.8898 19.4998 35.8898C16.0998 35.8898 13.4598 35.9898 10.9398 36.1498L10.9898 36.1698Z" fill="#101214"/>
</g>
</g>
<defs>
<clipPath id="clip0_1_7920">
<rect width="40" height="40" fill="white"/>
</clipPath>
<clipPath id="clip1_1_7920">
<rect width="40" height="40" fill="white"/>
</clipPath>
</defs>
</svg>
