<svg width="40" height="40" viewBox="0 0 40 40" fill="none" xmlns="http://www.w3.org/2000/svg">
<g clip-path="url(#clip0_1_7753)">
<g clip-path="url(#clip1_1_7753)">
<path d="M40 0H0V40H40V0Z" fill="#1868DB"/>
<path d="M33.64 32.9802C30.55 20.3902 25.36 9.90021 20.27 2.47021L20.58 32.9802H33.64Z" fill="#AE2A19"/>
<path d="M19.38 32.9804H6.52002L19.38 11.1304V32.9804Z" fill="white"/>
<path d="M4.81982 35.1802L8.46982 39.9802L35.2898 40.4702V35.1802H19.9998H4.81982Z" fill="#09326C"/>
<path d="M34.75 36.3803C35.53 36.2603 35.53 35.1503 34.75 35.0303C33.65 34.8603 32.49 34.7803 31 34.7703C29.31 34.8203 28.89 35.0503 27.75 35.0303C25.82 35.0303 22.56 34.7203 21.78 34.6403C21.66 34.6303 21.55 34.6303 21.43 34.6403C20.6 34.6803 16.95 34.8503 13.81 34.7703C11.59 34.7703 10.22 34.7703 9.50004 34.7703C7.81004 34.7703 6.54004 34.8903 5.30004 35.1003C4.62004 35.2203 4.62004 36.1903 5.30004 36.3003C6.54004 36.5103 7.81004 36.6303 9.50004 36.6303C10.16 36.6303 11.53 36.9003 13.46 36.9403C13.78 36.9403 14.09 36.9303 14.4 36.8903C17.1 36.5303 20.6 36.6303 20.6 36.6303C20.6 36.6303 25.83 36.6303 28.03 36.6303C29.69 36.6303 30.49 36.6303 30.98 36.6303C32.47 36.6303 33.63 36.5303 34.73 36.3703L34.75 36.3803Z" fill="#101214"/>
<path d="M20.6699 2.92008C20.5499 2.05008 19.4399 2.05008 19.3199 2.92008C19.1499 4.15008 19.0699 5.44008 19.0599 7.09008C19.1099 8.97008 19.3399 9.43008 19.3199 10.7101C19.3199 12.8601 19.0099 16.4901 18.9299 17.3601C18.9199 17.4901 18.9199 17.6201 18.9299 17.7501C18.9699 18.6801 19.1399 22.7401 19.0599 26.2301C19.0599 28.7001 19.0599 30.2301 19.0599 31.0301C19.0599 32.9201 19.1799 34.3201 19.3899 35.7101C19.5099 36.4701 20.4799 36.4701 20.5899 35.7101C20.7999 34.3301 20.9199 32.9201 20.9199 31.0301C20.9199 30.3001 21.1899 28.7701 21.2299 26.6201C21.2299 26.2701 21.2199 25.9201 21.1799 25.5701C20.8199 22.5701 20.9199 18.6601 20.9199 18.6601C20.9199 18.6601 20.9199 12.8401 20.9199 10.3801C20.9199 8.53008 20.9199 7.64008 20.9199 7.09008C20.9199 5.43008 20.8199 4.14008 20.6599 2.92008H20.6699Z" fill="#101214"/>
<path d="M20.1802 9.68027C20.0302 9.84027 20.4402 10.8803 20.5002 10.9903C20.6002 11.1303 20.7502 11.2103 20.9402 11.2003C21.1602 11.1403 21.2102 10.9003 21.3702 10.9303C21.6402 10.9303 22.1102 11.2403 22.2202 11.3203C22.2402 11.3303 22.2502 11.3303 22.2702 11.3203C22.3902 11.2803 22.9202 11.1203 23.3802 11.2203C23.7002 11.2303 23.9002 11.2403 24.0102 11.2403C24.2602 11.2403 24.4502 11.1403 24.6502 10.9403C24.7602 10.8303 24.8202 9.86027 24.7202 9.74027C24.5502 9.52027 24.3702 9.39027 24.1102 9.37027C24.0102 9.37027 23.8202 9.09027 23.5302 9.03027C23.4802 9.03027 23.4302 9.03027 23.3902 9.08027C22.9702 9.42027 22.4402 9.31027 22.4402 9.31027C22.4402 9.31027 21.6502 9.29027 21.3002 9.31027C21.0302 9.32027 20.9102 9.33027 20.8302 9.33027C20.5802 9.36027 20.3902 9.46027 20.2002 9.68027H20.1802Z" fill="#101214"/>
<path d="M20.3302 19.89C19.9502 20.08 20.4702 21.11 20.5302 21.22C20.8002 21.36 21.1702 21.43 21.6202 21.42C22.1302 21.35 22.2702 21.13 22.6202 21.15C23.2202 21.15 24.2402 21.46 24.4802 21.54C24.5202 21.55 24.5502 21.55 24.5902 21.54C24.8502 21.5 25.9902 21.34 26.9702 21.44C27.6602 21.45 28.0902 21.46 28.3202 21.46C28.8502 21.46 29.2502 21.36 29.6302 21.16C29.8302 21.05 29.9102 20.08 29.6802 19.96C29.2902 19.73 28.8902 19.61 28.3602 19.59C28.1502 19.59 27.7302 19.31 27.1202 19.25C27.0202 19.25 26.9202 19.25 26.8202 19.3C25.9602 19.65 24.8602 19.53 24.8602 19.53C24.8602 19.53 23.2102 19.53 22.5102 19.52C21.9802 19.53 21.7302 19.54 21.5702 19.54C21.0902 19.56 20.7302 19.66 20.3302 19.87V19.89Z" fill="#101214"/>
<path d="M20.4102 29.4003C19.9102 29.6003 20.4702 30.6303 20.5602 30.7403C20.9602 30.8803 21.4302 30.9503 22.0302 30.9403C22.7102 30.8803 22.8802 30.6503 23.3402 30.6703C24.1302 30.6703 25.4502 30.9803 25.7702 31.0603C25.8202 31.0703 25.8602 31.0703 25.9102 31.0603C26.2502 31.0203 27.7402 30.8603 29.0202 30.9603C29.9302 30.9703 30.4902 30.9803 30.7802 30.9803C31.4702 30.9803 31.9902 30.8803 32.4902 30.6903C32.7502 30.5803 32.8302 29.6203 32.5402 29.4903C32.0302 29.2603 31.5102 29.1403 30.8202 29.1203C30.5502 29.1203 29.9902 28.8403 29.2002 28.7803C29.0702 28.7803 28.9402 28.7803 28.8102 28.8303C27.7002 29.1803 26.2602 29.0703 26.2602 29.0703C26.2602 29.0703 24.1102 29.0703 23.2102 29.0603C22.5202 29.0703 22.1902 29.0803 21.9902 29.0803C21.3702 29.1003 20.9002 29.2003 20.4102 29.4103V29.4003Z" fill="#101214"/>
</g>
</g>
<defs>
<clipPath id="clip0_1_7753">
<rect width="40" height="40" fill="white"/>
</clipPath>
<clipPath id="clip1_1_7753">
<rect width="40" height="40" fill="white"/>
</clipPath>
</defs>
</svg>
