<svg width="40" height="40" viewBox="0 0 40 40" fill="none" xmlns="http://www.w3.org/2000/svg">
<g clip-path="url(#clip0_1_8003)">
<g clip-path="url(#clip1_1_8003)">
<path d="M40 0H0V40H40V0Z" fill="#94C748"/>
<path d="M18.1697 33.0698H11.4297L11.4097 37.7398L14.7297 35.3298L18.0497 37.7398L18.1697 33.0698Z" fill="#164B35"/>
<path d="M10.3096 3.85986V4.76986H31.3496V30.9099H32.3796V3.85986H10.3096Z" fill="#AE2A19"/>
<path d="M10.3097 4.77002L9.69971 6.21002H29.5797V31.61H31.3497V4.77002H10.3097Z" fill="white"/>
<path d="M7.50977 6.20986L10.3098 3.85986L11.9998 4.23986L9.19977 6.97986L7.50977 6.20986Z" fill="#AE2A19"/>
<path d="M29.5798 6.20996H7.50977V33.26H29.5798V6.20996Z" fill="#AE2A19"/>
<path d="M12.2098 18.0097C11.8598 18.1297 11.8598 19.2397 12.2098 19.3597C12.6998 19.5297 13.2098 19.6097 13.8798 19.6197C14.6298 19.5697 14.8198 19.3397 15.3198 19.3597C16.1798 19.3597 17.6298 19.6697 17.9798 19.7497C18.0298 19.7597 18.0798 19.7597 18.1298 19.7497C18.4998 19.7097 20.1198 19.5397 21.5198 19.6197C22.5098 19.6197 23.1198 19.6197 23.4398 19.6197C24.1898 19.6197 24.7598 19.4997 25.3098 19.2897C25.6098 19.1697 25.6098 18.1997 25.3098 18.0897C24.7598 17.8797 24.1898 17.7597 23.4398 17.7597C23.1498 17.7597 22.5398 17.4897 21.6798 17.4497C21.5398 17.4497 21.3998 17.4597 21.2598 17.4997C20.0598 17.8597 18.4998 17.7597 18.4998 17.7597C18.4998 17.7597 16.1798 17.7597 15.1898 17.7597C14.4498 17.7597 14.0998 17.7597 13.8798 17.7597C13.2198 17.7597 12.6998 17.8597 12.2098 18.0197V18.0097Z" fill="#101214"/>
<path d="M29.6 30.5698C29.52 30.6898 29.52 31.7998 29.6 31.9198C29.71 32.0898 29.83 32.1698 29.98 32.1798C30.15 32.1298 30.2 31.8998 30.31 31.9198C30.51 31.9198 30.84 32.2298 30.92 32.3098C30.93 32.3198 30.94 32.3198 30.96 32.3098C31.04 32.2698 31.42 32.0998 31.74 32.1798C31.97 32.1798 32.11 32.1798 32.18 32.1798C32.35 32.1798 32.48 32.0598 32.61 31.8498C32.68 31.7298 32.68 30.7598 32.61 30.6498C32.48 30.4398 32.35 30.3198 32.18 30.3198C32.11 30.3198 31.97 30.0498 31.77 30.0098C31.74 30.0098 31.71 30.0198 31.67 30.0598C31.39 30.4198 31.04 30.3198 31.04 30.3198C31.04 30.3198 30.51 30.3198 30.28 30.3198C30.11 30.3198 30.03 30.3198 29.98 30.3198C29.83 30.3198 29.71 30.4198 29.6 30.5798V30.5698Z" fill="#101214"/>
<path d="M32.1398 4.91986C32.7298 4.79986 32.7298 3.68986 32.1398 3.56986C31.2998 3.39986 30.4098 3.31986 29.2698 3.30986C27.9798 3.35986 27.6598 3.58986 26.7798 3.56986C25.2998 3.56986 22.8098 3.25986 22.2098 3.17986C22.1198 3.16986 22.0298 3.16986 21.9398 3.17986C21.2998 3.21986 18.5098 3.38986 16.1098 3.30986C14.4098 3.30986 13.3598 3.30986 12.8098 3.30986C12.4198 3.30986 12.0398 3.31986 11.7498 3.31986C10.9698 4.13986 10.8598 4.30986 10.5698 4.68986C10.3098 5.02986 10.0898 5.35986 9.8798 5.69986C9.5998 6.15986 10.2898 6.82986 10.7398 6.53986C11.0698 6.31986 11.3998 6.08986 11.7298 5.82986C11.8898 5.68986 12.0598 5.54986 12.2398 5.40986C12.4698 5.20986 12.4598 5.22986 12.5298 5.16986C12.5498 5.16986 12.5798 5.16986 12.6098 5.17986C12.6298 5.17986 12.6498 5.17986 12.7998 5.17986C13.2998 5.17986 14.3498 5.44986 15.8398 5.48986C16.0798 5.48986 16.3198 5.47986 16.5598 5.43986C18.6298 5.07986 21.3098 5.17986 21.3098 5.17986C21.3098 5.17986 25.3098 5.17986 26.9998 5.17986C28.2698 5.17986 28.8798 5.17986 29.2598 5.17986C30.3998 5.17986 31.2898 5.07986 32.1298 4.91986H32.1398Z" fill="#101214"/>
<path d="M12.1398 22.0898C11.8798 22.2098 11.8798 23.3198 12.1398 23.4398C12.4998 23.6098 12.8798 23.6898 13.3698 23.6998C13.9298 23.6498 14.0598 23.4198 14.4398 23.4398C15.0798 23.4398 16.1498 23.7498 16.4098 23.8298C16.4498 23.8398 16.4898 23.8398 16.5198 23.8298C16.7898 23.7898 17.9898 23.6198 19.0298 23.6998C19.7598 23.6998 20.2098 23.6998 20.4498 23.6998C21.0098 23.6998 21.4198 23.5798 21.8298 23.3698C22.0598 23.2498 22.0598 22.2798 21.8298 22.1698C21.4198 21.9598 20.9998 21.8398 20.4498 21.8398C20.2298 21.8398 19.7798 21.5698 19.1398 21.5298C19.0398 21.5298 18.9298 21.5398 18.8298 21.5798C17.9398 21.9398 16.7898 21.8398 16.7898 21.8398C16.7898 21.8398 15.0698 21.8398 14.3398 21.8398C13.7898 21.8398 13.5298 21.8398 13.3698 21.8398C12.8798 21.8398 12.4998 21.9398 12.1398 22.0998V22.0898Z" fill="#101214"/>
<path d="M25.9499 15.9698L25.1699 11.0098L11.6899 11.5598V15.9698H25.9499Z" fill="white"/>
<path d="M25.1699 11.0098L11.6899 11.5598V13.4898H25.5599L25.1699 11.0098Z" fill="#164B35"/>
</g>
</g>
<defs>
<clipPath id="clip0_1_8003">
<rect width="40" height="40" fill="white"/>
</clipPath>
<clipPath id="clip1_1_8003">
<rect width="40" height="40" fill="white"/>
</clipPath>
</defs>
</svg>
