<svg width="40" height="40" viewBox="0 0 40 40" fill="none" xmlns="http://www.w3.org/2000/svg">
<g clip-path="url(#clip0_1_7582)">
<g clip-path="url(#clip1_1_7582)">
<path d="M40 0H0V40H40V0Z" fill="#BF63F3"/>
<path d="M5.6001 7.50977V32.6098H34.3901V7.50977H5.6001Z" fill="white"/>
<path d="M15.3 33.4099C15.31 33.1799 14.4 32.5299 14.19 32.6499C13.88 32.8099 13.63 33.0299 13.41 33.3799C13.21 33.8099 13.37 34.0199 13.2 34.2899C12.95 34.7499 12.3 35.4399 12.15 35.6099C12.13 35.6399 12.11 35.6599 12.11 35.6999C12.06 35.9299 11.85 36.9299 11.55 37.7299C11.38 38.3199 11.3 38.6799 11.26 38.8699C11.17 39.3199 11.21 39.6899 11.36 40.0499C11.44 40.2499 12.4 40.4099 12.55 40.2599C12.81 39.9899 12.99 39.6999 13.09 39.2899C13.13 39.1299 13.46 38.8599 13.64 38.4199C13.67 38.3499 13.67 38.2699 13.65 38.1799C13.48 37.4299 13.9 36.6499 13.9 36.6499C13.9 36.6499 14.03 36.3499 14.18 35.9899C14.34 35.6299 14.55 35.2199 14.68 34.9799C14.87 34.6199 14.97 34.4499 15.03 34.3399C15.21 34.0199 15.29 33.7399 15.31 33.4099H15.3Z" fill="#101214"/>
<path d="M27.3803 40.2C27.5303 40.37 28.6303 40.1899 28.7103 39.9599C28.8203 39.6399 28.8503 39.3099 28.7703 38.9199C28.6103 38.4799 28.3603 38.43 28.3103 38.13C28.1803 37.63 28.2003 36.7 28.1903 36.46C28.1903 36.43 28.1903 36.39 28.1703 36.37C28.0503 36.16 27.5403 35.3 27.2203 34.49C26.9403 33.95 26.7503 33.62 26.6503 33.45C26.4103 33.05 26.1203 32.82 25.7503 32.66C25.5503 32.57 24.7603 33.14 24.7603 33.34C24.7603 33.72 24.8403 34.03 25.0403 34.4C25.1203 34.54 25.0603 34.96 25.2303 35.4C25.2603 35.47 25.3103 35.53 25.3803 35.58C26.0003 36.01 26.2203 36.8699 26.2203 36.8699C26.2203 36.8699 26.3303 37.17 26.4603 37.54C26.5803 37.91 26.7103 38.3499 26.7803 38.6199C26.8803 39.0199 26.9303 39.21 26.9603 39.33C27.0503 39.69 27.1903 39.95 27.4003 40.2H27.3803Z" fill="#101214"/>
<path d="M7.6001 9.50977V18.4998L9.0901 16.3998C10.8601 13.8998 14.5801 13.8998 16.3501 16.3998L19.1601 20.3698C20.7301 22.5798 23.8901 22.8898 25.8501 21.0298C27.4201 19.5398 29.7901 19.4298 31.4901 20.6598V9.51977H7.6001V9.50977Z" fill="#1868DB"/>
<path d="M24.6101 16.55C24.6401 16.38 24.6601 16.19 24.6601 16C24.6601 15.81 24.6401 15.61 24.6101 15.44C24.4201 14.39 23.7001 13.75 22.6801 13.58C22.5101 13.55 22.3201 13.54 22.1301 13.54C21.9401 13.54 21.7401 13.56 21.5601 13.59C20.5401 13.76 19.8201 14.4 19.6301 15.44C19.6001 15.62 19.5801 15.8 19.5801 16C19.5801 16.2 19.6001 16.38 19.6301 16.55C19.8201 17.59 20.5401 18.23 21.5601 18.4C21.7401 18.43 21.9301 18.45 22.1301 18.45C22.3301 18.45 22.5001 18.44 22.6801 18.41C23.7001 18.24 24.4301 17.6 24.6101 16.55Z" fill="white"/>
<path d="M31.4999 30.6101V20.6501C29.7899 19.4201 27.4199 19.5401 25.8599 21.0201C23.8999 22.8801 20.7299 22.5701 19.1699 20.3601L16.3599 16.3901C14.5899 13.8901 10.8699 13.8901 9.09986 16.3901L7.60986 18.4901V30.6001H31.5099L31.4999 30.6101Z" fill="#D8A0F7"/>
<path d="M20.5903 3.85998C20.4703 3.76998 19.3603 3.76998 19.2403 3.85998C19.0703 3.98998 18.9903 4.13998 18.9803 4.31998C19.0303 4.52998 19.2603 4.57998 19.2403 4.71998C19.2403 4.95998 18.9303 5.34998 18.8503 5.44998C18.8403 5.45998 18.8403 5.47998 18.8503 5.48998C18.8903 5.58998 19.0603 6.03998 18.9803 6.41998C18.9803 6.68998 18.9803 6.85998 18.9803 6.94998C18.9803 7.15998 19.1003 7.30998 19.3103 7.45998C19.4303 7.53998 20.4003 7.53998 20.5103 7.45998C20.7203 7.30998 20.8403 7.14998 20.8403 6.94998C20.8403 6.86998 21.1103 6.69998 21.1503 6.46998C21.1503 6.42998 21.1403 6.38998 21.1003 6.35998C20.7403 6.02998 20.8403 5.59998 20.8403 5.59998C20.8403 5.59998 20.8403 4.95998 20.8403 4.68998C20.8403 4.48998 20.8403 4.38998 20.8403 4.32998C20.8403 4.14998 20.7403 4.00998 20.5803 3.86998L20.5903 3.85998Z" fill="#101214"/>
<path d="M6.63004 32.0298C5.26004 32.1498 5.26004 33.2598 6.63004 33.3798C8.57004 33.5498 10.62 33.6298 13.24 33.6398C16.22 33.5898 16.96 33.3598 18.97 33.3798C22.38 33.3798 28.12 33.6898 29.51 33.7698C29.71 33.7798 29.92 33.7798 30.13 33.7698C30.36 33.7698 30.72 33.7598 31.37 33.7398C32.26 33.7398 33.55 33.7198 35.48 33.6998C35.47 32.9198 35.44 31.1598 35.41 28.9798C35.39 27.3098 35.39 25.3098 35.41 23.4198C35.41 19.5098 35.41 17.0798 35.41 15.8198C35.41 12.8298 35.29 10.5998 35.08 8.40977C34.96 7.20977 33.99 7.20977 33.88 8.40977C33.67 10.5998 33.55 12.8398 33.55 15.8198C33.55 16.9798 33.28 19.3998 33.24 22.8198C33.24 23.3798 33.25 23.9298 33.29 24.4798C33.4 25.8698 33.46 27.3698 33.5 28.7898C33.52 29.8998 33.54 30.9398 33.56 31.7598C32.34 31.7598 31.58 31.7498 31.58 31.7498C31.58 31.7498 22.35 31.7498 18.46 31.7498C15.53 31.7498 14.12 31.7498 13.25 31.7498C10.62 31.7498 8.58004 31.8498 6.64004 32.0098L6.63004 32.0298Z" fill="#101214"/>
</g>
</g>
<defs>
<clipPath id="clip0_1_7582">
<rect width="40" height="40" fill="white"/>
</clipPath>
<clipPath id="clip1_1_7582">
<rect width="40" height="40" fill="white"/>
</clipPath>
</defs>
</svg>
