<svg width="40" height="40" viewBox="0 0 40 40" fill="none" xmlns="http://www.w3.org/2000/svg">
<g clip-path="url(#clip0_1_7954)">
<g clip-path="url(#clip1_1_7954)">
<path d="M40 0H0V40H40V0Z" fill="#164B35"/>
<path d="M33.43 26.8099C32.9 25.6599 32.26 24.6399 31.5 23.7799C31.99 23.2099 32.41 22.5699 32.74 21.8699C33.37 20.5599 33.72 19.0299 33.72 17.2299C33.72 15.4299 33.36 13.8599 32.72 12.5299C32.64 12.3599 32.53 12.1999 32.44 12.0399L30.46 1.35986L24.1 6.79986C22.84 6.56986 21.51 6.44986 20.14 6.44986C20.09 6.44986 20.05 6.44986 20 6.44986C19.95 6.44986 19.91 6.44986 19.86 6.44986C18.49 6.44986 17.16 6.56986 15.9 6.79986L9.53998 1.36986L7.55998 12.0399C7.46998 12.2099 7.36998 12.3599 7.27998 12.5399C6.64998 13.8599 6.27998 15.4199 6.27998 17.2399C6.27998 19.0599 6.63998 20.5699 7.25998 21.8799C7.59998 22.5799 8.01998 23.2199 8.49998 23.7899C7.72998 24.6499 7.08998 25.6699 6.56998 26.8199C5.38998 29.3099 4.72998 32.4899 4.72998 36.4999V40.1399H35.26V36.4999C35.26 32.4799 34.6 29.3099 33.42 26.8199L33.43 26.8099Z" fill="#FFC716"/>
<path d="M28.4699 39.2499C28.4699 34.4599 25.1799 31.3299 20.1699 31.3399C15.1599 31.3499 11.8599 34.4999 11.8599 39.2599C11.8599 39.5599 11.8699 39.8499 11.8999 40.1399H28.4399C28.4599 39.8499 28.4799 39.5599 28.4799 39.2599L28.4699 39.2499Z" fill="#FCA700"/>
<path d="M27.0599 14.9599C27.1899 14.9999 28.2999 14.8399 28.3699 14.6299C28.4699 14.3499 28.4499 14.0099 28.2199 13.6699C27.8999 13.3299 27.6499 13.4499 27.4499 13.2599C27.0999 12.9699 26.3999 12.5099 26.2199 12.4399C26.1899 12.4299 26.1699 12.4199 26.1399 12.4299C25.9199 12.4499 25.1399 12.5699 24.3799 12.8799C23.8599 13.1599 23.6199 13.4899 23.4999 13.6399C23.2399 14.0299 23.2299 14.4099 23.3799 14.7199C23.4599 14.8999 24.4299 15.0199 24.5599 14.9699C24.7999 14.8699 24.9399 14.8299 25.0099 14.7399C25.0499 14.6899 25.2899 14.8199 25.3799 14.8299C25.3999 14.8299 25.3999 14.8099 25.3999 14.7599C25.3999 14.5599 25.5399 14.4399 25.6699 14.4299C25.7999 14.3899 25.8999 14.4199 25.8999 14.4299C25.8999 14.4299 26.0499 14.4299 26.1999 14.4599C26.3499 14.4899 26.4799 14.5599 26.5399 14.6099C26.6399 14.6799 26.6699 14.7199 26.6899 14.7499C26.7599 14.8299 26.8699 14.8699 27.0599 14.9499V14.9599Z" fill="#101214"/>
<path d="M15.3699 14.9599C15.4999 14.9999 16.6099 14.8399 16.6799 14.6299C16.7799 14.3499 16.7599 14.0099 16.5299 13.6699C16.2099 13.3299 15.9599 13.4499 15.7599 13.2599C15.4099 12.9699 14.7099 12.5099 14.5299 12.4399C14.4999 12.4299 14.4799 12.4199 14.4499 12.4299C14.2299 12.4499 13.4499 12.5699 12.6899 12.8799C12.1699 13.1599 11.9299 13.4899 11.8099 13.6399C11.5499 14.0299 11.5399 14.4099 11.6899 14.7199C11.7699 14.8999 12.7399 15.0199 12.8699 14.9699C13.1099 14.8699 13.2499 14.8299 13.3199 14.7399C13.3599 14.6899 13.5999 14.8199 13.6899 14.8299C13.7099 14.8299 13.7099 14.8099 13.7099 14.7599C13.7099 14.5599 13.8499 14.4399 13.9899 14.4299C14.1199 14.3899 14.2199 14.4199 14.2199 14.4299C14.2199 14.4299 14.3699 14.4299 14.5199 14.4599C14.6699 14.4899 14.7999 14.5599 14.8599 14.6099C14.9599 14.6799 14.9899 14.7199 15.0099 14.7499C15.0799 14.8299 15.1899 14.8699 15.3799 14.9499L15.3699 14.9599Z" fill="#101214"/>
<path d="M13.7397 17.5901C13.5797 17.4301 12.4697 17.5901 12.4297 17.9201C12.3697 18.3701 12.4597 18.8801 12.8197 19.4101C13.2997 19.9601 13.6097 19.8801 13.9497 20.1701C14.5497 20.6501 15.7497 21.2301 16.0597 21.2801C16.0997 21.2901 16.1497 21.3001 16.1897 21.3001C16.3497 21.3001 16.7897 21.2801 17.3297 21.1701C17.8597 21.1101 18.5197 20.9101 19.1197 20.6401C19.9497 20.2001 20.3297 19.6901 20.4997 19.4501C20.9197 18.8501 20.9897 18.2701 20.8797 17.7701C20.8197 17.4801 19.8497 17.3701 19.6997 17.5201C19.4197 17.8101 19.2097 18.0401 18.9897 18.3401C18.8897 18.4701 18.5097 18.5201 18.1597 18.6601C18.0997 18.6801 18.0497 18.7301 18.0097 18.8001C17.8197 19.0901 17.4397 19.2701 17.1097 19.2901C16.7897 19.3501 16.5597 19.3201 16.5597 19.3101C16.5597 19.3101 16.4697 19.3101 16.3297 19.2901C16.1897 19.2901 15.9997 19.2801 15.7997 19.2301C15.3997 19.1501 15.0097 18.9501 14.8097 18.8001C14.4997 18.5801 14.4097 18.4201 14.3397 18.3301C14.1397 18.0601 13.9597 17.8401 13.7297 17.6001L13.7397 17.5901Z" fill="#101214"/>
<path d="M20.5698 17.5901C20.4098 17.4301 19.2998 17.5901 19.2598 17.9201C19.1998 18.3701 19.2898 18.8801 19.6498 19.4101C20.1298 19.9601 20.4398 19.8801 20.7798 20.1701C21.3798 20.6501 22.5798 21.2301 22.8898 21.2801C22.9298 21.2901 22.9798 21.3001 23.0298 21.3001C23.1898 21.3001 23.6298 21.2801 24.1698 21.1701C24.6998 21.1101 25.3598 20.9101 25.9598 20.6401C26.7898 20.2001 27.1698 19.6901 27.3398 19.4501C27.7598 18.8501 27.8298 18.2701 27.7198 17.7701C27.6598 17.4801 26.6898 17.3701 26.5398 17.5201C26.2598 17.8101 26.0498 18.0401 25.8298 18.3401C25.7298 18.4701 25.3498 18.5201 24.9998 18.6601C24.9398 18.6801 24.8898 18.7301 24.8498 18.8001C24.6598 19.0901 24.2798 19.2701 23.9498 19.2901C23.6298 19.3501 23.3998 19.3201 23.3998 19.3101C23.3998 19.3101 23.3098 19.3101 23.1698 19.2901C23.0298 19.2901 22.8398 19.2801 22.6398 19.2301C22.2398 19.1501 21.8498 18.9501 21.6498 18.8001C21.3398 18.5801 21.2498 18.4201 21.1798 18.3301C20.9798 18.0601 20.7998 17.8401 20.5698 17.6001V17.5901Z" fill="#101214"/>
<path d="M21.3998 15.0801H18.7998L20.0998 17.4801L21.3998 15.0801Z" fill="#164B35"/>
<path d="M9.53982 1.36963L10.7798 8.59963L7.81982 10.5396L9.53982 1.36963Z" fill="white"/>
<path d="M30.4402 1.36963L29.2002 8.59963L32.1602 10.5396L30.4402 1.36963Z" fill="white"/>
</g>
</g>
<defs>
<clipPath id="clip0_1_7954">
<rect width="40" height="40" fill="white"/>
</clipPath>
<clipPath id="clip1_1_7954">
<rect width="40" height="40" fill="white"/>
</clipPath>
</defs>
</svg>
