<svg width="40" height="40" viewBox="0 0 40 40" fill="none" xmlns="http://www.w3.org/2000/svg">
<g clip-path="url(#clip0_1_7839)">
<g clip-path="url(#clip1_1_7839)">
<path d="M39.9702 -0.0400391H-0.0297852V39.96H39.9702V-0.0400391Z" fill="#AE2A19"/>
<path d="M18.4999 -0.0400391L13.8999 14.62L27.0099 27.72L39.9699 23.65V-0.0400391H18.4999Z" fill="#D8A0F7"/>
<path d="M28.4998 29.2498L28.5098 29.2198L12.0698 12.7798L12.0398 12.7898L4.50977 36.7798L28.4998 29.2498Z" fill="white"/>
<path d="M4.50977 36.7798L20.9798 31.6098L9.67977 20.3198L4.50977 36.7798Z" fill="#BF63F3"/>
<path d="M19.8956 11.1839L17.2515 11.7305L17.7981 14.3746L20.4422 13.828L19.8956 11.1839Z" fill="#AE2A19"/>
<path d="M37.2027 15.8548L34.5586 16.4014L35.1052 19.0455L37.7493 18.4989L37.2027 15.8548Z" fill="#AE2A19"/>
<path d="M29.9797 23.7798C29.9997 23.6898 29.9997 23.5998 29.9997 23.4998C29.9997 23.3998 29.9997 23.3098 29.9797 23.2198C29.8897 22.6998 29.5297 22.3798 29.0197 22.2998C28.9297 22.2898 28.8397 22.2798 28.7497 22.2798C28.6597 22.2798 28.5597 22.2798 28.4697 22.2998C27.9597 22.3798 27.5997 22.6998 27.5097 23.2198C27.4897 23.3098 27.4897 23.3998 27.4897 23.4998C27.4897 23.5998 27.4897 23.6898 27.5097 23.7798C27.5997 24.2998 27.9597 24.6198 28.4697 24.6998C28.5597 24.7098 28.6497 24.7198 28.7497 24.7198C28.8497 24.7198 28.9397 24.7198 29.0197 24.6998C29.5297 24.6198 29.8897 24.2998 29.9797 23.7798Z" fill="white"/>
<path d="M36.9099 3.1001C36.9299 3.0101 36.9299 2.9201 36.9299 2.8201C36.9299 2.7201 36.9299 2.6301 36.9099 2.5401C36.8199 2.0201 36.4599 1.7001 35.9499 1.6201C35.8599 1.6101 35.7699 1.6001 35.6799 1.6001C35.5899 1.6001 35.4899 1.6001 35.3999 1.6201C34.8899 1.7001 34.5299 2.0201 34.4399 2.5401C34.4199 2.6301 34.4199 2.7201 34.4199 2.8201C34.4199 2.9201 34.4199 3.0101 34.4399 3.1001C34.5299 3.6201 34.8899 3.9401 35.3999 4.0201C35.4899 4.0301 35.5799 4.0401 35.6799 4.0401C35.7799 4.0401 35.8699 4.0401 35.9499 4.0201C36.4599 3.9401 36.8199 3.6201 36.9099 3.1001Z" fill="white"/>
<path d="M27.4099 10.9697C27.4299 10.8797 27.4299 10.7897 27.4299 10.6897C27.4299 10.5897 27.4299 10.4997 27.4099 10.4097C27.3199 9.88973 26.9599 9.56973 26.4499 9.48973C26.3599 9.47973 26.2699 9.46973 26.1799 9.46973C26.0899 9.46973 25.9899 9.46973 25.8999 9.48973C25.3899 9.56973 25.0299 9.88973 24.9399 10.4097C24.9199 10.4997 24.9199 10.5897 24.9199 10.6897C24.9199 10.7897 24.9199 10.8797 24.9399 10.9697C25.0299 11.4897 25.3899 11.8097 25.8999 11.8897C25.9899 11.8997 26.0799 11.9097 26.1799 11.9097C26.2799 11.9097 26.3699 11.9097 26.4499 11.8897C26.9599 11.8097 27.3199 11.4897 27.4099 10.9697Z" fill="white"/>
<path d="M23.8695 16.8101C23.3095 16.6601 22.8495 17.6801 23.2595 18.0101C23.8495 18.4901 24.5195 18.9901 25.5995 19.4301C26.2295 19.6401 26.6895 19.6601 27.0795 19.6701C27.4795 19.6501 27.8195 19.6301 28.3195 19.5501C29.1995 19.4301 30.2695 18.7701 30.8495 17.9401C31.1595 17.5301 31.3895 17.0801 31.5095 16.6401C31.6395 16.2001 31.6495 15.7701 31.5995 15.5101C31.5795 15.3601 31.5395 15.2101 31.4695 15.0601C31.2895 14.5101 30.0695 13.2001 28.3395 13.7901C27.5595 14.0701 26.9195 14.7001 26.6195 15.5201C26.3095 16.3501 26.4595 17.3401 26.9095 18.0401C27.5895 18.9901 28.3395 19.2901 28.8495 19.5501C29.3895 19.7901 29.7795 19.8901 30.0495 19.9601C31.3195 20.2801 32.2795 20.2501 33.1995 20.0801C33.7195 19.9701 33.6795 19.0001 33.2395 18.8801C32.4195 18.6301 31.5895 18.4401 30.5395 18.1601C30.3395 18.1001 30.0395 17.9501 29.7095 17.7301C29.3795 17.5201 29.0095 17.2101 28.8195 16.9401C28.7395 16.8501 28.7095 16.7901 28.6195 16.7201C28.4595 16.5701 28.3995 16.3501 28.4695 16.1001C28.5495 15.8601 28.7595 15.6501 28.9395 15.6001C29.2895 15.4701 29.5495 15.7601 29.5195 15.7201C29.5195 15.7201 29.5795 15.7601 29.6195 15.8601C29.6695 15.9401 29.6895 16.2401 29.5295 16.6201C29.3795 16.9901 29.0895 17.4001 28.7795 17.6201C28.4695 17.8701 28.1495 17.9601 27.8795 17.9901C27.0495 18.0501 26.5295 17.7701 26.2595 17.7001C25.3795 17.3601 24.6395 17.0301 23.8695 16.8301V16.8101Z" fill="#101214"/>
<path d="M22.38 9.55992C22.59 9.72992 23.6 9.23992 23.59 8.95992C23.58 8.56992 23.58 8.32992 23.59 8.14992C23.54 7.92992 23.38 7.71992 23.5 7.52992C23.59 7.34992 23.79 7.25992 24.06 7.19992C24.33 7.13992 24.71 7.07992 24.87 7.02992C24.92 7.01992 24.96 6.99992 25 6.96992C25.12 6.85992 25.61 6.54992 25.98 5.90992C26.31 5.29992 26.53 4.53992 26.42 3.71992C26.31 3.16992 26.13 2.84992 26.03 2.63992C25.94 2.45992 25.88 2.31992 25.83 2.22992C25.69 1.88992 25.58 1.82992 25.44 1.48992C25.36 1.32992 24.46 0.93992 24.27 1.18992C23.92 1.58992 23.82 2.32992 24.11 2.96992C24.19 3.19992 24.25 3.81992 24.26 4.07992C24.26 4.12992 24.28 4.14992 24.33 4.18992C24.53 4.31992 24.5 4.71992 24.39 4.89992C24.3 5.07992 24.13 5.15992 24.13 5.15992C24.13 5.15992 23.94 5.29992 23.43 5.53992C23.18 5.66992 22.86 5.84992 22.58 6.10992C22.3 6.35992 22.11 6.67992 22 6.89992C21.7 7.56992 21.71 7.95992 21.71 8.18992C21.74 8.91992 22.08 9.34992 22.37 9.57992L22.38 9.55992Z" fill="#101214"/>
<path d="M39.3596 7.45002C39.4196 7.17002 38.5296 6.50002 38.2796 6.65002C37.9196 6.86002 37.6896 6.99002 37.4896 7.08002C37.2796 7.24002 37.1496 7.48002 36.8996 7.46002C36.6796 7.46002 36.4696 7.31002 36.2796 7.09002C36.0796 6.86002 35.8396 6.54002 35.7096 6.41002C35.6696 6.37002 35.6396 6.34002 35.5896 6.32002C35.4296 6.25002 34.9096 5.95002 34.1296 5.91002C33.7496 5.90002 33.3796 5.93002 32.9996 6.03002C32.6196 6.13002 32.2096 6.30002 31.8696 6.54002C31.4096 6.90002 31.1996 7.23002 31.0396 7.43002C30.9096 7.61002 30.8096 7.74002 30.7396 7.83002C30.4796 8.14002 30.4496 8.28002 30.1796 8.57002C30.0596 8.72002 30.1296 9.69002 30.4496 9.74002C30.9896 9.86002 31.7296 9.59002 32.1796 9.02002C32.3596 8.83002 32.8996 8.47002 33.1596 8.31002C33.1996 8.28002 33.2296 8.25002 33.2396 8.18002C33.2896 7.93002 33.6996 7.77002 33.9296 7.78002C34.1596 7.78002 34.3196 7.91002 34.3196 7.91002C34.3196 7.91002 34.5596 8.03002 35.0296 8.40002C35.2696 8.57002 35.5996 8.79002 35.9796 8.92002C36.3496 9.06002 36.7296 9.08002 36.9896 9.08002C37.7596 9.04002 38.1196 8.84002 38.3396 8.73002C39.0096 8.35002 39.2396 7.83002 39.3396 7.44002L39.3596 7.45002Z" fill="#101214"/>
<path d="M12.4199 13.9997C12.6899 12.7497 11.6299 12.4197 11.1299 13.5997C10.4299 15.2697 9.77992 17.0597 9.03992 19.3797C8.25992 22.0297 8.27992 22.7597 7.68992 24.5397C6.73992 27.5597 4.84992 32.5597 4.38992 33.7697C4.31992 33.9497 4.25992 34.1297 4.20992 34.3097C4.06992 34.7697 3.83992 35.5197 2.91992 38.5397C3.82992 38.2397 6.02992 37.4997 8.76992 36.5797C10.5499 35.9897 12.6899 35.2997 14.7099 34.6997C18.1799 33.5997 20.3199 32.9197 21.4399 32.5597C24.0799 31.7097 26.0299 30.9797 27.8999 30.1597C28.9299 29.7097 28.6399 28.7897 27.5399 29.0097C25.5299 29.4197 23.5199 29.9397 20.8699 30.7697C19.8399 31.0897 17.6199 31.5197 14.5799 32.4297C14.0799 32.5797 13.5999 32.7497 13.1199 32.9497C11.5499 33.5897 9.77992 34.2297 8.19992 34.7697C7.53992 34.9897 6.91992 35.1997 6.37992 35.3797C6.19992 35.4397 6.03992 35.4897 5.92992 35.5197C5.98992 35.3597 6.01992 35.2697 6.01992 35.2697C6.01992 35.2697 8.38992 27.7397 9.38992 24.5597C10.1999 21.9597 10.5899 20.7097 10.8399 19.9397C11.5599 17.6097 12.0499 15.7697 12.4299 13.9997H12.4199Z" fill="#101214"/>
<path d="M27.7199 29.71C28.2299 30.05 29.0399 29.28 28.6899 28.77C28.1999 28.05 27.6199 27.35 26.8099 26.53C25.8399 25.64 25.4399 25.57 24.8299 24.93C23.7599 23.87 22.1799 21.87 21.7999 21.38C21.7399 21.31 21.6799 21.24 21.6099 21.18C21.1199 20.75 18.9799 18.87 17.2999 17.09C16.0699 15.87 15.3099 15.12 14.9099 14.73C13.9699 13.81 13.1899 13.19 12.3499 12.66C11.8899 12.37 11.2199 13.07 11.5099 13.53C12.0499 14.36 12.6699 15.14 13.5899 16.07C13.9499 16.43 14.5199 17.37 15.5599 18.46C15.7299 18.64 15.9199 18.8 16.1199 18.94C17.8599 20.16 19.7199 22.15 19.7199 22.15C19.7199 22.15 22.5999 25.01 23.8199 26.22C24.7399 27.13 25.1799 27.56 25.4499 27.83C26.2799 28.64 26.9799 29.21 27.6999 29.7L27.7199 29.71Z" fill="#101214"/>
</g>
</g>
<defs>
<clipPath id="clip0_1_7839">
<rect width="40" height="40" fill="white"/>
</clipPath>
<clipPath id="clip1_1_7839">
<rect width="40" height="40" fill="white"/>
</clipPath>
</defs>
</svg>
