<svg width="40" height="40" viewBox="0 0 40 40" fill="none" xmlns="http://www.w3.org/2000/svg">
<g clip-path="url(#clip0_1_7820)">
<g clip-path="url(#clip1_1_7820)">
<path d="M40 0H0V40H40V0Z" fill="#1868DB"/>
<path d="M39.9998 0H3.31982C6.66982 6.84 13.3098 17.81 22.6098 21.2C29.6898 23.78 35.0098 23.65 39.9998 21.97V0Z" fill="#669DF1"/>
<path d="M28.5597 23.0198C32.7516 23.0198 36.1497 19.6217 36.1497 15.4298C36.1497 11.238 32.7516 7.83984 28.5597 7.83984C24.3679 7.83984 20.9697 11.238 20.9697 15.4298C20.9697 19.6217 24.3679 23.0198 28.5597 23.0198Z" fill="#FCA700"/>
<path d="M29.9698 19.3297C29.8498 19.3297 29.7398 19.3297 29.6298 19.3297C27.8898 13.7997 24.2298 11.4897 18.7798 11.4897C12.4998 11.4897 8.49984 14.6297 7.16984 22.2997C7.15984 22.2997 7.14984 22.2997 7.12984 22.2997C4.23984 22.2997 2.19984 24.5297 1.58984 28.7497H38.0598C37.1798 22.5697 34.1898 19.3197 29.9698 19.3197V19.3297Z" fill="white"/>
<path d="M14.67 22.0897C14.5 21.9897 13.41 22.2497 13.42 22.6097C13.44 23.0797 13.66 23.6097 14.15 24.0097C14.75 24.4097 15 24.2397 15.37 24.4397C16.01 24.7297 17.1 25.1797 17.38 25.2597C17.42 25.2697 17.46 25.2797 17.5 25.2797C17.81 25.2497 19.01 25.1497 20.18 24.8697C20.99 24.6097 21.46 24.2497 21.68 24.0697C22.21 23.6197 22.41 23.1197 22.45 22.6297C22.47 22.3497 21.59 21.9397 21.41 22.0297C21.06 22.2097 20.8 22.3797 20.5 22.6097C20.37 22.7097 20 22.6597 19.6 22.7397C19.53 22.7597 19.47 22.7897 19.41 22.8497C19.15 23.1097 18.74 23.2297 18.41 23.2597C18.07 23.2997 17.83 23.2597 17.83 23.2597C17.83 23.2597 17.46 23.2597 17.04 23.1997C16.62 23.1497 16.16 23.0097 15.92 22.8997C15.56 22.7397 15.43 22.6297 15.35 22.5597C15.1 22.3697 14.92 22.2397 14.67 22.0697V22.0897Z" fill="#101214"/>
<path d="M13.4901 19.4898C13.6101 19.5198 14.7001 19.7598 14.8301 19.6398C15.0101 19.4898 15.1001 19.2798 15.0601 19.0098C14.9201 18.6998 14.6701 18.7298 14.5801 18.5398C14.4801 18.3898 14.3401 18.1498 14.1601 17.9598C13.9801 17.7698 13.7901 17.6298 13.7201 17.5898C13.7001 17.5798 13.6801 17.5698 13.6501 17.5698C13.4801 17.5998 12.8101 17.6598 12.1901 18.1298C11.8101 18.5098 11.7701 18.8098 11.7201 18.9298C11.6501 19.2498 11.7701 19.4698 12.0001 19.6298C12.1301 19.7198 13.0801 19.5198 13.2001 19.4898C13.3901 19.4198 13.5701 19.4198 13.4901 19.3998C13.4401 19.3998 13.3201 19.3298 13.3001 19.3098C13.3001 19.3098 13.3501 19.3998 13.3801 19.5398C13.3801 19.5298 13.3901 19.5398 13.3901 19.5398C13.3901 19.5398 13.4101 19.4098 13.4301 19.3698C13.4701 19.2698 13.4901 19.2898 13.4301 19.3198C13.3701 19.3598 13.2801 19.3898 13.2401 19.3898C13.2201 19.3898 13.3301 19.4098 13.4901 19.4598V19.4898Z" fill="#101214"/>
<path d="M22.2601 19.4898C22.3801 19.5198 23.4701 19.7598 23.6001 19.6398C23.7801 19.4898 23.8701 19.2798 23.8301 19.0098C23.6901 18.6998 23.4401 18.7298 23.3501 18.5398C23.2501 18.3898 23.1101 18.1498 22.9301 17.9598C22.7501 17.7698 22.5601 17.6298 22.4901 17.5898C22.4701 17.5798 22.4501 17.5698 22.4201 17.5698C22.2501 17.5998 21.5801 17.6598 20.9601 18.1298C20.5801 18.5098 20.5401 18.8098 20.4901 18.9298C20.4201 19.2498 20.5401 19.4698 20.7701 19.6298C20.9001 19.7198 21.8501 19.5198 21.9701 19.4898C22.1601 19.4198 22.3401 19.4198 22.2601 19.3998C22.2101 19.3998 22.0901 19.3298 22.0701 19.3098C22.0701 19.3098 22.1201 19.3998 22.1501 19.5398C22.1501 19.5298 22.1601 19.5398 22.1601 19.5398C22.1601 19.5398 22.1801 19.4098 22.2001 19.3698C22.2401 19.2698 22.2601 19.2898 22.2001 19.3198C22.1401 19.3598 22.0501 19.3898 22.0101 19.3898C21.9901 19.3898 22.1001 19.4098 22.2601 19.4598V19.4898Z" fill="#101214"/>
<path d="M5.8999 23.0799C6.6699 22.8099 7.1299 22.5599 7.1399 22.2299C7.1499 21.9499 6.6199 21.5599 5.5299 21.7799C3.9799 22.1199 2.6199 23.3099 1.8299 24.7699C1.6299 25.1399 1.4399 25.5199 1.2899 25.9199C1.2099 26.1199 1.1299 26.3199 1.0799 26.5299L0.979902 26.8399L0.929902 26.9999L0.869902 27.2499C0.709902 27.9599 0.569902 28.7099 0.439902 29.4999L0.409902 29.6499C0.409902 29.6499 0.369902 29.7699 0.449902 29.7499H0.749902L1.3499 29.7699C1.7499 29.7799 2.1799 29.7699 2.5999 29.7799C3.1799 29.7799 3.7199 29.7599 4.1999 29.7499C4.6299 29.7399 5.0099 29.7199 5.3699 29.7099C6.0899 29.6699 6.6899 29.6499 7.2499 29.6199C8.3699 29.5599 9.3199 29.5099 10.7099 29.5199C15.4099 29.5199 23.3399 29.8299 25.2499 29.9099C25.5299 29.9199 25.8199 29.9199 26.0999 29.9099C27.1099 29.8899 29.8399 29.8499 33.2699 29.7999C34.1299 29.7999 35.0299 29.7799 35.9599 29.7799C36.6199 29.7799 37.2899 29.7799 37.9799 29.7799C38.4099 29.7599 38.8999 29.7999 39.2699 29.7399C39.1899 29.2999 39.1199 28.8499 39.0399 28.4099C38.9599 27.9799 38.8999 27.4899 38.7999 27.1099L38.6299 26.3599C38.4799 25.8599 38.3599 25.3599 38.1699 24.8699C37.8299 23.8799 37.3799 22.9099 36.7899 22.0299C36.0399 20.8899 34.9999 19.8599 33.7199 19.2099C33.0899 18.8599 32.3999 18.6499 31.7099 18.4799C31.3599 18.4299 31.0099 18.3499 30.6599 18.3399H30.4299L30.3699 18.3299L30.2799 18.0799C30.2599 18.0099 30.2799 18.0399 30.2099 17.8999L30.0499 17.5199C29.8499 17.0099 29.5899 16.5199 29.3299 16.0299C28.2099 14.0899 26.6499 12.6499 24.9799 11.8899C23.3199 11.0899 21.6599 10.8799 20.0799 10.8599C18.3299 10.8999 18.4099 11.8799 19.9899 12.0599C22.8499 12.4799 25.7899 13.5799 27.6999 16.9499C27.8399 17.2299 28.0299 17.5699 28.1899 18.0099C28.2799 18.2599 28.3499 18.4199 28.4799 18.7999C28.6299 19.2599 28.7899 19.7599 28.9599 20.2999C29.3099 20.2999 29.6999 20.2999 30.1099 20.3199C30.2499 20.3299 30.3899 20.3399 30.5299 20.3599C30.6299 20.3599 30.7299 20.3899 30.8299 20.4099C31.2299 20.4799 31.6599 20.5999 32.0899 20.7799C32.9399 21.1399 33.8199 21.7299 34.5399 22.6699C34.9699 23.1699 35.3099 23.7699 35.6699 24.3499C36.0199 25.0099 36.3599 25.7299 36.5899 26.5099C36.6599 26.6999 36.7199 26.8999 36.7699 27.0999L36.8499 27.3999L36.8899 27.5499V27.5899C36.9299 27.6699 36.9599 27.7599 36.9899 27.8599L36.7199 27.8899C36.3199 27.8899 35.9299 27.8999 35.5399 27.9099C34.7199 27.9099 33.9299 27.9299 33.1899 27.9299C30.2399 27.9299 28.0999 27.9299 28.0999 27.9299C28.0999 27.9299 15.3699 27.9299 9.9999 27.9299C6.0399 27.9299 4.1399 27.9299 2.9699 27.9299C2.8699 27.9099 2.6799 27.9699 2.6399 27.8999C2.6499 27.7899 2.6699 27.6699 2.6999 27.5299C2.6999 27.5199 2.7199 27.4299 2.7499 27.3299L2.8199 27.0599C2.8599 26.8799 2.9199 26.7099 2.9799 26.5399C3.0899 26.1999 3.2199 25.8799 3.3699 25.5799C3.9499 24.3699 4.8099 23.4799 5.9099 23.0799H5.8999Z" fill="#101214"/>
</g>
</g>
<defs>
<clipPath id="clip0_1_7820">
<rect width="40" height="40" fill="white"/>
</clipPath>
<clipPath id="clip1_1_7820">
<rect width="40" height="40" fill="white"/>
</clipPath>
</defs>
</svg>
