<svg width="40" height="40" viewBox="0 0 40 40" fill="none" xmlns="http://www.w3.org/2000/svg">
<g clip-path="url(#clip0_1_7768)">
<g clip-path="url(#clip1_1_7768)">
<path d="M0 40L40 40L40 0L0 0L0 40Z" fill="#1868DB"/>
<path d="M40.16 3.91016H9.45996V40.0002H40.16V3.91016Z" fill="white"/>
<path d="M40.16 7.72021V9.37021H12.73L32.01 40.0002H40.16V7.72021Z" fill="#1868DB"/>
<path d="M40.16 3.91016H9.45996V9.37016H40.16V3.91016Z" fill="#09326C"/>
<path d="M27.6601 15.3603C28.0501 15.2403 28.0501 14.1303 27.6601 14.0103C27.1101 13.8403 26.5301 13.7603 25.7901 13.7503C24.9501 13.8003 24.7401 14.0303 24.1701 14.0103C23.2101 14.0103 21.5801 13.7003 21.1901 13.6203C21.1301 13.6103 21.0701 13.6103 21.0201 13.6203C20.6001 13.6603 18.7801 13.8303 17.2101 13.7503C16.1001 13.7503 15.4201 13.7503 15.0601 13.7503C14.2101 13.7503 13.5801 13.8703 12.9601 14.0803C12.6201 14.2003 12.6201 15.1703 12.9601 15.2803C13.5801 15.4903 14.2101 15.6103 15.0601 15.6103C15.3901 15.6103 16.0701 15.8803 17.0401 15.9203C17.2001 15.9203 17.3501 15.9103 17.5101 15.8703C18.8601 15.5103 20.6101 15.6103 20.6101 15.6103C20.6101 15.6103 23.2201 15.6103 24.3201 15.6103C25.1501 15.6103 25.5501 15.6103 25.7901 15.6103C26.5301 15.6103 27.1101 15.5103 27.6601 15.3503V15.3603Z" fill="#101214"/>
<path d="M39.8 15.3603C40 15.2403 40 14.1303 39.8 14.0103C39.52 13.8403 39.22 13.7603 38.84 13.7503C38.41 13.8003 38.3 14.0303 38 14.0103C37.5 14.0103 36.67 13.7003 36.46 13.6203C36.43 13.6103 36.4 13.6103 36.37 13.6203C36.16 13.6603 35.22 13.8303 34.41 13.7503C33.84 13.7503 33.49 13.7503 33.3 13.7503C32.86 13.7503 32.54 13.8703 32.22 14.0803C32.04 14.2003 32.04 15.1703 32.22 15.2803C32.54 15.4903 32.86 15.6103 33.3 15.6103C33.47 15.6103 33.82 15.8803 34.32 15.9203C34.4 15.9203 34.48 15.9103 34.56 15.8703C35.25 15.5103 36.15 15.6103 36.15 15.6103C36.15 15.6103 37.49 15.6103 38.06 15.6103C38.49 15.6103 38.69 15.6103 38.82 15.6103C39.2 15.6103 39.5 15.5103 39.78 15.3503L39.8 15.3603Z" fill="#101214"/>
<path d="M23.3801 23.6401C22.9501 23.7601 22.9501 24.8701 23.3801 24.9901C23.9901 25.1601 24.6301 25.2401 25.4501 25.2501C26.3801 25.2001 26.6101 24.9701 27.2501 24.9901C28.3201 24.9901 30.1201 25.3001 30.5501 25.3801C30.6101 25.3901 30.6801 25.3901 30.7401 25.3801C31.2001 25.3401 33.2201 25.1701 34.9501 25.2501C36.1801 25.2501 36.9401 25.2501 37.3301 25.2501C38.2701 25.2501 38.9701 25.1301 39.6501 24.9201C40.0301 24.8001 40.0301 23.8301 39.6501 23.7201C38.9601 23.5101 38.2601 23.3901 37.3301 23.3901C36.9701 23.3901 36.2101 23.1201 35.1401 23.0801C34.9701 23.0801 34.7901 23.0901 34.6201 23.1301C33.1301 23.4901 31.1901 23.3901 31.1901 23.3901C31.1901 23.3901 28.3001 23.3901 27.0801 23.3901C26.1601 23.3901 25.7201 23.3901 25.4501 23.3901C24.6301 23.3901 23.9901 23.4901 23.3801 23.6501V23.6401Z" fill="#101214"/>
<path d="M34.4702 33.0703C34.3302 33.1903 34.3302 34.3003 34.4702 34.4203C34.6702 34.5903 34.8702 34.6703 35.1402 34.6803C35.4402 34.6303 35.5102 34.4003 35.7202 34.4203C36.0602 34.4203 36.6402 34.7303 36.7802 34.8103C36.8002 34.8203 36.8202 34.8203 36.8402 34.8103C36.9902 34.7703 37.6402 34.6003 38.2002 34.6803C38.5902 34.6803 38.8402 34.6803 38.9702 34.6803C39.2702 34.6803 39.5002 34.5603 39.7202 34.3503C39.8402 34.2303 39.8402 33.2603 39.7202 33.1503C39.5002 32.9403 39.2702 32.8203 38.9702 32.8203C38.8502 32.8203 38.6102 32.5503 38.2602 32.5103C38.2002 32.5103 38.1502 32.5203 38.0902 32.5603C37.6102 32.9203 36.9902 32.8203 36.9902 32.8203C36.9902 32.8203 36.0602 32.8203 35.6702 32.8203C35.3702 32.8203 35.2302 32.8203 35.1402 32.8203C34.8802 32.8203 34.6702 32.9203 34.4702 33.0803V33.0703Z" fill="#101214"/>
<path d="M23.19 33.0703C23.02 33.1903 23.02 34.3003 23.19 34.4203C23.44 34.5903 23.69 34.6703 24.02 34.6803C24.4 34.6303 24.49 34.4003 24.74 34.4203C25.17 34.4203 25.89 34.7303 26.07 34.8103C26.1 34.8203 26.12 34.8203 26.15 34.8103C26.34 34.7703 27.15 34.6003 27.85 34.6803C28.34 34.6803 28.65 34.6803 28.81 34.6803C29.19 34.6803 29.47 34.5603 29.74 34.3503C29.89 34.2303 29.89 33.2603 29.74 33.1503C29.46 32.9403 29.18 32.8203 28.81 32.8203C28.66 32.8203 28.36 32.5503 27.93 32.5103C27.86 32.5103 27.79 32.5203 27.72 32.5603C27.12 32.9203 26.34 32.8203 26.34 32.8203C26.34 32.8203 25.18 32.8203 24.69 32.8203C24.32 32.8203 24.14 32.8203 24.03 32.8203C23.7 32.8203 23.44 32.9203 23.2 33.0803L23.19 33.0703Z" fill="#101214"/>
<path d="M12.8099 33.0903C12.6499 33.2103 12.6499 34.3203 12.8099 34.4403C13.0299 34.6103 13.2699 34.6903 13.5699 34.7003C13.9099 34.6503 13.9999 34.4203 14.2299 34.4403C14.6199 34.4403 15.2899 34.7503 15.4499 34.8303C15.4699 34.8403 15.4999 34.8403 15.5199 34.8303C15.6899 34.7903 16.4299 34.6203 17.0699 34.7003C17.5199 34.7003 17.7999 34.7003 17.9499 34.7003C18.2899 34.7003 18.5499 34.5803 18.7999 34.3703C18.9399 34.2503 18.9399 33.2803 18.7999 33.1703C18.5499 32.9603 18.2899 32.8403 17.9499 32.8403C17.8199 32.8403 17.5399 32.5703 17.1399 32.5303C17.0799 32.5303 17.0099 32.5403 16.9499 32.5803C16.3999 32.9403 15.6899 32.8403 15.6899 32.8403C15.6899 32.8403 14.6299 32.8403 14.1799 32.8403C13.8399 32.8403 13.6799 32.8403 13.5799 32.8403C13.2799 32.8403 13.0399 32.9403 12.8199 33.1003L12.8099 33.0903Z" fill="#101214"/>
<path d="M12.8099 23.6704C12.6499 23.7904 12.6499 24.9004 12.8099 25.0204C13.0299 25.1904 13.2699 25.2704 13.5699 25.2804C13.9099 25.2304 13.9999 25.0004 14.2299 25.0204C14.6199 25.0204 15.2899 25.3304 15.4499 25.4104C15.4699 25.4204 15.4999 25.4204 15.5199 25.4104C15.6899 25.3704 16.4299 25.2004 17.0699 25.2804C17.5199 25.2804 17.7999 25.2804 17.9499 25.2804C18.2899 25.2804 18.5499 25.1604 18.7999 24.9504C18.9399 24.8304 18.9399 23.8604 18.7999 23.7504C18.5499 23.5404 18.2899 23.4204 17.9499 23.4204C17.8199 23.4204 17.5399 23.1504 17.1399 23.1104C17.0799 23.1104 17.0099 23.1204 16.9499 23.1604C16.3999 23.5204 15.6899 23.4204 15.6899 23.4204C15.6899 23.4204 14.6299 23.4204 14.1799 23.4204C13.8399 23.4204 13.6799 23.4204 13.5799 23.4204C13.2799 23.4204 13.0399 23.5204 12.8199 23.6804L12.8099 23.6704Z" fill="#101214"/>
<path d="M14.2701 6.24025C14.2301 6.14025 14.1801 6.04025 14.1201 5.94025C14.0601 5.84025 13.9901 5.75025 13.9201 5.66025C13.5001 5.18025 12.9301 5.06025 12.3501 5.29025C12.2501 5.33025 12.1501 5.38025 12.0501 5.44025C11.9501 5.50025 11.8501 5.57025 11.7701 5.64025C11.2901 6.04025 11.1101 6.60025 11.3401 7.19025C11.3801 7.29025 11.4301 7.39025 11.4901 7.50025C11.5501 7.61025 11.6101 7.69025 11.6801 7.77025C12.1001 8.25025 12.6701 8.36025 13.2501 8.14025C13.3501 8.10025 13.4601 8.05025 13.5601 7.99025C13.6601 7.93025 13.7501 7.87025 13.8301 7.80025C14.3101 7.40025 14.4901 6.84025 14.2601 6.25025L14.2701 6.24025Z" fill="#BF63F3"/>
<path d="M20.0601 6.24025C20.0201 6.14025 19.9701 6.04025 19.9101 5.94025C19.8501 5.84025 19.7801 5.75025 19.7101 5.66025C19.2901 5.18025 18.7201 5.06025 18.1401 5.29025C18.0401 5.33025 17.9401 5.38025 17.8401 5.44025C17.7401 5.50025 17.6401 5.57025 17.5601 5.64025C17.0801 6.04025 16.9001 6.60025 17.1301 7.19025C17.1701 7.29025 17.2201 7.39025 17.2801 7.50025C17.3401 7.61025 17.4001 7.69025 17.4701 7.77025C17.8901 8.25025 18.4601 8.36025 19.0401 8.14025C19.1401 8.10025 19.2501 8.05025 19.3501 7.99025C19.4501 7.93025 19.5401 7.87025 19.6201 7.80025C20.1001 7.40025 20.2801 6.84025 20.0501 6.25025L20.0601 6.24025Z" fill="#1868DB"/>
<path d="M25.8599 6.24025C25.8199 6.14025 25.7699 6.04025 25.7099 5.94025C25.6499 5.84025 25.5799 5.75025 25.5099 5.66025C25.0899 5.18025 24.5199 5.06025 23.9399 5.29025C23.8399 5.33025 23.7399 5.38025 23.6399 5.44025C23.5399 5.50025 23.4399 5.57025 23.3599 5.64025C22.8799 6.04025 22.6999 6.60025 22.9299 7.19025C22.9699 7.29025 23.0199 7.39025 23.0799 7.50025C23.1399 7.61025 23.1999 7.69025 23.2699 7.77025C23.6899 8.25025 24.2599 8.36025 24.8399 8.14025C24.9399 8.10025 25.0499 8.05025 25.1499 7.99025C25.2499 7.93025 25.3399 7.87025 25.4199 7.80025C25.8999 7.40025 26.0799 6.84025 25.8499 6.25025L25.8599 6.24025Z" fill="white"/>
</g>
</g>
<defs>
<clipPath id="clip0_1_7768">
<rect width="40" height="40" fill="white"/>
</clipPath>
<clipPath id="clip1_1_7768">
<rect width="40" height="40" fill="white"/>
</clipPath>
</defs>
</svg>
