<svg width="40" height="40" viewBox="0 0 40 40" fill="none" xmlns="http://www.w3.org/2000/svg">
<g clip-path="url(#clip0_1_7598)">
<g clip-path="url(#clip1_1_7598)">
<path d="M40 0H0V40H40V0Z" fill="#1868DB"/>
<path d="M38.9202 24.2C39.1502 22.89 39.2802 21.5 39.2802 20.02C39.2802 18.54 39.1602 17.11 38.9202 15.79C37.5002 7.89996 32.0202 3.02996 24.3302 1.77996C23.0202 1.56996 21.6402 1.45996 20.2102 1.45996C18.7802 1.45996 17.2902 1.57996 15.9202 1.80996C8.22021 3.08996 2.75021 7.93996 1.33021 15.79C1.09021 17.12 0.970215 18.53 0.970215 20.02C0.970215 21.51 1.09021 22.89 1.33021 24.2C2.74021 32.04 8.22021 36.9 15.9202 38.18C17.2802 38.41 18.7202 38.53 20.2102 38.53C21.7002 38.53 23.0202 38.42 24.3302 38.21C32.0302 36.96 37.5202 32.08 38.9302 24.2H38.9202Z" fill="#09326C"/>
<path d="M35.8701 23.51C36.0701 22.41 36.1701 21.25 36.1701 20.01C36.1701 18.77 36.0701 17.58 35.8701 16.47C34.6801 9.85996 30.0901 5.77996 23.6501 4.72996C22.5501 4.54996 21.4001 4.45996 20.2001 4.45996C19.0001 4.45996 17.7501 4.55996 16.6101 4.74996C10.1601 5.82996 5.58008 9.88996 4.39008 16.47C4.19008 17.58 4.08008 18.76 4.08008 20.01C4.08008 21.26 4.18008 22.41 4.38008 23.51C5.56008 30.08 10.1501 34.15 16.6101 35.23C17.7501 35.42 18.9501 35.52 20.2001 35.52C21.4501 35.52 22.5501 35.43 23.6501 35.25C30.1001 34.2 34.7001 30.12 35.8801 23.51H35.8701Z" fill="#AE2A19"/>
<path d="M33.2602 22.9298C33.4202 22.0098 33.5102 21.0398 33.5102 20.0098C33.5102 18.9798 33.4202 17.9798 33.2602 17.0498C32.2702 11.5298 28.4402 8.12979 23.0602 7.25979C22.1402 7.10979 21.1802 7.02979 20.1802 7.02979C19.1802 7.02979 18.1402 7.10978 17.1802 7.26978C11.8002 8.16978 7.98023 11.5598 6.99023 17.0398C6.82023 17.9698 6.74023 18.9498 6.74023 19.9998C6.74023 21.0498 6.83023 21.9998 6.99023 22.9198C7.98023 28.3998 11.8002 31.7998 17.1902 32.6898C18.1402 32.8498 19.1402 32.9298 20.1902 32.9298C21.2402 32.9298 22.1502 32.8498 23.0702 32.6998C28.4502 31.8198 32.2902 28.4198 33.2702 22.9098L33.2602 22.9298Z" fill="white"/>
<path d="M20.7104 8.47996C20.5904 7.86996 19.4804 7.86996 19.3604 8.47996C19.1904 9.33996 19.1104 10.25 19.1004 11.42C19.1504 12.74 19.3804 13.07 19.3604 13.97C19.3604 15.48 19.0504 18.04 18.9704 18.65C18.9604 18.74 18.9604 18.83 18.9704 18.92C19.0104 19.57 19.1804 22.43 19.1004 24.89C19.1004 26.63 19.1004 27.7 19.1004 28.27C19.1004 29.6 19.2204 30.59 19.4304 31.56C19.5504 32.09 20.5204 32.09 20.6304 31.56C20.8404 30.59 20.9604 29.59 20.9604 28.27C20.9604 27.75 21.2304 26.68 21.2704 25.16C21.2704 24.91 21.2604 24.67 21.2204 24.42C20.8604 22.3 20.9604 19.56 20.9604 19.56C20.9604 19.56 20.9604 15.46 20.9604 13.73C20.9604 12.43 20.9604 11.8 20.9604 11.42C20.9604 10.25 20.8604 9.34996 20.7004 8.47996H20.7104Z" fill="#101214"/>
<path d="M31.63 20.58C32.24 20.46 32.24 19.35 31.63 19.23C30.77 19.06 29.86 18.98 28.69 18.97C27.37 19.02 27.04 19.25 26.14 19.23C24.63 19.23 22.07 18.92 21.46 18.84C21.37 18.83 21.28 18.83 21.19 18.84C20.54 18.88 17.68 19.05 15.22 18.97C13.48 18.97 12.41 18.97 11.84 18.97C10.51 18.97 9.52002 19.09 8.55002 19.3C8.01002 19.42 8.01002 20.39 8.55002 20.5C9.52002 20.71 10.52 20.83 11.84 20.83C12.36 20.83 13.43 21.1 14.95 21.14C15.2 21.14 15.44 21.13 15.69 21.09C17.81 20.73 20.55 20.83 20.55 20.83C20.55 20.83 24.65 20.83 26.38 20.83C27.68 20.83 28.31 20.83 28.69 20.83C29.86 20.83 30.76 20.73 31.63 20.57V20.58Z" fill="#101214"/>
<path d="M11.9204 28.4498C15.8004 26.8798 19.5404 24.2598 22.9704 22.3098C24.9204 18.8898 27.5404 15.1398 29.1104 11.2598C25.1504 12.5298 21.3804 15.1398 17.9504 17.2898C15.8004 20.7198 13.1904 24.4898 11.9204 28.4498Z" fill="#1868DB"/>
</g>
</g>
<defs>
<clipPath id="clip0_1_7598">
<rect width="40" height="40" fill="white"/>
</clipPath>
<clipPath id="clip1_1_7598">
<rect width="40" height="40" fill="white"/>
</clipPath>
</defs>
</svg>
