<svg width="40" height="40" viewBox="0 0 40 40" fill="none" xmlns="http://www.w3.org/2000/svg">
<g clip-path="url(#clip0_1_8140)">
<g clip-path="url(#clip1_1_8140)">
<path d="M40 0H0V40H40V0Z" fill="#82B536"/>
<path d="M3.91016 10.4702V40.0002H36.2602C34.9402 35.8402 34.2502 31.2902 34.2502 26.3802C34.2502 20.8102 35.1702 15.2402 36.9502 10.4702H3.91016Z" fill="white"/>
<path d="M27.69 12.8602C28.11 12.9702 28.57 13.0302 29.05 13.0302C29.53 13.0302 29.95 12.9802 30.35 12.8702C31.22 12.6302 31.94 12.1302 32.29 11.3002C32.45 10.9302 32.54 10.4902 32.54 9.98016C32.54 9.47016 32.45 9.02016 32.28 8.64016C31.92 7.81016 31.21 7.30016 30.34 7.07016C29.93 6.96016 29.49 6.91016 29.04 6.91016C28.56 6.91016 28.1 6.96016 27.68 7.08016C26.8 7.32016 26.09 7.82016 25.74 8.65016C25.58 9.03016 25.48 9.47016 25.48 9.99016C25.48 10.5102 25.57 10.9402 25.73 11.3102C26.09 12.1402 26.79 12.6402 27.68 12.8802L27.69 12.8602Z" fill="#FCA700"/>
<path d="M22.44 12.8602C22.86 12.9702 23.32 13.0302 23.8 13.0302C24.28 13.0302 24.7 12.9802 25.1 12.8702C25.97 12.6302 26.69 12.1302 27.04 11.3002C27.2 10.9302 27.29 10.4902 27.29 9.98016C27.29 9.47016 27.2 9.02016 27.03 8.64016C26.67 7.81016 25.96 7.30016 25.09 7.07016C24.68 6.96016 24.24 6.91016 23.79 6.91016C23.31 6.91016 22.85 6.96016 22.43 7.08016C21.55 7.32016 20.84 7.82016 20.49 8.65016C20.33 9.03016 20.23 9.47016 20.23 9.99016C20.23 10.5102 20.32 10.9402 20.48 11.3102C20.84 12.1402 21.54 12.6402 22.43 12.8802L22.44 12.8602Z" fill="#FFC716"/>
<path d="M23.4203 32.7402C24.0703 32.9202 24.7903 33.0002 25.5303 33.0002C26.2703 33.0002 26.9303 32.9202 27.5603 32.7502C28.9203 32.3802 30.0303 31.6002 30.5903 30.3002C30.8403 29.7202 30.9903 29.0402 30.9903 28.2402C30.9903 27.4402 30.8403 26.7402 30.5903 26.1502C30.0303 24.8602 28.9203 24.0702 27.5703 23.7002C26.9403 23.5302 26.2503 23.4502 25.5403 23.4502C24.7903 23.4502 24.0803 23.5302 23.4303 23.7102C22.0603 24.0802 20.9603 24.8602 20.4103 26.1502C20.1603 26.7402 20.0103 27.4302 20.0103 28.2402C20.0103 29.0502 20.1503 29.7202 20.4003 30.3002C20.9503 31.5902 22.0503 32.3702 23.4303 32.7402H23.4203Z" fill="#FCA700"/>
<path d="M17.19 12.8602C17.61 12.9702 18.07 13.0302 18.55 13.0302C19.03 13.0302 19.45 12.9802 19.85 12.8702C20.72 12.6302 21.44 12.1302 21.79 11.3002C21.95 10.9302 22.04 10.4902 22.04 9.98016C22.04 9.47016 21.95 9.02016 21.78 8.64016C21.42 7.81016 20.71 7.30016 19.84 7.07016C19.43 6.96016 18.99 6.91016 18.54 6.91016C18.06 6.91016 17.6 6.96016 17.18 7.08016C16.3 7.32016 15.59 7.82016 15.24 8.65016C15.08 9.03016 14.98 9.47016 14.98 9.99016C14.98 10.5102 15.07 10.9402 15.23 11.3102C15.59 12.1402 16.29 12.6402 17.18 12.8802L17.19 12.8602Z" fill="#FCA700"/>
<path d="M4.92032 20.03C3.82032 20.13 3.85032 21.24 4.88032 21.38C5.62032 21.48 6.42032 21.59 7.34032 21.58C8.25032 21.56 9.36032 21.42 10.4603 20.75C11.0703 20.36 11.4503 19.9 11.7403 19.52C12.0103 19.13 12.2303 18.78 12.3603 18.26C12.4203 18.01 12.4603 17.67 12.3203 17.3C12.1803 16.93 11.8803 16.67 11.6303 16.55C11.1003 16.32 10.7703 16.29 10.2203 16.27C9.76032 16.29 9.25032 16.42 8.79032 16.74C8.33032 17.05 7.94032 17.58 7.82032 18.19C7.71032 18.81 7.77032 19.39 8.15032 20.01C8.53032 20.56 9.02032 20.86 9.46032 21.08C9.91032 21.3 10.3403 21.42 10.7503 21.52C11.1703 21.61 11.5003 21.69 12.0103 21.67C12.9003 21.62 13.4603 21.35 13.7503 21.23C13.9303 21.15 14.0903 21.06 14.2403 20.97C14.5203 20.8 14.9803 20.46 15.5203 20.06C16.0403 19.67 16.7703 19.2 17.1803 19.18C17.3603 19.18 17.5103 19.24 17.7903 19.48C18.0703 19.73 18.2703 20.1 18.7303 20.67C18.9603 20.95 19.3003 21.25 19.6803 21.43C20.0603 21.62 20.4403 21.71 20.8003 21.77C21.1003 21.82 21.6103 21.83 22.0103 21.73C22.4003 21.62 22.7503 21.47 23.0303 21.3C23.8303 20.8 24.3303 20.29 24.7803 19.91C25.2203 19.52 25.6003 19.29 25.7803 19.24C25.8803 19.2 25.9003 19.24 25.9403 19.26C25.9503 19.27 25.9903 19.32 26.0603 19.46C26.1403 19.59 26.2103 19.72 26.2803 19.83C26.4603 20.11 26.6703 20.44 27.0003 20.72C27.3203 20.99 27.7203 21.21 28.1103 21.3C28.9003 21.5 29.6003 21.33 30.1503 21.09C31.2603 20.58 31.9603 19.76 32.3603 18.81C32.5703 18.27 32.3603 17.92 32.1003 17.86C31.8303 17.79 31.5303 17.93 31.3003 18.24C30.4803 19.35 28.5603 20.33 27.8803 18.86C27.7503 18.67 27.7203 18.48 27.3503 17.97C27.1703 17.73 26.9103 17.51 26.5903 17.36C26.2603 17.23 25.8703 17.19 25.4503 17.26C24.6803 17.4 24.1203 17.77 23.6103 18.14C23.1103 18.51 22.6503 18.91 22.2003 19.23C21.9103 19.44 21.6503 19.6 21.4803 19.68C21.4403 19.69 21.3903 19.73 21.3503 19.73L21.2903 19.75H21.1603C20.9803 19.75 20.8303 19.74 20.7003 19.71C20.4603 19.65 20.2903 19.53 20.0003 19.17C19.7203 18.81 19.3703 18.32 18.9003 17.95C18.4203 17.54 17.7203 17.29 17.1003 17.32C15.8803 17.44 15.2503 17.97 14.7903 18.23C14.3503 18.52 14.1003 18.69 14.1003 18.69C14.1003 18.69 13.7303 18.96 13.1703 19.3C12.8903 19.48 12.5603 19.63 12.2303 19.74C12.0603 19.79 11.9003 19.81 11.7503 19.81C11.5803 19.81 11.3103 19.78 11.0903 19.74C10.6303 19.66 10.1503 19.51 9.84032 19.3C9.52032 19.08 9.48032 18.95 9.47032 18.62C9.47032 18.12 10.0603 17.83 10.5503 17.94C10.6503 17.95 10.7403 17.97 10.7903 17.99C10.8803 17.99 10.7803 18.09 10.9703 17.86C11.0603 17.75 11.1103 17.77 11.0203 17.78C10.9603 17.79 10.9003 17.79 10.8003 17.78C10.6803 17.78 10.7703 17.78 10.7403 17.79C10.7103 17.93 10.5103 18.23 10.3403 18.43C10.0003 18.84 9.71032 19.05 9.49032 19.19C8.09032 20.04 6.45032 19.91 4.94032 20.06L4.92032 20.03Z" fill="#101214"/>
<path d="M4.86001 27.78C4.17001 27.55 3.61001 28.51 4.26001 28.99C4.49001 29.16 4.93001 29.38 5.39001 29.39C5.62001 29.4 5.81001 29.39 6.00001 29.35C6.18001 29.32 6.34001 29.29 6.60001 29.19C7.41001 28.83 7.87001 28.36 8.29001 28.17C8.41001 28.11 8.42001 28.1 8.44001 28.08C8.46001 28.06 8.49001 28.05 8.52001 28.05C8.58001 28.04 8.64001 28.05 8.70001 28.07C8.74001 28.07 8.84001 28.24 8.97001 28.48C9.15001 28.8 9.37001 29.13 9.77001 29.36C9.79001 29.37 9.82001 29.39 9.86001 29.41C10.2 29.57 10.66 29.62 11.05 29.57C11.4 29.53 11.72 29.44 12.03 29.34C12.65 29.14 13.21 28.85 13.65 28.72C14.6 28.4 15.38 28.44 15.5 28.53C15.54 28.56 15.6 28.56 15.62 28.56C15.69 28.58 15.68 28.54 15.74 28.6C15.78 28.64 15.82 28.77 15.83 28.96C15.85 29.15 15.83 29.5 15.8 29.72C15.75 30.2 15.54 30.7 15.15 31.07C14.96 31.25 14.71 31.41 14.59 31.44C14.54 31.45 14.49 31.44 14.46 31.41C14.41 31.35 14.4 31.37 14.43 31.16C14.49 30.97 14.54 30.76 14.69 30.61C14.95 30.28 15.33 30.07 15.57 29.94C16.8 29.34 17.97 29.06 19.07 28.77C19.67 28.63 19.71 27.66 19 27.57C17.74 27.47 16.41 27.49 14.72 28.28C14.4 28.47 13.85 28.64 13.2 29.26C12.89 29.57 12.55 30.01 12.39 30.6C12.3 30.9 12.25 31.26 12.26 31.63C12.29 31.84 12.32 32.05 12.35 32.26C12.43 32.45 12.53 32.65 12.63 32.85C12.95 33.34 13.53 33.58 14.08 33.61C14.23 33.61 14.39 33.61 14.54 33.59L15 33.46C15.31 33.38 15.52 33.24 15.74 33.11C16.12 32.84 16.47 32.55 16.73 32.19C17.28 31.51 17.59 30.68 17.67 29.98C17.72 29.62 17.73 29.33 17.75 29.05C17.73 28.73 17.73 28.46 17.65 28.2C17.61 27.95 17.49 27.74 17.42 27.6C17.36 27.46 17.29 27.39 17.29 27.39C17 26.98 16.55 26.73 16.14 26.61C15.73 26.51 15.34 26.48 14.99 26.52C14.29 26.58 13.67 26.77 13.09 27.01C12.81 27.13 12.5 27.27 12.25 27.4C12.01 27.52 11.77 27.64 11.54 27.73C11.31 27.82 11.08 27.9 10.89 27.93C10.78 27.95 10.74 27.95 10.71 27.95C10.67 27.95 10.63 27.95 10.6 27.93C10.57 27.91 10.55 27.9 10.53 27.87C10.51 27.85 10.5 27.83 10.49 27.81L10.43 27.69C10.37 27.56 10.29 27.35 10.14 27.1C9.86001 26.65 9.46001 26.39 9.09001 26.3C8.34001 26.09 7.74001 26.36 7.49001 26.49C6.66001 26.94 6.23001 27.44 5.91001 27.62C5.88001 27.65 5.76001 27.7 5.65001 27.74C5.55001 27.78 5.46001 27.81 5.39001 27.82C5.26001 27.86 5.13001 27.86 4.89001 27.78H4.86001Z" fill="#101214"/>
</g>
</g>
<defs>
<clipPath id="clip0_1_8140">
<rect width="40" height="40" fill="white"/>
</clipPath>
<clipPath id="clip1_1_8140">
<rect width="40" height="40" fill="white"/>
</clipPath>
</defs>
</svg>
