<svg width="40" height="40" viewBox="0 0 40 40" fill="none" xmlns="http://www.w3.org/2000/svg">
<g clip-path="url(#clip0_1_7805)">
<g clip-path="url(#clip1_1_7805)">
<path d="M40 0.0200195H0V40.02H40V0.0200195Z" fill="#FCA700"/>
<path d="M31.3001 13.93C30.2201 7.89998 26.0301 4.18998 20.1701 3.22998C19.1701 3.06998 18.1201 2.97998 17.0301 2.97998C15.8901 2.97998 14.8001 3.06998 13.7601 3.23998C7.88008 4.22998 3.70008 7.92998 2.61008 13.92C2.43008 14.93 2.33008 16.01 2.33008 17.15C2.33008 18.27 2.42008 19.34 2.60008 20.34C3.67008 26.32 7.85008 30.04 13.7401 31.02C14.7801 31.19 15.8701 31.28 17.0101 31.29C18.1001 31.29 19.1501 31.21 20.1501 31.04C26.0301 30.09 30.2201 26.37 31.3001 20.35C31.4801 19.35 31.5701 18.29 31.5701 17.16C31.5701 16.02 31.4801 14.94 31.2901 13.93H31.3001Z" fill="white"/>
<path d="M40.0001 40.0897V24.2097C39.5301 24.0997 39.0301 24.1097 38.5801 24.1697C36.9001 24.4197 35.9001 25.3597 35.6001 26.9597C35.5001 27.4697 35.5501 27.9897 35.6901 28.4797C34.6301 28.4897 33.5901 28.5797 32.6001 28.7397C32.5401 28.4897 32.4601 28.2497 32.3301 28.0297C31.4901 26.5297 30.2101 25.9097 28.5401 26.1797C27.7001 26.3097 26.7701 26.6597 25.7401 27.2297C24.7101 27.8097 23.9201 28.4097 23.3701 29.0397C22.2501 30.3097 22.0801 31.6797 22.8801 33.0897C22.9701 33.2497 23.0801 33.3997 23.1901 33.5397C22.4601 34.2997 21.7901 35.1497 21.1901 36.0797C21.1401 36.0597 21.1001 36.0297 21.0501 36.0097C19.4401 35.3997 18.0601 35.7497 16.9501 37.0297C16.3901 37.6697 15.9001 38.5397 15.4801 39.6397C15.4301 39.7697 15.3901 39.8897 15.3501 40.0197L40.0001 40.0897Z" fill="#09326C"/>
<path d="M24.9099 39.3299C24.7999 39.8099 25.8099 40.2799 26.1099 39.9499C26.5399 39.4699 26.9399 38.9599 27.3999 38.2799C27.8799 37.4799 27.8599 37.1599 28.2899 36.6899C28.6399 36.2799 29.1999 35.8199 29.7399 35.5199C30.2699 35.1999 30.7599 35.0499 30.9499 34.9999C31.0099 34.9899 31.0599 34.9599 31.0999 34.9299C31.2699 34.8199 31.7399 34.5599 32.3799 34.4399C32.6999 34.3799 33.0499 34.3899 33.4199 34.4399L33.9699 34.5799C34.1999 34.6599 34.4499 34.7499 34.7199 34.8199C35.1799 34.9299 35.7399 34.9999 36.3199 34.8999C36.8999 34.8099 37.4499 34.5199 37.8499 34.1999H37.8599C37.8599 34.1999 37.8899 34.1599 37.9699 34.1499C38.0599 34.1399 38.2099 34.1499 38.3699 34.1599C38.6999 34.1999 39.0899 34.2699 39.5299 34.2799C40.0599 34.2799 40.1199 33.2999 39.8399 33.1199C39.5599 32.9399 39.2599 32.7199 38.8299 32.5399C38.6099 32.4499 38.3599 32.3599 38.0299 32.3299C37.6999 32.2999 37.2499 32.3599 36.8899 32.5899C36.8499 32.6199 36.7999 32.6499 36.6899 32.7199C36.5599 32.7899 36.3599 32.8499 36.1499 32.8499C35.9299 32.8499 35.7299 32.8099 35.3599 32.7199C35.2299 32.6899 35.0799 32.6699 34.9199 32.6599C34.6099 32.6599 33.9999 32.5399 33.5299 32.5099C33.2799 32.5099 33.0399 32.5099 32.7999 32.4999C32.5699 32.5199 32.3399 32.5499 32.1299 32.5699C31.2999 32.6899 30.7399 32.9099 30.7399 32.9099C30.7399 32.9099 29.8899 33.1999 29.0499 33.7999C28.1999 34.3899 27.3799 35.2399 26.9399 35.7599C26.2699 36.5599 26.0099 36.9799 25.8399 37.2199C25.3399 37.9899 25.0599 38.6499 24.8999 39.3299H24.9099Z" fill="#101214"/>
<path d="M26.6799 17.5901L27.9399 17.3701C29.5099 17.1501 29.9699 16.2601 29.7599 15.0501C29.5599 13.9101 28.8299 13.2601 27.2599 13.5301L26.2099 13.7201C25.8899 12.6901 25.4199 11.7701 24.8099 10.9901L25.3699 10.3201C26.4299 9.14012 26.2199 8.16012 25.2699 7.37012C24.3899 6.63012 23.3999 6.59012 22.3799 7.81012L21.7299 8.59012C20.9299 8.22012 20.0399 7.95012 19.0899 7.80012C19.0199 7.79012 18.9399 7.78012 18.8599 7.77012V6.56012C18.9199 4.97012 18.1199 4.37012 16.8899 4.37012C15.7399 4.37012 14.9599 4.98012 14.9599 6.56012V7.79012C14.9099 7.79012 14.8499 7.80012 14.7999 7.81012C13.8299 7.97012 12.9199 8.25012 12.0999 8.63012L11.4599 7.86012C10.4799 6.61012 9.47994 6.65012 8.53994 7.44012C7.65994 8.18012 7.44994 9.14012 8.46994 10.3601L9.03994 11.0401C8.42994 11.8201 7.96994 12.7501 7.65994 13.7801L6.62994 13.6001C5.06994 13.2701 4.33994 13.9501 4.12994 15.1601C3.92994 16.3001 4.38994 17.1701 5.95994 17.4401L7.21994 17.6601C7.23994 18.1901 7.28994 18.7001 7.37994 19.1901C7.45994 19.6401 7.57994 20.0701 7.70994 20.4901L6.63994 21.1101C5.23994 21.8601 5.10994 22.8501 5.71994 23.9101C6.29994 24.9101 7.20994 25.2801 8.57994 24.4801L9.71994 23.8201C10.3699 24.4701 11.1199 25.0101 11.9799 25.4201L11.4599 26.8601C10.8599 28.3301 11.3999 29.1701 12.5599 29.5901C13.6399 29.9801 14.5799 29.6801 15.1199 28.1901L15.7399 26.4801L15.4899 26.3901C15.9699 26.4401 16.4699 26.4801 16.9799 26.4801C17.4599 26.4801 17.9199 26.4501 18.3799 26.4001L18.2299 26.4501L18.8499 28.1601C19.3399 29.6701 20.2899 29.9701 21.4499 29.5501C22.5299 29.1601 23.0599 28.3201 22.5099 26.8301L21.9899 25.3901C22.8399 24.9701 23.5899 24.4201 24.2299 23.7601L25.3599 24.4101C26.7099 25.2501 27.6299 24.8701 28.2399 23.8001C28.8199 22.8001 28.6799 21.8301 27.2999 21.0301L26.1999 20.3901C26.3199 20.0001 26.4299 19.6101 26.5099 19.1801C26.5999 18.6701 26.6499 18.1301 26.6699 17.5701L26.6799 17.5901Z" fill="#1868DB"/>
<path d="M22.9297 14.9602C23.2797 15.8902 24.4097 15.8302 24.2197 14.5702C23.9197 12.8702 22.6997 10.9502 20.3897 10.0102C19.0797 9.51021 18.2197 9.57021 17.5097 9.57021C16.7897 9.53021 16.1897 9.71021 15.3097 9.75021C13.8397 9.93021 11.7597 10.7102 10.5097 12.2402C9.24974 13.7302 8.87974 15.4602 8.83974 16.0702C8.80974 16.2602 8.78974 16.4502 8.77974 16.6302C8.72974 16.9702 8.79974 17.5902 8.89974 18.4102C8.98974 19.2202 9.26974 20.2602 9.87974 21.2802C10.4697 22.3102 11.4597 23.2702 12.6397 23.8802C13.8097 24.5102 15.1297 24.7802 16.3697 24.8402C16.8097 24.9002 17.2297 24.8602 17.6297 24.8202C18.0297 24.7802 18.4097 24.7802 18.7597 24.7002C19.4797 24.5702 20.1097 24.3702 20.6397 24.1202C21.7197 23.6402 22.3997 23.0402 22.8197 22.6102C23.8197 21.5702 24.3097 20.3602 24.5097 19.2902C24.6297 18.7502 24.5897 18.2202 24.6097 17.7202C24.6397 17.2202 24.5397 16.7302 24.4497 16.2602C24.2397 15.2002 23.2897 15.4602 23.2497 16.3702C23.1497 18.0102 22.9297 19.8102 21.4797 21.3102C20.9397 21.9002 19.3897 22.7502 16.9097 22.6802C16.5197 22.6402 16.1197 22.6202 15.7197 22.6402C14.8697 22.6402 13.9697 22.4102 13.2197 21.9902C12.4597 21.5702 11.8697 20.9502 11.4997 20.3002C11.1197 19.6602 10.9497 19.0102 10.8697 18.5502C10.8297 18.0702 10.8097 17.7902 10.8097 17.7902C10.8097 17.7902 10.8097 17.6902 10.7797 17.5002C10.7797 17.4102 10.7597 17.2902 10.7497 17.1602C10.7597 17.0302 10.7697 16.8702 10.7897 16.7002C10.8297 16.0302 10.9097 15.0802 11.3697 14.2102C11.7897 13.3302 12.5297 12.5502 13.3997 12.0702C14.2697 11.6002 15.2097 11.3602 15.9297 11.3302C18.0997 11.1502 19.1197 11.5302 19.6697 11.7502C21.3997 12.4602 22.3497 13.6402 22.9097 14.9602H22.9297Z" fill="#101214"/>
<path d="M20.7199 16.2201C20.4399 14.6401 19.3399 13.6701 17.7999 13.4101C17.5399 13.3701 17.2599 13.3501 16.9799 13.3501C16.6799 13.3501 16.3899 13.3701 16.1199 13.4201C14.5799 13.6801 13.4799 14.6501 13.1999 16.2201C13.1499 16.4901 13.1299 16.7701 13.1299 17.0701C13.1299 17.3601 13.1499 17.6401 13.1999 17.9101C13.4799 19.4801 14.5799 20.4501 16.1199 20.7101C16.3899 20.7601 16.6799 20.7801 16.9799 20.7801C17.2699 20.7801 17.5399 20.7601 17.7999 20.7201C19.3399 20.4701 20.4399 19.4901 20.7199 17.9201C20.7699 17.6601 20.7899 17.3801 20.7899 17.0801C20.7899 16.7801 20.7699 16.5001 20.7199 16.2301V16.2201Z" fill="white"/>
</g>
</g>
<defs>
<clipPath id="clip0_1_7805">
<rect width="40" height="40" fill="white"/>
</clipPath>
<clipPath id="clip1_1_7805">
<rect width="40" height="40" fill="white"/>
</clipPath>
</defs>
</svg>
