<svg width="40" height="40" viewBox="0 0 40 40" fill="none" xmlns="http://www.w3.org/2000/svg">
<g clip-path="url(#clip0_1_7790)">
<g clip-path="url(#clip1_1_7790)">
<path d="M40 0H0V40H40V0Z" fill="#FFC716"/>
<path d="M29.57 35.4502L0 35.8502V40.0002H30.11L29.57 35.4502Z" fill="#09326C"/>
<path d="M0 12.5V15.99H31.47L31.49 15.98L13.09 3.95996L0 12.5Z" fill="#1868DB"/>
<path d="M6.3801 16.75H2.1001V38.18H6.3801V16.75Z" fill="white"/>
<path d="M16.2903 16.75H12.0103V38.18H16.2903V16.75Z" fill="white"/>
<path d="M26.1902 16.75H21.9102V38.18H26.1902V16.75Z" fill="white"/>
<path d="M0.610117 15.5898C-0.209883 15.7098 -0.209883 16.8198 0.610117 16.9398C1.77012 17.1098 2.98012 17.1898 4.54012 17.1998C6.31012 17.1498 6.75012 16.9198 7.95012 16.9398C9.98012 16.9398 13.3901 17.2498 14.2201 17.3298C14.3401 17.3398 14.4601 17.3398 14.5901 17.3298C15.4601 17.2898 19.2901 17.1198 22.5901 17.1998C24.9201 17.1998 26.3601 17.1998 27.1101 17.1998C28.8901 17.1998 30.2101 17.0798 31.5201 16.8698C32.2401 16.7498 32.2401 15.7798 31.5201 15.6698C30.2201 15.4598 28.8901 15.3398 27.1101 15.3398C26.4201 15.3398 24.9801 15.0698 22.9501 15.0298C22.6201 15.0298 22.2901 15.0398 21.9601 15.0798C19.1301 15.4398 15.4501 15.3398 15.4501 15.3398C15.4501 15.3398 9.96012 15.3398 7.65012 15.3398C5.91012 15.3398 5.07012 15.3398 4.55012 15.3398C2.99012 15.3398 1.77012 15.4398 0.620117 15.5998L0.610117 15.5898Z" fill="#101214"/>
<path d="M2.61029 16.1601C2.49029 15.5801 1.38029 15.5801 1.26029 16.1601C1.09029 16.9801 1.01029 17.8301 1.00029 18.9401C1.05029 20.1901 1.28029 20.5001 1.26029 21.3501C1.26029 22.7801 0.950293 25.2001 0.870293 25.7801C0.860293 25.8701 0.860293 25.9501 0.870293 26.0401C0.910293 26.6601 1.08029 29.3601 1.00029 31.6901C1.00029 33.3301 1.00029 34.3501 1.00029 34.8801C1.00029 36.1401 1.12029 37.0701 1.33029 37.9901C1.45029 38.5001 2.42029 38.5001 2.53029 37.9901C2.74029 37.0701 2.86029 36.1301 2.86029 34.8801C2.86029 34.3901 3.13029 33.3801 3.17029 31.9401C3.17029 31.7101 3.16029 31.4701 3.12029 31.2401C2.76029 29.2401 2.86029 26.6401 2.86029 26.6401C2.86029 26.6401 2.86029 22.7601 2.86029 21.1301C2.86029 19.9001 2.86029 19.3101 2.86029 18.9401C2.86029 17.8401 2.76029 16.9801 2.60029 16.1601H2.61029Z" fill="#101214"/>
<path d="M12.5302 16.1601C12.4102 15.5801 11.3002 15.5801 11.1802 16.1601C11.0102 16.9801 10.9302 17.8301 10.9202 18.9401C10.9702 20.1901 11.2002 20.5001 11.1802 21.3501C11.1802 22.7801 10.8702 25.2001 10.7902 25.7801C10.7802 25.8701 10.7802 25.9501 10.7902 26.0401C10.8302 26.6601 11.0002 29.3601 10.9202 31.6901C10.9202 33.3301 10.9202 34.3501 10.9202 34.8801C10.9202 36.1401 11.0402 37.0701 11.2502 37.9901C11.3702 38.5001 12.3402 38.5001 12.4502 37.9901C12.6602 37.0701 12.7802 36.1301 12.7802 34.8801C12.7802 34.3901 13.0502 33.3801 13.0902 31.9401C13.0902 31.7101 13.0802 31.4701 13.0402 31.2401C12.6802 29.2401 12.7802 26.6401 12.7802 26.6401C12.7802 26.6401 12.7802 22.7601 12.7802 21.1301C12.7802 19.9001 12.7802 19.3101 12.7802 18.9401C12.7802 17.8401 12.6802 16.9801 12.5202 16.1601H12.5302Z" fill="#101214"/>
<path d="M22.4501 16.1601C22.3301 15.5801 21.2201 15.5801 21.1001 16.1601C20.9301 16.9801 20.8501 17.8301 20.8401 18.9401C20.8901 20.1901 21.1201 20.5001 21.1001 21.3501C21.1001 22.7801 20.7901 25.2001 20.7101 25.7801C20.7001 25.8701 20.7001 25.9501 20.7101 26.0401C20.7501 26.6601 20.9201 29.3601 20.8401 31.6901C20.8401 33.3301 20.8401 34.3501 20.8401 34.8801C20.8401 36.1401 20.9601 37.0701 21.1701 37.9901C21.2901 38.5001 22.2601 38.5001 22.3701 37.9901C22.5801 37.0701 22.7001 36.1301 22.7001 34.8801C22.7001 34.3901 22.9701 33.3801 23.0101 31.9401C23.0101 31.7101 23.0001 31.4701 22.9601 31.2401C22.6001 29.2401 22.7001 26.6401 22.7001 26.6401C22.7001 26.6401 22.7001 22.7601 22.7001 21.1301C22.7001 19.9001 22.7001 19.3101 22.7001 18.9401C22.7001 17.8401 22.6001 16.9801 22.4401 16.1601H22.4501Z" fill="#101214"/>
</g>
</g>
<defs>
<clipPath id="clip0_1_7790">
<rect width="40" height="40" fill="white"/>
</clipPath>
<clipPath id="clip1_1_7790">
<rect width="40" height="40" fill="white"/>
</clipPath>
</defs>
</svg>
