<svg width="40" height="40" viewBox="0 0 40 40" fill="none" xmlns="http://www.w3.org/2000/svg">
<g clip-path="url(#clip0_1_7859)">
<g clip-path="url(#clip1_1_7859)">
<path d="M40 0H0V40H40V0Z" fill="#FCA700"/>
<path d="M31.2034 0C24.7586 4.7342 18.8942 10.1204 14.0605 15.3862C7.68576 22.327 3.0623 29.0371 0 35.4965V40H10.0876C12.3192 33.4704 16.5924 26.6098 23.1674 19.4483C27.8008 14.3932 33.6252 9.19759 40 4.9348V0H31.2034Z" fill="white"/>
<path d="M19.86 22.7398L8.47998 18.6298V27.5098C11.52 29.6998 15.54 31.0398 19.95 31.0398C24.36 31.0398 28.38 29.6998 31.42 27.5098V18.5698L19.86 22.7398Z" fill="#1868DB"/>
<path d="M19.8598 9.2998L1.25977 16.0198L19.8598 22.7398L38.4598 16.0198L19.8598 9.2998Z" fill="#669DF1"/>
<path d="M2.16981 15.7298C1.17981 15.4998 0.799808 16.5498 1.70981 16.9998C2.99981 17.6398 4.37981 18.2298 6.18981 18.8898C8.25981 19.5798 8.84981 19.5498 10.2298 20.0798C12.5798 20.9298 16.4398 22.6498 17.3698 23.0698C17.5098 23.1298 17.6498 23.1898 17.7898 23.2298C17.8798 23.2598 17.9998 23.2998 18.2498 23.3798C18.5698 23.4898 19.0598 23.6598 19.8498 23.9398C20.3698 23.7398 21.6198 23.2498 23.1798 22.6398C24.5698 22.1098 26.2398 21.4998 27.8198 20.9598C30.5198 19.9798 32.1898 19.3798 33.0598 19.0598C35.1198 18.3098 36.6198 17.6398 38.0598 16.8998C38.8498 16.4898 38.5198 15.5798 37.6498 15.7698C36.0698 16.1198 34.4798 16.5698 32.4198 17.2998C31.6198 17.5898 29.8598 17.9398 27.4798 18.7498C27.0898 18.8798 26.7198 19.0398 26.3498 19.2098C25.1398 19.7998 23.7598 20.3698 22.5298 20.8498C21.9098 21.0798 21.3298 21.3098 20.8198 21.4998C20.4298 21.6398 20.0898 21.7598 19.8498 21.8498C19.5998 21.7498 19.4698 21.6998 19.4698 21.6998C19.4698 21.6998 13.0998 19.3998 10.4198 18.4198C8.38981 17.6898 7.41981 17.3398 6.81981 17.1298C5.00981 16.4798 3.56981 16.0598 2.16981 15.7298Z" fill="#101214"/>
<path d="M34.1399 37.5497C34.3799 37.6297 35.1699 36.8396 35.0999 36.5996C34.9999 36.2496 35.1199 36.2397 35.1099 36.1597C35.0599 36.0297 34.8399 35.9697 34.9599 35.8297C35.0299 35.7097 35.3999 35.5597 35.7999 35.0897C35.9899 34.8597 36.1099 34.5897 36.1799 34.3597C36.2399 34.1397 36.2799 33.9597 36.2899 33.8597C36.2899 33.7997 36.2899 33.7397 36.2899 33.6797C36.2599 33.5697 36.2099 33.3497 36.0799 33.0997C35.9599 32.8497 35.7299 32.5597 35.5299 32.3897C35.3299 32.2097 35.1799 32.0897 35.1399 32.0297C35.0999 31.9797 35.1099 31.9797 35.1199 31.9197C35.1199 31.8197 35.1199 31.8197 35.1299 31.7897C35.1299 31.7697 35.2099 31.6897 35.2699 31.6297C35.3999 31.4797 35.6099 31.2497 35.7499 30.9297C35.8899 30.6097 35.8999 30.2697 35.8199 29.9897C35.7199 29.6697 34.7499 29.7797 34.6199 29.8697C34.3499 30.0797 34.3099 29.9397 33.9299 30.3197C33.8599 30.3997 33.6799 30.4597 33.4299 30.7197C33.1899 30.9497 32.9299 31.4297 32.9199 31.9097C32.9199 32.0697 32.9399 32.2297 33.0299 32.3997C33.1899 32.7397 33.4399 33.0697 33.6699 33.2797C33.8899 33.4797 34.0599 33.5997 34.1499 33.6797C34.3199 33.8397 34.2599 33.8597 34.2799 33.8797C34.2799 33.8797 34.2799 33.8997 34.2999 33.9397C34.2999 33.9997 34.2999 34.0897 34.2799 34.1397C34.2599 34.1997 34.2399 34.2397 34.0999 34.3797C33.9699 34.5097 33.7599 34.7096 33.6199 34.9196C33.3999 35.2396 33.3099 35.5497 33.2799 35.7697C33.2499 35.9897 33.2499 36.1297 33.2599 36.2397C33.2899 36.9597 33.8199 37.4497 34.1499 37.5297L34.1399 37.5497Z" fill="#101214"/>
<path d="M21.3999 14.6896C20.7599 14.7096 20.5999 15.8196 21.1999 16.0196C22.0599 16.3096 22.9799 16.5396 24.1699 16.7196C25.5299 16.8696 25.8999 16.6896 26.8199 16.8496C28.3699 17.0796 30.9399 17.7696 31.5599 17.9396C31.6499 17.9696 31.7399 17.9796 31.8399 17.9896C31.9999 18.0096 32.2899 18.0296 32.7699 18.0796C33.0099 18.1096 33.2899 18.1396 33.6199 18.1796C33.8599 18.2096 33.7799 18.1896 33.8199 18.1896H33.8799C33.8799 18.1896 33.8999 18.1896 33.9099 18.2196C33.9099 18.2696 33.9199 18.1596 33.9299 18.5596C33.9299 19.1396 33.9299 19.8396 33.9099 20.4996C33.9099 22.2996 33.9099 23.4196 33.9099 23.9996C33.9099 25.3696 34.0299 26.3996 34.2399 27.4096C34.3599 27.9596 35.3299 27.9596 35.4399 27.4096C35.6499 26.3996 35.7699 25.3696 35.7699 23.9996C35.7699 23.4696 36.0399 22.3496 36.0799 20.7796C36.0799 20.5196 36.0699 20.2696 36.0299 20.0096C35.9599 19.5596 35.8999 19.0896 35.8599 18.6196L35.8299 18.2696C35.8299 18.0696 35.8199 17.8596 35.8099 17.6596C35.7999 17.2696 35.7899 16.8896 35.7799 16.5196C34.8399 16.3896 34.0199 16.2796 33.4299 16.1996C33.0199 16.1296 32.7799 16.0896 32.7799 16.0896C32.7799 16.0896 28.5799 15.4696 26.8099 15.1996C25.4799 15.0096 24.8299 14.9096 24.4399 14.8496C23.2399 14.6796 22.2999 14.6296 21.3899 14.6596L21.3999 14.6896Z" fill="#101214"/>
<path d="M36.6397 28.2196C36.5997 28.1096 36.5497 27.9996 36.4797 27.8896C36.4097 27.7796 36.3397 27.6796 36.2697 27.5896C35.8197 27.0596 35.1897 26.9396 34.5697 27.1896C34.4597 27.2296 34.3597 27.2796 34.2497 27.3496C34.1397 27.4196 34.0397 27.4896 33.9497 27.5596C33.4297 27.9896 33.2397 28.5996 33.4797 29.2396C33.5197 29.3496 33.5697 29.4596 33.6397 29.5696C33.7097 29.6796 33.7797 29.7796 33.8497 29.8696C34.2997 30.3896 34.9197 30.5096 35.5497 30.2696C35.6597 30.2296 35.7697 30.1696 35.8797 30.1096C35.9897 30.0496 36.0797 29.9796 36.1697 29.8996C36.6897 29.4696 36.8797 28.8596 36.6397 28.2096V28.2196Z" fill="#1868DB"/>
<path d="M21.6397 14.5898C21.5997 14.4798 21.5497 14.3698 21.4797 14.2598C21.4097 14.1498 21.3397 14.0498 21.2697 13.9598C20.8197 13.4298 20.1897 13.3098 19.5697 13.5598C19.4597 13.5998 19.3597 13.6498 19.2497 13.7198C19.1397 13.7898 19.0397 13.8598 18.9497 13.9298C18.4297 14.3598 18.2397 14.9698 18.4797 15.6098C18.5197 15.7198 18.5697 15.8298 18.6397 15.9398C18.7097 16.0498 18.7797 16.1498 18.8497 16.2398C19.2997 16.7598 19.9197 16.8798 20.5497 16.6398C20.6597 16.5998 20.7697 16.5398 20.8797 16.4798C20.9897 16.4198 21.0797 16.3498 21.1697 16.2698C21.6897 15.8398 21.8797 15.2298 21.6397 14.5798V14.5898Z" fill="#101214"/>
</g>
</g>
<defs>
<clipPath id="clip0_1_7859">
<rect width="40" height="40" fill="white"/>
</clipPath>
<clipPath id="clip1_1_7859">
<rect width="40" height="40" fill="white"/>
</clipPath>
</defs>
</svg>
