<svg width="40" height="40" viewBox="0 0 40 40" fill="none" xmlns="http://www.w3.org/2000/svg">
<g clip-path="url(#clip0_1_7639)">
<g clip-path="url(#clip1_1_7639)">
<path d="M40 0H0V40H40V0Z" fill="#82B536"/>
<mask id="mask0_1_7639" style="mask-type:luminance" maskUnits="userSpaceOnUse" x="0" y="0" width="40" height="40">
<path d="M40 0H0V40H40V0Z" fill="white"/>
</mask>
<g mask="url(#mask0_1_7639)">
<mask id="mask1_1_7639" style="mask-type:luminance" maskUnits="userSpaceOnUse" x="-1" y="-1" width="41" height="41">
<path d="M39.9502 -0.0200195H-0.0498047V39.98H39.9502V-0.0200195Z" fill="white"/>
</mask>
<g mask="url(#mask1_1_7639)">
<path d="M11.3398 12.2197H3.31982V39.9697H11.3398V12.2197Z" fill="#94C748"/>
<path d="M23.98 5.12988H15.96V39.9799H23.98V5.12988Z" fill="#94C748"/>
<path d="M36.6201 0.109863H28.6001V39.9799H36.6201V0.109863Z" fill="#94C748"/>
<path d="M20.2 10.3697L23.94 14.2497C22.67 15.2897 20.84 16.6997 18.53 18.2397C14.98 20.6097 11.25 22.6797 7.43 24.3697C5.03 25.4397 2.54 26.3697 0 27.1897V37.6297C3.95 36.5197 7.81 35.1397 11.49 33.4997C15.82 31.5697 20.05 29.2297 24.07 26.5497C27.09 24.5297 29.39 22.7197 30.89 21.4597L34.52 25.2297L38.27 7.69971L23.62 9.85971L20.18 10.3697H20.2Z" fill="#FCA700"/>
<path d="M20.2 10.3699L23.94 14.2499C22.67 15.2899 20.84 16.6999 18.53 18.2399C14.98 20.6099 11.25 22.6799 7.43 24.3699C5.03 25.4399 2.54 26.3699 0 27.1899V32.0799C23.06 23.6599 33.73 11.6999 36.65 7.93994L23.63 9.85994L20.19 10.3699H20.2Z" fill="white"/>
</g>
<path d="M30.5201 22.5402C31.1401 21.8802 30.4201 21.0302 29.6701 21.4902C28.6001 22.1502 27.5201 22.8702 26.1601 23.8502C24.6501 25.0002 24.3801 25.4502 23.2901 26.1502C21.4801 27.3802 18.1501 28.9702 17.3301 29.3102C17.2101 29.3602 17.0901 29.4202 16.9801 29.4902C16.1901 29.9902 12.6201 32.0602 9.31006 33.3202C7.00006 34.2802 5.54006 34.7902 4.78006 35.0602C2.98006 35.7002 1.65006 36.2302 0.360058 36.8202C-0.349942 37.1402 -0.0899416 38.0802 0.690058 37.9802C2.12006 37.7902 3.55006 37.4602 5.39006 36.8302C6.10006 36.5802 7.69006 36.3002 9.78006 35.5002C10.1201 35.3702 10.4501 35.2102 10.7601 35.0302C12.1201 34.2502 13.7101 33.4402 14.9601 32.8002C16.2001 32.1602 17.1001 31.7002 17.1001 31.7002C17.1001 31.7002 18.4301 31.0002 20.0101 30.0802C21.5901 29.1702 23.4001 28.0202 24.4501 27.3102C26.0401 26.2402 26.7801 25.7002 27.2401 25.3602C28.6201 24.3502 29.6201 23.4502 30.5001 22.5302L30.5201 22.5402Z" fill="#101214"/>
<path d="M30.6503 20.9599C30.6503 20.9599 30.0003 22.0099 30.2603 22.2199C30.2703 22.2399 30.3303 22.2599 30.3903 22.2799C30.4303 22.2799 30.4103 22.2999 30.5403 22.3099C30.5903 22.3099 30.6403 22.3099 30.6803 22.3099C30.7203 22.3099 30.7503 22.3099 30.9403 22.2399C31.2503 22.0799 31.4203 21.7899 31.4103 21.4499C31.4103 21.3299 31.4003 21.3199 31.3803 21.2499C31.3703 21.1999 31.3403 21.1199 31.3403 21.1199C31.3003 21.0199 31.2703 20.9599 31.2503 20.9299C31.2503 20.9099 31.2403 20.8899 31.2403 20.8899L30.7403 21.2699L30.7303 21.2899C30.7103 21.3099 30.6903 21.3299 30.6703 21.3499C30.6503 21.3799 30.5203 21.4099 30.5603 21.4299C30.5203 21.4299 30.4803 21.5399 30.4303 21.5899C30.3403 21.7099 30.2403 21.8299 30.1403 21.9499L30.0103 22.1099C30.0103 22.1099 30.0003 22.1199 29.9903 22.1299V22.1499C30.0003 22.1799 30.0103 22.1999 30.0303 22.2299C30.0903 22.3399 30.1703 22.4399 30.2803 22.5399C30.5603 22.7099 30.7703 22.5799 30.9203 22.7399C31.2003 22.9699 31.4903 23.5999 31.5503 23.7599C31.5603 23.7799 31.5803 23.7999 31.6003 23.8099C31.7503 23.8799 32.3903 24.1799 32.8103 24.6099C33.1403 24.8699 33.3403 25.0299 33.4503 25.1099C33.7103 25.2999 33.9603 25.3599 34.2803 25.3399C34.4503 25.3299 35.0603 24.5699 35.0303 24.3999C34.9803 24.0899 34.8603 23.8499 34.6203 23.6399C34.5203 23.5599 34.4903 23.1899 34.2303 22.9299C34.1903 22.8899 34.1303 22.8599 34.0603 22.8599C33.4403 22.8299 32.9903 22.3299 32.9903 22.3299C32.9903 22.3299 32.2303 21.7099 31.9103 21.4399C31.6703 21.2399 31.5503 21.1499 31.4803 21.0899C31.3703 20.9999 31.2603 20.9399 31.1503 20.8999L31.0603 20.8699C31.0603 20.8699 31.0603 20.8799 30.9703 20.8199H30.9603V20.8099C30.9403 20.7999 30.9003 20.7699 30.8003 20.7299C30.7503 20.7099 30.6803 20.6899 30.5503 20.6899C30.4303 20.6899 30.2303 20.7399 30.0803 20.8799C29.7803 21.1999 29.8603 21.4499 29.8603 21.5199C29.8803 21.6099 29.9003 21.6599 29.9003 21.6699V21.6999L29.9503 21.7599C30.0203 21.8699 30.0103 21.8299 30.0103 21.8399H30.0203L30.1403 21.7499L30.3103 21.6299L30.3903 21.5799C30.4503 21.5499 30.4603 21.5299 30.5103 21.5099C30.5703 21.4699 30.6203 21.4999 30.5903 21.4799C30.5703 21.4399 30.5903 21.3899 30.6003 21.2899C30.6203 21.1999 30.6503 21.1099 30.6903 20.9699L30.6503 20.9599Z" fill="#101214"/>
<path d="M33.9502 24.5098C33.9802 24.8698 34.9902 25.3598 35.2602 24.8298C35.5702 24.2298 35.8002 23.5998 35.9902 22.7598C36.1402 21.7998 35.9702 21.5098 36.1302 20.8698C36.3602 19.7798 37.0402 18.0098 37.2102 17.5798C37.2302 17.5198 37.2502 17.4498 37.2602 17.3798C37.3202 16.8998 37.5702 14.8098 38.0202 13.0498C38.2702 11.7998 38.4302 11.0198 38.5102 10.6198C38.7002 9.65982 38.7302 8.92982 38.6702 8.18982C38.6302 7.79982 37.6902 7.56982 37.4902 7.93982C37.1402 8.59982 36.8802 9.28982 36.6702 10.2498C36.5902 10.6198 36.1702 11.3398 35.9002 12.4198C35.8602 12.5998 35.8402 12.7798 35.8402 12.9598C35.8802 14.5598 35.3802 16.5098 35.3802 16.5098C35.3802 16.5098 34.7602 19.4498 34.5002 20.6998C34.3002 21.6298 34.2102 22.0798 34.1502 22.3598C33.9802 23.1998 33.9202 23.8598 33.9402 24.5098H33.9502Z" fill="#101214"/>
</g>
</g>
</g>
<defs>
<clipPath id="clip0_1_7639">
<rect width="40" height="40" fill="white"/>
</clipPath>
<clipPath id="clip1_1_7639">
<rect width="40" height="40" fill="white"/>
</clipPath>
</defs>
</svg>
