<svg width="40" height="40" viewBox="0 0 40 40" fill="none" xmlns="http://www.w3.org/2000/svg">
<g clip-path="url(#clip0_1_7935)">
<g clip-path="url(#clip1_1_7935)">
<path d="M40 0H0V40H40V0Z" fill="#82B536"/>
<path d="M33.0597 28.4601C33.2797 22.4201 30.2497 20.1201 25.5797 20.1201C21.1897 20.1201 18.2397 22.4201 18.2397 28.4601L18.2597 35.4401H33.0797L33.0597 28.4601Z" fill="white"/>
<path d="M21.55 28.4601C21.77 22.4201 18.74 20.1201 14.07 20.1201C9.67998 20.1201 6.72998 22.4201 6.72998 28.4601L6.74998 35.4401H21.57L21.55 28.4601Z" fill="#164B35"/>
<path d="M27.3 28.4601C27.52 22.4201 24.49 20.1201 19.82 20.1201C15.43 20.1201 12.48 22.4201 12.48 28.4601L12.5 35.4401H27.32L27.3 28.4601Z" fill="#FCA700"/>
<path d="M31.3001 12.8803C31.3701 12.4803 31.4101 12.0603 31.4101 11.6203C31.4101 11.1803 31.3701 10.7403 31.3001 10.3403C30.8701 7.95025 29.2101 6.48025 26.8901 6.11025C26.4901 6.05025 26.0801 6.01025 25.6501 6.01025C25.2201 6.01025 24.7701 6.05025 24.3501 6.11025C22.0201 6.50025 20.3701 7.96025 19.9401 10.3403C19.8701 10.7403 19.8301 11.1703 19.8301 11.6203C19.8301 12.0703 19.8701 12.4903 19.9401 12.8803C20.3701 15.2503 22.0201 16.7203 24.3501 17.1103C24.7601 17.1803 25.1901 17.2103 25.6501 17.2103C26.1101 17.2103 26.5001 17.1803 26.8901 17.1103C29.2201 16.7303 30.8801 15.2603 31.3001 12.8803Z" fill="white"/>
<path d="M20.1599 12.8803C20.2299 12.4803 20.2699 12.0603 20.2699 11.6203C20.2699 11.1803 20.2299 10.7403 20.1599 10.3403C19.7299 7.95025 18.0699 6.48025 15.7499 6.11025C15.3499 6.05025 14.9399 6.01025 14.5099 6.01025C14.0799 6.01025 13.6299 6.05025 13.2099 6.11025C10.8799 6.50025 9.22994 7.96025 8.79994 10.3403C8.72994 10.7403 8.68994 11.1703 8.68994 11.6203C8.68994 12.0703 8.72994 12.4903 8.79994 12.8803C9.22994 15.2503 10.8799 16.7203 13.2099 17.1103C13.6199 17.1803 14.0499 17.2103 14.5099 17.2103C14.9699 17.2103 15.3599 17.1803 15.7499 17.1103C18.0799 16.7303 19.7399 15.2603 20.1599 12.8803Z" fill="#164B35"/>
<path d="M25.7298 12.8803C25.7998 12.4803 25.8398 12.0603 25.8398 11.6203C25.8398 11.1803 25.7998 10.7403 25.7298 10.3403C25.2998 7.95025 23.6398 6.48025 21.3198 6.11025C20.9198 6.05025 20.5098 6.01025 20.0798 6.01025C19.6498 6.01025 19.1998 6.05025 18.7798 6.11025C16.4498 6.50025 14.7998 7.96025 14.3698 10.3403C14.2998 10.7403 14.2598 11.1703 14.2598 11.6203C14.2598 12.0703 14.2998 12.4903 14.3698 12.8803C14.7998 15.2503 16.4498 16.7203 18.7798 17.1103C19.1898 17.1803 19.6198 17.2103 20.0798 17.2103C20.5398 17.2103 20.9298 17.1803 21.3198 17.1103C23.6498 16.7303 25.3098 15.2603 25.7298 12.8803Z" fill="#FCA700"/>
<path d="M25.7298 12.8803C25.7998 12.4803 25.8398 12.0603 25.8398 11.6203C25.8398 11.1803 25.7998 10.7403 25.7298 10.3403C25.2998 7.95025 23.6398 6.48025 21.3198 6.11025C20.9198 6.05025 20.5098 6.01025 20.0798 6.01025C19.6498 6.01025 19.1998 6.05025 18.7798 6.11025C16.4498 6.50025 14.7998 7.96025 14.3698 10.3403C14.2998 10.7403 14.2598 11.1703 14.2598 11.6203C14.2598 12.0703 14.2998 12.4903 14.3698 12.8803C14.7998 15.2503 16.4498 16.7203 18.7798 17.1103C19.1898 17.1803 19.6198 17.2103 20.0798 17.2103C20.5398 17.2103 20.9298 17.1803 21.3198 17.1103C23.6498 16.7303 25.3098 15.2603 25.7298 12.8803Z" fill="#FCA700"/>
<path d="M27.3297 35.4401L27.3097 28.4601C27.5297 22.4201 24.4997 20.1201 19.8297 20.1201C15.4397 20.1201 12.4897 22.4201 12.4897 28.4601L12.5097 35.4401" fill="#FCA700"/>
<path d="M25.2099 12.1401C25.2599 12.9701 26.3499 13.2801 26.5499 12.2501C26.6299 11.8901 26.6899 11.5201 26.6699 11.1401C26.6599 10.7601 26.6899 10.3601 26.6099 9.9401C26.4799 9.1101 26.1599 8.1901 25.4899 7.3401C24.6899 6.4001 23.9499 6.0901 23.3699 5.8501C22.7699 5.6301 22.2499 5.5201 21.5099 5.3701C20.8799 5.3201 20.1399 5.1701 19.3699 5.2501C18.5999 5.2501 17.7699 5.3801 17.0199 5.6601C15.4699 6.1701 14.4099 7.3601 14.0999 7.8301C14.0099 7.9701 13.9099 8.1201 13.8399 8.2701C13.7099 8.5501 13.4899 9.0701 13.3499 9.7701C13.2599 10.1201 13.2599 10.5101 13.2299 10.9401C13.2199 11.1501 13.2099 11.3701 13.1899 11.6001C13.2099 11.8301 13.2299 12.0601 13.2599 12.3001C13.2999 13.2501 13.6099 14.3401 14.2199 15.3201C14.8299 16.3001 15.7699 17.1001 16.7699 17.5701C18.2199 18.2201 19.4499 18.2201 20.3999 18.2201C21.3599 18.1701 22.0599 18.0401 22.5399 17.8801C23.6699 17.5301 24.5699 16.8701 25.1899 16.1101C25.7999 15.3401 26.1299 14.4901 26.2499 13.6701C26.3599 12.7401 25.3699 12.6701 25.0899 13.3401C24.5099 14.5701 23.6199 15.5601 21.9699 16.0901C21.6499 16.2001 21.1099 16.2401 20.4099 16.2001C20.0599 16.2201 19.6799 16.1101 19.2599 16.0601C18.8399 16.0201 18.4099 15.8701 17.9799 15.7101C17.7099 15.5901 17.4299 15.4901 17.1599 15.3601C15.9599 14.8801 15.1399 13.4101 15.1299 12.1101C15.1099 11.9501 15.0999 11.8001 15.0799 11.6501C15.0799 11.5001 15.0999 11.3601 15.1099 11.2301C15.1299 10.9601 15.1499 10.7301 15.1699 10.5401C15.2399 10.1601 15.3199 9.9501 15.3199 9.9501C15.3199 9.9501 15.3999 9.6201 15.6299 9.1601C15.8699 8.7001 16.2999 8.1201 16.9499 7.6901C18.2599 6.7601 20.4199 6.8101 21.5199 7.0301C22.3599 7.2301 22.8999 7.5401 23.2699 7.8101C23.6399 8.0901 23.8499 8.3201 23.9999 8.5101C24.9199 9.6501 25.0799 10.9601 25.1799 12.1501L25.2099 12.1401Z" fill="#101214"/>
<path d="M26.74 34.6903C26.86 35.7003 27.98 35.6903 28.09 34.6903C28.25 33.2603 28.33 31.7703 28.34 29.8403C28.27 27.6803 28.13 27.0303 27.88 25.4803C27.67 24.1803 27.05 22.2903 25.73 21.0703C24.46 19.8103 22.93 19.4003 22.4 19.2203C22.24 19.1803 22.07 19.1403 21.9 19.1203C21.29 19.0603 19.73 18.8603 17.71 19.2603C16.71 19.4703 15.59 19.8703 14.61 20.6103C13.62 21.3303 12.84 22.3703 12.37 23.4303C11.74 24.9403 11.6 26.2203 11.51 27.1903C11.48 27.6803 11.48 28.1103 11.46 28.4703C11.46 28.8103 11.46 29.1003 11.46 29.3303C11.48 31.5303 11.6 33.1703 11.81 34.7803C11.93 35.6703 12.9 35.6603 13.01 34.7803C13.22 33.1703 13.33 31.5303 13.33 29.3303C13.35 28.4603 13.46 26.7103 14.23 24.6703L14.61 23.7103C14.9 23.0403 15.38 22.4103 16.02 21.9603C16.65 21.5103 17.41 21.2403 18.1 21.1103C18.8 20.9603 19.43 20.9503 19.88 20.9503C20.33 20.9703 20.6 20.9803 20.6 20.9803C20.6 20.9803 21 21.0003 21.61 21.1003C22.23 21.1903 23.05 21.4103 23.81 21.8503C24.58 22.2803 25.22 23.0003 25.63 23.8003C26.04 24.6003 26.26 25.4503 26.33 26.1103C26.48 27.0903 26.45 27.8603 26.45 28.4503C26.45 29.0603 26.45 29.4803 26.45 29.8003C26.46 31.7403 26.56 33.2403 26.73 34.6703L26.74 34.6903Z" fill="#101214"/>
</g>
</g>
<defs>
<clipPath id="clip0_1_7935">
<rect width="40" height="40" fill="white"/>
</clipPath>
<clipPath id="clip1_1_7935">
<rect width="40" height="40" fill="white"/>
</clipPath>
</defs>
</svg>
