<svg width="40" height="40" viewBox="0 0 40 40" fill="none" xmlns="http://www.w3.org/2000/svg">
<g clip-path="url(#clip0_1_8438)">
<g clip-path="url(#clip1_1_8438)">
<path d="M40 0H0V40H40V0Z" fill="#FCA700"/>
<path d="M34.89 37.0498C33.88 32.3498 33.34 27.0998 33.34 21.3898C33.34 15.6798 33.89 9.97984 34.96 5.08984H7.06002C6.54002 10.1998 6.27002 15.5698 6.27002 21.1698C6.27002 26.7698 6.52002 32.0198 7.00002 37.0398H34.89V37.0498Z" fill="#09326C"/>
<path d="M6.99982 37.05H34.8898C34.4998 35.22 34.1998 33.28 33.9498 31.29H6.56982C6.67982 33.24 6.81982 35.17 6.99982 37.05Z" fill="#1868DB"/>
<path d="M27.7102 7.97008L26.9302 3.08008L13.4502 3.62008V7.97008H27.7102Z" fill="#1868DB"/>
<path d="M29.4598 23.1302C29.5598 22.4902 29.6098 21.8202 29.5998 21.1002C29.5898 20.3802 29.5198 19.6902 29.3998 19.0502C28.6598 15.2302 25.9598 12.9002 22.2198 12.3402C21.5798 12.2502 20.9098 12.2002 20.2198 12.2102C19.4898 12.2102 18.7998 12.2902 18.1398 12.4102C14.4098 13.0902 11.7898 15.4802 11.1498 19.3002C11.0398 19.9502 10.9898 20.6302 10.9998 21.3602C11.0098 22.0902 11.0798 22.7502 11.1998 23.3902C11.9398 27.1902 14.6298 29.5102 18.3798 30.0902C19.0398 30.1902 19.7398 30.2402 20.4698 30.2302C21.1998 30.2202 21.8298 30.1602 22.4698 30.0502C26.1998 29.3902 28.8398 26.9902 29.4698 23.1502L29.4598 23.1302Z" fill="white"/>
<path d="M25.6999 28.1803C25.7799 23.9303 23.6299 22.3503 20.3399 22.4103C17.2599 22.4603 15.2099 24.1203 15.2899 28.3603V29.0803C16.2199 29.5603 17.2499 29.9003 18.3799 30.0703C19.0399 30.1703 19.7399 30.2203 20.4699 30.2103C21.1699 30.2103 21.8299 30.1403 22.4699 30.0303C23.6799 29.8203 24.7699 29.4203 25.7199 28.8403V28.1803H25.6999Z" fill="#1868DB"/>
<path d="M23.4696 19.4001C23.5096 19.1801 23.5196 18.9401 23.5196 18.6901C23.5196 18.4401 23.4896 18.2001 23.4496 17.9701C23.1896 16.6401 22.2496 15.8201 20.9396 15.6301C20.7196 15.6001 20.4796 15.5801 20.2396 15.5801C19.9996 15.5801 19.7396 15.6101 19.5096 15.6501C18.2096 15.8901 17.2896 16.7201 17.0696 18.0501C17.0296 18.2801 17.0096 18.5101 17.0196 18.7701C17.0296 19.0301 17.0496 19.2601 17.0896 19.4801C17.3496 20.8101 18.2896 21.6201 19.5996 21.8201C19.8296 21.8601 20.0696 21.8701 20.3296 21.8701C20.5896 21.8701 20.8096 21.8401 21.0296 21.8101C22.3296 21.5801 23.2496 20.7401 23.4696 19.4001Z" fill="#1868DB"/>
<path d="M27.5302 8.81C27.9002 8.69 27.9002 7.58 27.5302 7.46C27.0102 7.29 26.4702 7.21 25.7702 7.2C24.9802 7.25 24.7802 7.48 24.2402 7.46C23.3302 7.46 21.8002 7.15 21.4302 7.07C21.3802 7.06 21.3202 7.06 21.2702 7.07C20.8802 7.11 19.1602 7.28 17.6902 7.2C16.6502 7.2 16.0002 7.2 15.6602 7.2C14.8602 7.2 14.2702 7.32 13.6902 7.53C13.3702 7.65 13.3702 8.62 13.6902 8.73C14.2702 8.94 14.8702 9.06 15.6602 9.06C15.9702 9.06 16.6102 9.33 17.5202 9.37C17.6702 9.37 17.8202 9.36 17.9602 9.32C19.2302 8.96 20.8802 9.06 20.8802 9.06C20.8802 9.06 23.3402 9.06 24.3702 9.06C25.1502 9.06 25.5302 9.06 25.7602 9.06C26.4602 9.06 27.0002 8.96 27.5202 8.8L27.5302 8.81Z" fill="#101214"/>
<path d="M14.0701 33.31C13.7201 33.43 13.7201 34.54 14.0701 34.66C14.5601 34.83 15.0801 34.91 15.7501 34.92C16.5101 34.87 16.6901 34.64 17.2001 34.66C18.0601 34.66 19.5201 34.97 19.8701 35.05C19.9201 35.06 19.9701 35.06 20.0301 35.05C20.4001 35.01 22.0401 34.84 23.4401 34.92C24.4301 34.92 25.0501 34.92 25.3701 34.92C26.1301 34.92 26.6901 34.8 27.2501 34.59C27.5601 34.47 27.5601 33.5 27.2501 33.39C26.6901 33.18 26.1301 33.06 25.3701 33.06C25.0801 33.06 24.4601 32.79 23.6001 32.75C23.4601 32.75 23.3201 32.76 23.1801 32.8C21.9701 33.16 20.4001 33.06 20.4001 33.06C20.4001 33.06 18.0601 33.06 17.0701 33.06C16.3301 33.06 15.9701 33.06 15.7501 33.06C15.0801 33.06 14.5701 33.16 14.0701 33.32V33.31Z" fill="#101214"/>
</g>
</g>
<defs>
<clipPath id="clip0_1_8438">
<rect width="40" height="40" fill="white"/>
</clipPath>
<clipPath id="clip1_1_8438">
<rect width="40" height="40" fill="white"/>
</clipPath>
</defs>
</svg>
