<svg width="40" height="40" viewBox="0 0 40 40" fill="none" xmlns="http://www.w3.org/2000/svg">
<g clip-path="url(#clip0_1_8405)">
<g clip-path="url(#clip1_1_8405)">
<path d="M40 0H0V40H40V0Z" fill="#94C748"/>
<path d="M29.1298 39.35C29.2498 40.21 30.3598 40.21 30.4798 39.35C30.6498 38.13 30.7298 36.84 30.7398 35.18C30.6898 33.3 30.4598 32.84 30.4798 31.57C30.4798 29.42 30.7898 25.8 30.8698 24.93C30.8798 24.8 30.8798 24.67 30.8698 24.54C30.8298 23.62 30.6598 19.56 30.7398 16.07C30.7398 13.6 30.7398 12.08 30.7398 11.28C30.7398 9.40004 30.6198 7.99004 30.4098 6.61004C30.2898 5.85004 29.3198 5.85004 29.2098 6.61004C28.9998 7.99004 28.8798 9.40004 28.8798 11.28C28.8798 12.01 28.6098 13.54 28.5698 15.69C28.5698 16.04 28.5798 16.39 28.6198 16.74C28.9798 19.74 28.8798 23.64 28.8798 23.64C28.8798 23.64 28.8798 29.45 28.8798 31.91C28.8798 33.76 28.8798 34.65 28.8798 35.19C28.8798 36.84 28.9798 38.13 29.1398 39.36L29.1298 39.35Z" fill="#101214"/>
<path d="M22.4799 39.35C22.5999 40.21 23.7099 40.21 23.8299 39.35C23.9999 38.13 24.0799 36.84 24.0899 35.18C24.0399 33.3 23.8099 32.84 23.8299 31.57C23.8299 29.42 24.1399 25.8 24.2199 24.93C24.2299 24.8 24.2299 24.67 24.2199 24.54C24.1799 23.62 24.0099 19.56 24.0899 16.07C24.0899 13.6 24.0899 12.08 24.0899 11.28C24.0899 9.40004 23.9699 7.99004 23.7599 6.61004C23.6399 5.85004 22.6699 5.85004 22.5599 6.61004C22.3499 7.99004 22.2299 9.40004 22.2299 11.28C22.2299 12.01 21.9599 13.54 21.9199 15.69C21.9199 16.04 21.9299 16.39 21.9699 16.74C22.3299 19.74 22.2299 23.64 22.2299 23.64C22.2299 23.64 22.2299 29.45 22.2299 31.91C22.2299 33.76 22.2299 34.65 22.2299 35.19C22.2299 36.84 22.3299 38.13 22.4899 39.36L22.4799 39.35Z" fill="#101214"/>
<path d="M15.83 39.35C15.95 40.21 17.06 40.21 17.18 39.35C17.35 38.13 17.43 36.84 17.44 35.18C17.39 33.3 17.16 32.84 17.18 31.57C17.18 29.42 17.49 25.8 17.57 24.93C17.58 24.8 17.58 24.67 17.57 24.54C17.53 23.62 17.36 19.56 17.44 16.07C17.44 13.6 17.44 12.08 17.44 11.28C17.44 9.40004 17.32 7.99004 17.11 6.61004C16.99 5.85004 16.02 5.85004 15.91 6.61004C15.7 7.99004 15.58 9.40004 15.58 11.28C15.58 12.01 15.31 13.54 15.27 15.69C15.27 16.04 15.28 16.39 15.32 16.74C15.68 19.74 15.58 23.64 15.58 23.64C15.58 23.64 15.58 29.45 15.58 31.91C15.58 33.76 15.58 34.65 15.58 35.19C15.58 36.84 15.68 38.13 15.84 39.36L15.83 39.35Z" fill="#101214"/>
<path d="M5.38008 30.4697C4.48008 30.5897 4.48008 31.6997 5.38008 31.8197C6.65008 31.9897 7.99008 32.0697 9.71008 32.0797C11.6601 32.0297 12.1401 31.7997 13.4601 31.8197C15.6901 31.8197 19.4601 32.1297 20.3601 32.2097C20.4901 32.2197 20.6301 32.2197 20.7601 32.2097C21.7201 32.1697 25.9401 31.9997 29.5601 32.0797C32.1201 32.0797 33.7101 32.0797 34.5401 32.0797C36.5001 32.0797 37.9601 31.9597 39.3901 31.7497C40.1801 31.6297 40.1801 30.6597 39.3901 30.5497C37.9501 30.3397 36.4901 30.2197 34.5401 30.2197C33.7801 30.2197 32.2001 29.9497 29.9601 29.9097C29.6001 29.9097 29.2301 29.9197 28.8701 29.9597C25.7501 30.3197 21.7001 30.2197 21.7001 30.2197C21.7001 30.2197 15.6601 30.2197 13.1101 30.2197C11.1901 30.2197 10.2701 30.2197 9.70008 30.2197C7.98008 30.2197 6.64008 30.3197 5.37008 30.4797L5.38008 30.4697Z" fill="#101214"/>
<path d="M5.38008 23.8198C4.48008 23.9398 4.48008 25.0498 5.38008 25.1698C6.65008 25.3398 7.99008 25.4198 9.71008 25.4298C11.6601 25.3798 12.1401 25.1498 13.4601 25.1698C15.6901 25.1698 19.4601 25.4798 20.3601 25.5598C20.4901 25.5698 20.6301 25.5698 20.7601 25.5598C21.7201 25.5198 25.9401 25.3498 29.5601 25.4298C32.1201 25.4298 33.7101 25.4298 34.5401 25.4298C36.5001 25.4298 37.9601 25.3098 39.3901 25.0998C40.1801 24.9798 40.1801 24.0098 39.3901 23.8998C37.9501 23.6898 36.4901 23.5698 34.5401 23.5698C33.7801 23.5698 32.2001 23.2998 29.9601 23.2598C29.6001 23.2598 29.2301 23.2698 28.8701 23.3098C25.7501 23.6698 21.7001 23.5698 21.7001 23.5698C21.7001 23.5698 15.6601 23.5698 13.1101 23.5698C11.1901 23.5698 10.2701 23.5698 9.70008 23.5698C7.98008 23.5698 6.64008 23.6698 5.37008 23.8298L5.38008 23.8198Z" fill="#101214"/>
<path d="M5.38008 17.1699C4.48008 17.2899 4.48008 18.3999 5.38008 18.5199C6.65008 18.6899 7.99008 18.7699 9.71008 18.7799C11.6601 18.7299 12.1401 18.4999 13.4601 18.5199C15.6901 18.5199 19.4601 18.8299 20.3601 18.9099C20.4901 18.9199 20.6301 18.9199 20.7601 18.9099C21.7201 18.8699 25.9401 18.6999 29.5601 18.7799C32.1201 18.7799 33.7101 18.7799 34.5401 18.7799C36.5001 18.7799 37.9601 18.6599 39.3901 18.4499C40.1801 18.3299 40.1801 17.3599 39.3901 17.2499C37.9501 17.0399 36.4901 16.9199 34.5401 16.9199C33.7801 16.9199 32.2001 16.6499 29.9601 16.6099C29.6001 16.6099 29.2301 16.6199 28.8701 16.6599C25.7501 17.0199 21.7001 16.9199 21.7001 16.9199C21.7001 16.9199 15.6601 16.9199 13.1101 16.9199C11.1901 16.9199 10.2701 16.9199 9.70008 16.9199C7.98008 16.9199 6.64008 17.0199 5.37008 17.1799L5.38008 17.1699Z" fill="#101214"/>
<path d="M36.1702 37.8198H10.1802L8.49023 11.8398H37.8502L36.1702 37.8198Z" fill="#1868DB"/>
<path d="M33.8099 35.4699H12.5299L11.1499 14.1899H35.1899L33.8099 35.4699Z" fill="white"/>
<path d="M31.7003 33.3598H14.6403L13.5303 16.2998H32.8103L31.7003 33.3598Z" fill="#09326C"/>
</g>
</g>
<defs>
<clipPath id="clip0_1_8405">
<rect width="40" height="40" fill="white"/>
</clipPath>
<clipPath id="clip1_1_8405">
<rect width="40" height="40" fill="white"/>
</clipPath>
</defs>
</svg>
