<svg width="40" height="40" viewBox="0 0 40 40" fill="none" xmlns="http://www.w3.org/2000/svg">
<g clip-path="url(#clip0_1_8317)">
<g clip-path="url(#clip1_1_8317)">
<path d="M0 40H40V0H0V40Z" fill="#1868DB"/>
<path d="M28.78 23.6201L27.62 26.2101H4.79004V30.2001L15.31 33.8701H36.43V26.3501V26.2101V23.6201H28.78Z" fill="#FCA700"/>
<path d="M18.28 12.3896H13.98V20.2296H18.28V12.3896Z" fill="#FCA700"/>
<path d="M24.5998 12.3799H20.2998V20.2199H24.5998V12.3799Z" fill="#FCA700"/>
<path d="M30.9299 12.3799H26.6299V20.2199H30.9299V12.3799Z" fill="#FCA700"/>
<path d="M0 31.0698C3.33 31.0898 3.32 33.0898 6.65 33.0998C9.98 33.1098 9.99 31.1198 13.32 31.1298C16.65 31.1398 16.64 33.1498 19.97 33.1598C23.3 33.1598 23.31 31.1798 26.65 31.1898C29.99 31.1998 29.98 33.2098 33.31 33.2198C36.64 33.2298 36.66 31.2398 39.99 31.2498V39.9998H0V31.0498V31.0698Z" fill="#8FB8F6"/>
<path d="M5.39004 27.06C4.59004 27.18 4.59004 28.29 5.39004 28.41C6.53004 28.58 7.73004 28.66 9.27004 28.67C11.02 28.62 11.45 28.39 12.64 28.41C14.64 28.41 18.01 28.72 18.83 28.8C18.95 28.81 19.07 28.81 19.19 28.8C20.05 28.76 23.83 28.59 27.08 28.67C29.38 28.67 30.8 28.67 31.54 28.67C33.29 28.67 34.61 28.55 35.89 28.34C36.6 28.22 36.6 27.25 35.89 27.14C34.6 26.93 33.29 26.81 31.54 26.81C30.86 26.81 29.44 26.54 27.43 26.5C27.1 26.5 26.78 26.51 26.45 26.55C23.65 26.91 20.02 26.81 20.02 26.81C20.02 26.81 14.6 26.81 12.32 26.81C10.6 26.81 9.77004 26.81 9.26004 26.81C7.72004 26.81 6.52004 26.91 5.38004 27.07L5.39004 27.06Z" fill="#101214"/>
<path d="M28.7798 23.6197H33.4598V20.2397H10.5698V26.2097H27.6198L28.7798 23.6197Z" fill="white"/>
<path d="M14.06 18.7099C13.95 18.8299 13.95 19.9399 14.06 20.0599C14.22 20.2299 14.38 20.3099 14.59 20.3199C14.83 20.2699 14.89 20.0399 15.05 20.0599C15.32 20.0599 15.78 20.3699 15.89 20.4499C15.91 20.4599 15.92 20.4599 15.94 20.4499C16.06 20.4099 16.57 20.2399 17.01 20.3199C17.32 20.3199 17.52 20.3199 17.62 20.3199C17.86 20.3199 18.04 20.1999 18.21 19.9899C18.31 19.8699 18.31 18.8999 18.21 18.7899C18.04 18.5799 17.86 18.4599 17.62 18.4599C17.53 18.4599 17.33 18.1899 17.06 18.1499C17.02 18.1499 16.97 18.1599 16.93 18.1999C16.55 18.5599 16.06 18.4599 16.06 18.4599C16.06 18.4599 15.32 18.4599 15.01 18.4599C14.78 18.4599 14.66 18.4599 14.59 18.4599C14.38 18.4599 14.22 18.5599 14.06 18.7199V18.7099Z" fill="#101214"/>
<path d="M20.3799 18.7099C20.2699 18.8299 20.2699 19.9399 20.3799 20.0599C20.5399 20.2299 20.6999 20.3099 20.9099 20.3199C21.1499 20.2699 21.2099 20.0399 21.3699 20.0599C21.6399 20.0599 22.0999 20.3699 22.2099 20.4499C22.2299 20.4599 22.2399 20.4599 22.2599 20.4499C22.3799 20.4099 22.8899 20.2399 23.3399 20.3199C23.6499 20.3199 23.8499 20.3199 23.9499 20.3199C24.1899 20.3199 24.3699 20.1999 24.5399 19.9899C24.6399 19.8699 24.6399 18.8999 24.5399 18.7899C24.3599 18.5799 24.1899 18.4599 23.9499 18.4599C23.8599 18.4599 23.6599 18.1899 23.3899 18.1499C23.3499 18.1499 23.2999 18.1599 23.2599 18.1999C22.8799 18.5599 22.3799 18.4599 22.3799 18.4599C22.3799 18.4599 21.6399 18.4599 21.3299 18.4599C21.0999 18.4599 20.9799 18.4599 20.9099 18.4599C20.6999 18.4599 20.5399 18.5599 20.3799 18.7199V18.7099Z" fill="#101214"/>
<path d="M26.7099 18.7099C26.5999 18.8299 26.5999 19.9399 26.7099 20.0599C26.8699 20.2299 27.0299 20.3099 27.2399 20.3199C27.4799 20.2699 27.5399 20.0399 27.6999 20.0599C27.9699 20.0599 28.4299 20.3699 28.5399 20.4499C28.5599 20.4599 28.5699 20.4599 28.5899 20.4499C28.7099 20.4099 29.2199 20.2399 29.6599 20.3199C29.9699 20.3199 30.1699 20.3199 30.2699 20.3199C30.5099 20.3199 30.6899 20.1999 30.8599 19.9899C30.9599 19.8699 30.9599 18.8999 30.8599 18.7899C30.6899 18.5799 30.5099 18.4599 30.2699 18.4599C30.1799 18.4599 29.9799 18.1899 29.7099 18.1499C29.6699 18.1499 29.6199 18.1599 29.5799 18.1999C29.1999 18.5599 28.7099 18.4599 28.7099 18.4599C28.7099 18.4599 27.9699 18.4599 27.6599 18.4599C27.4299 18.4599 27.3099 18.4599 27.2399 18.4599C27.0299 18.4599 26.8699 18.5599 26.7099 18.7199V18.7099Z" fill="#101214"/>
<path d="M28.2598 11.3499C28.2898 12.4899 29.3898 12.7499 29.6098 11.3899C29.7198 10.4399 29.6898 9.38992 29.2698 8.28992C28.8598 7.19992 27.9598 6.07992 26.6298 5.47992C25.1098 4.84992 24.0798 4.97992 23.2498 5.08992C22.4198 5.26992 21.7198 5.44992 20.7798 6.06992C20.3898 6.34992 19.9698 6.73992 19.7098 7.33992C19.4398 7.93992 19.4798 8.68992 19.7098 9.27992C19.9298 9.85992 20.3198 10.3999 20.8498 10.7899C21.3798 11.1799 22.0398 11.3899 22.6698 11.4099C23.9198 11.4799 25.1998 10.7499 25.6698 9.64992C26.1198 8.60992 25.8898 7.67992 25.7398 7.28992C25.6698 7.01992 25.5298 6.82992 25.4098 6.59992C25.1698 6.23992 24.6798 5.61992 23.9198 5.05992C23.1698 4.48992 22.1898 3.94992 21.0498 3.51992C18.7698 2.64992 15.8698 2.27992 13.2198 2.51992C9.45985 2.92992 7.35985 4.09992 6.28985 4.62992C3.76985 5.99992 2.22985 7.53992 0.979848 9.15992C0.289848 10.0699 1.04985 10.6799 1.85985 9.97992C3.34985 8.71992 4.88985 7.49992 7.16985 6.27992C8.05985 5.81992 10.0598 5.08992 12.9198 4.75992L14.3198 4.57992C16.3298 4.28992 18.7198 4.61992 20.3998 5.28992C21.2498 5.61992 21.9098 6.00992 22.3498 6.30992C22.7798 6.61992 22.9898 6.83992 22.9898 6.83992C22.9898 6.83992 23.0898 6.90992 23.2098 7.05992C23.3498 7.19992 23.5398 7.41992 23.6998 7.68992C24.0398 8.21992 24.1298 8.99992 23.4798 9.39992C23.1498 9.59992 22.6798 9.67992 22.2698 9.56992C21.8598 9.44992 21.5198 9.18992 21.3198 8.78992C21.1198 8.38992 21.1098 8.10992 21.2598 7.85992C21.3998 7.59992 21.7098 7.34992 22.0098 7.19992C22.9498 6.71992 23.8798 6.73992 24.4898 6.79992C25.1198 6.86992 25.5298 7.03992 25.8198 7.16992C27.6098 8.00992 28.1298 9.72992 28.2398 11.3399L28.2598 11.3499Z" fill="#101214"/>
</g>
</g>
<defs>
<clipPath id="clip0_1_8317">
<rect width="40" height="40" fill="white"/>
</clipPath>
<clipPath id="clip1_1_8317">
<rect width="40" height="40" fill="white"/>
</clipPath>
</defs>
</svg>
