<svg width="40" height="40" viewBox="0 0 40 40" fill="none" xmlns="http://www.w3.org/2000/svg">
<g clip-path="url(#clip0_1_8371)">
<g clip-path="url(#clip1_1_8371)">
<path d="M40 0H0V40H40V0Z" fill="#1868DB"/>
<path d="M40 40.0001V28.9301C39.01 29.9001 37.78 30.3601 36.35 30.3601C32.81 30.3601 30.37 27.7101 26.83 24.1601C22.18 19.0701 16.86 14.8701 7.12 14.8701C4.6 14.8701 2.22 15.2401 0 15.9601V39.9901H40V40.0001Z" fill="#09326C"/>
<path d="M36.2799 15.3502C35.0499 8.51018 30.2999 4.29018 23.6299 3.21018C22.4899 3.03018 21.2999 2.93018 20.0599 2.93018C18.8199 2.93018 17.5199 3.03018 16.3399 3.23018C9.66988 4.34018 4.92988 8.55018 3.69988 15.3502C3.48988 16.5002 3.37988 17.7202 3.37988 19.0202C3.37988 20.3202 3.48988 21.5002 3.68988 22.6402C4.90988 29.4302 9.65988 33.6502 16.3399 34.7602C17.5199 34.9602 18.7599 35.0602 20.0599 35.0602C21.3599 35.0602 22.4899 34.9702 23.6299 34.7802C30.2999 33.6902 35.0599 29.4702 36.2799 22.6402C36.4799 21.5002 36.5899 20.3002 36.5899 19.0202C36.5899 17.7402 36.4799 16.5002 36.2799 15.3502ZM26.1799 20.3802C25.7199 22.9802 23.9099 24.5802 21.3699 25.0002C20.9399 25.0702 20.4799 25.1102 20.0099 25.1102C19.5399 25.1102 19.0499 25.0702 18.5999 25.0002C16.0599 24.5802 14.2499 22.9702 13.7899 20.3902C13.7099 19.9602 13.6699 19.5002 13.6699 19.0102C13.6699 18.5202 13.7099 18.0502 13.7899 17.6202C14.2599 15.0302 16.0599 13.4302 18.5999 13.0102C19.0499 12.9302 19.5199 12.9002 20.0099 12.9002C20.4999 12.9002 20.9399 12.9402 21.3699 13.0102C23.8999 13.4202 25.7099 15.0302 26.1799 17.6302C26.2599 18.0702 26.2999 18.5302 26.2999 19.0202C26.2999 19.5102 26.2599 19.9602 26.1799 20.4002V20.3802Z" fill="white"/>
<path d="M26.27 19.7002C26.25 19.9302 26.22 20.1602 26.18 20.3702C25.72 22.9702 23.91 24.5702 21.37 24.9902C21.17 25.0202 20.96 25.0202 20.75 25.0402L28.8 33.0902C31.15 31.8702 33.05 30.1102 34.39 27.8302L26.26 19.7002H26.27Z" fill="#BF63F3"/>
<path d="M11.3802 4.81006C9.0002 6.00006 7.0702 7.73006 5.7002 9.98006L13.7402 18.0201C13.7602 17.8801 13.7702 17.7401 13.8002 17.6001C14.2702 15.0101 16.0702 13.4101 18.6102 12.9901C18.8902 12.9401 19.1802 12.9201 19.4802 12.9001L11.3802 4.81006Z" fill="#BF63F3"/>
<path d="M28.7101 4.84033L20.6201 12.9303C20.8701 12.9503 21.1301 12.9503 21.3701 12.9903C23.9001 13.4003 25.7101 15.0103 26.1801 17.6103C26.2101 17.7903 26.2301 17.9703 26.2501 18.1603L34.3401 10.0703C32.9901 7.80033 31.0701 6.05033 28.7101 4.84033Z" fill="#BF63F3"/>
<path d="M11.2801 33.1203L19.3301 25.0703C19.0801 25.0503 18.8401 25.0203 18.6001 24.9803C16.0601 24.5603 14.2501 22.9503 13.7901 20.3703C13.7601 20.1903 13.7401 20.0103 13.7201 19.8203L5.64014 27.9003C7.00014 30.1603 8.92014 31.9103 11.2801 33.1103V33.1203Z" fill="#BF63F3"/>
<path d="M6.37016 9.56002C6.08016 9.44002 5.30016 10.24 5.42016 10.52C5.60016 10.92 5.84016 11.29 6.23016 11.68C6.71016 12.08 6.99016 12.03 7.27016 12.34C7.78016 12.84 8.42016 13.91 8.58016 14.17C8.60016 14.21 8.63016 14.24 8.67016 14.27C8.92016 14.46 10.0002 15.29 10.7802 16.16C11.3702 16.73 11.7302 17.09 11.9202 17.28C12.3702 17.71 12.7902 17.96 13.2602 18.14C13.5202 18.23 14.2002 17.54 14.1002 17.28C13.9202 16.81 13.6702 16.39 13.2202 15.95C13.0502 15.78 12.8702 15.23 12.3902 14.69C12.3102 14.6 12.2202 14.53 12.1002 14.48C11.1302 14.04 10.2802 13.05 10.2802 13.05C10.2802 13.05 8.90016 11.69 8.32016 11.11C7.88016 10.68 7.67016 10.47 7.54016 10.35C7.14016 9.97002 6.77016 9.73002 6.37016 9.56002Z" fill="#101214"/>
<path d="M20.8002 12.5402C20.6902 12.8302 21.5002 13.5902 21.7802 13.4702C22.1802 13.2902 22.5402 13.0402 22.9202 12.6402C23.3102 12.1502 23.2502 11.8802 23.5602 11.5902C24.0502 11.0702 25.1002 10.4102 25.3602 10.2502C25.4002 10.2302 25.4302 10.2002 25.4502 10.1602C25.6302 9.91025 26.4302 8.81025 27.2902 8.02025C27.8502 7.42025 28.2002 7.05025 28.3802 6.86025C28.8002 6.40025 29.0402 5.98025 29.2002 5.50025C29.2902 5.24025 28.5802 4.57025 28.3202 4.67025C27.8502 4.86025 27.4502 5.12025 27.0102 5.57025C26.8402 5.75025 26.3002 5.93025 25.7802 6.42025C25.6902 6.50025 25.6302 6.60025 25.5802 6.71025C25.1602 7.68025 24.2002 8.55025 24.2002 8.55025C24.2002 8.55025 22.8702 9.95025 22.3102 10.5402C21.8902 10.9902 21.6902 11.2002 21.5702 11.3402C21.2002 11.7402 20.9702 12.1202 20.8102 12.5302L20.8002 12.5402Z" fill="#101214"/>
<path d="M26.6601 19.7603C26.3701 19.6303 25.5801 20.4303 25.7101 20.7203C25.8901 21.1303 26.1401 21.5103 26.5401 21.9103C27.0301 22.3303 27.3101 22.2703 27.6001 22.6003C28.1201 23.1203 28.7801 24.2103 28.9401 24.4803C28.9601 24.5203 28.9901 24.5503 29.0301 24.5803C29.2801 24.7703 30.3901 25.6303 31.1801 26.5303C31.7801 27.1203 32.1501 27.4903 32.3501 27.6803C32.8101 28.1303 33.2301 28.3903 33.7201 28.5703C33.9901 28.6703 34.6701 27.9803 34.5701 27.7203C34.3801 27.2403 34.1201 26.8203 33.6701 26.3603C33.4901 26.1803 33.3101 25.6303 32.8201 25.0703C32.7401 24.9803 32.6401 24.9103 32.5301 24.8503C31.5501 24.3803 30.6701 23.3703 30.6701 23.3703C30.6701 23.3703 29.2601 21.9603 28.6701 21.3703C28.2201 20.9303 28.0001 20.7103 27.8701 20.5803C27.4601 20.1903 27.0901 19.9403 26.6701 19.7603H26.6601Z" fill="#101214"/>
<path d="M11.0701 32.6702C10.9601 32.9602 11.7801 33.7202 12.0601 33.5902C12.4601 33.4102 12.8101 33.1502 13.1901 32.7602C13.5701 32.2702 13.5101 32.0002 13.8201 31.7102C14.3001 31.1902 15.3501 30.5202 15.6001 30.3602C15.6401 30.3402 15.6701 30.3102 15.6901 30.2702C15.8701 30.0202 16.6601 28.9202 17.5001 28.1302C18.0501 27.5302 18.4001 27.1602 18.5801 26.9602C19.0001 26.5002 19.2301 26.0802 19.3901 25.6002C19.4801 25.3402 18.7701 24.6802 18.5101 24.7802C18.0401 24.9702 17.6401 25.2302 17.2101 25.6902C17.0401 25.8702 16.5001 26.0502 15.9901 26.5502C15.9101 26.6302 15.8401 26.7302 15.7901 26.8402C15.3801 27.8202 14.4301 28.6902 14.4301 28.6902C14.4301 28.6902 13.1201 30.1002 12.5601 30.6902C12.1501 31.1402 11.9501 31.3602 11.8201 31.4902C11.4501 31.9002 11.2301 32.2702 11.0701 32.6802V32.6702Z" fill="#101214"/>
</g>
</g>
<defs>
<clipPath id="clip0_1_8371">
<rect width="40" height="40" fill="white"/>
</clipPath>
<clipPath id="clip1_1_8371">
<rect width="40" height="40" fill="white"/>
</clipPath>
</defs>
</svg>
