<svg width="40" height="40" viewBox="0 0 40 40" fill="none" xmlns="http://www.w3.org/2000/svg">
<g clip-path="url(#clip0_1_7887)">
<g clip-path="url(#clip1_1_7887)">
<path d="M40 0H0V40H40V0Z" fill="#1868DB"/>
<path d="M40.0601 -0.160156H0.0600586V12.3198C2.70006 18.7598 8.27006 22.7898 15.6001 24.0198C17.1701 24.2798 18.8201 24.4198 20.5401 24.4198C22.2601 24.4198 23.7801 24.2898 25.2901 24.0498C31.9601 22.9698 37.1801 19.5298 40.0601 14.0298V-0.160156Z" fill="#8FB8F6"/>
<path d="M33.4599 25.3696C35.2299 23.1296 36.2099 20.2696 36.2099 16.9096C36.1999 8.51962 29.9999 3.03962 20.5399 3.05962C11.0799 3.07962 4.84988 8.58963 4.85988 16.9196C4.85988 20.4296 5.97987 23.4296 7.94987 25.7396H7.92987C7.92987 25.7396 8.00987 25.8296 8.15987 25.9996C8.18987 26.0296 8.21987 26.0596 8.23987 26.0896C8.97987 26.8796 11.0399 28.9096 14.5699 30.9396C16.2299 31.8996 17.2999 34.0996 17.5599 35.9896C17.6999 37.0196 17.8099 38.2196 17.8299 39.4896H23.2399C23.2599 38.2196 23.3699 37.0196 23.5099 35.9896C23.7599 34.0896 24.8499 31.9196 26.4999 30.9396C29.0799 29.3996 30.8199 28.0196 31.9199 27.0096C31.9999 26.9396 32.0799 26.8596 32.1599 26.7796C32.3999 26.5496 32.6099 26.3496 32.7799 26.1696C32.8599 26.0796 32.9499 25.9996 33.0299 25.9096C33.3499 25.5596 33.4999 25.3596 33.4999 25.3596H33.4799L33.4599 25.3696Z" fill="#FFC716"/>
<path d="M26.5803 21.1297C26.3203 17.5097 23.4503 15.6897 20.5703 15.6597C20.5703 15.6597 20.5503 15.6597 20.5403 15.6597C20.5403 15.6597 20.5203 15.6597 20.5103 15.6597C17.6303 15.6897 14.7603 17.5097 14.5003 21.1297C14.4803 21.3897 14.5603 23.1697 14.5603 23.4297C14.5603 27.5397 19.6903 28.4497 20.2503 28.7997L20.3603 28.5797C20.3603 28.5797 20.5703 28.9097 20.5803 28.9097L20.4703 29.0197L20.8003 28.6897C21.3603 28.3397 27.1503 27.2197 27.1503 23.1097C27.1503 22.8397 26.6003 21.3997 26.5803 21.1297Z" fill="white"/>
<path d="M21.3399 38.6099C21.4299 40.1099 22.5399 40.1599 22.6899 38.6299C22.8999 36.4699 22.9199 34.1699 22.8399 31.2999C22.7799 29.6799 22.7199 28.6999 22.7599 27.8699C22.7899 27.0399 22.8699 26.3299 23.2999 25.4499C23.6599 24.6999 24.2899 23.9399 25.1199 23.2799C25.5499 22.9799 26.0599 22.5599 26.2699 22.5499C26.4499 22.5199 26.5599 22.6199 26.5899 22.7599C26.6499 22.9599 26.6099 23.2999 26.4499 23.5899C26.2699 23.9399 26.0199 24.2999 25.7899 24.5899C25.3199 25.1799 24.8399 25.5499 24.5799 25.7599L24.1099 26.1199C23.5799 26.5399 21.9399 27.7399 19.5199 27.5199C18.3699 27.4199 16.9799 26.9499 16.1599 26.1199C15.7599 25.7199 15.5699 25.1999 15.6499 24.8899C15.7099 24.4799 16.1199 24.1399 16.2399 24.1899C16.3499 24.1899 16.5099 24.2399 16.6899 24.4699C16.8699 24.6999 17.0299 25.0499 17.1499 25.3999C17.3799 26.1399 17.5499 26.8999 17.6699 27.5399C17.9099 28.8499 18.0099 29.8299 18.0699 30.5099C18.3499 33.7199 18.3899 36.1499 18.5199 38.5699C18.5999 39.9299 19.5699 39.9199 19.7199 38.6099C20.0099 36.1999 20.2099 33.6999 19.9399 30.3399C19.8799 29.6899 19.8499 28.6799 19.6899 27.3399C19.5999 26.6699 19.4799 25.9199 19.2799 25.0899C19.1699 24.6499 19.0199 24.1799 18.7599 23.6799C18.4999 23.1899 18.0899 22.5899 17.3099 22.2199C16.8199 21.9899 16.2099 21.9199 15.6499 22.0699C15.0899 22.2199 14.6599 22.5499 14.3499 22.9099C14.0199 23.3099 13.7999 23.7599 13.6799 24.2499C13.5599 24.7299 13.5799 25.3299 13.7199 25.7899C14.0099 26.7399 14.6499 27.4399 15.2999 27.9199C16.6399 28.8799 18.0899 29.2699 19.3999 29.3899C20.7099 29.5099 21.8399 29.2999 22.6099 29.0799C23.3799 28.8399 23.7999 28.6299 23.7999 28.6299C23.7999 28.6299 24.4599 28.3499 25.3599 27.6799C26.2499 26.9999 27.3899 25.9399 28.1399 24.3099C28.3399 23.8499 28.4599 23.3099 28.3899 22.7299C28.3399 22.1799 28.0199 21.4499 27.4099 21.0999C26.8299 20.7099 25.9999 20.7699 25.4799 21.0199C24.9199 21.2799 24.6499 21.5599 24.3099 21.8099C22.9899 22.8199 21.9699 24.1899 21.5699 25.3499C20.9699 27.0799 20.9899 28.3599 20.9399 29.2999C20.9399 30.2399 20.9399 30.8799 20.9599 31.3599C21.0499 34.2699 21.2099 36.4899 21.3299 38.6199L21.3399 38.6099Z" fill="#101214"/>
<path d="M23.8999 35.7998H17.1499V39.9598H23.8999V35.7998Z" fill="white"/>
<path d="M17.2301 35.3097C17.0901 35.4197 16.9901 36.5397 17.2101 36.6597C17.4601 36.8297 17.7301 36.9197 18.0701 36.9297C18.4601 36.8797 18.5501 36.6497 18.8101 36.6797C19.2501 36.6797 19.9901 36.9897 20.1701 37.0697C20.2001 37.0797 20.2201 37.0797 20.2501 37.0697C20.4401 37.0297 21.2701 36.8597 21.9901 36.9397C22.5001 36.9397 22.8101 36.9297 22.9801 36.9197C23.3701 36.8997 23.6601 36.7897 23.9701 36.5597C24.4501 36.3597 23.7801 35.4997 23.8801 35.3597C23.6201 35.1597 23.3301 35.0497 22.9501 35.0497C22.8001 35.0497 22.4901 34.7897 22.0501 34.7397C21.9801 34.7397 21.9101 34.7497 21.8401 34.7897C21.2301 35.1597 20.4401 35.0497 20.4401 35.0497C20.4401 35.0497 19.2501 35.0497 18.7501 35.0397C18.3701 35.0397 18.1901 35.0397 18.0801 35.0397C17.7401 35.0397 17.4801 35.1297 17.2301 35.2897V35.3097Z" fill="#101214"/>
<path d="M17.2301 38.55C17.0901 38.66 16.9901 39.78 17.2101 39.9C17.4601 40.07 17.7301 40.16 18.0701 40.17C18.4601 40.12 18.5501 39.89 18.8101 39.92C19.2501 39.92 19.9901 40.23 20.1701 40.31C20.2001 40.32 20.2201 40.32 20.2501 40.31C20.4401 40.27 21.2701 40.1 21.9901 40.18C22.5001 40.18 22.8101 40.17 22.9801 40.16C23.3701 40.14 23.6601 40.03 23.9701 39.8C24.4501 39.6 23.7801 38.74 23.8801 38.6C23.6201 38.4 23.3301 38.29 22.9501 38.29C22.8001 38.29 22.4901 38.03 22.0501 37.98C21.9801 37.98 21.9101 37.99 21.8401 38.03C21.2301 38.4 20.4401 38.29 20.4401 38.29C20.4401 38.29 19.2501 38.29 18.7501 38.28C18.3701 38.28 18.1901 38.28 18.0801 38.28C17.7401 38.28 17.4801 38.37 17.2301 38.53V38.55Z" fill="#101214"/>
<path d="M36.0497 10.0098C36.0097 10.1598 36.4997 11.1598 36.6397 11.2198C36.8397 11.3098 37.0097 11.3198 37.1897 11.2398C37.3597 11.0998 37.3097 10.8698 37.4497 10.8198C37.6697 10.7098 38.1897 10.7998 38.3097 10.8298C38.3297 10.8298 38.3397 10.8298 38.3497 10.8198C38.4297 10.7398 38.7797 10.3798 39.1797 10.2698C39.4397 10.1398 39.5897 10.0598 39.6797 10.0198C39.8697 9.91981 39.9697 9.73981 40.0197 9.47981C40.0497 9.33981 39.6197 8.45981 39.4897 8.39981C39.2497 8.27981 39.0597 8.24981 38.8597 8.33981C38.7797 8.37981 38.5097 8.20981 38.2597 8.27981C38.2197 8.28981 38.1897 8.32981 38.1697 8.37981C38.0197 8.85981 37.5697 8.96981 37.5697 8.96981C37.5697 8.96981 36.9597 9.25981 36.7097 9.38981C36.5197 9.48981 36.4297 9.52981 36.3697 9.55981C36.1997 9.64981 36.1097 9.79981 36.0497 10.0098Z" fill="#101214"/>
<path d="M33.1296 6.07983C33.1296 6.23983 33.9396 7.01983 34.0996 7.01983C34.3296 7.01983 34.5096 6.95983 34.6696 6.80983C34.7996 6.59983 34.6696 6.38983 34.8096 6.28983C34.9996 6.08983 35.5596 5.95983 35.6896 5.92983C35.7096 5.92983 35.7196 5.91983 35.7296 5.89983C35.7796 5.77983 36.0296 5.27983 36.4096 5.00983C36.6296 4.76983 36.7696 4.62983 36.8396 4.54983C37.0096 4.36983 37.0496 4.14983 37.0296 3.87983C37.0196 3.72983 36.3196 3.04983 36.1596 3.03983C35.8796 3.01983 35.6696 3.07983 35.4896 3.24983C35.4196 3.31983 35.0896 3.27983 34.8596 3.44983C34.8196 3.47983 34.7996 3.51983 34.7996 3.58983C34.7896 4.12983 34.3596 4.41983 34.3596 4.41983C34.3596 4.41983 33.8296 4.96983 33.5996 5.19983C33.4296 5.37983 33.3496 5.45983 33.2996 5.50983C33.1496 5.66983 33.0996 5.84983 33.1096 6.08983L33.1296 6.07983Z" fill="#101214"/>
<path d="M29.0398 3.39988C29.1098 3.53988 30.1298 3.98988 30.2698 3.94988C30.4798 3.88988 30.6198 3.78988 30.7098 3.60988C30.7498 3.38988 30.5598 3.24988 30.6398 3.11988C30.7398 2.88988 31.1898 2.62988 31.3098 2.56988C31.3298 2.56988 31.3398 2.54988 31.3398 2.52988C31.3398 2.41988 31.3798 1.91988 31.6198 1.57988C31.7298 1.31988 31.7998 1.14988 31.8398 1.06988C31.9198 0.869882 31.8798 0.669882 31.7498 0.439882C31.6798 0.309882 30.7898 -0.0801183 30.6498 -0.0501183C30.3898 0.00988173 30.2198 0.109882 30.1198 0.309882C30.0798 0.389882 29.7698 0.439882 29.6198 0.649882C29.5998 0.679882 29.5998 0.729882 29.6198 0.779882C29.8098 1.24988 29.5298 1.61988 29.5298 1.61988C29.5298 1.61988 29.2498 2.22988 29.1398 2.48988C29.0598 2.68988 29.0198 2.77988 28.9898 2.83988C28.9198 3.01988 28.9398 3.18988 29.0298 3.38988L29.0398 3.39988Z" fill="#101214"/>
</g>
</g>
<defs>
<clipPath id="clip0_1_7887">
<rect width="40" height="40" fill="white"/>
</clipPath>
<clipPath id="clip1_1_7887">
<rect width="40" height="40" fill="white"/>
</clipPath>
</defs>
</svg>
