<svg width="40" height="40" viewBox="0 0 40 40" fill="none" xmlns="http://www.w3.org/2000/svg">
<g clip-path="url(#clip0_1_7978)">
<g clip-path="url(#clip1_1_7978)">
<path d="M40 0H0V40H40V0Z" fill="#1868DB"/>
<path d="M30.29 25.6001C23.41 25.6001 19.04 28.2201 17.58 34.6201C17.57 34.6201 17.55 34.6201 17.54 34.6201C14.38 34.6201 12.14 36.4801 11.48 40.0001H40V28.8201C37.79 26.5901 34.54 25.6001 30.29 25.6001Z" fill="white"/>
<path d="M40 0H0V10.19C0.29 10.2 0.57 10.22 0.87 10.22C2.06 10.22 3.17 10.11 4.23 9.9C7.95 14 13.04 16.12 19.12 16.12C25.2 16.12 30.11 14.25 33.95 9.65C35.29 10.03 36.72 10.22 38.25 10.22C38.85 10.22 39.43 10.18 40 10.13V0Z" fill="#8FB8F6"/>
<path d="M33.9298 39.36L25.0598 21.27L32.5098 17.62L8.81982 2L17.6898 20.09L10.2298 23.75L33.9298 39.36Z" fill="#FFC716"/>
<path d="M9.53995 2.28993C9.07995 1.67993 8.08995 2.19993 8.34995 2.92993C8.71995 3.95993 9.16995 4.99993 9.85995 6.27993C10.69 7.70993 11.09 7.95993 11.59 8.95993C12.49 10.6199 13.72 13.5799 14.02 14.2899C14.06 14.3999 14.12 14.4999 14.17 14.5899C14.37 14.9299 14.9 15.8299 15.58 16.9799C15.91 17.5599 16.27 18.1999 16.64 18.8599C16.8 19.1599 16.97 19.4699 17.14 19.7799C17.16 19.8299 17.18 19.8699 17.19 19.9099C17.19 19.9099 17.17 19.9099 17.16 19.9099C15.61 20.5699 14.65 20.9699 14.15 21.1899C12.63 21.8399 11.53 22.4299 10.49 23.0999C9.91995 23.4699 10.3 24.3599 10.96 24.2099C12.16 23.9299 13.35 23.5599 14.88 22.9199C15.18 22.7999 15.66 22.6599 16.29 22.4799C16.6 22.3799 16.95 22.2699 17.34 22.1499C17.54 22.0799 17.76 21.9999 17.98 21.9299C18.39 21.7699 18.81 21.5999 19.25 21.4199C19.59 21.2799 19.93 21.1299 20.24 20.9899L19.84 20.3299C19.52 19.8099 19.18 19.2699 18.85 18.7299L18.29 17.8499C17.92 17.2599 17.59 16.6699 17.3 16.1599C16.72 15.1199 16.34 14.3599 16.34 14.3599C16.34 14.3599 13.92 9.84993 12.9 7.94993C12.13 6.51993 11.75 5.82993 11.53 5.40993C10.83 4.12993 10.22 3.16993 9.55995 2.29993L9.53995 2.28993Z" fill="#101214"/>
<path d="M33.0398 38.8899C33.4998 39.4999 34.4798 38.9699 34.2298 38.2499C33.8698 37.2299 33.4198 36.1999 32.7498 34.9299C31.9298 33.5099 31.5398 33.2699 31.0398 32.2799C30.1598 30.6299 28.9398 27.6999 28.6498 26.9999C28.6098 26.8999 28.5598 26.7899 28.4998 26.6999C28.2998 26.3599 27.7898 25.4799 27.1298 24.3599C26.8098 23.7899 26.4598 23.1599 26.0898 22.5099C25.9298 22.2199 25.7798 21.9299 25.6198 21.6299C25.5998 21.5799 25.5798 21.5399 25.5698 21.4999C25.5698 21.4999 25.5898 21.4999 25.6098 21.4999C27.1698 20.8799 28.1298 20.4899 28.6298 20.2899C30.1498 19.6799 31.2498 19.1199 32.2898 18.4799C32.8598 18.1299 32.4998 17.2299 31.8498 17.3599C30.6498 17.6099 29.4698 17.9499 27.9498 18.5499C27.6498 18.6699 27.1698 18.7899 26.5498 18.9599C26.2398 19.0499 25.8898 19.1499 25.5098 19.2599C25.3098 19.3199 25.0998 19.3899 24.8898 19.4599C24.4798 19.6099 24.0598 19.7699 23.6198 19.9399C23.2398 20.0799 22.8798 20.2399 22.5298 20.3899L22.8698 20.9499C23.1998 21.4899 23.5498 22.0499 23.8898 22.6199L24.4498 23.4899C24.8098 24.0699 25.1398 24.6499 25.4298 25.1699C25.9998 26.1999 26.3798 26.9599 26.3798 26.9599C26.3798 26.9599 28.7698 31.4299 29.7698 33.3099C30.5298 34.7299 30.8998 35.4099 31.1198 35.8299C31.8098 37.0999 32.4098 38.0399 33.0598 38.9099L33.0398 38.8899Z" fill="#101214"/>
</g>
</g>
<defs>
<clipPath id="clip0_1_7978">
<rect width="40" height="40" fill="white"/>
</clipPath>
<clipPath id="clip1_1_7978">
<rect width="40" height="40" fill="white"/>
</clipPath>
</defs>
</svg>
