<svg width="40" height="40" viewBox="0 0 40 40" fill="none" xmlns="http://www.w3.org/2000/svg">
<g clip-path="url(#clip0_1_8296)">
<g clip-path="url(#clip1_1_8296)">
<path d="M40 0H0V40H40V0Z" fill="#BF63F3"/>
<mask id="mask0_1_8296" style="mask-type:luminance" maskUnits="userSpaceOnUse" x="0" y="1" width="41" height="40">
<path d="M40.4697 1H0.469727V41H40.4697V1Z" fill="white"/>
</mask>
<g mask="url(#mask0_1_8296)">
<path d="M35.2696 16.3901L30.7196 19.6801C30.6296 20.7101 30.5596 21.7501 30.5596 22.8101C30.5596 23.8701 30.6196 24.7801 30.6996 25.7401L33.9096 27.8701L35.6796 29.0601L35.2696 16.3901Z" fill="#09326C"/>
<path d="M16.9597 30.8898C16.9397 30.5898 15.8797 30.2398 15.6797 30.4698C15.3997 30.7898 15.1797 31.1598 15.0097 31.6698C14.8697 32.2598 15.0397 32.4798 14.8897 32.8598C14.6697 33.5198 14.0097 34.5398 13.8497 34.7798C13.8297 34.8198 13.8097 34.8498 13.7997 34.8998C13.7497 35.1998 13.4997 36.4998 13.0697 37.5498C12.8197 38.3098 12.6697 38.7798 12.5897 39.0198C12.4097 39.5998 12.3697 40.0698 12.4397 40.5598C12.4697 40.8298 13.3997 41.1298 13.5797 40.9398C13.9197 40.5798 14.1697 40.1798 14.3697 39.6098C14.4397 39.3898 14.8497 38.9998 15.1097 38.3498C15.1497 38.2398 15.1697 38.1298 15.1697 38.0098C15.1297 36.9698 15.6197 35.8098 15.6197 35.8098C15.6197 35.8098 16.2097 34.0198 16.4597 33.2698C16.6397 32.6998 16.7297 32.4298 16.7897 32.2598C16.9497 31.7498 16.9997 31.3298 16.9597 30.8998V30.8898Z" fill="#101214"/>
<path d="M26.0396 40.9202C26.2396 41.1602 27.2996 40.8102 27.3196 40.5002C27.3496 40.0502 27.2896 39.6102 27.1296 39.0702C26.8796 38.4802 26.6096 38.4002 26.4996 37.9802C26.2696 37.2902 26.1796 36.0202 26.1596 35.7102C26.1596 35.6602 26.1496 35.6202 26.1296 35.5802C25.9896 35.2902 25.3996 34.0402 25.1096 32.8802C24.8396 32.0802 24.6796 31.5902 24.5996 31.3302C24.3896 30.7202 24.1296 30.3102 23.7896 29.9302C23.5996 29.7202 22.6796 30.0202 22.6496 30.3102C22.5996 30.8202 22.6396 31.3102 22.8296 31.9202C22.9096 32.1602 22.8196 32.7302 22.9996 33.4402C23.0296 33.5602 23.0796 33.6602 23.1596 33.7602C23.8196 34.6202 24.1396 35.9102 24.1396 35.9102C24.1396 35.9102 24.7496 37.7902 25.0096 38.5802C25.2096 39.1802 25.2996 39.4602 25.3596 39.6402C25.5396 40.1702 25.7596 40.5602 26.0496 40.9002L26.0396 40.9202Z" fill="#101214"/>
<path d="M31.4897 14.9302H8.12967C7.81967 17.4302 7.65967 20.0102 7.65967 22.6702C7.65967 25.3302 7.80967 27.9902 8.11967 30.5102H31.4997C30.8897 28.1202 30.5597 25.5502 30.5597 22.8102C30.5597 20.0702 30.8797 17.3802 31.4997 14.9302H31.4897Z" fill="#1868DB"/>
<path d="M8.62969 15.7299C8.62969 14.7399 7.51969 14.5899 7.28969 15.5799C6.96969 16.9799 6.74969 18.4699 6.67969 20.3999C6.67969 22.5899 6.91969 23.1299 6.92969 24.5999C6.95969 25.8499 6.99969 27.5299 7.02969 29.0199C7.02969 29.2099 7.04969 29.3999 7.04969 29.5899C7.07969 29.9199 7.09969 30.2399 7.12969 30.5499C7.15969 30.8699 7.17969 31.1799 7.20969 31.4799V31.5399H7.26969H7.36969L7.57969 31.5499C7.71969 31.5499 7.84969 31.5599 7.98969 31.5699C8.48969 31.5899 8.92969 31.6099 9.30969 31.6299C9.51969 31.6499 9.69969 31.6599 9.81969 31.6699C9.96969 31.6799 10.1197 31.6799 10.2697 31.6699C11.3297 31.6299 15.9897 31.4599 19.9997 31.5399C22.8297 31.5399 24.5897 31.5399 25.4997 31.5399C27.6597 31.5399 29.2797 31.4199 30.8597 31.2099C31.7297 31.0899 31.7297 30.1199 30.8597 30.0099C29.2697 29.7999 27.6597 29.6799 25.4997 29.6799C24.6597 29.6799 22.9097 29.4099 20.4397 29.3699C20.0397 29.3699 19.6297 29.3799 19.2397 29.4199C15.7897 29.7799 11.3197 29.6799 11.3197 29.6799C11.3197 29.6799 10.8997 29.6799 10.2297 29.6799C9.91969 29.6799 9.54969 29.6799 9.14969 29.6799C9.03969 29.6699 8.84969 29.7299 8.88969 29.5399C8.84969 29.1699 8.81969 28.7799 8.77969 28.3899C8.73969 27.8699 8.69969 27.3499 8.66969 26.8499C8.60969 25.8399 8.57969 24.9099 8.55969 24.2099C8.51969 22.1099 8.55969 21.1099 8.57969 20.4899C8.63969 18.6199 8.66969 17.1599 8.65969 15.7499L8.62969 15.7299Z" fill="#101214"/>
</g>
<path d="M15.0298 15.0499C17.4798 15.0499 19.4698 13.0599 19.4698 10.6099C19.4698 8.15992 17.4798 6.16992 15.0298 6.16992C12.5798 6.16992 10.5898 8.15992 10.5898 10.6099C10.5898 13.0599 12.5798 15.0499 15.0298 15.0499Z" fill="white"/>
<path d="M25.62 15.0402C27.64 15.0402 29.28 13.4002 29.28 11.3802C29.28 9.36022 27.64 7.72021 25.62 7.72021C23.6 7.72021 21.96 9.36022 21.96 11.3802C21.96 13.4002 23.6 15.0402 25.62 15.0402Z" fill="white"/>
<path d="M15.4896 14.4299C14.9196 14.5799 14.7796 15.7099 15.6496 15.7699C16.8296 15.7999 18.1996 15.3299 19.2796 14.0399C19.8396 13.2699 19.9896 12.6799 20.0996 12.1899C20.1696 11.6899 20.2196 11.2699 20.2396 10.6599C20.2696 9.62991 19.9496 8.20991 19.1696 7.17991C18.4196 6.12991 17.3796 5.53991 16.9696 5.35991C16.8496 5.30991 16.7196 5.24991 16.5896 5.21991C16.1396 5.10991 14.8096 4.84991 13.2896 5.39991C12.5396 5.66991 11.7796 6.13991 11.1596 6.77991C10.5396 7.41991 10.0496 8.21991 9.78962 9.06991C9.43962 10.2799 9.56962 11.3199 9.77962 12.0799C9.99962 12.8499 10.3196 13.3599 10.5296 13.6899C11.6496 15.2499 13.1896 15.7699 14.4996 15.6999C15.2496 15.6299 15.1396 14.6499 14.6196 14.4999C13.6596 14.1699 12.7996 13.6499 12.0696 12.6299C11.7996 12.2299 11.5096 11.1699 11.8296 9.89991C11.8796 9.68991 11.9296 9.48991 11.9696 9.27991C12.1496 8.33991 13.0496 7.44991 13.9096 7.17991C14.3296 7.02991 14.7296 6.99991 14.9996 6.99991C15.2696 7.00991 15.4396 7.02991 15.4396 7.02991C15.4396 7.02991 15.6796 7.04991 16.0496 7.15991C16.4196 7.26991 16.9196 7.48991 17.3596 7.87991C17.7996 8.25991 18.1896 8.78991 18.3796 9.34991C18.5896 9.89991 18.6296 10.4599 18.5996 10.8699C18.5596 11.4799 18.3896 11.9199 18.2296 12.2199C18.0796 12.5299 17.9296 12.7199 17.8196 12.8599C17.1196 13.7099 16.3296 14.1499 15.4896 14.4299Z" fill="#101214"/>
<path d="M25.9898 14.4298C25.5398 14.5798 25.3998 15.6998 26.1498 15.7698C27.1498 15.8198 28.3398 15.4298 29.2598 14.3298C29.7398 13.6698 29.8598 13.1598 29.9398 12.7398C29.9998 12.3098 30.0198 11.9598 30.0398 11.4398C30.0698 10.5698 29.8098 9.35976 29.1498 8.45976C28.5198 7.54976 27.6298 7.02976 27.2798 6.86976C27.1798 6.81976 27.0698 6.76976 26.9498 6.74976C26.5598 6.65976 25.4098 6.43976 24.1098 6.91976C23.4698 7.15976 22.8198 7.55976 22.2798 8.09976C21.7498 8.64976 21.3298 9.33976 21.1098 10.0598C20.8098 11.0998 20.9198 11.9898 21.1098 12.6398C21.2998 13.2998 21.5698 13.7398 21.7598 14.0198C22.7198 15.3598 24.0498 15.7898 25.1698 15.6998C25.8098 15.6198 25.6998 14.6398 25.2898 14.4998C24.5198 14.1998 23.8698 13.7598 23.2998 12.9598C23.0798 12.6398 22.9198 11.7998 23.1798 10.8398C23.2198 10.6798 23.2498 10.5298 23.2798 10.3598C23.3798 9.61976 24.0698 8.90976 24.7398 8.69976C25.4098 8.46976 25.9398 8.57976 25.9398 8.57976C25.9398 8.57976 26.1298 8.58976 26.4198 8.67976C26.7098 8.76976 27.0998 8.93976 27.4398 9.23976C28.1798 9.82976 28.4998 10.9398 28.4098 11.5798C28.3198 12.5398 27.9498 12.9198 27.7998 13.1398C27.2498 13.8098 26.6498 14.1698 25.9798 14.4198L25.9898 14.4298Z" fill="#101214"/>
</g>
</g>
<defs>
<clipPath id="clip0_1_8296">
<rect width="40" height="40" fill="white"/>
</clipPath>
<clipPath id="clip1_1_8296">
<rect width="40" height="40" fill="white"/>
</clipPath>
</defs>
</svg>
