<svg width="40" height="40" viewBox="0 0 40 40" fill="none" xmlns="http://www.w3.org/2000/svg">
<g clip-path="url(#clip0_1_8251)">
<g clip-path="url(#clip1_1_8251)">
<path d="M0 40L40 40L40 0L0 0L0 40Z" fill="#BF63F3"/>
<path d="M39.9998 3.91016H9.2998V40.0002H39.9998V3.91016Z" fill="#1868DB"/>
<path d="M39.9998 3.91016H9.2998V9.37016H39.9998V3.91016Z" fill="#09326C"/>
<path d="M14.1197 6.24025C14.0797 6.14025 14.0297 6.04025 13.9697 5.94025C13.9097 5.84025 13.8397 5.75025 13.7697 5.66025C13.3497 5.18025 12.7797 5.06025 12.1997 5.29025C12.0997 5.33025 11.9997 5.38025 11.8997 5.44025C11.7997 5.50025 11.6997 5.57025 11.6197 5.64025C11.1397 6.04025 10.9597 6.60025 11.1897 7.19025C11.2297 7.29025 11.2797 7.39025 11.3397 7.50025C11.3997 7.61025 11.4597 7.69025 11.5297 7.77025C11.9497 8.25025 12.5197 8.36025 13.0997 8.14025C13.1997 8.10025 13.3097 8.05025 13.4097 7.99025C13.5097 7.93025 13.5997 7.87025 13.6797 7.80025C14.1597 7.40025 14.3397 6.84025 14.1097 6.25025L14.1197 6.24025Z" fill="#BF63F3"/>
<path d="M19.9097 6.24025C19.8697 6.14025 19.8197 6.04025 19.7597 5.94025C19.6997 5.84025 19.6297 5.75025 19.5597 5.66025C19.1397 5.18025 18.5697 5.06025 17.9897 5.29025C17.8897 5.33025 17.7897 5.38025 17.6897 5.44025C17.5897 5.50025 17.4897 5.57025 17.4097 5.64025C16.9297 6.04025 16.7497 6.60025 16.9797 7.19025C17.0197 7.29025 17.0697 7.39025 17.1297 7.50025C17.1897 7.61025 17.2497 7.69025 17.3197 7.77025C17.7397 8.25025 18.3097 8.36025 18.8897 8.14025C18.9897 8.10025 19.0997 8.05025 19.1997 7.99025C19.2997 7.93025 19.3897 7.87025 19.4697 7.80025C19.9497 7.40025 20.1297 6.84025 19.8997 6.25025L19.9097 6.24025Z" fill="#1868DB"/>
<path d="M25.6998 6.24025C25.6598 6.14025 25.6098 6.04025 25.5498 5.94025C25.4898 5.84025 25.4198 5.75025 25.3498 5.66025C24.9298 5.18025 24.3598 5.06025 23.7798 5.29025C23.6798 5.33025 23.5798 5.38025 23.4798 5.44025C23.3798 5.50025 23.2798 5.57025 23.1998 5.64025C22.7198 6.04025 22.5398 6.60025 22.7698 7.19025C22.8098 7.29025 22.8598 7.39025 22.9198 7.50025C22.9798 7.61025 23.0398 7.69025 23.1098 7.77025C23.5298 8.25025 24.0998 8.36025 24.6798 8.14025C24.7798 8.10025 24.8898 8.05025 24.9898 7.99025C25.0898 7.93025 25.1798 7.87025 25.2598 7.80025C25.7398 7.40025 25.9198 6.84025 25.6898 6.25025L25.6998 6.24025Z" fill="white"/>
<path d="M36.76 27.1202C36.89 26.3702 36.96 25.5902 36.96 24.7502C36.96 23.9102 36.89 23.1002 36.76 22.3402C35.95 17.8502 32.84 15.0902 28.48 14.3802C27.73 14.2602 26.95 14.2002 26.14 14.2002C25.33 14.2002 24.48 14.2702 23.71 14.4002C19.34 15.1202 16.23 17.8902 15.43 22.3402C15.3 23.0902 15.23 23.8902 15.23 24.7502C15.23 25.6102 15.3 26.3802 15.43 27.1202C16.23 31.5702 19.35 34.3402 23.73 35.0602C24.5 35.1902 25.32 35.2602 26.16 35.2602C27 35.2602 27.75 35.2002 28.5 35.0802C32.88 34.3702 35.99 31.6002 36.8 27.1202H36.78H36.76Z" fill="#BF63F3"/>
<path d="M22.74 32.3301L24.81 30.9101L33.25 25.0901L22.23 17.1201L22.73 32.3301H22.74Z" fill="white"/>
<path d="M23.1497 17.6301C23.0097 16.5701 21.8997 16.5901 21.7997 17.6601C21.6597 19.1701 21.6097 20.7501 21.6397 22.7801C21.7397 25.0801 21.9797 25.6501 21.9797 27.2101C21.9897 27.9601 21.9797 28.8601 21.9697 29.7601C21.9497 31.2901 21.9297 32.8401 21.9197 34.1601C23.0297 33.4401 23.9997 32.8101 24.7797 32.3101C24.9697 32.1901 25.1497 32.0701 25.3197 31.9701C25.4197 31.9101 25.5097 31.8601 25.5897 31.8101C25.7497 31.7101 25.8897 31.6301 25.9897 31.5701C26.1297 31.4901 26.2597 31.4001 26.3897 31.3101C26.7897 31.0101 27.7997 30.2701 29.1297 29.2901C29.7997 28.8101 30.5497 28.2701 31.3497 27.7001C32.5197 26.8901 33.7497 26.0301 34.9897 25.1601C34.6897 24.9301 33.9497 24.3501 33.2197 23.7801C30.6797 21.8301 29.1097 20.6201 28.2897 19.9901C26.4497 18.5901 25.0197 17.6201 23.5397 16.7601C22.7297 16.2801 22.1397 17.0501 22.8097 17.7101C24.0197 18.9101 25.3197 20.0601 27.1497 21.4701C27.8597 22.0201 29.1797 23.3701 31.2397 25.0201L31.2997 25.0701C31.2997 25.0701 31.3297 25.0601 31.3697 25.0701C31.3897 25.0701 31.4197 25.0701 31.4397 25.0801C31.4797 25.1001 31.4697 25.1501 31.4297 25.2101L31.4097 25.2301L31.2897 25.3201L31.0097 25.5401L30.4497 25.9601C29.7097 26.5201 28.9797 27.0501 28.3397 27.5001C27.0597 28.4101 26.1297 29.0301 26.1297 29.0301L23.6597 30.7401L23.5897 26.7801C23.5397 24.5101 23.5197 23.4201 23.5097 22.7501C23.4597 20.7201 23.3397 19.1401 23.1497 17.6401V17.6301Z" fill="#101214"/>
</g>
</g>
<defs>
<clipPath id="clip0_1_8251">
<rect width="40" height="40" fill="white"/>
</clipPath>
<clipPath id="clip1_1_8251">
<rect width="40" height="40" fill="white"/>
</clipPath>
</defs>
</svg>
