<svg width="40" height="40" viewBox="0 0 40 40" fill="none" xmlns="http://www.w3.org/2000/svg">
<g clip-path="url(#clip0_1_8336)">
<g clip-path="url(#clip1_1_8336)">
<path d="M40 0H0V40H40V0Z" fill="#09326C"/>
<path d="M0 8.89V37.64C1.71 37.03 3.42 36.4 5.15 35.74C17.85 30.88 29.39 25.45 40 19.29V0H19.68C13.37 3.19 6.8 6.15 0 8.89Z" fill="#1868DB"/>
<path d="M28.6197 28.9302L28.3097 29.1102C32.7797 25.2302 34.1897 19.9202 32.1497 14.4802C31.8097 13.5702 31.3697 12.6602 30.8497 11.7802C30.3197 10.8802 29.7297 10.0502 29.0797 9.31018C25.2197 4.83018 19.7497 3.53018 14.0997 5.74018C13.2197 6.08018 12.3397 6.52018 11.4797 7.02018C10.5897 7.54018 9.75969 8.13018 8.99969 8.77018C4.35969 12.6802 2.86969 18.0802 4.90969 23.5902C5.24969 24.5102 5.68969 25.4302 6.22969 26.3302C6.75969 27.2202 7.34969 28.0402 7.97969 28.7702C10.5697 31.7702 13.9197 33.3602 17.6697 33.3602C19.3997 33.3602 21.1697 33.0102 22.9397 32.3302C23.2697 32.2002 23.5997 32.0502 23.9297 31.9002L28.5097 39.9502H34.9597L28.6197 28.9202V28.9302ZM25.1197 25.9802C24.5897 26.4202 23.9997 26.8402 23.3497 27.2202C22.6797 27.6202 21.9997 27.9402 21.3297 28.2002C17.5197 29.6702 13.7697 28.9402 11.0497 25.7902C10.5997 25.2602 10.1697 24.6702 9.77969 24.0102C9.37969 23.3402 9.05969 22.6702 8.81969 22.0102C7.36969 18.1002 8.53969 14.4702 11.6597 11.8502C12.2097 11.3902 12.8197 10.9502 13.4997 10.5502C14.1397 10.1702 14.7897 9.85018 15.4397 9.60018C19.2297 8.12018 22.9897 8.85018 25.7197 12.0202C26.1797 12.5502 26.6097 13.1502 27.0097 13.8302C27.3997 14.4902 27.7197 15.1502 27.9597 15.8002C29.4197 19.7202 28.2497 23.3702 25.1197 25.9802Z" fill="#FCA700"/>
<path d="M27.9595 15.8002C27.7195 15.1502 27.3995 14.4902 27.0095 13.8302C26.6195 13.1702 26.1795 12.5602 25.7195 12.0202C22.9795 8.85017 19.2295 8.12017 15.4395 9.60017C14.7895 9.85017 14.1495 10.1702 13.4995 10.5502C12.8495 10.9302 12.2195 11.3802 11.6595 11.8502C8.53951 14.4702 7.36951 18.1102 8.81951 22.0102C9.05951 22.6702 9.37951 23.3402 9.77951 24.0102C10.1795 24.6802 10.5995 25.2702 11.0495 25.7902C13.7695 28.9402 17.5195 29.6702 21.3295 28.2002C21.9995 27.9402 22.6795 27.6102 23.3495 27.2202C24.0195 26.8302 24.5795 26.4202 25.1195 25.9802C28.2495 23.3702 29.4195 19.7202 27.9595 15.8002Z" fill="white"/>
<path d="M27.2699 39.9398C27.4799 40.0798 28.4599 39.5399 28.4499 39.2899C28.4499 38.9399 28.3699 38.5998 28.1699 38.2298C27.8899 37.8298 27.6299 37.8399 27.4999 37.5399C27.2399 37.0599 27.0699 36.0999 27.0299 35.8599C27.0299 35.8299 27.0099 35.7999 26.9899 35.7699C26.8399 35.5799 26.1999 34.7499 25.8399 33.9299C25.5399 33.3799 25.3499 33.0399 25.2499 32.8599C25.0099 32.4399 24.7399 32.1798 24.3799 31.9698C24.1799 31.8598 23.3299 32.3198 23.3199 32.5498C23.2999 32.9598 23.3799 33.3298 23.5999 33.7598C23.6899 33.9198 23.6399 34.3999 23.8599 34.8999C23.8999 34.9799 23.9599 35.0499 24.0299 35.1099C24.7199 35.6099 25.0999 36.5399 25.0999 36.5399C25.0999 36.5399 25.8099 37.8499 26.1099 38.3999C26.3399 38.8099 26.4499 39.0098 26.5199 39.1398C26.7299 39.5098 26.9599 39.7599 27.2599 39.9499L27.2699 39.9398Z" fill="#101214"/>
<path d="M4.51979 14.9801C4.77979 14.1301 3.80979 13.5701 3.27979 14.4501C2.57979 15.7001 2.06979 17.2101 2.02979 19.1801C2.04979 20.3001 2.22979 20.9801 2.37979 21.5601C2.54979 22.1301 2.68979 22.6101 2.89979 23.3201C3.24979 24.5101 3.85979 26.0601 4.56979 27.3601C5.25979 28.6701 6.04979 29.7401 6.37979 30.1401C6.46979 30.2601 6.56979 30.3801 6.68979 30.4801C7.07978 30.8601 8.16979 31.8801 9.81979 32.7901C11.4498 33.7101 13.6598 34.3701 15.7398 34.4601C18.6898 34.5201 20.4098 33.8301 21.2798 33.5601C23.3498 32.8201 24.6798 31.8301 25.8398 30.7501C26.4898 30.1701 25.8698 29.4201 25.1398 29.7701C23.8198 30.4501 22.5098 31.1501 20.6498 31.7901C19.9298 32.0301 18.3398 32.3201 16.1998 32.2801C15.8498 32.2701 15.4998 32.2801 15.1498 32.2801C13.6398 32.3401 11.9198 31.8301 10.7298 31.1301C10.1298 30.8001 9.64979 30.4401 9.31979 30.1701C8.98979 29.9001 8.80979 29.7301 8.80979 29.7301C8.80979 29.7301 7.65979 28.7601 6.61979 27.2401C5.54979 25.7401 4.65979 23.7401 4.35979 22.5201C3.86979 20.6801 3.91979 19.7501 3.90979 19.2001C3.92979 17.5101 4.18979 16.2201 4.52979 14.9801H4.51979Z" fill="#101214"/>
<path d="M24.0795 26.56C24.6995 26.05 24.8196 25.59 24.6196 25.36L24.6695 25.34L24.6096 25.36C24.4096 25.13 23.9095 25.1 23.2895 25.46C22.4295 26.01 21.4795 26.47 20.4295 26.84C19.3795 27.19 18.2195 27.48 16.9495 27.43C15.5195 27.39 14.6595 27.06 13.9395 26.73C13.2295 26.38 12.6295 25.98 11.9395 25.2C10.7595 23.91 9.57955 21.64 9.40955 19.64C9.31955 18.64 9.46955 17.72 9.70955 17.02C9.94955 16.31 10.2795 15.82 10.4595 15.54C10.5795 15.38 10.6695 15.21 10.7895 15.05C11.1595 14.49 12.4095 12.84 14.7395 11.68C15.3095 11.41 15.8895 11.04 16.5495 10.84C17.1995 10.62 17.8795 10.47 18.5595 10.41C19.9295 10.28 21.3095 10.62 22.4295 11.35C24.0395 12.36 24.9796 13.77 25.6196 14.88C26.2596 16.01 26.5396 16.9 26.6796 17.5C27.3696 20.39 26.3796 22.54 24.9296 24.28C24.0996 25.2 24.6496 26.01 25.7796 25.13C26.7596 24.31 27.6396 23.27 28.1996 21.89C28.7696 20.52 28.9295 18.82 28.4995 17.05C28.3395 16.37 28.0695 15.31 27.4595 14.04C26.8495 12.8 25.9395 11.23 24.2095 9.90003C23.6495 9.48003 23.0195 9.13003 22.3495 8.89003C20.9095 8.37003 19.2295 8.25003 17.7295 8.54003C16.9795 8.68003 16.2595 8.89003 15.5995 9.14003C14.9395 9.40003 14.3595 9.74003 13.7895 10.01C12.6395 10.55 11.7895 11.23 11.1895 11.71C10.5995 12.21 10.2695 12.54 10.2695 12.54C10.2695 12.54 9.75955 13 9.09955 13.93C8.45955 14.84 7.71955 16.31 7.58955 18.06C7.43955 19.8 7.92955 21.65 8.65955 23.14C9.38955 24.64 10.3095 25.9 11.1495 26.73C12.4095 27.99 13.6695 28.6 14.6395 28.92C15.6195 29.23 16.3395 29.27 16.8695 29.3C18.4995 29.35 19.8695 28.94 21.0495 28.45C22.2195 27.94 23.1995 27.32 24.0595 26.57L24.0795 26.56Z" fill="#101214"/>
</g>
</g>
<defs>
<clipPath id="clip0_1_8336">
<rect width="40" height="40" fill="white"/>
</clipPath>
<clipPath id="clip1_1_8336">
<rect width="40" height="40" fill="white"/>
</clipPath>
</defs>
</svg>
