<svg width="40" height="40" viewBox="0 0 40 40" fill="none" xmlns="http://www.w3.org/2000/svg">
<g clip-path="url(#clip0_1_8265)">
<g clip-path="url(#clip1_1_8265)">
<path d="M40 0H0V40H40V0Z" fill="#BF63F3"/>
<path d="M19.9398 8.9502L4.31982 22.0102V37.7902H35.5598V22.0102L19.9398 8.9502Z" fill="white"/>
<path d="M4.80999 21.4801C4.10999 22.2501 4.83999 23.0901 5.69999 22.4901C6.90999 21.6401 8.13999 20.6901 9.62999 19.3801C11.29 17.8501 11.56 17.3101 12.72 16.3201C14.66 14.6101 18.13 11.9701 18.97 11.3401C19.09 11.2501 19.21 11.1501 19.33 11.0401C19.4 10.9701 19.5 10.8801 19.7 10.7001C20.03 10.4101 19.9 10.5101 19.94 10.4601C19.94 10.4601 19.94 10.4501 19.96 10.4401H19.98C19.98 10.4401 19.98 10.4401 20.01 10.4601L20.17 10.5901C20.6 10.9501 21.13 11.4001 21.71 11.8901C22.88 12.8801 24.26 14.0901 25.53 15.2501C27.76 17.2101 29.14 18.4201 29.86 19.0501C31.56 20.5401 32.91 21.5701 34.3 22.5101C35.06 23.0301 35.7 22.3001 35.1 21.6101C33.99 20.3501 32.8 19.1501 31.11 17.6501C30.45 17.0701 29.25 15.6601 27.34 13.9101C27.03 13.6301 26.7 13.3601 26.36 13.1201C25.23 12.3101 24.03 11.3501 22.98 10.4701C22.46 10.0301 21.97 9.6101 21.55 9.2501C20.91 8.6801 20.36 8.2001 19.96 7.8501C19.34 8.3901 19 8.6801 19 8.6801C19 8.6801 13.64 13.3901 11.38 15.3801C9.70999 16.8501 8.90999 17.5601 8.41999 17.9901C6.92999 19.3101 5.82999 20.4001 4.82999 21.5001L4.80999 21.4801Z" fill="#101214"/>
<path d="M40.0001 4.35002V0.0200195H36.5501C11.2901 10.21 15.2301 34.18 15.2801 34.45L20.4001 35.16C20.2401 34.22 17.1301 12.9 40.0001 4.35002Z" fill="#FCA700"/>
<path d="M39.9998 8.87014V3.14014C15.4398 13.4701 19.3098 37.0401 19.3598 37.3101L24.4998 36.3901C24.3398 35.5101 21.4698 17.9201 39.9998 8.87014Z" fill="#BF63F3"/>
<path d="M39.9998 8.03002C25.7398 15.98 23.5898 28.67 23.4898 35.46C23.4698 36.54 28.6498 36.7 28.6598 35.61C28.7098 30.37 29.7898 20.13 39.9998 13.13V8.02002V8.03002Z" fill="#D8A0F7"/>
<path d="M39.6699 9.70023C40.2799 9.24023 39.8099 8.23023 39.0599 8.50023C37.9999 8.89023 36.8899 9.34023 35.6199 10.2002C35.2599 10.4502 34.9799 10.6602 34.7499 10.8502C34.5199 11.0502 34.3499 11.2402 34.1799 11.4102C33.8499 11.7502 33.5599 12.0302 33.0899 12.3802C31.5699 13.6202 29.0399 15.8602 28.5499 16.5402C28.4699 16.6302 28.3899 16.7202 28.3199 16.8202C28.0499 17.1602 27.4499 18.1602 26.7299 19.4302C26.0499 20.7202 25.2899 22.3102 24.7499 23.8402C24.0199 26.0202 23.7599 27.4202 23.6499 28.1502C23.3599 29.8702 23.3899 31.2002 23.5699 32.4702C23.6699 33.1702 24.6399 33.1502 24.7699 32.4902C25.0099 31.2802 25.1999 30.0702 25.4899 28.4702C25.5799 27.8402 26.1099 26.6002 26.7099 24.8702C26.8199 24.5902 26.8999 24.3002 26.9699 24.0102C27.2299 22.7302 27.8399 21.3702 28.3999 20.3402C28.6699 19.8202 28.9699 19.4202 29.1599 19.1202C29.3599 18.8202 29.4799 18.6502 29.4799 18.6502C29.4799 18.6502 29.5199 18.5802 29.5999 18.4702C29.6899 18.3602 29.8099 18.2002 29.9699 18.0002C30.2899 17.6102 30.6699 17.0202 31.1999 16.4802C32.1999 15.3302 33.5199 14.1202 34.3599 13.4602C34.9899 12.9702 35.4599 12.6002 35.8199 12.3302C36.1999 12.0802 36.4599 11.9102 36.6599 11.7802C37.8399 10.9502 38.8099 10.3802 39.6799 9.72023L39.6699 9.70023Z" fill="#101214"/>
<path d="M23.03 37.79L4.25 22.02L4.28 37.79H23.03Z" fill="white"/>
<path d="M16.8501 37.79L35.6301 22.02L35.6001 37.79H16.8501Z" fill="white"/>
<path d="M35.0602 23.2399C35.7602 22.4699 35.0302 21.6299 34.1702 22.2299C32.9602 23.0799 31.7302 24.0299 30.2402 25.3399C28.5802 26.8699 28.3102 27.4099 27.1502 28.3999C25.2102 30.1099 21.7402 32.7499 20.9002 33.3799C20.7802 33.4699 20.6602 33.5699 20.5402 33.6799C20.4702 33.7499 20.3702 33.8399 20.1702 34.0199C19.8402 34.3099 19.9702 34.2099 19.9302 34.2599C19.9302 34.2599 19.9302 34.2699 19.9102 34.2799H19.8902C19.8902 34.2799 19.8902 34.2799 19.8602 34.2599L19.7002 34.1299C19.2702 33.7699 18.7402 33.3199 18.1602 32.8299C16.9902 31.8399 15.6102 30.6299 14.3402 29.4699C12.1102 27.5099 10.7302 26.2999 10.0102 25.6699C8.31018 24.1799 6.96018 23.1499 5.57018 22.2099C4.81018 21.6899 4.17018 22.4199 4.77018 23.1099C5.88018 24.3699 7.07018 25.5699 8.76018 27.0699C9.42018 27.6499 10.6202 29.0599 12.5302 30.8099C12.8402 31.0899 13.1702 31.3599 13.5102 31.5999C14.6402 32.4099 15.8402 33.3699 16.8902 34.2499C17.4102 34.6899 17.9002 35.1099 18.3202 35.4699C18.9602 36.0399 19.5102 36.5199 19.9102 36.8699C20.5302 36.3299 20.8702 36.0399 20.8702 36.0399C20.8702 36.0399 26.2302 31.3299 28.4902 29.3399C30.1602 27.8699 30.9602 27.1599 31.4502 26.7299C32.9402 25.4099 34.0402 24.3199 35.0402 23.2199L35.0602 23.2399Z" fill="#101214"/>
</g>
</g>
<defs>
<clipPath id="clip0_1_8265">
<rect width="40" height="40" fill="white"/>
</clipPath>
<clipPath id="clip1_1_8265">
<rect width="40" height="40" fill="white"/>
</clipPath>
</defs>
</svg>
