<svg width="40" height="40" viewBox="0 0 40 40" fill="none" xmlns="http://www.w3.org/2000/svg">
<g clip-path="url(#clip0_1_8024)">
<g clip-path="url(#clip1_1_8024)">
<path d="M40 0H0V40H40V0Z" fill="#1868DB"/>
<path d="M4.14014 35.7602L11.8501 35.0002V4.41016H4.14014V35.7602Z" fill="white"/>
<path d="M10.4 8.22013C10.36 8.11013 10.31 8.00013 10.24 7.89013C10.17 7.78013 10.1 7.68013 10.03 7.59013C9.57996 7.06013 8.94996 6.94013 8.32996 7.19013C8.21996 7.23013 8.11996 7.28013 8.00996 7.35013C7.89996 7.42013 7.79996 7.49013 7.70996 7.56013C7.18996 7.99013 6.99996 8.60013 7.23996 9.24013C7.27996 9.35013 7.32996 9.46013 7.39996 9.57013C7.46996 9.68013 7.53996 9.78013 7.60996 9.87013C8.05996 10.3901 8.67996 10.5101 9.30996 10.2701C9.41996 10.2301 9.52996 10.1701 9.63996 10.1101C9.74996 10.0501 9.83996 9.98013 9.92996 9.90013C10.45 9.47013 10.64 8.86013 10.4 8.21013V8.22013Z" fill="#1868DB"/>
<path d="M11.8501 35.0002L19.4701 36.3102L19.6101 6.79016L11.8501 4.41016V35.0002Z" fill="#CFE1FD"/>
<path d="M35.6302 4.41016H27.8402L19.6102 6.79016L19.4702 36.3102L27.8702 35.0002L35.6302 35.7602V4.41016Z" fill="white"/>
<path d="M27.8703 35.0002L35.6303 35.7602V4.41016H27.8403L27.8703 35.0002Z" fill="#CFE1FD"/>
<path d="M19.5202 11.8901L15.6302 17.3701L14.7202 18.6601L24.1002 18.6201L19.5202 11.8901Z" fill="#82B536"/>
<path d="M32.8702 28.3899C32.9002 28.1899 32.1103 27.3999 31.9203 27.4399C31.6403 27.4899 31.4003 27.5999 31.1803 27.8099C30.9703 28.0999 31.0702 28.3299 30.8802 28.4799C30.5902 28.7699 29.8902 29.0399 29.7102 29.0999C29.6802 29.0999 29.6703 29.1199 29.6503 29.1499C29.5603 29.2999 29.1303 29.9699 28.6003 30.3799C28.2703 30.7099 28.0702 30.9199 27.9602 31.0299C27.7102 31.2899 27.6003 31.5599 27.5703 31.8899C27.5503 32.0699 28.2403 32.7599 28.4203 32.7399C28.7603 32.6999 29.0203 32.5999 29.2803 32.3499C29.3803 32.2499 29.7703 32.2399 30.0903 31.9799C30.1403 31.9399 30.1803 31.8799 30.1903 31.7999C30.3403 31.1399 30.9303 30.6899 30.9303 30.6899C30.9303 30.6899 31.7103 29.9099 32.0403 29.5799C32.2903 29.3299 32.4002 29.2099 32.4802 29.1399C32.7002 28.9099 32.8102 28.6799 32.8502 28.3999L32.8702 28.3899Z" fill="#101214"/>
<path d="M32.0401 32.7799C32.2401 32.8099 33.0301 32.0199 32.9901 31.8299C32.9401 31.5499 32.8301 31.3099 32.6101 31.0899C32.3201 30.8699 32.0901 30.9799 31.9401 30.7899C31.6501 30.4999 31.3801 29.7999 31.3201 29.6199C31.3201 29.5899 31.3001 29.5799 31.2701 29.5599C31.1201 29.4699 30.4501 29.0399 30.0401 28.5099C29.7101 28.1799 29.5001 27.9799 29.3901 27.8699C29.1301 27.6199 28.8601 27.5099 28.5301 27.4799C28.3501 27.4599 27.6601 28.1499 27.6801 28.3299C27.7201 28.6699 27.8201 28.9299 28.0701 29.1899C28.1701 29.2899 28.1801 29.6799 28.4401 29.9999C28.4801 30.0499 28.5401 30.0899 28.6201 30.0999C29.2801 30.2499 29.7301 30.8399 29.7301 30.8399C29.7301 30.8399 30.5101 31.6199 30.8401 31.9499C31.0901 32.1999 31.2101 32.3099 31.2801 32.3899C31.5101 32.6099 31.7401 32.7199 32.0301 32.7599L32.0401 32.7799Z" fill="#101214"/>
<path d="M9.7903 8.30002C9.9703 8.40002 11.0603 8.11002 11.0003 7.71002C10.9203 7.20002 10.6503 6.57002 9.7903 6.21002C9.3003 6.06002 8.9703 6.15002 8.7403 6.21002C8.5003 6.29002 8.3303 6.39002 8.0703 6.47002C7.6603 6.65002 7.1103 6.86002 6.6703 7.31002C6.2103 7.75002 6.0003 8.41002 5.9803 8.65002C5.9703 8.72002 5.9603 8.80002 5.9803 8.87002C6.0003 9.14002 6.1903 9.77002 6.6403 10.33C6.8503 10.61 7.1703 10.92 7.5903 11.14C8.0103 11.36 8.5203 11.44 8.9603 11.41C9.5903 11.33 9.9703 11.11 10.2703 10.92C10.5603 10.73 10.7703 10.55 10.9003 10.4C11.5403 9.70002 11.5103 8.70002 11.1303 8.21002C10.9203 7.91002 10.0403 8.35002 9.9703 8.51002C9.8203 8.86002 9.6903 8.93002 9.5103 9.15002C9.4503 9.24002 8.9903 9.23002 8.7803 9.22002C8.7503 9.22002 8.7203 9.24002 8.7003 9.28002C8.6003 9.47002 8.3403 9.45002 8.1903 9.22002C8.0303 9.02002 8.0103 8.85002 8.0203 8.86002C8.0203 8.86002 7.9603 8.66002 8.0503 8.48002C8.1203 8.28002 8.5303 8.03002 8.7203 7.96002C9.0103 7.88002 9.0803 7.94002 9.1503 7.95002C9.3203 7.99002 9.5403 8.13002 9.8103 8.29002L9.7903 8.30002Z" fill="#101214"/>
<path d="M7.91001 13.4101C8.17001 12.5201 8.12001 11.9801 7.83001 11.8401C7.56001 11.7001 7.04001 12.0201 6.64001 12.9401C6.36001 13.6001 6.11001 14.2701 5.92001 15.0201C5.75001 15.7701 5.58001 16.5601 5.71001 17.5401C5.80001 18.0301 5.95001 18.6001 6.42001 19.1001C6.65001 19.3201 6.95 19.5601 7.24 19.6501C7.39 19.7101 7.55001 19.7601 7.70001 19.8101L8.10001 19.8701C8.64001 19.9401 9.27001 19.8801 9.85001 19.6501C10.42 19.4101 10.89 19.0401 11.27 18.6601C12.11 17.7601 12.52 17.0101 12.92 16.4001C13.31 15.7901 13.61 15.2901 13.92 14.8501C14.54 13.9801 15.11 13.2401 16.17 12.4901C17.06 11.8401 18.26 11.3201 19.58 11.0401C20.91 10.7701 22.36 10.7601 23.72 10.8701C25.07 10.9701 26.19 11.3201 26.85 11.8401C27.52 12.3401 27.81 12.9601 27.92 13.2901C28 13.4901 28.05 13.6901 28.1 13.8901C28.19 14.2701 28.29 14.8801 27.87 15.8301C27.51 16.7501 26.56 17.7601 25.2 18.6401C23.85 19.5301 22.12 20.2901 20.32 21.0401C18.51 21.8001 16.6 22.5201 14.8 23.5501C13.55 24.2901 12.39 25.2001 11.73 26.4701C11.38 27.1001 11.25 27.7801 11.21 28.4301C11.19 29.1101 11.35 29.7201 11.58 30.2401C12.05 31.2801 12.84 31.9901 13.67 32.3601C14.52 32.7301 15.29 32.7101 15.86 32.6101C17.22 32.3401 18.1 31.6601 18.88 31.1401C19.65 30.6001 20.31 30.1301 20.95 29.8601C22.28 29.3001 23.73 29.2401 25.05 29.6001C25.77 29.8101 26.22 29.8101 26.38 29.5801C26.52 29.3601 26.3 28.8601 25.46 28.4701C23.94 27.8101 22.13 27.6601 20.34 28.2801C19.42 28.5901 18.63 29.1301 17.86 29.6201C17.1 30.1101 16.31 30.6201 15.54 30.7501C15.25 30.8001 14.86 30.7901 14.5 30.6101C14.13 30.4401 13.73 30.0701 13.48 29.5301C12.94 28.4601 13.43 26.9901 15.27 25.8301C15.85 25.4401 16.47 25.0801 17.12 24.7101C19.93 23.1401 23.65 21.9001 26.3 20.1601C27.63 19.3001 28.68 18.2901 29.23 17.3801C29.8 16.4901 29.94 15.8601 29.94 15.8601C29.94 15.8601 29.96 15.8001 29.99 15.7001C30.03 15.6001 30.07 15.4301 30.11 15.2101C30.19 14.7701 30.22 14.1201 30.05 13.3501C29.87 12.5901 29.49 11.7301 28.79 10.9801C28.09 10.2101 27.08 9.66007 26.02 9.39007C24.96 9.11007 23.87 9.04007 22.81 9.03007C21.74 9.01007 20.65 9.10007 19.62 9.30007C17.53 9.67007 15.71 10.6501 14.59 11.6201C12.88 13.0601 12.05 14.4501 11.38 15.3901C10.73 16.3501 10.29 16.9501 9.93001 17.3101C9.37001 17.8801 8.89001 18.0801 8.29001 18.0301C7.93001 18.0101 7.84001 17.9201 7.69001 17.8301C7.57001 17.7201 7.47001 17.4901 7.40001 17.2201C7.28001 16.6601 7.34001 15.9601 7.44001 15.3201C7.54001 14.6601 7.71001 14.0201 7.89001 13.3901L7.91001 13.4101Z" fill="#101214"/>
</g>
</g>
<defs>
<clipPath id="clip0_1_8024">
<rect width="40" height="40" fill="white"/>
</clipPath>
<clipPath id="clip1_1_8024">
<rect width="40" height="40" fill="white"/>
</clipPath>
</defs>
</svg>
