<svg width="40" height="40" viewBox="0 0 40 40" fill="none" xmlns="http://www.w3.org/2000/svg">
<g clip-path="url(#clip0_1_7873)">
<g clip-path="url(#clip1_1_7873)">
<path d="M40 0H0V40H40V0Z" fill="#1868DB"/>
<path d="M31.7996 -0.0498047L23.0796 8.8102L30.3196 31.1002L40.1396 32.7402V-0.0498047H31.7996Z" fill="#8FB8F6"/>
<path d="M7.5 21.0303L10.42 30.0203L31.09 33.4803L22.19 6.09033L7.5 21.0303Z" fill="#FFC716"/>
<path d="M16.8098 31.4104C16.7798 31.2904 16.7498 31.1904 16.7198 31.0704L19.9598 31.6104L14.2798 14.1304L7.49979 21.0304L7.83979 22.0704L6.00979 22.6704C3.15979 23.4804 2.54979 25.2404 3.24979 27.4204C3.90979 29.4604 5.42979 30.4904 8.24979 29.5804L10.0798 28.9804L10.4198 30.0204L12.0798 30.3004C12.2598 30.8004 12.6398 31.9204 12.9998 33.4804C13.2498 34.5804 13.4998 35.8804 13.6598 37.3404C13.7598 38.2704 13.8098 39.1404 13.8298 39.9504H17.9398C17.9198 38.9304 17.8598 37.8204 17.7298 36.6404C17.5098 34.6204 17.1598 32.8504 16.7998 31.4104H16.8098Z" fill="white"/>
<path d="M9.3798 28.7203C10.1398 30.6703 11.1998 30.3203 10.6598 28.3003C10.3598 27.1603 10.0398 25.9903 9.6798 24.7503C9.3598 23.6903 9.0298 22.5603 8.6498 21.3103L8.6998 21.2703C8.7798 21.2003 8.8498 21.1203 8.9398 21.0403C9.1998 20.7803 9.4698 20.5003 9.7498 20.2203C12.8798 16.9603 13.5098 15.9903 15.6798 13.8203C16.7098 12.7703 17.9498 11.5403 19.2198 10.3103C19.8598 9.69025 20.4898 9.08025 21.1098 8.48025L21.5198 8.09025L21.6198 8.01025C21.6798 7.96025 21.7298 7.93025 21.7698 7.91025C21.7798 7.98025 21.7898 8.05025 21.7998 8.11025V8.19025L21.8098 8.22025C21.8098 8.22025 21.8098 8.23025 21.8398 8.33025C22.0098 8.93025 22.1698 9.47025 22.3198 9.96025C22.5998 10.9403 22.8098 11.6703 22.9398 12.1103C23.0298 12.4103 23.1198 12.7103 23.2198 13.0003C23.5798 14.0603 24.5498 16.9003 25.7798 20.4703C26.3798 22.2603 27.0398 24.2403 27.7098 26.2703C28.3498 28.2403 28.9998 30.2603 29.6198 32.2003L29.6798 32.4003L21.8298 30.7803C17.3798 29.8703 14.0298 29.2903 10.7198 28.8303C8.8998 28.5703 8.7098 29.5203 10.4798 30.0103C13.6998 30.8903 16.9998 31.6903 21.4498 32.6203C22.2598 32.7903 23.4698 33.1003 25.0598 33.4903C25.8598 33.6903 26.7498 33.9003 27.7298 34.1503C28.3098 34.2803 28.9098 34.4203 29.5398 34.5703C30.6198 34.8003 31.7498 35.0503 32.9198 35.3003C32.8098 34.9503 32.6098 34.3303 32.4098 33.7003L31.6498 31.4003L31.2198 30.2103C28.6298 23.4403 25.8098 14.4703 25.8098 14.4703L22.5598 4.51025L13.9598 13.2603C10.8398 16.4403 9.3298 17.9703 8.4098 18.9103C7.7198 19.6203 7.0698 20.2903 6.5498 20.8303C6.8498 21.7203 7.1398 22.5703 7.4198 23.3903C7.6498 24.0503 7.8798 24.6803 8.0898 25.2903C8.5298 26.5103 8.9498 27.6403 9.3798 28.7403V28.7203Z" fill="#101214"/>
<path d="M26.6896 11.2304C26.8096 11.3504 26.3296 12.6104 27.2196 12.4704C27.8196 12.3804 28.3196 12.2104 28.9496 11.8804C29.6196 11.4604 29.6796 11.1604 30.1496 10.9304C30.9296 10.5004 32.3996 10.0204 32.7496 9.91036C32.7996 9.89036 32.8496 9.87036 32.8896 9.84036C33.1996 9.61036 34.5896 8.63036 35.8796 7.98036C36.7696 7.47036 37.3196 7.15036 37.5996 6.98036C38.2696 6.58036 38.7196 6.19036 39.1096 5.73036C39.3196 5.47036 38.8496 4.63036 38.5096 4.68036C37.8996 4.78036 37.3396 4.97036 36.6596 5.36036C36.3996 5.51036 35.7096 5.59036 34.9196 6.00036C34.7896 6.07036 34.6696 6.15036 34.5696 6.26036C33.6696 7.20036 32.2196 7.91036 32.2196 7.91036C32.2196 7.91036 30.1196 9.09036 29.2296 9.58036C28.5596 9.95036 28.2396 10.1304 28.0496 10.2404C27.4596 10.5604 27.0196 10.9004 26.6796 11.2304H26.6896Z" fill="#101214"/>
<path d="M28.6899 18.9801C28.5599 19.0601 28.6299 19.3701 28.5899 19.6801C28.5599 19.9901 28.8099 20.2801 28.9699 20.3001C29.4499 20.3601 29.8899 20.3401 30.4399 20.2001C31.0399 19.9801 31.1399 19.7201 31.5599 19.6301C32.2599 19.4401 33.5299 19.4101 33.8299 19.4001C33.8799 19.4001 33.9199 19.3901 33.9599 19.3701C34.2499 19.2501 35.5299 18.7101 36.6799 18.4601C37.4799 18.2301 37.9799 18.0801 38.2399 18.0101C38.8499 17.8301 39.2799 17.5901 39.6599 17.2601C39.7099 17.2101 39.7399 17.1201 39.7399 17.0101C39.7399 16.9601 39.7399 16.8901 39.7099 16.8301V16.8101L39.6899 16.7901L39.6699 16.7001L39.6499 16.5701C39.6499 16.5701 39.6599 16.6401 39.6299 16.6601C39.6199 16.6601 39.5999 16.6701 39.5599 16.6501C39.5199 16.6301 39.4899 16.5301 39.5099 16.4901C39.5399 16.4101 39.5499 16.4101 39.5699 16.4101C39.5899 16.4101 39.5899 16.4101 39.5999 16.4201C39.6099 16.4301 39.6099 16.4501 39.6199 16.4701C39.6299 16.4901 39.6399 16.5601 39.6499 16.5401C39.6499 16.5001 39.6299 16.4701 39.6199 16.4401C39.5899 16.3801 39.5599 16.3201 39.5299 16.2801C39.4699 16.1801 39.3999 16.1201 39.3299 16.1101C38.8199 16.0301 38.3299 16.0601 37.7199 16.2201C37.4799 16.2901 36.9099 16.1701 36.1999 16.3301C36.0799 16.3601 35.9799 16.4101 35.8699 16.4801C34.9899 17.1101 33.6999 17.3701 33.6999 17.3701C33.6999 17.3701 31.8099 17.8901 31.0099 18.1101C30.4099 18.2701 30.1199 18.3501 29.9499 18.4001C29.4199 18.5501 29.0199 18.7401 28.6799 18.9901L28.6899 18.9801Z" fill="#101214"/>
<path d="M30.4797 24.2904C30.2197 24.3804 30.1597 25.5004 30.3297 25.6304C30.5997 25.8304 30.9097 25.9604 31.3197 26.0204C31.7897 26.0304 31.9397 25.8204 32.2497 25.8904C32.7897 25.9604 33.6397 26.4004 33.8497 26.5104C33.8797 26.5304 33.9097 26.5304 33.9497 26.5304C34.1897 26.5304 35.2197 26.5004 36.0697 26.7104C36.6797 26.8004 37.0597 26.8604 37.2497 26.8904C37.7097 26.9604 38.0897 26.9004 38.4097 26.7604C38.4297 26.7504 38.4497 26.7304 38.4697 26.6904C38.4797 26.6704 38.4897 26.6504 38.4897 26.6304C38.5197 26.5304 38.5597 26.4204 38.5997 26.3304C38.6297 26.2204 38.6797 26.1204 38.6997 26.1304C38.6797 26.1304 38.6897 26.1004 38.6897 26.1004C38.6697 26.0604 38.7297 26.2304 38.8197 26.1204C38.8797 26.0904 38.7797 25.9404 38.7997 25.9404C38.7997 25.9104 38.7997 25.8704 38.7897 25.8404C38.7897 25.7204 38.7497 25.6304 38.6997 25.5904C38.3597 25.3004 38.0297 25.1304 37.5597 25.0404C37.3797 25.0104 37.0297 24.6804 36.4997 24.5604C36.4097 24.5404 36.3197 24.5404 36.2297 24.5704C35.4197 24.8104 34.4697 24.5704 34.4697 24.5704C34.4697 24.5704 33.0197 24.3604 32.3997 24.2704C31.9397 24.2104 31.7097 24.1804 31.5797 24.1604C31.1597 24.1104 30.8297 24.1604 30.4897 24.2804L30.4797 24.2904Z" fill="#101214"/>
</g>
</g>
<defs>
<clipPath id="clip0_1_7873">
<rect width="40" height="40" fill="white"/>
</clipPath>
<clipPath id="clip1_1_7873">
<rect width="40" height="40" fill="white"/>
</clipPath>
</defs>
</svg>
