<svg width="40" height="40" viewBox="0 0 40 40" fill="none" xmlns="http://www.w3.org/2000/svg">
<g clip-path="url(#clip0_1_8453)">
<g clip-path="url(#clip1_1_8453)">
<path d="M40 0H0V40H40V0Z" fill="#82B536"/>
<path d="M11.72 8.06006C9.93 3.48006 6.17 1.56006 0.57 1.56006C0.37 1.56006 0.19 1.57006 0 1.58006V15.8801H20.38C19.47 10.7601 16.4 8.06006 12.07 8.06006C11.95 8.06006 11.84 8.06006 11.72 8.06006Z" fill="white"/>
<path d="M17.0301 10.2801C16.9901 10.0001 23.0601 19.3001 15.8101 40.4601H22.7201C26.5501 27.2801 23.3401 15.1601 21.1301 10.6301L17.0401 10.2801H17.0301Z" fill="#FCA700"/>
<path d="M23.4799 21.7199C23.6399 21.7199 24.5199 21.0499 24.5099 20.8499C24.4999 20.5799 24.3799 20.3299 24.1299 20.1099C23.7999 19.9199 23.5999 20.0699 23.3999 19.9399C23.0699 19.7299 22.4199 19.2699 22.2099 19.1899C22.1799 19.1799 22.1599 19.1699 22.1299 19.1699C21.9099 19.1899 21.0899 19.3899 20.4699 19.5599C20.0399 19.7299 19.8099 19.8699 19.6899 19.9399C19.3899 20.0999 19.2799 20.3499 19.2099 20.6499C19.1699 20.8199 19.7699 21.5899 19.9199 21.6199C20.1999 21.6899 20.3999 21.6599 20.6099 21.5699C20.6899 21.5299 20.9799 21.6599 21.1999 21.6299C21.2399 21.6299 21.2599 21.5899 21.2799 21.5399C21.4699 21.0799 21.9299 21.1599 21.9099 21.1699C21.9099 21.1399 22.4699 21.2299 22.6799 21.3799C22.8399 21.4699 22.9199 21.5299 22.9599 21.5599C23.0999 21.6599 23.2599 21.6999 23.4799 21.7099V21.7199Z" fill="#101214"/>
<path d="M24.1998 28.02C24.4698 28.1 25.0698 27.14 25.0998 27.02C25.0998 26.8 24.9998 26.54 24.7398 26.28C24.3898 26.02 24.1598 26.13 23.9398 25.94C23.5698 25.64 22.8598 25.02 22.6298 24.9C22.5998 24.88 22.5698 24.87 22.5398 24.86C22.2898 24.83 21.2798 24.86 20.4898 24.94C19.9298 25.03 19.6198 25.14 19.4498 25.19C19.0498 25.31 18.8298 25.55 18.6398 25.84C18.5398 26.01 18.9398 26.89 19.1098 26.95C19.4298 27.06 19.6898 27.05 19.9998 26.98C20.1198 26.95 20.4398 27.12 20.7698 27.11C20.8198 27.11 20.8698 27.08 20.9198 27.03C21.3398 26.6 21.9598 26.78 21.9398 26.79C21.9398 26.79 22.1498 26.83 22.3898 26.91C22.6298 27 22.8798 27.16 23.0298 27.27C23.2498 27.44 23.3598 27.54 23.4298 27.6C23.6398 27.79 23.8598 27.91 24.1898 28L24.1998 28.02Z" fill="#101214"/>
<path d="M23.6999 34.3598C23.8799 34.4598 24.8899 33.9998 24.9099 33.7598C24.9299 33.4298 24.8499 33.0898 24.5999 32.7198C24.2599 32.3398 23.9899 32.4198 23.7799 32.1598C23.4099 31.7598 22.6399 30.9998 22.3799 30.8898C22.3499 30.8698 22.3099 30.8498 22.2699 30.8498C22.1399 30.8198 21.7699 30.7898 21.3299 30.7798C20.8899 30.7798 20.3899 30.8298 19.9399 30.8598C19.3099 30.9698 18.9599 31.0998 18.7699 31.1698C18.3199 31.3098 18.0699 31.5798 17.8499 31.8898C17.7299 32.0698 18.1599 32.9398 18.3499 32.9798C18.6999 33.0698 18.9999 33.0298 19.3499 32.9398C19.4899 32.8898 19.8499 33.0498 20.2199 33.0398C20.2799 33.0398 20.3399 32.9998 20.3899 32.9598C20.6199 32.7498 20.9299 32.6698 21.1599 32.6698C21.3899 32.6698 21.5399 32.7398 21.5399 32.7398C21.5399 32.7398 21.7699 32.7998 22.0299 32.9198C22.2899 33.0298 22.5499 33.2498 22.6999 33.3998C22.9199 33.6198 23.0099 33.7498 23.0699 33.8298C23.2499 34.0598 23.4399 34.2298 23.6999 34.3798V34.3598Z" fill="#101214"/>
<path d="M20.2001 35.1699C19.2301 35.1699 18.3001 35.2299 17.3701 35.3199C16.9301 36.9499 16.4201 38.6499 15.8101 40.4499H22.7201C23.2101 38.7499 23.5901 37.0699 23.8601 35.4199C22.6801 35.2699 21.4601 35.1699 20.1901 35.1699H20.2001Z" fill="#164B35"/>
<path d="M19.8099 18.3302C19.6699 17.7202 18.5499 17.8102 18.4599 18.3802C18.3299 19.1902 18.2399 20.0502 18.1999 21.1502C18.1999 22.4002 18.4199 22.7302 18.3399 23.5802C18.2499 25.0202 17.6699 27.4002 17.5099 27.9702C17.4899 28.0502 17.4699 28.1402 17.4699 28.2302C17.4399 28.8502 17.2199 31.5702 16.6799 33.8602C16.3699 35.4902 16.1399 36.4902 16.0199 37.0102C15.7499 38.2502 15.6299 39.1902 15.6099 40.1502C15.5999 40.6702 16.5299 40.9202 16.7799 40.4502C17.2199 39.5902 17.5599 38.6802 17.8499 37.4302C17.9599 36.9402 18.4499 35.9802 18.7799 34.5402C18.8299 34.3102 18.8599 34.0702 18.8599 33.8202C18.8999 31.7302 19.3699 29.1102 19.3699 29.1102C19.3699 29.1102 19.4999 28.1202 19.6499 26.9302C19.7899 25.7302 19.9099 24.3202 19.9699 23.4802C20.0499 22.2102 20.0599 21.6002 20.0699 21.2202C20.0999 20.0802 19.9999 19.1902 19.8099 18.3402V18.3302Z" fill="#101214"/>
<path d="M24.6701 9.41004C28.6001 6.73004 35.1501 5.15004 35.1501 5.15004C24.8201 1.74004 20.8501 7.12004 19.5001 10.05C17.1301 7.97004 11.2001 4.50004 3.12012 12.07C3.12012 12.07 9.73012 10.75 14.4201 11.53C2.99012 16.08 10.4001 28.52 10.4001 28.52C9.81012 22.21 12.0401 18.54 14.5901 16.41C13.8701 21.23 16.6101 24.66 16.6101 24.66C16.1801 22.03 18.9901 18.47 21.0901 16.22C23.5101 17.32 27.0901 19.3 27.7601 21.62C27.7601 21.62 28.7401 17.45 25.8701 13.74C29.2401 14.43 33.1801 16.73 35.4601 23.14C35.4601 23.14 36.9501 8.74004 24.6701 9.41004ZM19.9801 12.17L19.9601 12.28L19.8601 12.13L19.9801 12.18V12.17Z" fill="#164B35"/>
</g>
</g>
<defs>
<clipPath id="clip0_1_8453">
<rect width="40" height="40" fill="white"/>
</clipPath>
<clipPath id="clip1_1_8453">
<rect width="40" height="40" fill="white"/>
</clipPath>
</defs>
</svg>
