<svg width="40" height="40" viewBox="0 0 40 40" fill="none" xmlns="http://www.w3.org/2000/svg">
<g clip-path="url(#clip0_1_8422)">
<g clip-path="url(#clip1_1_8422)">
<path d="M40 0H0V40H40V0Z" fill="#669DF1"/>
<path d="M25.2402 38.5298C24.0902 39.0398 22.9202 39.5198 21.7402 39.9998H40.0002V30.5498C35.2402 33.5798 30.2902 36.2798 25.2402 38.5298Z" fill="#FFC716"/>
<path d="M-0.0698242 0V14.23C1.29018 13.68 2.64018 13.11 3.98018 12.52C10.7002 9.52 17.2802 5.89 23.5202 1.72C24.4002 1.13 25.2302 0.56 26.0302 0L-0.0698242 0Z" fill="#FFC716"/>
<path d="M14.2203 31.12C14.7103 30.29 13.7603 29.7 13.1703 30.27C12.7403 30.67 12.2903 31.04 11.7803 31.36C11.2903 31.68 10.6303 31.95 9.94033 32.26C9.15033 32.59 8.67033 32.72 8.24033 32.83C8.02033 32.85 7.82033 32.88 7.61033 32.9C7.40033 32.87 7.18033 32.84 6.93033 32.77C6.08033 32.5 5.18033 31.54 4.90033 30.44C4.54033 29.36 4.76033 28.38 4.86033 28.29C4.88033 28.26 4.88033 28.25 4.88033 28.23C4.88033 28.23 4.79033 28.19 4.96033 28.19C5.17033 28.17 5.67033 28.34 6.09033 28.78C6.51033 29.2 6.87033 29.83 7.02033 30.56C7.17033 31.29 7.13033 32.1 6.90033 32.8C6.59033 33.81 6.06033 34.57 5.60033 35.13C5.12033 35.69 4.72033 36.08 4.43033 36.33C3.07033 37.54 1.93033 38.37 0.83033 39.26C0.22033 39.74 0.68033 40.6 1.43033 40.3C2.78033 39.75 4.13033 39.07 5.68033 37.72C5.98033 37.46 6.47033 37.08 7.08033 36.5C7.67033 35.91 8.39033 35.09 8.86033 33.84C9.02033 33.44 9.10033 33.01 9.14033 32.58C9.20033 31.64 9.09033 30.69 8.81033 29.77C8.53033 28.86 8.03033 28.03 7.44033 27.43C6.85033 26.83 6.17033 26.45 5.59033 26.31C5.32033 26.22 5.04033 26.23 4.88033 26.21C4.69033 26.23 4.59033 26.24 4.59033 26.24C3.96033 26.33 3.39033 26.73 3.10033 27.3C2.70033 28.21 2.78033 28.92 2.86033 29.63C2.96033 30.34 3.18033 31.02 3.51033 31.65C3.81033 32.3 4.29033 32.87 4.83033 33.37C5.40033 33.84 6.08033 34.23 6.82033 34.39C7.96033 34.67 8.78033 34.49 9.38033 34.39C9.98033 34.27 10.3403 34.09 10.6503 34C11.4903 33.62 12.2203 33.26 12.8403 32.74C13.4403 32.24 13.8903 31.68 14.2503 31.11L14.2203 31.12Z" fill="#101214"/>
<path d="M11.5498 21.4299L14.5098 30.9699L36.0798 3.93994L11.5498 21.4299Z" fill="#09326C"/>
<path d="M16.1803 23.9799L14.5103 30.9699L36.0803 3.93994L16.1803 23.9799Z" fill="#09326C"/>
<path d="M16.1802 23.9799L26.1802 29.0299L36.0802 3.93994L16.1802 23.9799Z" fill="white"/>
<path d="M11.61 21.4799L5.27002 16.7699L36.08 3.93994L11.61 21.4799Z" fill="white"/>
<path d="M10.6702 21.8098C10.9002 21.9498 11.0802 21.9898 11.2502 21.9798C11.3702 21.9298 11.5502 21.8998 11.7002 21.8698C11.8502 21.8398 11.9402 21.6398 11.8602 21.3698C11.8302 21.1698 11.7002 20.9398 11.4902 20.7398C10.3202 19.6398 9.02016 18.6898 7.33016 17.5098C7.22016 17.4398 7.12016 17.3698 7.02016 17.2998L6.92016 17.2498C6.84016 17.2098 6.82016 17.2098 6.77016 17.1898C6.68016 17.1498 6.55016 17.1098 6.45016 17.0398C6.48016 16.9598 6.61016 16.8498 6.89016 16.7498C9.38016 15.7198 13.6902 14.2798 14.7302 13.9398C14.8802 13.8898 15.0302 13.8298 15.1802 13.7598C16.2402 13.2798 20.8702 11.1898 24.9402 9.58977C27.8002 8.40977 29.5602 7.67977 30.4902 7.29977C32.6702 6.38977 34.2502 5.61977 35.7702 4.75977C36.6002 4.28977 36.2302 3.38977 35.3102 3.64977C33.6302 4.10977 31.9602 4.67977 29.7702 5.56977C28.9202 5.91977 27.0502 6.39977 24.5402 7.37977C24.1302 7.53977 23.7302 7.71977 23.3502 7.92977C20.0102 9.69977 15.4602 11.4698 15.4602 11.4698C15.4602 11.4698 8.54016 14.3198 5.62016 15.5198C4.59016 15.8898 4.13016 16.2698 3.62016 16.5898C3.51016 16.6198 3.60016 16.6898 3.65016 16.7498L3.79016 16.9198C3.88016 17.0198 3.96016 17.1198 4.05016 17.2198C4.24016 17.4198 4.34016 17.5998 4.57016 17.7698C5.38016 18.4598 6.07016 18.8898 6.26016 19.0398C7.97016 20.2298 9.38016 21.0398 10.6602 21.7998L10.6702 21.8098Z" fill="#101214"/>
</g>
</g>
<defs>
<clipPath id="clip0_1_8422">
<rect width="40" height="40" fill="white"/>
</clipPath>
<clipPath id="clip1_1_8422">
<rect width="40" height="40" fill="white"/>
</clipPath>
</defs>
</svg>
