<svg width="40" height="40" viewBox="0 0 40 40" fill="none" xmlns="http://www.w3.org/2000/svg">
<g clip-path="url(#clip0_1_8390)">
<g clip-path="url(#clip1_1_8390)">
<path d="M40 0H0V40H40V0Z" fill="#1868DB"/>
<path d="M16.33 32.8803C10.58 27.5903 5.45 25.6203 0 25.2803V40.0003H21.46C20.14 37.3003 18.46 34.8403 16.33 32.8803Z" fill="#FCA700"/>
<path d="M8.49988 36.1502C8.61988 35.9202 7.93988 35.0302 7.69988 35.0702C7.34988 35.1202 7.03988 35.2302 6.68988 35.4502C6.32988 35.7402 6.33988 36.0002 6.04988 36.1402C5.57988 36.4202 4.61988 36.5202 4.39988 36.5202C4.36988 36.5202 4.33988 36.5302 4.30988 36.5502C4.11988 36.6802 3.23988 37.2102 2.36988 37.3402C1.77988 37.5002 1.39988 37.5602 1.20988 37.6002C0.749876 37.6902 0.419876 37.8402 0.0898756 38.0902C-0.0901244 38.2302 -0.0101244 39.1902 0.209876 39.2902C0.609876 39.4602 1.00988 39.5302 1.52988 39.4502C1.72988 39.4202 2.19988 39.6002 2.80988 39.5002C2.90988 39.4802 2.99988 39.4402 3.07988 39.3702C3.79988 38.8102 4.83988 38.5102 4.83988 38.5102C4.83988 38.5102 5.21988 38.3602 5.66988 38.1602C6.10988 37.9502 6.62988 37.6902 6.91988 37.5102C7.36988 37.2502 7.56988 37.1102 7.69988 37.0302C8.07988 36.7702 8.32988 36.4902 8.49988 36.1602V36.1502Z" fill="#101214"/>
<path d="M1.78 5.47021C0.690003 5.70021 0.250003 6.18021 0.340003 6.47021C0.430003 6.77021 1 6.91021 1.99 6.81021C3.41 6.68021 4.87 6.73021 6.39 7.08021C7.89 7.43021 9.49 8.06021 10.66 9.31021C11.3 10.0002 11.64 10.7302 11.8 11.3602C11.96 11.9902 11.97 12.5402 11.87 13.0102C11.68 13.9002 11.05 14.7802 9.88 15.1002C9.39 15.2302 8.85 15.1902 8.36 14.9302C7.86 14.6702 7.42 14.1802 7.16 13.5902C6.6 12.4202 6.92 10.9102 7.66 9.75021C8.39 8.57021 9.45 7.71021 10.38 7.18021C11.33 6.65021 12.16 6.41021 12.62 6.29021C12.9 6.23021 13.17 6.15021 13.45 6.10021C13.94 5.99021 14.88 5.82021 16.12 5.90021C17.35 5.99021 18.91 6.37021 20.45 7.24021C21.99 8.10021 23.52 9.44021 24.67 11.1002C25.84 12.7602 26.66 14.7602 27.25 16.7602C28.1 19.5802 28.56 22.0002 29.06 23.9102C29.54 25.8202 30 27.2302 30.37 28.1802C32.06 32.6902 34.93 35.6802 38.38 36.8902C39.34 37.2102 39.9 37.0202 39.95 36.7702C40.01 36.4902 39.62 36.1602 38.83 35.7802C35.96 34.3202 33.69 31.6902 32.12 27.5202C31.81 26.7102 31.44 25.4102 31.07 23.6502C30.68 21.9002 30.32 19.6702 29.62 17.0502C29.39 16.2002 29.1 15.3502 28.75 14.5302C28.01 12.7602 27.02 10.8902 25.71 9.29021C24.41 7.69021 22.84 6.40022 21.29 5.55022C19.74 4.69021 18.25 4.26021 17.18 4.07021C16.64 3.98021 16.2 3.94021 15.91 3.93021C15.61 3.90021 15.45 3.91021 15.45 3.91021C15.45 3.91021 15.21 3.90021 14.77 3.92021C14.34 3.94021 13.71 3.99021 12.95 4.15021C11.45 4.46021 9.37 5.23021 7.65 6.90021C6.81 7.73021 6.05 8.75021 5.59 9.96021C5.13 11.1502 4.99 12.5702 5.45 13.8402C5.89 15.0802 6.82 16.1202 8 16.5702C9.2 17.0402 10.42 16.7502 11.22 16.3202C12.45 15.6502 13.2 14.6002 13.5 13.5702C13.8 12.5502 13.72 11.6402 13.56 10.9202C13.2 9.46021 12.55 8.63021 12.05 8.06021C10.44 6.36021 8.47 5.72021 6.75 5.40021C5 5.09021 3.34 5.17021 1.81 5.49021L1.78 5.47021Z" fill="#101214"/>
<path d="M8.62988 35.42L18.5599 28.72L11.5099 23.79L8.62988 35.42Z" fill="white"/>
<path d="M9.65988 31.2603L8.62988 35.4203L12.1799 33.0203L9.65988 31.2603Z" fill="#101214"/>
<path d="M28.1998 0L11.5098 23.79L18.5598 28.72L38.6998 0H28.1998Z" fill="#FFC716"/>
</g>
</g>
<defs>
<clipPath id="clip0_1_8390">
<rect width="40" height="40" fill="white"/>
</clipPath>
<clipPath id="clip1_1_8390">
<rect width="40" height="40" fill="white"/>
</clipPath>
</defs>
</svg>
