<svg width="40" height="40" viewBox="0 0 40 40" fill="none" xmlns="http://www.w3.org/2000/svg">
<g clip-path="url(#clip0_1_7661)">
<g clip-path="url(#clip1_1_7661)">
<path d="M40 0H0V40H40V0Z" fill="#FFC716"/>
<path d="M24.3597 16.3599H17.4997L10.4697 29.8599L20.9297 36.7999L31.3897 29.8599L24.3597 16.3599Z" fill="#1868DB"/>
<path d="M32.9 28.1499H8.95996V36.7999H32.9V28.1499Z" fill="#1868DB"/>
<path d="M18.9698 33.6102C19.6198 33.7802 20.3198 33.8702 21.0598 33.8702C21.7998 33.8702 22.4398 33.7902 23.0698 33.6202C24.4098 33.2602 25.5098 32.4802 26.0598 31.2002C26.3098 30.6302 26.4498 29.9502 26.4498 29.1702C26.4498 28.3902 26.3098 27.6902 26.0498 27.1102C25.4998 25.8302 24.3998 25.0602 23.0698 24.7002C22.4398 24.5302 21.7698 24.4502 21.0598 24.4502C20.3198 24.4502 19.6198 24.5302 18.9698 24.7102C17.6098 25.0702 16.5298 25.8502 15.9798 27.1202C15.7298 27.7002 15.5898 28.3802 15.5898 29.1802C15.5898 29.9802 15.7298 30.6402 15.9798 31.2102C16.5298 32.4802 17.6098 33.2502 18.9698 33.6202V33.6102Z" fill="white"/>
<path d="M19.6801 33.1598C18.9401 33.1198 18.5501 34.1798 19.4501 34.4898C20.7001 34.8398 22.0901 35.0098 23.8801 34.4298C24.8701 34.0298 25.4101 33.5298 25.7901 33.0798C26.1701 32.6198 26.4401 32.1798 26.7501 31.5298C27.2601 30.3998 27.4601 28.8398 27.1501 27.3898C26.9901 26.6698 26.6801 25.9998 26.3201 25.4998C25.9701 24.9998 25.6101 24.6798 25.4001 24.5098C25.2801 24.4098 25.1501 24.3198 25.0101 24.2398C24.5301 23.9498 23.1401 23.3798 21.4501 23.3798C20.6101 23.3698 19.6901 23.4398 18.7401 23.6898C17.7901 23.9398 16.8101 24.4198 16.0501 25.1698C14.9901 26.2698 14.7001 27.5098 14.6101 28.3798C14.5201 29.2598 14.6001 29.9098 14.6801 30.3598C14.8701 31.4298 15.3901 32.3498 16.0601 32.9598C16.7301 33.5798 17.4901 33.9098 18.2201 34.0698C19.0501 34.2198 19.2101 33.2498 18.6401 32.9398C17.5901 32.3098 16.8001 31.5098 16.5301 30.0198C16.4401 29.4898 16.5301 27.9698 17.4601 26.8898C17.6101 26.7098 17.7701 26.5398 17.9401 26.3598C18.6801 25.5398 20.2601 25.2098 21.4201 25.2698C22.6001 25.2998 23.3301 25.6498 23.3301 25.6498C23.3301 25.6498 23.6101 25.7498 24.0101 25.9798C24.4001 26.2098 24.8701 26.6198 25.1801 27.2098C25.5001 27.7998 25.6301 28.5798 25.6001 29.3198C25.5801 30.0598 25.3901 30.6898 25.1601 31.0898C24.8301 31.6998 24.4101 32.0298 24.0701 32.2498C23.7301 32.4698 23.4501 32.5698 23.2501 32.6498C21.9701 33.0898 20.7701 33.1398 19.6901 33.1398L19.6801 33.1598Z" fill="#101214"/>
<path d="M0.709904 24.5401C-0.150096 24.5401 -0.420096 25.6301 0.559904 25.8801C1.9099 26.2001 3.4999 26.2701 5.3699 25.6001C6.4099 25.1801 6.9699 24.7201 7.4199 24.3201C7.8699 23.9201 8.2199 23.5501 8.7299 23.0101C9.5699 22.0901 10.5199 20.6401 10.8499 19.0801C11.0299 18.3101 11.0599 17.5301 10.9699 16.8801C10.8799 16.2201 10.6699 15.7001 10.5299 15.4301C10.4599 15.2601 10.3499 15.1001 10.2299 14.9601C10.0399 14.6901 9.5899 14.2301 8.8999 13.8301C8.1999 13.4301 7.2599 13.1901 6.2799 13.1901C5.9899 13.1901 5.6799 13.2001 5.3099 13.3201C4.9299 13.4301 4.5499 13.6701 4.2799 13.9901C3.7099 14.6401 3.6499 15.6501 3.9399 16.3301C4.0099 16.5101 4.1099 16.6901 4.2199 16.8501C4.2799 16.9301 4.3499 17.0201 4.3999 17.0801L4.5499 17.2301L5.1699 17.8201C5.6399 18.1501 6.1199 18.5001 6.6799 18.6901C8.2599 19.2701 9.6899 18.9201 10.5899 18.4801C11.5099 18.0301 12.0699 17.5001 12.4099 17.1201C13.2199 16.2201 13.6399 15.1701 13.7099 14.1901C13.7499 13.9501 13.7499 13.7101 13.7099 13.4701C13.6899 13.2401 13.6799 13.0001 13.6299 12.7901C13.4899 12.3601 13.4099 11.9301 13.1699 11.5701C12.6899 10.7401 11.8899 11.3101 12.0499 12.0001C12.1599 12.3101 12.1199 12.6501 12.1699 12.9701C12.1699 13.1301 12.1399 13.2901 12.1299 13.4601C12.1299 13.6201 12.0999 13.7901 12.0499 13.9501C11.9199 14.6001 11.5899 15.2701 11.0299 15.8801C10.8199 16.1201 10.3899 16.4101 9.8199 16.6401C9.2399 16.8601 8.4899 16.9501 7.7199 16.7401C7.5899 16.7101 7.4799 16.6401 7.3499 16.6101C7.2199 16.5801 7.0899 16.5501 6.9699 16.4801C6.8299 16.4201 6.6899 16.3501 6.5499 16.2901C6.4099 16.2001 6.2899 16.0901 6.1499 15.9901L5.9499 15.8301C5.8699 15.7701 5.8799 15.7801 5.8499 15.7401C5.7999 15.6801 5.7499 15.6001 5.7399 15.5301C5.6999 15.3901 5.7199 15.3101 5.7899 15.2301C5.8399 15.1701 6.0099 15.1201 6.2899 15.1201C6.9099 15.1201 7.3899 15.2901 7.6999 15.4201C7.9999 15.5701 8.1499 15.7001 8.1499 15.7001C8.1499 15.7001 8.3999 15.8501 8.6699 16.2201C8.9399 16.5801 9.1999 17.2101 9.1999 18.0001C9.2199 18.7801 8.9799 19.6601 8.6099 20.4101C8.2499 21.1701 7.7499 21.7901 7.3399 22.2001C6.0799 23.4301 5.2199 23.6901 4.7499 23.8901C3.2699 24.4301 1.9899 24.5601 0.749904 24.5801L0.709904 24.5401Z" fill="#101214"/>
<path d="M14.6197 13.37C15.9197 10.67 18.3397 8.98002 22.0697 9.69002C25.7697 10.39 27.3897 12.85 27.6097 15.84L34.1297 17.08C34.4997 10.98 30.7897 5.47002 23.1497 4.02002C15.7997 2.62002 10.4597 6.02002 8.21973 12.15L14.6197 13.37Z" fill="#09326C"/>
<path d="M14.2598 12.7898C14.1298 13.2898 15.1598 13.7298 15.4498 13.4198C15.8798 12.9798 16.2698 12.5298 16.7998 11.9998C17.3598 11.3898 17.4398 11.0998 17.9598 10.8398C18.3998 10.6098 19.0698 10.4798 19.6598 10.4998C20.2598 10.5198 20.7698 10.6398 20.9598 10.6998C21.0198 10.7198 21.0798 10.7198 21.1398 10.7198C21.3498 10.7198 21.9498 10.7398 22.6598 10.9098C23.3698 11.0698 24.1698 11.4298 24.7398 11.9498C25.5598 12.6498 25.8598 13.2798 26.0098 13.5898C26.3698 14.3398 26.5998 14.9598 26.8898 15.6098C27.0398 15.9598 28.0198 15.9198 28.0898 15.4798C28.2098 14.6898 28.1698 13.8298 27.6998 12.7898C27.5098 12.4098 27.3298 11.3898 26.3098 10.4198C26.1498 10.2598 25.9598 10.1398 25.7598 10.0398C24.8898 9.61982 23.9298 9.26982 23.1598 9.07982C22.3998 8.87982 21.8498 8.78982 21.8498 8.78982C21.8498 8.78982 21.0198 8.61982 19.9798 8.67982C18.9298 8.71982 17.7098 9.09982 17.0498 9.46982C16.0698 10.0298 15.6998 10.4398 15.4698 10.6598C14.7798 11.3798 14.4398 12.0798 14.2598 12.7698V12.7898Z" fill="#101214"/>
</g>
</g>
<defs>
<clipPath id="clip0_1_7661">
<rect width="40" height="40" fill="white"/>
</clipPath>
<clipPath id="clip1_1_7661">
<rect width="40" height="40" fill="white"/>
</clipPath>
</defs>
</svg>
