<svg width="40" height="40" viewBox="0 0 40 40" fill="none" xmlns="http://www.w3.org/2000/svg">
<g clip-path="url(#clip0_1_7610)">
<g clip-path="url(#clip1_1_7610)">
<path d="M40 0H0V40H40V0Z" fill="#164B35"/>
<path d="M40 40V30.9298C39.7197 30.3812 39.1091 29.8817 38.2182 29.4899L36.7668 28.8434C34.3443 27.766 30.5405 27.766 28.1181 28.8434C25.3453 30.0776 20.8809 29.8719 18.6587 28.4124L14.6847 25.7972C12.1822 24.1516 3.93393 24.8764 0 29.6466V40H40Z" fill="white"/>
<path d="M40.0001 40.0001V39.2301C39.0701 34.5901 36.1201 31.3501 31.2601 29.5501C28.2701 28.4401 24.5601 27.8701 20.1401 27.8701C15.7201 27.8701 12.0001 28.4201 9.02006 29.4601C3.63006 31.3501 0.640059 34.9101 0.0600586 40.0001H40.0001Z" fill="#82B536"/>
<mask id="mask0_1_7610" style="mask-type:luminance" maskUnits="userSpaceOnUse" x="0" y="0" width="40" height="40">
<path d="M40 0H0V40H40V0Z" fill="white"/>
</mask>
<g mask="url(#mask0_1_7610)">
<mask id="mask1_1_7610" style="mask-type:luminance" maskUnits="userSpaceOnUse" x="8" y="4" width="23" height="30">
<path d="M30.6997 14.35C30.2197 7.69004 24.9397 4.34004 19.6297 4.29004C19.6297 4.29004 19.5897 4.29004 19.5797 4.29004C19.5697 4.29004 19.5397 4.29004 19.5297 4.29004C14.2197 4.35004 8.94967 7.70004 8.45967 14.36C8.41967 14.85 8.40967 15.34 8.40967 15.83C8.40967 23.4 18.4997 33.11 19.5297 33.75V33.81C19.5297 33.81 19.5697 33.78 19.5797 33.78C19.5897 33.78 19.6297 33.81 19.6297 33.81V33.75C20.6597 33.1 30.7497 23.4 30.7497 15.83C30.7497 15.34 30.7297 14.85 30.6997 14.36V14.35ZM19.5097 20.7C16.8397 20.7 14.6797 18.54 14.6797 15.87C14.6797 13.2 16.8397 11.04 19.5097 11.04C22.1797 11.04 24.3397 13.2 24.3397 15.87C24.3397 18.54 22.1797 20.7 19.5097 20.7Z" fill="white"/>
</mask>
<g mask="url(#mask1_1_7610)">
<path d="M30.6997 14.35C30.2197 7.69004 24.9397 4.34004 19.6297 4.29004C19.6297 4.29004 19.5897 4.29004 19.5797 4.29004C19.5597 4.29004 19.5397 4.29004 19.5297 4.29004C14.2197 4.35004 8.94967 7.70004 8.45967 14.36C8.41967 14.85 8.40967 15.34 8.40967 15.83C8.40967 23.4 18.4997 33.11 19.5297 33.75V33.81C19.5297 33.81 19.5697 33.78 19.5797 33.78C19.5897 33.78 19.6297 33.81 19.6297 33.81V33.75C20.6597 33.1 30.7497 23.4 30.7497 15.83C30.7497 15.34 30.7297 14.85 30.6997 14.36V14.35ZM19.5197 20.69C16.8597 20.69 14.6997 18.53 14.6997 15.87C14.6997 13.21 16.8597 11.05 19.5197 11.05C22.1797 11.05 24.3397 13.21 24.3397 15.87C24.3397 18.53 22.1797 20.69 19.5197 20.69Z" fill="#FFC716"/>
</g>
<path d="M19.19 21.2699C19.64 21.1799 19.57 20.0599 19.27 19.9199C18.82 19.7199 18.4 19.5499 17.88 19.2999C17.28 19.0499 17 19.0999 16.66 18.7599C16.37 18.4799 16.1 17.9899 15.99 17.5299C15.87 17.0699 15.88 16.6699 15.9 16.5199C15.9 16.4699 15.9 16.4299 15.89 16.3899C15.84 16.2399 15.75 15.8099 15.79 15.2699C15.83 14.7199 16.06 14.0699 16.48 13.6099C17 12.9099 17.51 12.6599 17.74 12.5199C18.33 12.2199 18.78 11.9999 19.29 11.7599C19.56 11.6299 19.62 10.6599 19.23 10.5599C18.54 10.3899 17.75 10.4199 16.87 10.8699C16.55 11.0499 15.66 11.2299 14.85 12.1299C14.73 12.2799 14.62 12.4399 14.55 12.6299C14.24 13.4099 14 14.2899 13.92 14.9999C13.83 15.6999 13.85 16.2099 13.85 16.2099C13.85 16.2099 13.87 16.9799 14.19 17.8599C14.49 18.7399 15.16 19.6199 15.65 20.0499C16.38 20.6899 16.82 20.8899 17.07 21.0099C17.86 21.3799 18.57 21.4199 19.19 21.2899V21.2699Z" fill="#101214"/>
<path d="M18.8098 4.92015C19.7498 4.76015 19.8098 3.64015 18.7198 3.57015C17.1998 3.51015 15.5298 3.75015 13.6298 4.70015C12.5698 5.27015 12.0198 5.80015 11.5598 6.25015C11.3398 6.49015 11.1298 6.71015 10.9098 6.94015C10.7098 7.19015 10.4898 7.44015 10.2198 7.74015C9.33983 8.77015 8.39983 10.3702 7.92983 11.9402C7.41983 13.5002 7.33983 14.9302 7.27983 15.4502C7.26983 15.6102 7.23983 15.7602 7.26983 15.9402C7.30983 16.2402 7.34983 16.8102 7.45983 17.5302C7.62983 18.2302 7.81983 19.1202 8.17983 20.0202C8.84983 21.8502 9.95983 23.8702 11.0898 25.6402C12.7498 28.1002 13.9598 29.4702 14.5698 30.2002C16.0598 31.9002 17.2998 33.0202 18.7098 33.9802C18.8998 34.1102 19.1298 34.1802 19.2798 34.1602L19.0498 33.7502C19.0498 33.7502 19.0898 33.7902 19.1198 33.8102L19.4898 34.2202C19.6098 34.1902 19.6898 34.1202 19.7298 34.0602H19.4398C19.7998 34.0302 19.5398 33.7902 19.6498 33.6402H19.5198C19.5198 33.6402 19.5198 33.5702 19.5598 33.5602L19.7698 33.8001C19.7698 33.8001 19.8198 33.7602 19.8398 33.7402L19.6998 33.4802C19.6698 33.3302 19.6298 33.2101 19.4898 33.0501C18.4498 31.8401 17.3998 30.6101 15.9898 28.9701C15.4398 28.3302 14.4998 26.8202 13.1598 24.7802C12.9498 24.4402 12.6898 24.1302 12.4598 23.8202C11.3798 22.4902 10.4498 20.7602 9.94983 19.3502C9.66983 18.6502 9.54983 18.0302 9.45983 17.5802C9.34983 17.1402 9.34983 16.8801 9.34983 16.8801C9.34983 16.8801 9.31983 16.4902 9.26983 15.8702C9.27983 15.2202 9.29983 14.3102 9.43983 13.3702C9.61983 12.4302 9.87983 11.4202 10.3198 10.5702C10.7498 9.72015 11.2498 8.99015 11.6998 8.51015C13.0398 7.04015 13.9798 6.66015 14.4798 6.37015C16.0798 5.56015 17.4598 5.18015 18.8098 4.92015Z" fill="#101214"/>
<path d="M19.3799 10.4702C18.9299 10.5602 18.9999 11.6802 19.2999 11.8202C19.7499 12.0202 20.1699 12.1902 20.6899 12.4402C21.2899 12.6902 21.5699 12.6402 21.9099 12.9802C22.1999 13.2602 22.4699 13.7502 22.5799 14.2102C22.6999 14.6702 22.6899 15.0702 22.6699 15.2202C22.6699 15.2702 22.6699 15.3102 22.6799 15.3502C22.7299 15.5002 22.8199 15.9302 22.7799 16.4702C22.7399 17.0202 22.5099 17.6702 22.0899 18.1302C21.5699 18.8302 21.0599 19.0802 20.8299 19.2202C20.2399 19.5202 19.7899 19.7402 19.2799 19.9802C19.0099 20.1102 18.9499 21.0802 19.3399 21.1802C20.0299 21.3502 20.8199 21.3202 21.6999 20.8702C22.0199 20.6902 22.9099 20.5102 23.7199 19.6102C23.8399 19.4602 23.9499 19.3002 24.0199 19.1102C24.3299 18.3302 24.5699 17.4502 24.6499 16.7402C24.7399 16.0402 24.7199 15.5302 24.7199 15.5302C24.7199 15.5302 24.6999 14.7602 24.3799 13.8802C24.0799 13.0002 23.4099 12.1202 22.9199 11.6902C22.1899 11.0502 21.7499 10.8502 21.4999 10.7302C20.7099 10.3602 19.9999 10.3202 19.3799 10.4502V10.4702Z" fill="#101214"/>
<path d="M19.11 32.9402C18.93 33.1402 18.89 33.2802 18.87 33.4602L18.71 33.7402C18.71 33.7402 18.76 33.7802 18.78 33.8002L19.01 33.5402C19.01 33.5402 19.07 33.5902 19.06 33.6202H18.92C19.04 33.7702 18.76 34.0202 19.14 34.0602L19.01 33.7902L18.84 34.0602C18.88 34.1202 18.97 34.1902 19.09 34.2302L19.48 33.8002C19.48 33.8002 19.53 33.7602 19.55 33.7402L19.31 34.1702C19.48 34.2002 19.78 34.1102 19.99 33.9602C21.23 33.0902 22.36 32.0502 23.68 30.5802C25.1 28.8402 25.26 28.2602 26.18 27.0602C26.95 26.0402 27.96 24.6402 28.78 23.3202C29.18 22.6502 29.57 22.0302 29.84 21.4702C30.13 20.9302 30.35 20.5002 30.44 20.2402C30.5 20.0902 30.56 19.9402 30.6 19.7802C30.68 19.5002 30.85 19.0002 30.96 18.2802C31.13 17.5902 31.19 16.6502 31.2 15.6502C31.18 13.7502 30.78 11.2802 29.71 9.29018C28.94 7.89018 28.05 6.92018 27.27 6.27018C26.5 5.60018 25.86 5.21018 25.42 4.96018C23.3 3.80018 21.45 3.54018 19.75 3.64018C18.8 3.71018 18.84 4.68018 19.68 4.84018C21.21 5.15018 22.72 5.60018 24.5 6.58018C25.19 6.97018 26.47 8.08018 27.59 10.0002C27.77 10.3102 27.97 10.6202 28.14 10.9402C28.57 11.6102 28.84 12.4402 29.05 13.2602C29.12 13.6802 29.2 14.1002 29.24 14.5102C29.26 14.9302 29.29 15.3302 29.31 15.7102C29.31 16.0802 29.27 16.4102 29.25 16.7102C29.25 17.0102 29.2 17.2702 29.14 17.4902C29.04 17.9302 28.98 18.1902 28.98 18.1902C28.98 18.1902 28.96 18.2902 28.92 18.4602C28.87 18.6302 28.78 18.8802 28.68 19.1902C28.5 19.8102 28.13 20.6402 27.71 21.5302C26.84 23.3202 25.5 25.2902 24.65 26.4102C23.37 28.1102 22.68 28.8702 22.27 29.3502C21.02 30.7802 20.04 31.8802 19.11 32.9502V32.9402Z" fill="#101214"/>
<path d="M5.29996 30.17C4.85996 30.34 4.94996 31.45 5.45996 31.51C6.17996 31.59 6.91996 31.55 7.78996 31.44C8.75996 31.27 8.97997 31.04 9.63997 31.08C9.89997 31.09 10.22 31.14 10.44 31.23C10.57 31.28 10.6 31.31 10.62 31.35C10.65 31.39 10.66 31.44 10.65 31.48C10.63 31.59 10.59 31.54 10.5 31.77C10.41 31.94 10.32 32.1 10.27 32.19C10.24 32.24 10.21 32.3 10.19 32.36C10.16 32.47 10.09 32.67 9.97996 32.96C9.87996 33.3 9.65996 33.77 9.60996 34.35C9.51996 34.92 9.58996 35.6 9.78996 36.23C10.02 36.85 10.38 37.41 10.78 37.85C11.97 39.03 12.89 39.32 13.33 39.55C14.41 39.99 15.29 40.07 16.14 39.97C16.62 39.91 16.66 38.94 16.29 38.78C15.61 38.49 14.95 38.21 14.06 37.83C13.73 37.68 13.11 37.12 12.48 36.47C12.37 36.36 12.29 36.27 12.15 36.19C11.61 35.84 11.39 35.19 11.47 34.64C11.48 34.37 11.61 34.12 11.67 33.96C11.74 33.79 11.83 33.63 11.82 33.64C11.82 33.64 11.91 33.44 12.05 33.13C12.18 32.78 12.39 32.4 12.44 31.59C12.44 31.17 12.34 30.73 12.06 30.38C11.81 30.04 11.36 29.79 11.02 29.69C10.36 29.49 9.84996 29.49 9.47996 29.48C8.35996 29.48 7.85996 29.58 7.53996 29.61C6.58996 29.74 5.91996 29.95 5.27996 30.2L5.29996 30.17Z" fill="#101214"/>
<path d="M22.6997 39.4502C23.2097 39.8302 23.8197 38.8502 23.7397 38.6002C23.6197 38.1802 23.5297 37.6902 23.5597 37.1102C23.5597 36.4802 23.4797 36.2702 23.7597 36.0402C24.0197 35.8402 24.6597 35.7602 25.2697 35.8102C25.8697 35.8502 26.4497 35.9602 26.6797 35.9902C26.7497 36.0002 26.8097 36.0002 26.8797 35.9902C27.0097 35.9802 27.2397 35.9602 27.5497 35.9302C27.7197 35.9102 27.8897 35.9002 28.1097 35.8602C28.2897 35.8302 28.4797 35.8002 28.6797 35.7702C29.0897 35.7102 29.5497 35.6402 30.0197 35.5602C30.2597 35.5202 30.4997 35.4802 30.7497 35.4402L31.1197 35.3702C31.2397 35.3402 31.3497 35.3302 31.5797 35.2702C32.1997 35.1002 32.7797 34.8502 33.1697 34.4902C33.3497 34.3102 33.5097 34.1102 33.5797 33.8602C33.6297 33.7402 33.6397 33.6002 33.6297 33.4702C33.6897 33.3402 33.6297 33.2102 33.6297 33.0902C33.5697 32.8902 33.4997 32.7102 33.3797 32.5402C33.2797 32.3902 33.1397 32.2502 32.9797 32.1202C32.8897 32.0502 32.8097 31.9902 32.7097 31.9302L32.5697 31.8402L32.4997 31.8002L32.4697 31.7802L32.3197 31.9102C32.1797 32.0202 32.2097 31.9702 32.2597 31.9702C32.2897 31.9702 32.3197 31.9502 32.3497 31.9502H32.3897H32.3997C32.3197 31.9502 32.5797 31.9402 32.2197 31.9602C32.1897 31.9602 32.1697 31.9602 32.1997 31.9602C32.2297 31.9502 32.4997 32.1002 32.4197 32.0202C32.4197 31.9802 32.4497 31.9202 32.4997 31.8102C32.5797 31.6502 32.8197 31.2002 32.6997 30.7502C32.5497 30.2902 32.1997 30.3802 31.9897 30.5102C31.7597 30.6502 31.5697 30.8902 31.5097 30.8902C31.5697 30.8902 31.5297 30.8902 31.5397 30.8902C31.4897 30.8902 31.4397 30.8602 31.4397 30.8702C31.4197 30.8702 31.3697 30.9002 31.3097 30.9502C31.1997 31.0502 30.9497 31.2502 30.8297 31.6802C30.7697 31.8902 30.7697 32.1102 30.7997 32.3102C30.8397 32.5202 30.9397 32.7602 31.0797 32.9302C31.1697 33.0602 31.1697 33.0402 31.2397 33.1002C31.2597 33.1102 31.2697 33.1402 31.2597 33.1802C31.2297 33.2202 31.1297 33.2702 31.0197 33.2602C30.9197 33.2602 30.8597 33.2102 30.8497 33.2002C30.8597 33.2002 30.7197 33.2502 30.6697 33.2902C30.0197 33.6202 29.1497 33.7902 28.4597 33.8802C28.2797 33.9002 28.1197 33.9202 27.9697 33.9402C27.8497 33.9502 27.7397 33.9602 27.6397 33.9602C27.4497 33.9602 27.3297 33.9602 27.3297 33.9602C27.3297 33.9602 26.5697 33.9602 25.6497 33.9802C25.1697 34.0002 24.6197 34.0402 24.0797 34.1702C23.5397 34.2902 22.9897 34.5402 22.6297 34.8702C22.0697 35.3902 21.9197 35.8902 21.8197 36.2302C21.7397 36.5802 21.7097 36.8202 21.7097 37.0002C21.6697 38.0902 22.0897 38.9102 22.7097 39.4402L22.6997 39.4502Z" fill="#101214"/>
</g>
</g>
</g>
<defs>
<clipPath id="clip0_1_7610">
<rect width="40" height="40" fill="white"/>
</clipPath>
<clipPath id="clip1_1_7610">
<rect width="40" height="40" fill="white"/>
</clipPath>
</defs>
</svg>
