<svg width="40" height="40" viewBox="0 0 40 40" fill="none" xmlns="http://www.w3.org/2000/svg">
<g clip-path="url(#clip0_1_7673)">
<g clip-path="url(#clip1_1_7673)">
<path d="M40 0H0V40H40V0Z" fill="#FFC716"/>
<path d="M16.3797 35.3499C12.7897 35.9499 9.87975 37.6299 7.98975 40.2699H30.8497C28.9597 37.6099 26.0397 35.9199 22.4397 35.3399C21.4897 35.1899 20.4997 35.1099 19.4697 35.1099C18.4397 35.1099 17.3597 35.1999 16.3797 35.3599V35.3499Z" fill="#164B35"/>
<path d="M36.9697 15.3599C37.0997 14.6299 37.1697 13.8499 37.1697 13.0199C37.1697 12.1899 37.0997 11.3899 36.9697 10.6499C36.1797 6.22988 33.1097 3.50988 28.7997 2.80988C28.0697 2.68988 27.2997 2.62988 26.4897 2.62988C25.6797 2.62988 24.8497 2.69988 24.0897 2.81988C19.7797 3.53988 16.7197 6.25988 15.9197 10.6499C15.7897 11.3899 15.7197 12.1799 15.7197 13.0199C15.7197 13.8599 15.7897 14.6199 15.9197 15.3599C16.7097 19.7499 19.7797 22.4699 24.0897 23.1899C24.8497 23.3199 25.6497 23.3799 26.4897 23.3799C27.3297 23.3799 28.0597 23.3199 28.7997 23.1999C33.1097 22.4999 36.1797 19.7699 36.9697 15.3599Z" fill="white"/>
<path d="M28.1396 19.6997C30.0196 15.5297 29.4896 12.2997 27.7496 9.76969C27.7096 9.76969 27.6596 9.77969 27.6196 9.78969C27.5896 9.74969 27.5696 9.71969 27.5396 9.67969C24.4896 10.0397 21.7096 11.7697 19.8096 15.9297C19.8096 15.9297 19.7896 15.9797 19.7796 15.9997C19.7796 16.0097 19.7696 16.0197 19.7596 16.0297C19.7596 16.0297 19.7596 16.0397 19.7596 16.0497C19.7596 16.0497 19.7596 16.0597 19.7596 16.0697C19.7596 16.0697 19.7596 16.0897 19.7496 16.0997C19.7396 16.1197 19.7296 16.1497 19.7196 16.1697C19.7196 16.1697 19.7096 16.1997 19.6996 16.2197C19.6696 16.1697 19.6496 16.1197 19.6196 16.0697C19.6196 16.0697 19.5896 16.0297 19.5796 15.9997C19.5696 15.9797 19.5596 15.9497 19.5396 15.9297C17.1896 11.9197 14.2196 10.4897 11.1196 10.4497C9.58963 13.1397 9.32963 16.4297 11.6096 20.4797C11.6096 20.4797 11.6396 20.5297 11.6496 20.5497C11.6596 20.5697 11.6696 20.5997 11.6896 20.6197C11.7196 20.6697 11.7496 20.7197 11.7796 20.7697C11.7196 20.7697 11.6696 20.7497 11.5996 20.7497C11.5996 20.7497 11.5496 20.7497 11.5196 20.7397C11.4896 20.7397 11.4696 20.7397 11.4396 20.7297C6.80963 20.3597 3.92963 21.9697 2.11963 24.4897C3.44963 27.2897 5.99963 29.3797 10.6196 29.8397C10.6196 29.8397 10.6696 29.8397 10.6996 29.8497C10.7296 29.8497 10.7496 29.8497 10.7796 29.8597C15.4096 30.2297 18.2896 28.6197 20.0996 26.0997C20.1396 26.0997 20.1896 26.0897 20.2296 26.0797C20.2596 26.1197 20.2796 26.1497 20.3096 26.1897C23.3596 25.8297 26.1396 24.0997 28.0396 19.9397C28.0396 19.9397 28.0596 19.8897 28.0696 19.8697C28.0696 19.8597 28.0796 19.8497 28.0896 19.8397C28.0896 19.8397 28.0896 19.8297 28.0896 19.8197C28.0896 19.8197 28.0896 19.8097 28.0896 19.7997C28.0896 19.7997 28.0896 19.7797 28.0996 19.7597C28.1096 19.7397 28.1196 19.7097 28.1296 19.6897L28.1396 19.6997Z" fill="#164B35"/>
<path d="M11.4898 20.7297C6.7698 20.1497 3.7498 21.6697 1.7998 24.1697C3.0398 27.0897 5.5498 29.3497 10.2598 30.0197C10.2598 30.0197 10.3098 30.0197 10.3398 30.0297C10.3698 30.0297 10.3898 30.0297 10.4198 30.0397C15.1398 30.6197 18.1598 29.0997 20.1098 26.5997C18.8698 23.6797 16.3598 21.4197 11.6498 20.7497C11.6498 20.7497 11.5998 20.7497 11.5698 20.7397C11.5398 20.7397 11.5198 20.7397 11.4898 20.7297Z" fill="#82B536"/>
<path d="M28.2996 19.8098C30.1596 15.4598 29.5496 12.1498 27.6996 9.58984C24.5596 9.95984 21.7096 11.7498 19.7696 16.0698C19.7696 16.0698 19.7496 16.1198 19.7396 16.1398C19.7296 16.1598 19.7196 16.1898 19.7096 16.2098C17.8496 20.5698 18.4596 23.8698 20.3096 26.4398C23.4496 26.0698 26.2996 24.2798 28.2396 19.9598C28.2396 19.9598 28.2596 19.9098 28.2696 19.8898C28.2796 19.8698 28.2896 19.8398 28.2996 19.8198V19.8098Z" fill="#82B536"/>
<path d="M27.4498 10.4096C27.8598 10.2196 27.8998 9.08965 27.2398 9.07965C26.3298 9.05965 25.4598 9.32965 24.4898 9.86965C23.9598 10.2096 23.6798 10.4796 23.4498 10.7396C23.2298 10.9996 23.0098 11.1796 22.6998 11.4496C22.4298 11.6696 22.1198 11.9396 21.7998 12.2096C21.4798 12.4996 21.1498 12.7996 20.8398 13.0796C20.2498 13.6796 19.7298 14.2296 19.5698 14.4696C19.5198 14.5396 19.4698 14.6096 19.4298 14.6896C19.3598 14.8296 19.2098 15.0696 19.0598 15.4196C18.9198 15.7696 18.7398 16.2096 18.5398 16.6896C18.3998 17.1996 18.2098 17.7396 18.0798 18.3196C17.9998 18.9096 17.8098 19.4996 17.7998 20.0896C17.7898 20.5096 17.7698 20.8796 17.7598 21.2196C17.7598 21.5596 17.8198 21.8496 17.8398 22.1196C17.9098 22.6496 17.9298 23.0396 18.0198 23.2896C18.1898 23.8896 18.3298 24.4296 18.5598 24.8796C18.8098 25.3196 19.0598 25.7096 19.3298 26.0696C19.6298 26.4796 20.4798 26.0096 20.4198 25.5596C20.3598 25.1396 20.2798 24.7396 20.1598 24.3196C20.0698 23.8896 20.0098 23.4296 19.8598 22.9096C19.7898 22.7096 19.8398 22.3796 19.8598 21.9596C19.8698 21.7496 19.8898 21.5196 19.8898 21.2696C19.9198 21.0196 19.9698 20.7496 19.9898 20.4596C20.0098 20.2696 19.9898 20.0796 19.9598 19.8896C19.9498 19.4796 19.9598 19.0196 19.9998 18.5796C20.0998 18.1496 20.2098 17.7296 20.3198 17.3596C20.4798 17.0096 20.6198 16.7096 20.7198 16.4996C20.8198 16.2896 20.8898 16.1696 20.8898 16.1696C20.8898 16.1696 20.9998 15.9896 21.1698 15.7096C21.3398 15.4196 21.5798 15.0296 21.8998 14.6396C22.4898 13.8196 23.3698 13.0096 23.8998 12.5496C24.3198 12.2296 24.6298 11.9896 24.8698 11.8196C25.1198 11.6696 25.2898 11.5596 25.4298 11.4796C26.2298 11.0196 26.8598 10.6596 27.4598 10.3996L27.4498 10.4096Z" fill="#101214"/>
<path d="M19.6498 27.0096C19.9798 27.3496 21.0398 26.9596 20.8098 26.3296C20.4798 25.4796 19.9798 24.7296 19.1798 23.9496C18.7098 23.5196 18.3498 23.3296 18.0498 23.1596C17.7498 22.9796 17.4898 22.8496 17.1498 22.5996C16.0298 21.7396 13.9298 20.3996 13.3198 20.2196C13.2398 20.1796 13.1498 20.1496 13.0698 20.1296C12.9198 20.0796 12.6298 20.0096 12.2298 19.9696C11.8298 19.9296 11.3598 19.7896 10.7998 19.7996C10.2498 19.7996 9.63977 19.7196 9.01977 19.8296C8.70977 19.8596 8.39977 19.8996 8.07977 19.9296C7.76977 19.9696 7.46977 20.0696 7.16977 20.1396C6.30977 20.3296 5.69977 20.6596 5.19977 20.8996C4.68977 21.1196 4.35977 21.3496 4.13977 21.5096C3.61977 21.8896 3.11977 22.1896 2.79977 22.5996C2.45977 22.9896 2.16977 23.3696 1.90977 23.7596C1.61977 24.1896 2.33977 24.8396 2.75977 24.6096C3.14977 24.3996 3.50977 24.1696 3.87977 23.8996C4.23977 23.6096 4.68977 23.4196 5.13977 23.0896C5.31977 22.9696 5.61977 22.8196 6.04977 22.7296C6.46977 22.6396 6.94977 22.4096 7.53977 22.3196C7.72977 22.2796 7.90977 22.2096 8.08977 22.1096C8.86977 21.7496 9.86977 21.6296 10.6498 21.6896C11.0398 21.6696 11.3698 21.7996 11.6098 21.8296C11.8398 21.8796 11.9798 21.9096 11.9798 21.9096C11.9798 21.9096 12.1898 21.9396 12.5098 22.0596C12.8298 22.1896 13.2998 22.2796 13.7598 22.5196C14.7298 22.9096 15.7698 23.5996 16.3598 24.0296C17.2498 24.6896 17.6398 25.0596 17.8698 25.2896C18.5898 25.9696 19.1398 26.4996 19.6398 26.9996L19.6498 27.0096Z" fill="#101214"/>
<path d="M18.7696 23.2298C18.3596 22.9398 17.6196 23.7898 17.7396 24.0998C17.9396 24.5998 18.1696 25.0998 18.4996 25.7398C18.9196 26.4498 19.1996 26.5598 19.3996 27.0998C19.7696 28.0098 19.8596 29.6998 19.8396 30.0898C19.8396 30.1498 19.8496 30.2098 19.8696 30.2598C19.9396 30.4598 20.0596 31.0098 20.2096 31.7098C20.3096 32.4198 20.4396 33.2798 20.3996 34.0898C20.4696 35.2198 20.3996 35.9298 20.3996 36.2998C20.3996 37.1698 20.4196 37.8298 20.5896 38.4898C20.6796 38.8498 21.6396 38.9598 21.7896 38.5998C22.0396 37.9498 22.2396 37.2798 22.2696 36.3598C22.2696 35.9998 22.5996 35.2698 22.5896 34.1998C22.5896 34.0298 22.5696 33.8498 22.5196 33.6798C22.3296 32.9498 22.1496 32.1098 22.0796 31.4498C21.9596 30.7898 21.9096 30.3198 21.9096 30.3198C21.9096 30.3198 21.8896 30.1398 21.8296 29.8598C21.7696 29.5798 21.6896 29.1898 21.5996 28.7598C21.3896 27.9098 21.0796 26.9298 20.8396 26.3598C20.4896 25.4998 20.2696 25.0998 20.1496 24.8498C19.7396 24.1098 19.2996 23.5998 18.7596 23.2098L18.7696 23.2298Z" fill="#101214"/>
</g>
</g>
<defs>
<clipPath id="clip0_1_7673">
<rect width="40" height="40" fill="white"/>
</clipPath>
<clipPath id="clip1_1_7673">
<rect width="40" height="40" fill="white"/>
</clipPath>
</defs>
</svg>
