<svg width="40" height="40" viewBox="0 0 40 40" fill="none" xmlns="http://www.w3.org/2000/svg">
<g clip-path="url(#clip0_1_7906)">
<g clip-path="url(#clip1_1_7906)">
<path d="M40 0H0V40H40V0Z" fill="#1868DB"/>
<path d="M29.9002 35.5697C28.1202 35.5697 26.6102 36.0097 25.3502 37.0297C24.1802 31.9497 22.4302 26.5697 19.8302 21.7397C17.5102 26.5897 15.8202 31.8997 14.6102 36.8997C13.3902 36.0197 11.8902 35.5597 10.1802 35.5597C7.19016 35.5597 4.96016 36.7797 3.41016 39.9897H36.7802C35.4502 37.0797 33.0302 35.5597 29.9002 35.5597V35.5697Z" fill="white"/>
<path d="M27.07 19.8699V18.2099C27.07 10.8799 24.17 6.6099 20 4.1499C15.83 6.6099 12.93 10.8799 12.93 18.2099V19.8799C8.91998 20.5399 6.20998 24.3299 6.86998 28.3399C6.90998 28.5599 6.95998 28.7699 7.00998 28.9799C9.61998 26.9099 12.92 27.0499 12.93 27.0499V28.5199H27.07V27.0499C27.07 27.0499 30.37 26.9099 32.99 28.9799C33.04 28.7699 33.09 28.5599 33.13 28.3399C33.79 24.3299 31.08 20.5399 27.07 19.8799V19.8699Z" fill="#FCA700"/>
<path d="M15.1699 28.5098C14.9699 30.3298 14.9199 31.4598 14.9199 31.4598H25.0499V31.3498C25.0499 31.0298 25.0399 30.0098 24.9399 28.5198H15.1699V28.5098Z" fill="#FFC716"/>
<path d="M23.3197 18.9199C23.4497 18.4399 23.5097 17.9099 23.5097 17.3699C23.5097 16.8299 23.4497 16.3399 23.3197 15.8799C23.0497 14.8799 22.4697 14.0699 21.5197 13.6499C21.0897 13.4699 20.5897 13.3599 20.0097 13.3599C19.4297 13.3599 18.9097 13.4699 18.4797 13.6499C17.5297 14.0599 16.9497 14.8699 16.6797 15.8699C16.5497 16.3399 16.4897 16.8399 16.4897 17.3599C16.4897 17.9099 16.5497 18.4299 16.6797 18.9099C16.9497 19.9199 17.5297 20.7299 18.4697 21.1299C18.8997 21.3199 19.4097 21.4199 19.9997 21.4199C20.5897 21.4199 21.0897 21.3199 21.5097 21.1299C22.4597 20.7199 23.0297 19.9199 23.2997 18.8999L23.3197 18.9199Z" fill="#FFC716"/>
<path d="M22.8399 18.3597C22.8399 18.8897 23.8999 19.2797 24.1699 18.5897C24.4699 17.6397 24.6299 16.5797 24.1699 15.1697C23.8499 14.3897 23.4499 13.9797 23.0799 13.6797C22.6999 13.3897 22.3599 13.1897 21.8499 12.9397C20.9599 12.5397 19.7699 12.3697 18.6299 12.5897C17.4599 12.7997 16.5599 13.6197 16.3099 13.9397C16.2299 14.0297 16.1599 14.1397 16.0999 14.2497C15.8699 14.6297 15.4399 15.7397 15.4499 17.0397C15.4499 17.6897 15.4999 18.3897 15.6999 19.1297C15.8999 19.8697 16.2699 20.6497 16.8599 21.2497C17.7399 22.0997 18.7299 22.3197 19.3999 22.3997C20.0899 22.4697 20.5899 22.4097 20.9499 22.3497C21.7899 22.1997 22.5199 21.7797 22.9999 21.2397C23.4799 20.6997 23.7299 20.0897 23.8199 19.5197C23.9099 18.8597 22.9399 18.7097 22.6899 19.0997C22.1699 19.8397 21.6199 20.3097 20.5999 20.5097C20.2299 20.5797 19.1399 20.4097 18.4999 19.7997L18.1499 19.4997C17.5599 19.0597 17.2899 17.9197 17.3199 17.0897C17.3299 16.2397 17.5899 15.7297 17.5899 15.7297C17.5899 15.7297 17.6599 15.5297 17.8199 15.2597C17.9799 14.9897 18.2499 14.6797 18.6499 14.4697C19.0499 14.2597 19.5899 14.1597 20.1099 14.1797C20.6299 14.1897 21.0599 14.3297 21.3299 14.4797C22.1399 14.9497 22.2699 15.5197 22.3899 15.7797C22.6999 16.6797 22.7699 17.5397 22.8099 18.3297L22.8399 18.3597Z" fill="#101214"/>
<path d="M20.8198 4.8499C21.6298 4.2599 21.1498 3.2499 20.1298 3.6899C18.7198 4.3399 17.2898 5.2899 15.9198 6.9599C15.1698 7.9299 14.8698 8.6399 14.6098 9.2399C14.4698 9.5399 14.3798 9.8299 14.2598 10.1299C14.1398 10.4299 14.0098 10.7399 13.8798 11.1199C13.3898 12.3899 12.9098 14.1599 12.6798 15.7599C12.5498 16.5599 12.4898 17.3099 12.4298 17.9399C12.3898 18.5399 12.3498 19.0099 12.3298 19.2799C12.3198 19.4399 12.3198 19.5899 12.3298 19.7499C12.3498 20.3099 12.3898 21.8099 12.4398 23.7099C12.4498 24.6599 12.4598 25.6999 12.4798 26.7699C12.4798 27.2499 12.4798 27.7399 12.4798 28.2199V28.9799C12.6798 29.0299 12.9698 28.9899 13.2098 28.9999C13.9798 28.9999 14.7398 29.0099 15.4898 29.0199C18.4698 29.0199 20.3098 29.0099 21.2698 29.0099C23.5398 28.9999 25.2398 28.8799 26.9098 28.6699C27.8298 28.5499 27.8298 27.5799 26.9098 27.4699C25.2398 27.2599 23.5398 27.1499 21.2698 27.1399C20.3898 27.1399 18.5498 26.8799 15.9498 26.8299C15.5298 26.8299 15.0998 26.8399 14.6798 26.8799C14.6198 26.8999 14.6298 26.9199 14.5898 26.9399C14.5598 26.9499 14.4898 26.9999 14.4898 26.9599C14.4598 26.8699 14.4298 26.9899 14.4098 26.3499C14.3698 25.3999 14.3498 24.4699 14.3398 23.6599C14.3198 22.0299 14.3398 20.8599 14.3398 20.8599C14.3398 20.8599 14.3398 20.4199 14.3398 19.7199C14.3398 19.0199 14.3298 18.0299 14.3798 17.0199C14.4298 14.9599 14.9998 12.6299 15.5398 11.3499C16.3598 9.4099 17.0298 8.6399 17.3998 8.1499C18.5798 6.6999 19.6998 5.7399 20.8398 4.8699L20.8198 4.8499Z" fill="#101214"/>
<path d="M15.1999 30.8901C14.9399 31.0101 14.9399 32.1201 15.1999 32.2401C15.5699 32.4001 15.9499 32.4901 16.4499 32.5001C17.0099 32.4501 17.1499 32.2201 17.5299 32.2401C18.1699 32.2401 19.2599 32.5501 19.5199 32.6201C19.5599 32.6301 19.5999 32.6301 19.6399 32.6201C19.9199 32.5801 21.1299 32.4101 22.1799 32.4901C22.9199 32.4901 23.3699 32.4901 23.6099 32.4901C24.1699 32.4901 24.5899 32.3701 25.0099 32.1501C25.2399 32.0301 25.2399 31.0601 25.0099 30.9501C24.5999 30.7401 24.1799 30.6201 23.6099 30.6201C23.3899 30.6201 22.9299 30.3501 22.2899 30.3101C22.1899 30.3101 22.0799 30.3201 21.9799 30.3601C21.0799 30.7201 19.9199 30.6201 19.9199 30.6201C19.9199 30.6201 18.1799 30.6201 17.4499 30.6201C16.8999 30.6201 16.6299 30.6201 16.4699 30.6201C15.9699 30.6201 15.5899 30.7201 15.2199 30.8801L15.1999 30.8901Z" fill="#101214"/>
</g>
</g>
<defs>
<clipPath id="clip0_1_7906">
<rect width="40" height="40" fill="white"/>
</clipPath>
<clipPath id="clip1_1_7906">
<rect width="40" height="40" fill="white"/>
</clipPath>
</defs>
</svg>
