<svg width="40" height="40" viewBox="0 0 40 40" fill="none" xmlns="http://www.w3.org/2000/svg">
<g clip-path="url(#clip0_1_7989)">
<g clip-path="url(#clip1_1_7989)">
<path d="M40 0H0V40H40V0Z" fill="#09326C"/>
<path d="M0.0498047 22.67C1.7498 23.16 3.6598 23.44 5.8498 23.44C22.3798 23.44 24.8098 7.49 40.0498 6.19V0H0.0498047V22.67Z" fill="#164B35"/>
<path d="M7.84961 40H32.0796L23.3096 24.13V12.36L25.3696 12.35L23.9696 9.75L15.9796 10.03L15.1596 12.41L16.7896 12.4V23.82L7.84961 40Z" fill="white"/>
<path d="M7.84961 40H32.0796L25.2896 27.71C24.6896 27.56 24.0296 27.48 23.2896 27.48C17.0196 27.48 16.6096 33.33 11.1096 34.09L7.84961 39.99V40Z" fill="#82B536"/>
<path d="M26.1398 33.9198C26.0698 33.7398 25.9798 33.5498 25.8698 33.3698C25.7598 33.1898 25.6398 33.0098 25.5098 32.8598C24.7398 31.9698 23.6898 31.7698 22.6298 32.1798C22.4498 32.2498 22.2698 32.3398 22.0898 32.4498C21.9098 32.5598 21.7298 32.6798 21.5798 32.8098C20.7098 33.5398 20.3798 34.5598 20.7798 35.6598C20.8498 35.8398 20.9398 36.0298 21.0498 36.2198C21.1598 36.4098 21.2798 36.5698 21.4098 36.7198C22.1698 37.5998 23.2198 37.8098 24.2898 37.3898C24.4798 37.3198 24.6698 37.2298 24.8598 37.1098C25.0498 36.9898 25.2098 36.8898 25.3498 36.7598C26.2298 36.0298 26.5498 35.0098 26.1498 33.9098L26.1398 33.9198Z" fill="#09326C"/>
<path d="M16.6598 36.0202C16.6198 35.9102 16.5598 35.7902 16.4898 35.6802C16.4198 35.5702 16.3498 35.4602 16.2698 35.3702C15.7898 34.8202 15.1398 34.6902 14.4798 34.9502C14.3698 34.9902 14.2498 35.0502 14.1398 35.1202C14.0298 35.1902 13.9198 35.2602 13.8198 35.3502C13.2798 35.8102 13.0698 36.4402 13.3298 37.1202C13.3698 37.2302 13.4298 37.3502 13.4998 37.4702C13.5698 37.5902 13.6398 37.6902 13.7198 37.7802C14.1898 38.3302 14.8498 38.4602 15.5098 38.2002C15.6298 38.1502 15.7398 38.1002 15.8598 38.0302C15.9798 37.9602 16.0698 37.8902 16.1698 37.8102C16.7098 37.3602 16.9198 36.7202 16.6598 36.0402V36.0202Z" fill="#09326C"/>
<path d="M19.2296 4.45009C19.1796 4.31009 19.1096 4.17009 19.0196 4.02009C18.9296 3.87009 18.8396 3.74009 18.7396 3.63009C18.1496 2.94009 17.3296 2.78009 16.5096 3.10009C16.3696 3.15009 16.2296 3.22009 16.0896 3.31009C15.9496 3.40009 15.8096 3.49009 15.6896 3.59009C15.0096 4.16009 14.7596 4.95009 15.0696 5.80009C15.1196 5.94009 15.1896 6.09009 15.2796 6.23009C15.3696 6.37009 15.4596 6.50009 15.5596 6.62009C16.1496 7.30009 16.9696 7.46009 17.7896 7.14009C17.9396 7.08009 18.0796 7.01009 18.2296 6.93009C18.3796 6.85009 18.4996 6.76009 18.6096 6.66009C19.2896 6.09009 19.5396 5.30009 19.2296 4.45009Z" fill="#82B536"/>
<path d="M22.0496 0.79C22.0796 0.88 22.1296 0.98 22.1796 1.07C22.2296 1.16 22.2896 1.25 22.3596 1.32C22.7396 1.76 23.2596 1.86 23.7996 1.66C23.8896 1.62 23.9896 1.58 24.0796 1.52C24.1696 1.47 24.2496 1.41 24.3296 1.35C24.7496 1 24.8996 0.52 24.7396 0H22.0196C21.9396 0.25 21.9496 0.51 22.0496 0.79Z" fill="#82B536"/>
<path d="M15.36 12.3198C15.1 12.4398 15.1 13.5498 15.36 13.6698C15.73 13.8398 16.11 13.9198 16.61 13.9298C17.17 13.8798 17.31 13.6498 17.69 13.6698C18.33 13.6698 19.42 13.9798 19.68 14.0598C19.72 14.0698 19.76 14.0698 19.8 14.0598C20.08 14.0198 21.29 13.8498 22.34 13.9298C23.08 13.9298 23.54 13.9298 23.78 13.9298C24.34 13.9298 24.77 13.8098 25.18 13.5998C25.41 13.4798 25.41 12.5098 25.18 12.3998C24.77 12.1898 24.34 12.0698 23.78 12.0698C23.56 12.0698 23.1 11.7998 22.46 11.7598C22.35 11.7598 22.25 11.7698 22.15 11.8098C21.25 12.1698 20.08 12.0698 20.08 12.0698C20.08 12.0698 18.34 12.0698 17.6 12.0698C17.05 12.0698 16.78 12.0698 16.61 12.0698C16.11 12.0698 15.73 12.1698 15.36 12.3298V12.3198Z" fill="#101214"/>
<path d="M17.4196 13.6898C17.2796 12.9398 16.1596 12.9698 16.0696 13.7198C15.9396 14.7798 15.8896 15.8798 15.9296 17.2998C16.0396 18.9098 16.2796 19.3198 16.2896 20.4098C16.3196 21.3198 16.2896 22.6098 16.2296 23.6298C16.2296 23.7198 16.2096 23.7098 16.1896 23.7398C16.1696 23.7598 16.1896 23.7398 16.1496 23.7798L16.0396 23.9398C15.8896 24.1498 15.7596 24.3398 15.6296 24.5198C15.3796 24.8698 15.1796 25.1398 15.0696 25.2998C14.9996 25.3898 14.9496 25.4898 14.8896 25.5898C14.5196 26.2998 12.9096 29.4198 11.3196 31.9898C10.2496 33.8398 9.58961 34.9798 9.23961 35.5798C8.42961 36.9898 7.91961 38.0998 7.49961 39.2398C7.26961 39.8698 8.10961 40.3498 8.53961 39.8398C9.31961 38.9098 10.0296 37.9198 10.8596 36.5098C11.1796 35.9598 12.0696 34.9598 13.0496 33.3698C13.2096 33.1098 13.3496 32.8398 13.4596 32.5598C14.4496 30.1298 16.2296 27.2698 16.2296 27.2698C16.2296 27.2698 16.8596 26.1798 17.6296 24.8698L17.7996 24.5798C17.8696 24.4298 17.9996 24.2998 18.0296 24.1298C18.0296 23.8798 18.0096 23.6298 18.0096 23.3698C17.9996 22.9698 17.9796 22.5698 17.9696 22.1798C17.9496 21.4098 17.9196 20.6898 17.9096 20.1598C17.8496 18.5498 17.8296 17.7798 17.8096 17.3098C17.7596 15.8698 17.6296 14.7498 17.4296 13.6898H17.4196Z" fill="#101214"/>
</g>
</g>
<defs>
<clipPath id="clip0_1_7989">
<rect width="40" height="40" fill="white"/>
</clipPath>
<clipPath id="clip1_1_7989">
<rect width="40" height="40" fill="white"/>
</clipPath>
</defs>
</svg>
