<svg width="40" height="40" viewBox="0 0 40 40" fill="none" xmlns="http://www.w3.org/2000/svg">
<g clip-path="url(#clip0_1_8352)">
<g clip-path="url(#clip1_1_8352)">
<path d="M40 0H0V40H40V0Z" fill="#1868DB"/>
<path d="M32.0901 -0.0200195L26.3101 18.4C29.5201 19.75 31.7301 22.39 32.5401 26.68L40.0901 24.31V-0.0200195H32.0901Z" fill="white"/>
<path d="M19.8498 27.7497C10.7398 27.7497 3.67984 30.9997 0.0898438 38.8797V39.9797H40.0898V38.1597C36.4598 30.7997 29.2498 27.7397 19.8498 27.7397V27.7497Z" fill="#09326C"/>
<path d="M19.52 17.5302C19.64 17.6202 20.75 17.6202 20.87 17.5302C21.04 17.4102 21.12 17.2802 21.13 17.1102C21.08 16.9202 20.85 16.8702 20.87 16.7502C20.87 16.5302 21.18 16.1702 21.26 16.0802C21.27 16.0702 21.27 16.0502 21.26 16.0402C21.22 15.9502 21.05 15.5402 21.13 15.1902C21.13 14.9402 21.13 14.7902 21.13 14.7102C21.13 14.5202 21.01 14.3802 20.8 14.2402C20.68 14.1602 19.71 14.1602 19.6 14.2402C19.39 14.3802 19.27 14.5202 19.27 14.7102C19.27 14.7802 19 14.9402 18.96 15.1502C18.96 15.1902 18.97 15.2202 19.01 15.2602C19.37 15.5602 19.27 15.9602 19.27 15.9602C19.27 15.9602 19.27 16.5502 19.27 16.7902C19.27 16.9802 19.27 17.0702 19.27 17.1202C19.27 17.2902 19.37 17.4202 19.53 17.5402L19.52 17.5302Z" fill="#101214"/>
<path d="M33.25 23.2897C33.15 23.4497 33.49 24.5097 33.67 24.5697C33.92 24.6597 34.15 24.6797 34.42 24.5997C34.71 24.4497 34.71 24.2097 34.92 24.1597C35.27 24.0497 35.95 24.1497 36.11 24.1797C36.13 24.1797 36.16 24.1797 36.18 24.1697C36.32 24.0797 36.92 23.7097 37.51 23.5997C37.91 23.4697 38.15 23.3797 38.28 23.3397C38.58 23.2297 38.77 23.0497 38.93 22.7797C39.02 22.6297 38.72 21.7097 38.56 21.6397C38.27 21.5097 38.01 21.4797 37.7 21.5697C37.58 21.6097 37.25 21.4297 36.89 21.4997C36.83 21.5097 36.78 21.5497 36.74 21.6097C36.37 22.1097 35.71 22.2197 35.71 22.2197C35.71 22.2197 34.77 22.5197 34.37 22.6497C34.07 22.7497 33.93 22.7997 33.84 22.8297C33.57 22.9197 33.39 23.0797 33.25 23.2997V23.2897Z" fill="#101214"/>
<path d="M31.05 19.9399C30.97 20.1499 31.65 21.0299 31.88 21.0099C32.2 20.9699 32.48 20.8699 32.77 20.6499C33.07 20.3499 33.01 20.1099 33.24 19.9599C33.62 19.6699 34.44 19.4199 34.64 19.3599C34.67 19.3599 34.69 19.3399 34.71 19.3099C34.85 19.1499 35.45 18.4699 36.11 18.0599C36.54 17.7199 36.81 17.5099 36.94 17.3999C37.26 17.1399 37.44 16.8599 37.55 16.4999C37.61 16.2999 37.02 15.5399 36.81 15.5499C36.44 15.5699 36.12 15.6699 35.79 15.9199C35.66 16.0199 35.23 16.0099 34.83 16.2699C34.76 16.3099 34.71 16.3699 34.68 16.4499C34.38 17.1399 33.63 17.5899 33.63 17.5899C33.63 17.5899 32.61 18.3799 32.18 18.7099C31.86 18.9599 31.7 19.0899 31.61 19.1599C31.33 19.3899 31.15 19.6399 31.04 19.9299L31.05 19.9399Z" fill="#101214"/>
<path d="M27.82 17.53C27.79 17.82 28.76 18.37 29 18.19C29.33 17.94 29.61 17.63 29.87 17.18C30.11 16.64 29.98 16.4 30.2 16.06C30.53 15.47 31.36 14.63 31.56 14.43C31.59 14.4 31.61 14.37 31.63 14.33C31.74 14.06 32.21 12.86 32.82 11.95C33.2 11.27 33.43 10.85 33.55 10.64C33.83 10.12 33.95 9.67997 33.98 9.19997C34 8.93997 33.15 8.45997 32.93 8.60997C32.53 8.87997 32.22 9.20997 31.92 9.71997C31.81 9.91997 31.34 10.21 30.97 10.77C30.91 10.86 30.87 10.97 30.85 11.08C30.7 12.08 30.01 13.1 30.01 13.1C30.01 13.1 29.11 14.69 28.73 15.36C28.45 15.87 28.31 16.11 28.23 16.26C27.98 16.72 27.86 17.11 27.82 17.53Z" fill="#101214"/>
<path d="M15.6001 15.6699C15.6001 15.6699 16.4501 15.3799 17.7501 15.1799C18.4201 15.0799 19.2101 14.9999 20.0801 14.9999C20.9501 14.9999 21.7401 15.0799 22.4101 15.1799C23.7101 15.3799 24.5401 15.6599 24.5601 15.6699L25.6001 12.7799C25.5401 12.7599 24.6501 12.4399 23.2501 12.2099C22.3701 12.0599 21.2901 11.9399 20.0801 11.9399C18.8701 11.9399 17.7901 12.0599 16.9101 12.2099C15.5101 12.4499 14.6201 12.7599 14.5601 12.7799L15.6001 15.6699Z" fill="#FFC716"/>
<path d="M15.6001 15.06C15.5501 15.11 15.5301 15.21 15.5401 15.33C15.5401 15.39 15.5601 15.46 15.5701 15.53L15.6001 15.64C15.6001 15.64 15.6401 15.76 15.6101 15.69C15.6501 15.78 15.6801 15.88 15.7101 15.97C15.7401 16.04 15.7701 16.1 15.8001 16.15C15.8601 16.26 15.9301 16.33 15.9901 16.35C16.3201 16.42 16.6501 16.43 17.0601 16.35C17.5101 16.21 17.5901 15.96 17.9101 15.94C18.4601 15.9 19.4001 16.14 19.6101 16.2C19.6401 16.2 19.6701 16.2 19.7101 16.2C19.9301 16.08 20.9501 16.04 21.8201 16.17C22.4401 16.19 22.8101 16.3 23.0101 16.33C23.4701 16.42 23.8401 16.39 24.2201 16.29C24.2701 16.28 24.3301 16.21 24.3901 16.11C24.4201 16.06 24.4501 16.01 24.4701 15.95C24.5001 15.87 24.5301 15.79 24.5701 15.7C24.5501 15.76 24.5701 15.69 24.5701 15.67L24.6001 15.57C24.6101 15.51 24.6201 15.45 24.6301 15.39C24.6301 15.28 24.6301 15.19 24.5801 15.14C24.2701 14.82 23.9001 14.61 23.3801 14.5C23.1801 14.47 22.8101 14.09 22.1901 14.01C22.0901 13.99 21.9901 14.01 21.8801 14.04C20.9901 14.35 19.9201 14.13 19.9101 14.18C19.9101 14.18 18.2701 14.3 17.5801 14.36C17.0701 14.44 16.8201 14.5 16.6701 14.53C16.2101 14.63 15.8801 14.81 15.5901 15.07L15.6001 15.06Z" fill="#101214"/>
<path d="M32.8601 31.65C33.2301 21.24 28.0301 17.27 19.9701 17.27C12.4101 17.27 7.33008 21.24 7.33008 31.65H32.8601Z" fill="#FFC716"/>
<path d="M7.59998 27.04C6.93998 27.16 6.93998 28.27 7.59998 28.39C8.53998 28.56 9.51998 28.64 10.78 28.65C12.21 28.6 12.57 28.37 13.54 28.39C15.18 28.39 17.95 28.7 18.61 28.78C18.71 28.79 18.81 28.79 18.91 28.78C19.62 28.74 22.71 28.57 25.38 28.65C27.26 28.65 28.43 28.65 29.04 28.65C30.48 28.65 31.55 28.53 32.61 28.32C33.19 28.2 33.19 27.23 32.61 27.12C31.55 26.91 30.48 26.79 29.04 26.79C28.48 26.79 27.32 26.52 25.67 26.48C25.4 26.48 25.13 26.49 24.87 26.53C22.58 26.89 19.6 26.79 19.6 26.79C19.6 26.79 15.16 26.79 13.29 26.79C11.88 26.79 11.2 26.79 10.78 26.79C9.51998 26.79 8.52998 26.89 7.59998 27.05V27.04Z" fill="#101214"/>
</g>
</g>
<defs>
<clipPath id="clip0_1_8352">
<rect width="40" height="40" fill="white"/>
</clipPath>
<clipPath id="clip1_1_8352">
<rect width="40" height="40" fill="white"/>
</clipPath>
</defs>
</svg>
