<svg width="40" height="40" viewBox="0 0 40 40" fill="none" xmlns="http://www.w3.org/2000/svg">
<g clip-path="url(#clip0_1_8282)">
<g clip-path="url(#clip1_1_8282)">
<path d="M40 0H0V40H40V0Z" fill="#09326C"/>
<path d="M19.9999 2.86986L5.18994 7.71986C5.18994 7.71986 5.70994 30.3499 19.9899 37.4899V37.4399L20.0099 37.4899C34.2799 30.3499 34.8099 7.71986 34.8099 7.71986L19.9999 2.85986V2.86986Z" fill="#1868DB"/>
<path d="M20.0201 2.87012H20.0001L8.37012 6.68012C8.63012 10.6901 10.2801 26.0901 20.0201 33.5301V2.87012Z" fill="white"/>
<path d="M20.02 37.4899C34.29 30.3499 34.81 7.72988 34.81 7.72988L20.02 2.87988V37.4899Z" fill="#FCA700"/>
<path d="M20.5697 36.5099C19.5497 37.1999 19.9997 38.2299 21.2297 37.6799C22.9497 36.8899 24.6497 35.7599 26.4297 33.9099C28.3297 31.7099 28.4897 30.9499 29.5497 29.3399C30.3997 27.9499 31.4597 26.0299 32.2497 24.2499C33.0597 22.4799 33.6297 20.8699 33.8697 20.2499C33.9297 20.0599 33.9897 19.8799 34.0397 19.6899C34.2197 19.0099 34.6597 17.1699 35.0397 14.8399C35.2297 13.6699 35.4197 12.3899 35.5597 11.0599C35.6397 10.3999 35.6997 9.71993 35.7497 9.04993L35.7897 8.38993L35.8297 7.49993L35.8497 7.03993C35.7897 6.92993 35.5897 6.91993 35.4597 6.85993L34.5997 6.55993C31.0497 5.39993 28.8497 4.67993 27.7097 4.30993C25.0597 3.44993 23.0397 2.90993 21.0297 2.46993C19.9297 2.22993 19.6197 3.14993 20.6497 3.60993C22.5297 4.44993 24.4697 5.20993 27.1197 6.07993C28.1497 6.41993 30.2097 7.37993 33.2297 8.40993L33.5997 8.52993C33.5997 8.52993 33.6297 8.50993 33.6497 8.50993C33.6597 8.50993 33.6697 8.50993 33.6797 8.54993C33.6797 8.59993 33.6997 8.56993 33.6997 8.75993C33.6997 9.03993 33.6897 9.31993 33.6797 9.60993C33.6597 10.1799 33.6197 10.7599 33.5797 11.3299C33.4797 12.4699 33.3297 13.5799 33.1597 14.5499C32.8197 16.4899 32.4397 17.8599 32.4397 17.8599C32.4397 17.8599 31.9497 19.9299 31.0797 22.3299C30.2297 24.7399 28.8797 27.4199 27.9197 28.8899C26.4997 31.1399 25.5697 32.0299 25.0697 32.6199C23.4397 34.3299 22.0197 35.4799 20.5697 36.4999V36.5099Z" fill="#101214"/>
<path d="M20.5795 10.2798C20.4595 9.8898 19.3495 9.8898 19.2295 10.2798C19.0595 10.8398 18.9795 11.4198 18.9695 12.1798C19.0195 13.0298 19.2495 13.2498 19.2295 13.8198C19.2295 14.7998 18.9195 16.4398 18.8395 16.8398C18.8295 16.8998 18.8295 16.9598 18.8395 17.0198C18.8795 17.4398 19.0495 19.2898 18.9695 20.8698C18.9695 21.9898 18.9695 22.6898 18.9695 23.0498C18.9695 23.9098 19.0895 24.5498 19.2995 25.1798C19.4195 25.5298 20.3895 25.5298 20.4995 25.1798C20.7095 24.5498 20.8295 23.9098 20.8295 23.0498C20.8295 22.7198 21.0995 22.0198 21.1395 21.0398C21.1395 20.8798 21.1295 20.7198 21.0895 20.5598C20.7295 19.1898 20.8295 17.4198 20.8295 17.4198C20.8295 17.4198 20.8295 14.7798 20.8295 13.6598C20.8295 12.8198 20.8295 12.4098 20.8295 12.1698C20.8295 11.4198 20.7295 10.8298 20.5695 10.2698L20.5795 10.2798Z" fill="#101214"/>
<path d="M26.3997 18.2997C26.7397 18.1797 26.7397 17.0697 26.3997 16.9497C25.9197 16.7797 25.4197 16.6997 24.7697 16.6897C24.0397 16.7397 23.8497 16.9697 23.3497 16.9497C22.5097 16.9497 21.0897 16.6397 20.7497 16.5597C20.6997 16.5497 20.6497 16.5497 20.5997 16.5597C20.2397 16.5997 18.6497 16.7697 17.2797 16.6897C16.3097 16.6897 15.7197 16.6897 15.3997 16.6897C14.6597 16.6897 14.1097 16.8097 13.5697 17.0197C13.2697 17.1397 13.2697 18.1097 13.5697 18.2197C14.1097 18.4297 14.6597 18.5497 15.3997 18.5497C15.6897 18.5497 16.2797 18.8197 17.1297 18.8597C17.2697 18.8597 17.3997 18.8497 17.5397 18.8097C18.7197 18.4497 20.2397 18.5497 20.2397 18.5497C20.2397 18.5497 22.5197 18.5497 23.4797 18.5497C24.1997 18.5497 24.5497 18.5497 24.7697 18.5497C25.4197 18.5497 25.9197 18.4497 26.3997 18.2897V18.2997Z" fill="#101214"/>
</g>
</g>
<defs>
<clipPath id="clip0_1_8282">
<rect width="40" height="40" fill="white"/>
</clipPath>
<clipPath id="clip1_1_8282">
<rect width="40" height="40" fill="white"/>
</clipPath>
</defs>
</svg>
