<svg width="40" height="40" viewBox="0 0 40 40" fill="none" xmlns="http://www.w3.org/2000/svg">
<g clip-path="url(#clip0_1_8043)">
<g clip-path="url(#clip1_1_8043)">
<path d="M40.0498 -0.0400391H0.0498047V39.96H40.0498V-0.0400391Z" fill="#1868DB"/>
<path d="M36.51 7.58008H4.75V12.6201H36.51V7.58008Z" fill="white"/>
<path d="M7.29004 10.4502H36.62V21.8402L20.45 28.9202H7.29004V10.4502Z" fill="#FFC716"/>
<path d="M36.51 28.9199H4.75V31.7999H36.51V28.9199Z" fill="white"/>
<path d="M14.5702 10.4502H6.9502V28.9102H14.5702V10.4502Z" fill="#BD5B00"/>
<path d="M14.59 35.9499C16.1805 35.9499 17.47 34.6605 17.47 33.0699C17.47 31.4794 16.1805 30.1899 14.59 30.1899C12.9994 30.1899 11.71 31.4794 11.71 33.0699C11.71 34.6605 12.9994 35.9499 14.59 35.9499Z" fill="white"/>
<path d="M28.34 35.9499C29.9305 35.9499 31.22 34.6605 31.22 33.0699C31.22 31.4794 29.9305 30.1899 28.34 30.1899C26.7494 30.1899 25.46 31.4794 25.46 33.0699C25.46 34.6605 26.7494 35.9499 28.34 35.9499Z" fill="white"/>
<path d="M7.23008 14.2402C6.53008 14.3602 6.53008 15.4702 7.23008 15.5902C8.23008 15.7602 9.28008 15.8402 10.6201 15.8502C12.1501 15.8002 12.5301 15.5702 13.5601 15.5902C15.3101 15.5902 18.2601 15.9002 18.9701 15.9802C19.0701 15.9902 19.1801 15.9902 19.2901 15.9802C20.0401 15.9402 23.3401 15.7702 26.1901 15.8502C28.2001 15.8502 29.4401 15.8502 30.0901 15.8502C31.6201 15.8502 32.7701 15.7302 33.8901 15.5202C34.5101 15.4002 34.5101 14.4302 33.8901 14.3202C32.7701 14.1102 31.6201 13.9902 30.0901 13.9902C29.4901 13.9902 28.2501 13.7202 26.5001 13.6802C26.2101 13.6802 25.9301 13.6902 25.6501 13.7302C23.2101 14.0902 20.0401 13.9902 20.0401 13.9902C20.0401 13.9902 15.3101 13.9902 13.3101 13.9902C11.8101 13.9902 11.0801 13.9902 10.6401 13.9902C9.29008 13.9902 8.25008 14.0902 7.25008 14.2502L7.23008 14.2402Z" fill="#101214"/>
<path d="M7.23008 18.9003C6.53008 19.0203 6.53008 20.1303 7.23008 20.2503C8.23008 20.4203 9.28008 20.5003 10.6201 20.5103C12.1501 20.4603 12.5301 20.2303 13.5601 20.2503C15.3101 20.2503 18.2601 20.5603 18.9701 20.6403C19.0701 20.6503 19.1801 20.6503 19.2901 20.6403C20.0401 20.6003 23.3401 20.4303 26.1901 20.5103C28.2001 20.5103 29.4401 20.5103 30.0901 20.5103C31.6201 20.5103 32.7701 20.3903 33.8901 20.1803C34.5101 20.0603 34.5101 19.0903 33.8901 18.9803C32.7701 18.7703 31.6201 18.6503 30.0901 18.6503C29.4901 18.6503 28.2501 18.3803 26.5001 18.3403C26.2101 18.3403 25.9301 18.3503 25.6501 18.3903C23.2101 18.7503 20.0401 18.6503 20.0401 18.6503C20.0401 18.6503 15.3101 18.6503 13.3101 18.6503C11.8101 18.6503 11.0801 18.6503 10.6401 18.6503C9.29008 18.6503 8.25008 18.7503 7.25008 18.9103L7.23008 18.9003Z" fill="#101214"/>
<path d="M19.9399 12.0601C19.8199 11.7801 18.7099 11.7801 18.5899 12.0601C18.4199 12.4601 18.3399 12.8801 18.3299 13.4201C18.3799 14.0301 18.6099 14.1801 18.5899 14.6001C18.5899 15.3001 18.2799 16.4801 18.1999 16.7701C18.1899 16.8101 18.1899 16.8501 18.1999 16.9001C18.2399 17.2001 18.4099 18.5201 18.3299 19.6601C18.3299 20.4601 18.3299 20.9601 18.3299 21.2201C18.3299 21.8301 18.4499 22.2901 18.6599 22.7401C18.7799 22.9901 19.7499 22.9901 19.8599 22.7401C20.0699 22.2901 20.1899 21.8301 20.1899 21.2201C20.1899 20.9801 20.4599 20.4801 20.4999 19.7801C20.4999 19.6701 20.4899 19.5501 20.4499 19.4401C20.0899 18.4601 20.1899 17.1901 20.1899 17.1901C20.1899 17.1901 20.1899 15.2901 20.1899 14.4901C20.1899 13.8901 20.1899 13.6001 20.1899 13.4201C20.1899 12.8801 20.0899 12.4601 19.9299 12.0601H19.9399Z" fill="#101214"/>
<path d="M31.9599 11.5904C31.8399 11.3104 30.7299 11.3104 30.6099 11.5904C30.4399 11.9904 30.3599 12.4104 30.3499 12.9504C30.3999 13.5604 30.6299 13.7104 30.6099 14.1304C30.6099 14.8304 30.2999 16.0104 30.2199 16.3004C30.2099 16.3404 30.2099 16.3804 30.2199 16.4304C30.2599 16.7304 30.4299 18.0504 30.3499 19.1904C30.3499 19.9904 30.3499 20.4904 30.3499 20.7504C30.3499 21.3604 30.4699 21.8204 30.6799 22.2704C30.7999 22.5204 31.7699 22.5204 31.8799 22.2704C32.0899 21.8204 32.2099 21.3604 32.2099 20.7504C32.2099 20.5104 32.4799 20.0104 32.5199 19.3104C32.5199 19.2004 32.5099 19.0804 32.4699 18.9704C32.1099 17.9904 32.2099 16.7204 32.2099 16.7204C32.2099 16.7204 32.2099 14.8204 32.2099 14.0204C32.2099 13.4204 32.2099 13.1304 32.2099 12.9504C32.2099 12.4104 32.1099 11.9904 31.9499 11.5904H31.9599Z" fill="#101214"/>
<path d="M25.3998 11.9302C25.2798 11.6502 24.1698 11.6502 24.0498 11.9302C23.8798 12.3302 23.7998 12.7502 23.7898 13.2902C23.8398 13.9002 24.0698 14.0502 24.0498 14.4702C24.0498 15.1702 23.7398 16.3502 23.6598 16.6402C23.6498 16.6802 23.6498 16.7202 23.6598 16.7702C23.6998 17.0702 23.8698 18.3902 23.7898 19.5302C23.7898 20.3302 23.7898 20.8302 23.7898 21.0902C23.7898 21.7002 23.9098 22.1602 24.1198 22.6102C24.2398 22.8602 25.2098 22.8602 25.3198 22.6102C25.5298 22.1602 25.6498 21.7002 25.6498 21.0902C25.6498 20.8502 25.9198 20.3502 25.9598 19.6502C25.9598 19.5402 25.9498 19.4202 25.9098 19.3102C25.5498 18.3302 25.6498 17.0602 25.6498 17.0602C25.6498 17.0602 25.6498 15.1602 25.6498 14.3602C25.6498 13.7602 25.6498 13.4702 25.6498 13.2902C25.6498 12.7502 25.5498 12.3302 25.3898 11.9302H25.3998Z" fill="#101214"/>
<path d="M3.53002 5.19025C2.10002 5.31025 2.10002 6.42025 3.53002 6.54025C4.10002 6.58025 4.68002 6.62025 5.28002 6.66025L5.74002 6.68025H5.97002C6.06002 6.70025 6.02002 6.70025 6.05002 6.70025L6.21002 6.74025L6.19002 6.87025V6.93025L6.17002 7.30025C6.17002 7.84025 6.16002 8.40025 6.15002 8.99025C6.20002 12.0803 6.43002 12.8503 6.41002 14.9503C6.41002 18.4903 6.10002 24.4703 6.02002 25.9103C6.01002 26.1203 6.01002 26.3403 6.02002 26.5503C6.02002 26.8103 6.03002 27.2203 6.05002 27.9603C6.05002 28.9403 6.07002 30.3503 6.09002 32.4203C6.88002 32.4103 8.63002 32.3803 10.81 32.3503C12.48 32.3403 14.48 32.3303 16.37 32.3603C20.44 32.3603 22.96 32.3603 24.27 32.3603C27.38 32.3603 29.7 32.2403 31.98 32.0303C33.23 31.9103 33.23 30.9403 31.98 30.8303C29.7 30.6203 27.38 30.5003 24.27 30.5003C23.06 30.5003 20.55 30.2303 17 30.1903C16.42 30.1903 15.84 30.2003 15.27 30.2403C13.91 30.3403 12.44 30.4003 11.03 30.4503C9.93002 30.4703 8.88002 30.5003 8.02002 30.5203C8.02002 29.0503 8.03002 28.0803 8.03002 28.0803C8.03002 28.0803 8.03002 18.4903 8.03002 14.4403C8.03002 11.3903 8.03002 9.93025 8.03002 9.02025C8.01002 7.54025 7.99002 6.21025 7.97002 5.01025C7.41002 5.02025 6.86002 5.04025 6.33002 5.05025C6.13002 5.05025 5.93002 5.06025 5.74002 5.07025L5.28002 5.09025C4.68002 5.13025 4.10002 5.17025 3.53002 5.21025V5.19025Z" fill="#101214"/>
<path d="M11.0798 5.19022C9.7898 5.31022 9.7898 6.42022 11.0798 6.54022C11.6598 6.59022 12.2498 6.64022 12.8598 6.67022C13.0098 6.67022 13.1698 6.69021 13.3298 6.70021C13.4598 6.70021 13.7298 6.72021 13.6898 6.72021C13.7398 6.73021 13.7898 6.74022 13.8398 6.76022C13.8398 6.82022 13.8198 6.88022 13.8098 6.94022C13.8098 7.35022 13.8098 7.78021 13.7998 8.24021C13.8498 11.0402 14.0798 11.7302 14.0598 13.6302C14.0598 16.8302 13.7498 22.2402 13.6698 23.5402C13.6598 23.7302 13.6598 23.9302 13.6698 24.1202C13.6698 24.5102 13.6998 25.2902 13.7298 26.4802C13.7398 27.0802 13.7498 27.7802 13.7698 28.5802C13.7698 29.6902 13.7898 30.9502 13.7998 32.3602C16.0898 32.3502 17.8898 32.3502 20.2498 32.4002C23.9298 32.4202 26.2098 32.4402 27.3998 32.4402C30.2098 32.4502 32.3098 32.3502 34.3698 32.1502C35.4998 32.0402 35.5098 31.0702 34.3698 30.9502C32.3098 30.7202 30.2098 30.6002 27.3998 30.5702C26.3098 30.5702 24.0398 30.2802 20.8298 30.2102C20.3098 30.2002 19.7798 30.2102 19.2698 30.2502C18.5498 30.3002 17.7998 30.3402 17.0498 30.3802C16.6898 30.3902 16.3398 30.4102 15.9798 30.4202C15.8898 30.4302 15.7998 30.4402 15.7198 30.4502C15.7198 30.3502 15.6998 30.2602 15.6898 30.1702C15.6898 29.7902 15.6798 29.4302 15.6698 29.0802C15.6698 28.3802 15.6698 27.7502 15.6698 27.2102C15.6698 26.1402 15.6798 25.4702 15.6798 25.4702C15.6798 25.4702 15.6798 16.8002 15.6798 13.1402C15.6798 10.3802 15.6798 9.06021 15.6798 8.24021C15.6598 7.04021 15.6498 5.93021 15.6398 4.97021C15.0398 4.98021 14.4698 5.00022 13.9098 5.01022C13.5498 5.03022 13.1998 5.04021 12.8598 5.06021C12.2398 5.10021 11.6498 5.14022 11.0798 5.19022Z" fill="#101214"/>
</g>
</g>
<defs>
<clipPath id="clip0_1_8043">
<rect width="40" height="40" fill="white"/>
</clipPath>
<clipPath id="clip1_1_8043">
<rect width="40" height="40" fill="white"/>
</clipPath>
</defs>
</svg>
