<svg width="40" height="40" viewBox="0 0 40 40" fill="none" xmlns="http://www.w3.org/2000/svg">
<g clip-path="url(#clip0_1_8181)">
<g clip-path="url(#clip1_1_8181)">
<path d="M40 0H0V40H40V0Z" fill="#1868DB"/>
<path d="M35.0302 26.8103V26.7803H34.9702L35.0302 26.8103Z" fill="#FFC716"/>
<path d="M19.6902 34.5901L4.9502 26.8501V40.0001H35.0302V26.8101L19.6902 34.5901Z" fill="#FFC716"/>
<path d="M19.9999 2.54004L23.4299 9.01004L30.6399 10.27L25.5399 15.53L26.5799 22.78L19.9999 19.55L13.4199 22.78L14.4599 15.53L9.35986 10.27L16.5699 9.01004L19.9999 2.54004Z" fill="#FCA700"/>
<path d="M12.6599 30.1103C12.6899 30.3403 13.7199 30.7703 13.9099 30.6203C14.1699 30.4203 14.3699 30.1803 14.5199 29.8303C14.6399 29.4103 14.4599 29.2203 14.5999 28.9603C14.7899 28.5003 15.3999 27.8403 15.5499 27.6803C15.5699 27.6603 15.5899 27.6303 15.5899 27.6003C15.6299 27.3903 15.8399 26.4503 16.2199 25.7303C16.4399 25.2003 16.5699 24.8703 16.6399 24.7003C16.7999 24.2903 16.8199 23.9503 16.7399 23.5703C16.6999 23.3603 15.7999 22.9903 15.6299 23.1103C15.3099 23.3303 15.0799 23.5803 14.9099 23.9803C14.8399 24.1403 14.4599 24.3603 14.2299 24.8003C14.1899 24.8703 14.1799 24.9503 14.1899 25.0403C14.2599 25.8203 13.8199 26.6203 13.8199 26.6203C13.8199 26.6203 13.2999 27.8603 13.0799 28.3903C12.9199 28.7903 12.8399 28.9803 12.7899 29.1003C12.6499 29.4603 12.6199 29.7703 12.6599 30.0903V30.1103Z" fill="#101214"/>
<path d="M20.27 23.3104C20.15 23.1504 19.04 23.1504 18.92 23.3104C18.75 23.5304 18.67 23.7604 18.66 24.0604C18.71 24.4004 18.94 24.4804 18.92 24.7104C18.92 25.1004 18.61 25.7504 18.53 25.9104C18.52 25.9304 18.52 25.9604 18.53 25.9804C18.57 26.1504 18.74 26.8804 18.66 27.5104C18.66 27.9604 18.66 28.2304 18.66 28.3804C18.66 28.7204 18.78 28.9704 18.99 29.2204C19.11 29.3604 20.08 29.3604 20.19 29.2204C20.4 28.9704 20.52 28.7204 20.52 28.3804C20.52 28.2504 20.79 27.9704 20.83 27.5804C20.83 27.5204 20.82 27.4504 20.78 27.3904C20.42 26.8504 20.52 26.1404 20.52 26.1404C20.52 26.1404 20.52 25.0904 20.52 24.6504C20.52 24.3204 20.52 24.1604 20.52 24.0604C20.52 23.7604 20.42 23.5304 20.26 23.3104H20.27Z" fill="#101214"/>
<path d="M25.5401 30.56C25.7201 30.7 26.7601 30.28 26.7901 30.05C26.8301 29.72 26.8001 29.41 26.6601 29.06C26.4501 28.68 26.1901 28.67 26.1001 28.38C25.9101 27.92 25.8801 27.03 25.8701 26.81C25.8701 26.78 25.8701 26.75 25.8401 26.72C25.7201 26.54 25.2001 25.73 24.9701 24.95C24.7501 24.42 24.6101 24.1 24.5401 23.93C24.3701 23.53 24.1401 23.27 23.8201 23.06C23.6501 22.94 22.7501 23.31 22.7101 23.52C22.6401 23.9 22.6601 24.24 22.8101 24.65C22.8701 24.81 22.7601 25.24 22.9101 25.71C22.9301 25.79 22.9801 25.86 23.0501 25.91C23.6501 26.41 23.9001 27.29 23.9001 27.29C23.9001 27.29 24.4101 28.54 24.6301 29.06C24.8001 29.46 24.8801 29.64 24.9301 29.76C25.0801 30.11 25.2801 30.35 25.5401 30.55V30.56Z" fill="#101214"/>
<path d="M19.7002 34.6003L15.7802 37.7003L1.47021 29.5303L4.92021 26.8003L19.7002 34.6003Z" fill="#FCA700"/>
<path d="M19.7002 34.5901L23.6802 37.8501L38.5602 29.7001L35.0502 26.8301L19.7002 34.5901Z" fill="#FCA700"/>
<path d="M19.6902 34.5901L4.9502 26.8501V40.0001H35.0302V26.8101L19.6902 34.5901Z" fill="#FFC716"/>
<path d="M4.89014 26.8103L19.6901 34.5903L35.0301 26.8103L19.6901 19.0303L4.89014 26.8103Z" fill="white"/>
<path d="M35.0302 26.8103V26.7803H34.9702L35.0302 26.8103Z" fill="#FFC716"/>
<path d="M20.0004 2.54004L23.4304 9.01004L30.6404 10.27L25.5404 15.53L26.5804 22.78L20.0004 19.55L13.4204 22.78L14.4604 15.53L9.36035 10.27L16.5704 9.01004L20.0004 2.54004Z" fill="#FCA700"/>
<path d="M12.6604 30.1098C12.6904 30.3398 13.7204 30.7698 13.9104 30.6198C14.1704 30.4198 14.3704 30.1798 14.5204 29.8298C14.6404 29.4098 14.4604 29.2198 14.6004 28.9598C14.7904 28.4998 15.4004 27.8398 15.5504 27.6798C15.5704 27.6598 15.5904 27.6298 15.5904 27.5998C15.6304 27.3898 15.8404 26.4498 16.2204 25.7298C16.4404 25.1998 16.5704 24.8698 16.6404 24.6998C16.8004 24.2898 16.8204 23.9498 16.7404 23.5698C16.7004 23.3598 15.8004 22.9898 15.6304 23.1098C15.3104 23.3298 15.0804 23.5798 14.9104 23.9798C14.8404 24.1398 14.4604 24.3598 14.2304 24.7998C14.1904 24.8698 14.1804 24.9498 14.1904 25.0398C14.2604 25.8198 13.8204 26.6198 13.8204 26.6198C13.8204 26.6198 13.3004 27.8598 13.0804 28.3898C12.9204 28.7898 12.8404 28.9798 12.7904 29.0998C12.6504 29.4598 12.6204 29.7698 12.6604 30.0898V30.1098Z" fill="#101214"/>
<path d="M20.2704 23.3099C20.1504 23.1499 19.0404 23.1499 18.9204 23.3099C18.7504 23.5299 18.6704 23.7599 18.6604 24.0599C18.7104 24.3999 18.9404 24.4799 18.9204 24.7099C18.9204 25.0999 18.6104 25.7499 18.5304 25.9099C18.5204 25.9299 18.5204 25.9599 18.5304 25.9799C18.5704 26.1499 18.7404 26.8799 18.6604 27.5099C18.6604 27.9599 18.6604 28.2299 18.6604 28.3799C18.6604 28.7199 18.7804 28.9699 18.9904 29.2199C19.1104 29.3599 20.0804 29.3599 20.1904 29.2199C20.4004 28.9699 20.5204 28.7199 20.5204 28.3799C20.5204 28.2499 20.7904 27.9699 20.8304 27.5799C20.8304 27.5199 20.8204 27.4499 20.7804 27.3899C20.4204 26.8499 20.5204 26.1399 20.5204 26.1399C20.5204 26.1399 20.5204 25.0899 20.5204 24.6499C20.5204 24.3199 20.5204 24.1599 20.5204 24.0599C20.5204 23.7599 20.4204 23.5299 20.2604 23.3099H20.2704Z" fill="#101214"/>
<path d="M25.5401 30.56C25.7201 30.7 26.7601 30.28 26.7901 30.05C26.8301 29.72 26.8001 29.41 26.6601 29.06C26.4501 28.68 26.1901 28.67 26.1001 28.38C25.9101 27.92 25.8801 27.03 25.8701 26.81C25.8701 26.78 25.8701 26.75 25.8401 26.72C25.7201 26.54 25.2001 25.73 24.9701 24.95C24.7501 24.42 24.6101 24.1 24.5401 23.93C24.3701 23.53 24.1401 23.27 23.8201 23.06C23.6501 22.94 22.7501 23.31 22.7101 23.52C22.6401 23.9 22.6601 24.24 22.8101 24.65C22.8701 24.81 22.7601 25.24 22.9101 25.71C22.9301 25.79 22.9801 25.86 23.0501 25.91C23.6501 26.41 23.9001 27.29 23.9001 27.29C23.9001 27.29 24.4101 28.54 24.6301 29.06C24.8001 29.46 24.8801 29.64 24.9301 29.76C25.0801 30.11 25.2801 30.35 25.5401 30.55V30.56Z" fill="#101214"/>
<path d="M19.7002 34.5998L15.7802 37.6998L1.47021 29.5298L4.92021 26.7998L19.7002 34.5998Z" fill="#FCA700"/>
<path d="M19.7002 34.5901L23.6802 37.8501L38.5602 29.7001L35.0502 26.8301L19.7002 34.5901Z" fill="#FCA700"/>
<path d="M19.6298 20.3902C20.4198 19.8802 19.9198 18.8702 19.0398 19.1802C17.8098 19.6002 16.4398 20.1702 14.9398 20.9002C14.7498 21.0702 14.6198 21.1802 14.5198 21.2802C14.4598 21.2502 14.4198 21.1102 14.4698 20.8602C14.5298 20.5202 14.5898 20.1502 14.6598 19.7502C14.7498 19.2602 14.8498 18.7402 14.9498 18.2402C15.0498 17.7402 15.1598 17.2602 15.2498 16.8202C15.2998 16.5902 15.3498 16.3702 15.3898 16.1702C15.4598 15.8002 15.5198 15.4702 15.5798 15.1702C15.2898 14.8602 15.0398 14.5902 14.8298 14.3502C14.7198 14.2202 14.6198 14.1002 14.5398 14.0102C14.3798 13.8102 14.2598 13.6802 14.1898 13.5802C14.0998 13.4702 14.0098 13.3702 13.8998 13.2702C13.6898 13.0702 13.2798 12.6702 12.6498 12.0602C12.3698 11.7902 12.0398 11.4702 11.6598 11.1002C11.6198 11.0702 11.5498 11.0202 11.4798 10.9602C11.4798 10.9502 11.5398 10.9302 11.6298 10.9102C12.1398 10.8302 12.7398 10.7302 13.3298 10.6402L17.2698 9.95021L18.2898 8.03021C19.2298 6.23021 19.8398 4.84021 20.3498 3.42021C20.6298 2.64021 19.7698 2.19021 19.2898 2.86021C18.4098 4.08021 17.5998 5.37021 16.6398 7.16021C16.5498 7.32021 16.4298 7.52021 16.2798 7.75021C16.2098 7.86021 16.1298 7.98021 16.0498 8.10021C16.0198 8.12021 15.9898 8.14021 15.9698 8.15021C15.8998 8.15021 15.9498 8.11021 15.7998 8.12021C15.5698 8.14021 15.3298 8.17021 15.0698 8.19021C14.5598 8.24021 13.9898 8.31021 13.3698 8.41021C12.9998 8.47021 12.6298 8.55021 12.2698 8.66021C12.0298 8.73021 11.7798 8.80021 11.5298 8.87021C11.4498 8.90021 11.1698 8.95021 10.9398 9.01021L10.2398 9.16021C9.33984 9.34021 8.44984 9.53021 7.58984 9.71021C8.85984 11.0002 10.0498 12.1902 10.9098 13.0602C11.4498 13.6302 11.7998 13.9902 11.7998 13.9902L13.5998 15.8502L12.7398 21.8702L12.3998 24.2802L15.7098 22.6502C17.3998 21.8102 18.5398 21.1602 19.6698 20.4202L19.6298 20.3902Z" fill="#101214"/>
<path d="M23.9102 8.65039C23.3402 8.65039 23.2002 9.46039 23.7402 9.65039C24.5002 9.91039 25.3102 10.1204 26.3602 10.3104C27.5602 10.4804 27.8902 10.3604 28.7002 10.5204C28.7602 10.5304 28.8302 10.5404 28.9002 10.5604L28.9802 10.5804C28.9802 10.5804 29.0702 10.6104 29.1202 10.6204C29.2102 10.6504 29.2802 10.6804 29.3202 10.7104C29.1502 10.8304 29.0202 10.9004 28.9602 10.9104H28.9402C28.9402 10.9104 28.8702 10.9704 28.8402 11.0004C28.7702 11.0604 28.7002 11.1204 28.6402 11.1704C28.5202 11.2704 28.4202 11.3604 28.3502 11.4204C28.2902 11.4704 28.2302 11.5304 28.1702 11.6004C28.0002 11.7904 27.5902 12.2504 27.0402 12.8704C26.7602 13.1704 26.4402 13.5204 26.1102 13.8804C25.6802 14.3204 25.2302 14.8004 24.7602 15.2804C24.7902 15.4804 24.8502 15.9804 24.9102 16.4804C25.1402 18.0604 25.2802 19.0404 25.3502 19.5504C25.5302 20.7604 25.7402 21.6404 26.0202 22.5104C26.1802 22.9804 26.9002 22.8804 26.9102 22.3804C26.9402 21.4704 26.9002 20.5604 26.7302 19.3504C26.6602 18.8804 26.7302 17.8804 26.5602 16.4904C26.5402 16.2804 26.4802 16.0204 26.4302 15.8504C26.4102 15.8504 26.3902 15.8304 26.3702 15.8104C26.3702 15.8004 26.3702 15.7804 26.3702 15.7604C26.3602 15.7604 26.3902 15.7204 26.4402 15.6704L26.5502 15.5304C26.7102 15.3504 26.8602 15.1704 27.0102 14.9904C27.3202 14.6404 27.6202 14.3104 27.8902 14.0204C28.4302 13.4504 28.8202 13.0704 28.8202 13.0704L31.9302 9.86039L28.6902 9.29039C27.5102 9.09039 26.9402 8.99039 26.6002 8.93039C25.5402 8.75039 24.7102 8.67039 23.9102 8.66039V8.65039Z" fill="#101214"/>
<path d="M1.64007 29.2304C1.51007 29.2104 1.37007 29.2704 1.26007 29.3804C1.07007 29.5004 1.12007 29.6704 1.18007 29.8004C1.24007 29.9304 1.31007 30.1204 1.18007 30.2404C1.14007 30.3604 1.15007 30.4504 1.21007 30.5104C1.61007 30.8404 2.15007 31.2004 2.85007 31.5604C3.68007 31.9204 3.99007 31.8204 4.52007 32.1304C5.45007 32.6104 6.85007 33.7304 7.18007 34.0104C7.23007 34.0504 7.28007 34.0804 7.34007 34.1104C7.75007 34.2904 9.57007 35.1004 11.0101 36.0204C12.0501 36.6204 12.6901 36.9904 13.0301 37.1904C13.8101 37.6504 14.4701 37.9104 15.0901 38.0804C15.1501 38.0804 15.2801 38.0804 15.3201 37.9804C15.3601 37.9304 15.3801 37.9004 15.4701 37.8404C15.5801 37.7704 15.6401 37.7404 15.6401 37.7404C15.8801 37.6404 15.9301 37.2604 15.7901 37.1004C15.3101 36.5104 14.7801 36.0604 13.9801 35.5804C13.6701 35.3904 13.1601 34.7804 12.2601 34.2104C12.1101 34.1204 11.9501 34.0504 11.7901 34.0004C10.3301 33.5804 8.71007 32.5704 8.71007 32.5704C8.71007 32.5704 6.20007 31.2104 5.14007 30.6304C4.33007 30.2104 3.93007 30.0104 3.69007 29.8904C2.94007 29.5304 2.35007 29.3304 1.65007 29.2404L1.64007 29.2304Z" fill="#101214"/>
<path d="M23.4901 37.2404C23.4101 37.3404 23.3701 37.5004 23.4001 37.6504C23.4001 37.8904 23.5701 37.9304 23.7101 37.9404C23.8501 37.9404 24.0601 37.9904 24.0701 38.1904C24.1601 38.2804 24.2301 38.3304 24.3201 38.3004C24.8201 38.1304 25.4301 37.8704 26.1301 37.4704C26.9001 36.9604 27.0001 36.6504 27.5601 36.3604C28.4901 35.8304 30.2301 35.2504 30.6601 35.1104C30.7201 35.0904 30.7801 35.0604 30.8301 35.0304C31.2201 34.7804 32.9301 33.6704 34.5201 32.9504C35.6201 32.3904 36.2901 32.0504 36.6501 31.8704C37.4801 31.4504 38.0701 31.0304 38.5701 30.5904C38.7201 30.4704 38.5601 30.2404 38.5801 29.9404C38.6101 29.6704 38.3201 29.4404 38.1101 29.4704C37.3501 29.5604 36.6701 29.7704 35.8101 30.1904C35.4801 30.3504 34.6701 30.4604 33.6801 30.9104C33.5201 30.9804 33.3701 31.0804 33.2301 31.2004C32.0501 32.2104 30.2801 33.0404 30.2801 33.0404C30.2801 33.0404 27.7101 34.4404 26.6201 35.0204C25.8101 35.4904 25.4201 35.7104 25.1801 35.8504C24.4501 36.2904 23.9501 36.6804 23.4801 37.2404H23.4901Z" fill="#101214"/>
<path d="M19.6298 20.3902C20.4198 19.8802 19.9198 18.8702 19.0398 19.1802C17.8098 19.6002 16.4398 20.1702 14.9398 20.9002C14.7498 21.0702 14.6198 21.1802 14.5198 21.2802C14.4598 21.2502 14.4198 21.1102 14.4698 20.8602C14.5298 20.5202 14.5898 20.1502 14.6598 19.7502C14.7498 19.2602 14.8498 18.7402 14.9498 18.2402C15.0498 17.7402 15.1598 17.2602 15.2498 16.8202C15.2998 16.5902 15.3498 16.3702 15.3898 16.1702C15.4598 15.8002 15.5198 15.4702 15.5798 15.1702C15.2898 14.8602 15.0398 14.5902 14.8298 14.3502C14.7198 14.2202 14.6198 14.1002 14.5398 14.0102C14.3798 13.8102 14.2598 13.6802 14.1898 13.5802C14.0998 13.4702 14.0098 13.3702 13.8998 13.2702C13.6898 13.0702 13.2798 12.6702 12.6498 12.0602C12.3698 11.7902 12.0398 11.4702 11.6598 11.1002C11.6198 11.0702 11.5498 11.0202 11.4798 10.9602C11.4798 10.9502 11.5398 10.9302 11.6298 10.9102C12.1398 10.8302 12.7398 10.7302 13.3298 10.6402L17.2698 9.95021L18.2898 8.03021C19.2298 6.23021 19.8398 4.84021 20.3498 3.42021C20.6298 2.64021 19.7698 2.19021 19.2898 2.86021C18.4098 4.08021 17.5998 5.37021 16.6398 7.16021C16.5498 7.32021 16.4298 7.52021 16.2798 7.75021C16.2098 7.86021 16.1298 7.98021 16.0498 8.10021C16.0198 8.12021 15.9898 8.14021 15.9698 8.15021C15.8998 8.15021 15.9498 8.11021 15.7998 8.12021C15.5698 8.14021 15.3298 8.17021 15.0698 8.19021C14.5598 8.24021 13.9898 8.31021 13.3698 8.41021C12.9998 8.47021 12.6298 8.55021 12.2698 8.66021C12.0298 8.73021 11.7798 8.80021 11.5298 8.87021C11.4498 8.90021 11.1698 8.95021 10.9398 9.01021L10.2398 9.16021C9.33984 9.34021 8.44984 9.53021 7.58984 9.71021C8.85984 11.0002 10.0498 12.1902 10.9098 13.0602C11.4498 13.6302 11.7998 13.9902 11.7998 13.9902L13.5998 15.8502L12.7398 21.8702L12.3998 24.2802L15.7098 22.6502C17.3998 21.8102 18.5398 21.1602 19.6698 20.4202L19.6298 20.3902Z" fill="#101214"/>
<path d="M23.9102 8.65039C23.3402 8.65039 23.2002 9.46039 23.7402 9.65039C24.5002 9.91039 25.3102 10.1204 26.3602 10.3104C27.5602 10.4804 27.8902 10.3604 28.7002 10.5204C28.7602 10.5304 28.8302 10.5404 28.9002 10.5604L28.9802 10.5804C28.9802 10.5804 29.0702 10.6104 29.1202 10.6204C29.2102 10.6504 29.2802 10.6804 29.3202 10.7104C29.1502 10.8304 29.0202 10.9004 28.9602 10.9104H28.9402C28.9402 10.9104 28.8702 10.9704 28.8402 11.0004C28.7702 11.0604 28.7002 11.1204 28.6402 11.1704C28.5202 11.2704 28.4202 11.3604 28.3502 11.4204C28.2902 11.4704 28.2302 11.5304 28.1702 11.6004C28.0002 11.7904 27.5902 12.2504 27.0402 12.8704C26.7602 13.1704 26.4402 13.5204 26.1102 13.8804C25.6802 14.3204 25.2302 14.8004 24.7602 15.2804C24.7902 15.4804 24.8502 15.9804 24.9102 16.4804C25.1402 18.0604 25.2802 19.0404 25.3502 19.5504C25.5302 20.7604 25.7402 21.6404 26.0202 22.5104C26.1802 22.9804 26.9002 22.8804 26.9102 22.3804C26.9402 21.4704 26.9002 20.5604 26.7302 19.3504C26.6602 18.8804 26.7302 17.8804 26.5602 16.4904C26.5402 16.2804 26.4802 16.0204 26.4302 15.8504C26.4102 15.8504 26.3902 15.8304 26.3702 15.8104C26.3702 15.8004 26.3702 15.7804 26.3702 15.7604C26.3602 15.7604 26.3902 15.7204 26.4402 15.6704L26.5502 15.5304C26.7102 15.3504 26.8602 15.1704 27.0102 14.9904C27.3202 14.6404 27.6202 14.3104 27.8902 14.0204C28.4302 13.4504 28.8202 13.0704 28.8202 13.0704L31.9302 9.86039L28.6902 9.29039C27.5102 9.09039 26.9402 8.99039 26.6002 8.93039C25.5402 8.75039 24.7102 8.67039 23.9102 8.66039V8.65039Z" fill="#101214"/>
<path d="M1.64007 29.2304C1.51007 29.2104 1.37007 29.2704 1.26007 29.3804C1.07007 29.5004 1.12007 29.6704 1.18007 29.8004C1.24007 29.9304 1.31007 30.1204 1.18007 30.2404C1.14007 30.3604 1.15007 30.4504 1.21007 30.5104C1.61007 30.8404 2.15007 31.2004 2.85007 31.5604C3.68007 31.9204 3.99007 31.8204 4.52007 32.1304C5.45007 32.6104 6.85007 33.7304 7.18007 34.0104C7.23007 34.0504 7.28007 34.0804 7.34007 34.1104C7.75007 34.2904 9.57007 35.1004 11.0101 36.0204C12.0501 36.6204 12.6901 36.9904 13.0301 37.1904C13.8101 37.6504 14.4701 37.9104 15.0901 38.0804C15.1501 38.0804 15.2801 38.0804 15.3201 37.9804C15.3601 37.9304 15.3801 37.9004 15.4701 37.8404C15.5801 37.7704 15.6401 37.7404 15.6401 37.7404C15.8801 37.6404 15.9301 37.2604 15.7901 37.1004C15.3101 36.5104 14.7801 36.0604 13.9801 35.5804C13.6701 35.3904 13.1601 34.7804 12.2601 34.2104C12.1101 34.1204 11.9501 34.0504 11.7901 34.0004C10.3301 33.5804 8.71007 32.5704 8.71007 32.5704C8.71007 32.5704 6.20007 31.2104 5.14007 30.6304C4.33007 30.2104 3.93007 30.0104 3.69007 29.8904C2.94007 29.5304 2.35007 29.3304 1.65007 29.2404L1.64007 29.2304Z" fill="#101214"/>
<path d="M23.4901 37.2404C23.4101 37.3404 23.3701 37.5004 23.4001 37.6504C23.4001 37.8904 23.5701 37.9304 23.7101 37.9404C23.8501 37.9404 24.0601 37.9904 24.0701 38.1904C24.1601 38.2804 24.2301 38.3304 24.3201 38.3004C24.8201 38.1304 25.4301 37.8704 26.1301 37.4704C26.9001 36.9604 27.0001 36.6504 27.5601 36.3604C28.4901 35.8304 30.2301 35.2504 30.6601 35.1104C30.7201 35.0904 30.7801 35.0604 30.8301 35.0304C31.2201 34.7804 32.9301 33.6704 34.5201 32.9504C35.6201 32.3904 36.2901 32.0504 36.6501 31.8704C37.4801 31.4504 38.0701 31.0304 38.5701 30.5904C38.7201 30.4704 38.5601 30.2404 38.5801 29.9404C38.6101 29.6704 38.3201 29.4404 38.1101 29.4704C37.3501 29.5604 36.6701 29.7704 35.8101 30.1904C35.4801 30.3504 34.6701 30.4604 33.6801 30.9104C33.5201 30.9804 33.3701 31.0804 33.2301 31.2004C32.0501 32.2104 30.2801 33.0404 30.2801 33.0404C30.2801 33.0404 27.7101 34.4404 26.6201 35.0204C25.8101 35.4904 25.4201 35.7104 25.1801 35.8504C24.4501 36.2904 23.9501 36.6804 23.4801 37.2404H23.4901Z" fill="#101214"/>
</g>
</g>
<defs>
<clipPath id="clip0_1_8181">
<rect width="40" height="40" fill="white"/>
</clipPath>
<clipPath id="clip1_1_8181">
<rect width="40" height="40" fill="white"/>
</clipPath>
</defs>
</svg>
