<svg width="40" height="40" viewBox="0 0 40 40" fill="none" xmlns="http://www.w3.org/2000/svg">
<g clip-path="url(#clip0_1_8229)">
<g clip-path="url(#clip1_1_8229)">
<path d="M40 0H0V40H40V0Z" fill="#AE2A19"/>
<path d="M34.9801 19.3698C34.5001 16.7098 33.4201 14.4898 31.8701 12.7498L34.0701 10.5498L31.2401 7.7198L28.7201 10.2398C27.2301 9.3998 25.5301 8.8198 23.6601 8.5098C23.3301 8.4598 22.9801 8.4198 22.6301 8.3898V6.2398C22.7601 6.2598 22.9001 6.2698 23.0201 6.2898C24.3201 6.4898 25.1501 6.7698 25.1701 6.7798L26.2101 3.8898C26.1501 3.8698 25.2601 3.5498 23.8601 3.3198C22.9801 3.1698 21.9001 3.0498 20.6901 3.0498C19.4801 3.0498 18.4001 3.1698 17.5201 3.3198C16.1201 3.5598 15.2301 3.8698 15.1701 3.8898L16.2101 6.7798C16.2101 6.7798 17.0601 6.4898 18.3601 6.2898C18.4701 6.2698 18.6001 6.2598 18.7201 6.2498V8.3398C18.1801 8.3798 17.6601 8.4498 17.1401 8.5298C15.4701 8.8098 13.9401 9.3098 12.5801 10.0098L10.2901 7.7198L7.46006 10.5498L9.31006 12.3998C7.56006 14.1798 6.35006 16.5198 5.84006 19.3698C5.65006 20.3998 5.56006 21.4898 5.56006 22.6498C5.56006 23.8098 5.66006 24.8698 5.84006 25.8898C6.93006 31.9698 11.1801 35.7298 17.1501 36.7298C18.2101 36.9098 19.3201 36.9998 20.4701 36.9998C21.6201 36.9998 22.6501 36.9198 23.6601 36.7498C29.6301 35.7798 33.8801 31.9998 34.9701 25.8898C35.1501 24.8698 35.2501 23.7998 35.2501 22.6498C35.2501 21.4998 35.1501 20.3998 34.9701 19.3698H34.9801Z" fill="#FFC716"/>
<path d="M35.2602 22.65C35.2602 21.49 35.1602 20.4 34.9802 19.37C33.8802 13.25 29.6302 9.48002 23.6702 8.51002C22.7102 8.35002 21.7002 8.28002 20.6602 8.27002V23.37H35.2302C35.2302 23.13 35.2602 22.89 35.2602 22.65Z" fill="white"/>
<path d="M29.6099 22.2197C29.6099 21.5297 29.5499 20.8897 29.4399 20.2797C28.7899 16.6497 26.2699 14.4197 22.7399 13.8497C22.1399 13.7497 21.5099 13.6997 20.8499 13.6997C20.7899 13.6997 20.7299 13.6997 20.6699 13.6997V23.3597H29.5499C29.5899 22.9897 29.6099 22.6097 29.6099 22.2197Z" fill="#FCA700"/>
<path d="M21.2499 11.1098C21.1299 10.5598 20.0199 10.5598 19.8999 11.1098C19.7299 11.8898 19.6499 12.7198 19.6399 13.7798C19.6899 14.9798 19.9199 15.2798 19.8999 16.0898C19.8999 17.4698 19.5899 19.7898 19.5099 20.3398C19.4999 20.4198 19.4999 20.5098 19.5099 20.5898C19.5099 20.7198 19.5299 20.9598 19.5499 21.3498C19.5499 21.4498 19.5499 21.5598 19.5599 21.6698C19.5599 21.8398 19.5599 22.0298 19.5699 22.2298C19.5699 22.7598 19.5899 23.3798 19.5999 24.0998C20.0099 24.0798 20.8699 24.0598 21.8399 24.0498C22.3799 24.0498 23.0199 24.0498 23.6299 24.0698C25.2099 24.0698 26.1899 24.0698 26.6999 24.0698C27.9099 24.0698 28.8099 23.9498 29.6899 23.7398C30.1799 23.6198 30.1799 22.6498 29.6899 22.5398C28.8099 22.3298 27.8999 22.2098 26.6999 22.2098C26.2299 22.2098 25.2599 21.9398 23.8799 21.8998C23.6599 21.8998 23.4299 21.9098 23.2099 21.9498C22.7899 22.0298 22.3499 22.0898 21.9199 22.1298C21.7699 22.1398 21.8299 22.1498 21.7799 22.1598L21.6999 22.1798C21.6399 22.1898 21.5799 22.1998 21.5199 22.2098C21.5199 22.1498 21.5099 22.0798 21.4999 22.0198C21.4999 21.9098 21.4999 21.8098 21.4999 21.7298C21.4999 21.3998 21.5099 21.1998 21.5099 21.1998C21.5099 21.1998 21.5099 17.4798 21.5099 15.8998C21.5099 14.7198 21.5099 14.1498 21.5099 13.7998C21.5099 12.7398 21.4099 11.9198 21.2499 11.1298V11.1098Z" fill="#101214"/>
<path d="M16.2199 6.15982C15.9999 6.34982 16.3999 7.39982 16.6099 7.44982C16.9399 7.52982 17.2599 7.53982 17.6599 7.46982C18.1099 7.32982 18.1899 7.08982 18.5199 7.07982C19.0699 6.99982 19.9999 7.26982 20.2199 7.34982C20.2499 7.35982 20.2799 7.35982 20.3199 7.34982C20.5499 7.29982 21.5799 7.13982 22.4499 7.31982C23.0699 7.38982 23.4499 7.44982 23.6499 7.48982C24.1199 7.56982 24.4899 7.52982 24.8899 7.40982C25.1099 7.33982 25.3499 6.39982 25.1699 6.23982C24.8499 5.93982 24.4899 5.74982 23.9799 5.64982C23.7799 5.60982 23.3999 5.27982 22.7999 5.15982C22.6999 5.13982 22.5999 5.14982 22.4999 5.17982C21.6299 5.44982 20.5499 5.33982 20.5499 5.33982C20.5499 5.33982 20.1399 5.33982 19.6499 5.35982C19.1599 5.37982 18.5799 5.43982 18.2399 5.47982C17.7199 5.54982 17.4799 5.59982 17.3299 5.62982C16.8699 5.71982 16.5299 5.89982 16.2399 6.15982H16.2199Z" fill="#101214"/>
<path d="M19.2399 8.87983C20.8699 8.70983 20.9399 7.58983 19.1599 7.52983C17.9099 7.51983 16.6099 7.64983 15.2299 7.97983C13.8499 8.30983 12.3799 8.85983 10.8999 9.79983C9.23994 10.9098 8.43994 11.9198 7.81994 12.7898C7.21994 13.6798 6.73994 14.4598 6.18994 15.6698C5.73994 16.6898 5.31994 17.9298 5.03994 19.2598C4.76994 20.5898 4.64994 21.9898 4.64994 23.3098C4.61994 25.9598 5.25994 28.2998 5.59994 29.1698C5.67994 29.4298 5.79994 29.6898 5.91994 29.9298C6.33994 30.7898 7.65994 33.2798 10.4599 35.1798C13.2199 37.1198 17.1999 38.0598 20.7799 38.0198C23.3299 37.9898 25.3899 37.4998 26.9499 36.9498C28.5199 36.3898 29.5699 35.7198 30.2799 35.2598C31.9199 34.1098 33.1099 32.7498 33.9099 31.3598C34.7099 29.9598 35.1699 28.5498 35.4199 27.1498C35.6399 25.5798 34.6699 25.4898 34.2499 26.8498C33.3799 29.3098 32.0499 31.7198 29.2099 33.7098C28.6499 34.0798 27.7299 34.5898 26.4299 34.9898C25.1299 35.3898 23.4599 35.7198 21.4599 35.7998C20.8099 35.8198 20.1499 35.8398 19.5099 35.8498C18.1099 35.8698 16.5999 35.7098 15.1899 35.3098C13.7799 34.9198 12.4899 34.2898 11.4799 33.5798C10.4599 32.8698 9.70994 32.0998 9.24994 31.5098C8.99994 31.2298 8.83994 30.9698 8.71994 30.7998C8.59994 30.6298 8.53994 30.5398 8.53994 30.5398C8.53994 30.5398 8.43994 30.4098 8.29994 30.1398C8.13994 29.8798 7.92994 29.5098 7.70994 29.0198C7.24994 28.0498 6.79994 26.6198 6.56994 24.9898C6.35994 23.3598 6.36994 21.5198 6.62994 19.8798C6.89994 18.2398 7.39994 16.7898 7.92994 15.7898C8.69994 14.2698 9.56994 13.3398 10.2499 12.6798C10.9599 12.0398 11.4899 11.6498 11.9199 11.3798C13.1999 10.5598 14.4699 10.0298 15.6899 9.64983C16.9099 9.26983 18.0799 9.02983 19.2499 8.87983H19.2399Z" fill="#101214"/>
<path d="M12.2101 12.9298C12.0701 12.9498 11.2801 13.7398 11.2601 13.8798C11.2301 14.0798 11.2601 14.2298 11.3601 14.3498C11.5201 14.4398 11.7201 14.3098 11.7901 14.4098C11.9401 14.5598 11.9601 15.0198 11.9701 15.1398C11.9701 15.1598 11.9701 15.1698 11.9901 15.1698C12.0801 15.1998 12.4801 15.3598 12.6601 15.6598C12.8301 15.8298 12.9401 15.9298 12.9901 15.9798C13.1201 16.0998 13.3001 16.1198 13.5501 16.0598C13.6801 16.0298 14.3701 15.3398 14.4001 15.2098C14.4601 14.9698 14.4401 14.7898 14.3201 14.6498C14.2701 14.5998 14.3601 14.3098 14.2401 14.1298C14.2201 14.0998 14.1801 14.0898 14.1301 14.0998C13.6701 14.1498 13.4701 13.8098 13.4701 13.8098C13.4701 13.8098 13.0801 13.4098 12.9101 13.2398C12.7801 13.1198 12.7201 13.0598 12.6801 13.0198C12.5601 12.9098 12.4101 12.8898 12.2101 12.9198V12.9298Z" fill="#101214"/>
<path d="M7.77973 21.8198C7.69973 21.9398 7.69973 23.0498 7.77973 23.1698C7.89973 23.3398 8.01973 23.4198 8.17973 23.4298C8.35973 23.3798 8.40973 23.1498 8.52973 23.1698C8.73973 23.1698 9.08973 23.4798 9.16973 23.5598C9.17973 23.5698 9.18973 23.5698 9.20973 23.5598C9.29973 23.5198 9.68973 23.3498 10.0297 23.4298C10.2697 23.4298 10.4097 23.4298 10.4897 23.4298C10.6697 23.4298 10.8097 23.3098 10.9397 23.0998C11.0097 22.9798 11.0097 22.0098 10.9397 21.8998C10.8097 21.6898 10.6697 21.5698 10.4897 21.5698C10.4197 21.5698 10.2697 21.2998 10.0597 21.2598C10.0297 21.2598 9.98973 21.2698 9.95973 21.3098C9.66973 21.6698 9.28973 21.5698 9.28973 21.5698C9.28973 21.5698 8.72973 21.5698 8.48973 21.5698C8.30973 21.5698 8.22973 21.5698 8.16973 21.5698C8.00973 21.5698 7.88973 21.6698 7.76973 21.8298L7.77973 21.8198Z" fill="#101214"/>
<path d="M10.9398 31.2396C10.9598 31.3796 11.7498 32.1696 11.8898 32.1896C12.0898 32.2196 12.2398 32.1896 12.3598 32.0896C12.4498 31.9296 12.3198 31.7296 12.4198 31.6596C12.5698 31.5096 13.0298 31.4896 13.1498 31.4796C13.1698 31.4796 13.1798 31.4796 13.1798 31.4596C13.2098 31.3696 13.3698 30.9696 13.6598 30.7896C13.8298 30.6196 13.9298 30.5096 13.9798 30.4596C14.0998 30.3296 14.1198 30.1496 14.0598 29.9096C14.0298 29.7796 13.3398 29.0896 13.2098 29.0596C12.9698 28.9996 12.7898 29.0196 12.6498 29.1396C12.5998 29.1896 12.3098 29.0996 12.1298 29.2196C12.0998 29.2396 12.0898 29.2796 12.0998 29.3296C12.1498 29.7896 11.8098 29.9896 11.8098 29.9896C11.8098 29.9896 11.4098 30.3796 11.2398 30.5496C11.1198 30.6796 11.0598 30.7396 11.0198 30.7796C10.9098 30.8996 10.8898 31.0496 10.9198 31.2496L10.9398 31.2396Z" fill="#101214"/>
<path d="M19.83 35.36C19.95 35.44 21.06 35.44 21.18 35.36C21.35 35.24 21.43 35.12 21.44 34.96C21.39 34.78 21.16 34.73 21.18 34.61C21.18 34.4 21.49 34.05 21.57 33.97C21.58 33.96 21.58 33.95 21.57 33.93C21.53 33.84 21.36 33.45 21.44 33.11C21.44 32.87 21.44 32.72 21.44 32.65C21.44 32.47 21.32 32.33 21.11 32.2C20.99 32.13 20.02 32.13 19.91 32.2C19.7 32.33 19.58 32.47 19.58 32.65C19.58 32.72 19.31 32.87 19.27 33.08C19.27 33.11 19.28 33.15 19.32 33.18C19.68 33.47 19.58 33.85 19.58 33.85C19.58 33.85 19.58 34.41 19.58 34.65C19.58 34.83 19.58 34.91 19.58 34.97C19.58 35.13 19.68 35.25 19.84 35.37L19.83 35.36Z" fill="#101214"/>
<path d="M29.2499 32.52C29.3899 32.5 30.1799 31.71 30.1999 31.57C30.2299 31.37 30.1999 31.22 30.0999 31.1C29.9299 31.01 29.7399 31.14 29.6699 31.04C29.5199 30.89 29.4999 30.43 29.4899 30.31C29.4899 30.29 29.4899 30.28 29.4699 30.28C29.3799 30.25 28.9799 30.09 28.7999 29.8C28.6299 29.63 28.5199 29.53 28.4699 29.48C28.3399 29.36 28.1599 29.34 27.9199 29.4C27.7899 29.43 27.0999 30.12 27.0699 30.25C27.0099 30.49 27.0299 30.67 27.1499 30.8C27.1999 30.85 27.1099 31.14 27.2299 31.32C27.2499 31.35 27.2899 31.36 27.3399 31.35C27.7999 31.3 27.9999 31.64 27.9999 31.64C27.9999 31.64 28.3899 32.04 28.5599 32.21C28.6899 32.33 28.7499 32.39 28.7899 32.43C28.9099 32.54 29.0599 32.5599 29.2599 32.5299L29.2499 32.52Z" fill="#101214"/>
<path d="M30.52 14.2096C30.5 14.0696 29.71 13.2796 29.57 13.2596C29.37 13.2296 29.22 13.2596 29.1 13.3596C29.01 13.5196 29.14 13.7196 29.04 13.7896C28.89 13.9396 28.43 13.9596 28.31 13.9696C28.29 13.9696 28.28 13.9696 28.28 13.9896C28.25 14.0796 28.09 14.4796 27.8 14.6596C27.63 14.8296 27.53 14.9396 27.48 14.9896C27.36 15.1196 27.34 15.2996 27.4 15.5396C27.43 15.6696 28.12 16.3596 28.25 16.3896C28.49 16.4496 28.67 16.4296 28.8 16.3096C28.85 16.2596 29.14 16.3496 29.32 16.2296C29.35 16.2096 29.36 16.1696 29.35 16.1196C29.3 15.6596 29.64 15.4596 29.64 15.4596C29.64 15.4596 30.04 15.0696 30.21 14.8996C30.33 14.7696 30.39 14.7096 30.43 14.6696C30.54 14.5496 30.56 14.3996 30.53 14.1996L30.52 14.2096Z" fill="#101214"/>
</g>
</g>
<defs>
<clipPath id="clip0_1_8229">
<rect width="40" height="40" fill="white"/>
</clipPath>
<clipPath id="clip1_1_8229">
<rect width="40" height="40" fill="white"/>
</clipPath>
</defs>
</svg>
