<svg width="40" height="40" viewBox="0 0 40 40" fill="none" xmlns="http://www.w3.org/2000/svg">
<g clip-path="url(#clip0_1_8064)">
<g clip-path="url(#clip1_1_8064)">
<path d="M40 0H0V40H40V0Z" fill="#164B35"/>
<mask id="mask0_1_8064" style="mask-type:luminance" maskUnits="userSpaceOnUse" x="4" y="10" width="34" height="24">
<path d="M37.0098 10.8198H4.52979V33.0098H37.0098V10.8198Z" fill="white"/>
</mask>
<g mask="url(#mask0_1_8064)">
<path d="M37.0098 10.8198H4.52979V33.0098H37.0098V10.8198Z" fill="white"/>
</g>
<path d="M32.1599 21.02H22.1499V28.27H32.1599V21.02Z" fill="#FFC716"/>
<path d="M17.3899 21.0801H9.62988V33.0101H17.3899V21.0801Z" fill="#BF63F3"/>
<path d="M4.52979 17.6601C5.29979 18.0501 6.17979 18.2701 7.16979 18.2701C9.21978 18.2701 10.7798 17.5001 11.9198 15.5401C12.9598 17.3201 14.6298 18.2701 16.7498 18.2701C18.8698 18.2701 20.3698 17.5001 21.5098 15.5301C22.5498 17.3201 24.2198 18.2701 26.3498 18.2701C28.4798 18.2701 29.9698 17.5001 31.1098 15.5301C32.1498 17.3201 33.8198 18.2701 35.9498 18.2701C36.3298 18.2701 36.6798 18.2401 37.0298 18.1801V10.8101H4.52979V17.6601Z" fill="#BF63F3"/>
<path d="M5.14984 10.2299C4.31984 10.3499 4.31984 11.4599 5.14984 11.5799C6.31984 11.7499 7.54984 11.8299 9.12984 11.8399C10.9198 11.7899 11.3698 11.5599 12.5798 11.5799C14.6298 11.5799 18.0998 11.8899 18.9298 11.9699C19.0498 11.9799 19.1798 11.9799 19.2998 11.9699C20.1798 11.9299 24.0598 11.7599 27.3998 11.8399C29.7598 11.8399 31.2198 11.8399 31.9798 11.8399C33.7798 11.8399 35.1298 11.7199 36.4498 11.5099C37.1798 11.3899 37.1798 10.4199 36.4498 10.3099C35.1298 10.0999 33.7798 9.97992 31.9798 9.97992C31.2798 9.97992 29.8198 9.70992 27.7698 9.66992C27.4298 9.66992 27.0998 9.67992 26.7698 9.71992C23.8998 10.0799 20.1798 9.97992 20.1798 9.97992C20.1798 9.97992 14.6198 9.97992 12.2798 9.97992C10.5098 9.97992 9.65984 9.97992 9.13984 9.97992C7.55984 9.97992 6.32984 10.0799 5.15984 10.2399L5.14984 10.2299Z" fill="#101214"/>
<path d="M17.0099 21.6698C17.5099 21.5498 17.5099 20.4398 17.0099 20.3198C16.2999 20.1498 15.5499 20.0698 14.5899 20.0598C13.4999 20.1098 13.2299 20.3398 12.4999 20.3198C12.0599 20.3198 11.5199 20.2798 10.9999 20.2298C10.0899 20.1598 9.2099 20.0998 8.5899 20.0498C8.5299 21.0498 8.4899 21.5998 8.4699 21.8798C8.4599 22.0098 8.4599 22.2098 8.4699 22.2898C8.5099 22.8298 8.6799 25.1798 8.5999 27.1998C8.5999 28.6298 8.5999 29.5098 8.5999 29.9798C8.5999 31.0698 8.7199 31.8898 8.9299 32.6898C9.0499 33.1298 10.0199 33.1298 10.1299 32.6898C10.3399 31.8898 10.4599 31.0698 10.4599 29.9798C10.4599 29.5598 10.7299 28.6698 10.7699 27.4198C10.7699 27.2198 10.7599 27.0098 10.7199 26.8098C10.3599 25.0698 10.4599 22.8098 10.4599 22.8098V21.9298H12.6699C13.7399 21.9298 14.2599 21.9298 14.5699 21.9298C15.5299 21.9298 16.2799 21.8298 16.9899 21.6698H17.0099Z" fill="#101214"/>
<path d="M31.4999 21.5997C32.3799 21.4797 32.3799 20.3697 31.4999 20.2497C30.2499 20.0797 28.9499 19.9997 27.2699 19.9897C25.3599 20.0397 24.8899 20.2697 23.5999 20.2497C22.9699 20.2497 22.2499 20.2297 21.3599 20.2197C21.3499 20.6397 21.3399 21.0697 21.3199 21.5197L21.2999 22.1997L21.2799 22.5997C21.2399 23.1397 21.2099 23.6697 21.1799 24.1597C21.0999 25.1397 21.0299 25.9697 21.0099 26.3297C20.9999 26.4597 20.9999 26.5897 21.0099 26.7197C21.0099 26.8097 21.0099 26.9297 21.0199 27.1797C21.0199 27.6297 21.0199 28.3097 21.0399 29.3997C21.6399 29.3797 23.1099 29.3497 24.9299 29.2997C26.2199 29.2697 27.7799 29.2697 29.2299 29.2997H33.1999V26.3497C33.1999 24.4397 33.0799 23.0097 32.8699 21.5997C32.7499 20.8297 31.7799 20.8297 31.6699 21.5997C31.4599 22.9997 31.3399 24.4297 31.3399 26.3497C31.3399 26.5397 31.3199 26.8297 31.2899 27.1097C31.2599 27.1797 31.2199 27.2397 31.1799 27.2597C31.0999 27.2297 31.0399 27.1897 31.0199 27.1597C30.5999 27.1297 30.1199 27.1097 29.6199 27.0997C29.2599 27.0997 28.9099 27.1097 28.5499 27.1497C27.3799 27.2897 26.0799 27.3597 24.9199 27.3897C24.3399 27.3997 23.7999 27.4097 23.3299 27.4197C23.1999 27.4197 23.0799 27.4197 22.9999 27.4197C22.9999 27.2997 22.9999 27.2397 22.9999 27.2397V21.8597H23.9299C25.8099 21.8597 26.7099 21.8597 27.2699 21.8597C28.9499 21.8597 30.2599 21.7597 31.4999 21.5997Z" fill="#101214"/>
</g>
</g>
<defs>
<clipPath id="clip0_1_8064">
<rect width="40" height="40" fill="white"/>
</clipPath>
<clipPath id="clip1_1_8064">
<rect width="40" height="40" fill="white"/>
</clipPath>
</defs>
</svg>
