<svg width="40" height="40" viewBox="0 0 40 40" fill="none" xmlns="http://www.w3.org/2000/svg">
<g clip-path="url(#clip0_1_8170)">
<g clip-path="url(#clip1_1_8170)">
<path d="M40 0H0V40H40V0Z" fill="#BF63F3"/>
<path d="M14.9001 14.3399L16.8301 13.2599V11.1599C16.8301 7.21994 18.7301 6.68994 20.5801 6.68994C21.9301 6.68994 22.9201 7.00994 23.5201 7.62994C24.1901 8.31994 24.4901 9.48994 24.4401 11.1099V12.9799L25.5801 12.3399L27.4401 13.3799V11.1799C27.5201 8.72994 26.9301 6.82994 25.6801 5.53994C24.4901 4.30994 22.7801 3.68994 20.5801 3.68994C16.2901 3.68994 13.8301 6.40994 13.8301 11.1599V13.7399L14.9001 14.3399Z" fill="white"/>
<path d="M32.7098 12.3301L29.1498 14.3301L25.5798 12.3301L22.0198 14.3301L18.4598 12.3301L14.8998 14.3301L11.3398 12.3301V36.3101H32.7098V12.3301Z" fill="#FFC716"/>
<path d="M26.1999 29.1901C25.8599 29.8601 26.6799 30.6401 27.3299 29.9301C28.1699 28.9201 28.8399 27.5401 28.8599 25.6801C28.8199 24.6301 28.5999 24.0101 28.3899 23.4901C28.1799 22.9701 27.9499 22.5601 27.6499 21.9401C27.0999 20.9201 26.1099 19.6701 24.9299 18.8801C23.7599 18.0601 22.5199 17.7101 22.0399 17.6001C21.8999 17.5701 21.7499 17.5501 21.6099 17.5401C21.0999 17.5201 19.6399 17.4601 17.9999 18.1301C16.3599 18.7501 14.6599 20.1601 13.7399 21.8901C13.0799 23.1001 12.8899 24.2301 12.8099 25.1001C12.7599 25.9801 12.8399 26.6301 12.9199 27.0601C13.3099 29.1301 14.3799 30.4701 15.5899 31.3101C16.2899 31.7701 16.8299 30.9501 16.4099 30.4301C15.6599 29.4301 15.0599 28.3301 14.7699 26.7401C14.6699 26.1301 14.7699 24.7601 15.5399 23.2001C15.6599 22.9401 15.7999 22.6901 15.9099 22.4301C16.4299 21.2901 17.5999 20.2701 18.6999 19.8901C19.2399 19.6701 19.7299 19.6001 20.0799 19.5501C20.4299 19.5301 20.6399 19.5201 20.6399 19.5201C20.6399 19.5201 20.9499 19.5201 21.4499 19.5501C21.9499 19.5901 22.6199 19.7401 23.3099 20.0401C24.7199 20.6201 25.9599 22.0001 26.3599 22.9701C27.0299 24.4101 26.9499 25.2301 26.9899 25.6801C26.9899 27.1001 26.6499 28.1801 26.2099 29.1901H26.1999Z" fill="#101214"/>
<path d="M24.7002 25.3502C24.5002 25.1002 23.4402 25.4502 23.4202 25.7702C23.4002 26.2202 23.4502 26.6702 23.6202 27.2202C23.8702 27.8202 24.1402 27.9002 24.2602 28.3202C24.3802 28.6702 24.4602 29.1702 24.5202 29.6202C24.5302 29.7302 24.5502 29.8402 24.5602 29.9402C24.5602 29.9902 24.5602 30.0402 24.5702 30.0902C24.5902 30.1702 24.6002 30.2502 24.6202 30.3302C24.6902 30.6702 24.7402 30.9402 24.7702 31.0902C24.7902 31.1802 24.8102 31.2702 24.8502 31.3502C24.8902 31.4502 24.9602 31.6202 25.2002 32.3102C25.4902 32.1802 26.1602 31.9202 26.9402 31.6402C27.2102 31.5502 27.5002 31.4402 27.8002 31.3402C28.0402 31.2602 28.2802 31.1902 28.5202 31.1302C29.3302 30.8602 29.8302 30.7002 30.0902 30.6102C30.7102 30.4002 31.1302 30.1402 31.5202 29.7902C31.7302 29.6002 31.4302 28.6802 31.1402 28.6502C30.6202 28.6002 30.1202 28.6502 29.5002 28.8302C29.2602 28.9102 28.6802 28.8202 27.9602 29.0102C27.8402 29.0402 27.7302 29.1002 27.6302 29.1702C27.4602 29.3002 27.2802 29.4102 27.0902 29.5102C26.9002 29.6102 26.6702 29.7202 26.6902 29.7302C26.6002 29.8002 26.4902 29.8302 26.4402 29.8402C26.4402 29.8002 26.4302 29.7702 26.4302 29.7702C26.4302 29.7702 25.9602 28.3202 25.7602 27.7102C25.5602 27.1002 25.4602 26.8102 25.4002 26.6302C25.2102 26.0902 24.9902 25.7002 24.7002 25.3502Z" fill="#101214"/>
<path d="M11.33 12.3301H7.29004V36.3101H11.33V12.3301Z" fill="#FCA700"/>
</g>
</g>
<defs>
<clipPath id="clip0_1_8170">
<rect width="40" height="40" fill="white"/>
</clipPath>
<clipPath id="clip1_1_8170">
<rect width="40" height="40" fill="white"/>
</clipPath>
</defs>
</svg>
