<svg width="40" height="40" viewBox="0 0 40 40" fill="none" xmlns="http://www.w3.org/2000/svg">
<g clip-path="url(#clip0_1_7689)">
<g clip-path="url(#clip1_1_7689)">
<path d="M40 0H0V40H40V0Z" fill="#1868DB"/>
<path d="M39.9503 7.56006L21.5503 19.9301L39.9503 30.9101V7.56006Z" fill="#8FB8F6"/>
<path d="M19.2599 22.5898L8.87988 39.9998H30.9699L19.2599 22.5898Z" fill="#8FB8F6"/>
<path d="M8.29004 -0.0400391L20.66 18.36L31.64 -0.0400391H8.29004Z" fill="#8FB8F6"/>
<path d="M-0.0898438 30.9101L18.3102 18.5301L-0.0898438 7.56006V30.9101Z" fill="#8FB8F6"/>
<path d="M37.0202 23.5402C37.2302 22.3802 37.3302 21.1502 37.3302 19.8502C37.3302 18.5502 37.2202 17.2802 37.0102 16.1102C35.7602 9.13018 30.9102 4.83018 24.1002 3.72018C22.9402 3.53018 21.7202 3.43018 20.4602 3.43018C19.2002 3.43018 17.8702 3.53018 16.6702 3.74018C9.8602 4.88018 5.0202 9.17018 3.7702 16.1102C3.5602 17.2802 3.4502 18.5302 3.4502 19.8502C3.4502 21.1702 3.5602 22.3802 3.7702 23.5402C5.0202 30.4702 9.8602 34.7702 16.6802 35.9102C17.8902 36.1102 19.1502 36.2202 20.4702 36.2202C21.7902 36.2202 22.9502 36.1202 24.1102 35.9302C30.9202 34.8202 35.7802 30.5102 37.0202 23.5402Z" fill="white"/>
<path d="M34.8699 23.06C35.0499 22.05 35.1399 20.98 35.1399 19.84C35.1399 18.7 35.0399 17.6 34.8599 16.58C33.7699 10.5 29.5499 6.76004 23.6299 5.79004C22.6199 5.63004 21.5599 5.54004 20.4599 5.54004C19.3599 5.54004 18.2099 5.63004 17.1599 5.81004C11.2399 6.80004 7.0199 10.54 5.9299 16.58C5.7499 17.6 5.6499 18.69 5.6499 19.84C5.6499 20.99 5.7399 22.05 5.9299 23.06C7.0199 29.1 11.2299 32.84 17.1699 33.83C18.2199 34.01 19.3199 34.1 20.4699 34.1C21.6199 34.1 22.6299 34.02 23.6399 33.85C29.5699 32.89 33.7999 29.13 34.8799 23.06H34.8699Z" fill="#FCA700"/>
<path d="M15.5502 23.5999C15.3302 23.3599 14.2402 23.6299 14.3002 24.1199C14.4002 24.7799 14.7402 25.4999 15.4402 26.0799C16.2902 26.6699 16.6202 26.5299 17.1902 26.8199C18.1602 27.2599 19.8602 27.7899 20.2902 27.8699C20.3502 27.8899 20.4102 27.8899 20.4802 27.8899C20.9402 27.8599 22.8402 27.7899 24.5802 27.3399C25.7902 26.9499 26.4702 26.4299 26.8002 26.1699C27.5702 25.5199 27.9202 24.8099 28.0702 24.1299C28.1602 23.7399 27.2802 23.3299 27.0302 23.5299C26.6002 23.8999 26.1802 24.2499 25.6202 24.7199C25.4002 24.8899 24.8202 25.0099 24.0702 25.2099C23.9502 25.2499 23.8302 25.2999 23.7102 25.3699C23.2102 25.6999 22.5002 25.8499 21.9402 25.8899C21.3802 25.9399 20.9702 25.8899 20.9702 25.8899C20.9702 25.8899 20.3602 25.8899 19.6402 25.7899C18.9202 25.6999 18.1302 25.4599 17.7002 25.2699C17.0502 24.9799 16.8102 24.7699 16.6602 24.6499C16.2002 24.2799 15.9002 23.9599 15.5602 23.5999H15.5502Z" fill="#101214"/>
<path d="M14.3298 19.3199C14.4398 19.3899 15.5398 19.6299 15.6698 19.4699C15.8598 19.2799 15.9498 18.9599 15.8698 18.5899C15.6898 18.1799 15.4298 18.2199 15.3198 17.9999C15.1998 17.8199 15.0298 17.5699 14.8298 17.3599C14.6298 17.1499 14.3898 16.9899 14.2898 16.9399C14.2598 16.9299 14.2298 16.9199 14.1998 16.9199C13.9398 16.9199 13.0398 16.9699 12.2998 17.5699C11.8398 18.0299 11.7698 18.3999 11.7198 18.5599C11.6298 18.9599 11.7498 19.2499 11.9898 19.4799C12.1198 19.6099 13.0698 19.4099 13.1898 19.3399C13.3898 19.2099 13.5098 19.1299 13.5298 19.0499C13.5298 19.0299 13.6098 19.0299 13.6798 19.0499C13.8098 19.1099 13.6398 19.0199 13.6598 19.0199L13.6798 19.0499C13.6798 19.0499 13.6598 18.9999 13.6598 18.9799C13.6598 18.9399 13.6798 18.8999 13.7098 18.8999C13.7698 18.8799 13.7998 18.8999 13.7998 18.8999C13.7998 18.8899 13.9998 18.9399 14.0298 19.0299C14.0698 19.0799 14.0698 19.1099 14.0798 19.1299C14.0998 19.1799 14.1898 19.2199 14.3398 19.3399L14.3298 19.3199Z" fill="#101214"/>
<path d="M28.47 19.3199C28.58 19.3899 29.68 19.6299 29.81 19.4699C30 19.2799 30.09 18.9599 30.01 18.5899C29.83 18.1799 29.57 18.2199 29.46 17.9999C29.34 17.8199 29.17 17.5699 28.97 17.3599C28.77 17.1499 28.53 16.9899 28.43 16.9399C28.4 16.9299 28.37 16.9199 28.34 16.9199C28.08 16.9199 27.18 16.9699 26.44 17.5699C25.98 18.0299 25.91 18.3999 25.86 18.5599C25.77 18.9599 25.89 19.2499 26.13 19.4799C26.26 19.6099 27.21 19.4099 27.33 19.3399C27.53 19.2099 27.65 19.1299 27.67 19.0499C27.67 19.0299 27.75 19.0299 27.82 19.0499C27.95 19.1099 27.78 19.0199 27.8 19.0199L27.82 19.0499C27.82 19.0499 27.8 18.9999 27.8 18.9799C27.8 18.9399 27.82 18.8999 27.85 18.8999C27.91 18.8799 27.94 18.8999 27.94 18.8999C27.94 18.8899 28.14 18.9399 28.17 19.0299C28.21 19.0799 28.21 19.1099 28.22 19.1299C28.24 19.1799 28.33 19.2199 28.48 19.3399L28.47 19.3199Z" fill="#101214"/>
<path d="M19.45 5.8002C19.57 5.9502 20.69 5.9302 20.8 5.7702C20.96 5.5402 21.04 5.3102 21.04 5.0102C20.98 4.6702 20.75 4.5902 20.77 4.3602C20.76 3.9702 21.05 3.3102 21.13 3.1402C21.14 3.1202 21.14 3.0902 21.13 3.0702C21.08 2.9002 20.9 2.1702 20.96 1.5302C20.95 1.0802 20.94 0.8102 20.93 0.6602C20.91 0.3202 20.79 0.0702002 20.58 -0.1798C20.46 -0.3198 19.49 -0.2898 19.38 -0.1498C19.17 0.1102 19.07 0.3602 19.07 0.7102C19.07 0.8402 18.81 1.1302 18.77 1.5202C18.77 1.5802 18.78 1.6502 18.83 1.7102C19.21 2.2502 19.12 2.9602 19.12 2.9602C19.12 2.9602 19.14 4.0202 19.15 4.4602C19.16 4.8002 19.17 4.9602 19.17 5.0602C19.18 5.3602 19.28 5.5902 19.45 5.8102V5.8002Z" fill="#101214"/>
<path d="M12.2301 7.66008C12.4501 7.80008 13.4101 7.23008 13.3901 6.97008C13.3701 6.61008 13.2701 6.27008 13.0601 5.89008C12.7601 5.49008 12.5001 5.50008 12.3501 5.20008C12.0601 4.71008 11.8401 3.73008 11.7901 3.50008C11.7901 3.46008 11.7701 3.43008 11.7501 3.41008C11.5901 3.22008 10.9001 2.39008 10.5001 1.56008C10.1701 1.00008 9.96014 0.660082 9.85014 0.480082C9.59014 0.0600816 9.30014 -0.199918 8.93014 -0.409918C8.73014 -0.519918 7.89014 -0.0299184 7.89014 0.200082C7.89014 0.620082 7.98014 1.00008 8.23014 1.43008C8.33014 1.60008 8.30014 2.08008 8.55014 2.59008C8.59014 2.67008 8.65014 2.74008 8.74014 2.80008C9.46014 3.30008 9.89014 4.23008 9.89014 4.23008C9.89014 4.23008 10.6701 5.55008 11.0001 6.11008C11.2501 6.53008 11.3701 6.73008 11.4501 6.85008C11.6801 7.22008 11.9301 7.47008 12.2301 7.66008Z" fill="#101214"/>
<path d="M6.83006 13.7503C7.08006 13.7803 7.69006 12.8403 7.56006 12.6203C7.38006 12.3103 7.14006 12.0503 6.78006 11.8003C6.34006 11.5703 6.11006 11.7003 5.84006 11.5003C5.36006 11.1903 4.73006 10.4103 4.58006 10.2203C4.56006 10.1903 4.53006 10.1703 4.50006 10.1603C4.27006 10.0603 3.28006 9.62033 2.55006 9.06033C2.00006 8.71033 1.66006 8.49033 1.48006 8.38033C1.06006 8.12033 0.680056 8.01033 0.260056 7.99033C0.030056 7.98033 -0.499944 8.79033 -0.389944 9.00033C-0.199944 9.38033 0.050056 9.67033 0.470056 9.95033C0.630056 10.0603 0.830056 10.5003 1.28006 10.8503C1.35006 10.9103 1.44006 10.9403 1.54006 10.9603C2.40006 11.0803 3.21006 11.7303 3.21006 11.7303C3.21006 11.7303 4.50006 12.5703 5.04006 12.9203C5.45006 13.1803 5.65006 13.3103 5.77006 13.3903C6.14006 13.6203 6.48006 13.7303 6.84006 13.7703L6.83006 13.7503Z" fill="#101214"/>
<path d="M5.78981 20.9901C5.93981 20.8801 5.95981 19.7601 5.80981 19.6401C5.59981 19.4701 5.37981 19.3801 5.08981 19.3701C4.76981 19.4201 4.67981 19.6501 4.45981 19.6201C4.08981 19.6201 3.46981 19.3001 3.31981 19.2101C3.29981 19.2001 3.27981 19.2001 3.24981 19.2101C3.08981 19.2501 2.38981 19.4101 1.77981 19.3201C1.34981 19.3201 1.08981 19.3201 0.949813 19.3201C0.619813 19.3201 0.379813 19.4301 0.139813 19.6401C0.00981295 19.7501 -0.0101871 20.7201 0.119813 20.8401C0.359813 21.0601 0.599813 21.1701 0.919813 21.1901C1.04981 21.1901 1.30981 21.4601 1.67981 21.5201C1.73981 21.5201 1.79981 21.5201 1.85981 21.4701C2.37981 21.1201 3.05981 21.2301 3.05981 21.2301C3.05981 21.2301 4.05981 21.2501 4.48981 21.2601C4.80981 21.2601 4.95981 21.2601 5.05981 21.2601C5.34981 21.2601 5.56981 21.1701 5.77981 21.0101L5.78981 20.9901Z" fill="#101214"/>
<path d="M8.19009 28.2201C8.34009 28.0001 7.79009 27.0301 7.53009 27.0401C7.15009 27.0601 6.80009 27.1601 6.39009 27.3801C5.96009 27.6801 5.96009 27.9501 5.64009 28.1001C5.12009 28.3901 4.09009 28.6201 3.84009 28.6701C3.80009 28.6701 3.77009 28.6901 3.74009 28.7201C3.54009 28.8801 2.64009 29.5801 1.75009 29.9901C1.15009 30.3301 0.780087 30.5401 0.590087 30.6501C0.140087 30.9101 -0.149913 31.2101 -0.379913 31.5801C-0.509913 31.7901 -0.0299132 32.6301 0.210087 32.6301C0.650087 32.6301 1.05009 32.5301 1.51009 32.2801C1.69009 32.1801 2.19009 32.2101 2.73009 31.9501C2.82009 31.9101 2.90009 31.8401 2.96009 31.7601C3.51009 31.0301 4.51009 30.5901 4.51009 30.5901C4.51009 30.5901 5.92009 29.8001 6.52009 29.4601C6.97009 29.2001 7.18009 29.0801 7.31009 29.0101C7.71009 28.7801 7.98009 28.5201 8.19009 28.2101V28.2201Z" fill="#101214"/>
<path d="M12.72 32.8103C12.72 32.5503 11.75 32.0203 11.53 32.1703C11.23 32.3803 10.99 32.6303 10.77 33.0103C10.58 33.4703 10.72 33.6903 10.54 33.9703C10.27 34.4703 9.54004 35.1603 9.36004 35.3303C9.33004 35.3503 9.31004 35.3803 9.30004 35.4203C9.22004 35.6503 8.86004 36.6803 8.35004 37.4503C8.04004 38.0203 7.85004 38.3803 7.75004 38.5703C7.52004 39.0103 7.44004 39.3903 7.45004 39.8103C7.45004 40.0403 8.31004 40.5003 8.51004 40.3803C8.87004 40.1603 9.15004 39.8903 9.39004 39.4503C9.48004 39.2803 9.91004 39.0503 10.22 38.5803C10.27 38.5003 10.3 38.4103 10.31 38.3103C10.37 37.4403 10.95 36.5803 10.95 36.5803C10.95 36.5803 11.69 35.2303 12 34.6603C12.23 34.2303 12.34 34.0203 12.41 33.8903C12.61 33.5003 12.7 33.1603 12.71 32.8003L12.72 32.8103Z" fill="#101214"/>
<path d="M20.47 33.82C20.36 33.67 19.24 33.64 19.12 33.79C18.95 34 18.85 34.22 18.84 34.5C18.88 34.82 19.11 34.91 19.08 35.13C19.08 35.5 18.75 36.12 18.66 36.26C18.65 36.28 18.64 36.3 18.66 36.33C18.7 36.49 18.85 37.19 18.75 37.79C18.75 38.22 18.74 38.48 18.74 38.62C18.74 38.94 18.85 39.19 19.05 39.43C19.16 39.56 20.13 39.59 20.25 39.46C20.47 39.23 20.59 38.99 20.6 38.66C20.6 38.53 20.88 38.28 20.93 37.91C20.93 37.85 20.93 37.79 20.88 37.73C20.53 37.2 20.65 36.54 20.65 36.54C20.65 36.54 20.68 35.54 20.69 35.12C20.69 34.8 20.69 34.65 20.69 34.55C20.69 34.26 20.61 34.04 20.45 33.83L20.47 33.82Z" fill="#101214"/>
<path d="M27.7001 31.9403C27.4901 31.8003 26.5101 32.3403 26.5201 32.5903C26.5201 32.9503 26.6101 33.2903 26.8101 33.6703C27.0901 34.0703 27.3501 34.0703 27.4901 34.3703C27.7601 34.8603 27.9401 35.8303 27.9801 36.0703C27.9801 36.1003 28.0001 36.1403 28.0201 36.1603C28.1701 36.3503 28.8301 37.1903 29.2001 38.0303C29.5101 38.5903 29.7101 38.9403 29.8101 39.1203C30.0501 39.5503 30.3301 39.8103 30.6901 40.0203C30.8901 40.1403 31.7401 39.6703 31.7401 39.4403C31.7501 39.0203 31.6801 38.6503 31.4501 38.2103C31.3601 38.0403 31.4001 37.5703 31.1701 37.0503C31.1301 36.9703 31.0701 36.9003 30.9901 36.8403C30.3001 36.3303 29.9001 35.3903 29.9001 35.3903C29.9001 35.3903 29.1701 34.0603 28.8701 33.5003C28.6401 33.0803 28.5201 32.8803 28.4501 32.7503C28.2401 32.3803 28.0001 32.1303 27.7001 31.9303V31.9403Z" fill="#101214"/>
<path d="M33.9703 26.2002C33.7503 26.2002 33.1703 27.1502 33.2703 27.3502C33.4103 27.6302 33.6003 27.8502 33.9103 28.0502C34.2903 28.2202 34.4903 28.0702 34.7203 28.2402C35.1203 28.4802 35.6303 29.1602 35.7503 29.3202C35.7703 29.3402 35.7903 29.3602 35.8203 29.3702C36.0103 29.4402 36.8603 29.7602 37.4603 30.2202C37.9203 30.5002 38.2003 30.6702 38.3503 30.7602C38.7003 30.9702 39.0203 31.0302 39.3903 31.0102C39.5903 31.0002 40.1003 30.1702 40.0203 29.9802C39.8703 29.6402 39.6703 29.3902 39.3303 29.1602C39.1903 29.0802 39.0503 28.6802 38.6803 28.3902C38.6203 28.3402 38.5403 28.3202 38.4603 28.3202C37.7103 28.2902 37.0403 27.7602 37.0403 27.7602C37.0403 27.7602 35.9603 27.1002 35.5103 26.8202C35.1703 26.6102 35.0003 26.5102 34.9003 26.4502C34.5903 26.2702 34.3003 26.2002 33.9903 26.2002H33.9703Z" fill="#101214"/>
<path d="M34.95 18.7499C34.82 18.8699 34.82 19.9799 34.95 20.0999C35.14 20.2699 35.34 20.3499 35.6 20.3599C35.89 20.3099 35.96 20.0799 36.16 20.0999C36.49 20.0999 37.05 20.4099 37.19 20.4799C37.21 20.4899 37.23 20.4899 37.25 20.4799C37.39 20.4399 38.02 20.2699 38.56 20.3499C38.94 20.3499 39.18 20.3499 39.3 20.3499C39.59 20.3499 39.81 20.2299 40.02 20.0099C40.14 19.8899 40.14 18.9199 40.02 18.8099C39.81 18.5999 39.59 18.4799 39.3 18.4799C39.19 18.4799 38.95 18.2099 38.62 18.1699C38.57 18.1699 38.51 18.1799 38.46 18.2199C38 18.5799 37.39 18.4799 37.39 18.4799C37.39 18.4799 36.49 18.4799 36.11 18.4799C35.82 18.4799 35.69 18.4799 35.6 18.4799C35.34 18.4799 35.14 18.5799 34.95 18.7399V18.7499Z" fill="#101214"/>
<path d="M32.8602 11.3001C32.7402 11.5001 33.2902 12.4701 33.5302 12.4701C33.8702 12.4701 34.1802 12.3901 34.5302 12.2001C34.9002 11.9301 34.8802 11.6701 35.1602 11.5501C35.6102 11.2901 36.5202 11.1301 36.7402 11.1001C36.7702 11.1001 36.8002 11.0801 36.8302 11.0601C37.0002 10.9101 37.7702 10.2801 38.5402 9.94006C39.0502 9.64006 39.3702 9.46006 39.5402 9.37006C39.9302 9.14006 40.1702 8.87007 40.3502 8.52007C40.4502 8.33007 39.9702 7.48006 39.7602 7.47006C39.3702 7.45006 39.0102 7.52006 38.6202 7.73006C38.4702 7.82006 38.0202 7.76006 37.5402 7.98006C37.4602 8.01006 37.4002 8.07006 37.3502 8.15006C36.9002 8.82006 36.0302 9.20006 36.0302 9.20006C36.0302 9.20006 34.8102 9.89007 34.3002 10.1801C33.9102 10.4001 33.7302 10.5101 33.6102 10.5701C33.2702 10.7701 33.0402 11.0001 32.8702 11.2901L32.8602 11.3001Z" fill="#101214"/>
<path d="M27.1099 6.64013C27.1099 6.88013 28.0999 7.40013 28.2999 7.27013C28.5799 7.09013 28.8099 6.85013 28.9999 6.50013C29.1599 6.08013 29.0099 5.87013 29.1799 5.61013C29.4199 5.15013 30.0999 4.52013 30.2699 4.37013C30.2899 4.35013 30.3099 4.32013 30.3199 4.29013C30.3899 4.07013 30.6899 3.13013 31.1599 2.42013C31.4299 1.89013 31.5999 1.56013 31.6899 1.39013C31.8899 0.98013 31.9499 0.63013 31.9199 0.24013C31.8999 0.0201304 31.0399 -0.42987 30.8499 -0.31987C30.5099 -0.11987 30.2499 0.12013 30.0299 0.52013C29.9499 0.68013 29.5399 0.88013 29.2599 1.32013C29.2099 1.39013 29.1899 1.47013 29.1899 1.57013C29.1699 2.38013 28.6499 3.16013 28.6499 3.16013C28.6499 3.16013 27.9899 4.40013 27.7199 4.92013C27.5099 5.32013 27.4199 5.51013 27.3599 5.62013C27.1799 5.98013 27.1099 6.29013 27.1199 6.63013L27.1099 6.64013Z" fill="#101214"/>
</g>
</g>
<defs>
<clipPath id="clip0_1_7689">
<rect width="40" height="40" fill="white"/>
</clipPath>
<clipPath id="clip1_1_7689">
<rect width="40" height="40" fill="white"/>
</clipPath>
</defs>
</svg>
