<svg width="40" height="40" viewBox="0 0 40 40" fill="none" xmlns="http://www.w3.org/2000/svg">
<g clip-path="url(#clip0_1_8217)">
<g clip-path="url(#clip1_1_8217)">
<path d="M40 0H0V40H40V0Z" fill="#FFC716"/>
<path d="M15 0.89C15 12.65 24.53 22.18 36.29 22.18C37.77 22.18 39.22 22.03 40.61 21.74V0H15.04C15.03 0.3 15 0.59 15 0.89Z" fill="white"/>
<path d="M22.3 1.88L23.86 2.15C23.89 2.81 23.95 3.45 24.06 4.06C24.16 4.62 24.3 5.16 24.47 5.67L23.14 6.44C21.4 7.37 21.24 8.6 22 9.92C22.72 11.16 23.85 11.62 25.56 10.63L26.97 9.81C27.77 10.61 28.71 11.27 29.76 11.79L29.11 13.58H29.12C28.38 15.41 29.05 16.45 30.48 16.97C31.83 17.46 32.99 17.08 33.66 15.23L34.43 13.11C34.43 13.11 35.36 13.12 35.99 13.12C36.55 13.12 37.53 13.07 37.53 13.07L38.3 15.19C38.82 16.79 39.74 17.29 40.88 17.09V0H20C20.13 0.93 20.81 1.62 22.3 1.88Z" fill="#BF63F3"/>
<path d="M40.72 4.56V0H31.1C31.1 0 31.1 0.01 31.1 0.02C31.03 0.39 31 0.79 31 1.21C31 1.63 31.03 2.01 31.1 2.38C31.5 4.58 33.03 5.95 35.2 6.31C35.58 6.38 35.98 6.41 36.41 6.41C36.82 6.41 37.2 6.38 37.56 6.32C38.89 6.1 39.98 5.5 40.72 4.56Z" fill="#1868DB"/>
<path d="M15.67 30.4502C18.36 31.4902 21.19 31.1702 23.69 29.2402C24.21 28.8402 24.72 28.3702 25.21 27.8302C25.69 27.3002 26.1 26.7502 26.45 26.2002C28.09 23.5702 28.17 20.7802 26.94 18.2402L22.47 23.1402C20.16 25.6602 18.05 25.5002 16.21 23.8202C14.26 22.0302 13.87 19.9202 16.27 17.4702L20.72 12.5902C18.06 11.6002 15.28 11.9602 12.8 13.8802C12.29 14.2802 11.79 14.7402 11.3 15.2802C10.81 15.8202 10.39 16.3702 10.04 16.9302H10.06C8.38 19.6302 8.32 22.4802 9.63 25.0502L9.41 25.3002L1.7 33.8402L0 35.7302V40.0002H7.05L15.67 30.4502Z" fill="#1868DB"/>
<path d="M27.02 19.02C27.41 18.42 26.59 17.67 26.02 18.11C25.22 18.74 24.45 19.46 23.53 20.45C22.54 21.61 22.44 22.08 21.74 22.79C21.19 23.38 20.27 24 19.5 24.06C18.73 24.15 18.18 23.79 17.96 23.64C17.9 23.6 17.83 23.56 17.76 23.52C17.63 23.46 17.39 23.33 17.09 23.09C16.79 22.85 16.41 22.51 16.12 22.11C15.5 21.3 15.43 20.24 16.15 19.25C16.59 18.56 17.18 18.02 17.61 17.52C18.05 17.04 18.37 16.69 18.59 16.45C19.62 15.3 20.32 14.37 20.92 13.39C21.25 12.85 20.54 12.2 20.03 12.58C19.11 13.27 18.26 14.04 17.21 15.17C17.01 15.39 16.65 15.68 16.19 16.08C15.96 16.28 15.71 16.51 15.43 16.76C15.13 17.03 14.81 17.35 14.5 17.78C14.3 18.05 14.13 18.36 14.01 18.7C13.75 19.41 13.59 20.29 13.72 21.12C13.83 21.95 14.19 22.67 14.57 23.2C14.95 23.73 15.32 24.11 15.59 24.37C15.87 24.62 16.04 24.77 16.04 24.77C16.04 24.77 16.11 24.82 16.23 24.91C16.35 25 16.54 25.13 16.78 25.27C17.26 25.55 18.03 25.9 18.96 25.89C19.89 25.91 20.82 25.54 21.52 25.08C22.23 24.62 22.74 24.09 23.12 23.7C24.14 22.58 24.63 22.04 24.93 21.71C25.84 20.7 26.48 19.87 27.03 19.02H27.02Z" fill="#101214"/>
<path d="M-0.119881 35.9502C-0.279881 36.3102 0.550119 37.0502 0.890119 36.8502C1.37012 36.5602 1.80012 36.2102 2.29012 35.6702C2.79012 35.0302 2.75012 34.7202 3.14012 34.3302C3.76012 33.6302 5.03012 32.6702 5.34012 32.4402C5.39012 32.4102 5.43012 32.3702 5.46012 32.3202C5.70012 31.9902 6.74012 30.5702 7.80012 29.4902C8.51012 28.6902 8.95012 28.1902 9.18012 27.9302C9.72012 27.3102 10.0401 26.7802 10.2801 26.1902C10.4101 25.8702 9.69012 25.2202 9.38012 25.3902C8.82012 25.7002 8.33012 26.0802 7.78012 26.6802C7.57012 26.9202 6.93012 27.2302 6.27012 27.9002C6.16012 28.0102 6.08012 28.1302 6.01012 28.2802C5.42012 29.4902 4.22012 30.6902 4.22012 30.6902C4.22012 30.6902 2.54012 32.5702 1.83012 33.3602C1.30012 33.9602 1.04012 34.2502 0.890119 34.4302C0.420119 34.9702 0.110119 35.4502 -0.119881 35.9502Z" fill="#101214"/>
</g>
</g>
<defs>
<clipPath id="clip0_1_8217">
<rect width="40" height="40" fill="white"/>
</clipPath>
<clipPath id="clip1_1_8217">
<rect width="40" height="40" fill="white"/>
</clipPath>
</defs>
</svg>
