<svg width="40" height="40" viewBox="0 0 40 40" fill="none" xmlns="http://www.w3.org/2000/svg">
<g clip-path="url(#clip0_1_8152)">
<g clip-path="url(#clip1_1_8152)">
<path d="M40 0H0V40H40V0Z" fill="#09326C"/>
<path d="M20.3501 19.9302L40.0001 11.0102V-0.0698242H31.5201L20.3501 19.9302Z" fill="#BF63F3"/>
<path d="M36.2899 23.5704C36.4899 22.4304 36.5999 21.2304 36.5999 19.9504C36.5999 18.6704 36.4899 17.4304 36.2899 16.2804C35.0599 9.44035 30.3099 5.22035 23.6499 4.14035C22.5099 3.96035 21.3199 3.86035 20.0799 3.86035C18.8399 3.86035 17.5499 3.96035 16.3599 4.16035C9.6899 5.27035 4.9499 9.48035 3.7199 16.2804C3.5099 17.4304 3.3999 18.6504 3.3999 19.9504C3.3999 21.2504 3.5099 22.4304 3.7099 23.5704C4.9299 30.3604 9.6799 34.5803 16.3599 35.6903C17.5399 35.8903 18.7799 35.9904 20.0799 35.9904C21.3799 35.9904 22.5099 35.9004 23.6499 35.7104C30.3199 34.6204 35.0799 30.4004 36.2999 23.5704H36.2899Z" fill="#D8A0F7"/>
<path d="M28.3601 5.59033L20.3501 19.9303L35.3901 13.1003C34.0301 9.66033 31.5901 7.12033 28.3601 5.59033Z" fill="white"/>
<path d="M30.0099 20.9903C30.0099 21.8303 30.2099 22.3003 30.5199 22.3603C30.8199 22.4203 31.2299 22.0203 31.3599 21.0903C31.5299 19.7803 31.5599 18.4103 31.2799 16.9303C31.0199 15.4603 30.4299 13.8503 29.2599 12.3603C28.5899 11.5303 27.9099 10.9703 27.2999 10.5703C26.6899 10.1503 26.1299 9.89025 25.6199 9.66025C24.5699 9.23025 23.6499 8.98025 22.3099 8.72025C20.0399 8.31025 16.8799 8.32025 14.1999 9.36025C12.8699 9.86025 11.6999 10.6003 10.8599 11.3703C10.0099 12.1203 9.48991 12.8703 9.19991 13.2703C9.03991 13.5203 8.87991 13.7703 8.75991 14.0403C8.52991 14.5203 8.13991 15.4203 7.86991 16.6603C7.58991 17.9003 7.45991 19.4503 7.60991 21.1603C7.75991 22.8703 8.24991 24.7903 9.31991 26.5003C10.3799 28.2203 12.0199 29.6003 13.7999 30.4303C16.3499 31.5503 18.5799 31.6603 20.2799 31.6103C21.9999 31.5503 23.2599 31.2303 24.1099 30.9703C26.1099 30.3503 27.6999 29.2203 28.8099 27.9203C29.9099 26.6003 30.5499 25.1303 30.8599 23.6603C31.1399 22.0103 30.1499 21.9403 29.6999 23.3303C28.7799 25.8303 26.9599 28.0903 23.5399 29.1803C22.8799 29.3803 21.8099 29.5903 20.3899 29.5803C18.9799 29.5703 17.1899 29.4003 15.3499 28.6903C14.7599 28.4403 14.1699 28.2103 13.6199 27.8903C12.4199 27.2503 11.3399 26.1903 10.6299 24.9203C9.92991 23.6403 9.56991 22.2003 9.47991 20.9103C9.37991 19.6203 9.47991 18.4903 9.61991 17.7203C9.76991 16.9503 9.91991 16.5203 9.91991 16.5203C9.91991 16.5203 10.0799 15.8403 10.5699 14.8803C11.0599 13.9203 11.9799 12.7003 13.3499 11.8003C14.7099 10.8803 16.4899 10.3503 18.1899 10.1803C19.8999 10.0103 21.5099 10.1603 22.6399 10.4303C24.3599 10.8303 25.4899 11.4703 26.2599 12.0503C27.0299 12.6303 27.4799 13.1303 27.7899 13.5303C28.7399 14.7303 29.2799 16.0303 29.5899 17.2903C29.9099 18.5503 30.0099 19.7903 30.0199 20.9903H30.0099Z" fill="#101214"/>
<path d="M20.6601 4.48023C20.5401 3.66023 19.4301 3.66023 19.3101 4.48023C19.1401 5.64023 19.0601 6.86023 19.0501 8.42023C19.1001 10.1902 19.3301 10.6402 19.3101 11.8402C19.3101 13.8702 19.0001 17.3002 18.9201 18.1202C18.9101 18.2402 18.9101 18.3602 18.9201 18.4902C18.9601 19.3602 19.1301 23.2002 19.0501 26.5102C19.0501 28.8402 19.0501 30.2902 19.0501 31.0402C19.0501 32.8202 19.1701 34.1502 19.3801 35.4602C19.5001 36.1802 20.4701 36.1802 20.5801 35.4602C20.7901 34.1502 20.9101 32.8202 20.9101 31.0402C20.9101 30.3502 21.1801 28.9102 21.2201 26.8702C21.2201 26.5402 21.2101 26.2102 21.1701 25.8802C20.8101 23.0402 20.9101 19.3602 20.9101 19.3602C20.9101 19.3602 20.9101 13.8602 20.9101 11.5402C20.9101 9.79023 20.9101 8.95023 20.9101 8.43023C20.9101 6.86023 20.8101 5.65023 20.6501 4.49023L20.6601 4.48023Z" fill="#101214"/>
<path d="M35.97 20.54C36.81 20.42 36.81 19.31 35.97 19.19C34.77 19.02 33.51 18.94 31.9 18.93C30.07 18.98 29.61 19.21 28.37 19.19C26.27 19.19 22.73 18.88 21.88 18.8C21.75 18.79 21.63 18.79 21.5 18.8C20.6 18.84 16.63 19.01 13.22 18.93C10.81 18.93 9.32004 18.93 8.54004 18.93C6.70004 18.93 5.32004 19.05 3.97004 19.26C3.23004 19.38 3.23004 20.35 3.97004 20.46C5.32004 20.67 6.70004 20.79 8.54004 20.79C9.26004 20.79 10.75 21.06 12.85 21.1C13.19 21.1 13.54 21.09 13.88 21.05C16.81 20.69 20.62 20.79 20.62 20.79C20.62 20.79 26.3 20.79 28.7 20.79C30.51 20.79 31.38 20.79 31.91 20.79C33.53 20.79 34.79 20.69 35.98 20.53L35.97 20.54Z" fill="#101214"/>
<path d="M15.6597 27.7203C16.3169 27.7203 16.8497 27.1876 16.8497 26.5303C16.8497 25.8731 16.3169 25.3403 15.6597 25.3403C15.0025 25.3403 14.4697 25.8731 14.4697 26.5303C14.4697 27.1876 15.0025 27.7203 15.6597 27.7203Z" fill="white"/>
<path d="M10.2198 15.1403C10.877 15.1403 11.4098 14.6075 11.4098 13.9503C11.4098 13.293 10.877 12.7603 10.2198 12.7603C9.56257 12.7603 9.02979 13.293 9.02979 13.9503C9.02979 14.6075 9.56257 15.1403 10.2198 15.1403Z" fill="white"/>
<path d="M30.3799 18.3004C31.0372 18.3004 31.5699 17.7676 31.5699 17.1104C31.5699 16.4532 31.0372 15.9204 30.3799 15.9204C29.7227 15.9204 29.1899 16.4532 29.1899 17.1104C29.1899 17.7676 29.7227 18.3004 30.3799 18.3004Z" fill="white"/>
<path d="M25.17 30.7003C25.8272 30.7003 26.36 30.1675 26.36 29.5103C26.36 28.8531 25.8272 28.3203 25.17 28.3203C24.5128 28.3203 23.98 28.8531 23.98 29.5103C23.98 30.1675 24.5128 30.7003 25.17 30.7003Z" fill="white"/>
</g>
</g>
<defs>
<clipPath id="clip0_1_8152">
<rect width="40" height="40" fill="white"/>
</clipPath>
<clipPath id="clip1_1_8152">
<rect width="40" height="40" fill="white"/>
</clipPath>
</defs>
</svg>
