<svg width="40" height="40" viewBox="0 0 40 40" fill="none" xmlns="http://www.w3.org/2000/svg">
<g clip-path="url(#clip0_1_8122)">
<g clip-path="url(#clip1_1_8122)">
<path d="M40 0H0V40H40V0Z" fill="#09326C"/>
<path d="M36.4437 24.7602L29.0625 17.7102L29.0223 17.6702L29.9663 15.0202C28.0583 14.7102 26.2105 14.6402 24.433 14.7702L24.2522 9.91016L20.3357 15.4602C12.8541 17.5202 6.86885 23.7602 3.3038 33.7602C2.62092 35.6602 1.99829 37.8302 1.54639 40.0902H21.36C19.7934 35.6202 20.1047 31.8402 21.9123 28.7502C22.9668 29.4102 24.3627 29.6702 25.9494 29.4402C26.4113 29.3702 26.8432 29.2602 27.2448 29.1302L31.7037 31.4002C32.5372 31.8902 33.4611 32.0502 34.3448 31.9302C35.4997 31.7702 36.5742 31.1102 37.237 30.0702H37.2571C37.2571 30.0702 37.3073 29.9702 37.3374 29.9202C37.3676 29.8702 37.4077 29.8302 37.4379 29.7702V29.7302C38.2814 28.0802 37.94 26.0102 36.4437 24.7602Z" fill="white"/>
<path d="M24.4329 14.7703C24.8246 14.7403 25.2263 14.7303 25.628 14.7203L26.7327 12.0903C25.9192 11.9603 25.1259 11.8803 24.3325 11.8203L24.443 14.7703H24.4329Z" fill="#1868DB"/>
<path d="M1.55657 40.09C1.99843 37.83 2.6311 35.67 3.31399 33.76C6.87903 23.76 12.8643 17.52 20.3459 15.46L22.9468 11.77C13.0149 11.66 4.58937 17.74 0 29.34V40.09H3.20352H1.55657Z" fill="#1868DB"/>
<path d="M21.9331 16.7901C21.9331 16.7901 22.0031 16.6901 22.0431 16.6401Z" fill="white"/>
<path d="M24.4334 14.7702C25.6083 14.6902 26.8034 14.7002 28.0286 14.8002L35.6708 1.24023L24.4233 14.2702L24.4434 14.7702H24.4334Z" fill="#D8A0F7"/>
<path d="M34.9878 28.7804C35.1084 28.8304 36.2231 28.8904 36.3436 28.8204C36.5143 28.7304 36.6047 28.6204 36.6047 28.4704C36.5444 28.3004 36.3034 28.2904 36.3134 28.1804C36.2934 28.0104 36.4842 27.5704 36.5143 27.4404C36.5143 27.4204 36.5143 27.4104 36.5042 27.4004C36.4239 27.3104 36.0724 26.9904 35.8615 26.6804C35.6707 26.4904 35.5402 26.4104 35.4699 26.3704C35.3092 26.2704 35.1284 26.3004 34.9376 26.4404C34.8272 26.5104 34.4154 27.3904 34.3953 27.5104C34.3652 27.7304 34.3552 27.8604 34.4054 27.9004C34.4255 27.9204 34.315 28.1604 34.2949 28.2204C34.2949 28.2204 34.315 28.2204 34.3451 28.2004C34.6564 28.0004 34.6564 28.1804 34.6464 28.1804C34.6464 28.1804 34.7067 28.3404 34.7167 28.4504C34.7368 28.5204 34.7368 28.5704 34.7368 28.5904C34.7468 28.6704 34.8372 28.7304 34.9979 28.8004L34.9878 28.7804Z" fill="#101214"/>
<path d="M1.12492 39.2001C1.01445 40.3001 2.11911 40.4901 2.45051 39.4801C2.93255 38.0601 3.43467 36.5701 4.07738 34.6601C4.42886 33.5701 4.64979 32.9001 4.81047 32.2901C4.97115 31.6801 5.14187 31.1801 5.48331 30.4801C6.01556 29.2801 6.90933 27.7601 7.81315 26.4901C8.69687 25.2001 9.63082 24.2301 9.97226 23.8301L10.2635 23.4701C10.625 23.0501 11.5288 21.8701 12.9147 20.6101C14.3106 19.3801 16.1785 18.1001 18.0965 17.3001C20.7879 16.1401 22.6457 16.0101 23.5596 15.8401C24.6743 15.7601 25.6484 15.6301 26.5623 15.6401C27.0142 15.6401 27.456 15.5801 27.8879 15.5901C28.3197 15.5901 28.7415 15.5901 29.1633 15.6001C30.0872 15.6001 30.278 14.6401 29.3239 14.4101C28.8921 14.3101 28.4502 14.2101 28.0084 14.1101C27.5565 14.0201 27.0845 14.0001 26.6024 13.9501C25.6283 13.8301 24.5538 13.9001 23.3387 13.9801C22.8667 14.0601 22.1336 14.1001 21.1695 14.2001C20.2155 14.3801 19.0104 14.5801 17.6848 15.1101C17.2429 15.2501 16.8312 15.4701 16.4496 15.7201C14.7123 16.6901 12.9548 18.0801 11.6293 19.2101C11.0066 19.8101 10.4342 20.3101 10.0727 20.6901C9.71116 21.0801 9.50027 21.3101 9.50027 21.3101C9.50027 21.3101 9.18895 21.6601 8.68683 22.2101C8.23493 22.8101 7.57213 23.6001 6.9495 24.5401C5.66407 26.3901 4.46903 28.7501 3.83636 30.1701C3.3242 31.2301 3.07314 32.0601 2.81204 32.6701C2.57102 33.2801 2.41034 33.7101 2.29988 34.0401C1.62704 36.0301 1.29564 37.6301 1.12492 39.1801V39.2001Z" fill="#101214"/>
<path d="M26.5919 20.6804C26.4614 20.6704 25.3567 20.8704 25.2965 21.0804C25.2161 21.3604 25.2664 21.7004 25.5174 22.0004C25.8689 22.2904 26.0898 22.1304 26.2806 22.2804C26.6221 22.5004 27.2045 22.9204 27.3652 23.0004C27.3853 23.0104 27.4154 23.0204 27.4355 23.0204C27.6263 22.9804 28.259 22.9004 28.9921 22.7104C29.4942 22.5204 29.7553 22.2504 29.8758 22.1404C30.157 21.8404 30.2072 21.5204 30.1168 21.2304C30.0767 21.0604 29.1728 20.6804 29.0322 20.6904C28.7812 20.7204 28.6205 20.7404 28.5402 20.8104C28.5 20.8504 28.2891 20.6804 28.2188 20.6504C28.1987 20.6504 28.1987 20.6704 28.1987 20.7104C28.1586 21.1204 27.6564 21.0304 27.6866 21.0104C27.6765 21.0304 27.1443 20.9404 27.0539 20.8504C26.9635 20.8004 26.9434 20.7704 26.9233 20.7504C26.8731 20.7004 26.7727 20.7004 26.5819 20.6604L26.5919 20.6804Z" fill="#101214"/>
</g>
</g>
<defs>
<clipPath id="clip0_1_8122">
<rect width="40" height="40" fill="white"/>
</clipPath>
<clipPath id="clip1_1_8122">
<rect width="40" height="40" fill="white"/>
</clipPath>
</defs>
</svg>
