<svg width="40" height="40" viewBox="0 0 40 40" fill="none" xmlns="http://www.w3.org/2000/svg">
<g clip-path="url(#clip0_1_8081)">
<g clip-path="url(#clip1_1_8081)">
<path d="M40 0H0V40H40V0Z" fill="#BF63F3"/>
<path d="M39.9996 0H37.9957L11.0515 14.0245C6.60705 16.3385 6.27968 22.6295 10.4661 25.3943L32.6287 40.0699H39.9996V0Z" fill="#D8A0F7"/>
<path d="M36.5177 28.9804L36.0514 14.5652L30.9126 18.3118C31.0812 16.4385 31.3689 14.6254 31.7955 12.9023H5.46637C5.11915 15.7473 4.93066 18.6824 4.93066 21.7177C4.93066 24.753 5.10923 27.7783 5.44653 30.6433H31.7955C31.359 28.9103 31.0614 27.0871 30.8928 25.1938L34.5138 27.628L36.5177 28.9804Z" fill="#AE2A19"/>
<path d="M12.5096 26.5762C13.7479 26.5762 14.7517 25.5626 14.7517 24.3123C14.7517 23.0619 13.7479 22.0483 12.5096 22.0483C11.2714 22.0483 10.2676 23.0619 10.2676 24.3123C10.2676 25.5626 11.2714 26.5762 12.5096 26.5762Z" fill="white"/>
<path d="M15.6149 24.8133C15.5355 24.2523 14.4145 24.3926 14.2855 24.653C14.0673 25.0537 13.8193 25.3743 13.4423 25.6948C13.0356 26.0555 12.8967 26.3059 12.4502 26.3159C12.0733 26.3259 11.5971 26.0955 11.3391 25.755C11.0812 25.4144 11.0415 25.0637 11.0415 24.9435C11.0415 24.9035 11.0217 24.8734 11.0118 24.8434C10.9622 24.7432 10.8133 24.3826 10.9225 23.9218C11.0118 23.471 11.4483 22.9701 11.9741 22.8799C12.6983 22.6896 13.1546 22.9801 13.3332 23.0903C13.7895 23.4209 14.0871 23.7515 14.355 24.2223C14.484 24.4627 15.4562 24.5729 15.5455 24.1021C15.6744 23.2906 15.3768 22.2689 14.3848 21.5476C14.1863 21.4174 13.9185 21.1569 13.4621 20.9466C13.0157 20.7362 12.3709 20.5759 11.6169 20.7061C11.3788 20.7562 11.1407 20.8464 10.9423 20.9766C10.0495 21.5476 9.36495 22.4993 9.13678 23.3407C8.88876 24.1822 8.97805 24.8233 8.97805 24.8233C8.97805 24.8233 8.99789 25.0637 9.09709 25.4244C9.20622 25.785 9.41455 26.2759 9.79153 26.7066C10.1586 27.1374 10.6645 27.518 11.2102 27.7084C11.7459 27.9187 12.2915 27.9588 12.6784 27.9187C13.2736 27.8787 13.6903 27.6983 13.9879 27.5481C14.2855 27.3978 14.474 27.2476 14.603 27.1474C15.4264 26.4562 15.6843 25.5546 15.605 24.8133H15.6149Z" fill="#101214"/>
<path d="M35.6943 28.8103C35.8828 29.1509 36.9641 28.9005 37.0038 28.5299C37.0633 27.9989 37.0435 27.458 36.9443 26.7868C36.7756 26.0355 36.5276 25.8652 36.4979 25.3343C36.3887 24.4427 36.6268 22.9201 36.6963 22.5695C36.7062 22.5194 36.7062 22.4593 36.6963 22.4092C36.6367 22.0385 36.4681 20.3456 36.6665 18.9131C36.7459 17.9013 36.8252 17.2702 36.8649 16.9496C36.9641 16.1783 36.9542 15.5873 36.8649 14.9862C36.8153 14.6556 35.8729 14.4453 35.6943 14.7458C35.3768 15.2867 35.1487 15.8778 35.0296 16.6892C34.9899 16.9997 34.6328 17.6308 34.5137 18.5725C34.4939 18.7227 34.5038 18.883 34.5336 19.0333C34.7915 20.3656 34.7022 22.0485 34.7022 22.0485C34.7022 22.0485 34.7022 22.6796 34.7419 23.451C34.7717 24.2223 34.851 25.1139 34.9106 25.6548C35.0098 26.4562 35.0693 26.8369 35.109 27.0773C35.228 27.7886 35.4264 28.3295 35.6943 28.8103Z" fill="#101214"/>
<path d="M30.0993 14.1248C31.5278 14.0046 31.5278 12.8927 30.0993 12.7725C28.0656 12.6022 25.9327 12.522 23.1847 12.512C20.0696 12.5621 19.2958 12.7925 17.1926 12.7725C15.4069 12.7725 13.0161 12.6923 10.8931 12.6122C8.67089 12.512 6.71654 12.4218 5.96258 12.3918C5.536 12.3818 5.09949 12.3818 4.68283 12.3918C4.59354 12.3918 4.48442 12.3918 4.37529 12.3918C4.30585 12.4419 4.33561 12.6122 4.30585 12.7324C4.27609 13.0029 4.24632 13.3134 4.20664 13.654C4.17688 13.9545 4.14712 14.2751 4.11736 14.6257C4.09752 14.8361 4.0876 15.0564 4.06775 15.2969C3.99831 16.2485 3.92887 17.4406 3.87926 18.7629C3.78006 21.4175 3.72053 24.6131 3.96855 27.6184C4.00823 28.1493 4.0876 28.6502 4.14712 29.131L4.19672 29.4916C4.19672 29.5718 4.26617 29.8423 4.28601 30.0025C4.35545 30.3732 4.42489 30.7338 4.49434 31.0844C4.5241 31.2647 4.56378 31.435 4.59354 31.6053V31.6654H4.82172H5.09949C5.46655 31.6654 5.83361 31.6654 6.18083 31.6654C6.58757 31.6654 6.97448 31.6654 7.33162 31.6654C8.64113 31.6654 9.60342 31.6654 10.2681 31.6654C13.3931 31.6654 15.7244 31.5452 18.0161 31.3349C19.276 31.2146 19.276 30.243 18.0161 30.1328C15.7244 29.9224 13.3931 29.8022 10.2681 29.8022C9.66295 29.8022 8.72049 29.7321 7.49035 29.6619C7.18281 29.6419 6.85543 29.6219 6.50821 29.6119H6.38916L6.37924 29.6018H6.3594C6.3594 29.6018 6.33956 29.5718 6.33956 29.5618C6.33956 29.4616 6.32964 29.3614 6.31972 29.2512C6.28004 28.8605 6.23043 28.4598 6.18083 28.0391C6.14115 27.4781 6.05186 26.9171 5.98242 26.3462C5.64512 23.9119 5.6352 21.0469 5.74433 18.803C5.84353 16.5691 6.04194 14.9563 6.04194 14.9563C6.04194 14.9563 6.05187 14.8461 6.07171 14.6357C6.07171 14.5956 6.07171 14.5556 6.08163 14.5055C6.09155 14.4554 6.07171 14.3652 6.16099 14.3953C6.9844 14.3953 8.10542 14.3953 9.34549 14.3953C12.2621 14.3953 15.6946 14.3953 17.7284 14.3953C20.7938 14.3953 22.272 14.3953 23.1747 14.3953C25.9227 14.3953 28.0557 14.2951 30.0894 14.1348L30.0993 14.1248Z" fill="#101214"/>
<path d="M30.804 30.6637C31.0222 31.0744 32.0937 30.7939 32.1036 30.3431C32.1135 29.702 32.0639 29.0509 31.9052 28.2294C31.677 27.3078 31.4191 27.1175 31.3397 26.4764C31.1611 25.3945 31.3 23.5513 31.3695 23.1305C31.3695 23.0704 31.3695 23.0003 31.3695 22.9402C31.2901 22.5095 31.1016 20.4659 31.3496 18.7228C31.4587 17.4907 31.5778 16.7394 31.6373 16.3487C31.7762 15.4171 31.8159 14.7158 31.7762 13.9846C31.7564 13.5839 30.8238 13.3435 30.6155 13.7041C30.2484 14.3552 29.9707 15.0665 29.8119 16.0482C29.7524 16.4288 29.3655 17.1902 29.2068 18.3322C29.177 18.5125 29.1869 18.7028 29.2068 18.8931C29.3258 19.7046 29.3457 20.6161 29.3556 21.3274C29.3556 22.0486 29.3556 22.5595 29.3556 22.5595C29.3556 22.5595 29.3754 23.3409 29.4548 24.2625C29.5342 25.1941 29.683 26.266 29.7822 26.9071C29.9409 27.8688 30.0302 28.3196 30.0798 28.6001C30.2484 29.4516 30.4865 30.0927 30.7941 30.6737L30.804 30.6637Z" fill="#101214"/>
</g>
</g>
<defs>
<clipPath id="clip0_1_8081">
<rect width="40" height="40" fill="white"/>
</clipPath>
<clipPath id="clip1_1_8081">
<rect width="40" height="40" fill="white"/>
</clipPath>
</defs>
</svg>
